<?xml version="1.0" encoding="UTF-8" standalone="no"?>
<svg width="86px" height="25px" viewBox="0 0 86 25" version="1.1" xmlns="http://www.w3.org/2000/svg" xmlns:xlink="http://www.w3.org/1999/xlink" xmlns:sketch="http://www.bohemiancoding.com/sketch/ns">
    <!-- Generator: Sketch 3.3 (11970) - http://www.bohemiancoding.com/sketch -->
    <title>12toggle</title>
    <desc>Created with Sketch.</desc>
    <defs></defs>
    <g id="Page-1" stroke="none" stroke-width="1" fill="none" fill-rule="evenodd" sketch:type="MSPage">
        <g id="12toggle" sketch:type="MSLayerGroup">
            <path d="M6.812,15.272 C6.524,15.256 6.156,15.272 5.755,15.336 C3.547,15.705 2.378,17.321 2.138,19.034 L2.186,19.034 C2.682,18.377 3.547,17.833 4.699,17.833 C6.54,17.833 7.836,19.162 7.836,21.195 C7.836,23.1 6.54,24.86 4.379,24.86 C2.154,24.86 0.698,23.131 0.698,20.426 C0.698,18.377 1.434,16.761 2.458,15.736 C3.323,14.888 4.475,14.36 5.788,14.2 C6.204,14.136 6.556,14.12 6.812,14.12 L6.812,15.272 L6.812,15.272 Z M6.412,21.275 C6.412,19.786 5.563,18.89 4.267,18.89 C3.418,18.89 2.634,19.418 2.25,20.17 C2.154,20.33 2.09,20.539 2.09,20.794 C2.122,22.507 2.906,23.771 4.379,23.771 C5.596,23.771 6.412,22.763 6.412,21.275 L6.412,21.275 Z" id="Fill-1" fill="#231F1F" sketch:type="MSShapeGroup"></path>
            <path d="M9.741,16.169 L10.796,16.169 L10.796,19.791 L10.82,19.791 C10.988,19.491 11.252,19.227 11.576,19.047 C11.888,18.867 12.259,18.748 12.655,18.748 C13.434,18.748 14.682,19.227 14.682,21.23 L14.682,24.684 L13.626,24.684 L13.626,21.35 C13.626,20.415 13.279,19.623 12.283,19.623 C11.6,19.623 11.06,20.102 10.868,20.678 C10.808,20.822 10.796,20.978 10.796,21.182 L10.796,24.684 L9.741,24.684 L9.741,16.169" id="Fill-2" fill="#231F1F" sketch:type="MSShapeGroup"></path>
            <path d="M67.968,15.592 L67.937,15.592 L66.128,16.569 L65.855,15.497 L68.128,14.28 L69.329,14.28 L69.329,24.684 L67.968,24.684 L67.968,15.592" id="Fill-3" fill="#231F1F" sketch:type="MSShapeGroup"></path>
            <path d="M72.162,24.684 L72.162,23.82 L73.267,22.747 C75.924,20.218 77.124,18.873 77.14,17.305 C77.14,16.248 76.628,15.272 75.075,15.272 C74.131,15.272 73.347,15.752 72.867,16.153 L72.418,15.16 C73.139,14.552 74.163,14.104 75.363,14.104 C77.604,14.104 78.549,15.641 78.549,17.129 C78.549,19.05 77.156,20.602 74.963,22.715 L74.131,23.483 L74.131,23.516 L78.805,23.516 L78.805,24.684 L72.162,24.684" id="Fill-4" fill="#231F1F" sketch:type="MSShapeGroup"></path>
            <path d="M80.675,16.169 L81.731,16.169 L81.731,19.791 L81.755,19.791 C81.923,19.491 82.187,19.227 82.51,19.047 C82.822,18.867 83.194,18.748 83.59,18.748 C84.369,18.748 85.617,19.227 85.617,21.23 L85.617,24.684 L84.561,24.684 L84.561,21.35 C84.561,20.415 84.213,19.623 83.218,19.623 C82.534,19.623 81.995,20.102 81.803,20.678 C81.743,20.822 81.731,20.978 81.731,21.182 L81.731,24.684 L80.675,24.684 L80.675,16.169" id="Fill-5" fill="#231F1F" sketch:type="MSShapeGroup"></path>
            <path d="M31.623,24.771 C24.93,24.771 19.487,19.326 19.487,12.635 C19.487,5.944 24.93,0.5 31.623,0.5 L48.077,0.5 C54.769,0.5 60.212,5.944 60.212,12.635 C60.212,19.326 54.769,24.771 48.077,24.771 L31.623,24.771" id="Fill-6" fill="#231F1F" sketch:type="MSShapeGroup"></path>
            <path d="M47.623,24.153 C41.261,24.153 36.104,18.996 36.104,12.635 C36.104,6.275 41.261,1.117 47.623,1.117 C53.983,1.117 59.141,6.275 59.141,12.635 C59.141,18.996 53.983,24.153 47.623,24.153 Z" id="Fill-7" fill="#FFFFFF" sketch:type="MSShapeGroup"></path>
        </g>
    </g>
</svg>