<?xml version="1.0" encoding="UTF-8" standalone="no"?>
<svg width="44px" height="41px" viewBox="0 0 44 41" version="1.1" xmlns="http://www.w3.org/2000/svg" xmlns:xlink="http://www.w3.org/1999/xlink" xmlns:sketch="http://www.bohemiancoding.com/sketch/ns">
    <!-- Generator: Sketch 3.3 (11970) - http://www.bohemiancoding.com/sketch -->
    <title>aboutSmallIcon</title>
    <desc>Created with Sketch.</desc>
    <defs></defs>
    <g id="Page-1" stroke="none" stroke-width="1" fill="none" fill-rule="evenodd" sketch:type="MSPage">
        <g id="aboutSmallIcon" sketch:type="MSLayerGroup">
            <path d="M43.666,16.596 C43.666,25.459 33.94,32.644 21.944,32.644 C9.948,32.644 0.224,25.459 0.224,16.596 C0.224,7.732 9.948,0.547 21.944,0.547 C33.94,0.547 43.666,7.732 43.666,16.596" id="Fill-1" fill="#000000" sketch:type="MSShapeGroup"></path>
            <path d="M14.196,31.123 L14.196,40.946 L22.565,32.576 L14.196,31.123" id="Fill-2" fill="#000000" sketch:type="MSShapeGroup"></path>
            <path d="M12.688,10.547 L31.489,10.547 M12.688,14.424 L31.489,14.424 M12.688,18.303 L31.489,18.303 M12.688,22.179 L31.489,22.179 M12.688,10.547 L31.489,10.547 M12.688,14.424 L31.489,14.424 M12.688,18.303 L31.489,18.303 M12.688,22.179 L31.489,22.179" id="Stroke-3" stroke="#FFFFFF" stroke-linecap="round" sketch:type="MSShapeGroup"></path>
        </g>
    </g>
</svg>