<?xml version="1.0" encoding="UTF-8" standalone="no"?>
<svg width="282px" height="416px" viewBox="0 0 282 416" version="1.1" xmlns="http://www.w3.org/2000/svg" xmlns:xlink="http://www.w3.org/1999/xlink" xmlns:sketch="http://www.bohemiancoding.com/sketch/ns">
    <!-- Generator: Sketch 3.3 (11970) - http://www.bohemiancoding.com/sketch -->
    <title>adjsutOnlineBackground</title>
    <desc>Created with Sketch.</desc>
    <defs></defs>
    <g id="Page-1" stroke="none" stroke-width="1" fill="none" fill-rule="evenodd" sketch:type="MSPage">
        <g id="adjsutOnlineBackground" sketch:type="MSLayerGroup" transform="translate(1.000000, 0.000000)">
            <g id="Page-1" sketch:type="MSShapeGroup">
                <g id="adjsutOnlineBackground">
                    <path d="M85.4190092,10.8456192 L84.3143882,10.8456192 L84.3143882,6.37456562 L79.3103216,6.37456562 L79.3103216,10.8456192 L78.2057006,10.8456192 L78.2057006,1.34521257 L79.3103216,1.34521257 L79.3103216,5.387061 L84.3143882,5.387061 L84.3143882,1.34521257 L85.4190092,1.34521257 L85.4190092,10.8456192" id="Fill-62" fill="#FFFFFF"></path>
                    <path d="M87.7713198,1.79304991 C87.7713198,1.54617375 87.8318743,1.3651756 87.9529834,1.25005545 C88.0747579,1.13560074 88.2258115,1.07837338 88.4081405,1.07837338 C88.5818189,1.07837338 88.7308762,1.13693161 88.8566433,1.25404806 C88.9817449,1.37116451 89.0449612,1.55016636 89.0449612,1.79304991 C89.0449612,2.03526802 88.9817449,2.21626617 88.8566433,2.33537893 C88.7308762,2.45449168 88.5818189,2.51438078 88.4081405,2.51438078 C88.2258115,2.51438078 88.0747579,2.45449168 87.9529834,2.33537893 C87.8318743,2.21626617 87.7713198,2.03526802 87.7713198,1.79304991 L87.7713198,1.79304991 L87.7713198,1.79304991 Z M87.8624843,3.72347505 L88.9411534,3.72347505 L88.9411534,10.8456192 L87.8624843,10.8456192 L87.8624843,3.72347505 L87.8624843,3.72347505 Z" id="Fill-63" fill="#FFFFFF"></path>
                    <path d="M97.0574566,3.72347505 L97.0574566,4.40554529 L95.7385656,4.56125693 C95.8596747,4.71297597 95.967475,4.91127542 96.0632976,5.15548983 C96.1584547,5.40036969 96.206366,5.67652495 96.206366,5.98462107 C96.206366,6.6819963 95.967475,7.23896488 95.491024,7.65486137 C95.0152384,8.07075786 94.360451,8.27837338 93.528658,8.27837338 C93.3163845,8.27837338 93.1174196,8.26107209 92.931098,8.2264695 C92.4712828,8.46868762 92.2423734,8.77478743 92.2423734,9.14277264 C92.2423734,9.33774492 92.3222255,9.48147874 92.4825952,9.57463956 C92.6429649,9.66780037 92.9177893,9.71504621 93.3077338,9.71504621 L94.568732,9.71504621 C95.3399704,9.71504621 95.932207,9.8774122 96.3461072,10.2021442 C96.7600074,10.5268762 96.9662921,10.9986691 96.9662921,11.618854 C96.9662921,12.4067283 96.6502107,13.008281 96.0180481,13.4215157 C95.38522,13.8354159 94.4629279,14.042366 93.2491756,14.042366 C92.3182329,14.042366 91.6002292,13.869353 91.0951645,13.5233272 C90.5900998,13.1759704 90.3379002,12.6862107 90.3379002,12.0540481 C90.3379002,11.6208503 90.4763105,11.2462107 90.7537967,10.9301294 C91.0312828,10.6133826 91.4212274,10.3991128 91.9236303,10.2866543 C91.7419667,10.2041405 91.5889168,10.0763771 91.4658115,9.90336414 C91.3420407,9.72968577 91.2801553,9.52805915 91.2801553,9.29914972 C91.2801553,9.03896488 91.3500259,8.81138632 91.4884362,8.61641405 C91.6268466,8.42144177 91.8457745,8.23312384 92.1445545,8.05146026 C91.7759039,7.89907579 91.4764584,7.64155268 91.2448872,7.27822551 C91.0126506,6.9142329 90.8968651,6.49833641 90.8968651,6.03053604 C90.8968651,5.25064695 91.131098,4.64909427 91.5988983,4.225878 C92.0666987,3.80399261 92.7294713,3.59304991 93.5872163,3.59304991 C93.9598595,3.59304991 94.2959039,3.63630314 94.5946839,3.72347505 L97.0574566,3.72347505 L97.0574566,3.72347505 Z M91.3779741,12.0414048 C91.3779741,12.4266913 91.5403401,12.718817 91.8650721,12.9184473 C92.1904695,13.1174122 92.6562736,13.2172274 93.2624843,13.2172274 C94.167475,13.2172274 94.8382329,13.0814787 95.273427,12.810647 C95.7092865,12.5404806 95.9268835,12.1731608 95.9268835,11.7100185 C95.9268835,11.3240665 95.8077708,11.0558965 95.5695453,10.9068392 C95.3306543,10.7571165 94.8821516,10.6832532 94.224037,10.6832532 L92.931098,10.6832532 C92.4420037,10.6832532 92.0600444,10.7997043 91.7872163,11.0339372 C91.5143882,11.2675046 91.3779741,11.6028835 91.3779741,12.0414048 L91.3779741,12.0414048 L91.3779741,12.0414048 Z M91.9628909,6.00391867 C91.9628909,6.50166359 92.103963,6.87896488 92.3854418,7.13515712 C92.6662551,7.39001848 93.0588614,7.51844732 93.5612643,7.51844732 C94.6139815,7.51844732 95.1403401,7.00672828 95.1403401,5.98462107 C95.1403401,4.91460259 94.6073272,4.37959335 93.5419667,4.37959335 C93.0349057,4.37959335 92.6449612,4.51600739 92.3721331,4.78950092 C92.099305,5.06232902 91.9628909,5.46691312 91.9628909,6.00391867 L91.9628909,6.00391867 L91.9628909,6.00391867 Z" id="Fill-64" fill="#FFFFFF"></path>
                    <path d="M103.393057,10.8456192 L103.393057,6.23815157 C103.393057,5.65722736 103.261301,5.22402957 102.997124,4.93855823 C102.732281,4.65242144 102.319046,4.51001848 101.756089,4.51001848 C101.00681,4.51001848 100.459157,4.71297597 100.115128,5.12022181 C99.7704325,5.52746765 99.598085,6.19489834 99.598085,7.12184843 L99.598085,10.8456192 L98.5194159,10.8456192 L98.5194159,0.734343808 L99.598085,0.734343808 L99.598085,3.79467652 C99.598085,4.16266174 99.5807837,4.46809612 99.5461811,4.71097967 L99.6113937,4.71097967 C99.8236673,4.3689464 100.125774,4.09878004 100.517715,3.90114603 C100.909656,3.70417745 101.357494,3.6063586 101.859896,3.6063586 C102.730285,3.6063586 103.383741,3.81264325 103.818935,4.225878 C104.254129,4.63977819 104.472392,5.29789279 104.472392,6.19889094 L104.472392,10.8456192 L103.393057,10.8456192" id="Fill-65" fill="#FFFFFF"></path>
                    <path d="M109.696717,10.9753789 C108.644,10.9753789 107.813538,10.6546396 107.204665,10.0138262 C106.595793,9.3723475 106.291689,8.4819963 106.291689,7.34277264 C106.291689,6.19489834 106.574499,5.28325323 107.139453,4.6071719 C107.705072,3.93109057 108.464333,3.59304991 109.417235,3.59304991 C110.309582,3.59304991 111.016274,3.88650647 111.535978,4.47341959 C112.055682,5.06033272 112.315867,5.83556377 112.315867,6.79711645 L112.315867,7.47918669 L107.409619,7.47918669 C107.430913,8.31497227 107.641856,8.94979667 108.043113,9.38365989 C108.443704,9.81619224 109.007993,10.0331238 109.735978,10.0331238 C110.502558,10.0331238 111.261153,9.87275416 112.010433,9.55201479 L112.010433,10.5142329 C111.629139,10.6785952 111.268473,10.7963771 110.928436,10.8675786 C110.588399,10.93878 110.177826,10.9753789 109.696717,10.9753789 L109.696717,10.9753789 L109.696717,10.9753789 Z M109.404591,4.4967098 C108.832318,4.4967098 108.376495,4.68236599 108.036458,5.05567468 C107.696421,5.4276525 107.496126,5.94336414 107.435571,6.60214418 L111.158677,6.60214418 C111.158677,5.92207024 111.007623,5.40036969 110.704185,5.03903882 C110.400747,4.67704251 109.967549,4.4967098 109.404591,4.4967098 L109.404591,4.4967098 L109.404591,4.4967098 Z" id="Fill-66" fill="#FFFFFF"></path>
                    <path d="M117.403778,3.59304991 C117.720525,3.59304991 118.004,3.61966728 118.255534,3.67157116 L118.105811,4.67238447 C117.811024,4.6071719 117.551505,4.57456562 117.325922,4.57456562 C116.749656,4.57456562 116.257235,4.80879852 115.847327,5.27659889 C115.438085,5.74439926 115.233797,6.32665434 115.233797,7.02469501 L115.233797,10.8456192 L114.154462,10.8456192 L114.154462,3.72347505 L115.044813,3.72347505 L115.168584,5.04236599 L115.220488,5.04236599 C115.484665,4.57855823 115.803409,4.22121996 116.175386,3.9703512 C116.54803,3.71881701 116.957272,3.59304991 117.403778,3.59304991" id="Fill-67" fill="#FFFFFF"></path>
                    <path d="M127.424555,10.8456192 L127.210285,9.83149723 L127.157715,9.83149723 C126.802373,10.2773383 126.448362,10.5794455 126.095682,10.7378189 C125.742336,10.8961922 125.301153,10.9753789 124.773464,10.9753789 C124.066773,10.9753789 123.513797,10.7937153 123.11254,10.4297227 C122.711948,10.0657301 122.511652,9.54802218 122.511652,8.87659889 C122.511652,7.43792976 123.661523,6.68399261 125.962595,6.61545287 L127.171024,6.57619224 L127.171024,6.13434381 C127.171024,5.57537893 127.05058,5.16214418 126.810359,4.89530499 C126.570137,4.62913124 126.18485,4.4967098 125.656495,4.4967098 C125.063593,4.4967098 124.391505,4.67837338 123.642226,5.04236599 L123.310839,4.21722736 C123.661523,4.02624769 124.04681,3.87652495 124.464702,3.76872458 C124.88193,3.66025878 125.301153,3.6063586 125.721708,3.6063586 C126.570802,3.6063586 127.200303,3.79467652 127.609545,4.17131238 C128.018787,4.54861368 128.223741,5.1528281 128.223741,5.98462107 L128.223741,10.8456192 L127.424555,10.8456192 L127.424555,10.8456192 Z M124.987734,10.0850277 C125.658492,10.0850277 126.186181,9.9007024 126.570137,9.53271719 C126.953427,9.16473198 127.145072,8.64902033 127.145072,7.98624769 L127.145072,7.34277264 L126.066403,7.38868762 C125.208658,7.41863216 124.589804,7.55171904 124.211172,7.78728281 C123.831874,8.02351201 123.642226,8.39083179 123.642226,8.88924214 C123.642226,9.27918669 123.760673,9.57597043 123.996237,9.78025878 C124.232466,9.98321627 124.563187,10.0850277 124.987734,10.0850277 L124.987734,10.0850277 L124.987734,10.0850277 Z" id="Fill-68" fill="#FFFFFF"></path>
                    <path d="M132.00607,10.8456192 L129.30241,3.72347505 L130.458935,3.72347505 L131.992762,7.9476525 C132.339453,8.93515712 132.543076,9.57597043 132.60363,9.87075786 L132.655534,9.87075786 C132.70278,9.64051756 132.853834,9.16539741 133.107364,8.44340111 C133.360895,7.72273567 133.929176,6.14898336 134.812872,3.72347505 L135.970063,3.72347505 L133.266403,10.8456192 L132.00607,10.8456192" id="Fill-69" fill="#FFFFFF"></path>
                    <path d="M142.942484,3.72347505 L142.942484,4.40554529 L141.623593,4.56125693 C141.744702,4.71297597 141.852503,4.91127542 141.948325,5.15548983 C142.044148,5.40036969 142.091394,5.67652495 142.091394,5.98462107 C142.091394,6.6819963 141.852503,7.23896488 141.376717,7.65486137 C140.900266,8.07075786 140.245479,8.27837338 139.413686,8.27837338 C139.201412,8.27837338 139.002447,8.26107209 138.816126,8.2264695 C138.356311,8.46868762 138.127401,8.77478743 138.127401,9.14277264 C138.127401,9.33774492 138.207253,9.48147874 138.367623,9.57463956 C138.527993,9.66780037 138.802817,9.71504621 139.192762,9.71504621 L140.45376,9.71504621 C141.224998,9.71504621 141.817235,9.8774122 142.231135,10.2021442 C142.645035,10.5268762 142.85132,10.9986691 142.85132,11.618854 C142.85132,12.4067283 142.535238,13.008281 141.903076,13.4215157 C141.270248,13.8354159 140.347956,14.042366 139.134203,14.042366 C138.203261,14.042366 137.485257,13.869353 136.980192,13.5233272 C136.475128,13.1759704 136.222928,12.6862107 136.222928,12.0540481 C136.222928,11.6208503 136.361338,11.2462107 136.638824,10.9301294 C136.916311,10.6133826 137.306255,10.3991128 137.808658,10.2866543 C137.626994,10.2041405 137.473945,10.0763771 137.350839,9.90336414 C137.227068,9.72968577 137.165183,9.52805915 137.165183,9.29914972 C137.165183,9.03896488 137.235054,8.81138632 137.373464,8.61641405 C137.511874,8.42144177 137.730802,8.23312384 138.029582,8.05146026 C137.661597,7.89907579 137.361486,7.64155268 137.129915,7.27822551 C136.897678,6.9142329 136.781893,6.49833641 136.781893,6.03053604 C136.781893,5.25064695 137.016126,4.64909427 137.483926,4.225878 C137.951726,3.80399261 138.614499,3.59304991 139.472244,3.59304991 C139.844887,3.59304991 140.180932,3.63630314 140.479712,3.72347505 L142.942484,3.72347505 L142.942484,3.72347505 Z M137.263002,12.0414048 C137.263002,12.4266913 137.425368,12.718817 137.7501,12.9184473 C138.075497,13.1174122 138.541301,13.2172274 139.147512,13.2172274 C140.052503,13.2172274 140.723261,13.0814787 141.158455,12.810647 C141.594314,12.5404806 141.811911,12.1731608 141.811911,11.7100185 C141.811911,11.3240665 141.692799,11.0558965 141.454573,10.9068392 C141.215682,10.7571165 140.767845,10.6832532 140.109065,10.6832532 L138.816126,10.6832532 C138.327031,10.6832532 137.945072,10.7997043 137.672244,11.0339372 C137.399416,11.2675046 137.263002,11.6028835 137.263002,12.0414048 L137.263002,12.0414048 L137.263002,12.0414048 Z M137.847919,6.00391867 C137.847919,6.50166359 137.988991,6.87896488 138.27047,7.13515712 C138.551283,7.39001848 138.943889,7.51844732 139.446292,7.51844732 C140.499009,7.51844732 141.025368,7.00672828 141.025368,5.98462107 C141.025368,4.91460259 140.492355,4.37959335 139.426994,4.37959335 C138.919933,4.37959335 138.529989,4.51600739 138.257161,4.78950092 C137.984333,5.06232902 137.847919,5.46691312 137.847919,6.00391867 L137.847919,6.00391867 L137.847919,6.00391867 Z" id="Fill-70" fill="#FFFFFF"></path>
                    <path d="M148.024407,1.34521257 L150.708104,1.34521257 C151.969102,1.34521257 152.880747,1.5335305 153.443704,1.91016636 C154.007327,2.28746765 154.288806,2.88236599 154.288806,3.69752311 C154.288806,4.26048059 154.131763,4.72428835 153.817678,5.09027726 C153.503593,5.45693161 153.045774,5.69449168 152.442891,5.80295749 L152.442891,5.86817006 C153.885553,6.11504621 154.606884,6.87231054 154.606884,8.14262477 C154.606884,8.9910536 154.320081,9.65382625 153.745811,10.1309427 C153.172207,10.6073937 152.369693,10.8456192 151.33827,10.8456192 L148.024407,10.8456192 L148.024407,1.34521257 L148.024407,1.34521257 Z M149.129028,5.41301294 L150.948325,5.41301294 C151.728214,5.41301294 152.289176,5.28990758 152.631874,5.04502773 C152.973908,4.80081331 153.144924,4.38824399 153.144924,3.80798521 C153.144924,3.27497227 152.95461,2.8903512 152.573316,2.65345656 C152.192022,2.41789279 151.585146,2.30011091 150.753353,2.30011091 L149.129028,2.30011091 L149.129028,5.41301294 L149.129028,5.41301294 Z M149.129028,6.34861368 L149.129028,9.90336414 L151.110691,9.90336414 C151.877937,9.90336414 152.454869,9.75430684 152.842817,9.45752311 C153.230765,9.16140481 153.424407,8.69693161 153.424407,8.06410351 C153.424407,7.47452865 153.226107,7.04133087 152.829508,6.76451017 C152.433575,6.48702403 151.830691,6.34861368 151.020192,6.34861368 L149.129028,6.34861368 L149.129028,6.34861368 Z" id="Fill-71" fill="#FFFFFF"></path>
                    <path d="M160.826033,5.86817006 L164.056052,5.86817006 L164.056052,10.488281 C163.553649,10.6479852 163.04193,10.7690943 162.522226,10.8522736 C162.002521,10.934122 161.399638,10.9753789 160.715571,10.9753789 C159.277567,10.9753789 158.156976,10.5475046 157.355793,9.69109057 C156.55461,8.83667283 156.154018,7.63756007 156.154018,6.09508318 C156.154018,5.10757856 156.351652,4.24184843 156.748251,3.49855823 C157.14485,2.75593346 157.715128,2.18831793 158.460414,1.79571165 C159.206366,1.40377079 160.07875,1.20813309 161.079564,1.20813309 C162.09302,1.20813309 163.037272,1.39445471 163.912983,1.76709797 L163.483778,2.74195933 C162.626033,2.37796673 161.800895,2.19630314 161.008362,2.19630314 C159.851172,2.19630314 158.948177,2.54033272 158.298048,3.22972274 C157.648584,3.91844732 157.323187,4.87334566 157.323187,6.09508318 C157.323187,7.37737523 157.636606,8.3502403 158.26278,9.01301294 C158.888288,9.67578558 159.807919,10.0071719 161.021006,10.0071719 C161.67912,10.0071719 162.322595,9.93131238 162.950765,9.78025878 L162.950765,6.85567468 L160.826033,6.85567468 L160.826033,5.86817006" id="Fill-72" fill="#FFFFFF"></path>
                    <path d="M169.020858,7.20036969 C169.020858,6.05182994 169.187882,4.97781885 169.523926,3.97634011 C169.85997,2.97619224 170.344407,2.09914972 170.976569,1.34521257 L172.029287,1.34521257 C171.405774,2.18033272 170.935978,3.0992976 170.622558,4.10011091 C170.308473,5.10092421 170.151431,6.12968577 170.151431,7.187061 C170.151431,8.2264695 170.3118,9.2425878 170.631874,10.2347505 C170.952614,11.2262477 171.41376,12.1319039 172.015978,12.9510536 L170.976569,12.9510536 C170.339749,12.2144177 169.853982,11.3540111 169.520599,10.3711645 C169.187882,9.38698706 169.020858,8.3309427 169.020858,7.20036969" id="Fill-73" fill="#FFFFFF"></path>
                    <path d="M176.818418,3.59304991 C177.135165,3.59304991 177.41864,3.61966728 177.670174,3.67157116 L177.520451,4.67238447 C177.226329,4.6071719 176.966144,4.57456562 176.740562,4.57456562 C176.164296,4.57456562 175.671874,4.80879852 175.261967,5.27659889 C174.852725,5.74439926 174.648436,6.32665434 174.648436,7.02469501 L174.648436,10.8456192 L173.569102,10.8456192 L173.569102,3.72347505 L174.459453,3.72347505 L174.583224,5.04236599 L174.635128,5.04236599 C174.89997,4.57855823 175.218048,4.22121996 175.590691,3.9703512 C175.962669,3.71881701 176.371911,3.59304991 176.818418,3.59304991" id="Fill-74" fill="#FFFFFF"></path>
                    <path d="M182.010802,10.9753789 C180.958085,10.9753789 180.127623,10.6546396 179.51875,10.0138262 C178.909878,9.3723475 178.605774,8.4819963 178.605774,7.34277264 C178.605774,6.19489834 178.888584,5.28325323 179.453538,4.6071719 C180.019157,3.93109057 180.777752,3.59304991 181.73132,3.59304991 C182.623667,3.59304991 183.329693,3.88650647 183.850063,4.47341959 C184.369767,5.06033272 184.629952,5.83556377 184.629952,6.79711645 L184.629952,7.47918669 L179.723704,7.47918669 C179.744998,8.31497227 179.955941,8.94979667 180.357198,9.38365989 C180.757789,9.81619224 181.322078,10.0331238 182.050063,10.0331238 C182.816643,10.0331238 183.575238,9.87275416 184.324518,9.55201479 L184.324518,10.5142329 C183.942558,10.6785952 183.581893,10.7963771 183.242521,10.8675786 C182.902484,10.93878 182.491911,10.9753789 182.010802,10.9753789 L182.010802,10.9753789 L182.010802,10.9753789 Z M181.718677,4.4967098 C181.146403,4.4967098 180.69058,4.68236599 180.350543,5.05567468 C180.010506,5.4276525 179.809545,5.94336414 179.749656,6.60214418 L183.472762,6.60214418 C183.472762,5.92207024 183.321708,5.40036969 183.01827,5.03903882 C182.714832,4.67704251 182.281634,4.4967098 181.718677,4.4967098 L181.718677,4.4967098 L181.718677,4.4967098 Z" id="Fill-75" fill="#FFFFFF"></path>
                    <path d="M191.316237,9.89005545 L191.258344,9.89005545 C190.759268,10.6133826 190.014647,10.9753789 189.022484,10.9753789 C188.091542,10.9753789 187.366884,10.6573013 186.849176,10.0198152 C186.330802,9.38365989 186.072614,8.47733826 186.072614,7.30417745 C186.072614,6.12968577 186.332133,5.21804067 186.851837,4.56791128 C187.372207,3.91844732 188.095534,3.59304991 189.022484,3.59304991 C189.988695,3.59304991 190.729989,3.94439926 191.245035,4.6457671 L191.329545,4.6457671 L191.284296,4.13271719 L191.258344,3.63231054 L191.258344,0.734343808 L192.337013,0.734343808 L192.337013,10.8456192 L191.459305,10.8456192 L191.316237,9.89005545 L191.316237,9.89005545 Z M189.158898,10.0723845 C189.895534,10.0723845 190.429213,9.87142329 190.760599,9.47083179 C191.091985,9.0702403 191.258344,8.42343808 191.258344,7.53109057 L191.258344,7.30417745 C191.258344,6.29404806 191.090654,5.57404806 190.75461,5.14284658 C190.418566,4.7116451 189.882226,4.4967098 189.146255,4.4967098 C188.513427,4.4967098 188.029656,4.74225508 187.693612,5.23334566 C187.357567,5.7257671 187.189878,6.42048059 187.189878,7.3168207 C187.189878,8.2264695 187.356902,8.91253235 187.690285,9.37700555 C188.023667,9.84014787 188.513427,10.0723845 189.158898,10.0723845 L189.158898,10.0723845 L189.158898,10.0723845 Z" id="Fill-76" fill="#FFFFFF"></path>
                    <path d="M195.638233,3.72347505 L195.638233,8.34358595 C195.638233,8.92384473 195.769989,9.35704251 196.034166,9.6431793 C196.299009,9.92931608 196.712244,10.0723845 197.275201,10.0723845 C198.021153,10.0723845 198.565479,9.86809612 198.910174,9.46151571 C199.254203,9.05360444 199.426551,8.38883549 199.426551,7.46654344 L199.426551,3.72347505 L200.50522,3.72347505 L200.50522,10.8456192 L199.614869,10.8456192 L199.459157,9.89005545 L199.400599,9.89005545 C199.179675,10.2414048 198.872909,10.5095749 198.480969,10.6958965 C198.089028,10.8822181 197.64119,10.9753789 197.138787,10.9753789 C196.273057,10.9753789 195.623593,10.7690943 195.193057,10.3585213 C194.761856,9.94595194 194.546255,9.28783734 194.546255,8.38284658 L194.546255,3.72347505 L195.638233,3.72347505" id="Fill-77" fill="#FFFFFF"></path>
                    <path d="M205.639046,10.9753789 C204.607623,10.9753789 203.809767,10.6579667 203.244148,10.0231423 C202.679194,9.38831793 202.396384,8.49064695 202.396384,7.33012939 C202.396384,6.13833641 202.683187,5.21804067 203.257457,4.56791128 C203.831061,3.91844732 204.649545,3.59304991 205.710248,3.59304991 C206.052946,3.59304991 206.39498,3.6296488 206.737013,3.70351201 C207.079712,3.77737523 207.347882,3.8638817 207.542854,3.96369686 L207.211468,4.88 C206.973242,4.78484288 206.713057,4.70499076 206.431579,4.64243993 C206.1501,4.57988909 205.900562,4.54861368 205.684296,4.54861368 C204.236976,4.54861368 203.513649,5.47157116 203.513649,7.3168207 C203.513649,8.19186691 203.690654,8.8632902 204.043335,9.33109057 C204.39668,9.79955638 204.919712,10.0331238 205.613094,10.0331238 C206.205996,10.0331238 206.814869,9.90536044 207.439046,9.64983364 L207.439046,10.604732 C206.962595,10.8522736 206.362373,10.9753789 205.639046,10.9753789" id="Fill-78" fill="#FFFFFF"></path>
                    <path d="M212.137013,10.9753789 C211.084296,10.9753789 210.253834,10.6546396 209.644961,10.0138262 C209.036089,9.3723475 208.731985,8.4819963 208.731985,7.34277264 C208.731985,6.19489834 209.014795,5.28325323 209.580414,4.6071719 C210.145368,3.93109057 210.904628,3.59304991 211.858196,3.59304991 C212.749878,3.59304991 213.456569,3.88650647 213.976274,4.47341959 C214.495978,5.06033272 214.756163,5.83556377 214.756163,6.79711645 L214.756163,7.47918669 L209.849915,7.47918669 C209.871209,8.31497227 210.082817,8.94979667 210.483409,9.38365989 C210.884665,9.81619224 211.448288,10.0331238 212.176274,10.0331238 C212.942854,10.0331238 213.701449,9.87275416 214.450728,9.55201479 L214.450728,10.5142329 C214.069434,10.6785952 213.708769,10.7963771 213.368732,10.8675786 C213.028695,10.93878 212.618122,10.9753789 212.137013,10.9753789 L212.137013,10.9753789 L212.137013,10.9753789 Z M211.844887,4.4967098 C211.273279,4.4967098 210.816791,4.68236599 210.476754,5.05567468 C210.137383,5.4276525 209.936421,5.94336414 209.875867,6.60214418 L213.599638,6.60214418 C213.599638,5.92207024 213.447919,5.40036969 213.144481,5.03903882 C212.841043,4.67704251 212.40851,4.4967098 211.844887,4.4967098 L211.844887,4.4967098 L211.844887,4.4967098 Z" id="Fill-79" fill="#FFFFFF"></path>
                    <path d="M224.392983,5.86817006 L227.623002,5.86817006 L227.623002,10.488281 C227.120599,10.6479852 226.609545,10.7690943 226.089176,10.8522736 C225.569471,10.934122 224.967253,10.9753789 224.282521,10.9753789 C222.844518,10.9753789 221.724591,10.5475046 220.923409,9.69109057 C220.12156,8.83667283 219.720969,7.63756007 219.720969,6.09508318 C219.720969,5.10757856 219.919268,4.24184843 220.315867,3.49855823 C220.7118,2.75593346 221.282743,2.18831793 222.02803,1.79571165 C222.773316,1.40377079 223.645701,1.20813309 224.646514,1.20813309 C225.660636,1.20813309 226.604887,1.39445471 227.479933,1.76709797 L227.051394,2.74195933 C226.193649,2.37796673 225.367845,2.19630314 224.575312,2.19630314 C223.418787,2.19630314 222.515128,2.54033272 221.865664,3.22972274 C221.215534,3.91844732 220.890802,4.87334566 220.890802,6.09508318 C220.890802,7.37737523 221.203556,8.3502403 221.82973,9.01301294 C222.455238,9.67578558 223.374869,10.0071719 224.587956,10.0071719 C225.246736,10.0071719 225.889545,9.93131238 226.518381,9.78025878 L226.518381,6.85567468 L224.392983,6.85567468 L224.392983,5.86817006" id="Fill-80" fill="#FFFFFF"></path>
                    <path d="M229.741745,0.734343808 L230.820414,0.734343808 L230.820414,10.8456192 L229.741745,10.8456192 L229.741745,0.734343808 L229.741745,0.734343808 Z" id="Fill-81" fill="#FFFFFF"></path>
                    <path d="M234.121634,3.72347505 L234.121634,8.34358595 C234.121634,8.92384473 234.25339,9.35704251 234.517567,9.6431793 C234.78241,9.92931608 235.195645,10.0723845 235.759268,10.0723845 C236.504555,10.0723845 237.04888,9.86809612 237.393575,9.46151571 C237.737604,9.05360444 237.909952,8.38883549 237.909952,7.46654344 L237.909952,3.72347505 L238.988621,3.72347505 L238.988621,10.8456192 L238.09827,10.8456192 L237.942558,9.89005545 L237.884,9.89005545 C237.663076,10.2414048 237.356311,10.5095749 236.96437,10.6958965 C236.572429,10.8822181 236.124591,10.9753789 235.622189,10.9753789 C234.756458,10.9753789 234.106994,10.7690943 233.676458,10.3585213 C233.245257,9.94595194 233.029656,9.28783734 233.029656,8.38284658 L233.029656,3.72347505 L234.121634,3.72347505" id="Fill-82" fill="#FFFFFF"></path>
                    <path d="M244.122447,10.9753789 C243.091024,10.9753789 242.293168,10.6579667 241.727549,10.0231423 C241.162595,9.38831793 240.879786,8.49064695 240.879786,7.33012939 C240.879786,6.13833641 241.166588,5.21804067 241.740858,4.56791128 C242.314462,3.91844732 243.132946,3.59304991 244.193649,3.59304991 C244.536348,3.59304991 244.878381,3.6296488 245.220414,3.70351201 C245.563113,3.77737523 245.831283,3.8638817 246.026255,3.96369686 L245.694869,4.88 C245.456643,4.78484288 245.196458,4.70499076 244.91498,4.64243993 C244.633501,4.57988909 244.383963,4.54861368 244.167697,4.54861368 C242.720377,4.54861368 241.997715,5.47157116 241.997715,7.3168207 C241.997715,8.19186691 242.174055,8.8632902 242.526736,9.33109057 C242.880081,9.79955638 243.403113,10.0331238 244.096495,10.0331238 C244.689397,10.0331238 245.29827,9.90536044 245.922447,9.64983364 L245.922447,10.604732 C245.445996,10.8522736 244.845774,10.9753789 244.122447,10.9753789" id="Fill-83" fill="#FFFFFF"></path>
                    <path d="M251.991874,10.8456192 L251.777604,9.83149723 L251.725701,9.83149723 C251.369693,10.2773383 251.015682,10.5794455 250.663002,10.7378189 C250.310322,10.8961922 249.869139,10.9753789 249.340784,10.9753789 C248.634092,10.9753789 248.081116,10.7937153 247.680525,10.4297227 C247.279268,10.0657301 247.078972,9.54802218 247.078972,8.87659889 C247.078972,7.43792976 248.229508,6.68399261 250.529915,6.61545287 L251.738344,6.57619224 L251.738344,6.13434381 C251.738344,5.57537893 251.618566,5.16214418 251.377678,4.89530499 C251.137457,4.62913124 250.752835,4.4967098 250.224481,4.4967098 C249.630913,4.4967098 248.958824,4.67837338 248.209545,5.04236599 L247.878159,4.21722736 C248.229508,4.02624769 248.614129,3.87652495 249.032022,3.76872458 C249.449915,3.66025878 249.869139,3.6063586 250.289028,3.6063586 C251.138787,3.6063586 251.767623,3.79467652 252.176865,4.17131238 C252.586773,4.54861368 252.791061,5.1528281 252.791061,5.98462107 L252.791061,10.8456192 L251.991874,10.8456192 L251.991874,10.8456192 Z M249.555054,10.0850277 C250.226477,10.0850277 250.754166,9.9007024 251.137457,9.53271719 C251.520747,9.16473198 251.712392,8.64902033 251.712392,7.98624769 L251.712392,7.34277264 L250.633723,7.38868762 C249.775978,7.41863216 249.157124,7.55171904 248.778492,7.78728281 C248.39986,8.02351201 248.209545,8.39083179 248.209545,8.88924214 C248.209545,9.27918669 248.327993,9.57597043 248.564222,9.78025878 C248.799786,9.98321627 249.130506,10.0850277 249.555054,10.0850277 L249.555054,10.0850277 L249.555054,10.0850277 Z" id="Fill-84" fill="#FFFFFF"></path>
                    <path d="M260.842817,3.72347505 L260.842817,4.40554529 L259.523261,4.56125693 C259.645035,4.71297597 259.752835,4.91127542 259.848658,5.15548983 C259.943815,5.40036969 259.991726,5.67652495 259.991726,5.98462107 C259.991726,6.6819963 259.752835,7.23896488 259.276384,7.65486137 C258.799933,8.07075786 258.145811,8.27837338 257.314018,8.27837338 C257.101745,8.27837338 256.90278,8.26107209 256.716458,8.2264695 C256.256643,8.46868762 256.027068,8.77478743 256.027068,9.14277264 C256.027068,9.33774492 256.107586,9.48147874 256.267956,9.57463956 C256.428325,9.66780037 256.70315,9.71504621 257.093094,9.71504621 L258.354092,9.71504621 C259.125331,9.71504621 259.716902,9.8774122 260.130802,10.2021442 C260.545368,10.5268762 260.751652,10.9986691 260.751652,11.618854 C260.751652,12.4067283 260.435571,13.008281 259.802743,13.4215157 C259.17058,13.8354159 258.247623,14.042366 257.034536,14.042366 C256.103593,14.042366 255.38559,13.869353 254.880525,13.5233272 C254.37546,13.1759704 254.123261,12.6862107 254.123261,12.0540481 C254.123261,11.6208503 254.261671,11.2462107 254.539157,10.9301294 C254.816643,10.6133826 255.206588,10.3991128 255.708991,10.2866543 C255.527327,10.2041405 255.374277,10.0763771 255.251172,9.90336414 C255.127401,9.72968577 255.065516,9.52805915 255.065516,9.29914972 C255.065516,9.03896488 255.135386,8.81138632 255.273797,8.61641405 C255.412207,8.42144177 255.631135,8.23312384 255.929915,8.05146026 C255.561264,7.89907579 255.261819,7.64155268 255.029582,7.27822551 C254.798011,6.9142329 254.682226,6.49833641 254.682226,6.03053604 C254.682226,5.25064695 254.916458,4.64909427 255.384259,4.225878 C255.852059,3.80399261 256.514832,3.59304991 257.372577,3.59304991 C257.74522,3.59304991 258.080599,3.63630314 258.380044,3.72347505 L260.842817,3.72347505 L260.842817,3.72347505 Z M255.163335,12.0414048 C255.163335,12.4266913 255.325701,12.718817 255.650433,12.9184473 C255.975165,13.1174122 256.441634,13.2172274 257.047845,13.2172274 C257.952835,13.2172274 258.623593,13.0814787 259.058787,12.810647 C259.493982,12.5404806 259.712244,12.1731608 259.712244,11.7100185 C259.712244,11.3240665 259.593131,11.0558965 259.35424,10.9068392 C259.116015,10.7571165 258.667512,10.6832532 258.009397,10.6832532 L256.716458,10.6832532 C256.226699,10.6832532 255.845405,10.7997043 255.572577,11.0339372 C255.299749,11.2675046 255.163335,11.6028835 255.163335,12.0414048 L255.163335,12.0414048 L255.163335,12.0414048 Z M255.748251,6.00391867 C255.748251,6.50166359 255.888658,6.87896488 256.170137,7.13515712 C256.451616,7.39001848 256.844222,7.51844732 257.346625,7.51844732 C258.399342,7.51844732 258.925701,7.00672828 258.925701,5.98462107 C258.925701,4.91460259 258.392688,4.37959335 257.327327,4.37959335 C256.820266,4.37959335 256.430322,4.51600739 256.157494,4.78950092 C255.884665,5.06232902 255.748251,5.46691312 255.748251,6.00391867 L255.748251,6.00391867 L255.748251,6.00391867 Z" id="Fill-85" fill="#FFFFFF"></path>
                    <path d="M268.452059,7.27822551 C268.452059,8.43874307 268.159933,9.3450647 267.575017,9.99652495 C266.9901,10.6493161 266.182262,10.9753789 265.150839,10.9753789 C264.514018,10.9753789 263.949065,10.8263216 263.455312,10.5268762 C262.960895,10.2280961 262.579601,9.79955638 262.311431,9.2405915 C262.043261,8.68162662 261.908177,8.02750462 261.908177,7.27822551 C261.908177,6.11704251 262.198972,5.21205176 262.779231,4.5645841 C263.35949,3.91711645 264.165331,3.59304991 265.196754,3.59304991 C266.192909,3.59304991 266.984776,3.92510166 267.571689,4.58787431 C268.158603,5.25064695 268.452059,6.14698706 268.452059,7.27822551 L268.452059,7.27822551 L268.452059,7.27822551 Z M263.026107,7.27822551 C263.026107,8.18787431 263.208436,8.8805915 263.571763,9.35704251 C263.935756,9.83349353 264.470765,10.0723845 265.176791,10.0723845 C265.883482,10.0723845 266.419823,9.8348244 266.785146,9.36036969 C267.151135,8.88591497 267.334795,8.19186691 267.334795,7.27822551 C267.334795,6.37190388 267.151135,5.68451017 266.785146,5.21404806 C266.419823,4.74425139 265.878824,4.51001848 265.164148,4.51001848 C264.457457,4.51001848 263.925109,4.74092421 263.565774,5.20473198 C263.20644,5.66787431 263.026107,6.35926063 263.026107,7.27822551 L263.026107,7.27822551 L263.026107,7.27822551 Z" id="Fill-86" fill="#FFFFFF"></path>
                    <path d="M275.216865,10.8456192 L275.216865,6.23815157 C275.216865,5.65722736 275.085109,5.22402957 274.820932,4.93855823 C274.556089,4.65242144 274.142854,4.51001848 273.579231,4.51001848 C272.833945,4.51001848 272.288288,4.71097967 271.942262,5.1142329 C271.595571,5.5168207 271.421893,6.18158965 271.421893,7.10920518 L271.421893,10.8456192 L270.343224,10.8456192 L270.343224,3.72347505 L271.220932,3.72347505 L271.395941,4.69833641 L271.447845,4.69833641 C271.668769,4.34698706 271.978861,4.0748244 272.377457,3.88184843 C272.775386,3.68953789 273.219896,3.59304991 273.709656,3.59304991 C274.567401,3.59304991 275.212872,3.8 275.64607,4.21323475 C276.079268,4.62713494 276.295534,5.28924214 276.295534,6.19889094 L276.295534,10.8456192 L275.216865,10.8456192" id="Fill-87" fill="#FFFFFF"></path>
                    <path d="M280.773242,7.20036969 C280.773242,8.33892791 280.605553,9.40029575 280.269508,10.3838078 C279.933464,11.3673198 279.449693,12.2230684 278.81753,12.9510536 L277.777457,12.9510536 C278.379675,12.1358965 278.841486,11.2315712 279.16156,10.2374122 C279.482299,9.24325323 279.642669,8.2264695 279.642669,7.187061 C279.642669,6.12968577 279.484961,5.10092421 279.171542,4.10011091 C278.857457,3.0992976 278.388325,2.18033272 277.764813,1.34521257 L278.81753,1.34521257 C279.454351,2.10247689 279.939453,2.98284658 280.272835,3.98565619 C280.606218,4.98913124 280.773242,6.06048059 280.773242,7.20036969" id="Fill-88" fill="#FFFFFF"></path>
                    <path d="M78.2057006,412.750684 L78.2057006,403.250277 L79.3103216,403.250277 L79.3103216,411.750536 L83.5018928,411.750536 L83.5018928,412.750684 L78.2057006,412.750684" id="Fill-89" fill="#FFFFFF"></path>
                    <path d="M91.0984917,409.18329 C91.0984917,410.343808 90.806366,411.250795 90.2214492,411.902255 C89.6365323,412.554381 88.828695,412.881109 87.7972717,412.881109 C87.160451,412.881109 86.5948318,412.731386 86.1010795,412.432606 C85.6073272,412.133826 85.2260333,411.704621 84.9571978,411.145656 C84.6890277,410.587357 84.55461,409.932569 84.55461,409.18329 C84.55461,408.022107 84.8447394,407.117782 85.4256636,406.469649 C86.0059224,405.822181 86.8117634,405.49878 87.8425213,405.49878 C88.8386765,405.49878 89.6312089,405.830166 90.218122,406.492939 C90.8050351,407.155712 91.0984917,408.052717 91.0984917,409.18329 L91.0984917,409.18329 L91.0984917,409.18329 Z M85.6725397,409.18329 C85.6725397,410.092939 85.8542033,410.785656 86.2181959,411.262773 C86.5821885,411.739224 87.1165323,411.977449 87.8232237,411.977449 C88.529915,411.977449 89.0655896,411.739889 89.4315786,411.265434 C89.7975675,410.79098 89.9805619,410.096932 89.9805619,409.18329 C89.9805619,408.277634 89.7975675,407.589575 89.4315786,407.119778 C89.0655896,406.649982 88.5252569,406.415083 87.8105804,406.415083 C87.1038891,406.415083 86.5708762,406.645989 86.2115416,407.110462 C85.852207,407.573604 85.6725397,408.264325 85.6725397,409.18329 L85.6725397,409.18329 L85.6725397,409.18329 Z" id="Fill-90" fill="#FFFFFF"></path>
                    <path d="M98.8055527,412.750684 L97.499305,408.572421 C97.4167911,408.316895 97.2637412,407.73597 97.038159,406.83098 L96.9862551,406.83098 C96.8125767,407.588909 96.6608577,408.173161 96.531098,408.58573 L95.1855896,412.750684 L93.9379002,412.750684 L91.9954972,405.62854 L93.1260702,405.62854 C93.58522,407.417893 93.9352384,408.780702 94.1754603,409.716303 C94.4156821,410.651904 94.553427,411.28207 94.5880296,411.607468 L94.6399335,411.607468 C94.6878447,411.360591 94.7650351,411.040518 94.8708392,410.647911 C94.9766433,410.25597 95.0691386,409.945878 95.1469945,409.716303 L96.4532421,405.62854 L97.6230758,405.62854 L98.8967172,409.716303 C99.1389353,410.460924 99.303963,411.087098 99.3904695,411.594159 L99.4423734,411.594159 C99.4596747,411.438447 99.5062551,411.19756 99.5821146,410.872828 C99.6579741,410.548096 100.109804,408.8 100.936939,405.62854 L102.054869,405.62854 L100.085848,412.750684 L98.8055527,412.750684" id="Fill-91" fill="#FFFFFF"></path>
                    <path d="M106.350248,412.881109 C105.29753,412.881109 104.467068,412.559704 103.858196,411.919556 C103.249323,411.277412 102.94522,410.387726 102.94522,409.248503 C102.94522,408.099963 103.227364,407.188318 103.792983,406.512237 C104.358603,405.836821 105.117198,405.49878 106.070765,405.49878 C106.963113,405.49878 107.669139,405.792237 108.188843,406.378484 C108.709213,406.966063 108.968732,407.740628 108.968732,408.702181 L108.968732,409.384917 L104.062484,409.384917 C104.084444,410.220702 104.295386,410.855527 104.696643,411.288725 C105.097235,411.721257 105.661523,411.938854 106.388843,411.938854 C107.156089,411.938854 107.914018,411.778484 108.663298,411.457745 L108.663298,412.419963 C108.282004,412.584325 107.921338,412.701442 107.581301,412.773309 C107.24193,412.84451 106.831357,412.881109 106.350248,412.881109 L106.350248,412.881109 L106.350248,412.881109 Z M106.057457,406.401774 C105.485848,406.401774 105.030026,406.588096 104.689989,406.960739 C104.349952,407.333383 104.148991,407.848429 104.088436,408.507209 L107.812207,408.507209 C107.812207,407.827135 107.661153,407.3061 107.357715,406.944104 C107.053612,406.582773 106.621079,406.401774 106.057457,406.401774 L106.057457,406.401774 L106.057457,406.401774 Z" id="Fill-92" fill="#FFFFFF"></path>
                    <path d="M114.057309,405.49878 C114.374055,405.49878 114.656865,405.524732 114.908399,405.576636 L114.759342,406.577449 C114.464555,406.512237 114.205035,406.480296 113.979453,406.480296 C113.402521,406.480296 112.9101,406.713863 112.500858,407.181664 C112.091616,407.649464 111.886662,408.232384 111.886662,408.92976 L111.886662,412.750684 L110.807993,412.750684 L110.807993,405.62854 L111.698344,405.62854 L111.822115,406.948096 L111.874018,406.948096 C112.138196,406.484288 112.456939,406.12695 112.828917,405.876081 C113.20156,405.623882 113.610802,405.49878 114.057309,405.49878" id="Fill-93" fill="#FFFFFF"></path>
                    <path d="M124.07742,412.750684 L123.86315,411.737227 L123.811246,411.737227 C123.455904,412.183068 123.101893,412.485176 122.748547,412.642884 C122.395867,412.801922 121.954684,412.881109 121.426329,412.881109 C120.719638,412.881109 120.166662,412.699445 119.76607,412.334787 C119.364813,411.970795 119.165183,411.453087 119.165183,410.782329 C119.165183,409.342994 120.315054,408.589723 122.61546,408.520518 L123.824555,408.481922 L123.824555,408.039409 C123.824555,407.480444 123.704111,407.067209 123.463889,406.801035 C123.223002,406.534861 122.838381,406.401774 122.310026,406.401774 C121.717124,406.401774 121.045035,406.584104 120.295756,406.948096 L119.96437,406.122292 C120.315054,405.931978 120.699675,405.782255 121.117567,405.674455 C121.53546,405.565989 121.954684,405.512089 122.375238,405.512089 C123.224333,405.512089 123.853834,405.700407 124.263076,406.077043 C124.672318,406.454344 124.877272,407.058558 124.877272,407.890351 L124.877272,412.750684 L124.07742,412.750684 L124.07742,412.750684 Z M121.640599,411.990758 C122.312022,411.990758 122.839712,411.805767 123.223002,411.438447 C123.606957,411.069797 123.798603,410.55475 123.798603,409.891978 L123.798603,409.248503 L122.719933,409.293752 C121.861523,409.323697 121.243335,409.456784 120.864037,409.693013 C120.485405,409.929242 120.295756,410.296562 120.295756,410.794972 C120.295756,411.184917 120.414203,411.481035 120.649767,411.685323 C120.885996,411.888946 121.216717,411.990758 121.640599,411.990758 L121.640599,411.990758 L121.640599,411.990758 Z" id="Fill-94" fill="#FFFFFF"></path>
                    <path d="M128.658935,412.750684 L125.955941,405.62854 L127.112466,405.62854 L128.646292,409.852717 C128.992318,410.840222 129.196606,411.481035 129.257161,411.775823 L129.309065,411.775823 C129.356311,411.546248 129.507364,411.070462 129.760895,410.349131 C130.01376,409.6278 130.582706,408.054713 131.466403,405.62854 L132.622928,405.62854 L129.919933,412.750684 L128.658935,412.750684" id="Fill-95" fill="#FFFFFF"></path>
                    <path d="M139.596015,405.62854 L139.596015,406.311275 L138.276458,406.466987 C138.398233,406.618706 138.506033,406.81634 138.601856,407.06122 C138.697013,407.3061 138.744259,407.582255 138.744259,407.890351 C138.744259,408.587061 138.506033,409.144695 138.029582,409.559926 C137.553131,409.975823 136.899009,410.184104 136.067216,410.184104 C135.854943,410.184104 135.655978,410.166802 135.469656,410.1322 C135.009841,410.374418 134.780266,410.679852 134.780266,411.048503 C134.780266,411.243475 134.860784,411.386543 135.021153,411.479704 C135.181523,411.57353 135.456348,411.620111 135.846292,411.620111 L137.10729,411.620111 C137.878529,411.620111 138.4701,411.782477 138.884,412.107874 C139.298566,412.432606 139.50485,412.904399 139.50485,413.523919 C139.50485,414.312458 139.188104,414.914011 138.555941,415.327246 C137.923778,415.741146 137.000821,415.948096 135.787734,415.948096 C134.856791,415.948096 134.138787,415.774418 133.633723,415.428392 C133.128658,415.081035 132.876458,414.591941 132.876458,413.959778 C132.876458,413.52658 133.014869,413.151275 133.292355,412.835194 C133.569841,412.519113 133.959786,412.304843 134.462189,412.192384 C134.280525,412.109871 134.127475,411.981442 134.003704,411.808429 C133.880599,411.635416 133.818713,411.433789 133.818713,411.204214 C133.818713,410.944695 133.888584,410.717116 134.026994,410.522144 C134.165405,410.327172 134.384333,410.138854 134.683113,409.956525 C134.314462,409.804806 134.015017,409.547283 133.78278,409.18329 C133.551209,408.819298 133.435423,408.403401 133.435423,407.935601 C133.435423,407.155712 133.668991,406.554159 134.137457,406.131608 C134.605257,405.709057 135.26803,405.49878 136.125774,405.49878 C136.498418,405.49878 136.833797,405.542033 137.133242,405.62854 L139.596015,405.62854 L139.596015,405.62854 Z M133.916532,413.947135 C133.916532,414.331756 134.078898,414.624547 134.40363,414.824177 C134.728362,415.023142 135.194832,415.122957 135.801043,415.122957 C136.706033,415.122957 137.376791,414.987209 137.811985,414.715712 C138.247179,414.446211 138.465442,414.078891 138.465442,413.615083 C138.465442,413.229131 138.346329,412.961627 138.107438,412.811904 C137.869213,412.662847 137.42071,412.588318 136.762595,412.588318 L135.469656,412.588318 C134.979896,412.588318 134.598603,412.705434 134.325774,412.939002 C134.052946,413.173235 133.916532,413.508614 133.916532,413.947135 L133.916532,413.947135 L133.916532,413.947135 Z M134.501449,407.909649 C134.501449,408.407394 134.641856,408.784695 134.923335,409.040222 C135.204813,409.295749 135.59742,409.424177 136.099823,409.424177 C137.15254,409.424177 137.678898,408.912458 137.678898,407.890351 C137.678898,406.820333 137.145885,406.285323 136.080525,406.285323 C135.573464,406.285323 135.183519,406.421738 134.910691,406.694566 C134.637863,406.967394 134.501449,407.372643 134.501449,407.909649 L134.501449,407.909649 L134.501449,407.909649 Z" id="Fill-96" fill="#FFFFFF"></path>
                    <path d="M144.677937,403.250277 L147.361634,403.250277 C148.621967,403.250277 149.533612,403.438595 150.097235,403.815896 C150.660858,404.192532 150.942336,404.788096 150.942336,405.602588 C150.942336,406.165545 150.784628,406.630018 150.471209,406.996007 C150.157124,407.362662 149.69864,407.599556 149.096421,407.708688 L149.096421,407.773235 C150.539083,408.020111 151.260414,408.778041 151.260414,410.047689 C151.260414,410.896118 150.972946,411.558891 150.399342,412.036007 C149.825738,412.512458 149.023224,412.750684 147.9918,412.750684 L144.677937,412.750684 L144.677937,403.250277 L144.677937,403.250277 Z M145.782558,407.318743 L147.601856,407.318743 C148.381745,407.318743 148.942706,407.195638 149.284739,406.950092 C149.627438,406.705878 149.798455,406.293309 149.798455,405.71305 C149.798455,405.180037 149.60814,404.795416 149.226181,404.559187 C148.844887,404.323623 148.238677,404.205176 147.406884,404.205176 L145.782558,404.205176 L145.782558,407.318743 L145.782558,407.318743 Z M145.782558,408.254344 L145.782558,411.808429 L147.764222,411.808429 C148.531468,411.808429 149.108399,411.660037 149.496348,411.362588 C149.884296,411.06647 150.077937,410.601996 150.077937,409.969834 C150.077937,409.380259 149.879638,408.946396 149.483039,408.67024 C149.08644,408.392089 148.483556,408.254344 147.673057,408.254344 L145.782558,408.254344 L145.782558,408.254344 Z" id="Fill-97" fill="#FFFFFF"></path>
                    <path d="M157.479564,407.773235 L160.708917,407.773235 L160.708917,412.393346 C160.206514,412.553715 159.69546,412.674824 159.175756,412.757338 C158.655386,412.839187 158.053168,412.881109 157.369102,412.881109 C155.931098,412.881109 154.810506,412.452569 154.009323,411.596821 C153.20814,410.741738 152.806884,409.542625 152.806884,408.000813 C152.806884,407.012643 153.005183,406.146913 153.401782,405.403623 C153.798381,404.660998 154.368658,404.094048 155.113945,403.701442 C155.859231,403.309501 156.732281,403.113863 157.733094,403.113863 C158.746551,403.113863 159.690802,403.299519 160.565848,403.672828 L160.137309,404.647689 C159.279564,404.283697 158.454425,404.101368 157.661227,404.101368 C156.504702,404.101368 155.601708,404.446063 154.951579,405.134787 C154.301449,405.823512 153.976717,406.779076 153.976717,408.000813 C153.976717,409.283105 154.290137,410.255305 154.915645,410.918078 C155.541819,411.581516 156.461449,411.912902 157.674536,411.912902 C158.332651,411.912902 158.976126,411.836377 159.604296,411.685323 L159.604296,408.761405 L157.479564,408.761405 L157.479564,407.773235" id="Fill-98" fill="#FFFFFF"></path>
                    <path d="M66.5326506,0.896709797 L66.5326506,11.1603697 M66.5326506,403.050647 L66.5326506,413.314307" id="Stroke-99" stroke="#FFFFFF" stroke-width="2"></path>
                    <path d="M0.0417818854,22.9398891 L0.0417818854,391.561257 M16.9078817,6.10040665 L66.3197116,6.10040665 M0.0417818854,23.0357116 C0.0417818854,13.6817006 7.62440665,6.10040665 16.9770869,6.10040665 M16.9078817,408.322218 L66.3197116,408.322218 M0.0417818854,391.386913 C0.0417818854,400.74159 7.62440665,408.322218 16.9770869,408.322218" id="Stroke-256" stroke="#FFFFFF" stroke-width="2"></path>
                </g>
            </g>
        </g>
    </g>
</svg>