<?xml version="1.0" encoding="UTF-8" standalone="no"?>
<svg width="38px" height="45px" viewBox="0 0 38 45" version="1.1" xmlns="http://www.w3.org/2000/svg" xmlns:xlink="http://www.w3.org/1999/xlink" xmlns:sketch="http://www.bohemiancoding.com/sketch/ns">
    <!-- Generator: Sketch 3.3 (11970) - http://www.bohemiancoding.com/sketch -->
    <title>adjustTitleIcon</title>
    <desc>Created with Sketch.</desc>
    <defs></defs>
    <g id="Page-1" stroke="none" stroke-width="1" fill="none" fill-rule="evenodd" sketch:type="MSPage">
        <g id="adjustTitleIcon" sketch:type="MSLayerGroup" fill="#FFFFFF">
            <path d="M11.008,11.58 C11.008,14.145 11.014,16.711 11.002,19.278 C11,19.605 11.082,19.784 11.394,19.948 C14.072,21.37 15.524,23.625 15.551,26.64 C15.574,29.693 14.127,31.982 11.434,33.442 C11.105,33.622 10.996,33.81 10.999,34.181 C11.018,36.716 11.007,39.251 11.008,41.79 C11.012,43.517 9.665,44.894 7.963,44.896 C6.26,44.901 4.914,43.525 4.914,41.792 C4.917,39.227 4.911,36.662 4.919,34.095 C4.919,33.806 4.854,33.644 4.573,33.491 C1.86,32.042 0.371,29.777 0.377,26.693 C0.385,23.634 1.858,21.37 4.556,19.933 C4.854,19.772 4.923,19.603 4.919,19.295 C4.911,14.163 4.914,9.032 4.914,3.901 C4.914,2.177 6.281,0.791 7.975,0.807 C9.665,0.821 11.008,2.184 11.008,3.882 L11.008,11.58 L11.008,11.58 Z M7.899,30.499 C9.894,30.555 11.645,28.905 11.765,26.969 C11.896,24.9 10.19,22.985 8.111,22.918 C5.785,22.845 4.212,24.767 4.156,26.54 C4.086,28.705 5.728,30.435 7.899,30.499 L7.899,30.499 Z" id="Fill-1" sketch:type="MSShapeGroup"></path>
            <path d="M26.813,32.03 C26.813,28.768 26.808,25.499 26.824,22.235 C26.824,21.876 26.698,21.708 26.392,21.541 C23.702,20.078 22.25,17.794 22.273,14.738 C22.297,11.723 23.753,9.471 26.425,8.046 C26.73,7.879 26.826,7.708 26.822,7.377 C26.803,6.211 26.813,5.042 26.813,3.88 C26.813,2.179 28.168,0.813 29.856,0.807 C31.536,0.8 32.91,2.175 32.908,3.86 C32.908,5.071 32.915,6.28 32.906,7.491 C32.902,7.74 32.977,7.872 33.207,7.989 C37.368,10.134 38.715,14.976 36.239,18.928 C35.522,20.075 34.541,20.965 33.317,21.55 C32.989,21.704 32.902,21.9 32.902,22.245 C32.91,28.763 32.908,35.279 32.91,41.797 C32.91,43.526 31.556,44.906 29.856,44.896 C28.15,44.889 26.813,43.517 26.813,41.784 L26.813,32.03 L26.813,32.03 Z M29.851,18.588 C31.941,18.592 33.658,16.911 33.67,14.845 C33.68,12.718 31.975,11.007 29.852,11.015 C27.772,11.018 26.076,12.684 26.07,14.734 C26.059,16.891 27.719,18.583 29.851,18.588 L29.851,18.588 Z" id="Fill-2" sketch:type="MSShapeGroup"></path>
        </g>
    </g>
</svg>