<?xml version="1.0" encoding="UTF-8" standalone="no"?>
<svg width="24px" height="28px" viewBox="0 0 24 28" version="1.1" xmlns="http://www.w3.org/2000/svg" xmlns:xlink="http://www.w3.org/1999/xlink" xmlns:sketch="http://www.bohemiancoding.com/sketch/ns">
    <!-- Generator: Sketch 3.3 (11970) - http://www.bohemiancoding.com/sketch -->
    <title>adjustIcon</title>
    <desc>Created with Sketch.</desc>
    <defs></defs>
    <g id="Page-1" stroke="none" stroke-width="1" fill="none" fill-rule="evenodd" sketch:type="MSPage">
        <g id="adjustIcon" sketch:type="MSLayerGroup" fill="#000000">
            <path d="M6.943,7.008 C6.943,8.584 6.947,10.162 6.939,11.74 C6.938,11.941 6.988,12.051 7.18,12.152 C8.826,13.025 9.719,14.412 9.736,16.266 C9.75,18.143 8.86,19.551 7.205,20.447 C7.003,20.559 6.936,20.674 6.937,20.902 C6.949,22.461 6.942,24.019 6.943,25.58 C6.945,26.643 6.117,27.488 5.071,27.49 C4.024,27.492 3.197,26.646 3.197,25.582 C3.198,24.004 3.195,22.428 3.2,20.85 C3.2,20.672 3.16,20.572 2.987,20.479 C1.319,19.588 0.404,18.195 0.407,16.299 C0.412,14.418 1.317,13.025 2.976,12.143 C3.16,12.045 3.202,11.939 3.2,11.75 C3.195,8.596 3.197,5.441 3.197,2.287 C3.197,1.226 4.036,0.375 5.078,0.385 C6.117,0.393 6.943,1.23 6.943,2.275 L6.943,7.008 L6.943,7.008 Z M5.032,18.639 C6.258,18.674 7.335,17.658 7.409,16.469 C7.489,15.197 6.44,14.02 5.162,13.979 C3.732,13.934 2.765,15.115 2.73,16.205 C2.687,17.535 3.697,18.6 5.032,18.639 L5.032,18.639 Z" id="Fill-1" sketch:type="MSShapeGroup"></path>
            <path d="M16.66,19.58 C16.66,17.574 16.657,15.564 16.666,13.559 C16.666,13.338 16.589,13.234 16.401,13.131 C14.747,12.232 13.854,10.828 13.869,8.949 C13.883,7.096 14.778,5.711 16.421,4.834 C16.609,4.732 16.668,4.627 16.665,4.424 C16.654,3.707 16.66,2.988 16.66,2.273 C16.66,1.229 17.493,0.389 18.53,0.385 C19.564,0.379 20.408,1.225 20.407,2.262 C20.407,3.006 20.412,3.75 20.405,4.494 C20.403,4.647 20.449,4.729 20.591,4.801 C23.149,6.119 23.977,9.096 22.455,11.525 C22.014,12.23 21.411,12.777 20.658,13.137 C20.457,13.232 20.403,13.351 20.403,13.564 C20.408,17.572 20.407,21.578 20.408,25.584 C20.408,26.648 19.576,27.496 18.531,27.49 C17.482,27.486 16.66,26.643 16.66,25.576 L16.66,19.58 L16.66,19.58 Z M18.527,11.316 C19.813,11.318 20.869,10.285 20.875,9.016 C20.881,7.707 19.833,6.654 18.528,6.66 C17.249,6.662 16.207,7.688 16.203,8.947 C16.196,10.273 17.217,11.312 18.527,11.316 L18.527,11.316 Z" id="Fill-2" sketch:type="MSShapeGroup"></path>
        </g>
    </g>
</svg>