<?xml version="1.0" encoding="UTF-8" standalone="no"?>
<svg width="44px" height="25px" viewBox="0 0 44 25" version="1.1" xmlns="http://www.w3.org/2000/svg" xmlns:xlink="http://www.w3.org/1999/xlink" xmlns:sketch="http://www.bohemiancoding.com/sketch/ns">
    <!-- Generator: Sketch 3.3 (11970) - http://www.bohemiancoding.com/sketch -->
    <title>alertsSmallIcon</title>
    <desc>Created with Sketch.</desc>
    <defs></defs>
    <g id="Page-1" stroke="none" stroke-width="1" fill="none" fill-rule="evenodd" sketch:type="MSPage">
        <g id="alertsSmallIcon" sketch:type="MSLayerGroup" fill="#000000">
            <path d="M21.896,18.375 L12.122,18.367 L13.814,15.57 C14.407,14.592 15.246,12.88 15.388,11.745 L16.019,4.784 C16.158,3.649 17.175,2.51 18.285,2.239 L20.188,1.775 C20.247,0.87 20.99,0.152 21.912,0.153 C22.833,0.154 23.574,0.872 23.633,1.779 L25.534,2.245 C26.646,2.517 27.657,3.658 27.801,4.793 L28.417,11.753 C28.56,12.889 29.396,14.602 29.985,15.584 L31.676,18.384 L21.896,18.375 L21.896,18.375 Z M19.178,19.197 C19.175,19.264 19.16,19.326 19.16,19.39 C19.159,20.899 20.386,22.127 21.894,22.127 C23.405,22.127 24.634,20.903 24.635,19.392 C24.637,19.327 24.62,19.267 24.614,19.2 L19.178,19.197 L19.178,19.197 Z" id="Fill-1" sketch:type="MSShapeGroup"></path>
            <path d="M41.216,8.248 C42.377,13.404 41.424,18.74 38.633,23.166 L39.649,24.328 C42.838,19.498 43.959,13.611 42.678,7.919 C42.248,6.01 41.546,4.193 40.648,2.477 C40.248,1.714 39.935,1.176 39.748,0.86 L38.68,2.081 C38.84,2.352 39.182,2.921 39.229,3.01 C40.135,4.644 40.799,6.406 41.216,8.248" id="Fill-2" sketch:type="MSShapeGroup"></path>
            <path d="M36.471,20.695 L37.521,21.896 C39.89,17.913 40.675,13.19 39.643,8.604 C39.27,6.944 38.675,5.357 37.871,3.883 C37.81,3.769 37.67,3.477 37.59,3.326 L36.516,4.553 C37.269,5.921 37.833,7.39 38.18,8.932 C39.09,12.978 38.45,17.134 36.471,20.695" id="Fill-3" sketch:type="MSShapeGroup"></path>
            <path d="M34.369,18.293 L35.455,19.536 C37.065,16.397 37.54,12.795 36.743,9.256 C36.467,8.028 36.041,6.851 35.481,5.737 L34.384,6.991 C34.756,7.825 35.077,8.684 35.279,9.585 C35.952,12.571 35.603,15.598 34.369,18.293" id="Fill-4" sketch:type="MSShapeGroup"></path>
            <path d="M2.527,16.954 C1.344,11.692 2.316,6.338 5.243,1.826 L4.335,0.787 L4.183,0.685 C0.868,5.604 -0.238,11.499 1.065,17.283 C1.655,19.899 2.708,22.345 4.197,24.548 L4.459,24.372 L5.273,23.441 C3.982,21.46 3.054,19.283 2.527,16.954" id="Fill-6" sketch:type="MSShapeGroup"></path>
            <path d="M5.563,16.273 C4.631,12.143 5.297,7.923 7.392,4.281 L6.35,3.091 C3.859,7.157 3.049,11.933 4.1,16.601 C4.548,18.593 5.329,20.455 6.388,22.168 L7.415,20.994 C6.565,19.53 5.94,17.949 5.563,16.273" id="Fill-8" sketch:type="MSShapeGroup"></path>
            <path d="M8.464,15.618 C7.779,12.583 8.147,9.446 9.48,6.668 L8.42,5.457 C6.711,8.675 6.195,12.374 7.001,15.947 C7.309,17.31 7.807,18.595 8.456,19.804 L9.513,18.596 C9.057,17.652 8.697,16.661 8.464,15.618" id="Fill-9" sketch:type="MSShapeGroup"></path>
        </g>
    </g>
</svg>