<?xml version="1.0" encoding="UTF-8" standalone="no"?>
<svg width="60px" height="28px" viewBox="0 0 60 28" version="1.1" xmlns="http://www.w3.org/2000/svg" xmlns:xlink="http://www.w3.org/1999/xlink" xmlns:sketch="http://www.bohemiancoding.com/sketch/ns">
    <!-- Generator: Sketch 3.3 (11970) - http://www.bohemiancoding.com/sketch -->
    <title>barcodeSmallIcon</title>
    <desc>Created with Sketch.</desc>
    <defs></defs>
    <g id="Page-1" stroke="none" stroke-width="1" fill="none" fill-rule="evenodd" sketch:type="MSPage">
        <g id="barcodeSmallIcon" sketch:type="MSLayerGroup" transform="translate(0.500000, 1.000000)">
            <path d="M58.2,22.509 C58.2,24.328 56.726,25.803 54.907,25.803 L3.996,25.803 C2.178,25.803 0.703,24.328 0.703,22.509 L0.703,4.279 C0.703,2.459 2.178,0.985 3.996,0.985 L54.907,0.985 C56.726,0.985 58.2,2.459 58.2,4.279 L58.2,22.509 L58.2,22.509 Z" id="Stroke-1" stroke="#000000" stroke-width="2" sketch:type="MSShapeGroup"></path>
            <path d="M8.325,8.269 L12.325,8.269 L12.325,18.269 L8.325,18.269 L8.325,8.269 Z" id="Fill-2" fill="#000000" sketch:type="MSShapeGroup"></path>
            <path d="M22.794,8.269 L35.891,8.269 L35.891,18.269 L22.794,18.269 L22.794,8.269 Z" id="Fill-3" fill="#000000" sketch:type="MSShapeGroup"></path>
            <path d="M37.388,8.269 L41.541,8.269 L41.541,18.269 L37.388,18.269 L37.388,8.269 Z" id="Fill-4" fill="#000000" sketch:type="MSShapeGroup"></path>
            <path d="M42.669,8.269 L46.822,8.269 L46.822,18.269 L42.669,18.269 L42.669,8.269 Z" id="Fill-5" fill="#000000" sketch:type="MSShapeGroup"></path>
            <path d="M47.883,8.269 L50.471,8.269 L50.471,18.269 L47.883,18.269 L47.883,8.269 Z" id="Fill-6" fill="#000000" sketch:type="MSShapeGroup"></path>
            <path d="M13.7,8.269 L21.638,8.269 L21.638,18.269 L13.7,18.269 L13.7,8.269 Z" id="Fill-7" fill="#000000" sketch:type="MSShapeGroup"></path>
        </g>
    </g>
</svg>