<?xml version="1.0" encoding="UTF-8" standalone="no"?>
<svg width="16px" height="53px" viewBox="0 0 16 53" version="1.1" xmlns="http://www.w3.org/2000/svg" xmlns:xlink="http://www.w3.org/1999/xlink" xmlns:sketch="http://www.bohemiancoding.com/sketch/ns">
    <!-- Generator: Sketch 3.3 (11970) - http://www.bohemiancoding.com/sketch -->
    <title>batteryIcon</title>
    <desc>Created with Sketch.</desc>
    <defs></defs>
    <g id="Page-1" stroke="none" stroke-width="1" fill="none" fill-rule="evenodd" sketch:type="MSPage">
        <path d="M12.9493333,2.32749367 L10.3086667,2.32749367 L10.3086667,1.38422785 L10.3086667,1.36678481 C10.3086667,0.888443038 9.98866667,0.5 9.60466667,0.5 L5.68266667,0.5 C5.3,0.5 4.97533333,0.888443038 4.97533333,1.36678481 L4.97533333,1.38422785 L4.97533333,2.32749367 L2.34933333,2.32749367 C1.05266667,2.32749367 0,3.3814557 0,4.68834177 L0,49.4807215 C0,50.7896203 1.05266667,51.8449241 2.34933333,51.8449241 L3.792,51.8449241 L3.792,51.980443 C3.792,52.4406709 4.116,52.8123418 4.51333333,52.8123418 L10.8686667,52.8123418 C11.2673333,52.8123418 11.586,52.4406709 11.586,51.980443 L11.586,51.8449241 L12.9493333,51.8449241 C14.2466667,51.8449241 15.3013333,50.7896203 15.3013333,49.4807215 L15.3013333,4.68834177 C15.3013333,3.3814557 14.2466667,2.32749367 12.9493333,2.32749367 L12.9493333,2.32749367 Z M13.322,49.7765823 L1.974,49.807443 L1.98666667,5.20022785 L13.3333333,5.17339241 L13.322,49.7765823 L13.322,49.7765823 Z" id="batteryIcon" fill="#FFFFFF" sketch:type="MSShapeGroup"></path>
    </g>
</svg>