<?xml version="1.0" encoding="UTF-8" standalone="no"?>
<svg width="360px" height="591px" viewBox="0 0 360 591" version="1.1" xmlns="http://www.w3.org/2000/svg" xmlns:xlink="http://www.w3.org/1999/xlink" xmlns:sketch="http://www.bohemiancoding.com/sketch/ns">
    <!-- Generator: Sketch 3.3 (11970) - http://www.bohemiancoding.com/sketch -->
    <title>batteryAlert</title>
    <desc>Created with Sketch.</desc>
    <defs></defs>
    <g id="Page-1" stroke="none" stroke-width="1" fill="none" fill-rule="evenodd" sketch:type="MSPage">
        <g id="batteryAlert" sketch:type="MSLayerGroup">
            <g id="Page-1" sketch:type="MSShapeGroup">
                <g id="batteryAlert">
                    <path d="M0.580924214,0.210942699 L359.91549,0.210942699 L359.91549,590.451238 L0.580924214,590.451238 L0.580924214,0.210942699 L0.580924214,0.210942699 Z" id="Fill-1" fill="#000000"></path>
                    <path d="M84.8521996,419.680813 C83.4441405,419.680813 82.3395194,419.16976 81.5383364,418.147652 L81.3673198,418.147652 C81.4817745,419.148466 81.5383364,419.727394 81.5383364,419.884436 L81.5383364,424.741442 L78.2683919,424.741442 L78.2683919,407.478743 L80.9281331,407.478743 L81.3892791,409.033198 L81.5383364,409.033198 C82.303586,407.846728 83.4368207,407.253826 84.9380407,407.253826 C86.3534196,407.253826 87.4613678,407.800148 88.2618854,408.894122 C89.062403,409.988096 89.4629945,411.506617 89.4629945,413.451017 C89.4629945,414.730647 89.2746765,415.841922 88.900037,416.785508 C88.5240665,417.729094 87.9903882,418.447763 87.2970055,418.94085 C86.6036229,419.433937 85.7884658,419.680813 84.8521996,419.680813 L84.8521996,419.680813 L84.8521996,419.680813 Z M83.8873198,409.869649 C83.0794824,409.869649 82.4892421,410.118521 82.1185952,410.614935 C81.7459519,411.112015 81.552976,411.93183 81.5383364,413.075712 L81.5383364,413.429723 C81.5383364,414.716673 81.730647,415.638299 82.1126063,416.195933 C82.4952311,416.753567 83.1007763,417.032384 83.9299076,417.032384 C85.3951941,417.032384 86.1278373,415.824621 86.1278373,413.408429 C86.1278373,412.228614 85.9481701,411.344251 85.5861738,410.754677 C85.2255083,410.164436 84.6592237,409.869649 83.8873198,409.869649 L83.8873198,409.869649 L83.8873198,409.869649 Z" id="Fill-2" fill="#FFFFFF"></path>
                    <path d="M92.017597,402.782107 L95.2875416,402.782107 L95.2875416,419.465878 L92.017597,419.465878 L92.017597,402.782107 L92.017597,402.782107 Z" id="Fill-3" fill="#FFFFFF"></path>
                    <path d="M103.951497,419.680813 C102.021738,419.680813 100.513198,419.148466 99.4265434,418.083105 C98.3405545,417.017745 97.7968946,415.509871 97.7968946,413.558152 C97.7968946,411.549871 98.2992976,409.996747 99.3034381,408.899445 C100.307579,407.802144 101.695675,407.253826 103.469057,407.253826 C105.163253,407.253826 106.482144,407.736266 107.42573,408.701146 C108.369316,409.666026 108.841109,410.999556 108.841109,412.700407 L108.841109,414.287468 L101.110092,414.287468 C101.146026,415.217079 101.42085,415.942403 101.935896,416.464104 C102.450277,416.985804 103.172274,417.246654 104.101885,417.246654 C104.823882,417.246654 105.506617,417.172126 106.150092,417.021738 C106.793567,416.871349 107.464325,416.632458 108.165693,416.303068 L108.165693,418.833715 C107.59342,419.119852 106.982551,419.332791 106.331756,419.471867 C105.681627,419.611608 104.888429,419.680813 103.951497,419.680813 L103.951497,419.680813 L103.951497,419.680813 Z M103.491017,409.580185 C102.796969,409.580185 102.253974,409.799778 101.860702,410.240296 C101.467431,410.679482 101.242514,411.302994 101.185287,412.110832 L105.774122,412.110832 C105.760148,411.302994 105.549205,410.679482 105.141294,410.240296 C104.734713,409.799778 104.183734,409.580185 103.491017,409.580185 L103.491017,409.580185 L103.491017,409.580185 Z" id="Fill-4" fill="#FFFFFF"></path>
                    <path d="M118.919778,419.466543 L118.287616,417.836895 L118.201774,417.836895 C117.650795,418.529612 117.085176,419.010721 116.502255,419.278226 C115.919335,419.547061 115.160074,419.680813 114.223808,419.680813 C113.072606,419.680813 112.16695,419.352089 111.505508,418.69464 C110.844067,418.036525 110.514011,417.100259 110.514011,415.885176 C110.514011,414.612865 110.958521,413.674603 111.848207,413.070388 C112.738558,412.466839 114.080739,412.132126 115.87475,412.068244 L117.954898,412.003697 L117.954898,411.478004 C117.954898,410.262921 117.333383,409.655379 116.08902,409.655379 C115.13146,409.655379 114.005545,409.944843 112.711941,410.523771 L111.628614,408.315194 C113.008725,407.593198 114.537893,407.231867 116.218115,407.231867 C117.82647,407.231867 119.059519,407.582551 119.917264,408.283253 C120.775009,408.98329 121.204214,410.048651 121.204214,411.478004 L121.204214,419.466543 L118.919778,419.466543 L118.919778,419.466543 Z M117.954898,413.912163 L116.689908,413.955416 C115.739002,413.983364 115.03098,414.155046 114.566506,414.469797 C114.102033,414.784547 113.869797,415.262994 113.869797,415.90647 C113.869797,416.828762 114.398152,417.289908 115.456858,417.289908 C116.214122,417.289908 116.820333,417.071645 117.274159,416.635786 C117.727985,416.199926 117.954898,415.620333 117.954898,414.898336 L117.954898,413.912163 L117.954898,413.912163 Z" id="Fill-5" fill="#FFFFFF"></path>
                    <path d="M132.84,415.90647 C132.84,417.136192 132.413457,418.072458 131.559039,418.715933 C130.704621,419.359409 129.426322,419.680813 127.726137,419.680813 C126.853087,419.680813 126.109797,419.62159 125.495601,419.503808 C124.880074,419.386026 124.305139,419.212348 123.768799,418.984104 L123.768799,416.281774 C124.377006,416.567911 125.061072,416.807468 125.822329,417.000444 C126.583586,417.19342 127.254344,417.289908 127.832606,417.289908 C129.019076,417.289908 129.613309,416.946543 129.613309,416.260481 C129.613309,416.002957 129.534122,415.794011 129.376414,415.632976 C129.219372,415.472606 128.947874,415.289612 128.561257,415.086654 C128.17597,414.882366 127.660924,414.644806 127.017449,414.373309 C126.095823,413.987357 125.41841,413.630018 124.986543,413.301294 C124.553346,412.971904 124.238595,412.595268 124.042957,412.170055 C123.845989,411.744843 123.747505,411.221146 123.747505,410.598965 C123.747505,409.533604 124.160074,408.710462 124.986543,408.127542 C125.811682,407.545287 126.982181,407.253826 128.498041,407.253826 C129.941368,407.253826 131.3461,407.567911 132.711571,408.197412 L131.724732,410.556377 C131.12451,410.298854 130.562884,410.087911 130.041848,409.923549 C129.519482,409.759187 128.987135,409.676673 128.44414,409.676673 C127.479261,409.676673 126.996821,409.937523 126.996821,410.459889 C126.996821,410.75268 127.152532,411.006211 127.462625,411.221146 C127.774048,411.435416 128.455453,411.753494 129.504843,412.175379 C130.441774,412.554011 131.127837,412.908022 131.563697,413.236747 C131.999556,413.565471 132.321627,413.944104 132.529242,414.373309 C132.736192,414.802514 132.84,415.312902 132.84,415.90647" id="Fill-6" fill="#FFFFFF"></path>
                    <path d="M140.678817,419.680813 C138.749057,419.680813 137.240518,419.148466 136.154529,418.083105 C135.067874,417.017745 134.52488,415.509871 134.52488,413.558152 C134.52488,411.549871 135.027283,409.996747 136.030758,408.899445 C137.035564,407.802144 138.42366,407.253826 140.196377,407.253826 C141.891238,407.253826 143.209464,407.736266 144.15305,408.701146 C145.096636,409.666026 145.568429,410.999556 145.568429,412.700407 L145.568429,414.287468 L137.837412,414.287468 C137.873346,415.217079 138.148835,415.942403 138.663216,416.464104 C139.178262,416.985804 139.899593,417.246654 140.829205,417.246654 C141.551201,417.246654 142.234603,417.172126 142.877412,417.021738 C143.520887,416.871349 144.192311,416.632458 144.893678,416.303068 L144.893678,418.833715 C144.320739,419.119852 143.709871,419.332791 143.059741,419.471867 C142.408946,419.611608 141.615749,419.680813 140.678817,419.680813 L140.678817,419.680813 L140.678817,419.680813 Z M140.218336,409.580185 C139.524288,409.580185 138.981294,409.799778 138.588688,410.240296 C138.19475,410.679482 137.969834,411.302994 137.912606,412.110832 L142.502107,412.110832 C142.487468,411.302994 142.27719,410.679482 141.869279,410.240296 C141.462033,409.799778 140.911054,409.580185 140.218336,409.580185 L140.218336,409.580185 L140.218336,409.580185 Z" id="Fill-7" fill="#FFFFFF"></path>
                    <path d="M160.622551,407.253826 C161.06573,407.253826 161.433715,407.285767 161.727837,407.350314 L161.480296,410.416636 C161.216118,410.345434 160.894713,410.309501 160.515416,410.309501 C159.472015,410.309501 158.658854,410.577671 158.075933,411.113346 C157.493678,411.649686 157.202218,412.400296 157.202218,413.365176 L157.202218,419.466543 L153.932274,419.466543 L153.932274,407.478743 L156.40902,407.478743 L156.89146,409.494344 L157.052495,409.494344 C157.423808,408.822921 157.926211,408.281257 158.559039,407.870018 C159.191201,407.459445 159.879261,407.253826 160.622551,407.253826" id="Fill-8" fill="#FFFFFF"></path>
                    <path d="M169.085545,419.680813 C167.155786,419.680813 165.647246,419.148466 164.560591,418.083105 C163.474603,417.017745 162.930943,415.509871 162.930943,413.558152 C162.930943,411.549871 163.433346,409.996747 164.437486,408.899445 C165.441627,407.802144 166.829723,407.253826 168.60244,407.253826 C170.297967,407.253826 171.616192,407.736266 172.559778,408.701146 C173.503364,409.666026 173.975157,410.999556 173.975157,412.700407 L173.975157,414.287468 L166.24414,414.287468 C166.279409,415.217079 166.554898,415.942403 167.069945,416.464104 C167.584325,416.985804 168.306322,417.246654 169.235268,417.246654 C169.95793,417.246654 170.640665,417.172126 171.28414,417.021738 C171.927616,416.871349 172.598373,416.632458 173.299741,416.303068 L173.299741,418.833715 C172.727468,419.119852 172.116599,419.332791 171.465804,419.471867 C170.815675,419.611608 170.021811,419.680813 169.085545,419.680813 L169.085545,419.680813 L169.085545,419.680813 Z M168.625065,409.580185 C167.931017,409.580185 167.387357,409.799778 166.99475,410.240296 C166.601479,410.679482 166.376562,411.302994 166.319335,412.110832 L170.90817,412.110832 C170.894196,411.302994 170.683253,410.679482 170.275342,410.240296 C169.868762,409.799778 169.317782,409.580185 168.625065,409.580185 L168.625065,409.580185 L168.625065,409.580185 Z" id="Fill-9" fill="#FFFFFF"></path>
                    <path d="M183.103586,419.680813 C181.694861,419.680813 180.59024,419.16976 179.789723,418.147652 L179.618041,418.147652 C179.732495,419.148466 179.789723,419.727394 179.789723,419.884436 L179.789723,424.741442 L176.519778,424.741442 L176.519778,407.478743 L179.178854,407.478743 L179.64,409.033198 L179.789723,409.033198 C180.554307,407.846728 181.687542,407.253826 183.188762,407.253826 C184.60414,407.253826 185.712089,407.800148 186.512606,408.894122 C187.313789,409.988096 187.713715,411.506617 187.713715,413.451017 C187.713715,414.730647 187.526063,415.841922 187.151423,416.785508 C186.775453,417.729094 186.241109,418.447763 185.547726,418.94085 C184.854344,419.433937 184.039852,419.680813 183.103586,419.680813 L183.103586,419.680813 L183.103586,419.680813 Z M182.138041,409.869649 C181.330203,409.869649 180.740628,410.118521 180.369316,410.614935 C179.996673,411.112015 179.804362,411.93183 179.789723,413.075712 L179.789723,413.429723 C179.789723,414.716673 179.981368,415.638299 180.363327,416.195933 C180.745952,416.753567 181.352163,417.032384 182.180628,417.032384 C183.64658,417.032384 184.378558,415.824621 184.378558,413.408429 C184.378558,412.228614 184.198891,411.344251 183.83756,410.754677 C183.476895,410.164436 182.909945,409.869649 182.138041,409.869649 L182.138041,409.869649 L182.138041,409.869649 Z" id="Fill-10" fill="#FFFFFF"></path>
                    <path d="M190.268318,402.782107 L193.538262,402.782107 L193.538262,419.465878 L190.268318,419.465878 L190.268318,402.782107 L190.268318,402.782107 Z" id="Fill-11" fill="#FFFFFF"></path>
                    <path d="M204.312976,419.466543 L203.680148,417.836895 L203.594307,417.836895 C203.043327,418.529612 202.477708,419.010721 201.894122,419.278226 C201.312532,419.547061 200.552606,419.680813 199.61634,419.680813 C198.465804,419.680813 197.559482,419.352089 196.898041,418.69464 C196.237264,418.036525 195.906543,417.100259 195.906543,415.885176 C195.906543,414.612865 196.351719,413.674603 197.241405,413.070388 C198.131756,412.466839 199.473272,412.132126 201.267283,412.068244 L203.347431,412.003697 L203.347431,411.478004 C203.347431,410.262921 202.725915,409.655379 201.482218,409.655379 C200.523993,409.655379 199.398078,409.944843 198.104473,410.523771 L197.021811,408.315194 C198.400591,407.593198 199.931091,407.231867 201.610647,407.231867 C203.219002,407.231867 204.452052,407.582551 205.309797,408.283253 C206.167542,408.98329 206.596747,410.048651 206.596747,411.478004 L206.596747,419.466543 L204.312976,419.466543 L204.312976,419.466543 Z M203.347431,413.912163 L202.08244,413.955416 C201.131534,413.983364 200.424177,414.155046 199.959039,414.469797 C199.494566,414.784547 199.262994,415.262994 199.262994,415.90647 C199.262994,416.828762 199.791349,417.289908 200.84939,417.289908 C201.606654,417.289908 202.212865,417.071645 202.666691,416.635786 C203.121183,416.199926 203.347431,415.620333 203.347431,414.898336 L203.347431,413.912163 L203.347431,413.912163 Z" id="Fill-12" fill="#FFFFFF"></path>
                    <path d="M214.63719,419.680813 C210.9061,419.680813 209.040222,417.632606 209.040222,413.536858 C209.040222,411.499963 209.547948,409.943512 210.562736,408.867505 C211.577523,407.791497 213.032163,407.253826 214.926654,407.253826 C216.312754,407.253826 217.557116,407.525323 218.657745,408.068318 L217.69353,410.598965 C217.178484,410.392015 216.699372,410.222329 216.256192,410.089908 C215.813013,409.957486 215.369168,409.891608 214.926654,409.891608 C213.225139,409.891608 212.374713,411.099372 212.374713,413.515564 C212.374713,415.859889 213.225139,417.032384 214.926654,417.032384 C215.55549,417.032384 216.13841,416.94854 216.67475,416.78085 C217.211091,416.612495 217.746765,416.349649 218.283105,415.992311 L218.283105,418.791128 C217.754085,419.127172 217.219741,419.359409 216.679409,419.487837 C216.140407,419.616266 215.459002,419.680813 214.63719,419.680813" id="Fill-13" fill="#FFFFFF"></path>
                    <path d="M226.193124,419.680813 C224.263364,419.680813 222.75549,419.148466 221.66817,418.083105 C220.582181,417.017745 220.038521,415.509871 220.038521,413.558152 C220.038521,411.549871 220.540924,409.996747 221.545065,408.899445 C222.549871,407.802144 223.937967,407.253826 225.710684,407.253826 C227.405545,407.253826 228.723771,407.736266 229.667357,408.701146 C230.610943,409.666026 231.082736,410.999556 231.082736,412.700407 L231.082736,414.287468 L223.351719,414.287468 C223.387652,415.217079 223.663142,415.942403 224.177523,416.464104 C224.691904,416.985804 225.414566,417.246654 226.343512,417.246654 C227.065508,417.246654 227.748244,417.172126 228.391719,417.021738 C229.035194,416.871349 229.706617,416.632458 230.40732,416.303068 L230.40732,418.833715 C229.835046,419.119852 229.224177,419.332791 228.574048,419.471867 C227.923253,419.611608 227.130055,419.680813 226.193124,419.680813 L226.193124,419.680813 L226.193124,419.680813 Z M225.732643,409.580185 C225.038595,409.580185 224.495601,409.799778 224.102994,410.240296 C223.709057,410.679482 223.48414,411.302994 223.426913,412.110832 L228.015749,412.110832 C228.001774,411.302994 227.791497,410.679482 227.382921,410.240296 C226.97634,409.799778 226.42536,409.580185 225.732643,409.580185 L225.732643,409.580185 L225.732643,409.580185 Z" id="Fill-14" fill="#FFFFFF"></path>
                    <path d="M250.511423,419.466543 L247.241479,419.466543 L247.241479,412.464843 C247.241479,411.599778 247.087763,410.95098 246.780333,410.518447 C246.472902,410.085915 245.982477,409.869649 245.311719,409.869649 C244.396081,409.869649 243.735305,410.175749 243.327394,410.786617 C242.920148,411.398152 242.71586,412.410943 242.71586,413.826322 L242.71586,419.466543 L239.445915,419.466543 L239.445915,407.478743 L241.943956,407.478743 L242.384473,409.011904 L242.566802,409.011904 C242.930795,408.432976 243.432532,407.99512 244.07268,407.698336 C244.712163,407.402218 245.440148,407.253826 246.255305,407.253826 C247.648725,407.253826 248.7061,407.631128 249.428762,408.384399 C250.150092,409.139002 250.511423,410.226987 250.511423,411.649686 L250.511423,419.466543" id="Fill-15" fill="#FFFFFF"></path>
                    <path d="M264.550758,413.451017 C264.550758,415.402736 264.035712,416.928577 263.006285,418.029871 C261.977523,419.130499 260.543512,419.680813 258.707579,419.680813 C257.555712,419.680813 256.540924,419.428614 255.661885,418.92488 C254.782181,418.421146 254.107431,417.697153 253.635638,416.753567 C253.163845,415.809982 252.927616,414.709353 252.927616,413.451017 C252.927616,411.492643 253.438669,409.970129 254.461442,408.883475 C255.482884,407.796821 256.919556,407.253826 258.770795,407.253826 C259.921996,407.253826 260.937449,407.50403 261.816488,408.004436 C262.696192,408.504843 263.370943,409.222847 263.843401,410.159113 C264.314529,411.096044 264.550758,412.193346 264.550758,413.451017 L264.550758,413.451017 L264.550758,413.451017 Z M256.262773,413.451017 C256.262773,414.637486 256.457079,415.535157 256.847024,416.142699 C257.236303,416.75024 257.870462,417.053678 258.750166,417.053678 C259.621885,417.053678 260.24939,416.752237 260.631349,416.147357 C261.01464,415.543808 261.204954,414.644806 261.204954,413.451017 C261.204954,412.264547 261.012643,411.374861 260.626026,410.781294 C260.240739,410.187726 259.607911,409.891608 258.728207,409.891608 C257.855823,409.891608 257.226987,410.186396 256.841035,410.77597 C256.455083,411.365545 256.262773,412.257227 256.262773,413.451017 L256.262773,413.451017 L256.262773,413.451017 Z" id="Fill-16" fill="#FFFFFF"></path>
                    <path d="M276.715564,419.466543 L275.792606,415.274307 L274.548909,409.976784 L274.474381,409.976784 L272.287098,419.466543 L268.770277,419.466543 L265.360591,407.478743 L268.619889,407.478743 L270.002662,412.786248 C270.224251,413.737153 270.449834,415.048725 270.678743,416.721627 L270.742625,416.721627 C270.771904,416.177967 270.89634,415.316895 271.11793,414.137079 L271.289612,413.2261 L272.769538,407.478743 L276.3722,407.478743 L277.776932,413.2261 C277.805545,413.383142 277.850129,413.615379 277.910684,413.92281 C277.971904,414.23024 278.030462,414.557634 278.088355,414.90366 C278.144917,415.251017 278.196821,415.590388 278.243401,415.923105 C278.289316,416.255157 278.316599,416.521331 278.323253,416.721627 L278.388466,416.721627 C278.452348,416.20658 278.566802,415.50122 278.73183,414.603549 C278.895527,413.706543 279.013309,413.100998 279.085176,412.786248 L280.521848,407.478743 L283.727246,407.478743 L280.275638,419.466543 L276.715564,419.466543" id="Fill-17" fill="#FFFFFF"></path>
                    <path d="M150.929834,337.773161 C154.69353,337.773161 157.4278,340.520074 157.4278,344.267135 L157.4278,347.044658 C157.4278,350.805028 154.69353,353.775527 150.929834,353.775527 C147.103586,353.775527 144.312754,350.805028 144.312754,347.044658 L144.312754,344.267135 C144.312754,340.520074 147.103586,337.773161 150.929834,337.773161 L150.929834,337.773161 L150.929834,337.773161 Z M144.448503,259.863438 C144.312754,257.349427 146.09878,255.389723 148.475046,255.389723 L153.248872,255.389723 C155.800148,255.389723 157.4278,257.349427 157.367911,259.863438 L154.115268,322.894048 C153.979519,324.656784 152.617375,326.08281 150.929834,326.08281 C149.125841,326.08281 147.680518,324.656784 147.598004,322.894048 L144.448503,259.863438 L144.448503,259.863438 Z" id="Fill-607" fill="#FFFFFF"></path>
                    <path d="M191.231201,258.006211 L196.289834,258.006211 L196.289834,256.199556 L196.289834,256.166285 C196.289834,255.250647 196.914011,254.508022 197.651978,254.508022 L205.20732,254.508022 C205.947283,254.508022 206.564806,255.250647 206.564806,256.166285 L206.564806,256.199556 L206.564806,258.006211 L211.652052,258.006211 C214.150092,258.006211 216.182994,260.023808 216.182994,262.526506 L216.182994,348.279039 C216.182994,350.785065 214.150092,352.805323 211.652052,352.805323 L209.025582,352.805323 L209.025582,353.064177 C209.025582,353.945878 208.412052,354.657893 207.64281,354.657893 L195.398817,354.657893 C194.633567,354.657893 194.010055,353.945878 194.010055,353.064177 C194.010055,353.047542 194.00939,352.946396 194.00939,352.805323 L191.231201,352.805323 C188.732495,352.805323 186.704251,350.785065 186.704251,348.279039 L186.704251,262.526506 C186.704251,260.023808 188.732495,258.006211 191.231201,258.006211 L191.231201,258.006211 L191.231201,258.006211 Z" id="Fill-608" fill="#FFFFFF"></path>
                    <path d="M191.231201,258.006211 L196.289834,258.006211 L196.289834,256.199556 L196.289834,256.166285 C196.289834,255.250647 196.914011,254.508022 197.651978,254.508022 L205.20732,254.508022 C205.947283,254.508022 206.564806,255.250647 206.564806,256.166285 L206.564806,256.199556 L206.564806,258.006211 L211.652052,258.006211 C214.150092,258.006211 216.182994,260.023808 216.182994,262.526506 L216.182994,348.279039 C216.182994,350.785065 214.150092,352.805323 211.652052,352.805323 L209.025582,352.805323 L209.025582,353.064177 C209.025582,353.945878 208.412052,354.657893 207.64281,354.657893 L195.398817,354.657893 C194.633567,354.657893 194.010055,353.945878 194.010055,353.064177 C194.010055,353.047542 194.00939,352.946396 194.00939,352.805323 L191.231201,352.805323 C188.732495,352.805323 186.704251,350.785065 186.704251,348.279039 L186.704251,262.526506 C186.704251,260.023808 188.732495,258.006211 191.231201,258.006211 L191.231201,258.006211 L191.231201,258.006211 Z" id="Stroke-609" stroke="#231F1F" stroke-width="3"></path>
                    <path d="M37.9404067,68.2788909 L36.3127542,66.650573 L44.9361183,58.0265434 L36.3520148,49.4437708 L37.9803327,47.8147874 L46.5637708,56.3982255 L55.1465434,47.8147874 L56.7761922,49.4451017 L48.1927542,58.0265434 L56.8154529,66.650573 L55.1871349,68.2788909 L46.5637708,59.6561922 L37.9404067,68.2788909" id="Fill-994" fill="#FFFFFF"></path>
                    <path d="M37.6110166,143.662625 C37.6110166,142.59793 38.2045841,142.064917 39.3910536,142.064917 C40.5775231,142.064917 41.1710906,142.59793 41.1710906,143.662625 C41.1710906,144.170351 41.0226987,144.565619 40.7265804,144.847763 C40.4291312,145.129908 39.9846211,145.27098 39.3910536,145.27098 C38.2045841,145.27098 37.6110166,144.73464 37.6110166,143.662625 L37.6110166,143.662625 L37.6110166,143.662625 Z M37.7507579,146.761553 L41.0213678,146.761553 L41.0213678,158.749353 L37.7507579,158.749353 L37.7507579,146.761553 L37.7507579,146.761553 Z" id="Fill-1222" fill="#FFFFFF"></path>
                    <path d="M44.4590018,158.748688 L44.4590018,143.07305 L47.783512,143.07305 L47.783512,156.003771 L54.1417375,156.003771 L54.1417375,158.748688 L44.4590018,158.748688" id="Fill-1223" fill="#FFFFFF"></path>
                    <path d="M61.8834011,158.963623 C59.9536414,158.963623 58.4451017,158.43061 57.3591128,157.365915 C56.2724584,156.300555 55.729464,154.79268 55.729464,152.840961 C55.729464,150.83268 56.2312015,149.279556 57.235342,148.182255 C58.2401479,147.084954 59.628244,146.53597 61.4009612,146.53597 C63.0951571,146.53597 64.4140481,147.01841 65.357634,147.983956 C66.30122,148.948835 66.7730129,150.281701 66.7730129,151.983216 L66.7730129,153.570277 L59.0426617,153.570277 C59.0779298,154.499224 59.3534196,155.225213 59.8678004,155.746913 C60.3821811,156.268614 61.1048429,156.529464 62.0337893,156.529464 C62.7557856,156.529464 63.4385213,156.45427 64.0819963,156.304547 C64.7248059,156.154159 65.3968946,155.914603 66.097597,155.585878 L66.097597,158.116525 C65.5259889,158.402662 64.9144547,158.614935 64.2636599,158.754011 C63.6135305,158.893752 62.8203327,158.963623 61.8834011,158.963623 L61.8834011,158.963623 L61.8834011,158.963623 Z M61.4229205,148.862994 C60.7295379,148.862994 60.185878,149.082588 59.7926063,149.52244 C59.3993346,149.961627 59.1744177,150.585804 59.1171904,151.393641 L63.7066913,151.393641 C63.6920518,150.585804 63.4811091,149.961627 63.0738632,149.52244 C62.6666174,149.082588 62.1163031,148.862994 61.4229205,148.862994 L61.4229205,148.862994 L61.4229205,148.862994 Z" id="Fill-1224" fill="#FFFFFF"></path>
                    <path d="M74.3815896,156.357782 C74.9531978,156.357782 75.6392606,156.23268 76.4404436,155.982477 L76.4404436,158.416636 C75.6252865,158.781294 74.6244732,158.963623 73.4380037,158.963623 C72.1297597,158.963623 71.1768577,158.632902 70.579963,157.97146 C69.9837338,157.310684 69.6849538,156.318521 69.6849538,154.996303 L69.6849538,149.217006 L68.1198521,149.217006 L68.1198521,147.833567 L69.921183,146.740259 L70.8647689,144.209612 L72.9555638,144.209612 L72.9555638,146.761553 L76.3113494,146.761553 L76.3113494,149.217006 L72.9555638,149.217006 L72.9555638,154.996303 C72.9555638,155.460776 73.0853235,155.80414 73.3468392,156.02573 C73.607024,156.24732 73.9523845,156.357782 74.3815896,156.357782" id="Fill-1225" fill="#FFFFFF"></path>
                    <path d="M91.2370425,146.53597 C92.6524214,146.53597 93.7603697,147.088281 94.5608872,148.192902 C95.3614048,149.296858 95.7613309,150.810721 95.7613309,152.733826 C95.7613309,154.714159 95.3487616,156.24732 94.5229575,157.333309 C93.6978189,158.419963 92.5732348,158.963623 91.1512015,158.963623 C89.7424769,158.963623 88.6385213,158.452569 87.8380037,157.430462 L87.6124214,157.430462 L87.0660998,158.748688 L84.5673937,158.748688 L84.5673937,142.064917 L87.8380037,142.064917 L87.8380037,145.946396 C87.8380037,146.439482 87.7954159,147.229353 87.7095749,148.316007 L87.8380037,148.316007 C88.6025878,147.129538 89.7358226,146.53597 91.2370425,146.53597 L91.2370425,146.53597 L91.2370425,146.53597 Z M90.1863216,149.152458 C89.3784843,149.152458 88.7889094,149.401331 88.4169316,149.897745 C88.0456192,150.394824 87.8519778,151.21464 87.8380037,152.358521 L87.8380037,152.712532 C87.8380037,153.998817 88.0289834,154.921109 88.4116081,155.478743 C88.7942329,156.036377 89.3997782,156.315194 90.2289094,156.315194 C90.9009982,156.315194 91.4346765,156.005767 91.8319409,155.387579 C92.2285397,154.76939 92.4268392,153.870388 92.4268392,152.690573 C92.4268392,151.511423 92.2272089,150.626396 91.8266174,150.037486 C91.4260259,149.447246 90.8797043,149.152458 90.1863216,149.152458 L90.1863216,149.152458 L90.1863216,149.152458 Z" id="Fill-1226" fill="#FFFFFF"></path>
                    <path d="M105.894566,158.748688 L105.261738,157.119039 L105.175896,157.119039 C104.625582,157.812421 104.058632,158.29353 103.476377,158.561035 C102.893457,158.829871 102.134196,158.963623 101.19793,158.963623 C100.047394,158.963623 99.1410721,158.634898 98.4796303,157.976784 C97.8181885,157.319335 97.4881331,156.383068 97.4881331,155.167985 C97.4881331,153.895675 97.9333087,152.957412 98.8229945,152.353198 C99.7133457,151.748983 101.054861,151.414935 102.848872,151.350388 L104.92902,151.286506 L104.92902,150.760813 C104.92902,149.54573 104.307505,148.938189 103.063808,148.938189 C102.105582,148.938189 100.979667,149.227652 99.6860628,149.80658 L98.6034011,147.598004 C99.9828466,146.876007 101.51268,146.514677 103.192237,146.514677 C104.800591,146.514677 106.033641,146.86536 106.891386,147.565397 C107.749131,148.2661 108.178336,149.33146 108.178336,150.760813 L108.178336,158.748688 L105.894566,158.748688 L105.894566,158.748688 Z M104.92902,153.194972 L103.66403,153.23756 C102.713124,153.266174 102.005767,153.437856 101.540628,153.752606 C101.076821,154.066691 100.843919,154.545804 100.843919,155.189279 C100.843919,156.111571 101.372939,156.572052 102.43098,156.572052 C103.188909,156.572052 103.794455,156.354455 104.248281,155.91793 C104.702107,155.48207 104.92902,154.903142 104.92902,154.181146 L104.92902,153.194972 L104.92902,153.194972 Z" id="Fill-1227" fill="#FFFFFF"></path>
                    <path d="M116.285323,156.357782 C116.857597,156.357782 117.54366,156.23268 118.344177,155.982477 L118.344177,158.416636 C117.529686,158.781294 116.528207,158.963623 115.341738,158.963623 C114.033494,158.963623 113.081257,158.632902 112.484362,157.97146 C111.887468,157.310684 111.589353,156.318521 111.589353,154.996303 L111.589353,149.217006 L110.023586,149.217006 L110.023586,147.833567 L111.824917,146.740259 L112.768503,144.209612 L114.859298,144.209612 L114.859298,146.761553 L118.215749,146.761553 L118.215749,149.217006 L114.859298,149.217006 L114.859298,154.996303 C114.859298,155.460776 114.989723,155.80414 115.250573,156.02573 C115.511423,156.24732 115.856784,156.357782 116.285323,156.357782" id="Fill-1228" fill="#FFFFFF"></path>
                    <path d="M125.986691,156.357782 C126.558965,156.357782 127.245028,156.23268 128.045545,155.982477 L128.045545,158.416636 C127.231054,158.781294 126.229575,158.963623 125.043105,158.963623 C123.735527,158.963623 122.782625,158.632902 122.18573,157.97146 C121.588835,157.310684 121.290721,156.318521 121.290721,154.996303 L121.290721,149.217006 L119.724954,149.217006 L119.724954,147.833567 L121.526285,146.740259 L122.469871,144.209612 L124.560665,144.209612 L124.560665,146.761553 L127.917116,146.761553 L127.917116,149.217006 L124.560665,149.217006 L124.560665,154.996303 C124.560665,155.460776 124.691091,155.80414 124.952606,156.02573 C125.212791,156.24732 125.558152,156.357782 125.986691,156.357782" id="Fill-1229" fill="#FFFFFF"></path>
                    <path d="M135.620185,158.963623 C133.68976,158.963623 132.181885,158.43061 131.095231,157.365915 C130.008577,156.300555 129.464917,154.79268 129.464917,152.840961 C129.464917,150.83268 129.96732,149.279556 130.97146,148.182255 C131.975601,147.084954 133.364362,146.53597 135.137745,146.53597 C136.831275,146.53597 138.150166,147.01841 139.093752,147.983956 C140.037338,148.948835 140.509131,150.281701 140.509131,151.983216 L140.509131,153.570277 L132.778115,153.570277 C132.814048,154.499224 133.089538,155.225213 133.603919,155.746913 C134.118965,156.268614 134.840961,156.529464 135.769908,156.529464 C136.491904,156.529464 137.17464,156.45427 137.817449,156.304547 C138.46159,156.154159 139.133013,155.914603 139.833715,155.585878 L139.833715,158.116525 C139.262107,158.402662 138.650573,158.614935 138.000444,158.754011 C137.349649,158.893752 136.556451,158.963623 135.620185,158.963623 L135.620185,158.963623 L135.620185,158.963623 Z M135.158373,148.862994 C134.465656,148.862994 133.921996,149.082588 133.528725,149.52244 C133.136118,149.961627 132.910536,150.585804 132.853309,151.393641 L137.44281,151.393641 C137.42817,150.585804 137.217227,149.961627 136.809982,149.52244 C136.402736,149.082588 135.852421,148.862994 135.158373,148.862994 L135.158373,148.862994 L135.158373,148.862994 Z" id="Fill-1230" fill="#FFFFFF"></path>
                    <path d="M149.744695,146.53597 C150.187874,146.53597 150.55586,146.568577 150.849316,146.632458 L150.60244,149.699445 C150.338262,149.627579 150.016192,149.592311 149.63756,149.592311 C148.593494,149.592311 147.780333,149.860481 147.198078,150.396155 C146.615823,150.932495 146.324362,151.683105 146.324362,152.647985 L146.324362,158.748688 L143.053752,158.748688 L143.053752,146.761553 L145.531165,146.761553 L146.012939,148.777153 L146.173974,148.777153 C146.545952,148.105065 147.047689,147.564067 147.680518,147.152828 C148.313346,146.74159 149.001405,146.53597 149.744695,146.53597" id="Fill-1231" fill="#FFFFFF"></path>
                    <path d="M151.920665,146.761553 L155.502033,146.761553 L157.76451,153.50573 C157.957486,154.091978 158.089908,154.78536 158.161109,155.585878 L158.224991,155.585878 C158.304177,154.849908 158.457893,154.156525 158.686802,153.50573 L160.906026,146.761553 L164.4122,146.761553 L159.340259,160.282514 C158.875786,161.53353 158.213013,162.469797 157.351275,163.091312 C156.490203,163.713494 155.484067,164.024251 154.332865,164.024251 C153.768577,164.024251 153.21427,163.963697 152.671275,163.841922 L152.671275,161.247394 C153.064547,161.340555 153.493752,161.38647 153.958226,161.38647 C154.536488,161.38647 155.042218,161.210129 155.475416,160.855453 C155.907283,160.502107 156.245323,159.967763 156.488207,159.253087 L156.681183,158.662847 L151.920665,146.761553" id="Fill-1232" fill="#FFFFFF"></path>
                    <path d="M171.692717,143.662625 C171.692717,142.59793 172.286285,142.064917 173.472754,142.064917 C174.659224,142.064917 175.252791,142.59793 175.252791,143.662625 C175.252791,144.170351 175.103734,144.565619 174.807616,144.847763 C174.510832,145.129908 174.066322,145.27098 173.472754,145.27098 C172.286285,145.27098 171.692717,144.73464 171.692717,143.662625 L171.692717,143.662625 L171.692717,143.662625 Z M171.831793,146.761553 L175.102403,146.761553 L175.102403,158.749353 L171.831793,158.749353 L171.831793,146.761553 L171.831793,146.761553 Z" id="Fill-1233" fill="#FFFFFF"></path>
                    <path d="M186.785434,155.189279 C186.785434,156.419002 186.358226,157.355268 185.503808,157.998078 C184.64939,158.641553 183.371756,158.963623 181.670906,158.963623 C180.798521,158.963623 180.055231,158.904399 179.44037,158.786617 C178.825508,158.66817 178.249908,158.495157 177.714233,158.266248 L177.714233,155.564584 C178.321774,155.850721 179.005841,156.089612 179.767763,156.282588 C180.52902,156.475564 181.198447,156.572052 181.778041,156.572052 C182.96451,156.572052 183.558078,156.229353 183.558078,155.54329 C183.558078,155.285767 183.478891,155.076821 183.321848,154.915786 C183.164806,154.755416 182.893309,154.572421 182.506691,154.368799 C182.120739,154.165176 181.606359,153.927616 180.962884,153.656118 C180.040591,153.270166 179.363179,152.912828 178.931312,152.583438 C178.498115,152.254713 178.18403,151.878078 177.987726,151.452865 C177.790758,151.027652 177.692939,150.50329 177.692939,149.881774 C177.692939,148.816414 178.105508,147.992606 178.931312,147.409686 C179.756451,146.827431 180.927616,146.53597 182.44281,146.53597 C183.886802,146.53597 185.290869,146.850721 186.65634,147.479556 L185.670166,149.838521 C185.069945,149.581664 184.508318,149.370721 183.986617,149.206359 C183.464917,149.041996 182.932569,148.959482 182.388909,148.959482 C181.42403,148.959482 180.94159,149.220333 180.94159,149.742033 C180.94159,150.03549 181.097301,150.28902 181.407394,150.50329 C181.718817,150.718226 182.399556,151.036303 183.450277,151.457523 C184.387209,151.836821 185.073272,152.190166 185.509131,152.519556 C185.944991,152.848281 186.267061,153.226913 186.474011,153.656118 C186.681627,154.084658 186.785434,154.595712 186.785434,155.189279" id="Fill-1234" fill="#FFFFFF"></path>
                    <path d="M202.654048,158.748688 L202.021885,157.119039 L201.936044,157.119039 C201.385065,157.812421 200.81878,158.29353 200.236525,158.561035 C199.653604,158.829871 198.894344,158.963623 197.958078,158.963623 C196.806876,158.963623 195.90122,158.634898 195.239778,157.976784 C194.578336,157.319335 194.247616,156.383068 194.247616,155.167985 C194.247616,153.895675 194.692791,152.957412 195.582477,152.353198 C196.472828,151.748983 197.815009,151.414935 199.60902,151.350388 L201.689168,151.286506 L201.689168,150.760813 C201.689168,149.54573 201.066987,148.938189 199.823956,148.938189 C198.86573,148.938189 197.739815,149.227652 196.446211,149.80658 L195.362884,147.598004 C196.742994,146.876007 198.272163,146.514677 199.952384,146.514677 C201.560739,146.514677 202.793789,146.86536 203.651534,147.565397 C204.509279,148.2661 204.938484,149.33146 204.938484,150.760813 L204.938484,158.748688 L202.654048,158.748688 L202.654048,158.748688 Z M201.689168,153.194972 L200.424177,153.23756 C199.473272,153.266174 198.76525,153.437856 198.300776,153.752606 C197.836303,154.066691 197.604067,154.545804 197.604067,155.189279 C197.604067,156.111571 198.133087,156.572052 199.191128,156.572052 C199.948392,156.572052 200.554603,156.354455 201.008429,155.91793 C201.462255,155.48207 201.689168,154.903142 201.689168,154.181146 L201.689168,153.194972 L201.689168,153.194972 Z" id="Fill-1235" fill="#FFFFFF"></path>
                    <path d="M214.66647,146.53597 C216.081848,146.53597 217.189797,147.088281 217.990314,148.192902 C218.790832,149.296858 219.191423,150.810721 219.191423,152.733826 C219.191423,154.714159 218.778854,156.24732 217.95305,157.333309 C217.127246,158.419963 216.003327,158.963623 214.580628,158.963623 C213.172569,158.963623 212.067948,158.452569 211.267431,157.430462 L211.042514,157.430462 L210.495527,158.748688 L207.997486,158.748688 L207.997486,142.064917 L211.267431,142.064917 L211.267431,145.946396 C211.267431,146.439482 211.224843,147.229353 211.139002,148.316007 L211.267431,148.316007 C212.032015,147.129538 213.16525,146.53597 214.66647,146.53597 L214.66647,146.53597 L214.66647,146.53597 Z M213.615749,149.152458 C212.807911,149.152458 212.218336,149.401331 211.846359,149.897745 C211.475046,150.394824 211.28207,151.21464 211.267431,152.358521 L211.267431,152.712532 C211.267431,153.998817 211.45841,154.921109 211.841035,155.478743 C212.22366,156.036377 212.829205,156.315194 213.658336,156.315194 C214.330425,156.315194 214.864769,156.005767 215.262033,155.387579 C215.657967,154.76939 215.856932,153.870388 215.856932,152.690573 C215.856932,151.511423 215.656636,150.626396 215.256044,150.037486 C214.856118,149.447246 214.309131,149.152458 213.615749,149.152458 L213.615749,149.152458 L213.615749,149.152458 Z" id="Fill-1236" fill="#FFFFFF"></path>
                    <path d="M232.730351,152.733826 C232.730351,154.685545 232.21597,156.211386 231.186543,157.312015 C230.157116,158.413309 228.723771,158.963623 226.886506,158.963623 C225.73597,158.963623 224.721183,158.711423 223.841479,158.207689 C222.96244,157.70329 222.286359,156.979963 221.815231,156.036377 C221.343438,155.092791 221.107209,153.992163 221.107209,152.733826 C221.107209,150.775453 221.618262,149.252274 222.641035,148.166285 C223.663142,147.07963 225.099815,146.53597 226.951054,146.53597 C228.10159,146.53597 229.117043,146.786174 229.996081,147.28658 C230.875786,147.786987 231.550536,148.505656 232.022994,149.441922 C232.494122,150.378189 232.730351,151.47549 232.730351,152.733826 L232.730351,152.733826 L232.730351,152.733826 Z M224.442366,152.733826 C224.442366,153.920296 224.636673,154.817301 225.026617,155.424843 C225.415896,156.032384 226.050055,156.336488 226.92976,156.336488 C227.801479,156.336488 228.428983,156.034381 228.810943,155.430166 C229.193567,154.826617 229.385213,153.927616 229.385213,152.733826 C229.385213,151.547357 229.192237,150.657006 228.805619,150.064104 C228.420333,149.470536 227.787505,149.173752 226.908466,149.173752 C226.036081,149.173752 225.407246,149.46854 225.021294,150.05878 C224.635342,150.648355 224.442366,151.540037 224.442366,152.733826 L224.442366,152.733826 L224.442366,152.733826 Z" id="Fill-1237" fill="#FFFFFF"></path>
                    <path d="M243.694048,158.748688 L243.254196,157.215527 L243.082514,157.215527 C242.732495,157.773161 242.235416,158.204362 241.591941,158.5078 C240.949131,158.811238 240.216488,158.963623 239.394011,158.963623 C237.985952,158.963623 236.924584,158.586322 236.209908,157.832384 C235.494566,157.078447 235.137227,155.993124 235.137227,154.577745 L235.137227,146.761553 L238.407837,146.761553 L238.407837,153.763253 C238.407837,154.628318 238.561553,155.277116 238.868983,155.708983 C239.175749,156.141516 239.665508,156.357782 240.337597,156.357782 C241.252569,156.357782 241.914011,156.052348 242.321257,155.441479 C242.728503,154.829945 242.932791,153.816488 242.932791,152.401109 L242.932791,146.761553 L246.202736,146.761553 L246.202736,158.748688 L243.694048,158.748688" id="Fill-1238" fill="#FFFFFF"></path>
                    <path d="M254.407542,156.357782 C254.97915,156.357782 255.665213,156.23268 256.466396,155.982477 L256.466396,158.416636 C255.651238,158.781294 254.650425,158.963623 253.463956,158.963623 C252.155712,158.963623 251.20281,158.632902 250.605915,157.97146 C250.009686,157.310684 249.710906,156.318521 249.710906,154.996303 L249.710906,149.217006 L248.145804,149.217006 L248.145804,147.833567 L249.947135,146.740259 L250.890721,144.209612 L252.981516,144.209612 L252.981516,146.761553 L256.337301,146.761553 L256.337301,149.217006 L252.981516,149.217006 L252.981516,154.996303 C252.981516,155.460776 253.111275,155.80414 253.372791,156.02573 C253.633641,156.24732 253.978336,156.357782 254.407542,156.357782" id="Fill-1239" fill="#FFFFFF"></path>
                    <path d="M269.643327,156.357782 C270.215601,156.357782 270.901664,156.23268 271.702181,155.982477 L271.702181,158.416636 C270.887689,158.781294 269.886876,158.963623 268.700407,158.963623 C267.392163,158.963623 266.439261,158.632902 265.842366,157.97146 C265.245471,157.310684 264.947357,156.318521 264.947357,154.996303 L264.947357,149.217006 L263.38159,149.217006 L263.38159,147.833567 L265.182921,146.740259 L266.126506,144.209612 L268.217967,144.209612 L268.217967,146.761553 L271.573752,146.761553 L271.573752,149.217006 L268.217967,149.217006 L268.217967,154.996303 C268.217967,155.460776 268.347726,155.80414 268.609242,156.02573 C268.870092,156.24732 269.214787,156.357782 269.643327,156.357782" id="Fill-1240" fill="#FFFFFF"></path>
                    <path d="M284.723401,152.733826 C284.723401,154.685545 284.208355,156.211386 283.178928,157.312015 C282.150166,158.413309 280.716821,158.963623 278.879556,158.963623 C277.72902,158.963623 276.713567,158.711423 275.834529,158.207689 C274.95549,157.70329 274.280074,156.979963 273.807616,156.036377 C273.336488,155.092791 273.100259,153.992163 273.100259,152.733826 C273.100259,150.775453 273.611312,149.252274 274.63342,148.166285 C275.655527,147.07963 277.092865,146.53597 278.944104,146.53597 C280.095305,146.53597 281.110092,146.786174 281.989131,147.28658 C282.86817,147.786987 283.543586,148.505656 284.015379,149.441922 C284.487172,150.378189 284.723401,151.47549 284.723401,152.733826 L284.723401,152.733826 L284.723401,152.733826 Z M276.43475,152.733826 C276.43475,153.920296 276.629723,154.817301 277.019667,155.424843 C277.408946,156.032384 278.043771,156.336488 278.922144,156.336488 C279.794529,156.336488 280.422033,156.034381 280.803993,155.430166 C281.186617,154.826617 281.377597,153.927616 281.377597,152.733826 C281.377597,151.547357 281.184621,150.657006 280.798669,150.064104 C280.412717,149.470536 279.780555,149.173752 278.901516,149.173752 C278.029131,149.173752 277.39963,149.46854 277.014344,150.05878 C276.627726,150.648355 276.43475,151.540037 276.43475,152.733826 L276.43475,152.733826 L276.43475,152.733826 Z" id="Fill-1241" fill="#FFFFFF"></path>
                    <path d="M296.925471,158.963623 C295.516747,158.963623 294.410795,158.416636 293.606285,157.322662 C292.80244,156.229353 292.400518,154.714159 292.400518,152.776414 C292.400518,150.810721 292.80976,149.279556 293.628244,148.182255 C294.446728,147.084954 295.57464,146.53597 297.011312,146.53597 C298.519187,146.53597 299.670388,147.122218 300.463586,148.294713 L300.570721,148.294713 C300.406359,147.401035 300.32451,146.603845 300.32451,145.903808 L300.32451,142.064917 L303.605767,142.064917 L303.605767,158.748688 L301.096414,158.748688 L300.463586,157.194233 L300.32451,157.194233 C299.580555,158.373383 298.447985,158.963623 296.925471,158.963623 L296.925471,158.963623 L296.925471,158.963623 Z M298.07268,156.357782 C298.909131,156.357782 299.521996,156.114898 299.911275,155.628466 C300.30122,155.142699 300.513494,154.316895 300.549427,153.151719 L300.549427,152.798373 C300.549427,151.511423 300.351128,150.589131 299.953863,150.031497 C299.55793,149.473863 298.912458,149.195712 298.01878,149.195712 C297.290129,149.195712 296.723179,149.504473 296.319261,150.123327 C295.915342,150.741516 295.713715,151.639852 295.713715,152.819667 C295.713715,153.998817 295.917338,154.883845 296.324584,155.47342 C296.732495,156.062994 297.31475,156.357782 298.07268,156.357782 L298.07268,156.357782 L298.07268,156.357782 Z" id="Fill-1242" fill="#FFFFFF"></path>
                    <path d="M306.585582,143.662625 C306.585582,142.59793 307.17915,142.064917 308.365619,142.064917 C309.552089,142.064917 310.144991,142.59793 310.144991,143.662625 C310.144991,144.170351 309.996599,144.565619 309.700481,144.847763 C309.403697,145.129908 308.958521,145.27098 308.365619,145.27098 C307.17915,145.27098 306.585582,144.73464 306.585582,143.662625 L306.585582,143.662625 L306.585582,143.662625 Z M306.725323,146.761553 L309.995268,146.761553 L309.995268,158.749353 L306.725323,158.749353 L306.725323,146.761553 L306.725323,146.761553 Z" id="Fill-1243" fill="#FFFFFF"></path>
                    <path d="M318.627948,158.963623 C316.697523,158.963623 315.189649,158.43061 314.102994,157.365915 C313.01634,156.300555 312.473346,154.79268 312.473346,152.840961 C312.473346,150.83268 312.975083,149.279556 313.979889,148.182255 C314.98403,147.084954 316.372791,146.53597 318.145508,146.53597 C319.839704,146.53597 321.158595,147.01841 322.101516,147.983956 C323.045102,148.948835 323.51756,150.281701 323.51756,151.983216 L323.51756,153.570277 L315.786543,153.570277 C315.822477,154.499224 316.097301,155.225213 316.611682,155.746913 C317.126728,156.268614 317.848725,156.529464 318.777671,156.529464 C319.500333,156.529464 320.182403,156.45427 320.825878,156.304547 C321.469353,156.154159 322.141442,155.914603 322.841479,155.585878 L322.841479,158.116525 C322.269871,158.402662 321.659002,158.614935 321.008207,158.754011 C320.358078,158.893752 319.564214,158.963623 318.627948,158.963623 L318.627948,158.963623 L318.627948,158.963623 Z M318.166802,148.862994 C317.47342,148.862994 316.930425,149.082588 316.537153,149.52244 C316.143882,149.961627 315.918965,150.585804 315.861738,151.393641 L320.450573,151.393641 C320.436599,150.585804 320.225656,149.961627 319.81841,149.52244 C319.410499,149.082588 318.860185,148.862994 318.166802,148.862994 L318.166802,148.862994 L318.166802,148.862994 Z" id="Fill-1244" fill="#FFFFFF"></path>
                </g>
            </g>
        </g>
    </g>
</svg>