<?xml version="1.0" encoding="UTF-8" standalone="no"?>
<svg width="360px" height="591px" viewBox="0 0 360 591" version="1.1" xmlns="http://www.w3.org/2000/svg" xmlns:xlink="http://www.w3.org/1999/xlink" xmlns:sketch="http://www.bohemiancoding.com/sketch/ns">
    <!-- Generator: Sketch 3.3 (11970) - http://www.bohemiancoding.com/sketch -->
    <title>bgAlert</title>
    <desc>Created with Sketch.</desc>
    <defs></defs>
    <g id="Page-1" stroke="none" stroke-width="1" fill="none" fill-rule="evenodd" sketch:type="MSPage">
        <g id="bgAlert" sketch:type="MSLayerGroup">
            <g id="Page-1" sketch:type="MSShapeGroup">
                <g id="bgAlert">
                    <path d="M0.207615527,0.179001848 L359.542181,0.179001848 L359.542181,590.419963 L0.207615527,590.419963 L0.207615527,0.179001848 L0.207615527,0.179001848 Z" id="Fill-986" fill="#000000"></path>
                    <path d="M179.934122,335.327689 C183.698484,335.327689 186.432754,338.074603 186.432754,341.822329 L186.432754,344.599187 C186.432754,348.360222 183.698484,351.330721 179.934122,351.330721 C176.107874,351.330721 173.317708,348.360222 173.317708,344.599187 L173.317708,341.822329 C173.317708,338.074603 176.107874,335.327689 179.934122,335.327689 L179.934122,335.327689 L179.934122,335.327689 Z M173.452791,257.418632 C173.317708,254.903956 175.103068,252.944251 177.48,252.944251 L182.253161,252.944251 C184.805102,252.944251 186.432754,254.903956 186.372865,257.418632 L183.119556,320.448577 C182.983808,322.211312 181.622329,323.637338 179.934122,323.637338 C178.130129,323.637338 176.685471,322.211312 176.602957,320.448577 L173.452791,257.418632 L173.452791,257.418632 Z" id="Fill-987" fill="#FFFFFF"></path>
                    <path d="M285.239113,440.170869 C285.239113,441.659445 282.872828,444.989279 279.956895,444.989279 L79.792902,445.003919 C76.8756377,445.003919 74.5113494,441.67475 74.5113494,440.185508 L74.5113494,392.536414 C74.5113494,391.045176 76.8756377,387.29146 79.792902,387.29146 L279.956895,387.274824 C282.872828,387.274824 285.239113,391.029205 285.239113,392.520444 L285.239113,440.170869 L285.239113,440.170869 Z" id="Stroke-988" stroke="#FFFFFF" stroke-width="2.552"></path>
                    <path d="M175.341294,404.190832 L181.277634,404.190832 C184.031867,404.190832 186.022181,404.592089 187.249242,405.394603 C188.475638,406.197116 189.089168,407.464769 189.089168,409.19756 C189.089168,410.364732 188.787726,411.335601 188.186174,412.111497 C187.583956,412.886728 186.71756,413.373826 185.586987,413.574787 L185.586987,413.711201 C186.991054,413.976044 188.023808,414.497745 188.68525,415.277634 C189.346691,416.057523 189.676747,417.113567 189.676747,418.444436 C189.676747,420.241109 189.049908,421.647837 187.796229,422.664621 C186.541885,423.68207 184.797782,424.189797 182.563919,424.189797 L175.341294,424.189797 L175.341294,404.190832 L175.341294,404.190832 Z M178.610573,412.452865 L181.756747,412.452865 C183.12488,412.452865 184.123031,412.236599 184.752532,411.803401 C185.381368,411.370203 185.696118,410.633567 185.696118,409.594159 C185.696118,408.654566 185.356747,407.975157 184.677338,407.555933 C183.99793,407.136044 182.919261,406.926433 181.441996,406.926433 L178.610573,406.926433 L178.610573,412.452865 L178.610573,412.452865 Z M178.610573,415.106617 L178.610573,421.440887 L182.084806,421.440887 C183.452939,421.440887 184.485693,421.178706 185.183734,420.653678 C185.881109,420.129316 186.229797,419.302181 186.229797,418.170943 C186.229797,417.131534 185.874455,416.360961 185.16244,415.859224 C184.451756,415.357486 183.371091,415.106617 181.921109,415.106617 L178.610573,415.106617 L178.610573,415.106617 Z" id="Fill-989" fill="#FFFFFF"></path>
                    <path d="M201.629279,413.342551 L208.988983,413.342551 L208.988983,423.382625 C207.784547,423.775231 206.628688,424.053383 205.521405,424.217079 C204.412791,424.381442 203.21634,424.463956 201.930721,424.463956 C198.902329,424.463956 196.567985,423.567616 194.926359,421.775601 C193.284732,419.983586 192.464251,417.454935 192.464251,414.190314 C192.464251,410.970943 193.389205,408.451608 195.241109,406.632311 C197.092348,404.813013 199.641627,403.903364 202.887616,403.903364 C204.975749,403.903364 206.955416,404.304621 208.824621,405.107135 L207.675416,407.829427 C206.052421,407.081479 204.428762,406.707505 202.805767,406.707505 C200.671719,406.707505 198.984177,407.378262 197.744473,408.718447 C196.504104,410.058632 195.883919,411.891904 195.883919,414.217597 C195.883919,416.661738 196.442218,418.51963 197.559482,419.791941 C198.676081,421.064251 200.283771,421.700407 202.381885,421.700407 C203.439261,421.700407 204.570499,421.567985 205.77427,421.303808 L205.77427,416.146026 L201.629279,416.146026 L201.629279,413.342551" id="Fill-990" fill="#FFFFFF"></path>
                    <path d="M150.233789,401.181738 C150.233789,401.181738 141.276377,415.388096 141.276377,421.8122 C141.276377,426.184769 144.212939,431.097671 150.233789,431.097671 C156.253309,431.097671 159.182551,426.184769 159.182551,421.8122 C159.182551,415.388096 150.233789,401.181738 150.233789,401.181738" id="Fill-991" fill="#FFFFFF"></path>
                    <path d="M41.1384843,64.951719 L39.5101664,63.3234011 L48.1335305,54.6993715 L39.5500924,46.1165989 L41.1784104,44.4876155 L49.7625139,53.0710536 L58.3446211,44.4876155 L59.9742699,46.1179298 L51.3901664,54.6993715 L60.0135305,63.3234011 L58.3852126,64.951719 L49.7625139,56.3290203 L41.1384843,64.951719" id="Fill-992" fill="#FFFFFF"></path>
                    <path d="M123.447394,139.745878 L128.326359,139.745878 C130.548909,139.745878 132.162588,140.061959 133.167394,140.694787 C134.171534,141.327616 134.673937,142.333752 134.673937,143.713198 C134.673937,144.649464 134.453678,145.418041 134.014492,146.018262 C133.57464,146.618484 132.990388,146.979815 132.261072,147.100924 L132.261072,147.208725 C133.254566,147.430314 133.971904,147.84488 134.411091,148.452421 C134.850943,149.059963 135.070536,149.8678 135.070536,150.875268 C135.070536,152.305287 134.553494,153.420555 133.521405,154.221072 C132.487985,155.02159 131.08525,155.421516 129.312532,155.421516 L123.447394,155.421516 L123.447394,139.745878 L123.447394,139.745878 Z M126.771238,145.953715 L128.701664,145.953715 C129.601996,145.953715 130.254122,145.81464 130.658041,145.535823 C131.061959,145.257006 131.264251,144.79586 131.264251,144.152384 C131.264251,143.552163 131.043993,143.121627 130.604806,142.860111 C130.164954,142.599926 129.47024,142.469501 128.519335,142.469501 L126.771238,142.469501 L126.771238,145.953715 L126.771238,145.953715 Z M126.771238,148.591497 L126.771238,152.676599 L128.937227,152.676599 C129.8522,152.676599 130.527616,152.50159 130.963475,152.151571 C131.4,151.801553 131.617597,151.265213 131.617597,150.543216 C131.617597,149.242292 130.688651,148.591497 128.830092,148.591497 L126.771238,148.591497 L126.771238,148.591497 Z" id="Fill-1214" fill="#FFFFFF"></path>
                    <path d="M143.9461,146.618484 L150.164584,146.618484 L150.164584,154.7461 C149.157116,155.07549 148.207542,155.30573 147.317856,155.438152 C146.42817,155.569908 145.518521,155.636451 144.588909,155.636451 C142.22329,155.636451 140.41597,154.941072 139.168946,153.55098 C137.921257,152.160887 137.297745,150.164584 137.297745,147.56207 C137.297745,145.032089 138.021738,143.059076 139.469723,141.643697 C140.916377,140.228318 142.923993,139.520296 145.489908,139.520296 C147.098262,139.520296 148.64939,139.842366 150.14329,140.485841 L149.039335,143.144917 C147.895453,142.572643 146.704991,142.287172 145.468614,142.287172 C144.031941,142.287172 142.880739,142.769612 142.015675,143.734492 C141.15061,144.699372 140.718743,145.996969 140.718743,147.626617 C140.718743,149.328133 141.066765,150.627061 141.76414,151.524067 C142.460185,152.421738 143.473641,152.869575 144.803845,152.869575 C145.497227,152.869575 146.201257,152.798373 146.915933,152.655305 L146.915933,149.38536 L143.9461,149.38536 L143.9461,146.618484" id="Fill-1215" fill="#FFFFFF"></path>
                    <path d="M170.408429,155.421516 L167.138484,155.421516 L167.138484,148.419815 C167.138484,147.555416 166.984769,146.906617 166.677338,146.474085 C166.369908,146.041553 165.880148,145.825287 165.208059,145.825287 C164.293087,145.825287 163.631645,146.131386 163.224399,146.742255 C162.817153,147.353124 162.61353,148.36658 162.61353,149.781959 L162.61353,155.421516 L159.342921,155.421516 L159.342921,143.434381 L161.841627,143.434381 L162.280813,144.967542 L162.463142,144.967542 C162.8278,144.388614 163.330203,143.950758 163.970351,143.653974 C164.609834,143.357856 165.337153,143.208799 166.151645,143.208799 C167.54573,143.208799 168.603771,143.5861 169.325767,144.340037 C170.047763,145.09464 170.408429,146.182625 170.408429,147.605323 L170.408429,155.421516" id="Fill-1216" fill="#FFFFFF"></path>
                    <path d="M178.978558,155.636451 C177.048799,155.636451 175.540924,155.103438 174.45427,154.038743 C173.367616,152.973383 172.824621,151.465508 172.824621,149.513789 C172.824621,147.505508 173.326359,145.952384 174.330499,144.855083 C175.335305,143.757782 176.723401,143.208799 178.496784,143.208799 C180.19098,143.208799 181.509871,143.691238 182.453457,144.656784 C183.396377,145.621664 183.86817,146.954529 183.86817,148.656044 L183.86817,150.243105 L176.137819,150.243105 C176.173752,151.172052 176.448577,151.898041 176.963623,152.419741 C177.478004,152.941442 178.2,153.202292 179.128946,153.202292 C179.850943,153.202292 180.533678,153.127098 181.177153,152.977375 C181.820628,152.826987 182.492717,152.587431 183.192754,152.258706 L183.192754,154.789353 C182.620481,155.07549 182.010277,155.287763 181.359482,155.426839 C180.708688,155.56658 179.91549,155.636451 178.978558,155.636451 L178.978558,155.636451 L178.978558,155.636451 Z M178.518078,145.535823 C177.82403,145.535823 177.281701,145.755416 176.887763,146.195268 C176.495157,146.634455 176.27024,147.258632 176.213013,148.06647 L180.801848,148.06647 C180.787209,147.258632 180.576266,146.634455 180.16902,146.195268 C179.761774,145.755416 179.21146,145.535823 178.518078,145.535823 L178.518078,145.535823 L178.518078,145.535823 Z" id="Fill-1217" fill="#FFFFFF"></path>
                    <path d="M191.867357,155.636451 C189.937597,155.636451 188.429057,155.103438 187.343068,154.038743 C186.256414,152.973383 185.712754,151.465508 185.712754,149.513789 C185.712754,147.505508 186.215157,145.952384 187.219298,144.855083 C188.223438,143.757782 189.6122,143.208799 191.384917,143.208799 C193.079113,143.208799 194.398004,143.691238 195.34159,144.656784 C196.285176,145.621664 196.756969,146.954529 196.756969,148.656044 L196.756969,150.243105 L189.025952,150.243105 C189.061885,151.172052 189.337375,151.898041 189.851756,152.419741 C190.366802,152.941442 191.088133,153.202292 192.017745,153.202292 C192.739741,153.202292 193.422477,153.127098 194.065952,152.977375 C194.708762,152.826987 195.38085,152.587431 196.081553,152.258706 L196.081553,154.789353 C195.509279,155.07549 194.89841,155.287763 194.247616,155.426839 C193.597486,155.56658 192.803623,155.636451 191.867357,155.636451 L191.867357,155.636451 L191.867357,155.636451 Z M191.406876,145.535823 C190.712828,145.535823 190.169834,145.755416 189.776562,146.195268 C189.383956,146.634455 189.158373,147.258632 189.101146,148.06647 L193.690647,148.06647 C193.676007,147.258632 193.465065,146.634455 193.057819,146.195268 C192.650573,145.755416 192.100259,145.535823 191.406876,145.535823 L191.406876,145.535823 L191.406876,145.535823 Z" id="Fill-1218" fill="#FFFFFF"></path>
                    <path d="M203.222329,155.636451 C201.81427,155.636451 200.708318,155.089464 199.903808,153.99549 C199.099963,152.902181 198.698041,151.386987 198.698041,149.449242 C198.698041,147.483549 199.106617,145.952384 199.925102,144.855083 C200.743586,143.757782 201.871497,143.208799 203.30817,143.208799 C204.81671,143.208799 205.967246,143.795046 206.761109,144.967542 L206.868244,144.967542 C206.703882,144.073863 206.621368,143.276673 206.621368,142.576636 L206.621368,138.737745 L209.902625,138.737745 L209.902625,155.421516 L207.393272,155.421516 L206.761109,153.867061 L206.621368,153.867061 C205.878078,155.046211 204.745508,155.636451 203.222329,155.636451 L203.222329,155.636451 L203.222329,155.636451 Z M204.369538,153.03061 C205.205989,153.03061 205.818854,152.787726 206.208133,152.301294 C206.598078,151.815527 206.811017,150.989723 206.84695,149.824547 L206.84695,149.471201 C206.84695,148.184251 206.648651,147.261959 206.251386,146.704325 C205.854787,146.146691 205.209982,145.86854 204.316303,145.86854 C203.586987,145.86854 203.020037,146.177301 202.616784,146.796155 C202.212865,147.414344 202.011238,148.31268 202.011238,149.492495 C202.011238,150.671645 202.214861,151.556673 202.622107,152.146248 C203.029353,152.735823 203.612274,153.03061 204.369538,153.03061 L204.369538,153.03061 L204.369538,153.03061 Z" id="Fill-1219" fill="#FFFFFF"></path>
                    <path d="M218.53597,155.636451 C216.605545,155.636451 215.097006,155.103438 214.011017,154.038743 C212.924362,152.973383 212.381368,151.465508 212.381368,149.513789 C212.381368,147.505508 212.883105,145.952384 213.887246,144.855083 C214.892052,143.757782 216.280148,143.208799 218.052865,143.208799 C219.747061,143.208799 221.065952,143.691238 222.009538,144.656784 C222.953124,145.621664 223.424917,146.954529 223.424917,148.656044 L223.424917,150.243105 L215.694566,150.243105 C215.729834,151.172052 216.005323,151.898041 216.519704,152.419741 C217.03475,152.941442 217.756747,153.202292 218.685693,153.202292 C219.407689,153.202292 220.090425,153.127098 220.7339,152.977375 C221.37671,152.826987 222.048799,152.587431 222.749501,152.258706 L222.749501,154.789353 C222.177893,155.07549 221.566359,155.287763 220.916229,155.426839 C220.265434,155.56658 219.472237,155.636451 218.53597,155.636451 L218.53597,155.636451 L218.53597,155.636451 Z M218.074824,145.535823 C217.381442,145.535823 216.837782,145.755416 216.445176,146.195268 C216.051904,146.634455 215.826322,147.258632 215.769094,148.06647 L220.358595,148.06647 C220.343956,147.258632 220.133678,146.634455 219.725767,146.195268 C219.317856,145.755416 218.768207,145.535823 218.074824,145.535823 L218.074824,145.535823 L218.074824,145.535823 Z" id="Fill-1220" fill="#FFFFFF"></path>
                    <path d="M229.890943,155.636451 C228.482884,155.636451 227.376932,155.089464 226.572421,153.99549 C225.768577,152.902181 225.365989,151.386987 225.365989,149.449242 C225.365989,147.483549 225.775231,145.952384 226.593715,144.855083 C227.4122,143.757782 228.540111,143.208799 229.976784,143.208799 C231.485323,143.208799 232.63586,143.795046 233.429057,144.967542 L233.536858,144.967542 C233.372495,144.073863 233.289982,143.276673 233.289982,142.576636 L233.289982,138.737745 L236.571238,138.737745 L236.571238,155.421516 L234.061885,155.421516 L233.429057,153.867061 L233.289982,153.867061 C232.546691,155.046211 231.413457,155.636451 229.890943,155.636451 L229.890943,155.636451 L229.890943,155.636451 Z M231.038152,153.03061 C231.874603,153.03061 232.487468,152.787726 232.876747,152.301294 C233.266691,151.815527 233.478965,150.989723 233.514898,149.824547 L233.514898,149.471201 C233.514898,148.184251 233.317264,147.261959 232.92,146.704325 C232.523401,146.146691 231.87793,145.86854 230.984251,145.86854 C230.255601,145.86854 229.688651,146.177301 229.285397,146.796155 C228.881479,147.414344 228.679187,148.31268 228.679187,149.492495 C228.679187,150.671645 228.88281,151.556673 229.290721,152.146248 C229.697967,152.735823 230.280222,153.03061 231.038152,153.03061 L231.038152,153.03061 L231.038152,153.03061 Z" id="Fill-1221" fill="#FFFFFF"></path>
                </g>
            </g>
        </g>
    </g>
</svg>