<?xml version="1.0" encoding="UTF-8" standalone="no"?>
<svg width="54px" height="41px" viewBox="0 0 54 41" version="1.1" xmlns="http://www.w3.org/2000/svg" xmlns:xlink="http://www.w3.org/1999/xlink" xmlns:sketch="http://www.bohemiancoding.com/sketch/ns">
    <!-- Generator: Sketch 3.3 (11970) - http://www.bohemiancoding.com/sketch -->
    <title>bgmSmallIcon</title>
    <desc>Created with Sketch.</desc>
    <defs></defs>
    <g id="Page-1" stroke="none" stroke-width="1" fill="none" fill-rule="evenodd" sketch:type="MSPage">
        <g id="bgmSmallIcon" sketch:type="MSLayerGroup" transform="translate(2.000000, 1.000000)">
            <path d="M23.06,32.676 C18.439,32.676 16.186,28.906 16.186,25.551 C16.186,20.624 23.06,9.725 23.06,9.725 C23.06,9.725 29.924,20.624 29.924,25.551 C29.924,28.906 27.676,32.676 23.06,32.676" id="Fill-1" fill="#000000" sketch:type="MSShapeGroup"></path>
            <path d="M22.447,26.489 C22.904,27.932 22.532,29.336 21.616,29.623 C20.704,29.912 19.595,28.979 19.137,27.539 C18.678,26.096 19.052,24.69 19.966,24.402 C20.878,24.114 21.99,25.049 22.447,26.489" id="Fill-2" fill="#FFFFFF" sketch:type="MSShapeGroup"></path>
            <path d="M45.422,34.608 C45.422,36.596 43.811,38.208 41.823,38.208 L3.689,38.208 C1.701,38.208 0.089,36.596 0.089,34.608 L0.089,8.808 C0.089,6.82 1.701,5.208 3.689,5.208 L41.823,5.208 C43.811,5.208 45.422,6.82 45.422,8.808 L45.422,34.608 L45.422,34.608 Z" id="Stroke-3" stroke="#000000" stroke-width="3" sketch:type="MSShapeGroup"></path>
            <path d="M50.154,9.022 C50.154,4.409 46.414,0.67 41.802,0.67 C37.19,0.67 33.451,4.409 33.451,9.022 C33.451,13.634 37.19,17.374 41.802,17.374 C46.414,17.374 50.154,13.634 50.154,9.022 L50.154,9.022 Z" id="Fill-4" fill="#FFFFFF" sketch:type="MSShapeGroup"></path>
            <path d="M50.154,9.022 C50.154,4.409 46.414,0.67 41.802,0.67 C37.19,0.67 33.451,4.409 33.451,9.022 C33.451,13.634 37.19,17.374 41.802,17.374 C46.414,17.374 50.154,13.634 50.154,9.022 L50.154,9.022 Z" id="Stroke-5" stroke="#000000" stroke-width="2.218" sketch:type="MSShapeGroup"></path>
            <path d="M41.26,9.707 L37.916,9.707 L37.916,8.211 L41.26,8.211 L41.26,4.781 L42.774,4.781 L42.774,8.211 L46.128,8.211 L46.128,9.707 L42.774,9.707 L42.774,13.119 L41.26,13.119 L41.26,9.707 L41.26,9.707 Z" id="Fill-6" fill="#000000" sketch:type="MSShapeGroup"></path>
            <path d="M41.26,9.707 L37.916,9.707 L37.916,8.211 L41.26,8.211 L41.26,4.781 L42.774,4.781 L42.774,8.211 L46.128,8.211 L46.128,9.707 L42.774,9.707 L42.774,13.119 L41.26,13.119 L41.26,9.707 L41.26,9.707 Z" id="Stroke-7" stroke="#000000" sketch:type="MSShapeGroup"></path>
        </g>
    </g>
</svg>