<?xml version="1.0" encoding="UTF-8" standalone="no"?>
<svg width="64px" height="49px" viewBox="0 0 64 49" version="1.1" xmlns="http://www.w3.org/2000/svg" xmlns:xlink="http://www.w3.org/1999/xlink" xmlns:sketch="http://www.bohemiancoding.com/sketch/ns">
    <!-- Generator: Sketch 3.3 (11970) - http://www.bohemiancoding.com/sketch -->
    <title>bgmTitleIcon</title>
    <desc>Created with Sketch.</desc>
    <defs></defs>
    <g id="Page-1" stroke="none" stroke-width="1" fill="none" fill-rule="evenodd" sketch:type="MSPage">
        <g id="bgmTitleIcon" sketch:type="MSLayerGroup" transform="translate(2.000000, 1.000000)">
            <path d="M27.5815686,39.3787692 C22.0544902,39.3787692 19.3597255,34.8354359 19.3597255,30.7922308 C19.3597255,24.8545641 27.5815686,11.7198718 27.5815686,11.7198718 C27.5815686,11.7198718 35.791451,24.8545641 35.791451,30.7922308 C35.791451,34.8354359 33.1026667,39.3787692 27.5815686,39.3787692" id="Fill-1" fill="#FFFFFF" sketch:type="MSShapeGroup"></path>
            <path d="M26.8483725,31.922641 C27.3949804,33.661641 26.9500392,35.353641 25.8544314,35.6995128 C24.7636078,36.0477949 23.4371569,34.9234103 22.8893529,33.1880256 C22.3403529,31.4490256 22.7876863,29.7546154 23.880902,29.4075385 C24.9717255,29.0604615 26.3017647,30.1872564 26.8483725,31.922641" id="Fill-2" fill="#000000" sketch:type="MSShapeGroup"></path>
            <path d="M54.3282745,41.7070769 C54.3282745,44.1028718 52.4013922,46.0455385 50.0235882,46.0455385 L4.41233333,46.0455385 C2.03452941,46.0455385 0.10645098,44.1028718 0.10645098,41.7070769 L0.10645098,10.6147692 C0.10645098,8.21897436 2.03452941,6.27630769 4.41233333,6.27630769 L50.0235882,6.27630769 C52.4013922,6.27630769 54.3282745,8.21897436 54.3282745,10.6147692 L54.3282745,41.7070769 L54.3282745,41.7070769 Z" id="Stroke-3" stroke="#FFFFFF" stroke-width="3" sketch:type="MSShapeGroup"></path>
            <path d="M59.9881176,10.8726667 C59.9881176,5.31341026 55.5147843,0.807435897 49.9984706,0.807435897 C44.4821569,0.807435897 40.0100196,5.31341026 40.0100196,10.8726667 C40.0100196,16.4307179 44.4821569,20.9378974 49.9984706,20.9378974 C55.5147843,20.9378974 59.9881176,16.4307179 59.9881176,10.8726667 L59.9881176,10.8726667 Z" id="Fill-4" fill="#FFFFFF" sketch:type="MSShapeGroup"></path>
            <path d="M59.9881176,10.8726667 C59.9881176,5.31341026 55.5147843,0.807435897 49.9984706,0.807435897 C44.4821569,0.807435897 40.0100196,5.31341026 40.0100196,10.8726667 C40.0100196,16.4307179 44.4821569,20.9378974 49.9984706,20.9378974 C55.5147843,20.9378974 59.9881176,16.4307179 59.9881176,10.8726667 L59.9881176,10.8726667 Z" id="Stroke-5" stroke="#FFFFFF" stroke-width="2.218" sketch:type="MSShapeGroup"></path>
            <path d="M49.3501961,11.6981795 L45.3505098,11.6981795 L45.3505098,9.89530769 L49.3501961,9.89530769 L49.3501961,5.76171795 L51.1610588,5.76171795 L51.1610588,9.89530769 L55.1727059,9.89530769 L55.1727059,11.6981795 L51.1610588,11.6981795 L51.1610588,15.8100769 L49.3501961,15.8100769 L49.3501961,11.6981795 L49.3501961,11.6981795 Z" id="Fill-6" fill="#000000" sketch:type="MSShapeGroup"></path>
            <path d="M49.3501961,11.6981795 L45.3505098,11.6981795 L45.3505098,9.89530769 L49.3501961,9.89530769 L49.3501961,5.76171795 L51.1610588,5.76171795 L51.1610588,9.89530769 L55.1727059,9.89530769 L55.1727059,11.6981795 L51.1610588,11.6981795 L51.1610588,15.8100769 L49.3501961,15.8100769 L49.3501961,11.6981795 L49.3501961,11.6981795 Z" id="Stroke-7" stroke="#000000" sketch:type="MSShapeGroup"></path>
        </g>
    </g>
</svg>