<?xml version="1.0" encoding="UTF-8" standalone="no"?>
<svg width="270px" height="273px" viewBox="0 0 270 273" version="1.1" xmlns="http://www.w3.org/2000/svg" xmlns:xlink="http://www.w3.org/1999/xlink" xmlns:sketch="http://www.bohemiancoding.com/sketch/ns">
    <!-- Generator: Sketch 3.3 (11970) - http://www.bohemiancoding.com/sketch -->
    <title>carbBegining</title>
    <desc>Created with Sketch.</desc>
    <defs></defs>
    <g id="Page-1" stroke="none" stroke-width="1" fill="none" fill-rule="evenodd" sketch:type="MSPage">
        <g id="carbBegining" sketch:type="MSLayerGroup">
            <path id="Stroke-41" stroke="#D0D2D3" stroke-width="0.474" sketch:type="MSShapeGroup"></path>
            <path d="M207.325,21.443 C144.638,-18.304 61.596,0.294 21.849,62.982 C-17.898,125.67 0.699,208.711 63.387,248.458 C126.077,288.206 209.117,269.608 248.864,206.92 C288.611,144.232 270.015,61.192 207.325,21.443" id="Fill-42" fill="#FFFFFF" sketch:type="MSShapeGroup"></path>
            <path d="M21.277,63.884 L84.111,103.724" id="Stroke-43" stroke="#D0D2D3" sketch:type="MSShapeGroup"></path>
            <path id="Stroke-44" stroke="#929497" stroke-width="0.501" sketch:type="MSShapeGroup"></path>
            <path d="M109.242002,187 C100.023002,182.846 93.208,177.614 87.644,169.879 L22.524,212.468 C32.598,227.466 46.029,241.349 62.265,251.643 C124.583,291.156 207.011,273.012 247.03,211.214 C247.268,210.846 247.506,210.477 247.742,210.105 C247.829,209.967 213.467,188.184 183.169,169.003 C176.782,180.416 147.417998,203.857 109.999998,187" id="Fill-45" fill="#000000" sketch:type="MSShapeGroup"></path>
            <path d="M187.718,107.383 L250.7,67.776" id="Stroke-46" stroke="#D0D2D3" sketch:type="MSShapeGroup"></path>
            <path d="M167.277,83.461 C139.291,65.717 102.22,74.019 84.475,102.005 C66.731,129.991 75.033,167.062 103.019,184.806 C131.006,202.551 168.077,194.249 185.821,166.263 C203.565,138.277 195.263,101.206 167.277,83.461" id="Fill-47" fill="#000000" sketch:type="MSShapeGroup"></path>
            <path d="M95.298,118.615 L102.331,122.071 L102.124,113.462 L95.298,118.615" id="Fill-48" fill="#BBBDBF" sketch:type="MSShapeGroup"></path>
            <path d="M174.944,147.805 L167.678,144.871 L168.511,153.442 L174.944,147.805" id="Fill-49" fill="#BBBDBF" sketch:type="MSShapeGroup"></path>
            <path d="M100.701,116.36 C91.546,133.944 97.234,155.913 114.284,166.723 C126.937,174.746 142.479,174.488 154.558,167.373 M169.992,150.278 C177.98,132.989 172.127,112.034 155.603,101.557 C142.143,93.022 125.414,93.858 113.062,102.352" id="Stroke-50" stroke="#BBBDBF" stroke-width="2" stroke-linecap="round" sketch:type="MSShapeGroup"></path>
            <path d="M246.653,208.029 C240.506,203.989 208.625,183.787 184.688,168.632 C185.201,167.895 185.695,167.153 186.159,166.422 C197.478,148.569 198.603,125.797 189.127,106.879 L251.128,67.216 C276.015,110.529 274.888,163.554 248.148,205.727 C247.657,206.501 247.158,207.268 246.653,208.029" id="Fill-51" fill="#000000" sketch:type="MSShapeGroup"></path>
            <path d="M250.955,67.921 C262.663,88.488 268.717,111.851 268.47,135.555 C268.212,160.29 261.039,184.462 247.726,205.459 C247.343,206.063 246.942,206.684 246.511,207.338 C239.488,202.753 208.777,183.292 185.395,168.488 C185.806,167.887 186.203,167.285 186.581,166.689 C192.363,157.571 195.628,147.079 196.023,136.349 C196.396,126.242 194.237,116.135 189.774,107.058 L250.955,67.921 M251.3,66.513 L188.477,106.701 C197.805,124.979 197.521,147.568 185.736,166.154 C185.17,167.048 184.582,167.92 183.977,168.774 C211.545,186.228 242.051,205.567 246.793,208.721 C247.394,207.821 247.988,206.913 248.571,205.994 C276.339,162.199 275.624,108.474 251.3,66.513" id="Fill-52" fill="#FFFFFF" sketch:type="MSShapeGroup"></path>
            <path d="M188.78,106.735 C183.874,97.339 176.55,89.375 167.57,83.682 C157.858,77.523 146.675,74.269 135.23,74.269 C114.361,74.269 95.239,84.777 84.078,102.38 C83.874,102.701 83.678,103.026 83.483,103.352 L21.618,63.849 C21.641,63.811 21.663,63.774 21.686,63.735 C21.818,63.515 21.95,63.294 22.088,63.075 C46.79,24.117 89.112,0.858 135.301,0.858 C160.631,0.858 185.38,8.063 206.875,21.691 C224.881,33.108 240.039,48.803 250.737,67.102 L188.78,106.735" id="Fill-53" fill="#000000" sketch:type="MSShapeGroup"></path>
            <path d="M135.294,1.359 L135.301,1.359 C160.538,1.361 185.195,8.537 206.607,22.114 C224.41,33.402 239.419,48.888 250.062,66.94 L188.968,106.021 C184.025,96.756 176.738,88.902 167.838,83.259 C158.046,77.05 146.771,73.769 135.23,73.769 C114.189,73.769 94.909,84.365 83.656,102.112 C83.542,102.292 83.43,102.473 83.32,102.655 L22.297,63.688 C22.367,63.573 22.438,63.458 22.511,63.343 C34.767,44.012 51.834,28.1 71.866,17.326 C91.289,6.88 113.22,1.359 135.294,1.359 M135.301,0.359 C90.798,0.357 47.26,22.441 21.666,62.807 C21.415,63.204 21.184,63.608 20.937,64.006 L83.648,104.051 C83.929,103.582 84.206,103.112 84.501,102.647 C95.926,84.628 115.365,74.769 135.23,74.769 C146.218,74.768 157.336,77.784 167.302,84.104 C176.702,90.063 183.869,98.209 188.587,107.452 L251.41,67.264 C240.917,49.163 226.036,33.248 207.143,21.269 C184.821,7.116 159.911,0.361 135.301,0.359" id="Fill-54" fill="#FFFFFF" sketch:type="MSShapeGroup"></path>
            <path d="M84.084,103.488 L21.492,63.258 C-7.754,109.883 -4.886,167.657 24.35,210.49 L86.8,169.91 C72.981,150.873 71.18,124.696 84.084,103.488" id="Fill-55" fill="#FFFFFF" sketch:type="MSShapeGroup"></path>
            <path d="M36.547,171.454 C36.071,170.131 36.154,168.94 36.794,167.883 C37.434,166.826 38.581,166 40.235,165.404 C41.888,164.81 43.306,164.716 44.488,165.125 C45.67,165.533 46.497,166.394 46.967,167.704 C47.204,168.359 47.298,169.002 47.252,169.631 C47.204,170.26 46.997,170.85 46.626,171.398 L46.666,171.508 L48.077,171.363 L48.47,172.457 L34.172,177.602 L33.624,176.076 L37.097,174.826 C37.876,174.547 38.583,174.319 39.219,174.147 L39.192,174.072 C37.932,173.724 37.049,172.85 36.547,171.454 L36.547,171.454 Z M37.904,171.215 C38.28,172.256 38.847,172.899 39.61,173.145 C40.374,173.389 41.462,173.256 42.878,172.747 C44.292,172.237 45.22,171.638 45.659,170.946 C46.1,170.256 46.133,169.389 45.757,168.348 C45.419,167.41 44.827,166.836 43.978,166.621 C43.132,166.408 42.066,166.531 40.786,166.992 C39.475,167.464 38.581,168.045 38.102,168.736 C37.625,169.427 37.559,170.254 37.904,171.215 L37.904,171.215 Z" id="Fill-56" fill="#000000" sketch:type="MSShapeGroup"></path>
            <path d="M43.841,156.793 C44.194,158.334 44.004,159.659 43.268,160.766 C42.536,161.873 41.333,162.618 39.663,163.002 C37.983,163.387 36.552,163.279 35.372,162.679 C34.191,162.078 33.442,161.08 33.121,159.684 C32.821,158.377 33.014,157.244 33.7,156.285 C34.383,155.326 35.43,154.686 36.84,154.361 L37.839,154.132 L39.489,161.319 C40.706,161.006 41.564,160.482 42.064,159.75 C42.565,159.018 42.692,158.118 42.447,157.053 C42.189,155.93 41.7,154.873 40.977,153.883 L42.387,153.559 C42.756,154.063 43.049,154.551 43.269,155.026 C43.489,155.499 43.678,156.088 43.841,156.793 L43.841,156.793 Z M34.449,159.399 C34.641,160.236 35.067,160.842 35.727,161.214 C36.387,161.588 37.21,161.707 38.194,161.575 L36.942,156.121 C35.947,156.35 35.235,156.747 34.806,157.313 C34.38,157.879 34.259,158.574 34.449,159.399 L34.449,159.399 Z" id="Fill-57" fill="#000000" sketch:type="MSShapeGroup"></path>
            <path d="M30.797,143.145 L31.816,143.029 L32.271,144.973 C32.478,144.767 32.756,144.571 33.104,144.388 C33.454,144.203 33.858,144.086 34.317,144.035 C35.359,143.917 36.231,144.18 36.931,144.82 C37.634,145.462 38.053,146.404 38.194,147.646 C38.229,147.963 38.237,148.264 38.217,148.548 C38.657,149.192 39.151,149.484 39.703,149.422 C39.993,149.389 40.194,149.245 40.306,148.99 C40.419,148.735 40.442,148.317 40.377,147.734 L40.165,145.852 C40.034,144.7 40.176,143.788 40.592,143.115 C41.008,142.443 41.677,142.055 42.603,141.95 C43.78,141.818 44.731,142.188 45.456,143.063 C46.18,143.937 46.644,145.281 46.848,147.093 C47.006,148.484 46.868,149.585 46.435,150.397 C46.003,151.209 45.314,151.668 44.37,151.775 C43.723,151.848 43.139,151.704 42.621,151.344 C42.102,150.983 41.716,150.437 41.463,149.705 C41.371,149.99 41.206,150.24 40.968,150.453 C40.729,150.667 40.439,150.793 40.096,150.832 C39.708,150.875 39.357,150.811 39.043,150.637 C38.728,150.463 38.41,150.167 38.089,149.752 C37.922,150.326 37.589,150.819 37.085,151.227 C36.58,151.633 35.979,151.876 35.28,151.955 C34.116,152.086 33.178,151.838 32.468,151.211 C31.759,150.584 31.333,149.629 31.187,148.348 C31.125,147.792 31.133,147.283 31.213,146.822 L30.797,143.145 L30.797,143.145 Z M35.061,150.367 C35.805,150.283 36.345,150.011 36.678,149.547 C37.013,149.084 37.138,148.477 37.053,147.727 C36.876,146.154 36.023,145.453 34.498,145.626 C32.899,145.807 32.19,146.691 32.37,148.283 C32.454,149.04 32.723,149.6 33.177,149.961 C33.632,150.322 34.259,150.459 35.061,150.367 L35.061,150.367 Z M44.174,150.225 C44.752,150.16 45.161,149.867 45.403,149.35 C45.645,148.83 45.716,148.117 45.615,147.213 C45.462,145.859 45.147,144.883 44.67,144.277 C44.191,143.673 43.606,143.41 42.914,143.488 C42.338,143.553 41.959,143.776 41.776,144.156 C41.592,144.537 41.556,145.22 41.668,146.203 L41.885,148.135 C41.968,148.865 42.207,149.415 42.602,149.783 C42.997,150.151 43.522,150.299 44.174,150.225 L44.174,150.225 Z" id="Fill-58" fill="#000000" sketch:type="MSShapeGroup"></path>
            <path d="M27.873,140.553 C27.502,140.565 27.228,140.482 27.05,140.305 C26.872,140.127 26.779,139.902 26.77,139.629 C26.762,139.369 26.843,139.142 27.013,138.947 C27.184,138.754 27.452,138.651 27.815,138.641 C28.179,138.629 28.455,138.716 28.638,138.898 C28.825,139.082 28.921,139.305 28.928,139.565 C28.935,139.838 28.853,140.068 28.68,140.256 C28.506,140.443 28.237,140.543 27.873,140.553 L27.873,140.553 Z M41.418,138.387 L41.466,140.008 L30.768,140.329 L30.719,138.709 L41.418,138.387 L41.418,138.387 Z" id="Fill-59" fill="#000000" sketch:type="MSShapeGroup"></path>
            <path d="M41.734,127.93 L34.822,127.521 C33.952,127.469 33.291,127.629 32.839,128 C32.385,128.371 32.133,128.979 32.085,129.824 C32.018,130.941 32.272,131.778 32.845,132.334 C33.419,132.891 34.401,133.209 35.792,133.291 L41.397,133.623 L41.301,135.242 L30.616,134.609 L30.694,133.293 L32.173,133.116 L32.177,133.038 C31.671,132.676 31.291,132.188 31.037,131.572 C30.783,130.957 30.678,130.282 30.72,129.547 C30.797,128.262 31.165,127.311 31.824,126.697 C32.483,126.084 33.496,125.818 34.86,125.899 L41.83,126.312 L41.734,127.93" id="Fill-60" fill="#000000" sketch:type="MSShapeGroup"></path>
            <path d="M28.835,121.454 C28.467,121.399 28.212,121.27 28.067,121.062 C27.923,120.857 27.872,120.619 27.913,120.349 C27.952,120.091 28.072,119.882 28.273,119.721 C28.475,119.561 28.757,119.508 29.118,119.561 C29.478,119.615 29.732,119.748 29.883,119.961 C30.031,120.176 30.086,120.41 30.047,120.668 C30.006,120.939 29.885,121.15 29.68,121.305 C29.477,121.458 29.195,121.508 28.835,121.454 L28.835,121.454 Z M42.547,121.729 L42.307,123.332 L31.722,121.748 L31.963,120.145 L42.547,121.729 L42.547,121.729 Z" id="Fill-61" fill="#000000" sketch:type="MSShapeGroup"></path>
            <path d="M44.724,111.485 L37.996,109.851 C37.149,109.645 36.469,109.684 35.959,109.969 C35.446,110.253 35.091,110.806 34.891,111.628 C34.627,112.717 34.727,113.586 35.192,114.234 C35.658,114.883 36.568,115.373 37.921,115.701 L43.378,117.027 L42.995,118.603 L32.595,116.075 L32.905,114.793 L34.391,114.883 L34.41,114.808 C33.975,114.361 33.688,113.813 33.548,113.161 C33.409,112.512 33.425,111.828 33.599,111.113 C33.904,109.861 34.435,108.992 35.193,108.506 C35.95,108.02 36.994,107.939 38.323,108.262 L45.108,109.91 L44.724,111.485" id="Fill-62" fill="#000000" sketch:type="MSShapeGroup"></path>
            <path d="M39.055,95.191 L40.014,95.549 L39.54,97.488 C39.817,97.398 40.153,97.35 40.547,97.344 C40.942,97.34 41.355,97.418 41.788,97.58 C42.77,97.947 43.428,98.576 43.762,99.466 C44.096,100.355 44.045,101.386 43.606,102.557 C43.495,102.856 43.366,103.127 43.217,103.371 C43.317,104.145 43.627,104.629 44.144,104.822 C44.42,104.926 44.664,104.889 44.88,104.712 C45.095,104.536 45.305,104.174 45.51,103.624 L46.175,101.85 C46.582,100.765 47.123,100.018 47.797,99.605 C48.473,99.194 49.247,99.152 50.119,99.479 C51.228,99.895 51.907,100.656 52.156,101.764 C52.405,102.873 52.211,104.28 51.571,105.986 C51.081,107.299 50.458,108.218 49.704,108.745 C48.951,109.273 48.13,109.37 47.237,109.036 C46.629,108.809 46.174,108.416 45.875,107.859 C45.577,107.303 45.479,106.641 45.587,105.873 C45.375,106.086 45.114,106.235 44.805,106.317 C44.497,106.399 44.18,106.38 43.857,106.258 C43.491,106.121 43.208,105.904 43.007,105.607 C42.805,105.309 42.655,104.901 42.556,104.385 C42.149,104.822 41.629,105.11 40.994,105.244 C40.36,105.379 39.714,105.322 39.054,105.075 C37.958,104.665 37.235,104.019 36.886,103.138 C36.539,102.257 36.591,101.213 37.044,100.005 C37.239,99.481 37.477,99.031 37.757,98.656 L39.055,95.191 L39.055,95.191 Z M39.58,103.563 C40.281,103.824 40.886,103.825 41.394,103.564 C41.902,103.303 42.289,102.818 42.553,102.11 C43.108,100.629 42.667,99.619 41.227,99.08 C39.721,98.516 38.687,98.984 38.127,100.483 C37.858,101.197 37.845,101.818 38.085,102.346 C38.326,102.873 38.823,103.279 39.58,103.563 L39.58,103.563 Z M47.768,107.566 C48.31,107.77 48.808,107.695 49.26,107.343 C49.711,106.99 50.096,106.388 50.417,105.534 C50.894,104.26 51.055,103.245 50.905,102.489 C50.753,101.735 50.351,101.234 49.698,100.99 C49.156,100.787 48.716,100.814 48.38,101.07 C48.046,101.327 47.704,101.918 47.356,102.845 L46.674,104.665 C46.417,105.354 46.381,105.953 46.565,106.459 C46.751,106.967 47.152,107.336 47.768,107.566 L47.768,107.566 Z" id="Fill-63" fill="#000000" sketch:type="MSShapeGroup"></path>
            <path d="M114.385,44.703 L112.403,38.028 C112.161,37.211 111.803,36.65 111.333,36.345 C110.862,36.041 110.258,35.996 109.522,36.215 C108.554,36.503 107.923,36.992 107.626,37.686 C107.329,38.379 107.351,39.303 107.695,40.457 L109.396,46.186 L107.842,46.647 L105.86,39.973 C105.617,39.154 105.259,38.594 104.788,38.289 C104.317,37.983 103.711,37.942 102.968,38.162 C101.995,38.451 101.368,38.955 101.089,39.673 C100.81,40.391 100.868,41.414 101.262,42.743 L102.861,48.125 L101.307,48.588 L98.26,38.328 L99.524,37.952 L100.194,39.281 L100.268,39.26 C100.413,38.673 100.712,38.16 101.162,37.721 C101.612,37.281 102.168,36.963 102.829,36.768 C104.432,36.291 105.653,36.56 106.491,37.574 L106.567,37.552 C106.712,36.924 107.03,36.367 107.518,35.884 C108.005,35.399 108.62,35.047 109.364,34.826 C110.524,34.482 111.481,34.522 112.236,34.945 C112.991,35.37 113.561,36.237 113.952,37.548 L115.94,44.242 L114.385,44.703" id="Fill-64" fill="#FFFFFF" sketch:type="MSShapeGroup"></path>
            <path d="M116.514,30.586 C116.453,30.221 116.497,29.938 116.647,29.736 C116.798,29.536 117.01,29.413 117.279,29.367 C117.536,29.324 117.772,29.373 117.987,29.515 C118.203,29.656 118.341,29.908 118.402,30.267 C118.462,30.626 118.415,30.91 118.258,31.118 C118.102,31.326 117.895,31.451 117.639,31.495 C117.37,31.541 117.129,31.491 116.921,31.345 C116.71,31.198 116.575,30.945 116.514,30.586 L116.514,30.586 Z M120.517,43.706 L118.919,43.977 L117.134,33.423 L118.731,33.152 L120.517,43.706 L120.517,43.706 Z" id="Fill-65" fill="#FFFFFF" sketch:type="MSShapeGroup"></path>
            <path d="M130.748,41.156 L130.66,41.162 C130,42.306 128.926,42.937 127.44,43.054 C126.046,43.164 124.922,42.773 124.071,41.881 C123.219,40.988 122.723,39.663 122.585,37.904 C122.445,36.146 122.725,34.749 123.427,33.713 C124.13,32.678 125.175,32.106 126.563,31.994 C128.009,31.88 129.162,32.318 130.017,33.309 L130.143,33.298 L130.014,32.535 L129.916,31.788 L129.573,27.445 L131.188,27.318 L132.389,42.466 L131.075,42.57 L130.748,41.156 L130.748,41.156 Z M127.538,41.685 C128.641,41.598 129.417,41.233 129.866,40.594 C130.315,39.954 130.485,38.967 130.38,37.629 L130.352,37.288 C130.233,35.775 129.895,34.718 129.341,34.111 C128.787,33.506 127.958,33.246 126.856,33.334 C125.907,33.408 125.212,33.835 124.766,34.611 C124.323,35.389 124.153,36.447 124.26,37.791 C124.368,39.154 124.7,40.163 125.255,40.818 C125.809,41.473 126.571,41.762 127.538,41.685 L127.538,41.685 Z" id="Fill-66" fill="#FFFFFF" sketch:type="MSShapeGroup"></path>
            <path d="M142.754,41.324 L142.665,41.32 C141.868,42.371 140.723,42.861 139.234,42.793 C137.836,42.727 136.771,42.197 136.038,41.205 C135.305,40.213 134.98,38.835 135.063,37.073 C135.145,35.311 135.6,33.96 136.426,33.022 C137.253,32.082 138.362,31.646 139.753,31.711 C141.204,31.778 142.291,32.358 143.015,33.447 L143.141,33.453 L143.11,32.679 L143.106,31.926 L143.309,27.575 L144.929,27.651 L144.217,42.83 L142.901,42.768 L142.754,41.324 L142.754,41.324 Z M139.502,41.445 C140.608,41.498 141.424,41.234 141.95,40.656 C142.474,40.078 142.768,39.119 142.831,37.779 L142.848,37.438 C142.919,35.923 142.717,34.83 142.243,34.158 C141.769,33.488 140.981,33.127 139.874,33.074 C138.925,33.03 138.181,33.365 137.643,34.08 C137.104,34.795 136.803,35.826 136.74,37.171 C136.676,38.537 136.878,39.58 137.346,40.299 C137.815,41.018 138.533,41.4 139.502,41.445 L139.502,41.445 Z" id="Fill-67" fill="#FFFFFF" sketch:type="MSShapeGroup"></path>
            <path d="M148.938,43.496 L147.333,43.277 L149.397,28.223 L151.003,28.442 L148.938,43.496" id="Fill-68" fill="#FFFFFF" sketch:type="MSShapeGroup"></path>
            <path d="M156.424,45.106 C154.882,44.76 153.768,44.017 153.087,42.877 C152.404,41.736 152.251,40.33 152.626,38.66 C153.003,36.977 153.716,35.733 154.768,34.927 C155.819,34.121 157.043,33.875 158.44,34.188 C159.749,34.482 160.688,35.144 161.258,36.176 C161.827,37.207 161.954,38.428 161.637,39.838 L161.414,40.84 L154.219,39.227 C153.975,40.461 154.078,41.461 154.522,42.227 C154.968,42.994 155.724,43.497 156.792,43.736 C157.917,43.988 159.081,44.003 160.285,43.778 L159.969,45.19 C159.356,45.305 158.788,45.359 158.266,45.353 C157.743,45.346 157.13,45.264 156.424,45.106 L156.424,45.106 Z M158.125,35.508 C157.286,35.32 156.556,35.443 155.935,35.879 C155.314,36.314 154.85,37.004 154.546,37.949 L160.007,39.173 C160.229,38.175 160.178,37.361 159.852,36.732 C159.526,36.101 158.951,35.693 158.125,35.508 L158.125,35.508 Z" id="Fill-69" fill="#FFFFFF" sketch:type="MSShapeGroup"></path>
            <path d="M227.801,121.076 C227.53,119.518 227.792,118.205 228.584,117.139 C229.378,116.072 230.616,115.393 232.303,115.1 C234.004,114.805 235.426,114.988 236.573,115.652 C237.719,116.315 238.415,117.352 238.66,118.763 C238.889,120.084 238.635,121.205 237.901,122.127 C237.165,123.047 236.087,123.631 234.663,123.879 L233.652,124.054 L232.389,116.791 C231.157,117.037 230.271,117.513 229.733,118.219 C229.195,118.923 229.02,119.814 229.206,120.892 C229.405,122.027 229.837,123.107 230.505,124.136 L229.08,124.383 C228.738,123.861 228.47,123.357 228.278,122.872 C228.084,122.387 227.925,121.789 227.801,121.076 L227.801,121.076 Z M237.319,118.977 C237.173,118.129 236.779,117.502 236.139,117.095 C235.5,116.688 234.686,116.524 233.696,116.603 L234.653,122.115 C235.66,121.941 236.393,121.582 236.85,121.041 C237.307,120.498 237.464,119.81 237.319,118.977 L237.319,118.977 Z" id="Fill-70" fill="#FFFFFF" sketch:type="MSShapeGroup"></path>
            <path d="M229.302,134.591 L236.217,134.232 C237.089,134.188 237.729,133.956 238.137,133.537 C238.546,133.118 238.729,132.486 238.684,131.641 C238.627,130.524 238.282,129.719 237.65,129.23 C237.018,128.742 236.007,128.533 234.616,128.606 L229.009,128.896 L228.925,127.276 L239.614,126.723 L239.68,128.039 L238.232,128.379 L238.236,128.457 C238.78,128.762 239.212,129.205 239.532,129.788 C239.852,130.371 240.032,131.03 240.069,131.766 C240.135,133.052 239.876,134.037 239.289,134.719 C238.702,135.402 237.725,135.778 236.36,135.849 L229.385,136.209 L229.302,134.591" id="Fill-71" fill="#FFFFFF" sketch:type="MSShapeGroup"></path>
            <path d="M230.237,146.483 L230.244,146.395 C229.215,145.566 228.755,144.41 228.866,142.924 C228.97,141.527 229.529,140.477 230.541,139.773 C231.553,139.068 232.939,138.781 234.699,138.912 C236.458,139.043 237.796,139.535 238.712,140.386 C239.627,141.238 240.034,142.359 239.93,143.748 C239.821,145.195 239.214,146.266 238.103,146.961 L238.094,147.087 L238.87,147.076 L239.622,147.094 L243.965,147.416 L243.844,149.033 L228.692,147.904 L228.789,146.59 L230.237,146.483 L230.237,146.483 Z M230.206,143.229 C230.124,144.332 230.364,145.154 230.926,145.696 C231.491,146.237 232.441,146.559 233.779,146.658 L234.12,146.684 C235.633,146.796 236.73,146.625 237.414,146.17 C238.098,145.715 238.479,144.936 238.563,143.832 C238.634,142.884 238.318,142.131 237.619,141.572 C236.92,141.015 235.898,140.686 234.555,140.586 C233.19,140.484 232.143,140.657 231.411,141.106 C230.678,141.553 230.278,142.262 230.206,143.229 L230.206,143.229 Z" id="Fill-72" fill="#FFFFFF" sketch:type="MSShapeGroup"></path>
            <path d="M110.114,226.907 C109.814,227.834 109.238,228.436 108.385,228.715 C107.533,228.994 106.483,228.933 105.237,228.528 C103.917,228.102 102.956,227.56 102.352,226.903 L102.805,225.505 C103.205,225.902 103.656,226.259 104.159,226.574 C104.661,226.892 105.167,227.133 105.675,227.296 C106.462,227.552 107.108,227.621 107.613,227.508 C108.118,227.393 108.454,227.079 108.62,226.565 C108.746,226.178 108.685,225.792 108.438,225.407 C108.192,225.024 107.641,224.486 106.789,223.795 C105.974,223.15 105.413,222.637 105.106,222.252 C104.799,221.869 104.603,221.483 104.518,221.095 C104.433,220.706 104.465,220.285 104.612,219.83 C104.875,219.02 105.411,218.486 106.223,218.231 C107.034,217.976 108.014,218.033 109.165,218.406 C110.236,218.753 111.214,219.31 112.094,220.076 L111.163,221.129 C110.297,220.395 109.459,219.895 108.647,219.633 C107.933,219.401 107.358,219.339 106.923,219.445 C106.487,219.552 106.206,219.803 106.079,220.195 C105.992,220.462 105.987,220.71 106.062,220.941 C106.137,221.175 106.299,221.424 106.548,221.69 C106.795,221.959 107.297,222.392 108.052,222.991 C109.092,223.803 109.751,224.494 110.024,225.063 C110.298,225.634 110.328,226.248 110.114,226.907" id="Fill-73" fill="#BBBDBF" sketch:type="MSShapeGroup"></path>
            <path d="M113.94,230.748 L112.399,230.384 L115.816,215.934 L117.358,216.298 L113.94,230.748" id="Fill-74" fill="#BBBDBF" sketch:type="MSShapeGroup"></path>
            <path d="M122.362,232.468 C120.831,232.249 119.689,231.611 118.937,230.555 C118.184,229.496 117.926,228.139 118.161,226.482 C118.398,224.814 118.998,223.547 119.959,222.68 C120.921,221.814 122.094,221.48 123.479,221.677 C124.777,221.861 125.743,222.434 126.378,223.394 C127.012,224.356 127.23,225.534 127.032,226.934 L126.891,227.925 L119.759,226.911 C119.617,228.133 119.793,229.099 120.286,229.811 C120.779,230.524 121.555,230.955 122.613,231.106 C123.728,231.264 124.863,231.188 126.018,230.876 L125.821,232.274 C125.232,232.435 124.683,232.532 124.174,232.565 C123.665,232.599 123.061,232.565 122.362,232.468 L122.362,232.468 Z M123.274,222.986 C122.443,222.869 121.742,223.046 121.171,223.518 C120.599,223.989 120.201,224.697 119.977,225.642 L125.39,226.411 C125.531,225.422 125.418,224.634 125.051,224.044 C124.686,223.456 124.093,223.104 123.274,222.986 L123.274,222.986 Z" id="Fill-75" fill="#BBBDBF" sketch:type="MSShapeGroup"></path>
            <path d="M134.381,233.332 C132.837,233.31 131.624,232.818 130.745,231.864 C129.866,230.908 129.44,229.595 129.466,227.922 C129.493,226.236 129.928,224.903 130.774,223.924 C131.619,222.944 132.741,222.465 134.141,222.487 C135.452,222.509 136.481,222.954 137.231,223.829 C137.982,224.703 138.345,225.846 138.323,227.258 L138.307,228.26 L131.103,228.147 C131.116,229.375 131.412,230.313 131.991,230.958 C132.569,231.604 133.392,231.934 134.461,231.95 C135.587,231.968 136.704,231.75 137.811,231.297 L137.79,232.709 C137.225,232.941 136.694,233.106 136.193,233.204 C135.691,233.302 135.089,233.344 134.381,233.332 L134.381,233.332 Z M134.101,223.813 C133.261,223.801 132.589,224.064 132.08,224.603 C131.572,225.142 131.266,225.895 131.162,226.859 L136.63,226.945 C136.645,225.946 136.434,225.178 135.997,224.64 C135.56,224.103 134.928,223.825 134.101,223.813 L134.101,223.813 Z" id="Fill-76" fill="#BBBDBF" sketch:type="MSShapeGroup"></path>
            <path d="M146.928,232.629 C146.253,232.708 145.621,232.655 145.032,232.47 C144.444,232.285 143.93,231.956 143.491,231.481 L143.378,231.494 C143.524,232.093 143.628,232.663 143.691,233.207 L144.187,237.481 L142.614,237.664 L140.868,222.611 L142.147,222.463 L142.53,223.859 L142.606,223.852 C142.944,223.235 143.368,222.77 143.876,222.455 C144.383,222.14 144.985,221.942 145.68,221.861 C147.057,221.701 148.175,222.049 149.034,222.903 C149.891,223.759 150.419,225.035 150.616,226.735 C150.814,228.441 150.588,229.812 149.935,230.845 C149.284,231.877 148.281,232.473 146.928,232.629 L146.928,232.629 Z M145.608,223.225 C144.546,223.347 143.812,223.73 143.407,224.373 C143.001,225.016 142.866,225.979 143.003,227.264 L143.042,227.613 C143.212,229.074 143.577,230.091 144.136,230.662 C144.696,231.234 145.512,231.458 146.587,231.334 C147.483,231.23 148.145,230.785 148.569,230 C148.994,229.214 149.132,228.182 148.984,226.906 C148.834,225.61 148.464,224.647 147.876,224.014 C147.286,223.38 146.53,223.117 145.608,223.225 L145.608,223.225 Z" id="Fill-77" fill="#BBBDBF" sketch:type="MSShapeGroup"></path>
            <path d="M151.821,218.191 C151.745,217.836 151.776,217.558 151.916,217.355 C152.054,217.153 152.255,217.025 152.515,216.969 C152.764,216.915 152.997,216.953 153.214,217.082 C153.43,217.212 153.576,217.45 153.65,217.799 C153.724,218.147 153.69,218.428 153.547,218.636 C153.402,218.847 153.206,218.977 152.958,219.03 C152.696,219.087 152.46,219.048 152.249,218.914 C152.038,218.78 151.896,218.539 151.821,218.191 L151.821,218.191 Z M156.284,230.829 L154.735,231.161 L152.546,220.935 L154.094,220.603 L156.284,230.829 L156.284,230.829 Z" id="Fill-78" fill="#BBBDBF" sketch:type="MSShapeGroup"></path>
            <path d="M167.201,227.77 L165.166,221.316 C164.91,220.503 164.533,219.955 164.037,219.671 C163.541,219.389 162.897,219.37 162.109,219.619 C161.065,219.947 160.39,220.472 160.083,221.188 C159.774,221.906 159.827,222.914 160.236,224.213 L161.886,229.445 L160.376,229.921 L157.229,219.947 L158.458,219.56 L159.134,220.848 L159.208,220.824 C159.362,220.235 159.675,219.718 160.148,219.272 C160.622,218.825 161.201,218.494 161.886,218.278 C163.088,217.899 164.083,217.903 164.873,218.292 C165.662,218.681 166.258,219.511 166.659,220.785 L168.712,227.292 L167.201,227.77" id="Fill-79" fill="#BBBDBF" sketch:type="MSShapeGroup"></path>
            <path d="M176.127,212.586 L176.55,213.495 L174.887,214.518 C175.142,214.646 175.409,214.842 175.687,215.109 C175.966,215.377 176.2,215.716 176.389,216.126 C176.821,217.056 176.846,217.942 176.468,218.792 C176.091,219.64 175.347,220.32 174.239,220.834 C173.956,220.965 173.68,221.067 173.41,221.135 C172.948,221.741 172.831,222.29 173.058,222.78 C173.178,223.04 173.374,223.183 173.645,223.208 C173.917,223.232 174.312,223.125 174.831,222.885 L176.51,222.106 C177.538,221.629 178.427,221.481 179.18,221.657 C179.931,221.835 180.499,222.337 180.882,223.162 C181.368,224.213 181.318,225.209 180.73,226.15 C180.143,227.092 179.042,227.937 177.425,228.687 C176.184,229.262 175.122,229.475 174.234,229.324 C173.348,229.174 172.71,228.678 172.319,227.835 C172.051,227.258 172.005,226.673 172.178,226.08 C172.352,225.488 172.74,224.961 173.341,224.501 C173.047,224.504 172.764,224.428 172.493,224.274 C172.221,224.118 172.015,223.889 171.873,223.582 C171.713,223.236 171.665,222.889 171.729,222.545 C171.794,222.199 171.968,221.814 172.254,221.386 C171.671,221.411 171.111,221.254 170.578,220.911 C170.044,220.57 169.634,220.088 169.344,219.465 C168.862,218.426 168.803,217.479 169.166,216.627 C169.528,215.776 170.281,215.086 171.424,214.556 C171.921,214.325 172.395,214.177 172.846,214.107 L176.127,212.586 L176.127,212.586 Z M170.749,218.771 C171.055,219.436 171.476,219.851 172.009,220.017 C172.543,220.184 173.143,220.112 173.813,219.801 C175.216,219.151 175.601,218.145 174.969,216.783 C174.309,215.357 173.268,214.974 171.848,215.631 C171.173,215.944 170.738,216.366 170.543,216.899 C170.347,217.432 170.417,218.056 170.749,218.771 L170.749,218.771 Z M173.696,227.175 C173.934,227.69 174.331,227.979 174.887,228.043 C175.443,228.107 176.125,227.954 176.933,227.579 C178.139,227.02 178.949,226.426 179.362,225.796 C179.775,225.166 179.839,224.542 179.552,223.926 C179.314,223.411 178.99,223.129 178.581,223.077 C178.171,223.025 177.528,223.202 176.65,223.608 L174.927,224.408 C174.274,224.709 173.839,225.102 173.62,225.581 C173.401,226.062 173.426,226.593 173.696,227.175 L173.696,227.175 Z" id="Fill-80" fill="#BBBDBF" sketch:type="MSShapeGroup"></path>
        </g>
    </g>
</svg>