<?xml version="1.0" encoding="UTF-8" standalone="no"?>
<svg width="269px" height="273px" viewBox="0 0 269 273" version="1.1" xmlns="http://www.w3.org/2000/svg" xmlns:xlink="http://www.w3.org/1999/xlink" xmlns:sketch="http://www.bohemiancoding.com/sketch/ns">
    <!-- Generator: Sketch 3.3 (11970) - http://www.bohemiancoding.com/sketch -->
    <title>carbMiddle</title>
    <desc>Created with Sketch.</desc>
    <defs></defs>
    <g id="Page-1" stroke="none" stroke-width="1" fill="none" fill-rule="evenodd" sketch:type="MSPage">
        <g id="carbMiddle" sketch:type="MSLayerGroup">
            <path d="M206.472,21.857 C143.784,-17.89 60.743,0.708 20.996,63.396 C-18.751,126.084 -0.154,209.125 62.534,248.873 C125.224,288.62 208.263,270.022 248.01,207.334 C287.758,144.646 269.162,61.605 206.472,21.857" id="Fill-122" fill="#FFFFFF" sketch:type="MSShapeGroup"></path>
            <path d="M20.423,64.298 L83.258,104.139" id="Stroke-123" stroke="#D0D2D3" sketch:type="MSShapeGroup"></path>
            <path id="Stroke-124" stroke="#929497" stroke-width="0.501" sketch:type="MSShapeGroup"></path>
            <path d="M109.000002,187 C99.7810024,182.847 92.354,178.028 86.791,170.293 L21.671,212.882 C31.745,227.88 45.176,241.763 61.412,252.057 C123.729,291.57 206.158,273.426 246.177,211.628 C246.415,211.26 246.653,210.891 246.888,210.519 C246.976,210.382 212.614,188.598 182.315,169.417 C175.929,180.83 147.418002,204.858 110.000002,188" id="Fill-125" fill="#000000" sketch:type="MSShapeGroup"></path>
            <path d="M186.865,107.797 L249.847,68.19" id="Stroke-126" stroke="#D0D2D3" sketch:type="MSShapeGroup"></path>
            <path d="M166.424,83.875 C138.438,66.131 101.367,74.433 83.622,102.419 C65.878,130.405 74.18,167.476 102.166,185.22 C130.153,202.965 167.224,194.663 184.968,166.677 C202.712,138.691 194.41,101.62 166.424,83.875" id="Fill-127" fill="#000000" sketch:type="MSShapeGroup"></path>
            <path d="M94.445,119.029 L101.478,122.485 L101.27,113.876 L94.445,119.029" id="Fill-128" fill="#BBBDBF" sketch:type="MSShapeGroup"></path>
            <path d="M174.091,148.219 L166.825,145.285 L167.658,153.856 L174.091,148.219" id="Fill-129" fill="#BBBDBF" sketch:type="MSShapeGroup"></path>
            <path d="M99.848,116.774 C90.693,134.358 96.381,156.327 113.431,167.137 C126.084,175.16 141.626,174.902 153.704,167.787 M169.139,150.692 C177.127,133.403 171.274,112.448 154.75,101.97 C141.29,93.436 124.561,94.272 112.209,102.766" id="Stroke-130" stroke="#BBBDBF" stroke-width="2" stroke-linecap="round" sketch:type="MSShapeGroup"></path>
            <path d="M245.8,208.442 C239.653,204.403 207.771,184.2 183.835,169.046 C184.354,168.301 184.847,167.559 185.306,166.835 C196.625,148.984 197.75,126.212 188.274,107.293 L250.275,67.63 C275.163,110.943 274.035,163.968 247.296,206.141 C246.804,206.915 246.305,207.682 245.8,208.442" id="Fill-131" fill="#000000" sketch:type="MSShapeGroup"></path>
            <path d="M250.102,68.335 C261.81,88.902 267.864,112.265 267.617,135.969 C267.359,160.704 260.186,184.876 246.873,205.873 C246.489,206.478 246.088,207.099 245.657,207.752 C238.636,203.168 207.925,183.707 184.542,168.902 C184.953,168.301 185.35,167.699 185.728,167.103 C191.51,157.985 194.775,147.493 195.17,136.763 C195.543,126.656 193.384,116.549 188.921,107.472 L250.102,68.335 M250.447,66.927 L187.624,107.115 C196.952,125.393 196.668,147.982 184.883,166.568 C184.317,167.462 183.729,168.334 183.124,169.188 C210.692,186.642 241.197,205.981 245.94,209.135 C246.541,208.235 247.135,207.327 247.718,206.408 C275.486,162.613 274.771,108.888 250.447,66.927" id="Fill-132" fill="#FFFFFF" sketch:type="MSShapeGroup"></path>
            <path d="M187.926,107.149 C183.021,97.753 175.697,89.789 166.717,84.096 C157.005,77.938 145.822,74.683 134.377,74.683 C113.508,74.683 94.386,85.192 83.226,102.794 C83.021,103.115 82.824,103.44 82.63,103.767 L20.766,64.262 C20.79,64.22 20.815,64.178 20.841,64.136 C20.97,63.92 21.1,63.703 21.235,63.489 C45.935,24.531 88.259,1.273 134.448,1.273 C159.777,1.273 184.527,8.477 206.021,22.105 C224.028,33.523 239.187,49.217 249.883,67.516 L187.926,107.149" id="Fill-133" fill="#FFFFFF" sketch:type="MSShapeGroup"></path>
            <path d="M134.441,1.773 L134.448,1.773 C159.685,1.775 184.342,8.951 205.754,22.528 C223.557,33.816 238.566,49.302 249.209,67.354 L188.115,106.435 C183.172,97.17 175.885,89.316 166.985,83.673 C157.193,77.464 145.918,74.183 134.377,74.183 C113.335,74.184 94.055,84.779 82.803,102.526 C82.689,102.706 82.577,102.887 82.466,103.069 L21.444,64.102 C21.514,63.987 21.585,63.872 21.657,63.757 C33.914,44.426 50.981,28.514 71.013,17.74 C90.436,7.294 112.366,1.773 134.441,1.773 M134.448,0.773 C89.945,0.771 46.407,22.855 20.813,63.221 C20.561,63.618 20.331,64.022 20.084,64.421 L82.795,104.465 C83.075,103.996 83.353,103.526 83.648,103.061 C95.072,85.042 114.512,75.184 134.377,75.183 C145.365,75.182 156.482,78.198 166.449,84.518 C175.849,90.477 183.016,98.623 187.734,107.866 L250.557,67.678 C240.064,49.577 225.183,33.662 206.289,21.683 C183.968,7.53 159.058,0.775 134.448,0.773" id="Fill-134" fill="#FFFFFF" sketch:type="MSShapeGroup"></path>
            <path d="M23.635,210.217 C-6.03,166.417 -7.142,109.279 20.794,64.366 L82.552,104.06 C70.2,124.729 71.251,150.574 85.235,170.19 L23.635,210.217" id="Fill-135" fill="#000000" sketch:type="MSShapeGroup"></path>
            <path d="M20.952,65.062 L81.876,104.22 C69.77,124.84 70.804,150.46 84.527,170.054 L23.775,209.53 C-5.416,166.087 -6.521,109.601 20.952,65.062 M20.639,63.672 C-8.607,110.297 -5.74,168.071 23.497,210.903 L85.947,170.324 C72.128,151.287 70.327,125.11 83.231,103.902 L20.639,63.672" id="Fill-136" fill="#FFFFFF" sketch:type="MSShapeGroup"></path>
            <path d="M35.694,171.868 C35.218,170.545 35.301,169.354 35.94,168.297 C36.581,167.24 37.727,166.414 39.382,165.818 C41.035,165.224 42.453,165.13 43.635,165.539 C44.816,165.947 45.644,166.808 46.114,168.118 C46.351,168.773 46.444,169.416 46.398,170.045 C46.351,170.674 46.144,171.264 45.773,171.812 L45.813,171.922 L47.224,171.777 L47.617,172.871 L33.319,178.016 L32.771,176.49 L36.244,175.24 C37.023,174.961 37.73,174.733 38.366,174.561 L38.339,174.486 C37.079,174.138 36.196,173.264 35.694,171.868 L35.694,171.868 Z M37.051,171.629 C37.427,172.67 37.994,173.314 38.757,173.559 C39.521,173.803 40.608,173.67 42.024,173.161 C43.438,172.651 44.367,172.052 44.806,171.36 C45.247,170.67 45.279,169.803 44.903,168.762 C44.565,167.824 43.974,167.25 43.125,167.035 C42.278,166.822 41.213,166.945 39.933,167.406 C38.622,167.878 37.727,168.459 37.249,169.151 C36.772,169.841 36.706,170.668 37.051,171.629 L37.051,171.629 Z" id="Fill-137" fill="#FFFFFF" sketch:type="MSShapeGroup"></path>
            <path d="M42.987,157.207 C43.341,158.748 43.15,160.073 42.415,161.18 C41.683,162.287 40.479,163.032 38.81,163.416 C37.13,163.801 35.699,163.693 34.519,163.093 C33.338,162.492 32.589,161.494 32.268,160.098 C31.968,158.791 32.161,157.658 32.847,156.699 C33.53,155.74 34.577,155.1 35.986,154.775 L36.986,154.546 L38.636,161.733 C39.852,161.42 40.711,160.897 41.211,160.164 C41.712,159.432 41.839,158.532 41.594,157.467 C41.336,156.344 40.847,155.287 40.124,154.297 L41.534,153.973 C41.903,154.477 42.196,154.965 42.416,155.44 C42.636,155.913 42.825,156.502 42.987,157.207 L42.987,157.207 Z M33.596,159.813 C33.788,160.65 34.214,161.256 34.874,161.628 C35.534,162.002 36.356,162.121 37.341,161.989 L36.089,156.535 C35.094,156.764 34.382,157.161 33.953,157.727 C33.526,158.293 33.406,158.988 33.596,159.813 L33.596,159.813 Z" id="Fill-138" fill="#FFFFFF" sketch:type="MSShapeGroup"></path>
            <path d="M29.944,143.559 L30.963,143.443 L31.418,145.387 C31.625,145.181 31.902,144.986 32.251,144.802 C32.601,144.617 33.005,144.5 33.464,144.449 C34.506,144.331 35.378,144.594 36.078,145.234 C36.78,145.876 37.2,146.818 37.341,148.061 C37.376,148.377 37.384,148.678 37.364,148.962 C37.804,149.606 38.298,149.899 38.85,149.836 C39.14,149.803 39.341,149.659 39.453,149.404 C39.565,149.149 39.589,148.731 39.523,148.148 L39.312,146.266 C39.181,145.114 39.323,144.202 39.739,143.529 C40.154,142.857 40.824,142.469 41.75,142.364 C42.927,142.232 43.878,142.602 44.603,143.477 C45.327,144.352 45.791,145.695 45.995,147.507 C46.153,148.898 46.015,149.999 45.582,150.811 C45.149,151.623 44.461,152.082 43.517,152.19 C42.87,152.262 42.286,152.118 41.768,151.758 C41.249,151.397 40.863,150.851 40.609,150.119 C40.518,150.404 40.352,150.654 40.115,150.867 C39.876,151.081 39.586,151.207 39.243,151.246 C38.855,151.289 38.504,151.225 38.19,151.051 C37.875,150.877 37.557,150.581 37.235,150.166 C37.069,150.74 36.735,151.233 36.231,151.641 C35.727,152.047 35.126,152.29 34.427,152.369 C33.263,152.5 32.325,152.252 31.615,151.625 C30.906,150.998 30.479,150.043 30.334,148.762 C30.271,148.206 30.28,147.697 30.359,147.236 L29.944,143.559 L29.944,143.559 Z M34.208,150.781 C34.952,150.697 35.492,150.425 35.825,149.961 C36.16,149.498 36.285,148.891 36.2,148.141 C36.023,146.568 35.17,145.867 33.644,146.04 C32.046,146.221 31.337,147.105 31.517,148.697 C31.601,149.454 31.87,150.014 32.324,150.375 C32.778,150.736 33.405,150.873 34.208,150.781 L34.208,150.781 Z M43.321,150.639 C43.898,150.574 44.308,150.281 44.55,149.764 C44.792,149.244 44.863,148.531 44.762,147.627 C44.608,146.273 44.294,145.297 43.816,144.691 C43.338,144.087 42.753,143.824 42.06,143.902 C41.484,143.967 41.106,144.19 40.923,144.57 C40.739,144.951 40.703,145.634 40.815,146.617 L41.032,148.549 C41.115,149.279 41.354,149.829 41.749,150.197 C42.144,150.566 42.669,150.713 43.321,150.639 L43.321,150.639 Z" id="Fill-139" fill="#FFFFFF" sketch:type="MSShapeGroup"></path>
            <path d="M27.019,140.967 C26.648,140.979 26.375,140.896 26.197,140.719 C26.019,140.541 25.926,140.317 25.917,140.043 C25.909,139.783 25.99,139.556 26.16,139.361 C26.331,139.168 26.599,139.065 26.962,139.055 C27.326,139.043 27.602,139.13 27.785,139.312 C27.972,139.496 28.067,139.719 28.075,139.979 C28.082,140.252 28,140.482 27.827,140.67 C27.653,140.857 27.384,140.957 27.019,140.967 L27.019,140.967 Z M40.565,138.801 L40.612,140.422 L29.915,140.743 L29.866,139.123 L40.565,138.801 L40.565,138.801 Z" id="Fill-140" fill="#FFFFFF" sketch:type="MSShapeGroup"></path>
            <path d="M40.881,128.344 L33.969,127.935 C33.099,127.883 32.438,128.043 31.985,128.414 C31.532,128.785 31.28,129.393 31.231,130.238 C31.165,131.355 31.419,132.192 31.992,132.748 C32.565,133.305 33.548,133.623 34.938,133.705 L40.544,134.037 L40.448,135.656 L29.763,135.023 L29.841,133.707 L31.319,133.53 L31.324,133.452 C30.817,133.09 30.438,132.602 30.184,131.986 C29.93,131.371 29.825,130.696 29.867,129.961 C29.943,128.676 30.312,127.725 30.971,127.111 C31.63,126.498 32.643,126.232 34.007,126.313 L40.977,126.726 L40.881,128.344" id="Fill-141" fill="#FFFFFF" sketch:type="MSShapeGroup"></path>
            <path d="M27.981,121.868 C27.614,121.813 27.358,121.684 27.214,121.477 C27.07,121.271 27.019,121.033 27.06,120.763 C27.099,120.505 27.219,120.296 27.42,120.135 C27.622,119.975 27.903,119.922 28.265,119.975 C28.625,120.029 28.879,120.162 29.029,120.375 C29.178,120.59 29.232,120.824 29.194,121.082 C29.153,121.353 29.032,121.564 28.827,121.719 C28.624,121.872 28.342,121.922 27.981,121.868 L27.981,121.868 Z M41.694,122.143 L41.454,123.746 L30.869,122.162 L31.109,120.559 L41.694,122.143 L41.694,122.143 Z" id="Fill-142" fill="#FFFFFF" sketch:type="MSShapeGroup"></path>
            <path d="M43.871,111.9 L37.143,110.265 C36.296,110.059 35.616,110.098 35.106,110.383 C34.593,110.667 34.237,111.22 34.038,112.042 C33.773,113.131 33.874,114 34.339,114.649 C34.805,115.297 35.715,115.787 37.067,116.115 L42.524,117.442 L42.142,119.017 L31.742,116.489 L32.052,115.207 L33.538,115.297 L33.557,115.222 C33.122,114.776 32.835,114.227 32.695,113.575 C32.556,112.926 32.572,112.242 32.746,111.527 C33.051,110.275 33.582,109.406 34.34,108.92 C35.097,108.434 36.141,108.353 37.47,108.676 L44.255,110.324 L43.871,111.9" id="Fill-143" fill="#FFFFFF" sketch:type="MSShapeGroup"></path>
            <path d="M38.202,95.605 L39.161,95.963 L38.687,97.902 C38.964,97.812 39.3,97.764 39.694,97.758 C40.089,97.754 40.502,97.832 40.935,97.994 C41.917,98.361 42.575,98.99 42.909,99.88 C43.243,100.77 43.191,101.8 42.753,102.971 C42.642,103.27 42.513,103.541 42.364,103.785 C42.464,104.559 42.773,105.043 43.291,105.236 C43.566,105.34 43.81,105.303 44.026,105.126 C44.242,104.95 44.452,104.588 44.657,104.038 L45.322,102.264 C45.729,101.179 46.269,100.432 46.944,100.02 C47.62,99.608 48.394,99.566 49.266,99.893 C50.375,100.309 51.054,101.07 51.303,102.178 C51.552,103.287 51.357,104.694 50.718,106.4 C50.227,107.713 49.604,108.632 48.851,109.159 C48.098,109.688 47.276,109.784 46.384,109.45 C45.775,109.223 45.321,108.83 45.022,108.274 C44.724,107.717 44.626,107.055 44.733,106.287 C44.521,106.5 44.261,106.649 43.952,106.731 C43.644,106.813 43.327,106.794 43.004,106.672 C42.638,106.535 42.354,106.318 42.153,106.021 C41.952,105.723 41.802,105.315 41.703,104.799 C41.296,105.236 40.775,105.524 40.141,105.658 C39.507,105.793 38.86,105.736 38.201,105.489 C37.104,105.079 36.382,104.433 36.033,103.552 C35.685,102.671 35.737,101.627 36.19,100.419 C36.386,99.895 36.624,99.445 36.903,99.07 L38.202,95.605 L38.202,95.605 Z M38.727,103.977 C39.428,104.238 40.033,104.239 40.541,103.978 C41.049,103.717 41.436,103.232 41.7,102.524 C42.255,101.043 41.814,100.033 40.374,99.494 C38.868,98.93 37.834,99.398 37.273,100.897 C37.005,101.611 36.992,102.232 37.231,102.76 C37.473,103.287 37.97,103.693 38.727,103.977 L38.727,103.977 Z M46.915,107.981 C47.457,108.184 47.955,108.109 48.407,107.757 C48.857,107.404 49.243,106.802 49.563,105.948 C50.041,104.674 50.202,103.659 50.052,102.904 C49.899,102.149 49.498,101.648 48.845,101.404 C48.303,101.201 47.863,101.228 47.526,101.484 C47.192,101.741 46.851,102.332 46.503,103.259 L45.821,105.079 C45.564,105.768 45.527,106.367 45.712,106.873 C45.898,107.381 46.299,107.75 46.915,107.981 L46.915,107.981 Z" id="Fill-144" fill="#FFFFFF" sketch:type="MSShapeGroup"></path>
            <path d="M113.532,45.117 L111.55,38.442 C111.308,37.625 110.95,37.065 110.479,36.759 C110.009,36.455 109.404,36.41 108.669,36.629 C107.701,36.917 107.069,37.406 106.773,38.1 C106.476,38.793 106.498,39.717 106.842,40.871 L108.543,46.6 L106.989,47.061 L105.007,40.387 C104.764,39.568 104.406,39.008 103.935,38.703 C103.464,38.398 102.857,38.356 102.115,38.576 C101.142,38.865 100.515,39.369 100.235,40.087 C99.957,40.805 100.015,41.828 100.409,43.157 L102.008,48.539 L100.454,49.002 L97.407,38.742 L98.671,38.366 L99.341,39.695 L99.415,39.674 C99.56,39.087 99.858,38.574 100.309,38.135 C100.759,37.695 101.315,37.377 101.976,37.182 C103.579,36.705 104.8,36.974 105.638,37.988 L105.714,37.966 C105.858,37.338 106.177,36.781 106.665,36.298 C107.152,35.814 107.767,35.461 108.511,35.24 C109.671,34.896 110.628,34.936 111.383,35.359 C112.138,35.784 112.708,36.651 113.099,37.962 L115.087,44.656 L113.532,45.117" id="Fill-145" fill="#000000" sketch:type="MSShapeGroup"></path>
            <path d="M115.661,31 C115.6,30.635 115.644,30.352 115.794,30.15 C115.945,29.95 116.157,29.827 116.426,29.781 C116.683,29.738 116.919,29.787 117.134,29.929 C117.35,30.07 117.487,30.322 117.549,30.681 C117.608,31.04 117.562,31.324 117.404,31.532 C117.249,31.74 117.042,31.865 116.786,31.909 C116.517,31.955 116.276,31.905 116.067,31.759 C115.856,31.612 115.722,31.359 115.661,31 L115.661,31 Z M119.664,44.12 L118.065,44.391 L116.28,33.837 L117.878,33.566 L119.664,44.12 L119.664,44.12 Z" id="Fill-146" fill="#000000" sketch:type="MSShapeGroup"></path>
            <path d="M129.894,41.57 L129.807,41.576 C129.146,42.72 128.073,43.351 126.587,43.468 C125.192,43.578 124.068,43.188 123.218,42.295 C122.366,41.402 121.87,40.077 121.731,38.318 C121.592,36.56 121.872,35.163 122.574,34.127 C123.276,33.092 124.321,32.52 125.71,32.408 C127.156,32.294 128.309,32.732 129.164,33.723 L129.29,33.712 L129.161,32.949 L129.062,32.202 L128.72,27.859 L130.335,27.733 L131.536,42.88 L130.222,42.984 L129.894,41.57 L129.894,41.57 Z M126.685,42.099 C127.788,42.012 128.563,41.647 129.013,41.008 C129.462,40.368 129.632,39.381 129.526,38.043 L129.499,37.702 C129.38,36.189 129.042,35.132 128.487,34.525 C127.934,33.92 127.104,33.66 126.003,33.748 C125.054,33.822 124.358,34.249 123.913,35.025 C123.47,35.803 123.3,36.861 123.407,38.205 C123.515,39.568 123.847,40.577 124.401,41.233 C124.956,41.887 125.718,42.176 126.685,42.099 L126.685,42.099 Z" id="Fill-147" fill="#000000" sketch:type="MSShapeGroup"></path>
            <path d="M141.9,41.738 L141.812,41.734 C141.015,42.785 139.87,43.275 138.381,43.207 C136.982,43.141 135.918,42.611 135.185,41.619 C134.452,40.627 134.127,39.249 134.21,37.487 C134.292,35.725 134.747,34.374 135.573,33.436 C136.399,32.496 137.509,32.06 138.899,32.125 C140.351,32.192 141.438,32.772 142.162,33.861 L142.288,33.867 L142.257,33.093 L142.253,32.34 L142.456,27.989 L144.076,28.065 L143.364,43.244 L142.048,43.182 L141.9,41.738 L141.9,41.738 Z M138.648,41.859 C139.755,41.912 140.57,41.649 141.097,41.07 C141.621,40.492 141.915,39.533 141.977,38.193 L141.995,37.852 C142.065,36.337 141.864,35.244 141.39,34.572 C140.916,33.902 140.128,33.541 139.021,33.488 C138.072,33.444 137.328,33.779 136.79,34.494 C136.251,35.209 135.95,36.24 135.887,37.585 C135.823,38.951 136.024,39.994 136.493,40.713 C136.962,41.432 137.68,41.814 138.648,41.859 L138.648,41.859 Z" id="Fill-148" fill="#000000" sketch:type="MSShapeGroup"></path>
            <path d="M148.085,43.91 L146.479,43.691 L148.544,28.637 L150.149,28.856 L148.085,43.91" id="Fill-149" fill="#000000" sketch:type="MSShapeGroup"></path>
            <path d="M155.571,45.52 C154.028,45.174 152.915,44.431 152.233,43.291 C151.551,42.15 151.398,40.744 151.773,39.074 C152.149,37.391 152.862,36.147 153.915,35.341 C154.966,34.535 156.19,34.289 157.587,34.602 C158.896,34.896 159.835,35.558 160.404,36.59 C160.974,37.621 161.101,38.842 160.784,40.252 L160.56,41.254 L153.366,39.641 C153.122,40.875 153.225,41.875 153.669,42.641 C154.115,43.408 154.871,43.911 155.938,44.151 C157.063,44.402 158.227,44.417 159.432,44.192 L159.116,45.604 C158.503,45.719 157.935,45.774 157.413,45.767 C156.89,45.76 156.276,45.678 155.571,45.52 L155.571,45.52 Z M157.271,35.922 C156.433,35.734 155.703,35.857 155.082,36.293 C154.461,36.728 153.997,37.418 153.692,38.363 L159.153,39.587 C159.376,38.589 159.325,37.776 158.999,37.147 C158.673,36.515 158.098,36.107 157.271,35.922 L157.271,35.922 Z" id="Fill-150" fill="#000000" sketch:type="MSShapeGroup"></path>
            <path d="M226.948,121.49 C226.677,119.932 226.938,118.619 227.731,117.553 C228.524,116.486 229.763,115.807 231.45,115.514 C233.15,115.219 234.573,115.402 235.72,116.066 C236.866,116.729 237.562,117.766 237.807,119.177 C238.036,120.498 237.782,121.619 237.048,122.541 C236.312,123.461 235.233,124.045 233.81,124.293 L232.799,124.468 L231.536,117.205 C230.304,117.451 229.418,117.927 228.88,118.633 C228.342,119.337 228.167,120.229 228.352,121.306 C228.552,122.441 228.983,123.521 229.651,124.55 L228.227,124.797 C227.885,124.275 227.617,123.772 227.425,123.286 C227.231,122.801 227.072,122.203 226.948,121.49 L226.948,121.49 Z M236.466,119.391 C236.319,118.543 235.926,117.916 235.286,117.509 C234.646,117.102 233.833,116.938 232.843,117.017 L233.8,122.529 C234.807,122.355 235.54,121.996 235.997,121.455 C236.454,120.912 236.61,120.224 236.466,119.391 L236.466,119.391 Z" id="Fill-151" fill="#FFFFFF" sketch:type="MSShapeGroup"></path>
            <path d="M228.449,135.005 L235.364,134.647 C236.235,134.602 236.876,134.37 237.284,133.951 C237.692,133.532 237.876,132.9 237.831,132.055 C237.773,130.938 237.429,130.133 236.797,129.645 C236.165,129.156 235.153,128.947 233.763,129.02 L228.155,129.31 L228.071,127.691 L238.761,127.137 L238.827,128.453 L237.379,128.793 L237.383,128.871 C237.927,129.176 238.358,129.619 238.679,130.202 C238.999,130.785 239.179,131.445 239.216,132.18 C239.282,133.466 239.023,134.451 238.436,135.133 C237.849,135.816 236.872,136.193 235.507,136.263 L228.532,136.623 L228.449,135.005" id="Fill-152" fill="#FFFFFF" sketch:type="MSShapeGroup"></path>
            <path d="M229.384,146.897 L229.391,146.809 C228.361,145.98 227.901,144.824 228.013,143.338 C228.117,141.941 228.676,140.891 229.688,140.187 C230.7,139.482 232.086,139.195 233.846,139.326 C235.604,139.457 236.942,139.949 237.858,140.8 C238.773,141.652 239.181,142.773 239.077,144.162 C238.968,145.609 238.36,146.68 237.25,147.375 L237.241,147.501 L238.017,147.49 L238.769,147.508 L243.111,147.83 L242.991,149.447 L227.839,148.318 L227.936,147.004 L229.384,146.897 L229.384,146.897 Z M229.352,143.643 C229.271,144.746 229.511,145.568 230.073,146.111 C230.638,146.651 231.588,146.973 232.926,147.072 L233.267,147.098 C234.779,147.21 235.877,147.039 236.561,146.584 C237.245,146.129 237.626,145.35 237.71,144.246 C237.78,143.298 237.465,142.545 236.766,141.986 C236.066,141.429 235.045,141.1 233.702,141 C232.337,140.899 231.29,141.071 230.558,141.52 C229.825,141.967 229.425,142.676 229.352,143.643 L229.352,143.643 Z" id="Fill-153" fill="#FFFFFF" sketch:type="MSShapeGroup"></path>
            <path d="M109.261,227.321 C108.961,228.248 108.385,228.851 107.532,229.129 C106.68,229.408 105.63,229.347 104.384,228.942 C103.063,228.516 102.102,227.974 101.499,227.317 L101.952,225.919 C102.352,226.316 102.803,226.673 103.306,226.988 C103.808,227.306 104.313,227.547 104.822,227.71 C105.608,227.966 106.255,228.035 106.76,227.922 C107.265,227.807 107.601,227.493 107.767,226.979 C107.893,226.592 107.832,226.206 107.585,225.821 C107.339,225.438 106.788,224.9 105.935,224.209 C105.121,223.564 104.56,223.051 104.253,222.666 C103.946,222.283 103.75,221.897 103.665,221.509 C103.58,221.12 103.611,220.699 103.759,220.244 C104.021,219.435 104.558,218.9 105.37,218.645 C106.181,218.39 107.161,218.447 108.312,218.82 C109.383,219.167 110.36,219.724 111.241,220.49 L110.31,221.543 C109.443,220.809 108.606,220.309 107.794,220.047 C107.08,219.815 106.505,219.753 106.069,219.859 C105.634,219.966 105.352,220.217 105.226,220.609 C105.139,220.876 105.134,221.124 105.209,221.355 C105.284,221.589 105.445,221.838 105.694,222.105 C105.941,222.373 106.443,222.806 107.199,223.405 C108.239,224.217 108.898,224.908 109.171,225.477 C109.444,226.048 109.475,226.662 109.261,227.321" id="Fill-154" fill="#BBBDBF" sketch:type="MSShapeGroup"></path>
            <path d="M113.087,231.162 L111.546,230.798 L114.963,216.348 L116.505,216.712 L113.087,231.162" id="Fill-155" fill="#BBBDBF" sketch:type="MSShapeGroup"></path>
            <path d="M121.509,232.882 C119.977,232.663 118.836,232.025 118.084,230.969 C117.331,229.91 117.073,228.553 117.308,226.897 C117.545,225.228 118.144,223.961 119.106,223.094 C120.067,222.229 121.241,221.895 122.626,222.091 C123.924,222.275 124.89,222.848 125.524,223.808 C126.159,224.771 126.377,225.948 126.179,227.348 L126.038,228.339 L118.905,227.325 C118.764,228.547 118.94,229.513 119.433,230.225 C119.926,230.938 120.702,231.369 121.76,231.52 C122.875,231.678 124.01,231.602 125.165,231.29 L124.968,232.688 C124.379,232.849 123.83,232.946 123.321,232.98 C122.812,233.013 122.208,232.98 121.509,232.882 L121.509,232.882 Z M122.421,223.4 C121.59,223.283 120.889,223.46 120.317,223.932 C119.746,224.403 119.348,225.111 119.124,226.056 L124.537,226.825 C124.678,225.836 124.565,225.048 124.198,224.458 C123.833,223.87 123.24,223.518 122.421,223.4 L122.421,223.4 Z" id="Fill-156" fill="#BBBDBF" sketch:type="MSShapeGroup"></path>
            <path d="M133.528,233.746 C131.983,233.724 130.771,233.232 129.892,232.278 C129.013,231.322 128.587,230.009 128.612,228.336 C128.64,226.65 129.075,225.317 129.921,224.338 C130.766,223.358 131.888,222.879 133.288,222.901 C134.599,222.923 135.628,223.368 136.378,224.243 C137.129,225.117 137.492,226.26 137.47,227.672 L137.454,228.674 L130.25,228.561 C130.263,229.789 130.559,230.727 131.138,231.372 C131.716,232.018 132.539,232.348 133.607,232.364 C134.733,232.382 135.851,232.164 136.958,231.711 L136.937,233.123 C136.372,233.355 135.841,233.52 135.34,233.618 C134.838,233.716 134.235,233.758 133.528,233.746 L133.528,233.746 Z M133.248,224.228 C132.408,224.215 131.735,224.478 131.227,225.017 C130.719,225.556 130.413,226.309 130.309,227.273 L135.776,227.359 C135.792,226.36 135.581,225.592 135.144,225.054 C134.707,224.517 134.075,224.239 133.248,224.228 L133.248,224.228 Z" id="Fill-157" fill="#BBBDBF" sketch:type="MSShapeGroup"></path>
            <path d="M146.075,233.043 C145.399,233.122 144.768,233.069 144.179,232.884 C143.591,232.699 143.077,232.37 142.638,231.895 L142.524,231.908 C142.671,232.507 142.774,233.077 142.838,233.621 L143.334,237.896 L141.761,238.078 L140.015,223.025 L141.294,222.877 L141.677,224.273 L141.753,224.266 C142.091,223.65 142.515,223.185 143.023,222.869 C143.53,222.554 144.132,222.356 144.827,222.275 C146.204,222.115 147.322,222.463 148.181,223.317 C149.038,224.173 149.565,225.449 149.763,227.149 C149.961,228.855 149.734,230.226 149.082,231.259 C148.431,232.291 147.428,232.887 146.075,233.043 L146.075,233.043 Z M144.755,223.639 C143.692,223.761 142.959,224.145 142.554,224.787 C142.148,225.43 142.013,226.393 142.149,227.678 L142.188,228.027 C142.358,229.488 142.724,230.505 143.283,231.076 C143.843,231.649 144.659,231.872 145.733,231.748 C146.63,231.645 147.292,231.199 147.716,230.414 C148.141,229.628 148.278,228.596 148.131,227.32 C147.981,226.024 147.61,225.061 147.023,224.428 C146.433,223.794 145.677,223.531 144.755,223.639 L144.755,223.639 Z" id="Fill-158" fill="#BBBDBF" sketch:type="MSShapeGroup"></path>
            <path d="M150.968,218.605 C150.892,218.25 150.923,217.972 151.062,217.77 C151.201,217.568 151.401,217.439 151.662,217.383 C151.911,217.329 152.144,217.367 152.36,217.496 C152.577,217.626 152.723,217.864 152.797,218.213 C152.871,218.561 152.837,218.842 152.693,219.05 C152.549,219.261 152.353,219.391 152.104,219.444 C151.843,219.501 151.606,219.462 151.396,219.328 C151.185,219.194 151.043,218.953 150.968,218.605 L150.968,218.605 Z M155.431,231.243 L153.882,231.575 L151.692,221.349 L153.241,221.017 L155.431,231.243 L155.431,231.243 Z" id="Fill-159" fill="#BBBDBF" sketch:type="MSShapeGroup"></path>
            <path d="M166.348,228.184 L164.312,221.73 C164.057,220.917 163.68,220.369 163.184,220.085 C162.688,219.803 162.044,219.784 161.256,220.033 C160.212,220.361 159.537,220.886 159.229,221.603 C158.921,222.32 158.974,223.328 159.383,224.627 L161.033,229.86 L159.523,230.335 L156.376,220.361 L157.604,219.974 L158.281,221.262 L158.354,221.238 C158.509,220.65 158.822,220.132 159.295,219.686 C159.769,219.239 160.348,218.908 161.033,218.693 C162.234,218.313 163.229,218.318 164.019,218.706 C164.809,219.095 165.404,219.925 165.806,221.199 L167.858,227.706 L166.348,228.184" id="Fill-160" fill="#BBBDBF" sketch:type="MSShapeGroup"></path>
            <path d="M175.273,213 L175.696,213.909 L174.034,214.932 C174.289,215.06 174.556,215.256 174.834,215.524 C175.112,215.791 175.347,216.13 175.536,216.54 C175.968,217.47 175.993,218.356 175.615,219.206 C175.237,220.054 174.494,220.734 173.386,221.248 C173.102,221.379 172.827,221.481 172.557,221.549 C172.095,222.155 171.977,222.704 172.205,223.194 C172.325,223.454 172.521,223.597 172.792,223.622 C173.063,223.646 173.459,223.539 173.977,223.299 L175.657,222.52 C176.685,222.043 177.574,221.895 178.327,222.071 C179.078,222.249 179.646,222.751 180.028,223.576 C180.515,224.627 180.465,225.623 179.877,226.564 C179.29,227.506 178.188,228.352 176.572,229.101 C175.331,229.676 174.269,229.889 173.381,229.738 C172.495,229.588 171.856,229.092 171.466,228.249 C171.198,227.672 171.151,227.087 171.325,226.494 C171.499,225.902 171.887,225.375 172.487,224.915 C172.193,224.918 171.911,224.842 171.64,224.688 C171.368,224.532 171.162,224.303 171.019,223.996 C170.859,223.65 170.812,223.303 170.876,222.959 C170.94,222.613 171.115,222.228 171.4,221.8 C170.817,221.825 170.258,221.668 169.725,221.325 C169.19,220.984 168.78,220.502 168.491,219.879 C168.009,218.84 167.95,217.894 168.312,217.041 C168.675,216.191 169.428,215.5 170.57,214.97 C171.067,214.739 171.542,214.591 171.993,214.521 L175.273,213 L175.273,213 Z M169.896,219.185 C170.202,219.85 170.623,220.265 171.155,220.431 C171.69,220.598 172.29,220.526 172.96,220.215 C174.362,219.566 174.748,218.559 174.116,217.197 C173.456,215.771 172.415,215.388 170.995,216.045 C170.32,216.358 169.885,216.78 169.69,217.313 C169.494,217.846 169.563,218.47 169.896,219.185 L169.896,219.185 Z M172.843,227.589 C173.081,228.104 173.477,228.393 174.034,228.457 C174.59,228.521 175.271,228.368 176.08,227.993 C177.286,227.434 178.096,226.84 178.509,226.21 C178.922,225.58 178.985,224.956 178.699,224.34 C178.461,223.825 178.137,223.543 177.727,223.491 C177.317,223.44 176.675,223.616 175.797,224.022 L174.074,224.822 C173.421,225.123 172.985,225.516 172.767,225.995 C172.548,226.476 172.573,227.007 172.843,227.589 L172.843,227.589 Z" id="Fill-161" fill="#BBBDBF" sketch:type="MSShapeGroup"></path>
        </g>
    </g>
</svg>