<?xml version="1.0" encoding="UTF-8" standalone="no"?>
<svg width="269px" height="274px" viewBox="0 0 269 274" version="1.1" xmlns="http://www.w3.org/2000/svg" xmlns:xlink="http://www.w3.org/1999/xlink" xmlns:sketch="http://www.bohemiancoding.com/sketch/ns">
    <!-- Generator: Sketch 3.3 (11970) - http://www.bohemiancoding.com/sketch -->
    <title>carbAll</title>
    <desc>Created with Sketch.</desc>
    <defs></defs>
    <g id="Page-1" stroke="none" stroke-width="1" fill="none" fill-rule="evenodd" sketch:type="MSPage">
        <g id="carbAll" sketch:type="MSLayerGroup" transform="translate(0.000000, 0.500000)">
            <path id="Stroke-1" stroke="#D0D2D3" stroke-width="0.474" sketch:type="MSShapeGroup"></path>
            <path d="M20.603,63.884 L83.437,103.724" id="Stroke-2" stroke="#D0D2D3" sketch:type="MSShapeGroup"></path>
            <path id="Stroke-3" stroke="#929497" stroke-width="0.501" sketch:type="MSShapeGroup"></path>
            <path d="M108.568,188.406 C99.349,184.252 92.534,177.614 86.97,169.879 L21.85,212.468 C31.924,227.466 45.355,241.349 61.591,251.643 C123.909,291.156 206.337,273.012 246.356,211.214 C246.595,210.846 246.832,210.477 247.068,210.105 C247.155,209.967 212.793,188.184 182.495,169.002 C176.108,180.416 145.986,205.263 108.568,188.406" id="Fill-4" fill="#000000" sketch:type="MSShapeGroup"></path>
            <path d="M187.044,107.383 L250.026,67.776" id="Stroke-5" stroke="#D0D2D3" sketch:type="MSShapeGroup"></path>
            <path d="M166.603,83.461 C138.617,65.717 101.546,74.019 83.801,102.005 C66.057,129.991 74.359,167.062 102.345,184.806 C130.332,202.551 167.403,194.249 185.147,166.263 C202.891,138.277 194.59,101.205 166.603,83.461" id="Fill-6" fill="#000000" sketch:type="MSShapeGroup"></path>
            <path d="M94.624,118.615 L101.657,122.071 L101.449,113.462 L94.624,118.615" id="Fill-7" fill="#BBBDBF" sketch:type="MSShapeGroup"></path>
            <path d="M174.27,147.805 L167.004,144.87 L167.837,153.442 L174.27,147.805" id="Fill-8" fill="#BBBDBF" sketch:type="MSShapeGroup"></path>
            <path d="M100.027,116.36 C90.872,133.944 96.56,155.913 113.61,166.723 C126.263,174.746 141.805,174.488 153.883,167.373 M169.318,150.278 C177.306,132.989 171.453,112.034 154.929,101.557 C141.469,93.022 124.74,93.858 112.388,102.352" id="Stroke-9" stroke="#BBBDBF" stroke-width="2" stroke-linecap="round" sketch:type="MSShapeGroup"></path>
            <path d="M245.979,208.029 C239.846,203.998 207.957,183.791 184.014,168.632 C184.526,167.896 185.02,167.155 185.485,166.422 C196.804,148.569 197.929,125.797 188.453,106.879 L250.454,67.216 C275.342,110.528 274.214,163.554 247.475,205.727 C246.983,206.501 246.484,207.268 245.979,208.029" id="Fill-10" fill="#FFFFFF" sketch:type="MSShapeGroup"></path>
            <path d="M250.281,67.921 C261.989,88.488 268.043,111.851 267.796,135.555 C267.538,160.29 260.365,184.462 247.052,205.459 C246.669,206.063 246.268,206.684 245.837,207.338 C238.814,202.753 208.103,183.292 184.721,168.488 C185.132,167.887 185.529,167.285 185.907,166.689 C191.689,157.571 194.954,147.079 195.349,136.349 C195.722,126.242 193.563,116.135 189.1,107.058 L250.281,67.921 M250.626,66.513 L187.803,106.701 C197.131,124.979 196.847,147.567 185.062,166.154 C184.496,167.047 183.908,167.92 183.303,168.774 C210.871,186.228 241.377,205.567 246.119,208.721 C246.72,207.821 247.314,206.913 247.897,205.994 C275.665,162.199 274.95,108.474 250.626,66.513" id="Fill-11" fill="#000000" sketch:type="MSShapeGroup"></path>
            <path d="M188.105,106.735 C183.201,97.339 175.876,89.375 166.896,83.682 C157.184,77.523 146.001,74.268 134.556,74.268 C113.687,74.268 94.565,84.777 83.404,102.38 C83.2,102.701 83.004,103.026 82.809,103.353 L20.944,63.849 C20.967,63.811 20.989,63.773 21.012,63.735 C21.144,63.515 21.276,63.294 21.415,63.075 C46.116,24.117 88.438,0.858 134.627,0.858 C159.957,0.858 184.707,8.063 206.201,21.69 C224.209,33.108 239.366,48.804 250.062,67.102 L188.105,106.735" id="Fill-12" fill="#FFFFFF" sketch:type="MSShapeGroup"></path>
            <path d="M134.62,1.359 L134.627,1.359 C159.864,1.36 184.521,8.537 205.933,22.113 C223.736,33.402 238.745,48.888 249.388,66.94 L188.294,106.021 C183.351,96.756 176.064,88.902 167.164,83.259 C157.372,77.05 146.097,73.769 134.556,73.769 C113.514,73.769 94.234,84.365 82.982,102.112 C82.868,102.292 82.756,102.473 82.646,102.655 L21.623,63.688 C21.693,63.573 21.764,63.457 21.837,63.343 C34.093,44.012 51.16,28.1 71.192,17.326 C90.615,6.88 112.546,1.359 134.62,1.359 M134.627,0.359 C90.124,0.357 46.586,22.441 20.992,62.807 C20.741,63.204 20.51,63.608 20.263,64.006 L82.974,104.051 C83.255,103.582 83.532,103.112 83.827,102.647 C95.251,84.628 114.691,74.769 134.556,74.769 C145.544,74.768 156.662,77.784 166.629,84.104 C176.028,90.063 183.195,98.208 187.913,107.452 L250.736,67.264 C240.243,49.163 225.362,33.248 206.469,21.269 C184.147,7.116 159.237,0.36 134.627,0.359" id="Fill-13" fill="#000000" sketch:type="MSShapeGroup"></path>
            <path d="M23.815,209.803 C-5.852,166.003 -6.963,108.865 20.974,63.952 L82.73,103.646 C70.379,124.313 71.43,150.16 85.414,169.775 L23.815,209.803" id="Fill-14" fill="#FFFFFF" sketch:type="MSShapeGroup"></path>
            <path d="M21.131,64.648 L82.055,103.806 C69.949,124.426 70.983,150.046 84.706,169.64 L23.954,209.116 C-5.237,165.673 -6.342,109.186 21.131,64.648 M20.818,63.258 C-8.428,109.882 -5.56,167.657 23.676,210.489 L86.126,169.909 C72.307,150.873 70.506,124.696 83.41,103.488 L20.818,63.258" id="Fill-15" fill="#000000" sketch:type="MSShapeGroup"></path>
            <path d="M35.873,171.454 C35.397,170.131 35.48,168.94 36.12,167.883 C36.76,166.826 37.907,166 39.561,165.404 C41.214,164.81 42.632,164.716 43.814,165.125 C44.996,165.533 45.823,166.394 46.294,167.704 C46.53,168.359 46.624,169.002 46.578,169.631 C46.53,170.26 46.323,170.85 45.952,171.397 L45.992,171.508 L47.403,171.363 L47.796,172.457 L33.499,177.602 L32.95,176.076 L36.423,174.826 C37.202,174.547 37.909,174.319 38.545,174.146 L38.518,174.072 C37.258,173.724 36.376,172.85 35.873,171.454 L35.873,171.454 Z M37.23,171.215 C37.606,172.256 38.173,172.899 38.936,173.145 C39.7,173.389 40.788,173.256 42.204,172.747 C43.618,172.237 44.546,171.638 44.985,170.946 C45.426,170.256 45.459,169.389 45.083,168.348 C44.745,167.41 44.153,166.836 43.304,166.621 C42.458,166.408 41.392,166.531 40.112,166.992 C38.801,167.464 37.907,168.045 37.428,168.736 C36.951,169.427 36.885,170.254 37.23,171.215 L37.23,171.215 Z" id="Fill-16" fill="#000000" sketch:type="MSShapeGroup"></path>
            <path d="M43.166,156.793 C43.52,158.334 43.33,159.659 42.594,160.766 C41.862,161.873 40.659,162.618 38.989,163.002 C37.309,163.387 35.878,163.279 34.698,162.679 C33.517,162.078 32.768,161.08 32.447,159.684 C32.147,158.377 32.34,157.244 33.026,156.285 C33.71,155.326 34.756,154.686 36.165,154.361 L37.165,154.132 L38.815,161.318 C40.032,161.006 40.89,160.482 41.39,159.75 C41.891,159.018 42.018,158.118 41.773,157.053 C41.515,155.93 41.026,154.873 40.303,153.883 L41.713,153.559 C42.083,154.062 42.376,154.551 42.595,155.025 C42.815,155.499 43.004,156.088 43.166,156.793 L43.166,156.793 Z M33.775,159.398 C33.967,160.236 34.393,160.842 35.053,161.214 C35.713,161.588 36.536,161.707 37.52,161.575 L36.268,156.121 C35.273,156.35 34.561,156.747 34.132,157.312 C33.706,157.879 33.585,158.574 33.775,159.398 L33.775,159.398 Z" id="Fill-17" fill="#000000" sketch:type="MSShapeGroup"></path>
            <path d="M30.124,143.145 L31.142,143.029 L31.597,144.973 C31.804,144.767 32.081,144.571 32.43,144.388 C32.78,144.203 33.184,144.086 33.643,144.035 C34.685,143.917 35.557,144.18 36.257,144.82 C36.96,145.462 37.379,146.404 37.52,147.646 C37.555,147.963 37.563,148.264 37.544,148.548 C37.983,149.192 38.477,149.484 39.029,149.422 C39.319,149.389 39.52,149.245 39.632,148.99 C39.745,148.735 39.768,148.316 39.703,147.734 L39.491,145.852 C39.36,144.7 39.502,143.788 39.919,143.115 C40.334,142.443 41.003,142.055 41.929,141.95 C43.106,141.817 44.057,142.188 44.782,143.062 C45.506,143.937 45.97,145.281 46.174,147.093 C46.332,148.484 46.194,149.585 45.761,150.397 C45.329,151.209 44.64,151.668 43.696,151.775 C43.049,151.848 42.465,151.704 41.947,151.344 C41.428,150.982 41.043,150.437 40.789,149.705 C40.697,149.99 40.532,150.24 40.294,150.453 C40.055,150.667 39.765,150.793 39.422,150.832 C39.034,150.875 38.683,150.81 38.369,150.637 C38.054,150.463 37.736,150.167 37.415,149.752 C37.249,150.326 36.915,150.818 36.411,151.226 C35.906,151.633 35.305,151.876 34.606,151.955 C33.442,152.086 32.504,151.838 31.794,151.211 C31.085,150.584 30.659,149.629 30.513,148.348 C30.451,147.792 30.46,147.283 30.539,146.822 L30.124,143.145 L30.124,143.145 Z M34.387,150.367 C35.131,150.283 35.671,150.011 36.004,149.547 C36.339,149.084 36.464,148.477 36.379,147.727 C36.202,146.153 35.349,145.453 33.824,145.626 C32.225,145.807 31.516,146.691 31.696,148.283 C31.78,149.04 32.049,149.6 32.503,149.961 C32.957,150.322 33.585,150.459 34.387,150.367 L34.387,150.367 Z M43.501,150.225 C44.078,150.16 44.487,149.867 44.729,149.35 C44.971,148.83 45.043,148.117 44.941,147.213 C44.788,145.859 44.473,144.883 43.996,144.277 C43.517,143.673 42.932,143.41 42.24,143.487 C41.664,143.553 41.285,143.775 41.102,144.156 C40.919,144.537 40.882,145.22 40.994,146.203 L41.211,148.135 C41.294,148.865 41.533,149.415 41.928,149.783 C42.323,150.151 42.848,150.299 43.501,150.225 L43.501,150.225 Z" id="Fill-18" fill="#000000" sketch:type="MSShapeGroup"></path>
            <path d="M27.199,140.553 C26.828,140.565 26.554,140.482 26.377,140.305 C26.198,140.127 26.105,139.902 26.096,139.629 C26.088,139.369 26.169,139.142 26.339,138.947 C26.51,138.754 26.778,138.651 27.141,138.641 C27.505,138.629 27.781,138.716 27.964,138.898 C28.151,139.082 28.247,139.305 28.254,139.564 C28.261,139.838 28.179,140.067 28.006,140.256 C27.832,140.443 27.563,140.543 27.199,140.553 L27.199,140.553 Z M40.744,138.387 L40.791,140.008 L30.094,140.329 L30.045,138.709 L40.744,138.387 L40.744,138.387 Z" id="Fill-19" fill="#000000" sketch:type="MSShapeGroup"></path>
            <path d="M41.06,127.93 L34.148,127.521 C33.278,127.469 32.617,127.629 32.165,128 C31.711,128.371 31.46,128.978 31.411,129.824 C31.344,130.941 31.598,131.778 32.171,132.334 C32.745,132.891 33.727,133.209 35.118,133.291 L40.723,133.623 L40.627,135.242 L29.942,134.609 L30.02,133.293 L31.498,133.116 L31.503,133.038 C30.997,132.676 30.617,132.187 30.363,131.572 C30.109,130.957 30.004,130.282 30.046,129.547 C30.123,128.262 30.491,127.311 31.15,126.697 C31.809,126.084 32.822,125.818 34.186,125.898 L41.156,126.311 L41.06,127.93" id="Fill-20" fill="#000000" sketch:type="MSShapeGroup"></path>
            <path d="M28.161,121.454 C27.793,121.398 27.538,121.27 27.393,121.062 C27.249,120.857 27.198,120.619 27.239,120.349 C27.278,120.091 27.398,119.882 27.599,119.721 C27.801,119.561 28.083,119.508 28.444,119.561 C28.804,119.615 29.058,119.748 29.209,119.961 C29.357,120.176 29.412,120.41 29.374,120.668 C29.332,120.938 29.211,121.15 29.006,121.305 C28.803,121.458 28.521,121.508 28.161,121.454 L28.161,121.454 Z M41.873,121.729 L41.633,123.332 L31.048,121.748 L31.289,120.145 L41.873,121.729 L41.873,121.729 Z" id="Fill-21" fill="#000000" sketch:type="MSShapeGroup"></path>
            <path d="M44.05,111.485 L37.322,109.851 C36.475,109.645 35.795,109.684 35.285,109.969 C34.772,110.253 34.416,110.806 34.217,111.628 C33.953,112.717 34.053,113.586 34.518,114.234 C34.984,114.883 35.894,115.373 37.247,115.701 L42.704,117.027 L42.321,118.603 L31.921,116.075 L32.231,114.793 L33.717,114.883 L33.736,114.808 C33.301,114.361 33.014,113.812 32.874,113.161 C32.735,112.512 32.752,111.828 32.925,111.113 C33.23,109.86 33.761,108.992 34.519,108.506 C35.276,108.019 36.32,107.939 37.649,108.262 L44.434,109.91 L44.05,111.485" id="Fill-22" fill="#000000" sketch:type="MSShapeGroup"></path>
            <path d="M38.381,95.19 L39.34,95.549 L38.866,97.488 C39.143,97.398 39.479,97.35 39.874,97.344 C40.268,97.34 40.681,97.418 41.114,97.58 C42.096,97.947 42.754,98.576 43.088,99.466 C43.422,100.355 43.371,101.386 42.932,102.557 C42.821,102.855 42.692,103.127 42.544,103.371 C42.643,104.145 42.953,104.629 43.47,104.822 C43.746,104.926 43.99,104.889 44.206,104.712 C44.421,104.536 44.631,104.174 44.836,103.624 L45.502,101.85 C45.908,100.765 46.449,100.018 47.123,99.605 C47.799,99.194 48.573,99.152 49.445,99.479 C50.554,99.895 51.233,100.656 51.482,101.764 C51.731,102.873 51.537,104.28 50.897,105.986 C50.407,107.299 49.784,108.218 49.03,108.745 C48.277,109.273 47.456,109.37 46.563,109.036 C45.955,108.809 45.501,108.416 45.201,107.859 C44.903,107.303 44.805,106.641 44.913,105.873 C44.701,106.086 44.44,106.234 44.131,106.316 C43.823,106.398 43.506,106.38 43.183,106.258 C42.817,106.121 42.534,105.904 42.332,105.607 C42.131,105.309 41.981,104.901 41.882,104.385 C41.475,104.822 40.955,105.109 40.32,105.244 C39.686,105.379 39.04,105.322 38.38,105.075 C37.284,104.665 36.561,104.019 36.212,103.138 C35.865,102.257 35.916,101.213 36.37,100.005 C36.565,99.48 36.803,99.031 37.082,98.656 L38.381,95.19 L38.381,95.19 Z M38.906,103.563 C39.607,103.824 40.212,103.825 40.72,103.564 C41.228,103.303 41.615,102.817 41.879,102.109 C42.434,100.629 41.993,99.619 40.553,99.08 C39.047,98.516 38.013,98.984 37.453,100.483 C37.184,101.197 37.171,101.818 37.411,102.346 C37.652,102.873 38.149,103.279 38.906,103.563 L38.906,103.563 Z M47.094,107.566 C47.636,107.77 48.134,107.695 48.586,107.343 C49.037,106.99 49.422,106.388 49.743,105.534 C50.22,104.26 50.381,103.245 50.231,102.489 C50.079,101.734 49.677,101.234 49.024,100.99 C48.482,100.787 48.043,100.814 47.706,101.07 C47.372,101.327 47.03,101.918 46.682,102.845 L46.001,104.665 C45.743,105.353 45.707,105.953 45.891,106.459 C46.077,106.967 46.478,107.336 47.094,107.566 L47.094,107.566 Z" id="Fill-23" fill="#000000" sketch:type="MSShapeGroup"></path>
            <path d="M113.711,44.703 L111.729,38.028 C111.487,37.211 111.129,36.65 110.659,36.345 C110.188,36.041 109.583,35.996 108.848,36.215 C107.88,36.503 107.249,36.992 106.952,37.685 C106.655,38.379 106.677,39.303 107.021,40.457 L108.722,46.186 L107.169,46.646 L105.186,39.973 C104.943,39.154 104.585,38.594 104.114,38.289 C103.643,37.983 103.037,37.941 102.294,38.162 C101.321,38.451 100.694,38.955 100.415,39.673 C100.136,40.391 100.194,41.414 100.588,42.743 L102.187,48.125 L100.633,48.588 L97.586,38.328 L98.85,37.952 L99.52,39.281 L99.594,39.26 C99.739,38.673 100.038,38.16 100.488,37.721 C100.938,37.281 101.494,36.963 102.155,36.768 C103.758,36.291 104.979,36.56 105.817,37.574 L105.893,37.552 C106.038,36.924 106.356,36.367 106.844,35.884 C107.332,35.399 107.946,35.047 108.69,34.826 C109.85,34.481 110.807,34.521 111.562,34.945 C112.317,35.37 112.887,36.237 113.278,37.548 L115.266,44.242 L113.711,44.703" id="Fill-24" fill="#000000" sketch:type="MSShapeGroup"></path>
            <path d="M115.84,30.586 C115.779,30.221 115.823,29.938 115.973,29.736 C116.124,29.536 116.336,29.413 116.605,29.367 C116.862,29.324 117.098,29.373 117.313,29.515 C117.529,29.656 117.667,29.908 117.728,30.267 C117.788,30.626 117.741,30.91 117.583,31.118 C117.428,31.326 117.221,31.451 116.965,31.495 C116.696,31.541 116.456,31.491 116.247,31.345 C116.036,31.198 115.901,30.945 115.84,30.586 L115.84,30.586 Z M119.843,43.706 L118.245,43.977 L116.46,33.423 L118.057,33.152 L119.843,43.706 L119.843,43.706 Z" id="Fill-25" fill="#000000" sketch:type="MSShapeGroup"></path>
            <path d="M130.074,41.156 L129.986,41.162 C129.326,42.306 128.252,42.937 126.766,43.054 C125.372,43.164 124.248,42.773 123.397,41.881 C122.545,40.988 122.049,39.663 121.911,37.904 C121.771,36.146 122.051,34.749 122.753,33.713 C123.456,32.678 124.501,32.105 125.889,31.994 C127.335,31.88 128.488,32.318 129.343,33.309 L129.469,33.298 L129.34,32.535 L129.242,31.788 L128.899,27.445 L130.514,27.318 L131.715,42.466 L130.401,42.57 L130.074,41.156 L130.074,41.156 Z M126.864,41.685 C127.967,41.598 128.743,41.233 129.192,40.594 C129.641,39.954 129.811,38.967 129.706,37.629 L129.678,37.288 C129.559,35.775 129.221,34.718 128.667,34.111 C128.113,33.506 127.284,33.246 126.182,33.334 C125.233,33.408 124.538,33.835 124.092,34.611 C123.649,35.389 123.479,36.447 123.586,37.791 C123.694,39.154 124.026,40.163 124.581,40.818 C125.135,41.473 125.897,41.762 126.864,41.685 L126.864,41.685 Z" id="Fill-26" fill="#000000" sketch:type="MSShapeGroup"></path>
            <path d="M142.08,41.324 L141.991,41.32 C141.194,42.371 140.049,42.861 138.56,42.793 C137.162,42.727 136.097,42.197 135.364,41.205 C134.631,40.213 134.306,38.835 134.389,37.073 C134.471,35.311 134.926,33.96 135.752,33.021 C136.579,32.082 137.688,31.646 139.079,31.711 C140.53,31.778 141.617,32.357 142.341,33.447 L142.467,33.453 L142.436,32.679 L142.432,31.926 L142.635,27.575 L144.255,27.651 L143.544,42.83 L142.227,42.768 L142.08,41.324 L142.08,41.324 Z M138.828,41.445 C139.934,41.498 140.749,41.234 141.276,40.656 C141.8,40.078 142.094,39.119 142.157,37.779 L142.174,37.438 C142.245,35.923 142.044,34.83 141.569,34.158 C141.095,33.488 140.307,33.127 139.2,33.074 C138.252,33.03 137.507,33.365 136.969,34.08 C136.43,34.795 136.129,35.826 136.066,37.171 C136.002,38.537 136.204,39.58 136.672,40.299 C137.141,41.018 137.859,41.4 138.828,41.445 L138.828,41.445 Z" id="Fill-27" fill="#000000" sketch:type="MSShapeGroup"></path>
            <path d="M148.264,43.496 L146.659,43.277 L148.723,28.223 L150.329,28.442 L148.264,43.496" id="Fill-28" fill="#000000" sketch:type="MSShapeGroup"></path>
            <path d="M155.751,45.105 C154.208,44.76 153.094,44.017 152.413,42.877 C151.73,41.736 151.577,40.33 151.952,38.66 C152.329,36.977 153.042,35.732 154.094,34.927 C155.145,34.121 156.369,33.875 157.766,34.187 C159.075,34.481 160.014,35.144 160.583,36.176 C161.153,37.207 161.28,38.428 160.963,39.838 L160.74,40.84 L153.545,39.227 C153.301,40.461 153.404,41.461 153.848,42.227 C154.294,42.994 155.05,43.497 156.118,43.736 C157.243,43.988 158.407,44.003 159.611,43.778 L159.295,45.189 C158.682,45.305 158.114,45.359 157.592,45.352 C157.069,45.346 156.456,45.264 155.751,45.105 L155.751,45.105 Z M157.451,35.508 C156.612,35.32 155.882,35.443 155.261,35.879 C154.64,36.313 154.176,37.004 153.872,37.949 L159.333,39.173 C159.555,38.175 159.504,37.361 159.178,36.732 C158.852,36.101 158.277,35.693 157.451,35.508 L157.451,35.508 Z" id="Fill-29" fill="#000000" sketch:type="MSShapeGroup"></path>
            <path d="M227.127,121.076 C226.856,119.518 227.118,118.205 227.91,117.139 C228.704,116.072 229.942,115.393 231.629,115.1 C233.33,114.805 234.752,114.988 235.899,115.652 C237.045,116.314 237.74,117.352 237.986,118.763 C238.215,120.084 237.961,121.205 237.227,122.127 C236.49,123.047 235.413,123.631 233.989,123.879 L232.978,124.054 L231.715,116.791 C230.483,117.037 229.597,117.513 229.059,118.219 C228.521,118.923 228.346,119.814 228.532,120.892 C228.731,122.027 229.163,123.107 229.831,124.136 L228.406,124.383 C228.064,123.861 227.796,123.357 227.604,122.872 C227.41,122.387 227.251,121.789 227.127,121.076 L227.127,121.076 Z M236.645,118.976 C236.498,118.129 236.105,117.502 235.465,117.095 C234.826,116.688 234.012,116.523 233.022,116.602 L233.979,122.115 C234.986,121.941 235.719,121.582 236.176,121.041 C236.633,120.498 236.789,119.81 236.645,118.976 L236.645,118.976 Z" id="Fill-30" fill="#000000" sketch:type="MSShapeGroup"></path>
            <path d="M228.628,134.591 L235.544,134.232 C236.414,134.187 237.055,133.956 237.463,133.537 C237.871,133.118 238.055,132.486 238.01,131.641 C237.953,130.523 237.607,129.719 236.977,129.23 C236.344,128.742 235.333,128.533 233.942,128.606 L228.335,128.895 L228.25,127.276 L238.94,126.723 L239.006,128.039 L237.559,128.379 L237.562,128.457 C238.106,128.762 238.537,129.205 238.857,129.788 C239.178,130.371 239.357,131.03 239.395,131.766 C239.461,133.052 239.201,134.037 238.615,134.719 C238.027,135.401 237.051,135.778 235.686,135.849 L228.711,136.209 L228.628,134.591" id="Fill-31" fill="#000000" sketch:type="MSShapeGroup"></path>
            <path d="M229.563,146.482 L229.57,146.395 C228.54,145.566 228.081,144.41 228.192,142.924 C228.296,141.527 228.855,140.477 229.867,139.773 C230.879,139.068 232.265,138.781 234.025,138.912 C235.784,139.043 237.121,139.535 238.037,140.386 C238.953,141.238 239.359,142.358 239.256,143.748 C239.147,145.195 238.539,146.266 237.43,146.961 L237.42,147.087 L238.195,147.076 L238.947,147.094 L243.291,147.416 L243.17,149.033 L228.018,147.904 L228.115,146.59 L229.563,146.482 L229.563,146.482 Z M229.532,143.228 C229.45,144.332 229.69,145.154 230.252,145.696 C230.817,146.237 231.767,146.559 233.105,146.658 L233.446,146.684 C234.958,146.796 236.057,146.625 236.74,146.17 C237.424,145.715 237.805,144.936 237.889,143.832 C237.959,142.884 237.645,142.131 236.945,141.572 C236.246,141.015 235.224,140.685 233.881,140.586 C232.516,140.484 231.469,140.657 230.737,141.105 C230.004,141.553 229.604,142.262 229.532,143.228 L229.532,143.228 Z" id="Fill-32" fill="#000000" sketch:type="MSShapeGroup"></path>
            <path d="M109.44,226.907 C109.14,227.834 108.564,228.436 107.711,228.715 C106.858,228.994 105.809,228.933 104.563,228.528 C103.242,228.101 102.281,227.56 101.678,226.902 L102.131,225.505 C102.53,225.902 102.981,226.259 103.484,226.574 C103.986,226.892 104.492,227.133 105.001,227.296 C105.787,227.552 106.434,227.621 106.939,227.508 C107.443,227.392 107.779,227.079 107.945,226.564 C108.071,226.178 108.011,225.792 107.764,225.407 C107.518,225.023 106.967,224.486 106.114,223.795 C105.3,223.15 104.738,222.637 104.432,222.252 C104.125,221.869 103.929,221.482 103.844,221.095 C103.759,220.706 103.79,220.285 103.938,219.83 C104.2,219.02 104.736,218.486 105.549,218.231 C106.359,217.976 107.34,218.033 108.49,218.406 C109.561,218.753 110.539,219.31 111.42,220.076 L110.488,221.129 C109.622,220.395 108.784,219.895 107.973,219.633 C107.259,219.401 106.684,219.339 106.248,219.445 C105.813,219.552 105.531,219.803 105.404,220.195 C105.317,220.462 105.313,220.71 105.388,220.941 C105.463,221.175 105.624,221.424 105.873,221.69 C106.12,221.959 106.622,222.392 107.378,222.991 C108.418,223.803 109.076,224.494 109.35,225.063 C109.623,225.634 109.653,226.248 109.44,226.907" id="Fill-33" fill="#BBBDBF" sketch:type="MSShapeGroup"></path>
            <path d="M113.266,230.748 L111.725,230.384 L115.142,215.934 L116.684,216.298 L113.266,230.748" id="Fill-34" fill="#BBBDBF" sketch:type="MSShapeGroup"></path>
            <path d="M121.687,232.468 C120.156,232.249 119.015,231.611 118.263,230.555 C117.51,229.496 117.252,228.139 117.486,226.482 C117.724,224.813 118.323,223.547 119.284,222.68 C120.246,221.814 121.42,221.48 122.805,221.677 C124.102,221.861 125.068,222.434 125.703,223.394 C126.338,224.356 126.556,225.534 126.357,226.934 L126.217,227.925 L119.084,226.911 C118.942,228.133 119.118,229.099 119.611,229.811 C120.105,230.524 120.881,230.955 121.939,231.105 C123.054,231.264 124.189,231.187 125.344,230.876 L125.146,232.274 C124.558,232.435 124.009,232.532 123.5,232.565 C122.99,232.599 122.387,232.565 121.687,232.468 L121.687,232.468 Z M122.6,222.986 C121.769,222.869 121.067,223.046 120.496,223.518 C119.925,223.989 119.526,224.697 119.303,225.641 L124.716,226.411 C124.856,225.422 124.743,224.634 124.377,224.044 C124.012,223.456 123.419,223.103 122.6,222.986 L122.6,222.986 Z" id="Fill-35" fill="#BBBDBF" sketch:type="MSShapeGroup"></path>
            <path d="M133.707,233.332 C132.162,233.31 130.949,232.818 130.07,231.864 C129.191,230.908 128.766,229.595 128.791,227.922 C128.818,226.236 129.254,224.903 130.1,223.924 C130.944,222.944 132.066,222.465 133.467,222.487 C134.777,222.509 135.807,222.954 136.557,223.829 C137.308,224.703 137.671,225.846 137.648,227.258 L137.633,228.26 L130.429,228.146 C130.441,229.375 130.737,230.313 131.316,230.958 C131.895,231.604 132.718,231.934 133.786,231.95 C134.912,231.968 136.029,231.75 137.137,231.297 L137.115,232.709 C136.551,232.941 136.02,233.106 135.519,233.204 C135.017,233.302 134.414,233.344 133.707,233.332 L133.707,233.332 Z M133.427,223.813 C132.587,223.801 131.914,224.063 131.405,224.602 C130.898,225.142 130.592,225.895 130.487,226.859 L135.955,226.945 C135.971,225.946 135.76,225.178 135.322,224.64 C134.886,224.103 134.254,223.825 133.427,223.813 L133.427,223.813 Z" id="Fill-36" fill="#BBBDBF" sketch:type="MSShapeGroup"></path>
            <path d="M146.254,232.629 C145.578,232.708 144.946,232.655 144.357,232.47 C143.77,232.285 143.256,231.956 142.816,231.48 L142.703,231.494 C142.85,232.093 142.953,232.663 143.017,233.207 L143.513,237.481 L141.939,237.664 L140.193,222.611 L141.473,222.463 L141.855,223.859 L141.932,223.852 C142.27,223.235 142.693,222.77 143.201,222.455 C143.709,222.14 144.311,221.942 145.006,221.861 C146.383,221.701 147.501,222.049 148.359,222.903 C149.217,223.759 149.744,225.035 149.941,226.735 C150.14,228.441 149.913,229.811 149.261,230.845 C148.609,231.877 147.606,232.473 146.254,232.629 L146.254,232.629 Z M144.934,223.225 C143.871,223.347 143.138,223.73 142.732,224.373 C142.326,225.016 142.191,225.979 142.328,227.264 L142.367,227.613 C142.537,229.074 142.902,230.091 143.462,230.662 C144.022,231.234 144.838,231.458 145.912,231.334 C146.809,231.23 147.471,230.785 147.895,230 C148.319,229.214 148.457,228.182 148.31,226.906 C148.159,225.61 147.789,224.647 147.201,224.014 C146.611,223.38 145.856,223.117 144.934,223.225 L144.934,223.225 Z" id="Fill-37" fill="#BBBDBF" sketch:type="MSShapeGroup"></path>
            <path d="M151.147,218.19 C151.07,217.836 151.102,217.558 151.241,217.355 C151.38,217.153 151.58,217.024 151.841,216.969 C152.09,216.915 152.322,216.953 152.539,217.082 C152.756,217.212 152.901,217.45 152.976,217.799 C153.05,218.147 153.016,218.428 152.872,218.636 C152.728,218.847 152.531,218.977 152.283,219.03 C152.021,219.087 151.785,219.048 151.574,218.914 C151.363,218.78 151.222,218.539 151.147,218.19 L151.147,218.19 Z M155.609,230.829 L154.061,231.161 L151.871,220.935 L153.42,220.602 L155.609,230.829 L155.609,230.829 Z" id="Fill-38" fill="#BBBDBF" sketch:type="MSShapeGroup"></path>
            <path d="M166.526,227.77 L164.491,221.316 C164.235,220.503 163.858,219.955 163.362,219.671 C162.866,219.389 162.223,219.37 161.435,219.619 C160.391,219.947 159.716,220.472 159.408,221.188 C159.1,221.906 159.152,222.914 159.561,224.213 L161.212,229.445 L159.701,229.921 L156.555,219.947 L157.783,219.559 L158.46,220.848 L158.533,220.824 C158.688,220.235 159.001,219.718 159.474,219.272 C159.947,218.825 160.526,218.494 161.212,218.278 C162.413,217.898 163.408,217.903 164.198,218.292 C164.987,218.681 165.583,219.511 165.984,220.785 L168.037,227.292 L166.526,227.77" id="Fill-39" fill="#BBBDBF" sketch:type="MSShapeGroup"></path>
            <path d="M175.452,212.586 L175.875,213.495 L174.213,214.518 C174.468,214.646 174.734,214.842 175.013,215.109 C175.291,215.377 175.525,215.716 175.715,216.126 C176.146,217.056 176.172,217.942 175.794,218.792 C175.416,219.64 174.673,220.32 173.565,220.834 C173.281,220.965 173.006,221.066 172.735,221.135 C172.273,221.741 172.156,222.29 172.384,222.78 C172.504,223.04 172.699,223.183 172.971,223.208 C173.242,223.232 173.638,223.125 174.156,222.885 L175.836,222.105 C176.863,221.629 177.753,221.481 178.506,221.657 C179.257,221.835 179.824,222.337 180.207,223.162 C180.693,224.213 180.644,225.209 180.056,226.15 C179.469,227.092 178.367,227.937 176.751,228.686 C175.51,229.262 174.447,229.475 173.56,229.324 C172.674,229.174 172.035,228.678 171.645,227.835 C171.377,227.258 171.33,226.673 171.504,226.08 C171.678,225.488 172.065,224.961 172.666,224.501 C172.372,224.504 172.09,224.428 171.818,224.273 C171.547,224.118 171.341,223.889 171.198,223.582 C171.038,223.236 170.99,222.889 171.055,222.545 C171.119,222.199 171.294,221.813 171.579,221.386 C170.996,221.411 170.436,221.254 169.903,220.911 C169.369,220.57 168.959,220.088 168.67,219.465 C168.188,218.426 168.129,217.479 168.491,216.627 C168.854,215.776 169.606,215.086 170.749,214.556 C171.246,214.325 171.721,214.177 172.172,214.106 L175.452,212.586 L175.452,212.586 Z M170.074,218.771 C170.381,219.435 170.802,219.851 171.334,220.016 C171.868,220.184 172.469,220.112 173.139,219.801 C174.541,219.151 174.927,218.145 174.295,216.783 C173.635,215.357 172.594,214.974 171.174,215.631 C170.499,215.944 170.064,216.366 169.868,216.899 C169.673,217.432 169.742,218.056 170.074,218.771 L170.074,218.771 Z M173.021,227.175 C173.26,227.689 173.656,227.978 174.213,228.043 C174.769,228.107 175.45,227.954 176.259,227.579 C177.465,227.02 178.274,226.426 178.688,225.796 C179.101,225.166 179.164,224.542 178.878,223.926 C178.64,223.411 178.315,223.129 177.906,223.077 C177.496,223.025 176.854,223.202 175.976,223.608 L174.253,224.408 C173.6,224.709 173.164,225.101 172.945,225.581 C172.727,226.061 172.752,226.593 173.021,227.175 L173.021,227.175 Z" id="Fill-40" fill="#BBBDBF" sketch:type="MSShapeGroup"></path>
        </g>
    </g>
</svg>