<?xml version="1.0" encoding="UTF-8" standalone="no"?>
<svg width="241px" height="109px" viewBox="0 0 241 109" version="1.1" xmlns="http://www.w3.org/2000/svg" xmlns:xlink="http://www.w3.org/1999/xlink" xmlns:sketch="http://www.bohemiancoding.com/sketch/ns">
    <!-- Generator: Sketch 3.3 (11970) - http://www.bohemiancoding.com/sketch -->
    <title>carbMiddleSelected</title>
    <desc>Created with Sketch.</desc>
    <defs></defs>
    <g id="Page-1" stroke="none" stroke-width="1" fill="none" fill-rule="evenodd" sketch:type="MSPage">
        <g id="carbMiddleSelected" sketch:type="MSLayerGroup">
            <path d="M0.913758621,64.479 L66.4571638,104.32" id="Stroke-1" stroke="#D0D2D3" sketch:type="MSShapeGroup"></path>
            <path id="Stroke-2" stroke="#929497" stroke-width="0.501" sketch:type="MSShapeGroup"></path>
            <path d="M174.529983,107.978 L240.225681,68.371" id="Stroke-3" stroke="#D0D2D3" sketch:type="MSShapeGroup"></path>
            <path d="M175.636716,107.331 C170.521336,97.934 162.880603,89.97 153.513534,84.276 C143.382914,78.118 131.717888,74.863 119.779569,74.863 C98.0110431,74.863 78.064819,85.372 66.4237845,102.974 C66.2099483,103.297 66.0055,103.622 65.8020948,103.947 L1.2705,64.443 C1.29344828,64.406 1.31639655,64.37 1.33830172,64.333 C1.47703448,64.111 1.61472414,63.89 1.75971552,63.671 C27.5264569,24.713 71.6737241,1.454 119.853629,1.454 C146.27544,1.454 172.09225,8.658 194.512716,22.286 C213.296922,33.704 229.107241,49.398 240.264276,67.696 L175.636716,107.331" id="Fill-4" fill="#FFFFFF" sketch:type="MSShapeGroup"></path>
            <path d="M119.846328,1.954 L119.852586,1.954 C146.178431,1.956 171.898233,9.132 194.233164,22.709 C212.803534,33.996 228.458431,49.483 239.560181,67.535 L175.832819,106.616 C170.677802,97.352 163.076707,89.497 153.793086,83.854 C143.579017,77.645 131.818026,74.364 119.779569,74.364 C97.8305862,74.364 77.7195517,84.96 65.9825517,102.707 C65.8636379,102.887 65.7468103,103.068 65.6310259,103.25 L1.97876724,64.283 C2.05178448,64.168 2.12584483,64.053 2.20094828,63.938 C14.9862672,44.607 32.7889138,28.695 53.6843621,17.921 C73.9445603,7.475 96.8208621,1.954 119.846328,1.954 M119.853629,0.954 C73.4323966,0.952 28.0177586,23.037 1.32056897,63.403 C1.0577069,63.799 0.817793103,64.203 0.560146552,64.601 L65.9742069,104.646 C66.2662759,104.177 66.5562586,103.707 66.862931,103.242 C78.7803879,85.223 99.058319,75.364 119.779569,75.364 C131.24119,75.363 142.837371,78.379 153.233983,84.699 C163.039155,90.658 170.515078,98.804 175.435397,108.047 L240.967328,67.859 C230.021,49.758 214.498578,33.843 194.791224,21.864 C171.507069,7.711 145.524405,0.955 119.853629,0.954" id="Fill-5" fill="#000000" sketch:type="MSShapeGroup"></path>
            <path d="M106.46644,43.816 L105.009224,36.994 C104.831897,36.159 104.511664,35.568 104.049569,35.225 C103.588517,34.879 102.965784,34.785 102.179284,34.938 C101.148698,35.14 100.447733,35.574 100.076388,36.238 C99.7050431,36.902 99.6455862,37.824 99.8980172,39.004 L101.146612,44.859 L99.4901638,45.183 L98.0350345,38.363 C97.8566638,37.527 97.536431,36.937 97.0743362,36.592 C96.6111983,36.248 95.9853362,36.152 95.1936207,36.309 C94.1567759,36.512 93.4599828,36.959 93.1042845,37.65 C92.7485862,38.342 92.71625,39.366 93.0072759,40.724 L94.1807672,46.225 L92.524319,46.551 L90.285819,36.064 L91.6335086,35.801 L92.2093017,37.183 L92.2896207,37.167 C92.4930259,36.596 92.8487241,36.109 93.3556724,35.712 C93.8636638,35.312 94.4697069,35.045 95.1748448,34.906 C96.8844914,34.57 98.1289138,34.945 98.9091552,36.029 L98.988431,36.013 C99.1970517,35.4 99.5767414,34.874 100.1275,34.434 C100.679302,33.993 101.350017,33.695 102.14069,33.54 C103.379897,33.297 104.369802,33.42 105.115621,33.908 C105.860397,34.396 106.376733,35.31 106.662543,36.65 L108.121845,43.491 L106.46644,43.816" id="Fill-6" fill="#000000" sketch:type="MSShapeGroup"></path>
            <path d="M109.927457,29.941 C109.896164,29.571 109.967095,29.293 110.143379,29.106 C110.317578,28.92 110.54706,28.814 110.830784,28.793 C111.101991,28.771 111.341905,28.842 111.553655,29.002 C111.763319,29.162 111.885362,29.424 111.916655,29.787 C111.945862,30.15 111.872845,30.429 111.689259,30.623 C111.509845,30.816 111.283491,30.924 111.013328,30.945 C110.729603,30.967 110.484474,30.895 110.280026,30.732 C110.073491,30.568 109.956664,30.305 109.927457,29.941 L109.927457,29.941 Z M112.899259,43.357 L111.213603,43.489 L110.312362,32.82 L111.998017,32.689 L112.899259,43.357 L112.899259,43.357 Z" id="Fill-7" fill="#000000" sketch:type="MSShapeGroup"></path>
            <path d="M123.759009,41.705 L123.668259,41.705 C122.877586,42.786 121.705138,43.32 120.150914,43.308 C118.690569,43.299 117.557759,42.81 116.754569,41.848 C115.951379,40.886 115.556043,39.521 115.570647,37.758 C115.58525,35.993 116.003534,34.625 116.8255,33.655 C117.648509,32.685 118.786534,32.205 120.239578,32.217 C121.754164,32.226 122.910966,32.764 123.712069,33.824 L123.8435,33.824 L123.777784,33.053 L123.743362,32.301 L123.778828,27.945 L125.469698,27.957 L125.346612,43.152 L123.971802,43.143 L123.759009,41.705 L123.759009,41.705 Z M120.377267,41.953 C121.529897,41.962 122.369595,41.667 122.893233,41.068 C123.416871,40.471 123.685991,39.501 123.695379,38.16 L123.699552,37.818 C123.712069,36.301 123.457552,35.217 122.934957,34.564 C122.414448,33.913 121.576836,33.584 120.423164,33.574 C119.431172,33.566 118.67075,33.932 118.137724,34.666 C117.605741,35.4 117.333491,36.442 117.32306,37.791 C117.310543,39.157 117.564017,40.191 118.081397,40.891 C118.598776,41.592 119.364414,41.946 120.377267,41.953 L120.377267,41.953 Z" id="Fill-8" fill="#000000" sketch:type="MSShapeGroup"></path>
            <path d="M136.223052,42.916 L136.131259,42.906 C135.206026,43.883 133.974121,44.271 132.433457,44.072 C130.984586,43.885 129.926879,43.266 129.255121,42.213 C128.585448,41.16 128.372655,39.761 128.617784,38.012 C128.865,36.262 129.459569,34.957 130.404621,34.094 C131.347586,33.229 132.539853,32.893 133.979336,33.078 C135.479319,33.273 136.556845,33.944 137.210871,35.092 L137.343345,35.109 L137.37881,34.335 L137.444526,33.585 L138.052655,29.268 L139.726836,29.486 L137.60725,44.545 L136.244957,44.369 L136.223052,42.916 L136.223052,42.916 Z M132.834009,42.754 C133.978293,42.902 134.847198,42.711 135.448026,42.182 C136.046767,41.65 136.440017,40.721 136.62569,39.393 L136.673672,39.053 C136.886466,37.55 136.775897,36.445 136.344052,35.735 C135.91325,35.025 135.12675,34.596 133.981422,34.448 C132.998819,34.32 132.194586,34.59 131.571853,35.256 C130.945991,35.92 130.539181,36.92 130.351422,38.256 C130.161578,39.609 130.276319,40.666 130.697733,41.424 C131.119147,42.182 131.830543,42.625 132.834009,42.754 L132.834009,42.754 Z" id="Fill-9" fill="#000000" sketch:type="MSShapeGroup"></path>
            <path d="M142.437862,45.621 L140.789759,45.262 L144.305017,30.443 L145.953121,30.804 L142.437862,45.621" id="Fill-10" fill="#000000" sketch:type="MSShapeGroup"></path>
            <path d="M150.07025,47.876 C148.49725,47.396 147.40825,46.559 146.804293,45.363 C146.199293,44.169 146.168,42.756 146.708328,41.123 C147.252828,39.479 148.108172,38.303 149.274362,37.591 C150.441595,36.881 151.735043,36.742 153.158879,37.176 C154.490922,37.583 155.406767,38.324 155.905371,39.401 C156.402931,40.479 156.424836,41.707 155.966914,43.084 L155.642509,44.061 L148.312621,41.828 C147.948578,43.035 147.964224,44.039 148.355388,44.842 C148.748638,45.645 149.490284,46.213 150.576155,46.545 C151.721483,46.892 152.929397,47.009 154.203026,46.891 L153.746147,48.268 C153.097336,48.33 152.502767,48.336 151.961397,48.283 C151.418983,48.23 150.789991,48.094 150.07025,47.876 L150.07025,47.876 Z M152.710345,38.463 C151.855,38.203 151.086233,38.263 150.401957,38.642 C149.715595,39.021 149.172138,39.668 148.768457,40.584 L154.332371,42.279 C154.65469,41.305 154.674509,40.489 154.394957,39.832 C154.112276,39.177 153.551086,38.721 152.710345,38.463 L152.710345,38.463 Z" id="Fill-11" fill="#000000" sketch:type="MSShapeGroup"></path>
        </g>
    </g>
</svg>