<?xml version="1.0" encoding="UTF-8" standalone="no"?>
<svg width="270px" height="273px" viewBox="0 0 270 273" version="1.1" xmlns="http://www.w3.org/2000/svg" xmlns:xlink="http://www.w3.org/1999/xlink" xmlns:sketch="http://www.bohemiancoding.com/sketch/ns">
    <!-- Generator: Sketch 3.3 (11970) - http://www.bohemiancoding.com/sketch -->
    <title>carbEnd</title>
    <desc>Created with Sketch.</desc>
    <defs></defs>
    <g id="Page-1" stroke="none" stroke-width="1" fill="none" fill-rule="evenodd" sketch:type="MSPage">
        <g id="carbEnd" sketch:type="MSLayerGroup">
            <path id="Stroke-81" stroke="#D0D2D3" stroke-width="0.474" sketch:type="MSShapeGroup"></path>
            <path d="M207.158,21.443 C144.47,-18.304 61.429,0.294 21.682,62.982 C-18.065,125.67 0.532,208.711 63.22,248.458 C125.91,288.206 208.949,269.608 248.697,206.92 C288.444,144.232 269.848,61.192 207.158,21.443" id="Fill-82" fill="#FFFFFF" sketch:type="MSShapeGroup"></path>
            <path d="M21.109,63.884 L83.944,103.724" id="Stroke-83" stroke="#D0D2D3" sketch:type="MSShapeGroup"></path>
            <path id="Stroke-84" stroke="#929497" stroke-width="0.501" sketch:type="MSShapeGroup"></path>
            <path d="M109.999998,187 C100.780998,182.846 93.041,177.614 87.477,169.879 L22.357,212.468 C32.431,227.466 45.862,241.349 62.098,251.643 C124.416,291.156 206.844,273.012 246.863,211.214 C247.101,210.846 247.339,210.477 247.574,210.105 C247.661,209.967 213.3,188.184 183.001,169.003 C176.615,180.416 148.417998,203.857 110.999998,187" id="Fill-85" fill="#000000" sketch:type="MSShapeGroup"></path>
            <path d="M187.551,107.383 L250.532,67.776" id="Stroke-86" stroke="#D0D2D3" sketch:type="MSShapeGroup"></path>
            <path d="M167.11,83.461 C139.124,65.717 102.052,74.019 84.308,102.005 C66.564,129.991 74.866,167.062 102.852,184.806 C130.839,202.551 167.91,194.249 185.654,166.263 C203.398,138.277 195.096,101.206 167.11,83.461" id="Fill-87" fill="#000000" sketch:type="MSShapeGroup"></path>
            <path d="M95.131,118.615 L102.164,122.071 L101.956,113.462 L95.131,118.615" id="Fill-88" fill="#BBBDBF" sketch:type="MSShapeGroup"></path>
            <path d="M174.777,147.805 L167.511,144.871 L168.344,153.442 L174.777,147.805" id="Fill-89" fill="#BBBDBF" sketch:type="MSShapeGroup"></path>
            <path d="M100.534,116.36 C91.379,133.944 97.067,155.913 114.117,166.723 C126.77,174.746 142.312,174.488 154.39,167.373 M169.825,150.278 C177.813,132.989 171.96,112.034 155.436,101.557 C141.976,93.022 125.247,93.858 112.895,102.352" id="Stroke-90" stroke="#BBBDBF" stroke-width="2" stroke-linecap="round" sketch:type="MSShapeGroup"></path>
            <path d="M188.31,106.701 C197.638,124.979 197.354,147.568 185.569,166.154 C185.002,167.048 184.415,167.92 183.81,168.774 C211.378,186.228 241.883,205.567 246.626,208.721 C247.227,207.821 247.821,206.913 248.404,205.994 C276.172,162.199 275.457,108.474 251.133,66.513 L188.31,106.701" id="Fill-91" fill="#FFFFFF" sketch:type="MSShapeGroup"></path>
            <path d="M188.612,106.735 C183.707,97.339 176.384,89.375 167.403,83.682 C157.691,77.523 146.508,74.269 135.063,74.269 C114.194,74.269 95.072,84.777 83.912,102.38 C83.707,102.701 83.511,103.026 83.316,103.352 L21.45,63.848 L21.506,63.756 C21.642,63.528 21.778,63.301 21.921,63.076 C46.622,24.117 88.945,0.858 135.134,0.858 C160.464,0.858 185.213,8.063 206.708,21.691 C224.716,33.109 239.873,48.804 250.569,67.102 L188.612,106.735" id="Fill-92" fill="#000000" sketch:type="MSShapeGroup"></path>
            <path d="M135.127,1.359 L135.134,1.359 C160.371,1.361 185.028,8.537 206.44,22.114 C224.243,33.402 239.251,48.888 249.895,66.94 L188.801,106.021 C183.858,96.756 176.572,88.902 167.671,83.259 C157.879,77.05 146.604,73.769 135.063,73.769 C114.021,73.769 94.741,84.365 83.489,102.112 C83.375,102.292 83.263,102.473 83.152,102.655 L22.13,63.688 C22.2,63.573 22.271,63.458 22.344,63.343 C34.6,44.012 51.667,28.1 71.699,17.326 C91.122,6.88 113.052,1.359 135.127,1.359 M135.134,0.359 C90.631,0.357 47.093,22.441 21.499,62.807 C21.247,63.204 21.017,63.608 20.77,64.006 L83.481,104.051 C83.761,103.582 84.039,103.112 84.333,102.647 C95.759,84.628 115.198,74.769 135.063,74.769 C146.051,74.768 157.168,77.784 167.135,84.104 C176.535,90.063 183.702,98.209 188.42,107.452 L251.243,67.264 C240.75,49.163 225.868,33.248 206.975,21.269 C184.654,7.116 159.744,0.361 135.134,0.359" id="Fill-93" fill="#FFFFFF" sketch:type="MSShapeGroup"></path>
            <path d="M24.32,209.803 C-5.345,166.003 -6.456,108.864 21.48,63.952 L83.238,103.646 C70.887,124.314 71.938,150.16 85.921,169.775 L24.32,209.803" id="Fill-94" fill="#000000" sketch:type="MSShapeGroup"></path>
            <path d="M21.638,64.648 L82.562,103.806 C70.456,124.426 71.49,150.046 85.213,169.64 L24.461,209.116 C-4.73,165.673 -5.835,109.186 21.638,64.648 M21.325,63.258 C-7.921,109.883 -5.054,167.657 24.183,210.489 L86.633,169.91 C72.814,150.873 71.013,124.696 83.917,103.488 L21.325,63.258" id="Fill-95" fill="#FFFFFF" sketch:type="MSShapeGroup"></path>
            <path d="M36.381,171.454 C35.904,170.131 35.986,168.94 36.627,167.883 C37.268,166.826 38.414,166 40.068,165.404 C41.721,164.81 43.139,164.716 44.32,165.125 C45.502,165.533 46.33,166.394 46.801,167.704 C47.037,168.359 47.131,169.002 47.084,169.631 C47.037,170.26 46.83,170.85 46.459,171.398 L46.498,171.508 L47.91,171.363 L48.303,172.457 L34.006,177.602 L33.457,176.076 L36.93,174.826 C37.709,174.547 38.416,174.319 39.053,174.147 L39.025,174.072 C37.766,173.724 36.883,172.85 36.381,171.454 L36.381,171.454 Z M37.736,171.215 C38.113,172.256 38.68,172.899 39.443,173.145 C40.207,173.389 41.295,173.256 42.711,172.747 C44.125,172.237 45.053,171.638 45.492,170.946 C45.934,170.256 45.965,169.389 45.59,168.348 C45.252,167.41 44.66,166.836 43.811,166.621 C42.965,166.408 41.898,166.531 40.619,166.992 C39.309,167.464 38.414,168.045 37.936,168.736 C37.457,169.427 37.393,170.254 37.736,171.215 L37.736,171.215 Z" id="Fill-96" fill="#FFFFFF" sketch:type="MSShapeGroup"></path>
            <path d="M43.674,156.793 C44.027,158.334 43.836,159.659 43.102,160.766 C42.369,161.873 41.166,162.618 39.496,163.002 C37.816,163.387 36.385,163.279 35.205,162.679 C34.023,162.078 33.275,161.08 32.953,159.684 C32.654,158.377 32.848,157.244 33.533,156.285 C34.217,155.326 35.264,154.686 36.672,154.361 L37.672,154.132 L39.322,161.319 C40.539,161.006 41.396,160.482 41.896,159.75 C42.398,159.018 42.525,158.118 42.279,157.053 C42.021,155.93 41.533,154.873 40.811,153.883 L42.221,153.559 C42.59,154.063 42.883,154.551 43.102,155.026 C43.322,155.499 43.512,156.088 43.674,156.793 L43.674,156.793 Z M34.281,159.399 C34.475,160.236 34.9,160.842 35.561,161.214 C36.221,161.588 37.043,161.707 38.027,161.575 L36.775,156.121 C35.779,156.35 35.068,156.747 34.639,157.313 C34.213,157.879 34.092,158.574 34.281,159.399 L34.281,159.399 Z" id="Fill-97" fill="#FFFFFF" sketch:type="MSShapeGroup"></path>
            <path d="M30.631,143.145 L31.648,143.029 L32.104,144.973 C32.311,144.767 32.588,144.571 32.938,144.388 C33.287,144.203 33.691,144.086 34.15,144.035 C35.191,143.917 36.064,144.18 36.764,144.82 C37.467,145.462 37.887,146.404 38.027,147.646 C38.063,147.963 38.07,148.264 38.051,148.548 C38.49,149.192 38.984,149.484 39.535,149.422 C39.826,149.389 40.027,149.245 40.139,148.99 C40.252,148.735 40.275,148.317 40.209,147.734 L39.998,145.852 C39.867,144.7 40.01,143.788 40.426,143.115 C40.84,142.443 41.51,142.055 42.436,141.95 C43.613,141.818 44.564,142.188 45.289,143.063 C46.014,143.937 46.477,145.281 46.682,147.093 C46.84,148.484 46.701,149.585 46.268,150.397 C45.836,151.209 45.146,151.668 44.203,151.775 C43.557,151.848 42.973,151.704 42.453,151.344 C41.936,150.983 41.549,150.437 41.295,149.705 C41.203,149.99 41.039,150.24 40.801,150.453 C40.563,150.667 40.271,150.793 39.93,150.832 C39.541,150.875 39.19,150.811 38.875,150.637 C38.561,150.463 38.242,150.167 37.922,149.752 C37.756,150.326 37.422,150.819 36.918,151.227 C36.412,151.633 35.812,151.876 35.113,151.955 C33.949,152.086 33.012,151.838 32.301,151.211 C31.592,150.584 31.166,149.629 31.02,148.348 C30.957,147.792 30.967,147.283 31.045,146.822 L30.631,143.145 L30.631,143.145 Z M34.895,150.367 C35.639,150.283 36.178,150.011 36.512,149.547 C36.846,149.084 36.971,148.477 36.887,147.727 C36.709,146.154 35.856,145.453 34.33,145.626 C32.732,145.807 32.023,146.691 32.203,148.283 C32.287,149.04 32.557,149.6 33.01,149.961 C33.465,150.322 34.092,150.459 34.895,150.367 L34.895,150.367 Z M44.008,150.225 C44.584,150.16 44.994,149.867 45.236,149.35 C45.479,148.83 45.549,148.117 45.447,147.213 C45.295,145.859 44.98,144.883 44.502,144.277 C44.023,143.673 43.439,143.41 42.746,143.488 C42.17,143.553 41.791,143.776 41.609,144.156 C41.426,144.537 41.389,145.22 41.5,146.203 L41.719,148.135 C41.801,148.865 42.039,149.415 42.436,149.783 C42.83,150.151 43.355,150.299 44.008,150.225 L44.008,150.225 Z" id="Fill-98" fill="#FFFFFF" sketch:type="MSShapeGroup"></path>
            <path d="M27.705,140.553 C27.334,140.565 27.061,140.482 26.883,140.305 C26.705,140.127 26.611,139.902 26.604,139.629 C26.596,139.369 26.676,139.142 26.846,138.947 C27.018,138.754 27.285,138.651 27.648,138.641 C28.012,138.629 28.287,138.716 28.471,138.898 C28.658,139.082 28.754,139.305 28.762,139.565 C28.768,139.838 28.686,140.068 28.514,140.256 C28.34,140.443 28.07,140.543 27.705,140.553 L27.705,140.553 Z M41.25,138.387 L41.299,140.008 L30.602,140.329 L30.553,138.709 L41.25,138.387 L41.25,138.387 Z" id="Fill-99" fill="#FFFFFF" sketch:type="MSShapeGroup"></path>
            <path d="M41.566,127.93 L34.654,127.521 C33.785,127.469 33.123,127.629 32.672,128 C32.219,128.371 31.967,128.979 31.918,129.824 C31.852,130.941 32.106,131.778 32.678,132.334 C33.252,132.891 34.234,133.209 35.625,133.291 L41.23,133.623 L41.135,135.242 L30.449,134.609 L30.527,133.293 L32.006,133.116 L32.01,133.038 C31.504,132.676 31.123,132.188 30.869,131.572 C30.615,130.957 30.512,130.282 30.553,129.547 C30.629,128.262 30.998,127.311 31.656,126.697 C32.316,126.084 33.328,125.818 34.693,125.899 L41.662,126.312 L41.566,127.93" id="Fill-100" fill="#FFFFFF" sketch:type="MSShapeGroup"></path>
            <path d="M28.668,121.454 C28.301,121.399 28.045,121.27 27.9,121.062 C27.756,120.857 27.705,120.619 27.746,120.349 C27.785,120.091 27.904,119.882 28.105,119.721 C28.309,119.561 28.59,119.508 28.951,119.561 C29.311,119.615 29.564,119.748 29.715,119.961 C29.863,120.176 29.918,120.41 29.881,120.668 C29.84,120.939 29.719,121.15 29.514,121.305 C29.311,121.458 29.027,121.508 28.668,121.454 L28.668,121.454 Z M42.381,121.729 L42.141,123.332 L31.555,121.748 L31.795,120.145 L42.381,121.729 L42.381,121.729 Z" id="Fill-101" fill="#FFFFFF" sketch:type="MSShapeGroup"></path>
            <path d="M44.557,111.485 L37.828,109.851 C36.982,109.645 36.303,109.684 35.791,109.969 C35.279,110.253 34.924,110.806 34.725,111.628 C34.459,112.717 34.561,113.586 35.025,114.234 C35.49,114.883 36.4,115.373 37.754,115.701 L43.211,117.027 L42.828,118.603 L32.428,116.075 L32.738,114.793 L34.225,114.883 L34.242,114.808 C33.809,114.361 33.521,113.813 33.381,113.161 C33.242,112.512 33.258,111.828 33.432,111.113 C33.736,109.861 34.268,108.992 35.025,108.506 C35.783,108.02 36.826,107.939 38.156,108.262 L44.941,109.91 L44.557,111.485" id="Fill-102" fill="#FFFFFF" sketch:type="MSShapeGroup"></path>
            <path d="M38.889,95.191 L39.848,95.549 L39.373,97.488 C39.65,97.398 39.986,97.35 40.381,97.344 C40.775,97.34 41.188,97.418 41.621,97.58 C42.604,97.947 43.262,98.576 43.596,99.466 C43.93,100.355 43.877,101.386 43.439,102.557 C43.328,102.856 43.199,103.127 43.051,103.371 C43.15,104.145 43.459,104.629 43.977,104.822 C44.252,104.926 44.496,104.889 44.713,104.712 C44.928,104.536 45.139,104.174 45.344,103.624 L46.008,101.85 C46.414,100.765 46.955,100.018 47.631,99.605 C48.307,99.194 49.08,99.152 49.951,99.479 C51.061,99.895 51.74,100.656 51.988,101.764 C52.238,102.873 52.043,104.28 51.404,105.986 C50.914,107.299 50.291,108.218 49.537,108.745 C48.783,109.273 47.963,109.37 47.07,109.036 C46.461,108.809 46.008,108.416 45.707,107.859 C45.41,107.303 45.313,106.641 45.42,105.873 C45.207,106.086 44.947,106.235 44.639,106.317 C44.33,106.399 44.014,106.38 43.689,106.258 C43.324,106.121 43.041,105.904 42.84,105.607 C42.639,105.309 42.488,104.901 42.389,104.385 C41.982,104.822 41.461,105.11 40.826,105.244 C40.193,105.379 39.547,105.322 38.887,105.075 C37.791,104.665 37.068,104.019 36.719,103.138 C36.371,102.257 36.424,101.213 36.877,100.005 C37.072,99.481 37.311,99.031 37.59,98.656 L38.889,95.191 L38.889,95.191 Z M39.412,103.563 C40.113,103.824 40.719,103.825 41.227,103.564 C41.734,103.303 42.121,102.818 42.387,102.11 C42.941,100.629 42.5,99.619 41.061,99.08 C39.555,98.516 38.52,98.984 37.959,100.483 C37.691,101.197 37.678,101.818 37.918,102.346 C38.158,102.873 38.656,103.279 39.412,103.563 L39.412,103.563 Z M47.602,107.566 C48.143,107.77 48.641,107.695 49.094,107.343 C49.543,106.99 49.93,106.388 50.25,105.534 C50.727,104.26 50.889,103.245 50.738,102.489 C50.586,101.735 50.184,101.234 49.531,100.99 C48.988,100.787 48.549,100.814 48.213,101.07 C47.879,101.327 47.537,101.918 47.189,102.845 L46.508,104.665 C46.25,105.354 46.213,105.953 46.398,106.459 C46.584,106.967 46.984,107.336 47.602,107.566 L47.602,107.566 Z" id="Fill-103" fill="#FFFFFF" sketch:type="MSShapeGroup"></path>
            <path d="M114.219,44.703 L112.236,38.028 C111.994,37.211 111.637,36.65 111.166,36.345 C110.695,36.041 110.09,35.996 109.355,36.215 C108.387,36.503 107.756,36.992 107.459,37.686 C107.162,38.379 107.184,39.303 107.527,40.457 L109.229,46.186 L107.676,46.647 L105.693,39.973 C105.449,39.154 105.092,38.594 104.621,38.289 C104.15,37.983 103.543,37.942 102.801,38.162 C101.828,38.451 101.201,38.955 100.922,39.673 C100.643,40.391 100.701,41.414 101.096,42.743 L102.693,48.125 L101.141,48.588 L98.094,38.328 L99.357,37.952 L100.027,39.281 L100.102,39.26 C100.246,38.673 100.545,38.16 100.994,37.721 C101.445,37.281 102,36.963 102.662,36.768 C104.266,36.291 105.486,36.56 106.324,37.574 L106.4,37.552 C106.545,36.924 106.863,36.367 107.352,35.884 C107.838,35.399 108.453,35.047 109.197,34.826 C110.357,34.482 111.314,34.522 112.068,34.945 C112.824,35.37 113.395,36.237 113.785,37.548 L115.773,44.242 L114.219,44.703" id="Fill-104" fill="#FFFFFF" sketch:type="MSShapeGroup"></path>
            <path d="M116.348,30.586 C116.285,30.221 116.33,29.938 116.48,29.736 C116.631,29.536 116.844,29.413 117.111,29.367 C117.369,29.324 117.605,29.373 117.82,29.515 C118.035,29.656 118.174,29.908 118.234,30.267 C118.295,30.626 118.248,30.91 118.09,31.118 C117.936,31.326 117.729,31.451 117.473,31.495 C117.203,31.541 116.963,31.491 116.754,31.345 C116.543,31.198 116.408,30.945 116.348,30.586 L116.348,30.586 Z M120.35,43.706 L118.752,43.977 L116.967,33.423 L118.564,33.152 L120.35,43.706 L120.35,43.706 Z" id="Fill-105" fill="#FFFFFF" sketch:type="MSShapeGroup"></path>
            <path d="M130.58,41.156 L130.492,41.162 C129.832,42.306 128.76,42.937 127.273,43.054 C125.879,43.164 124.754,42.773 123.904,41.881 C123.053,40.988 122.557,39.663 122.418,37.904 C122.277,36.146 122.559,34.749 123.26,33.713 C123.963,32.678 125.008,32.106 126.396,31.994 C127.842,31.88 128.994,32.318 129.85,33.309 L129.977,33.298 L129.848,32.535 L129.748,31.788 L129.406,27.445 L131.021,27.318 L132.223,42.466 L130.908,42.57 L130.58,41.156 L130.58,41.156 Z M127.371,41.685 C128.475,41.598 129.25,41.233 129.699,40.594 C130.148,39.954 130.318,38.967 130.213,37.629 L130.186,37.288 C130.066,35.775 129.729,34.718 129.174,34.111 C128.619,33.506 127.791,33.246 126.689,33.334 C125.74,33.408 125.045,33.835 124.6,34.611 C124.156,35.389 123.986,36.447 124.094,37.791 C124.201,39.154 124.533,40.163 125.088,40.818 C125.643,41.473 126.404,41.762 127.371,41.685 L127.371,41.685 Z" id="Fill-106" fill="#FFFFFF" sketch:type="MSShapeGroup"></path>
            <path d="M142.586,41.324 L142.498,41.32 C141.701,42.371 140.557,42.861 139.066,42.793 C137.668,42.727 136.604,42.197 135.871,41.205 C135.139,40.213 134.813,38.835 134.896,37.073 C134.979,35.311 135.434,33.96 136.26,33.022 C137.086,32.082 138.195,31.646 139.586,31.711 C141.037,31.778 142.123,32.358 142.848,33.447 L142.975,33.453 L142.943,32.679 L142.939,31.926 L143.143,27.575 L144.762,27.651 L144.051,42.83 L142.734,42.768 L142.586,41.324 L142.586,41.324 Z M139.334,41.445 C140.441,41.498 141.256,41.234 141.783,40.656 C142.307,40.078 142.602,39.119 142.664,37.779 L142.682,37.438 C142.752,35.923 142.551,34.83 142.076,34.158 C141.602,33.488 140.814,33.127 139.707,33.074 C138.758,33.03 138.014,33.365 137.477,34.08 C136.938,34.795 136.637,35.826 136.572,37.171 C136.51,38.537 136.711,39.58 137.18,40.299 C137.648,41.018 138.365,41.4 139.334,41.445 L139.334,41.445 Z" id="Fill-107" fill="#FFFFFF" sketch:type="MSShapeGroup"></path>
            <path d="M148.771,43.496 L147.166,43.277 L149.23,28.223 L150.836,28.442 L148.771,43.496" id="Fill-108" fill="#FFFFFF" sketch:type="MSShapeGroup"></path>
            <path d="M156.258,45.106 C154.715,44.76 153.602,44.017 152.92,42.877 C152.236,41.736 152.084,40.33 152.459,38.66 C152.836,36.977 153.549,35.733 154.602,34.927 C155.652,34.121 156.875,33.875 158.273,34.188 C159.582,34.482 160.521,35.144 161.09,36.176 C161.66,37.207 161.787,38.428 161.471,39.838 L161.246,40.84 L154.053,39.227 C153.809,40.461 153.91,41.461 154.355,42.227 C154.801,42.994 155.557,43.497 156.625,43.736 C157.75,43.988 158.914,44.003 160.117,43.778 L159.803,45.19 C159.189,45.305 158.621,45.359 158.1,45.353 C157.576,45.346 156.963,45.264 156.258,45.106 L156.258,45.106 Z M157.957,35.508 C157.119,35.32 156.389,35.443 155.768,35.879 C155.146,36.314 154.684,37.004 154.379,37.949 L159.84,39.173 C160.063,38.175 160.012,37.361 159.686,36.732 C159.359,36.101 158.783,35.693 157.957,35.508 L157.957,35.508 Z" id="Fill-109" fill="#FFFFFF" sketch:type="MSShapeGroup"></path>
            <path d="M227.635,121.076 C227.363,119.518 227.625,118.205 228.416,117.139 C229.211,116.072 230.449,115.393 232.137,115.1 C233.836,114.805 235.26,114.988 236.406,115.652 C237.553,116.315 238.248,117.352 238.492,118.763 C238.723,120.084 238.469,121.205 237.734,122.127 C236.998,123.047 235.92,123.631 234.496,123.879 L233.484,124.054 L232.223,116.791 C230.99,117.037 230.104,117.513 229.566,118.219 C229.027,118.923 228.854,119.814 229.039,120.892 C229.238,122.027 229.67,123.107 230.338,124.136 L228.912,124.383 C228.57,123.861 228.303,123.357 228.111,122.872 C227.916,122.387 227.758,121.789 227.635,121.076 L227.635,121.076 Z M237.152,118.977 C237.006,118.129 236.611,117.502 235.973,117.095 C235.332,116.688 234.52,116.524 233.529,116.603 L234.486,122.115 C235.492,121.941 236.227,121.582 236.684,121.041 C237.141,120.498 237.297,119.81 237.152,118.977 L237.152,118.977 Z" id="Fill-110" fill="#000000" sketch:type="MSShapeGroup"></path>
            <path d="M229.135,134.591 L236.051,134.232 C236.922,134.188 237.563,133.956 237.971,133.537 C238.379,133.118 238.563,132.486 238.518,131.641 C238.459,130.524 238.115,129.719 237.482,129.23 C236.852,128.742 235.84,128.533 234.449,128.606 L228.842,128.896 L228.758,127.276 L239.447,126.723 L239.514,128.039 L238.064,128.379 L238.068,128.457 C238.613,128.762 239.045,129.205 239.365,129.788 C239.686,130.371 239.865,131.03 239.902,131.766 C239.969,133.052 239.709,134.037 239.121,134.719 C238.535,135.402 237.559,135.778 236.193,135.849 L229.219,136.209 L229.135,134.591" id="Fill-111" fill="#000000" sketch:type="MSShapeGroup"></path>
            <path d="M230.07,146.483 L230.076,146.395 C229.047,145.566 228.588,144.41 228.699,142.924 C228.803,141.527 229.361,140.477 230.373,139.773 C231.387,139.068 232.771,138.781 234.531,138.912 C236.291,139.043 237.629,139.535 238.545,140.386 C239.459,141.238 239.867,142.359 239.764,143.748 C239.654,145.195 239.047,146.266 237.936,146.961 L237.928,147.087 L238.703,147.076 L239.455,147.094 L243.797,147.416 L243.678,149.033 L228.525,147.904 L228.621,146.59 L230.07,146.483 L230.07,146.483 Z M230.039,143.229 C229.957,144.332 230.197,145.154 230.76,145.696 C231.324,146.237 232.273,146.559 233.611,146.658 L233.953,146.684 C235.465,146.796 236.563,146.625 237.246,146.17 C237.932,145.715 238.313,144.936 238.396,143.832 C238.467,142.884 238.15,142.131 237.451,141.572 C236.752,141.015 235.73,140.686 234.389,140.586 C233.023,140.484 231.977,140.657 231.244,141.106 C230.512,141.553 230.111,142.262 230.039,143.229 L230.039,143.229 Z" id="Fill-112" fill="#000000" sketch:type="MSShapeGroup"></path>
            <path d="M109.946,226.907 C109.646,227.834 109.07,228.436 108.218,228.715 C107.365,228.994 106.315,228.933 105.069,228.528 C103.749,228.102 102.788,227.56 102.185,226.903 L102.638,225.505 C103.037,225.902 103.488,226.259 103.991,226.574 C104.493,226.892 104.999,227.133 105.508,227.296 C106.294,227.552 106.94,227.621 107.445,227.508 C107.95,227.393 108.286,227.079 108.452,226.565 C108.578,226.178 108.518,225.792 108.271,225.407 C108.024,225.024 107.474,224.486 106.621,223.795 C105.807,223.15 105.245,222.637 104.938,222.252 C104.632,221.869 104.436,221.483 104.351,221.095 C104.266,220.706 104.297,220.285 104.444,219.83 C104.707,219.02 105.243,218.486 106.056,218.231 C106.866,217.976 107.847,218.033 108.997,218.406 C110.068,218.753 111.046,219.31 111.927,220.076 L110.995,221.129 C110.129,220.395 109.291,219.895 108.479,219.633 C107.766,219.401 107.19,219.339 106.755,219.445 C106.319,219.552 106.038,219.803 105.911,220.195 C105.824,220.462 105.819,220.71 105.895,220.941 C105.97,221.175 106.131,221.424 106.38,221.69 C106.627,221.959 107.129,222.392 107.885,222.991 C108.925,223.803 109.583,224.494 109.856,225.063 C110.13,225.634 110.16,226.248 109.946,226.907" id="Fill-113" fill="#BBBDBF" sketch:type="MSShapeGroup"></path>
            <path d="M113.772,230.748 L112.231,230.384 L115.648,215.934 L117.19,216.298 L113.772,230.748" id="Fill-114" fill="#BBBDBF" sketch:type="MSShapeGroup"></path>
            <path d="M122.194,232.468 C120.663,232.249 119.521,231.611 118.77,230.555 C118.017,229.496 117.759,228.139 117.993,226.482 C118.23,224.814 118.83,223.547 119.791,222.68 C120.753,221.814 121.927,221.48 123.312,221.677 C124.609,221.861 125.575,222.434 126.21,223.394 C126.845,224.356 127.063,225.534 126.864,226.934 L126.724,227.925 L119.591,226.911 C119.449,228.133 119.625,229.099 120.118,229.811 C120.611,230.524 121.388,230.955 122.445,231.106 C123.561,231.264 124.695,231.188 125.851,230.876 L125.653,232.274 C125.064,232.435 124.516,232.532 124.007,232.565 C123.497,232.599 122.894,232.565 122.194,232.468 L122.194,232.468 Z M123.106,222.986 C122.275,222.869 121.574,223.046 121.003,223.518 C120.432,223.989 120.033,224.697 119.81,225.642 L125.223,226.411 C125.363,225.422 125.25,224.634 124.884,224.044 C124.519,223.456 123.926,223.104 123.106,222.986 L123.106,222.986 Z" id="Fill-115" fill="#BBBDBF" sketch:type="MSShapeGroup"></path>
            <path d="M134.214,233.332 C132.669,233.31 131.456,232.818 130.577,231.864 C129.698,230.908 129.272,229.595 129.298,227.922 C129.325,226.236 129.761,224.903 130.606,223.924 C131.451,222.944 132.573,222.465 133.974,222.487 C135.284,222.509 136.313,222.954 137.063,223.829 C137.814,224.703 138.178,225.846 138.155,227.258 L138.14,228.26 L130.936,228.147 C130.948,229.375 131.244,230.313 131.823,230.958 C132.401,231.604 133.225,231.934 134.293,231.95 C135.419,231.968 136.536,231.75 137.644,231.297 L137.622,232.709 C137.058,232.941 136.526,233.106 136.025,233.204 C135.523,233.302 134.921,233.344 134.214,233.332 L134.214,233.332 Z M133.934,223.813 C133.094,223.801 132.421,224.064 131.912,224.603 C131.404,225.142 131.099,225.895 130.994,226.859 L136.462,226.945 C136.478,225.946 136.267,225.178 135.829,224.64 C135.393,224.103 134.761,223.825 133.934,223.813 L133.934,223.813 Z" id="Fill-116" fill="#BBBDBF" sketch:type="MSShapeGroup"></path>
            <path d="M146.761,232.629 C146.085,232.708 145.453,232.655 144.864,232.47 C144.276,232.285 143.763,231.956 143.323,231.481 L143.21,231.494 C143.356,232.093 143.46,232.663 143.523,233.207 L144.02,237.481 L142.446,237.664 L140.7,222.611 L141.979,222.463 L142.362,223.859 L142.438,223.852 C142.776,223.235 143.2,222.77 143.708,222.455 C144.216,222.14 144.817,221.942 145.513,221.861 C146.89,221.701 148.008,222.049 148.866,222.903 C149.724,223.759 150.251,225.035 150.448,226.735 C150.646,228.441 150.42,229.812 149.768,230.845 C149.116,231.877 148.113,232.473 146.761,232.629 L146.761,232.629 Z M145.44,223.225 C144.378,223.347 143.645,223.73 143.239,224.373 C142.833,225.016 142.698,225.979 142.835,227.264 L142.874,227.613 C143.044,229.074 143.409,230.091 143.969,230.662 C144.528,231.234 145.345,231.458 146.419,231.334 C147.315,231.23 147.978,230.785 148.401,230 C148.826,229.214 148.964,228.182 148.816,226.906 C148.666,225.61 148.296,224.647 147.708,224.014 C147.118,223.38 146.362,223.117 145.44,223.225 L145.44,223.225 Z" id="Fill-117" fill="#BBBDBF" sketch:type="MSShapeGroup"></path>
            <path d="M151.653,218.191 C151.577,217.836 151.608,217.558 151.748,217.355 C151.887,217.153 152.087,217.025 152.348,216.969 C152.597,216.915 152.829,216.953 153.046,217.082 C153.263,217.212 153.408,217.45 153.482,217.799 C153.557,218.147 153.522,218.428 153.379,218.636 C153.234,218.847 153.038,218.977 152.79,219.03 C152.528,219.087 152.292,219.048 152.081,218.914 C151.87,218.78 151.729,218.539 151.653,218.191 L151.653,218.191 Z M156.116,230.829 L154.567,231.161 L152.378,220.935 L153.927,220.603 L156.116,230.829 L156.116,230.829 Z" id="Fill-118" fill="#BBBDBF" sketch:type="MSShapeGroup"></path>
            <path d="M167.033,227.77 L164.998,221.316 C164.742,220.503 164.365,219.955 163.869,219.671 C163.373,219.389 162.729,219.37 161.941,219.619 C160.897,219.947 160.223,220.472 159.915,221.188 C159.606,221.906 159.659,222.914 160.068,224.213 L161.719,229.445 L160.208,229.921 L157.062,219.947 L158.29,219.56 L158.967,220.848 L159.04,220.824 C159.194,220.235 159.508,219.718 159.98,219.272 C160.454,218.825 161.033,218.494 161.719,218.278 C162.92,217.899 163.915,217.903 164.705,218.292 C165.494,218.681 166.09,219.511 166.491,220.785 L168.544,227.292 L167.033,227.77" id="Fill-119" fill="#BBBDBF" sketch:type="MSShapeGroup"></path>
            <path d="M175.959,212.586 L176.382,213.495 L174.72,214.518 C174.975,214.646 175.241,214.842 175.52,215.109 C175.798,215.377 176.032,215.716 176.222,216.126 C176.653,217.056 176.679,217.942 176.301,218.792 C175.923,219.64 175.18,220.32 174.071,220.834 C173.788,220.965 173.513,221.067 173.242,221.135 C172.78,221.741 172.663,222.29 172.891,222.78 C173.011,223.04 173.206,223.183 173.478,223.208 C173.749,223.232 174.145,223.125 174.663,222.885 L176.343,222.106 C177.37,221.629 178.26,221.481 179.013,221.657 C179.764,221.835 180.331,222.337 180.714,223.162 C181.2,224.213 181.15,225.209 180.563,226.15 C179.976,227.092 178.874,227.937 177.258,228.687 C176.017,229.262 174.954,229.475 174.066,229.324 C173.181,229.174 172.542,228.678 172.151,227.835 C171.884,227.258 171.837,226.673 172.011,226.08 C172.185,225.488 172.572,224.961 173.173,224.501 C172.879,224.504 172.597,224.428 172.325,224.274 C172.054,224.118 171.848,223.889 171.705,223.582 C171.545,223.236 171.497,222.889 171.562,222.545 C171.626,222.199 171.801,221.814 172.086,221.386 C171.503,221.411 170.943,221.254 170.41,220.911 C169.876,220.57 169.466,220.088 169.177,219.465 C168.694,218.426 168.636,217.479 168.998,216.627 C169.36,215.776 170.113,215.086 171.256,214.556 C171.753,214.325 172.228,214.177 172.679,214.107 L175.959,212.586 L175.959,212.586 Z M170.581,218.771 C170.888,219.436 171.309,219.851 171.841,220.017 C172.375,220.184 172.976,220.112 173.646,219.801 C175.048,219.151 175.434,218.145 174.802,216.783 C174.142,215.357 173.101,214.974 171.681,215.631 C171.006,215.944 170.57,216.366 170.375,216.899 C170.18,217.432 170.249,218.056 170.581,218.771 L170.581,218.771 Z M173.528,227.175 C173.767,227.69 174.163,227.979 174.72,228.043 C175.275,228.107 175.957,227.954 176.766,227.579 C177.972,227.02 178.781,226.426 179.194,225.796 C179.607,225.166 179.671,224.542 179.385,223.926 C179.146,223.411 178.822,223.129 178.413,223.077 C178.003,223.025 177.36,223.202 176.482,223.608 L174.76,224.408 C174.106,224.709 173.671,225.102 173.452,225.581 C173.233,226.062 173.259,226.593 173.528,227.175 L173.528,227.175 Z" id="Fill-120" fill="#BBBDBF" sketch:type="MSShapeGroup"></path>
        </g>
    </g>
</svg>