<?xml version="1.0" encoding="UTF-8" standalone="no"?>
<svg width="149px" height="86px" viewBox="0 0 149 86" version="1.1" xmlns="http://www.w3.org/2000/svg" xmlns:xlink="http://www.w3.org/1999/xlink" xmlns:sketch="http://www.bohemiancoding.com/sketch/ns">
    <!-- Generator: Sketch 3.3 (11970) - http://www.bohemiancoding.com/sketch -->
    <title>carbBeginingSelected</title>
    <desc>Created with Sketch.</desc>
    <defs></defs>
    <g id="Page-1" stroke="none" stroke-width="1" fill="none" fill-rule="evenodd" sketch:type="MSPage">
        <g id="carbBeginingSelected" sketch:type="MSLayerGroup" transform="translate(0.000000, -1.000000)">
            <path d="M1.581,24.547 C23.848,9.467 49.862,1.497 76.846,1.497 C101.778,1.497 126.176,8.484 147.433,21.706 L107.738,83.465 C98.368,77.865 87.682,74.909 76.799,74.909 C64.264,74.909 51.788,78.896 41.608,86.148 L1.581,24.547" id="Fill-1" fill="#FFFFFF" sketch:type="MSShapeGroup"></path>
            <path d="M76.837,0.997 L76.846,1.997 C101.519,1.999 125.663,8.865 146.737,21.864 L107.579,82.789 C98.231,77.303 87.611,74.409 76.799,74.409 C64.334,74.41 51.929,78.32 41.745,85.44 L2.268,24.687 C24.361,9.84 50.123,1.997 76.837,1.997 L76.837,0.997 M76.846,0.997 C49.925,0.995 23.359,9.076 0.895,24.41 L41.475,86.86 C51.794,79.369 64.212,75.41 76.799,75.409 C87.432,75.409 98.184,78.234 107.897,84.143 L148.127,21.551 C125.955,7.644 101.254,0.999 76.846,0.997" id="Fill-2" fill="#000000" sketch:type="MSShapeGroup"></path>
            <path d="M39.933,36.607 C41.256,36.131 42.445,36.213 43.503,36.854 C44.561,37.494 45.387,38.641 45.983,40.295 C46.576,41.947 46.67,43.365 46.262,44.547 C45.854,45.729 44.992,46.557 43.682,47.027 C43.028,47.264 42.385,47.358 41.756,47.311 C41.127,47.264 40.537,47.057 39.988,46.686 L39.879,46.725 L40.024,48.137 L38.93,48.529 L33.785,34.233 L35.311,33.684 L36.56,37.156 C36.84,37.936 37.066,38.643 37.24,39.279 L37.315,39.252 C37.663,37.992 38.536,37.11 39.933,36.607 L39.933,36.607 Z M40.172,37.965 C39.13,38.34 38.487,38.906 38.242,39.67 C37.998,40.434 38.131,41.522 38.64,42.938 C39.149,44.352 39.749,45.279 40.44,45.719 C41.131,46.16 41.997,46.192 43.039,45.817 C43.977,45.479 44.551,44.887 44.766,44.037 C44.979,43.189 44.856,42.125 44.395,40.846 C43.923,39.535 43.342,38.641 42.65,38.162 C41.96,37.686 41.133,37.617 40.172,37.965 L40.172,37.965 Z" id="Fill-3" fill="#000000" sketch:type="MSShapeGroup"></path>
            <path d="M54.594,43.901 C53.053,44.254 51.727,44.062 50.621,43.328 C49.514,42.596 48.768,41.393 48.385,39.723 C48,38.043 48.108,36.611 48.708,35.432 C49.309,34.25 50.307,33.502 51.703,33.18 C53.01,32.881 54.143,33.074 55.102,33.76 C56.061,34.444 56.701,35.49 57.026,36.899 L57.255,37.898 L50.068,39.549 C50.381,40.766 50.904,41.623 51.637,42.123 C52.369,42.625 53.269,42.752 54.334,42.506 C55.457,42.25 56.514,41.76 57.504,41.037 L57.828,42.447 C57.324,42.817 56.836,43.11 56.361,43.328 C55.888,43.549 55.299,43.738 54.594,43.901 L54.594,43.901 Z M51.988,34.508 C51.15,34.701 50.545,35.127 50.172,35.787 C49.799,36.447 49.679,37.27 49.811,38.254 L55.266,37.002 C55.037,36.006 54.64,35.295 54.074,34.867 C53.508,34.44 52.813,34.318 51.988,34.508 L51.988,34.508 Z" id="Fill-4" fill="#000000" sketch:type="MSShapeGroup"></path>
            <path d="M68.242,30.858 L68.358,31.875 L66.413,32.33 C66.619,32.537 66.814,32.815 66.998,33.164 C67.183,33.514 67.3,33.918 67.352,34.377 C67.469,35.418 67.207,36.291 66.566,36.99 C65.924,37.693 64.983,38.113 63.74,38.254 C63.423,38.289 63.123,38.297 62.838,38.277 C62.194,38.717 61.902,39.211 61.965,39.762 C61.997,40.053 62.141,40.254 62.396,40.365 C62.651,40.479 63.07,40.502 63.653,40.436 L65.534,40.225 C66.686,40.094 67.598,40.236 68.272,40.65 C68.944,41.066 69.332,41.736 69.436,42.662 C69.568,43.84 69.197,44.791 68.323,45.516 C67.448,46.24 66.105,46.703 64.293,46.908 C62.903,47.066 61.801,46.928 60.989,46.494 C60.177,46.061 59.718,45.373 59.611,44.43 C59.537,43.781 59.682,43.199 60.043,42.68 C60.403,42.162 60.949,41.775 61.682,41.522 C61.395,41.43 61.147,41.266 60.933,41.027 C60.719,40.789 60.593,40.498 60.555,40.156 C60.511,39.768 60.575,39.416 60.75,39.102 C60.924,38.787 61.219,38.469 61.635,38.147 C61.06,37.983 60.567,37.649 60.16,37.145 C59.753,36.639 59.51,36.039 59.431,35.34 C59.299,34.176 59.548,33.238 60.176,32.527 C60.803,31.819 61.757,31.393 63.038,31.246 C63.595,31.184 64.104,31.193 64.564,31.271 L68.242,30.858 L68.242,30.858 Z M61.019,35.121 C61.102,35.865 61.375,36.404 61.84,36.738 C62.303,37.072 62.91,37.197 63.66,37.113 C65.232,36.936 65.932,36.084 65.76,34.557 C65.58,32.959 64.693,32.25 63.104,32.43 C62.346,32.514 61.787,32.783 61.425,33.236 C61.063,33.691 60.928,34.318 61.019,35.121 L61.019,35.121 Z M61.162,44.235 C61.227,44.811 61.518,45.221 62.037,45.463 C62.556,45.705 63.269,45.776 64.174,45.674 C65.526,45.521 66.504,45.207 67.108,44.729 C67.713,44.25 67.977,43.666 67.898,42.973 C67.834,42.397 67.61,42.018 67.23,41.836 C66.849,41.652 66.166,41.615 65.184,41.727 L63.252,41.945 C62.522,42.027 61.971,42.266 61.604,42.662 C61.235,43.057 61.088,43.582 61.162,44.235 L61.162,44.235 Z" id="Fill-5" fill="#000000" sketch:type="MSShapeGroup"></path>
            <path d="M70.834,27.932 C70.822,27.563 70.904,27.287 71.082,27.109 C71.259,26.932 71.484,26.84 71.758,26.83 C72.018,26.822 72.244,26.902 72.439,27.072 C72.633,27.244 72.735,27.512 72.746,27.875 C72.758,28.238 72.671,28.514 72.488,28.697 C72.305,28.883 72.082,28.98 71.822,28.988 C71.549,28.994 71.318,28.912 71.131,28.738 C70.943,28.567 70.844,28.297 70.834,27.932 L70.834,27.932 Z M73,41.477 L71.379,41.525 L71.057,30.828 L72.678,30.779 L73,41.477 L73,41.477 Z" id="Fill-6" fill="#000000" sketch:type="MSShapeGroup"></path>
            <path d="M83.456,41.793 L83.865,34.883 C83.917,34.012 83.758,33.35 83.387,32.899 C83.016,32.445 82.407,32.194 81.563,32.145 C80.444,32.078 79.608,32.332 79.053,32.906 C78.496,33.479 78.178,34.461 78.095,35.852 L77.764,41.457 L76.145,41.361 L76.778,30.676 L78.094,30.754 L78.27,32.232 L78.348,32.236 C78.711,31.731 79.199,31.35 79.815,31.098 C80.43,30.844 81.105,30.738 81.839,30.779 C83.125,30.858 84.076,31.225 84.689,31.883 C85.302,32.543 85.568,33.555 85.487,34.92 L85.074,41.889 L83.456,41.793" id="Fill-7" fill="#000000" sketch:type="MSShapeGroup"></path>
            <path d="M89.658,42.607 L88.055,42.367 L89.639,31.783 L91.242,32.021 L89.658,42.607 L89.658,42.607 Z M89.933,28.895 C89.988,28.527 90.117,28.271 90.324,28.127 C90.529,27.982 90.768,27.932 91.039,27.973 C91.296,28.012 91.505,28.131 91.666,28.332 C91.826,28.535 91.879,28.816 91.826,29.178 C91.772,29.539 91.639,29.791 91.426,29.941 C91.211,30.092 90.977,30.145 90.719,30.108 C90.449,30.067 90.236,29.945 90.082,29.74 C89.929,29.537 89.879,29.254 89.933,28.895 L89.933,28.895 Z" id="Fill-8" fill="#000000" sketch:type="MSShapeGroup"></path>
            <path d="M99.901,44.783 L101.537,38.057 C101.742,37.209 101.703,36.529 101.418,36.018 C101.135,35.506 100.58,35.15 99.758,34.951 C98.67,34.687 97.802,34.787 97.152,35.252 C96.504,35.719 96.014,36.629 95.686,37.98 L94.359,43.438 L92.784,43.055 L95.312,32.654 L96.594,32.965 L96.504,34.451 L96.579,34.471 C97.026,34.035 97.575,33.748 98.225,33.607 C98.876,33.469 99.559,33.484 100.274,33.658 C101.526,33.965 102.395,34.496 102.881,35.252 C103.367,36.01 103.448,37.053 103.125,38.383 L101.477,45.168 L99.901,44.783" id="Fill-9" fill="#000000" sketch:type="MSShapeGroup"></path>
            <path d="M116.196,39.115 L115.837,40.074 L113.899,39.6 C113.99,39.877 114.037,40.213 114.043,40.608 C114.047,41.002 113.969,41.416 113.807,41.848 C113.44,42.83 112.811,43.488 111.92,43.822 C111.031,44.156 110,44.104 108.83,43.666 C108.531,43.555 108.26,43.426 108.017,43.277 C107.242,43.377 106.758,43.686 106.564,44.205 C106.461,44.479 106.498,44.723 106.675,44.94 C106.852,45.154 107.214,45.365 107.764,45.57 L109.537,46.234 C110.621,46.641 111.37,47.182 111.781,47.857 C112.192,48.533 112.234,49.307 111.908,50.18 C111.492,51.289 110.73,51.967 109.623,52.217 C108.515,52.465 107.106,52.27 105.399,51.631 C104.088,51.141 103.17,50.518 102.643,49.764 C102.113,49.01 102.018,48.19 102.351,47.297 C102.578,46.688 102.971,46.234 103.527,45.934 C104.084,45.637 104.746,45.541 105.514,45.647 C105.301,45.434 105.152,45.174 105.07,44.865 C104.988,44.557 105.008,44.24 105.128,43.916 C105.266,43.551 105.483,43.268 105.781,43.066 C106.078,42.865 106.486,42.715 107.002,42.615 C106.564,42.209 106.277,41.688 106.143,41.053 C106.008,40.42 106.065,39.773 106.312,39.113 C106.722,38.018 107.368,37.295 108.249,36.945 C109.13,36.6 110.174,36.65 111.381,37.104 C111.906,37.299 112.356,37.537 112.731,37.816 L116.196,39.115 L116.196,39.115 Z M103.82,47.828 C103.617,48.369 103.691,48.867 104.044,49.32 C104.396,49.77 104.999,50.156 105.852,50.477 C107.127,50.953 108.142,51.115 108.897,50.965 C109.652,50.813 110.153,50.412 110.396,49.758 C110.6,49.217 110.573,48.776 110.317,48.439 C110.061,48.105 109.469,47.764 108.542,47.416 L106.723,46.734 C106.033,46.477 105.435,46.44 104.928,46.625 C104.42,46.811 104.051,47.211 103.82,47.828 L103.82,47.828 Z M107.824,39.639 C107.563,40.34 107.563,40.945 107.823,41.453 C108.085,41.963 108.569,42.348 109.276,42.613 C110.758,43.168 111.768,42.727 112.307,41.287 C112.871,39.781 112.403,38.746 110.903,38.186 C110.19,37.918 109.568,37.906 109.041,38.145 C108.514,38.385 108.108,38.883 107.824,39.639 L107.824,39.639 Z" id="Fill-10" fill="#000000" sketch:type="MSShapeGroup"></path>
        </g>
    </g>
</svg>