<?xml version="1.0" encoding="UTF-8" standalone="no"?>
<svg width="143px" height="87px" viewBox="0 0 143 87" version="1.1" xmlns="http://www.w3.org/2000/svg" xmlns:xlink="http://www.w3.org/1999/xlink" xmlns:sketch="http://www.bohemiancoding.com/sketch/ns">
    <!-- Generator: Sketch 3.3 (11970) - http://www.bohemiancoding.com/sketch -->
    <title>carbEndSelected</title>
    <desc>Created with Sketch.</desc>
    <defs></defs>
    <g id="Page-1" stroke="none" stroke-width="1" fill="none" fill-rule="evenodd" sketch:type="MSPage">
        <g id="carbEndSelected" sketch:type="MSLayerGroup">
            <path d="M102.649,85.672 C101.908,85.155 101.166,84.661 100.438,84.2 C90.733,78.047 79.558,74.794 68.119,74.794 C58.71,74.794 49.308,77.02 40.895,81.233 L1.233,19.231 C21.563,7.553 44.7,1.382 68.181,1.382 C93.506,1.382 118.252,8.584 139.743,22.21 C140.519,22.702 141.285,23.201 142.047,23.706 C138.016,29.84 117.809,61.729 102.649,85.672" id="Fill-1" fill="#FFFFFF" sketch:type="MSShapeGroup"></path>
            <path d="M68.181,1.882 C93.412,1.882 118.065,9.057 139.476,22.633 C140.082,23.017 140.702,23.418 141.355,23.849 C136.77,30.872 117.309,61.582 102.505,84.964 C101.905,84.553 101.303,84.156 100.706,83.778 C90.921,77.574 79.653,74.295 68.119,74.295 C58.783,74.295 49.454,76.467 41.075,80.585 L1.938,19.404 C22.08,7.938 44.963,1.882 68.181,1.882 M68.181,0.882 C44.506,0.882 21.106,7.132 0.53,19.059 L40.718,81.882 C49.2,77.554 58.612,75.294 68.119,75.294 C79.1,75.294 90.21,78.307 100.171,84.623 C101.065,85.189 101.937,85.777 102.791,86.382 C120.245,58.814 139.584,28.309 142.738,23.566 C141.838,22.965 140.93,22.371 140.011,21.788 C117.691,7.636 92.788,0.882 68.181,0.882" id="Fill-2" fill="#000000" sketch:type="MSShapeGroup"></path>
            <path d="M60.39,41.828 C58.818,42.01 57.522,41.674 56.503,40.822 C55.484,39.971 54.876,38.693 54.68,36.992 C54.481,35.279 54.746,33.869 55.474,32.763 C56.201,31.655 57.275,31.02 58.699,30.855 C60.031,30.703 61.136,31.019 62.014,31.805 C62.891,32.592 63.412,33.702 63.578,35.139 L63.695,36.157 L56.372,37.004 C56.548,38.248 56.973,39.159 57.645,39.736 C58.318,40.314 59.198,40.541 60.285,40.415 C61.43,40.282 62.533,39.912 63.598,39.305 L63.764,40.74 C63.223,41.053 62.704,41.291 62.209,41.456 C61.713,41.622 61.107,41.745 60.39,41.828 L60.39,41.828 Z M58.835,32.206 C57.981,32.305 57.332,32.662 56.889,33.277 C56.445,33.892 56.235,34.696 56.259,35.689 L61.818,35.047 C61.701,34.032 61.385,33.28 60.869,32.793 C60.354,32.305 59.676,32.109 58.835,32.206 L58.835,32.206 Z" id="Fill-3" fill="#000000" sketch:type="MSShapeGroup"></path>
            <path d="M73.967,41.1 L74.004,34.176 C74.009,33.305 73.815,32.652 73.42,32.221 C73.024,31.789 72.404,31.57 71.558,31.566 C70.437,31.56 69.615,31.857 69.092,32.461 C68.568,33.064 68.303,34.061 68.295,35.455 L68.264,41.07 L66.643,41.062 L66.701,30.358 L68.018,30.365 L68.275,31.831 L68.352,31.832 C68.688,31.307 69.156,30.9 69.756,30.614 C70.355,30.328 71.024,30.186 71.76,30.189 C73.049,30.197 74.018,30.514 74.666,31.138 C75.312,31.764 75.633,32.76 75.625,34.127 L75.588,41.109 L73.967,41.1" id="Fill-4" fill="#000000" sketch:type="MSShapeGroup"></path>
            <path d="M85.893,40.846 L85.805,40.834 C84.92,41.814 83.739,42.207 82.262,42.012 C80.873,41.828 79.856,41.211 79.211,40.16 C78.564,39.109 78.357,37.709 78.59,35.959 C78.82,34.211 79.387,32.902 80.289,32.037 C81.191,31.173 82.334,30.83 83.715,31.014 C85.154,31.203 86.19,31.872 86.818,33.019 L86.944,33.035 L86.978,32.262 L87.037,31.512 L87.608,27.193 L89.216,27.406 L87.225,42.471 L85.917,42.297 L85.893,40.846 L85.893,40.846 Z M82.643,40.693 C83.74,40.836 84.574,40.643 85.148,40.111 C85.72,39.581 86.094,38.65 86.269,37.32 L86.314,36.98 C86.514,35.478 86.405,34.371 85.99,33.662 C85.574,32.955 84.818,32.527 83.721,32.383 C82.779,32.259 82.009,32.53 81.412,33.195 C80.814,33.862 80.429,34.863 80.252,36.199 C80.072,37.555 80.186,38.61 80.591,39.367 C80.997,40.123 81.682,40.564 82.643,40.693 L82.643,40.693 Z" id="Fill-5" fill="#000000" sketch:type="MSShapeGroup"></path>
        </g>
    </g>
</svg>