<?xml version="1.0" encoding="UTF-8" standalone="no"?>
<svg width="15px" height="54px" viewBox="0 0 15 54" version="1.1" xmlns="http://www.w3.org/2000/svg" xmlns:xlink="http://www.w3.org/1999/xlink" xmlns:sketch="http://www.bohemiancoding.com/sketch/ns">
    <!-- Generator: Sketch 3.3 (11970) - http://www.bohemiancoding.com/sketch -->
    <title>cgmIcon</title>
    <desc>Created with Sketch.</desc>
    <defs></defs>
    <g id="Page-1" stroke="none" stroke-width="1" fill="none" fill-rule="evenodd" sketch:type="MSPage">
        <g id="cgmIcon" sketch:type="MSLayerGroup" transform="translate(0.351582, 0.364000)">
            <path d="M0.351581543,0.274772152 L14.3515815,0.274772152 L14.3515815,53.2747722 L0.351581543,53.2747722 L0.351581543,0.274772152 Z M7.25969547,26.5921182 C5.63548028,26.5921182 3.06464483,26.5176499 2.74530306,25.9172068 C2.36155623,25.1939917 2.14754357,20.7366246 2.20255623,14.0512448 C2.23006256,10.8001309 2.83318914,5.71816887 3.37660686,5.25995368 C3.41082205,5.23043469 5.31748028,3.8665233 7.18254357,3.86249798 C8.97246762,3.86115621 11.1394296,4.85138406 11.3219107,5.25995368 C11.8626448,6.46889039 12.1095309,11.0718398 12.1450879,13.5118524 C12.2531005,20.6467258 12.0015183,25.1691689 11.6741258,25.9172068 C11.4641385,26.3948777 8.9543537,26.5921182 7.25969547,26.5921182 Z M7.09264483,52.062979 C3.68991066,52.062979 2.03148028,49.2875233 2.03148028,46.8173208 C2.03148028,45.6352195 2.68760686,43.7218524 3.41082205,42.0359157 C3.44101192,41.9661436 6.06216382,35.2197132 6.09839167,35.1224347 C6.38955623,34.3341436 7.25902458,32.6898018 8.08823977,35.1224347 C8.08823977,35.1224347 10.8328347,42.1687511 10.8744296,42.2667005 C11.6043537,43.9633714 12.1484423,45.6278398 12.1484423,46.8173208 C12.1484423,49.2875233 10.4933664,52.062979 7.09264483,52.062979 Z" id="Rectangle-2" fill="#000000" sketch:type="MSShapeGroup"></path>
            <g id="Fill-1-Copy-+-Fill-3-Copy" transform="translate(0.000000, 0.799988)" fill="#FFFFFF" sketch:type="MSShapeGroup">
                <path d="M7.30732838,26.9568734 C4.9115942,26.9568734 1.94023977,27.0031646 1.38340433,26.2484177 C0.827239771,25.4856203 0.0637714167,21.8393544 0.521986607,15.5142405 C0.992277746,9.02543038 2.43065749,2.54064557 2.93583471,1.78120253 C3.59196129,0.796341772 4.79754357,0.150278481 7.19931572,0.150278481 C9.59169547,0.150278481 10.7516575,0.95735443 11.3091638,1.71344304 C11.8639866,2.47221519 13.4432524,8.47396203 13.7833917,14.8192025 C14.1248727,21.1570633 13.5331512,25.5574051 13.0011385,26.252443 C12.4671132,26.9528481 9.70910053,26.9568734 7.30732838,26.9568734 Z M7.25969547,25.7747722 C5.63548028,25.7747722 3.06464483,25.7003038 2.74530306,25.0998608 C2.36155623,24.3766456 2.14754357,19.9192785 2.20255623,13.2338987 C2.23006256,9.98278481 2.83318914,4.90082278 3.37660686,4.44260759 C3.41082205,4.41308861 5.31748028,3.04917722 7.18254357,3.0451519 C8.97246762,3.04381013 11.1394296,4.03403797 11.3219107,4.44260759 C11.8626448,5.6515443 12.1095309,10.2544937 12.1450879,12.6945063 C12.2531005,19.8293797 12.0015183,24.3518228 11.6741258,25.0998608 C11.4641385,25.5775316 8.9543537,25.7747722 7.25969547,25.7747722 Z" id="Fill-1-Copy"></path>
                <path d="M7.09331572,52.364 C2.71377142,52.364 0.351581543,48.7767722 0.351581543,45.4008734 C0.351581543,40.9052658 6.27416382,31.4605316 6.5257461,31.0606835 L7.09398661,30.1603544 L7.66021445,31.0606835 C7.91313851,31.4605316 13.828341,40.9052658 13.828341,45.4008734 C13.828341,48.7767722 11.4681638,52.364 7.09331572,52.364 Z M7.09264483,51.2456329 C3.68991066,51.2456329 2.03148028,48.4701772 2.03148028,45.9999747 C2.03148028,44.8178734 2.68760686,42.9045063 3.41082205,41.2185696 C3.44101192,41.1487975 6.06216382,34.4023671 6.09839167,34.3050886 C6.38955623,33.5167975 7.25902458,31.8724557 8.08823977,34.3050886 C8.08823977,34.3050886 10.8328347,41.3514051 10.8744296,41.4493544 C11.6043537,43.1460253 12.1484423,44.8104937 12.1484423,45.9999747 C12.1484423,48.4701772 10.4933664,51.2456329 7.09264483,51.2456329 Z" id="Fill-3-Copy"></path>
            </g>
        </g>
    </g>
</svg>