<?xml version="1.0" encoding="UTF-8" standalone="no"?>
<svg width="360px" height="591px" viewBox="0 0 360 591" version="1.1" xmlns="http://www.w3.org/2000/svg" xmlns:xlink="http://www.w3.org/1999/xlink" xmlns:sketch="http://www.bohemiancoding.com/sketch/ns">
    <!-- Generator: Sketch 3.3 (11970) - http://www.bohemiancoding.com/sketch -->
    <title>cgmTransmitterAlert</title>
    <desc>Created with Sketch.</desc>
    <defs></defs>
    <g id="Page-1" stroke="none" stroke-width="1" fill="none" fill-rule="evenodd" sketch:type="MSPage">
        <g id="cgmTransmitterAlert" sketch:type="MSLayerGroup">
            <g id="Page-1" sketch:type="MSShapeGroup">
                <g id="cgmTransmitterAlert">
                    <path d="M0.592902033,0.210942699 L359.927468,0.210942699 L359.927468,590.451238 L0.592902033,590.451238 L0.592902033,0.210942699 L0.592902033,0.210942699 Z" id="Fill-610" fill="#000000"></path>
                    <path d="M92.3123845,426.667874 C90.9043253,426.667874 89.7997043,426.156821 88.9991867,425.134713 L88.8275046,425.134713 C88.9419593,426.135527 88.9991867,426.714455 88.9991867,426.871497 L88.9991867,431.728503 L85.7292421,431.728503 L85.7292421,414.465804 L88.3883179,414.465804 L88.849464,416.020259 L88.9991867,416.020259 C89.7637708,414.833789 90.8970055,414.240887 92.3982255,414.240887 C93.8136044,414.240887 94.9215527,414.787209 95.7220702,415.881183 C96.5225878,416.975157 96.9231793,418.493678 96.9231793,420.438078 C96.9231793,421.717708 96.7355268,422.828983 96.3602218,423.772569 C95.9842514,424.716155 95.450573,425.434824 94.7571904,425.927911 C94.0638078,426.420998 93.2486506,426.667874 92.3123845,426.667874 L92.3123845,426.667874 L92.3123845,426.667874 Z M91.3475046,416.85671 C90.5396673,416.85671 89.949427,417.105582 89.5781146,417.601996 C89.2061368,418.099076 89.0131608,418.918891 88.9991867,420.062773 L88.9991867,420.416784 C88.9991867,421.703734 89.1908318,422.62536 89.5727911,423.182994 C89.9554159,423.740628 90.5609612,424.019445 91.3900924,424.019445 C92.8560444,424.019445 93.5880222,422.811682 93.5880222,420.39549 C93.5880222,419.215675 93.4076895,418.331312 93.047024,417.741738 C92.6856932,417.151497 92.1194085,416.85671 91.3475046,416.85671 L91.3475046,416.85671 L91.3475046,416.85671 Z" id="Fill-611" fill="#FFFFFF"></path>
                    <path d="M99.4777819,409.769168 L102.747726,409.769168 L102.747726,426.452939 L99.4777819,426.452939 L99.4777819,409.769168 L99.4777819,409.769168 Z" id="Fill-612" fill="#FFFFFF"></path>
                    <path d="M111.411682,426.667874 C109.481922,426.667874 107.973383,426.135527 106.886728,425.070166 C105.800739,424.004806 105.257079,422.496932 105.257079,420.545213 C105.257079,418.536932 105.759482,416.983808 106.763623,415.886506 C107.767763,414.789205 109.15586,414.240887 110.929242,414.240887 C112.624104,414.240887 113.942329,414.723327 114.885915,415.688207 C115.829501,416.653087 116.301294,417.986617 116.301294,419.687468 L116.301294,421.274529 L108.570277,421.274529 C108.605545,422.20414 108.881701,422.929464 109.396081,423.451165 C109.910462,423.972865 110.632458,424.233715 111.56207,424.233715 C112.284067,424.233715 112.966802,424.159187 113.610277,424.008799 C114.253752,423.85841 114.925176,423.619519 115.625878,423.290129 L115.625878,425.820776 C115.053604,426.106913 114.442736,426.319852 113.791941,426.458928 C113.141811,426.598669 112.347948,426.667874 111.411682,426.667874 L111.411682,426.667874 L111.411682,426.667874 Z M110.951201,416.567246 C110.257153,416.567246 109.713494,416.786839 109.321553,417.227357 C108.927616,417.666543 108.702699,418.290055 108.645471,419.097893 L113.234307,419.097893 C113.220333,418.290055 113.010055,417.666543 112.601479,417.227357 C112.194898,416.786839 111.643919,416.567246 110.951201,416.567246 L110.951201,416.567246 L110.951201,416.567246 Z" id="Fill-613" fill="#FFFFFF"></path>
                    <path d="M126.379963,426.453604 L125.7478,424.823956 L125.661959,424.823956 C125.11098,425.516673 124.544695,425.997782 123.96244,426.265287 C123.379519,426.534122 122.620259,426.667874 121.683993,426.667874 C120.532791,426.667874 119.627135,426.33915 118.965693,425.681701 C118.304917,425.023586 117.974196,424.08732 117.974196,422.872237 C117.974196,421.599926 118.419372,420.661664 119.308392,420.057449 C120.198743,419.4539 121.540924,419.119187 123.334935,419.055305 L125.415083,418.990758 L125.415083,418.465065 C125.415083,417.249982 124.793567,416.64244 123.549205,416.64244 C122.591645,416.64244 121.465065,416.931904 120.172126,417.510832 L119.088799,415.302255 C120.468909,414.580259 121.998078,414.218928 123.678299,414.218928 C125.286654,414.218928 126.519704,414.569612 127.377449,415.270314 C128.235194,415.970351 128.664399,417.035712 128.664399,418.465065 L128.664399,426.453604 L126.379963,426.453604 L126.379963,426.453604 Z M125.415083,420.899224 L124.150092,420.942477 C123.199187,420.970425 122.49183,421.142107 122.026691,421.456858 C121.562218,421.771608 121.330647,422.250055 121.330647,422.89353 C121.330647,423.815823 121.858336,424.276969 122.917043,424.276969 C123.674307,424.276969 124.280518,424.058706 124.734344,423.622847 C125.18817,423.186987 125.415083,422.607394 125.415083,421.885397 L125.415083,420.899224 L125.415083,420.899224 Z" id="Fill-614" fill="#FFFFFF"></path>
                    <path d="M140.300185,422.89353 C140.300185,424.123253 139.873641,425.059519 139.018558,425.702994 C138.164806,426.34647 136.886506,426.667874 135.186322,426.667874 C134.313272,426.667874 133.569982,426.608651 132.955786,426.490869 C132.340259,426.373087 131.765323,426.199409 131.228983,425.971165 L131.228983,423.268835 C131.836525,423.554972 132.521257,423.794529 133.282514,423.987505 C134.043771,424.180481 134.714529,424.276969 135.292791,424.276969 C136.479261,424.276969 137.072828,423.933604 137.072828,423.247542 C137.072828,422.990018 136.994307,422.781072 136.836599,422.620037 C136.679556,422.459667 136.408059,422.276673 136.022107,422.073715 C135.636155,421.869427 135.121109,421.631867 134.477634,421.36037 C133.556007,420.974418 132.878595,420.617079 132.446728,420.288355 C132.01353,419.958965 131.699445,419.582329 131.503142,419.157116 C131.305508,418.731904 131.207689,418.208207 131.207689,417.586026 C131.207689,416.520665 131.620259,415.697523 132.446728,415.114603 C133.271867,414.532348 134.442366,414.240887 135.958226,414.240887 C137.401553,414.240887 138.806285,414.554972 140.171756,415.184473 L139.185582,417.543438 C138.584695,417.285915 138.023068,417.074972 137.502033,416.91061 C136.979667,416.746248 136.44732,416.663734 135.904325,416.663734 C134.939445,416.663734 134.457006,416.924584 134.457006,417.44695 C134.457006,417.739741 134.612052,417.993272 134.92281,418.208207 C135.234233,418.422477 135.914972,418.740555 136.965693,419.16244 C137.901959,419.541072 138.588022,419.895083 139.023882,420.223808 C139.460407,420.552532 139.781811,420.931165 139.989427,421.36037 C140.196377,421.789575 140.300185,422.299963 140.300185,422.89353" id="Fill-615" fill="#FFFFFF"></path>
                    <path d="M148.139667,426.667874 C146.209242,426.667874 144.701368,426.135527 143.614713,425.070166 C142.528059,424.004806 141.985065,422.496932 141.985065,420.545213 C141.985065,418.536932 142.486802,416.983808 143.490943,415.886506 C144.495749,414.789205 145.883845,414.240887 147.656562,414.240887 C149.351423,414.240887 150.669649,414.723327 151.613235,415.688207 C152.556821,416.653087 153.028614,417.986617 153.028614,419.687468 L153.028614,421.274529 L145.297597,421.274529 C145.33353,422.20414 145.60902,422.929464 146.123401,423.451165 C146.638447,423.972865 147.360444,424.233715 148.28939,424.233715 C149.011386,424.233715 149.694122,424.159187 150.337597,424.008799 C150.981072,423.85841 151.652495,423.619519 152.353198,423.290129 L152.353198,425.820776 C151.780924,426.106913 151.170055,426.319852 150.519926,426.458928 C149.869131,426.598669 149.075933,426.667874 148.139667,426.667874 L148.139667,426.667874 L148.139667,426.667874 Z M147.678521,416.567246 C146.984473,416.567246 146.441479,416.786839 146.048872,417.227357 C145.654935,417.666543 145.430018,418.290055 145.372791,419.097893 L149.962292,419.097893 C149.947652,418.290055 149.737375,417.666543 149.329464,417.227357 C148.922218,416.786839 148.371238,416.567246 147.678521,416.567246 L147.678521,416.567246 L147.678521,416.567246 Z" id="Fill-616" fill="#FFFFFF"></path>
                    <path d="M168.082736,414.240887 C168.525915,414.240887 168.8939,414.272828 169.187357,414.337375 L168.940481,417.403697 C168.676303,417.332495 168.354233,417.296562 167.975601,417.296562 C166.9322,417.296562 166.119039,417.564732 165.536118,418.100407 C164.953863,418.636747 164.661738,419.387357 164.661738,420.352237 L164.661738,426.453604 L161.392458,426.453604 L161.392458,414.465804 L163.869205,414.465804 L164.351645,416.481405 L164.51268,416.481405 C164.883993,415.809982 165.386396,415.268318 166.019224,414.857079 C166.651386,414.446506 167.339445,414.240887 168.082736,414.240887" id="Fill-617" fill="#FFFFFF"></path>
                    <path d="M176.54573,426.667874 C174.61597,426.667874 173.107431,426.135527 172.020776,425.070166 C170.934122,424.004806 170.391128,422.496932 170.391128,420.545213 C170.391128,418.536932 170.89353,416.983808 171.897671,415.886506 C172.901811,414.789205 174.289908,414.240887 176.062625,414.240887 C177.757486,414.240887 179.076377,414.723327 180.019963,415.688207 C180.963549,416.653087 181.435342,417.986617 181.435342,419.687468 L181.435342,421.274529 L173.70366,421.274529 C173.739593,422.20414 174.015083,422.929464 174.530129,423.451165 C175.04451,423.972865 175.766506,424.233715 176.696118,424.233715 C177.418115,424.233715 178.10085,424.159187 178.744325,424.008799 C179.3878,423.85841 180.058558,423.619519 180.759926,423.290129 L180.759926,425.820776 C180.187652,426.106913 179.576784,426.319852 178.925989,426.458928 C178.27586,426.598669 177.481996,426.667874 176.54573,426.667874 L176.54573,426.667874 L176.54573,426.667874 Z M176.08525,416.567246 C175.391201,416.567246 174.847542,416.786839 174.454935,417.227357 C174.061664,417.666543 173.836747,418.290055 173.779519,419.097893 L178.368355,419.097893 C178.354381,418.290055 178.143438,417.666543 177.735527,417.227357 C177.328946,416.786839 176.777967,416.567246 176.08525,416.567246 L176.08525,416.567246 L176.08525,416.567246 Z" id="Fill-618" fill="#FFFFFF"></path>
                    <path d="M190.563105,426.667874 C189.155046,426.667874 188.050425,426.156821 187.249908,425.134713 L187.078226,425.134713 C187.19268,426.135527 187.249908,426.714455 187.249908,426.871497 L187.249908,431.728503 L183.979963,431.728503 L183.979963,414.465804 L186.639039,414.465804 L187.100185,416.020259 L187.249908,416.020259 C188.014492,414.833789 189.147726,414.240887 190.648946,414.240887 C192.064325,414.240887 193.172274,414.787209 193.973457,415.881183 C194.773974,416.975157 195.1739,418.493678 195.1739,420.438078 C195.1739,421.717708 194.986248,422.828983 194.610943,423.772569 C194.235638,424.716155 193.701294,425.434824 193.007911,425.927911 C192.314529,426.420998 191.499372,426.667874 190.563105,426.667874 L190.563105,426.667874 L190.563105,426.667874 Z M189.598226,416.85671 C188.790388,416.85671 188.200148,417.105582 187.829501,417.601996 C187.457523,418.099076 187.264547,418.918891 187.249908,420.062773 L187.249908,420.416784 C187.249908,421.703734 187.441553,422.62536 187.823512,423.182994 C188.206802,423.740628 188.812348,424.019445 189.641479,424.019445 C191.106765,424.019445 191.838743,422.811682 191.838743,420.39549 C191.838743,419.215675 191.659076,418.331312 191.297745,417.741738 C190.937079,417.151497 190.370129,416.85671 189.598226,416.85671 L189.598226,416.85671 L189.598226,416.85671 Z" id="Fill-619" fill="#FFFFFF"></path>
                    <path d="M197.728503,409.769168 L200.998447,409.769168 L200.998447,426.452939 L197.728503,426.452939 L197.728503,409.769168 L197.728503,409.769168 Z" id="Fill-620" fill="#FFFFFF"></path>
                    <path d="M211.773161,426.453604 L211.140333,424.823956 L211.054492,424.823956 C210.503512,425.516673 209.937893,425.997782 209.354972,426.265287 C208.772717,426.534122 208.012791,426.667874 207.076525,426.667874 C205.925323,426.667874 205.019667,426.33915 204.358226,425.681701 C203.697449,425.023586 203.366728,424.08732 203.366728,422.872237 C203.366728,421.599926 203.811904,420.661664 204.700924,420.057449 C205.591275,419.4539 206.933457,419.119187 208.727468,419.055305 L210.807616,418.990758 L210.807616,418.465065 C210.807616,417.249982 210.1861,416.64244 208.942403,416.64244 C207.984177,416.64244 206.858262,416.931904 205.564658,417.510832 L204.481996,415.302255 C205.861442,414.580259 207.391275,414.218928 209.070832,414.218928 C210.679187,414.218928 211.912902,414.569612 212.770647,415.270314 C213.628392,415.970351 214.056932,417.035712 214.056932,418.465065 L214.056932,426.453604 L211.773161,426.453604 L211.773161,426.453604 Z M210.807616,420.899224 L209.542625,420.942477 C208.591719,420.970425 207.884362,421.142107 207.419224,421.456858 C206.95475,421.771608 206.723179,422.250055 206.723179,422.89353 C206.723179,423.815823 207.250869,424.276969 208.309575,424.276969 C209.066839,424.276969 209.67305,424.058706 210.126876,423.622847 C210.580702,423.186987 210.807616,422.607394 210.807616,421.885397 L210.807616,420.899224 L210.807616,420.899224 Z" id="Fill-621" fill="#FFFFFF"></path>
                    <path d="M222.097375,426.667874 C218.366285,426.667874 216.500407,424.619667 216.500407,420.523919 C216.500407,418.487024 217.008133,416.930573 218.022921,415.854566 C219.037708,414.778558 220.492348,414.240887 222.386839,414.240887 C223.773604,414.240887 225.017301,414.512384 226.11793,415.055379 L225.153715,417.586026 C224.639335,417.37841 224.159556,417.20939 223.716377,417.076969 C223.273198,416.944547 222.830018,416.878669 222.386839,416.878669 C220.685323,416.878669 219.835564,418.086433 219.835564,420.502625 C219.835564,422.84695 220.685323,424.019445 222.386839,424.019445 C223.015675,424.019445 223.598595,423.935601 224.13427,423.767911 C224.67061,423.599556 225.20695,423.33671 225.74329,422.979372 L225.74329,425.778189 C225.21427,426.114233 224.679926,426.34647 224.140259,426.474898 C223.600591,426.603327 222.919852,426.667874 222.097375,426.667874" id="Fill-622" fill="#FFFFFF"></path>
                    <path d="M233.653309,426.667874 C231.723549,426.667874 230.215009,426.135527 229.128355,425.070166 C228.042366,424.004806 227.498706,422.496932 227.498706,420.545213 C227.498706,418.536932 228.001109,416.983808 229.00525,415.886506 C230.010055,414.789205 231.398152,414.240887 233.170869,414.240887 C234.86573,414.240887 236.183956,414.723327 237.127542,415.688207 C238.071128,416.653087 238.542921,417.986617 238.542921,419.687468 L238.542921,421.274529 L230.811904,421.274529 C230.847837,422.20414 231.123327,422.929464 231.637708,423.451165 C232.152754,423.972865 232.874085,424.233715 233.803697,424.233715 C234.525693,424.233715 235.208429,424.159187 235.851904,424.008799 C236.495379,423.85841 237.166802,423.619519 237.867505,423.290129 L237.867505,425.820776 C237.295231,426.106913 236.684362,426.319852 236.033567,426.458928 C235.383438,426.598669 234.59024,426.667874 233.653309,426.667874 L233.653309,426.667874 L233.653309,426.667874 Z M233.192828,416.567246 C232.49878,416.567246 231.95512,416.786839 231.563179,417.227357 C231.169242,417.666543 230.944325,418.290055 230.887098,419.097893 L235.475933,419.097893 C235.461959,418.290055 235.251682,417.666543 234.843105,417.227357 C234.436525,416.786839 233.885545,416.567246 233.192828,416.567246 L233.192828,416.567246 L233.192828,416.567246 Z" id="Fill-623" fill="#FFFFFF"></path>
                    <path d="M257.971608,426.453604 L254.701664,426.453604 L254.701664,419.451904 C254.701664,418.586839 254.547948,417.938041 254.240518,417.506174 C253.933087,417.073641 253.442662,416.85671 252.771904,416.85671 C251.856266,416.85671 251.19549,417.16281 250.787579,417.773678 C250.380333,418.385213 250.176044,419.398004 250.176044,420.813383 L250.176044,426.453604 L246.9061,426.453604 L246.9061,414.465804 L249.40414,414.465804 L249.843993,415.998965 L250.026987,415.998965 C250.390314,415.420037 250.892717,414.982181 251.532865,414.685397 C252.172348,414.389279 252.900333,414.240887 253.71549,414.240887 C255.108244,414.240887 256.166285,414.618189 256.888946,415.37146 C257.610277,416.126063 257.971608,417.214048 257.971608,418.636747 L257.971608,426.453604" id="Fill-624" fill="#FFFFFF"></path>
                    <path d="M272.010943,420.438078 C272.010943,422.389797 271.495896,423.915638 270.46647,425.016932 C269.437708,426.11756 268.003697,426.667874 266.167763,426.667874 C265.015896,426.667874 264.001109,426.415675 263.122736,425.911941 C262.242366,425.408207 261.567616,424.684214 261.095823,423.740628 C260.62403,422.797043 260.3878,421.696414 260.3878,420.438078 C260.3878,418.479704 260.898854,416.95719 261.921627,415.870536 C262.943068,414.783882 264.379741,414.240887 266.23098,414.240887 C267.382181,414.240887 268.397634,414.491091 269.276673,414.991497 C270.156377,415.491904 270.831793,416.209908 271.302921,417.146174 C271.774713,418.083105 272.010943,419.180407 272.010943,420.438078 L272.010943,420.438078 L272.010943,420.438078 Z M263.722957,420.438078 C263.722957,421.624547 263.917264,422.522218 264.307209,423.12976 C264.696488,423.737301 265.330647,424.040739 266.210351,424.040739 C267.08207,424.040739 267.709575,423.739298 268.091534,423.134418 C268.474159,422.530869 268.665139,421.631867 268.665139,420.438078 C268.665139,419.251608 268.472828,418.361922 268.086876,417.768355 C267.700259,417.174787 267.068096,416.878669 266.188392,416.878669 C265.316007,416.878669 264.687172,417.173457 264.30122,417.763031 C263.915268,418.352606 263.722957,419.244288 263.722957,420.438078 L263.722957,420.438078 L263.722957,420.438078 Z" id="Fill-625" fill="#FFFFFF"></path>
                    <path d="M284.175749,426.453604 L283.253457,422.261368 L282.009094,416.963845 L281.934566,416.963845 L279.747283,426.453604 L276.230462,426.453604 L272.820776,414.465804 L276.080074,414.465804 L277.462847,419.773309 C277.684436,420.724214 277.910018,422.035786 278.138928,423.708688 L278.203475,423.708688 C278.232089,423.165028 278.356525,422.303956 278.578115,421.12414 L278.749797,420.213161 L280.229723,414.465804 L283.832384,414.465804 L285.237116,420.213161 C285.26573,420.370203 285.310314,420.60244 285.370869,420.909871 C285.432089,421.217301 285.490647,421.544695 285.547874,421.890721 C285.605102,422.238078 285.657006,422.577449 285.703586,422.910166 C285.749501,423.242218 285.776118,423.508392 285.783438,423.708688 L285.848651,423.708688 C285.912532,423.193641 286.026322,422.488281 286.191349,421.59061 C286.355046,420.693604 286.473494,420.088059 286.54536,419.773309 L287.982033,414.465804 L291.187431,414.465804 L287.735823,426.453604 L284.175749,426.453604" id="Fill-626" fill="#FFFFFF"></path>
                    <path d="M139.989427,338.654861 C143.753789,338.654861 146.488059,341.401774 146.488059,345.149501 L146.488059,347.926359 C146.488059,351.687394 143.753789,354.657893 139.989427,354.657893 C136.163179,354.657893 133.373013,351.687394 133.373013,347.926359 L133.373013,345.149501 C133.373013,341.401774 136.163179,338.654861 139.989427,338.654861 L139.989427,338.654861 L139.989427,338.654861 Z M133.508096,260.745804 C133.373013,258.231128 135.158373,256.271423 137.535305,256.271423 L142.308466,256.271423 C144.859741,256.271423 146.488059,258.231128 146.42817,260.745804 L143.174861,323.775749 C143.039113,325.538484 141.677634,326.96451 139.989427,326.96451 C138.185434,326.96451 136.740776,325.538484 136.657597,323.775749 L133.508096,260.745804 L133.508096,260.745804 Z" id="Fill-979" fill="#FFFFFF"></path>
                    <path d="M216.431201,257.707431 C216.431201,259.654492 214.852791,261.232902 212.90573,261.232902 C210.957338,261.232902 209.379593,259.654492 209.379593,257.707431 C209.379593,257.523105 209.398891,257.344104 209.425508,257.166433 C202.086433,257.592311 199.117264,260.273346 197.252052,262.804658 C195.228466,265.571534 189.469797,287.443697 188.230758,310.569538 C186.987061,333.668096 189.145065,349.708392 191.08281,352.239704 C192.085619,353.555933 195.243105,354.194085 199.261664,354.509501 L199.261664,353.07549 C199.261664,352.334196 199.86122,351.733309 200.605176,351.733309 L221.984251,351.733309 C222.726211,351.733309 223.327763,352.334196 223.327763,353.07549 L223.327763,354.657893 C228.215379,354.41634 232.263882,353.798817 233.428392,352.225065 C235.455305,349.445545 238.236155,336.157486 236.56658,313.102847 C234.853752,289.451312 229.61146,265.817079 227.767542,263.047542 C225.877708,260.208799 221.982255,258.145287 216.415896,257.405989 C216.425878,257.505804 216.431201,257.604954 216.431201,257.707431 L216.431201,257.707431 L216.431201,257.707431 Z" id="Fill-980" fill="#FFFFFF"></path>
                    <path d="M216.431201,257.707431 C216.431201,259.654492 214.852791,261.232902 212.90573,261.232902 C210.957338,261.232902 209.379593,259.654492 209.379593,257.707431 C209.379593,257.523105 209.398891,257.344104 209.425508,257.166433 C202.086433,257.592311 199.117264,260.273346 197.252052,262.804658 C195.228466,265.571534 189.469797,287.443697 188.230758,310.569538 C186.987061,333.668096 189.145065,349.708392 191.08281,352.239704 C192.085619,353.555933 195.243105,354.194085 199.261664,354.509501 L199.261664,353.07549 C199.261664,352.334196 199.86122,351.733309 200.605176,351.733309 L221.984251,351.733309 C222.726211,351.733309 223.327763,352.334196 223.327763,353.07549 L223.327763,354.657893 C228.215379,354.41634 232.263882,353.798817 233.428392,352.225065 C235.455305,349.445545 238.236155,336.157486 236.56658,313.102847 C234.853752,289.451312 229.61146,265.817079 227.767542,263.047542 C225.877708,260.208799 221.982255,258.145287 216.415896,257.405989 C216.425878,257.505804 216.431201,257.604954 216.431201,257.707431 L216.431201,257.707431 L216.431201,257.707431 Z" id="Stroke-981" stroke="#231F1F" stroke-width="3.793"></path>
                    <path d="M213.652348,323.415083 C212.354085,323.415083 211.300702,324.46647 211.300702,325.764732 C211.300702,327.061664 212.354085,328.114381 213.652348,328.114381 C214.949945,328.114381 216.002662,327.061664 216.002662,325.764732 C216.002662,324.46647 214.949945,323.415083 213.652348,323.415083 L213.652348,323.415083 L213.652348,323.415083 Z" id="Fill-982" fill="#FFFFFF"></path>
                    <path d="M213.652348,323.415083 C212.354085,323.415083 211.300702,324.46647 211.300702,325.764732 C211.300702,327.061664 212.354085,328.114381 213.652348,328.114381 C214.949945,328.114381 216.002662,327.061664 216.002662,325.764732 C216.002662,324.46647 214.949945,323.415083 213.652348,323.415083 L213.652348,323.415083 L213.652348,323.415083 Z" id="Stroke-983" stroke="#231F1F" stroke-width="3.793"></path>
                    <path d="M213.652348,311.324806 C212.354085,311.324806 211.300702,312.376858 211.300702,313.67512 C211.300702,314.972717 212.354085,316.024769 213.652348,316.024769 C214.949945,316.024769 216.002662,314.972717 216.002662,313.67512 C216.002662,312.376858 214.949945,311.324806 213.652348,311.324806 L213.652348,311.324806 L213.652348,311.324806 Z" id="Fill-984" fill="#FFFFFF"></path>
                    <path d="M213.652348,311.324806 C212.354085,311.324806 211.300702,312.376858 211.300702,313.67512 C211.300702,314.972717 212.354085,316.024769 213.652348,316.024769 C214.949945,316.024769 216.002662,314.972717 216.002662,313.67512 C216.002662,312.376858 214.949945,311.324806 213.652348,311.324806 L213.652348,311.324806 L213.652348,311.324806 Z" id="Stroke-985" stroke="#231F1F" stroke-width="3.793"></path>
                    <path d="M40.370573,68.2788909 L38.7429205,66.650573 L47.3656192,58.0265434 L38.7821811,49.4437708 L40.4104991,47.8147874 L48.9939372,56.3982255 L57.5767098,47.8147874 L59.2063586,49.4451017 L50.6229205,58.0265434 L59.2456192,66.650573 L57.6173013,68.2788909 L48.9939372,59.6561922 L40.370573,68.2788909" id="Fill-993" fill="#FFFFFF"></path>
                    <path d="M97.5819593,130.974787 C96.3309427,130.974787 95.3620702,131.444584 94.6760074,132.384177 C93.9899445,133.324436 93.6465804,134.634677 93.6465804,136.314233 C93.6465804,139.80976 94.9581516,141.55719 97.5819593,141.55719 C98.6825878,141.55719 100.015453,141.282366 101.58122,140.732052 L101.58122,143.519556 C100.29427,144.055896 98.857597,144.324067 97.270536,144.324067 C94.9900924,144.324067 93.2459889,143.63268 92.0382255,142.249242 C90.8297967,140.865804 90.2262477,138.880813 90.2262477,136.292939 C90.2262477,134.66329 90.522366,133.235268 91.1159335,132.009538 C91.7095009,130.783808 92.5619224,129.843549 93.6731978,129.189427 C94.7844732,128.535305 96.0873937,128.208577 97.5819593,128.208577 C99.1038078,128.208577 100.633641,128.576562 102.170795,129.312532 L101.09878,132.014861 C100.512532,131.736044 99.9222921,131.492495 99.32939,131.285545 C98.7358226,131.07793 98.1535675,130.974787 97.5819593,130.974787" id="Fill-1245" fill="#FFFFFF"></path>
                    <path d="M110.293752,135.306765 L116.512237,135.306765 L116.512237,143.433715 C115.504769,143.76244 114.55586,143.993346 113.665508,144.125767 C112.775823,144.257523 111.866174,144.324067 110.936562,144.324067 C108.570277,144.324067 106.764288,143.628688 105.516599,142.238595 C104.268909,140.848503 103.645397,138.8522 103.645397,136.249686 C103.645397,133.719704 104.36939,131.746691 105.817375,130.331312 C107.264695,128.915933 109.27098,128.208577 111.83756,128.208577 C113.445915,128.208577 114.997043,128.529982 116.490943,129.173457 L115.386322,131.832532 C114.243105,131.260259 113.052643,130.974787 111.816266,130.974787 C110.378928,130.974787 109.228392,131.457227 108.363327,132.422107 C107.498262,133.386987 107.06573,134.684584 107.06573,136.314233 C107.06573,138.015749 107.414418,139.314677 108.111793,140.211682 C108.808503,141.109353 109.821959,141.55719 111.151497,141.55719 C111.84488,141.55719 112.548244,141.485989 113.263586,141.342921 L113.263586,138.072976 L110.293752,138.072976 L110.293752,135.306765" id="Fill-1246" fill="#FFFFFF"></path>
                    <path d="M126.69671,144.109131 L122.922366,131.811238 L122.825878,131.811238 C122.961627,134.312606 123.029501,135.982181 123.029501,136.817967 L123.029501,144.109131 L120.059667,144.109131 L120.059667,128.433494 L124.583956,128.433494 L128.294418,140.420628 L128.358299,140.420628 L132.293678,128.433494 L136.818632,128.433494 L136.818632,144.109131 L133.719704,144.109131 L133.719704,136.689538 C133.719704,136.339519 133.725028,135.935601 133.735675,135.477782 C133.746322,135.020628 133.794898,133.805545 133.880739,131.832532 L133.784251,131.832532 L129.741738,144.109131 L126.69671,144.109131" id="Fill-1247" fill="#FFFFFF"></path>
                    <path d="M151.26122,141.718226 C151.833494,141.718226 152.519556,141.593124 153.320074,141.342921 L153.320074,143.777079 C152.504917,144.141738 151.504104,144.324067 150.317634,144.324067 C149.010055,144.324067 148.057153,143.993346 147.460259,143.331904 C146.863364,142.671128 146.56525,141.678965 146.56525,140.356747 L146.56525,134.577449 L144.999482,134.577449 L144.999482,133.194011 L146.800813,132.100702 L147.744399,129.570055 L149.835194,129.570055 L149.835194,132.121996 L153.191645,132.121996 L153.191645,134.577449 L149.835194,134.577449 L149.835194,140.356747 C149.835194,140.82122 149.965619,141.164584 150.22647,141.386174 C150.48732,141.607763 150.83268,141.718226 151.26122,141.718226" id="Fill-1248" fill="#FFFFFF"></path>
                    <path d="M162.225582,131.896414 C162.668762,131.896414 163.036747,131.92902 163.330203,131.992902 L163.083327,135.059889 C162.818484,134.988022 162.497079,134.952754 162.118447,134.952754 C161.074381,134.952754 160.26122,135.220924 159.678965,135.756599 C159.096044,136.292939 158.80525,137.043549 158.80525,138.008429 L158.80525,144.109131 L155.53464,144.109131 L155.53464,132.121996 L158.012052,132.121996 L158.493826,134.137597 L158.654861,134.137597 C159.026174,133.465508 159.528577,132.92451 160.161405,132.513272 C160.794233,132.102699 161.481627,131.896414 162.225582,131.896414" id="Fill-1249" fill="#FFFFFF"></path>
                    <path d="M172.662921,144.109131 L172.030092,142.479482 L171.944251,142.479482 C171.393272,143.172865 170.826987,143.653974 170.244732,143.921479 C169.661811,144.189649 168.902551,144.324067 167.966285,144.324067 C166.815083,144.324067 165.909427,143.995342 165.247985,143.337227 C164.586543,142.679778 164.256488,141.743512 164.256488,140.528429 C164.256488,139.255453 164.700998,138.317856 165.590684,137.713641 C166.481035,137.109427 167.823216,136.775379 169.617227,136.710832 L171.697375,136.64695 L171.697375,136.121257 C171.697375,134.906174 171.07586,134.298632 169.832163,134.298632 C168.873937,134.298632 167.748022,134.588096 166.454418,135.167024 L165.371756,132.958447 C166.750536,132.236451 168.28037,131.87512 169.960591,131.87512 C171.568946,131.87512 172.801996,132.225804 173.659741,132.925841 C174.517486,133.626543 174.946691,134.691904 174.946691,136.121257 L174.946691,144.109131 L172.662921,144.109131 L172.662921,144.109131 Z M171.697375,138.555416 L170.432384,138.598004 C169.481479,138.626617 168.774122,138.798299 168.309649,139.11305 C167.84451,139.427135 167.612274,139.906248 167.612274,140.549723 C167.612274,141.472015 168.141294,141.933161 169.199335,141.933161 C169.956599,141.933161 170.56281,141.714898 171.016636,141.279039 C171.470462,140.842514 171.697375,140.263586 171.697375,139.54159 L171.697375,138.555416 L171.697375,138.555416 Z" id="Fill-1250" fill="#FFFFFF"></path>
                    <path d="M189.071201,144.109131 L185.801257,144.109131 L185.801257,137.108096 C185.801257,136.243031 185.646876,135.594233 185.340111,135.161701 C185.03268,134.729168 184.542921,134.512902 183.870832,134.512902 C182.95586,134.512902 182.295083,134.818336 181.887172,135.429871 C181.479926,136.040739 181.276303,137.054196 181.276303,138.469575 L181.276303,144.109131 L178.005693,144.109131 L178.005693,132.121996 L180.504399,132.121996 L180.943586,133.655157 L181.125915,133.655157 C181.490573,133.076229 181.992976,132.638373 182.632458,132.34159 C183.271941,132.045471 183.999926,131.896414 184.814418,131.896414 C186.208503,131.896414 187.265878,132.273715 187.98854,133.027652 C188.710536,133.782255 189.071201,134.87024 189.071201,136.292939 L189.071201,144.109131" id="Fill-1251" fill="#FFFFFF"></path>
                    <path d="M200.685028,140.549723 C200.685028,141.77878 200.257819,142.715712 199.404067,143.359187 C198.549649,144.001996 197.272015,144.324067 195.570499,144.324067 C194.698115,144.324067 193.954824,144.264843 193.339963,144.147061 C192.725767,144.028614 192.150166,143.855601 191.613826,143.626691 L191.613826,140.925028 C192.221368,141.210499 192.9061,141.450055 193.667357,141.643031 C194.428614,141.836007 195.098706,141.933161 195.677634,141.933161 C196.864104,141.933161 197.457671,141.589797 197.457671,140.903734 C197.457671,140.646211 197.378484,140.437264 197.221442,140.276229 C197.064399,140.115194 196.792902,139.932865 196.40695,139.729242 C196.020998,139.525619 195.505952,139.288059 194.862477,139.016562 C193.940185,138.63061 193.263438,138.272606 192.830906,137.943882 C192.398373,137.615157 192.083623,137.238521 191.88732,136.813309 C191.690351,136.387431 191.592532,135.863734 191.592532,135.242218 C191.592532,134.176858 192.005767,133.35305 192.830906,132.770129 C193.65671,132.187874 194.827209,131.896414 196.342403,131.896414 C197.786396,131.896414 199.191128,132.211165 200.556599,132.84 L199.56976,135.198965 C198.969538,134.942107 198.407911,134.731165 197.886211,134.566802 C197.36451,134.40244 196.832163,134.319926 196.289168,134.319926 C195.323623,134.319926 194.841183,134.580776 194.841183,135.102477 C194.841183,135.395933 194.996895,135.649464 195.307652,135.863734 C195.619076,136.078669 196.29915,136.396747 197.350536,136.817967 C198.286802,137.197264 198.972865,137.55061 199.408725,137.88 C199.84525,138.208725 200.166654,138.587357 200.373604,139.016562 C200.58122,139.445102 200.685028,139.956155 200.685028,140.549723" id="Fill-1252" fill="#FFFFFF"></path>
                    <path d="M213.812052,144.109131 L210.541442,144.109131 L210.541442,137.108096 C210.541442,136.243031 210.397043,135.594233 210.107579,135.161701 C209.817449,134.729168 209.362292,134.512902 208.740111,134.512902 C207.904325,134.512902 207.296784,134.820333 206.917486,135.435194 C206.538189,136.050055 206.349205,137.061516 206.349205,138.469575 L206.349205,144.109131 L203.079261,144.109131 L203.079261,132.121996 L205.577301,132.121996 L206.017153,133.655157 L206.198817,133.655157 C206.520887,133.104843 206.98536,132.674307 207.592902,132.362884 C208.200444,132.052126 208.897153,131.896414 209.683697,131.896414 C211.477708,131.896414 212.692791,132.482662 213.329612,133.655157 L213.619076,133.655157 C213.940481,133.097523 214.41427,132.664991 215.039778,132.35756 C215.665287,132.050129 216.370647,131.896414 217.15719,131.896414 C218.515342,131.896414 219.542773,132.245102 220.239482,132.941811 C220.936858,133.639187 221.285545,134.755786 221.285545,136.292939 L221.285545,144.109131 L218.004288,144.109131 L218.004288,137.108096 C218.004288,136.243031 217.859889,135.594233 217.56976,135.161701 C217.280296,134.729168 216.825139,134.512902 216.202957,134.512902 C215.40244,134.512902 214.803549,134.799039 214.40695,135.370647 C214.010351,135.942921 213.812052,136.850573 213.812052,138.09427 L213.812052,144.109131" id="Fill-1253" fill="#FFFFFF"></path>
                    <path d="M224.192163,129.023068 C224.192163,127.957708 224.78573,127.42536 225.9722,127.42536 C227.158669,127.42536 227.752237,127.957708 227.752237,129.023068 C227.752237,129.530795 227.603845,129.926063 227.307061,130.208207 C227.010277,130.490351 226.565767,130.631423 225.9722,130.631423 C224.78573,130.631423 224.192163,130.095083 224.192163,129.023068 L224.192163,129.023068 L224.192163,129.023068 Z M224.331904,132.121996 L227.602514,132.121996 L227.602514,144.109797 L224.331904,144.109797 L224.331904,132.121996 L224.331904,132.121996 Z" id="Fill-1254" fill="#FFFFFF"></path>
                    <path d="M235.806654,141.718226 C236.378928,141.718226 237.064991,141.593124 237.865508,141.342921 L237.865508,143.777079 C237.050351,144.141738 236.049538,144.324067 234.863068,144.324067 C233.554824,144.324067 232.602588,143.993346 232.005693,143.331904 C231.408799,142.671128 231.110018,141.678965 231.110018,140.356747 L231.110018,134.577449 L229.544917,134.577449 L229.544917,133.194011 L231.346248,132.100702 L232.289834,129.570055 L234.380628,129.570055 L234.380628,132.121996 L237.737079,132.121996 L237.737079,134.577449 L234.380628,134.577449 L234.380628,140.356747 C234.380628,140.82122 234.511054,141.164584 234.772569,141.386174 C235.03342,141.607763 235.378115,141.718226 235.806654,141.718226" id="Fill-1255" fill="#FFFFFF"></path>
                    <path d="M245.508022,141.718226 C246.07963,141.718226 246.765693,141.593124 247.566876,141.342921 L247.566876,143.777079 C246.751719,144.141738 245.750906,144.324067 244.564436,144.324067 C243.256192,144.324067 242.303956,143.993346 241.707061,143.331904 C241.110166,142.671128 240.812052,141.678965 240.812052,140.356747 L240.812052,134.577449 L239.246285,134.577449 L239.246285,133.194011 L241.047616,132.100702 L241.991201,129.570055 L244.081996,129.570055 L244.081996,132.121996 L247.437782,132.121996 L247.437782,134.577449 L244.081996,134.577449 L244.081996,140.356747 C244.081996,140.82122 244.212421,141.164584 244.473272,141.386174 C244.734122,141.607763 245.078817,141.718226 245.508022,141.718226" id="Fill-1256" fill="#FFFFFF"></path>
                    <path d="M255.14085,144.324067 C253.211091,144.324067 251.702551,143.791054 250.615896,142.726359 C249.529908,141.660998 248.986248,140.153124 248.986248,138.201405 C248.986248,136.192458 249.488651,134.64 250.492791,133.542699 C251.496932,132.445397 252.885693,131.896414 254.65841,131.896414 C256.352606,131.896414 257.671497,132.379519 258.615083,133.344399 C259.558669,134.309279 260.030462,135.642144 260.030462,137.34366 L260.030462,138.930721 L252.299445,138.930721 C252.335379,139.859667 252.610869,140.584991 253.12525,141.107357 C253.640296,141.629057 254.362292,141.889908 255.291238,141.889908 C256.013235,141.889908 256.69597,141.814713 257.33878,141.664991 C257.982255,141.514603 258.654344,141.275046 259.355046,140.946322 L259.355046,143.476969 C258.783438,143.76244 258.171904,143.975379 257.521109,144.114455 C256.87098,144.254196 256.077782,144.324067 255.14085,144.324067 L255.14085,144.324067 L255.14085,144.324067 Z M254.679704,134.223438 C253.986987,134.223438 253.443327,134.443031 253.050055,134.882884 C252.657449,135.32207 252.431867,135.946248 252.37464,136.754085 L256.963475,136.754085 C256.949501,135.946248 256.738558,135.32207 256.331312,134.882884 C255.923401,134.443031 255.373087,134.223438 254.679704,134.223438 L254.679704,134.223438 L254.679704,134.223438 Z" id="Fill-1257" fill="#FFFFFF"></path>
                    <path d="M269.266026,131.896414 C269.709205,131.896414 270.07719,131.92902 270.370647,131.992902 L270.123771,135.059889 C269.859593,134.988022 269.537523,134.952754 269.158891,134.952754 C268.114824,134.952754 267.301664,135.220924 266.719409,135.756599 C266.136488,136.292939 265.845693,137.043549 265.845693,138.008429 L265.845693,144.109131 L262.575083,144.109131 L262.575083,132.121996 L265.05183,132.121996 L265.53427,134.137597 L265.695305,134.137597 C266.067283,133.465508 266.56902,132.92451 267.201848,132.513272 C267.834011,132.102699 268.522736,131.896414 269.266026,131.896414" id="Fill-1258" fill="#FFFFFF"></path>
                    <path d="M109.173826,161.175527 C110.589205,161.175527 111.697153,161.727837 112.497671,162.832458 C113.298189,163.936414 113.69878,165.450277 113.69878,167.373383 C113.69878,169.35305 113.285545,170.886876 112.459741,171.97353 C111.634603,173.059519 110.510018,173.603179 109.087985,173.603179 C107.679261,173.603179 106.57464,173.092126 105.774787,172.070018 L105.549205,172.070018 L105.002884,173.388244 L102.504177,173.388244 L102.504177,156.704473 L105.774787,156.704473 L105.774787,160.585952 C105.774787,161.079039 105.731534,161.868909 105.645693,162.955564 L105.774787,162.955564 C106.539372,161.769094 107.672606,161.175527 109.173826,161.175527 L109.173826,161.175527 L109.173826,161.175527 Z M108.123105,163.792015 C107.314603,163.792015 106.725028,164.040887 106.353715,164.537301 C105.981738,165.034381 105.789427,165.854196 105.774787,166.998078 L105.774787,167.352089 C105.774787,168.638373 105.965767,169.560665 106.348392,170.118299 C106.730351,170.675933 107.336562,170.95475 108.165693,170.95475 C108.837782,170.95475 109.372126,170.645323 109.768725,170.027135 C110.165323,169.408946 110.363623,168.509945 110.363623,167.330129 C110.363623,166.15098 110.163993,165.265952 109.763401,164.677043 C109.36281,164.086802 108.815823,163.792015 108.123105,163.792015 L108.123105,163.792015 L108.123105,163.792015 Z" id="Fill-1259" fill="#FFFFFF"></path>
                    <path d="M123.831349,173.388244 L123.198521,171.758595 L123.11268,171.758595 C122.562366,172.451978 121.995416,172.933087 121.413161,173.200591 C120.830906,173.469427 120.07098,173.603179 119.134713,173.603179 C117.983512,173.603179 117.077856,173.274455 116.416414,172.61634 C115.755638,171.958891 115.424917,171.022625 115.424917,169.807542 C115.424917,168.535231 115.869427,167.596969 116.759778,166.992754 C117.649464,166.38854 118.991645,166.054492 120.785656,165.989945 L122.86647,165.926063 L122.86647,165.40037 C122.86647,164.185287 122.244288,163.577745 121.000591,163.577745 C120.042366,163.577745 118.916451,163.867209 117.622847,164.446137 L116.540185,162.23756 C117.91963,161.515564 119.449464,161.154233 121.12902,161.154233 C122.737375,161.154233 123.970425,161.504917 124.82817,162.204954 C125.685915,162.905656 126.11512,163.971017 126.11512,165.40037 L126.11512,173.388244 L123.831349,173.388244 L123.831349,173.388244 Z M122.86647,167.834529 L121.600813,167.877116 C120.649908,167.90573 119.942551,168.077412 119.478078,168.392163 C119.012939,168.706248 118.780702,169.18536 118.780702,169.828835 C118.780702,170.751128 119.309723,171.211608 120.367763,171.211608 C121.125028,171.211608 121.731238,170.994011 122.185065,170.558152 C122.638891,170.121627 122.86647,169.542699 122.86647,168.820702 L122.86647,167.834529 L122.86647,167.834529 Z" id="Fill-1260" fill="#FFFFFF"></path>
                    <path d="M134.222107,170.997338 C134.794381,170.997338 135.480444,170.872237 136.280961,170.622033 L136.280961,173.056192 C135.465804,173.42085 134.464991,173.603179 133.278521,173.603179 C131.970943,173.603179 131.018041,173.272458 130.421146,172.611017 C129.824251,171.95024 129.526137,170.958078 129.526137,169.63586 L129.526137,163.856562 L127.96037,163.856562 L127.96037,162.473124 L129.761701,161.379815 L130.705287,158.849168 L132.796081,158.849168 L132.796081,161.401109 L136.152532,161.401109 L136.152532,163.856562 L132.796081,163.856562 L132.796081,169.63586 C132.796081,170.100333 132.926506,170.443697 133.187357,170.665287 C133.448207,170.886876 133.793567,170.997338 134.222107,170.997338" id="Fill-1261" fill="#FFFFFF"></path>
                    <path d="M143.923475,170.997338 C144.495749,170.997338 145.181811,170.872237 145.982329,170.622033 L145.982329,173.056192 C145.167172,173.42085 144.166359,173.603179 142.979889,173.603179 C141.671645,173.603179 140.718743,173.272458 140.122514,172.611017 C139.525619,171.95024 139.227505,170.958078 139.227505,169.63586 L139.227505,163.856562 L137.661738,163.856562 L137.661738,162.473124 L139.463068,161.379815 L140.406654,158.849168 L142.497449,158.849168 L142.497449,161.401109 L145.853235,161.401109 L145.853235,163.856562 L142.497449,163.856562 L142.497449,169.63586 C142.497449,170.100333 142.627874,170.443697 142.888725,170.665287 C143.15024,170.886876 143.49427,170.997338 143.923475,170.997338" id="Fill-1262" fill="#FFFFFF"></path>
                    <path d="M153.556303,173.603179 C151.626543,173.603179 150.118004,173.070166 149.031349,172.005471 C147.94536,170.940111 147.401701,169.432237 147.401701,167.480518 C147.401701,165.471571 147.904104,163.919113 148.908244,162.821811 C149.912384,161.72451 151.301146,161.175527 153.073863,161.175527 C154.768059,161.175527 156.08695,161.658632 157.030536,162.623512 C157.974122,163.588392 158.445915,164.921257 158.445915,166.622773 L158.445915,168.209834 L150.714898,168.209834 C150.750832,169.13878 151.025656,169.864769 151.540702,170.38647 C152.055083,170.90817 152.777079,171.16902 153.706691,171.16902 C154.428688,171.16902 155.111423,171.093826 155.754233,170.944104 C156.397708,170.793715 157.069797,170.554159 157.770499,170.225434 L157.770499,172.756081 C157.198226,173.041553 156.587357,173.254492 155.936562,173.393567 C155.286433,173.533309 154.492569,173.603179 153.556303,173.603179 L153.556303,173.603179 L153.556303,173.603179 Z M153.095157,163.502551 C152.401774,163.502551 151.85878,163.722144 151.465508,164.161996 C151.072237,164.601183 150.84732,165.22536 150.790092,166.033198 L155.378928,166.033198 C155.364954,165.22536 155.154011,164.601183 154.746765,164.161996 C154.338854,163.722144 153.78854,163.502551 153.095157,163.502551 L153.095157,163.502551 L153.095157,163.502551 Z" id="Fill-1263" fill="#FFFFFF"></path>
                    <path d="M167.681479,161.175527 C168.124658,161.175527 168.493309,161.208133 168.7861,161.272015 L168.539224,164.339002 C168.275046,164.267135 167.952976,164.231867 167.574344,164.231867 C166.530943,164.231867 165.717782,164.500037 165.135527,165.035712 C164.552606,165.572052 164.261146,166.322662 164.261146,167.287542 L164.261146,173.388244 L160.991201,173.388244 L160.991201,161.401109 L163.467948,161.401109 L163.950388,163.41671 L164.111423,163.41671 C164.482736,162.744621 164.985139,162.203623 165.617301,161.792384 C166.250129,161.381811 166.938189,161.175527 167.681479,161.175527" id="Fill-1264" fill="#FFFFFF"></path>
                    <path d="M169.857449,161.401109 L173.438817,161.401109 L175.701294,168.145287 C175.89427,168.731534 176.026691,169.424917 176.097893,170.225434 L176.16244,170.225434 C176.240961,169.489464 176.394011,168.796081 176.623586,168.145287 L178.84281,161.401109 L182.348983,161.401109 L177.277708,174.92207 C176.812569,176.173087 176.149797,177.109353 175.288059,177.730869 C174.426987,178.35305 173.42085,178.663808 172.270314,178.663808 C171.70536,178.663808 171.151054,178.603253 170.608059,178.481479 L170.608059,175.88695 C171.001331,175.979445 171.429871,176.026026 171.895009,176.026026 C172.473937,176.026026 172.979002,175.849686 173.411534,175.495009 C173.844067,175.141664 174.182107,174.60732 174.424991,173.892643 L174.618632,173.303068 L169.857449,161.401109" id="Fill-1265" fill="#FFFFFF"></path>
                    <path d="M189.629501,158.302181 C189.629501,157.236821 190.223068,156.704473 191.409538,156.704473 C192.595342,156.704473 193.189575,157.236821 193.189575,158.302181 C193.189575,158.809908 193.041183,159.205176 192.744399,159.48732 C192.447616,159.769464 192.00244,159.910536 191.409538,159.910536 C190.223068,159.910536 189.629501,159.374196 189.629501,158.302181 L189.629501,158.302181 L189.629501,158.302181 Z M189.768577,161.401109 L193.039187,161.401109 L193.039187,173.388909 L189.768577,173.388909 L189.768577,161.401109 L189.768577,161.401109 Z" id="Fill-1266" fill="#FFFFFF"></path>
                    <path d="M204.721553,169.828835 C204.721553,171.057893 204.294344,171.994824 203.440591,172.638299 C202.586174,173.281109 201.30854,173.603179 199.607024,173.603179 C198.735305,173.603179 197.991349,173.543956 197.377153,173.426174 C196.762292,173.307726 196.186691,173.134713 195.651017,172.905804 L195.651017,170.20414 C196.258558,170.489612 196.942625,170.729168 197.703882,170.922144 C198.465804,171.11512 199.135231,171.211608 199.714159,171.211608 C200.901294,171.211608 201.494196,170.868909 201.494196,170.182847 C201.494196,169.925323 201.415675,169.716377 201.258632,169.555342 C201.100924,169.394307 200.829427,169.211978 200.443475,169.008355 C200.057523,168.804732 199.542477,168.567172 198.899667,168.295675 C197.977375,167.909723 197.300628,167.551719 196.868096,167.222994 C196.434898,166.89427 196.120813,166.517634 195.92451,166.092421 C195.727542,165.666543 195.629057,165.142847 195.629057,164.521331 C195.629057,163.45597 196.042292,162.632163 196.868096,162.049242 C197.693235,161.466987 198.863734,161.175527 200.378928,161.175527 C201.822921,161.175527 203.227652,161.490277 204.593124,162.119113 L203.606285,164.478078 C203.006063,164.22122 202.445102,164.010277 201.923401,163.845915 C201.401701,163.681553 200.868688,163.599039 200.325693,163.599039 C199.360148,163.599039 198.878373,163.859889 198.878373,164.38159 C198.878373,164.675046 199.034085,164.928577 199.344843,165.142847 C199.655601,165.357782 200.33634,165.67586 201.387061,166.097079 C202.323327,166.476377 203.00939,166.830388 203.445915,167.159113 C203.881774,167.487837 204.203845,167.86647 204.410795,168.295675 C204.61841,168.724214 204.721553,169.235268 204.721553,169.828835" id="Fill-1267" fill="#FFFFFF"></path>
                    <path d="M216.773235,173.603179 C215.365176,173.603179 214.259224,173.056192 213.455379,171.962218 C212.650869,170.868909 212.248946,169.35305 212.248946,167.41597 C212.248946,165.450277 212.658189,163.919113 213.476673,162.821811 C214.295157,161.72451 215.422403,161.175527 216.859076,161.175527 C218.367616,161.175527 219.518152,161.761774 220.312015,162.93427 L220.41915,162.93427 C220.254787,162.040591 220.172274,161.243401 220.172274,160.543364 L220.172274,156.704473 L223.45353,156.704473 L223.45353,173.388244 L220.944843,173.388244 L220.312015,171.833789 L220.172274,171.833789 C219.428983,173.012939 218.296414,173.603179 216.773235,173.603179 L216.773235,173.603179 L216.773235,173.603179 Z M217.921109,170.997338 C218.756895,170.997338 219.36976,170.754455 219.759704,170.268022 C220.149649,169.782255 220.361922,168.956451 220.397856,167.791275 L220.397856,167.43793 C220.397856,166.15098 220.199556,165.228688 219.802957,164.671054 C219.406359,164.11342 218.760887,163.835268 217.867209,163.835268 C217.138558,163.835268 216.571608,164.14403 216.168355,164.762884 C215.764436,165.381072 215.562144,166.279409 215.562144,167.459224 C215.562144,168.638373 215.765767,169.523401 216.173013,170.112976 C216.580924,170.702551 217.163179,170.997338 217.921109,170.997338 L217.921109,170.997338 L217.921109,170.997338 Z" id="Fill-1268" fill="#FFFFFF"></path>
                    <path d="M232.086876,173.603179 C230.157116,173.603179 228.648577,173.070166 227.561922,172.005471 C226.475268,170.940111 225.932274,169.432237 225.932274,167.480518 C225.932274,165.471571 226.434011,163.919113 227.438817,162.821811 C228.442957,161.72451 229.831054,161.175527 231.604436,161.175527 C233.298632,161.175527 234.617523,161.658632 235.561109,162.623512 C236.504695,163.588392 236.976488,164.921257 236.976488,166.622773 L236.976488,168.209834 L229.245471,168.209834 C229.280739,169.13878 229.556229,169.864769 230.071275,170.38647 C230.585656,170.90817 231.307652,171.16902 232.236599,171.16902 C232.958595,171.16902 233.641331,171.093826 234.284806,170.944104 C234.928281,170.793715 235.599704,170.554159 236.300407,170.225434 L236.300407,172.756081 C235.728799,173.041553 235.117264,173.254492 234.467135,173.393567 C233.817006,173.533309 233.023142,173.603179 232.086876,173.603179 L232.086876,173.603179 L232.086876,173.603179 Z M231.62573,163.502551 C230.932348,163.502551 230.388688,163.722144 229.996081,164.161996 C229.60281,164.601183 229.377893,165.22536 229.32,166.033198 L233.909501,166.033198 C233.894861,165.22536 233.684584,164.601183 233.276673,164.161996 C232.869427,163.722144 232.318447,163.502551 231.62573,163.502551 L231.62573,163.502551 L231.62573,163.502551 Z" id="Fill-1269" fill="#FFFFFF"></path>
                    <path d="M247.057153,173.388244 L246.424325,171.758595 L246.338484,171.758595 C245.78817,172.451978 245.22122,172.933087 244.638965,173.200591 C244.056044,173.469427 243.297449,173.603179 242.360518,173.603179 C241.209316,173.603179 240.30366,173.274455 239.642218,172.61634 C238.981442,171.958891 238.650721,171.022625 238.650721,169.807542 C238.650721,168.535231 239.095231,167.596969 239.985582,166.992754 C240.875268,166.38854 242.217449,166.054492 244.012126,165.989945 L246.092274,165.926063 L246.092274,165.40037 C246.092274,164.185287 245.470092,163.577745 244.226396,163.577745 C243.268835,163.577745 242.142255,163.867209 240.848651,164.446137 L239.765989,162.23756 C241.145434,161.515564 242.675268,161.154233 244.354824,161.154233 C245.963179,161.154233 247.196229,161.504917 248.053974,162.204954 C248.911719,162.905656 249.340924,163.971017 249.340924,165.40037 L249.340924,173.388244 L247.057153,173.388244 L247.057153,173.388244 Z M246.092274,167.834529 L244.826617,167.877116 C243.876377,167.90573 243.168355,168.077412 242.703882,168.392163 C242.238743,168.706248 242.007172,169.18536 242.007172,169.828835 C242.007172,170.751128 242.536192,171.211608 243.593567,171.211608 C244.350832,171.211608 244.957043,170.994011 245.410869,170.558152 C245.864695,170.121627 246.092274,169.542699 246.092274,168.820702 L246.092274,167.834529 L246.092274,167.834529 Z" id="Fill-1270" fill="#FFFFFF"></path>
                    <path d="M256.312015,173.603179 C254.903956,173.603179 253.798004,173.056192 252.993494,171.962218 C252.189649,170.868909 251.787726,169.35305 251.787726,167.41597 C251.787726,165.450277 252.196969,163.919113 253.014787,162.821811 C253.833272,161.72451 254.961183,161.175527 256.397856,161.175527 C257.906396,161.175527 259.056932,161.761774 259.850795,162.93427 L259.95793,162.93427 C259.793567,162.040591 259.711719,161.243401 259.711719,160.543364 L259.711719,156.704473 L262.992311,156.704473 L262.992311,173.388244 L260.483623,173.388244 L259.850795,171.833789 L259.711719,171.833789 C258.967763,173.012939 257.835194,173.603179 256.312015,173.603179 L256.312015,173.603179 L256.312015,173.603179 Z M257.459889,170.997338 C258.29634,170.997338 258.909205,170.754455 259.298484,170.268022 C259.687763,169.782255 259.900702,168.956451 259.936636,167.791275 L259.936636,167.43793 C259.936636,166.15098 259.738336,165.228688 259.341072,164.671054 C258.944473,164.11342 258.299667,163.835268 257.405989,163.835268 C256.677338,163.835268 256.110388,164.14403 255.707135,164.762884 C255.302551,165.381072 255.100924,166.279409 255.100924,167.459224 C255.100924,168.638373 255.304547,169.523401 255.711793,170.112976 C256.119704,170.702551 256.701959,170.997338 257.459889,170.997338 L257.459889,170.997338 L257.459889,170.997338 Z" id="Fill-1271" fill="#FFFFFF"></path>
                </g>
            </g>
        </g>
    </g>
</svg>