<?xml version="1.0" encoding="UTF-8" standalone="no"?>
<svg width="38px" height="45px" viewBox="0 0 38 45" version="1.1" xmlns="http://www.w3.org/2000/svg" xmlns:xlink="http://www.w3.org/1999/xlink" xmlns:sketch="http://www.bohemiancoding.com/sketch/ns">
    <!-- Generator: Sketch 3.3 (11970) - http://www.bohemiancoding.com/sketch -->
    <title>childLockSmallIcon</title>
    <desc>Created with Sketch.</desc>
    <defs></defs>
    <g id="Page-1" stroke="none" stroke-width="1" fill="none" fill-rule="evenodd" sketch:type="MSPage">
        <g id="childLockSmallIcon" sketch:type="MSLayerGroup">
            <path d="M0.761,9.244 C0.898,13.865 1.479,18.429 2.515,22.931 C3.616,27.73 5.268,32.308 8.035,36.42 C10.606,40.24 13.93,43.16 18.306,44.779 C18.795,44.96 19.254,44.964 19.744,44.783 C24.128,43.156 27.453,40.226 30.038,36.396 C32.16,33.251 33.613,29.794 34.691,26.173 C35.732,22.685 36.39,19.121 36.823,15.511 C37.181,12.529 37.334,9.537 37.294,6.535 C37.285,5.709 36.802,5.156 35.986,5.056 C35.685,5.017 35.377,5.013 35.073,5.009 C32.251,4.986 29.475,4.617 26.748,3.878 C24.281,3.214 21.937,2.277 19.86,0.755 C19.334,0.375 18.668,0.431 18.113,0.81 C17.532,1.205 16.947,1.605 16.327,1.933 C12.751,3.826 8.891,4.65 4.894,4.937 C3.931,5.005 2.966,4.996 2.004,5.07 C1.281,5.126 0.775,5.718 0.765,6.459 C0.752,7.386 0.761,8.316 0.761,9.244" id="Fill-1" fill="#FFFFFF" sketch:type="MSShapeGroup"></path>
            <path d="M0.761,9.244 C0.761,8.316 0.752,7.386 0.765,6.459 C0.775,5.718 1.281,5.126 2.004,5.07 C2.966,4.996 3.931,5.005 4.894,4.937 C8.891,4.65 12.751,3.826 16.327,1.933 C16.947,1.605 17.532,1.205 18.113,0.81 C18.668,0.431 19.334,0.375 19.86,0.755 C21.937,2.277 24.281,3.214 26.748,3.878 C29.475,4.617 32.251,4.986 35.073,5.009 C35.377,5.013 35.685,5.017 35.986,5.056 C36.802,5.156 37.285,5.709 37.294,6.535 C37.334,9.537 37.181,12.529 36.823,15.511 C36.39,19.121 35.732,22.685 34.691,26.173 C33.613,29.794 32.16,33.251 30.038,36.396 C27.453,40.226 24.128,43.156 19.744,44.783 C19.254,44.964 18.795,44.96 18.306,44.779 C13.93,43.16 10.606,40.24 8.035,36.42 C5.268,32.308 3.616,27.73 2.515,22.931 C1.479,18.429 0.898,13.865 0.761,9.244 L0.761,9.244 Z M19.033,31.941 C20.996,31.941 22.96,31.947 24.925,31.937 C26.308,31.935 27.306,31.066 27.312,29.83 C27.323,26.923 27.323,24.021 27.312,21.119 C27.307,20.105 26.555,19.228 25.562,19.062 C25.298,19.015 25.246,18.91 25.252,18.669 C25.258,17.517 25.293,16.365 25.24,15.212 C25.065,11.603 21.808,8.814 18.038,9.416 C14.943,9.9 12.807,12.478 12.802,15.611 C12.799,16.648 12.796,17.681 12.806,18.714 C12.807,18.933 12.739,19.015 12.52,19.054 C11.462,19.246 10.744,20.117 10.742,21.197 C10.739,24.054 10.732,26.91 10.752,29.767 C10.757,30.136 10.893,30.535 11.07,30.863 C11.506,31.671 12.257,31.945 13.142,31.945 C15.106,31.937 17.07,31.941 19.033,31.941 L19.033,31.941 Z" id="Fill-2" fill="#000000" sketch:type="MSShapeGroup"></path>
            <path d="M22.177,18.976 L15.945,18.976 C15.924,18.945 15.9,18.927 15.9,18.908 C15.894,17.687 15.831,16.462 15.905,15.246 C16.005,13.628 17.546,12.328 19.128,12.421 C20.89,12.521 22.189,13.877 22.178,15.584 C22.172,16.582 22.177,17.58 22.177,18.58 L22.177,18.976" id="Fill-3" fill="#000000" sketch:type="MSShapeGroup"></path>
            <path d="M19.019,28.009 L17.538,28.009 C17.002,28.003 16.876,27.82 17.077,27.337 C17.287,26.839 17.485,26.336 17.713,25.847 C17.808,25.646 17.778,25.527 17.633,25.359 C16.785,24.373 17.023,23.039 18.143,22.431 C18.88,22.029 19.901,22.205 20.426,22.828 C21.067,23.582 21.134,24.484 20.536,25.207 C20.288,25.505 20.263,25.732 20.432,26.064 C20.652,26.501 20.823,26.966 21.008,27.423 C21.16,27.793 21.036,27.996 20.638,28.003 C20.097,28.019 19.557,28.009 19.019,28.009" id="Fill-4" fill="#000000" sketch:type="MSShapeGroup"></path>
        </g>
    </g>
</svg>