<?xml version="1.0" encoding="UTF-8" standalone="no"?>
<svg width="42px" height="42px" viewBox="0 0 42 42" version="1.1" xmlns="http://www.w3.org/2000/svg" xmlns:xlink="http://www.w3.org/1999/xlink" xmlns:sketch="http://www.bohemiancoding.com/sketch/ns">
    <!-- Generator: Sketch 3.3 (11970) - http://www.bohemiancoding.com/sketch -->
    <title>dateTimeSmallIcon</title>
    <desc>Created with Sketch.</desc>
    <defs></defs>
    <g id="Page-1" stroke="none" stroke-width="1" fill="none" fill-rule="evenodd" sketch:type="MSPage">
        <g id="dateTimeSmallIcon" sketch:type="MSLayerGroup">
            <path d="M21.218,0.058 C9.896,0.052 0.83,9.164 0.648,20.261 C0.461,31.724 9.707,41.146 21.178,41.152 C32.498,41.162 41.568,32.054 41.748,20.953 C41.935,9.486 32.689,0.068 21.218,0.058" id="Fill-1" fill="#FFFFFF" sketch:type="MSShapeGroup"></path>
            <path d="M21.218,0.058 C32.689,0.068 41.935,9.486 41.748,20.953 C41.568,32.054 32.498,41.162 21.178,41.152 C9.707,41.146 0.461,31.724 0.648,20.261 C0.83,9.164 9.896,0.052 21.218,0.058 L21.218,0.058 Z M24.472,21.439 L24.472,21.441 C25.492,21.441 26.513,21.441 27.533,21.439 C27.675,21.439 27.818,21.429 27.953,21.398 C28.509,21.283 28.762,20.656 28.461,20.177 C28.25,19.845 27.931,19.796 27.58,19.796 C25.701,19.802 23.822,19.793 21.943,19.802 C21.701,19.804 21.547,19.734 21.398,19.541 C20.525,18.4 19.64,17.277 18.759,16.144 C18.031,15.213 17.304,14.277 16.576,13.343 C16.371,13.084 16.115,12.963 15.785,13.002 C15.421,13.039 15.226,13.269 15.109,13.58 C14.978,13.924 15.152,14.187 15.351,14.441 C17.033,16.599 18.724,18.752 20.394,20.92 C20.683,21.299 21.015,21.449 21.472,21.441 C22.472,21.429 23.472,21.439 24.472,21.439 L24.472,21.439 Z M22.021,4.582 C22.021,3.929 22.023,3.277 22.019,2.627 C22.015,2.088 21.691,1.722 21.215,1.711 C20.73,1.695 20.378,2.074 20.377,2.627 C20.373,3.929 20.373,5.23 20.377,6.535 C20.378,7.084 20.699,7.437 21.181,7.443 C21.683,7.451 22.015,7.095 22.019,6.535 C22.023,5.884 22.021,5.23 22.021,4.582 L22.021,4.582 Z M5.179,21.425 C5.179,21.425 5.179,21.425 5.179,21.427 C5.808,21.427 6.439,21.449 7.066,21.416 C7.312,21.404 7.588,21.324 7.785,21.183 C8.06,20.982 8.111,20.65 7.994,20.326 C7.865,19.974 7.586,19.791 7.218,19.791 C5.859,19.779 4.5,19.771 3.146,19.795 C2.929,19.799 2.683,19.927 2.517,20.072 C2.275,20.289 2.222,20.599 2.359,20.912 C2.519,21.271 2.812,21.421 3.193,21.424 C3.855,21.425 4.517,21.425 5.179,21.425 L5.179,21.425 Z M33.365,14.441 C33.447,14.416 33.603,14.394 33.732,14.322 C34.9,13.656 36.07,12.986 37.228,12.3 C37.392,12.203 37.543,12.025 37.625,11.851 C37.767,11.545 37.652,11.183 37.404,10.962 C37.129,10.726 36.757,10.693 36.404,10.896 C35.312,11.519 34.221,12.152 33.133,12.781 C33.002,12.857 32.867,12.937 32.753,13.033 C32.488,13.263 32.416,13.591 32.542,13.92 C32.666,14.238 32.957,14.441 33.365,14.441 L33.365,14.441 Z M22.012,36.621 L22.015,36.621 L22.015,34.701 C22.012,34.127 21.695,33.771 21.197,33.771 C20.699,33.769 20.371,34.128 20.371,34.691 C20.369,35.984 20.365,37.275 20.369,38.568 C20.369,39.127 20.701,39.502 21.191,39.503 C21.674,39.507 22.007,39.138 22.01,38.574 C22.015,37.924 22.012,37.273 22.012,36.621 L22.012,36.621 Z M31.047,36.177 C31.031,36.127 31.012,35.994 30.951,35.884 C30.263,34.677 29.574,33.474 28.869,32.273 C28.652,31.9 28.14,31.789 27.781,31.994 C27.396,32.212 27.232,32.664 27.451,33.062 C28.14,34.293 28.847,35.513 29.562,36.732 C29.748,37.046 30.156,37.154 30.513,37.035 C30.832,36.931 31.052,36.607 31.047,36.177 L31.047,36.177 Z M33.39,26.789 C32.92,26.795 32.619,27.015 32.512,27.365 C32.402,27.726 32.517,28.08 32.877,28.291 C34.06,28.994 35.252,29.689 36.451,30.365 C36.928,30.63 37.492,30.382 37.635,29.886 C37.757,29.47 37.615,29.154 37.164,28.89 C36.039,28.234 34.912,27.582 33.779,26.937 C33.637,26.853 33.461,26.816 33.39,26.789 L33.39,26.789 Z M9.916,13.574 C9.922,13.289 9.764,13.064 9.502,12.914 C8.322,12.224 7.142,11.535 5.953,10.861 C5.549,10.63 5.058,10.773 4.839,11.144 C4.611,11.535 4.699,12.003 5.113,12.25 C6.304,12.961 7.504,13.664 8.721,14.336 C9.277,14.646 9.923,14.226 9.916,13.574 L9.916,13.574 Z M5.609,30.455 C5.681,30.437 5.82,30.425 5.927,30.365 C7.132,29.674 8.338,28.986 9.529,28.273 C9.945,28.027 10.031,27.56 9.795,27.164 C9.58,26.808 9.101,26.656 8.709,26.877 C7.509,27.552 6.32,28.25 5.127,28.941 C5.082,28.966 5.037,29.003 5,29.039 C4.726,29.279 4.644,29.617 4.781,29.957 C4.906,30.263 5.211,30.461 5.609,30.455 L5.609,30.455 Z M15.021,32.816 C15.029,32.349 14.803,32.037 14.459,31.935 C14.064,31.82 13.713,31.939 13.506,32.296 C12.82,33.464 12.138,34.642 11.468,35.82 C11.212,36.269 11.338,36.736 11.756,36.974 C12.15,37.199 12.642,37.052 12.894,36.615 C13.554,35.48 14.212,34.345 14.863,33.205 C14.947,33.058 14.994,32.888 15.021,32.816 L15.021,32.816 Z M15.029,8.416 C14.996,8.328 14.947,8.15 14.859,7.994 C14.212,6.863 13.562,5.734 12.91,4.609 C12.652,4.166 12.178,4.011 11.773,4.232 C11.341,4.466 11.22,4.933 11.482,5.406 C11.713,5.826 11.957,6.234 12.195,6.648 C12.629,7.398 13.058,8.152 13.5,8.902 C13.713,9.263 14.048,9.388 14.445,9.281 C14.793,9.185 15.029,8.873 15.029,8.416 L15.029,8.416 Z M31.097,4.961 C31.058,4.597 30.83,4.279 30.511,4.181 C30.105,4.058 29.742,4.205 29.513,4.591 C28.847,5.736 28.183,6.88 27.527,8.029 C27.254,8.502 27.365,8.968 27.783,9.22 C28.176,9.457 28.681,9.296 28.945,8.847 C29.599,7.722 30.25,6.597 30.896,5.464 C30.984,5.31 31.031,5.128 31.097,4.961 L31.097,4.961 Z M37.252,19.812 L37.252,19.795 C36.6,19.795 35.947,19.775 35.299,19.806 C35.056,19.82 34.783,19.914 34.591,20.058 C34.33,20.259 34.291,20.582 34.404,20.89 C34.525,21.23 34.791,21.421 35.148,21.425 C36.527,21.437 37.906,21.441 39.285,21.425 C39.472,21.421 39.691,21.32 39.838,21.197 C40.082,20.99 40.176,20.693 40.058,20.371 C39.939,20.048 39.722,19.822 39.367,19.816 C38.662,19.804 37.957,19.812 37.252,19.812 L37.252,19.812 Z" id="Fill-2" fill="#000000" sketch:type="MSShapeGroup"></path>
            <path d="M24.472,21.439 C23.472,21.439 22.472,21.429 21.472,21.441 C21.015,21.449 20.683,21.299 20.394,20.92 C18.724,18.752 17.033,16.599 15.351,14.441 C15.152,14.187 14.978,13.924 15.109,13.58 C15.226,13.269 15.421,13.039 15.785,13.002 C16.115,12.963 16.371,13.084 16.576,13.343 C17.304,14.277 18.031,15.213 18.759,16.144 C19.64,17.277 20.525,18.4 21.398,19.541 C21.547,19.734 21.701,19.804 21.943,19.802 C23.822,19.793 25.701,19.802 27.58,19.796 C27.931,19.796 28.25,19.845 28.461,20.177 C28.762,20.656 28.509,21.283 27.953,21.398 C27.818,21.429 27.675,21.439 27.533,21.439 C26.513,21.441 25.492,21.441 24.472,21.441 L24.472,21.439" id="Fill-3" fill="#FFFFFF" sketch:type="MSShapeGroup"></path>
            <path d="M22.021,4.582 C22.021,5.23 22.023,5.884 22.019,6.535 C22.015,7.095 21.683,7.451 21.181,7.443 C20.699,7.437 20.378,7.084 20.377,6.535 C20.373,5.23 20.373,3.929 20.377,2.627 C20.378,2.074 20.73,1.695 21.215,1.711 C21.691,1.722 22.015,2.088 22.019,2.627 C22.023,3.277 22.021,3.929 22.021,4.582" id="Fill-4" fill="#FFFFFF" sketch:type="MSShapeGroup"></path>
            <path d="M5.179,21.425 C4.517,21.425 3.855,21.425 3.193,21.424 C2.812,21.421 2.519,21.271 2.359,20.912 C2.222,20.599 2.275,20.289 2.517,20.072 C2.683,19.927 2.929,19.799 3.146,19.795 C4.5,19.771 5.859,19.779 7.218,19.791 C7.586,19.791 7.865,19.974 7.994,20.326 C8.111,20.65 8.06,20.982 7.785,21.183 C7.588,21.324 7.312,21.404 7.066,21.416 C6.439,21.449 5.808,21.427 5.179,21.427 L5.179,21.425" id="Fill-5" fill="#FFFFFF" sketch:type="MSShapeGroup"></path>
            <path d="M33.365,14.441 C32.957,14.441 32.666,14.238 32.542,13.92 C32.416,13.591 32.488,13.263 32.753,13.033 C32.867,12.937 33.002,12.857 33.133,12.781 C34.221,12.152 35.312,11.519 36.404,10.896 C36.757,10.693 37.129,10.726 37.404,10.962 C37.652,11.183 37.767,11.545 37.625,11.851 C37.543,12.025 37.392,12.203 37.228,12.3 C36.07,12.986 34.9,13.656 33.732,14.322 C33.603,14.394 33.447,14.416 33.365,14.441" id="Fill-6" fill="#FFFFFF" sketch:type="MSShapeGroup"></path>
            <path d="M22.012,36.621 C22.012,37.273 22.015,37.924 22.01,38.574 C22.007,39.138 21.674,39.507 21.191,39.503 C20.701,39.502 20.369,39.127 20.369,38.568 C20.365,37.275 20.369,35.984 20.371,34.691 C20.371,34.128 20.699,33.769 21.197,33.771 C21.695,33.771 22.012,34.127 22.015,34.701 L22.015,36.621 C22.015,36.621 22.015,36.621 22.012,36.621" id="Fill-7" fill="#FFFFFF" sketch:type="MSShapeGroup"></path>
            <path d="M31.047,36.177 C31.052,36.607 30.832,36.931 30.513,37.035 C30.156,37.154 29.748,37.046 29.562,36.732 C28.847,35.513 28.14,34.293 27.451,33.062 C27.232,32.664 27.396,32.212 27.781,31.994 C28.14,31.789 28.652,31.9 28.869,32.273 C29.574,33.474 30.263,34.677 30.951,35.884 C31.012,35.994 31.031,36.127 31.047,36.177" id="Fill-8" fill="#FFFFFF" sketch:type="MSShapeGroup"></path>
            <path d="M33.39,26.789 C33.461,26.816 33.637,26.853 33.779,26.937 C34.912,27.582 36.039,28.234 37.164,28.89 C37.615,29.154 37.757,29.47 37.635,29.886 C37.492,30.382 36.928,30.63 36.451,30.365 C35.252,29.689 34.06,28.994 32.877,28.291 C32.517,28.08 32.402,27.726 32.512,27.365 C32.619,27.015 32.92,26.795 33.39,26.789" id="Fill-9" fill="#FFFFFF" sketch:type="MSShapeGroup"></path>
            <path d="M9.916,13.574 C9.923,14.226 9.277,14.646 8.721,14.336 C7.504,13.664 6.304,12.961 5.113,12.25 C4.699,12.003 4.611,11.535 4.839,11.144 C5.058,10.773 5.549,10.63 5.953,10.861 C7.142,11.535 8.322,12.224 9.502,12.914 C9.764,13.064 9.922,13.289 9.916,13.574" id="Fill-10" fill="#FFFFFF" sketch:type="MSShapeGroup"></path>
            <path d="M5.609,30.455 C5.211,30.461 4.906,30.263 4.781,29.957 C4.644,29.617 4.726,29.279 5,29.039 C5.037,29.003 5.082,28.966 5.127,28.941 C6.32,28.25 7.509,27.552 8.709,26.877 C9.101,26.656 9.58,26.808 9.795,27.164 C10.031,27.56 9.945,28.027 9.529,28.273 C8.338,28.986 7.132,29.674 5.927,30.365 C5.82,30.425 5.681,30.437 5.609,30.455" id="Fill-11" fill="#FFFFFF" sketch:type="MSShapeGroup"></path>
            <path d="M15.021,32.816 C14.994,32.888 14.947,33.058 14.863,33.205 C14.212,34.345 13.554,35.48 12.894,36.615 C12.642,37.052 12.15,37.199 11.756,36.974 C11.338,36.736 11.212,36.269 11.468,35.82 C12.138,34.642 12.82,33.464 13.506,32.296 C13.713,31.939 14.064,31.82 14.459,31.935 C14.803,32.037 15.029,32.349 15.021,32.816" id="Fill-12" fill="#FFFFFF" sketch:type="MSShapeGroup"></path>
            <path d="M15.029,8.416 C15.029,8.873 14.793,9.185 14.445,9.281 C14.048,9.388 13.713,9.263 13.5,8.902 C13.058,8.152 12.629,7.398 12.195,6.648 C11.957,6.234 11.713,5.826 11.482,5.406 C11.22,4.933 11.341,4.466 11.773,4.232 C12.178,4.011 12.652,4.166 12.91,4.609 C13.562,5.734 14.212,6.863 14.859,7.994 C14.947,8.15 14.996,8.328 15.029,8.416" id="Fill-13" fill="#FFFFFF" sketch:type="MSShapeGroup"></path>
            <path d="M31.097,4.961 C31.031,5.128 30.984,5.31 30.896,5.464 C30.25,6.597 29.599,7.722 28.945,8.847 C28.681,9.296 28.176,9.457 27.783,9.22 C27.365,8.968 27.254,8.502 27.527,8.029 C28.183,6.88 28.847,5.736 29.513,4.591 C29.742,4.205 30.105,4.058 30.511,4.181 C30.83,4.279 31.058,4.597 31.097,4.961" id="Fill-14" fill="#FFFFFF" sketch:type="MSShapeGroup"></path>
            <path d="M37.252,19.812 C37.957,19.812 38.662,19.804 39.367,19.816 C39.722,19.822 39.939,20.048 40.058,20.371 C40.176,20.693 40.082,20.99 39.838,21.197 C39.691,21.32 39.472,21.421 39.285,21.425 C37.906,21.441 36.527,21.437 35.148,21.425 C34.791,21.421 34.525,21.23 34.404,20.89 C34.291,20.582 34.33,20.259 34.591,20.058 C34.783,19.914 35.056,19.82 35.299,19.806 C35.947,19.775 36.6,19.795 37.252,19.795 L37.252,19.812" id="Fill-15" fill="#FFFFFF" sketch:type="MSShapeGroup"></path>
        </g>
    </g>
</svg>