<?xml version="1.0" encoding="UTF-8" standalone="no"?>
<svg width="47px" height="47px" viewBox="0 0 47 47" version="1.1" xmlns="http://www.w3.org/2000/svg" xmlns:xlink="http://www.w3.org/1999/xlink" xmlns:sketch="http://www.bohemiancoding.com/sketch/ns">
    <!-- Generator: Sketch 3.3 (11970) - http://www.bohemiancoding.com/sketch -->
    <title>dateTimeTitleIcon</title>
    <desc>Created with Sketch.</desc>
    <defs></defs>
    <g id="Page-1" stroke="none" stroke-width="1" fill="none" fill-rule="evenodd" sketch:type="MSPage">
        <path d="M23.4872565,3.53090804e-06 C10.5592565,-0.00699646909 0.210256465,10.3950035 0.00325646543,23.0660035 C-0.212743535,36.1530035 10.3442565,46.9100035 23.4392565,46.9170035 C36.3642565,46.9280035 46.7192565,36.5300035 46.9262565,23.8550035 C47.1382565,10.7640035 36.5832565,0.0110035309 23.4872565,3.53090804e-06 L23.4872565,3.53090804e-06 Z M36.6572565,14.8130035 C36.7862565,14.7050035 36.9382565,14.6120035 37.0892565,14.5260035 C38.3322565,13.8070035 39.5772565,13.0850035 40.8242565,12.3730035 C41.2292565,12.1410035 41.6512565,12.1800035 41.9652565,12.4500035 C42.2492565,12.7010035 42.3802565,13.1140035 42.2182565,13.4640035 C42.1242565,13.6630035 41.9512565,13.8660035 41.7642565,13.9770035 C40.4422565,14.7600035 39.1062565,15.5240035 37.7722565,16.2840035 C37.6262565,16.3670035 37.4482565,16.3910035 37.3542565,16.4220035 C36.8882565,16.4220035 36.5562565,16.1890035 36.4162565,15.8250035 C36.2702565,15.4510035 36.3522565,15.0760035 36.6572565,14.8130035 L36.6572565,14.8130035 Z M22.5262565,2.93200353 C22.5262565,2.30200353 22.9292565,1.86900353 23.4822565,1.88600353 C24.0262565,1.90000353 24.3972565,2.31600353 24.4002565,2.93200353 C24.4052565,3.67500353 24.4022565,4.42000353 24.4022565,5.16500353 C24.4022565,5.90400353 24.4052565,6.65200353 24.4002565,7.39400353 C24.3972565,8.03400353 24.0172565,8.43900353 23.4442565,8.43000353 C22.8932565,8.42500353 22.5262565,8.02100353 22.5262565,7.39400353 C22.5212565,5.90400353 22.5212565,4.42000353 22.5262565,2.93200353 L22.5262565,2.93200353 Z M1.95525647,23.8080035 C1.80025647,23.4520035 1.85825647,23.0970035 2.13625647,22.8490035 C2.32525647,22.6850035 2.60625647,22.5370035 2.85325647,22.5330035 C4.39925647,22.5060035 5.95125647,22.5140035 7.50225647,22.5290035 C7.92225647,22.5290035 8.24225647,22.7380035 8.38725647,23.1390035 C8.52125647,23.5100035 8.46525647,23.8890035 8.14825647,24.1180035 C7.92525647,24.2790035 7.61025647,24.3710035 7.32825647,24.3840035 C6.61425647,24.4220035 5.89225647,24.3970035 5.17525647,24.3970035 L5.17525647,24.3950035 C4.41925647,24.3950035 3.66325647,24.3950035 2.90625647,24.3930035 C2.47125647,24.3900035 2.13825647,24.2190035 1.95525647,23.8080035 L1.95525647,23.8080035 Z M10.1412565,32.2140035 C8.78025647,33.0260035 7.40425647,33.8120035 6.02925647,34.6010035 C5.90525647,34.6700035 5.74825647,34.6830035 5.66625647,34.7030035 C5.21125647,34.7100035 4.86325647,34.4850035 4.72025647,34.1350035 C4.56425647,33.7470035 4.65725647,33.3600035 4.96925647,33.0880035 C5.01225647,33.0470035 5.06325647,33.0040035 5.11525647,32.9740035 C6.47625647,32.1850035 7.83525647,31.3900035 9.20525647,30.6180035 C9.65225647,30.3670035 10.1982565,30.5410035 10.4442565,30.9460035 C10.7152565,31.3990035 10.6152565,31.9320035 10.1412565,32.2140035 L10.1412565,32.2140035 Z M9.21825647,16.3000035 C7.82925647,15.5330035 6.45925647,14.7310035 5.10025647,13.9190035 C4.62625647,13.6380035 4.52525647,13.1030035 4.78625647,12.6560035 C5.03625647,12.2330035 5.59725647,12.0700035 6.05725647,12.3330035 C7.41625647,13.1030035 8.76225647,13.8900035 10.1102565,14.6770035 C10.4082565,14.8480035 10.5892565,15.1050035 10.5822565,15.4310035 C10.5912565,16.1750035 9.85325647,16.6540035 9.21825647,16.3000035 L9.21825647,16.3000035 Z M16.2312565,37.8440035 C15.4872565,39.1450035 14.7382565,40.4410035 13.9832565,41.7360035 C13.6942565,42.2360035 13.1342565,42.4040035 12.6832565,42.1470035 C12.2062565,41.8750035 12.0632565,41.3420035 12.3542565,40.8290035 C13.1202565,39.4840035 13.8972565,38.1400035 14.6822565,36.8060035 C14.9182565,36.3980035 15.3182565,36.2620035 15.7692565,36.3930035 C16.1612565,36.5100035 16.4202565,36.8670035 16.4122565,37.4000035 C16.3802565,37.4810035 16.3262565,37.6760035 16.2312565,37.8440035 L16.2312565,37.8440035 Z M15.7552565,10.5300035 C15.3002565,10.6520035 14.9172565,10.5100035 14.6722565,10.0970035 C14.1712565,9.24100353 13.6792565,8.38000353 13.1862565,7.52400353 C12.9132565,7.05100353 12.6332565,6.58500353 12.3702565,6.10500353 C12.0712565,5.56600353 12.2102565,5.03300353 12.7032565,4.76400353 C13.1652565,4.51200353 13.7052565,4.68900353 14.0012565,5.19600353 C14.7452565,6.48000353 15.4892565,7.76900353 16.2262565,9.05900353 C16.3262565,9.23800353 16.3812565,9.44100353 16.4202565,9.54200353 C16.4202565,10.0630035 16.1492565,10.4200035 15.7552565,10.5300035 L15.7552565,10.5300035 Z M24.3912565,41.7430035 C24.3912565,42.4880035 24.3972565,43.2310035 24.3902565,43.9720035 C24.3892565,44.6170035 24.0072565,45.0390035 23.4552565,45.0350035 C22.8952565,45.0330035 22.5172565,44.6040035 22.5172565,43.9670035 C22.5112565,42.4910035 22.5172565,41.0160035 22.5192565,39.5410035 C22.5192565,38.8970035 22.8932565,38.4880035 23.4632565,38.4900035 C24.0302565,38.4900035 24.3912565,38.8950035 24.3962565,39.5510035 C24.3972565,40.2800035 24.3972565,41.0130035 24.3972565,41.7430035 L24.3912565,41.7430035 L24.3912565,41.7430035 Z M23.7762565,24.4130035 C23.2542565,24.4220035 22.8752565,24.2500035 22.5452565,23.8180035 C20.6412565,21.3420035 18.7082565,18.8850035 16.7892565,16.4220035 C16.5622565,16.1320035 16.3632565,15.8310035 16.5112565,15.4370035 C16.6462565,15.0830035 16.8692565,14.8200035 17.2842565,14.7780035 C17.6612565,14.7330035 17.9532565,14.8710035 18.1862565,15.1670035 C19.0182565,16.2330035 19.8482565,17.3020035 20.6792565,18.3650035 C21.6842565,19.6590035 22.6942565,20.9410035 23.6922565,22.2430035 C23.8622565,22.4640035 24.0372565,22.5440035 24.3132565,22.5420035 C26.4602565,22.5300035 28.6042565,22.5420035 30.7492565,22.5350035 C31.1492565,22.5350035 31.5142565,22.5920035 31.7562565,22.9700035 C32.0982565,23.5160035 31.8112565,24.2310035 31.1762565,24.3640035 C31.0202565,24.3990035 30.8592565,24.4100035 30.6942565,24.4100035 C29.5312565,24.4130035 28.3652565,24.4130035 27.2002565,24.4130035 L27.2002565,24.4100035 C26.0602565,24.4100035 24.9172565,24.3990035 23.7762565,24.4130035 L23.7762565,24.4130035 Z M34.0972565,42.2160035 C33.6912565,42.3510035 33.2232565,42.2290035 33.0122565,41.8710035 C32.1962565,40.4790035 31.3892565,39.0850035 30.6022565,37.6800035 C30.3522565,37.2260035 30.5402565,36.7110035 30.9792565,36.4600035 C31.3892565,36.2270035 31.9742565,36.3540035 32.2202565,36.7800035 C33.0252565,38.1500035 33.8122565,39.5240035 34.5992565,40.9020035 C34.6682565,41.0280035 34.6882565,41.1780035 34.7082565,41.2360035 C34.7142565,41.7270035 34.4622565,42.0980035 34.0972565,42.2160035 L34.0972565,42.2160035 Z M34.5352565,6.17200353 C33.7972565,7.46600353 33.0542565,8.75000353 32.3072565,10.0340035 C32.0072565,10.5480035 31.4282565,10.7300035 30.9812565,10.4600035 C30.5032565,10.1740035 30.3782565,9.64000353 30.6882565,9.10100353 C31.4392565,7.78900353 32.1962565,6.48300353 32.9562565,5.17600353 C33.2182565,4.73400353 33.6332565,4.56600353 34.0962565,4.70700353 C34.4612565,4.81800353 34.7192565,5.18200353 34.7652565,5.59700353 C34.6882565,5.78900353 34.6362565,5.99700353 34.5352565,6.17200353 L34.5352565,6.17200353 Z M42.2292565,34.0550035 C42.0652565,34.6210035 41.4222565,34.9040035 40.8782565,34.6010035 C39.5082565,33.8290035 38.1482565,33.0350035 36.7962565,32.2330035 C36.3852565,31.9930035 36.2552565,31.5880035 36.3812565,31.1760035 C36.5022565,30.7760035 36.8472565,30.5250035 37.3822565,30.5180035 C37.4642565,30.5500035 37.6642565,30.5920035 37.8282565,30.6870035 C39.1212565,31.4240035 40.4082565,32.1680035 41.6922565,32.9180035 C42.2062565,33.2190035 42.3692565,33.5790035 42.2292565,34.0550035 L42.2292565,34.0550035 Z M44.1122565,24.3950035 C42.5402565,24.4130035 40.9652565,24.4080035 39.3912565,24.3950035 C38.9812565,24.3900035 38.6792565,24.1720035 38.5402565,23.7840035 C38.4112565,23.4320035 38.4552565,23.0630035 38.7542565,22.8340035 C38.9722565,22.6690035 39.2862565,22.5620035 39.5612565,22.5460035 C40.3032565,22.5110035 41.0462565,22.5330035 41.7922565,22.5330035 L41.7922565,22.5530035 C42.5952565,22.5530035 43.4022565,22.5440035 44.2072565,22.5580035 C44.6122565,22.5640035 44.8602565,22.8230035 44.9952565,23.1910035 C45.1292565,23.5590035 45.0222565,23.8970035 44.7432565,24.1350035 C44.5762565,24.2740035 44.3272565,24.3900035 44.1122565,24.3950035 L44.1122565,24.3950035 Z" id="dateTimeTitleIcon" fill="#FFFFFF" sketch:type="MSShapeGroup"></path>
    </g>
</svg>