<?xml version="1.0" encoding="UTF-8" standalone="no"?>
<svg width="506px" height="347px" viewBox="0 0 506 347" version="1.1" xmlns="http://www.w3.org/2000/svg" xmlns:xlink="http://www.w3.org/1999/xlink" xmlns:sketch="http://www.bohemiancoding.com/sketch/ns">
    <!-- Generator: Sketch 3.3 (11970) - http://www.bohemiancoding.com/sketch -->
    <title>filling</title>
    <desc>Created with Sketch.</desc>
    <defs>
        <path id="path-1" d="M0.314515947,0.406 L496.918644,0.406 L496.918644,180.513 L0.314515947,180.513"></path>
    </defs>
    <g id="Page-1" stroke="none" stroke-width="1" fill="none" fill-rule="evenodd" sketch:type="MSPage">
        <g id="filling" sketch:type="MSLayerGroup" transform="translate(-13.000000, 0.000000)">
            <g id="Group-4" transform="translate(21.422139, 166.000000)">
                <mask id="mask-2" sketch:name="Clip 3" fill="white">
                    <use xlink:href="#path-1"></use>
                </mask>
                <g id="Clip-3"></g>
                <path d="M-315.497471,351.311 L89.2290507,-7.618 M-283.751809,351.311 L120.974713,-7.618 M-252.006146,351.311 L152.720375,-7.618 M-220.260484,351.311 L184.467011,-7.618 M-188.513848,351.311 L216.212674,-7.618 M-156.768186,351.311 L247.958336,-7.618 M-125.022523,351.311 L279.703998,-7.618 M-93.2758874,351.311 L311.450634,-7.618 M-61.5302251,351.311 L343.196296,-7.618 M-29.7845629,351.311 L374.941959,-7.618 M1.96109944,351.311 L406.687621,-7.618 M33.7077355,351.311 L438.433283,-7.618 M65.4533977,351.311 L470.179919,-7.618 M97.19906,351.311 L501.925582,-7.618 M128.944722,351.311 L533.671244,-7.618 M160.690385,351.311 L565.41788,-7.618 M192.437021,351.311 L597.163542,-7.618 M224.182683,351.311 L628.909205,-7.618 M255.928345,351.311 L660.654867,-7.618 M287.674008,351.311 L692.401503,-7.618 M319.420644,351.311 L724.147165,-7.618 M351.166306,351.311 L755.892827,-7.618 M-342.939231,351.311 L61.7882645,-7.618 M-370.380017,351.311 L34.3474784,-7.618 M-397.820803,351.311 L6.90571857,-7.618" id="Stroke-2" stroke="#A6A8AB" sketch:type="MSShapeGroup" mask="url(#mask-2)"></path>
            </g>
            <path d="M275.736034,137.424 C275.736034,49.371 209.216398,0.878 88.4286417,0.878 L20.5642795,0.878 C16.9010938,0.878 13.9273114,3.93 13.9273114,7.695 C13.9273114,11.459 16.9010938,14.512 20.5642795,14.512 L88.4286417,14.512 C153.425358,14.512 262.462098,30.477 262.462098,137.424 C262.462098,141.191 265.436854,144.24 269.099066,144.24 C272.762251,144.24 275.736034,141.191 275.736034,137.424" id="Fill-5" fill="#FFFFFF" sketch:type="MSShapeGroup"></path>
            <path d="M22.0248799,14.512 L88.4286417,14.512 C153.425358,14.512 262.462098,30.477 262.462098,137.424 C262.462098,141.191 265.436854,144.24 269.099066,144.24 C272.762251,144.24 275.736034,141.191 275.736034,137.424 C275.736034,49.371 209.216398,0.878 88.4286417,0.878 L22.0248799,0.878" id="Fill-6" fill="#A6A8AB" sketch:type="MSShapeGroup"></path>
            <path d="M292.483278,137.423 C292.483278,49.37 225.964615,0.878 105.174912,0.878 L37.3124972,0.878 C33.6483377,0.878 30.6745553,3.929 30.6745553,7.695 C30.6745553,11.459 33.6483377,14.512 37.3124972,14.512 L105.174912,14.512 C170.171629,14.512 279.208368,30.476 279.208368,137.423 C279.208368,141.191 282.184098,144.239 285.84631,144.239 C289.509495,144.239 292.483278,141.191 292.483278,137.423" id="Fill-7" fill="#A6A8AB" sketch:type="MSShapeGroup"></path>
            <path d="M262.969413,157.131 L262.969413,264.428 C262.969413,268.19 265.940274,271.245 269.606381,271.245 C273.271514,271.245 276.245296,268.19 276.245296,264.428 L276.245296,157.131 C277.325167,157.131 262.969413,156.775 262.969413,157.131" id="Fill-8" fill="#FFFFFF" sketch:type="MSShapeGroup"></path>
            <path d="M280.181128,157.131 L280.181128,264.428 C280.181128,268.19 283.152962,271.245 286.819069,271.245 C290.484203,271.245 293.457011,268.19 293.457011,264.428 L293.457011,157.131 C294.537856,157.131 280.181128,156.775 280.181128,157.131" id="Fill-10" fill="#FFFFFF" sketch:type="MSShapeGroup"></path>
            <path d="M410.569897,165.956 C410.919467,161.148 411.09766,170.878 411.09766,165.941 C411.09766,161.429 409.462762,156.322 401.934827,154.999 C401.934827,154.999 162.662195,155.137 155.787636,155.137 C148.911129,155.137 147.07272,165.956 147.07272,165.956 L410.569897,165.956" id="Fill-12" fill="#FFFFFF" sketch:type="MSShapeGroup"></path>
            <path d="M212.841608,159.294 C207.033287,159.294 202.324311,156.442 202.324311,152.925 L202.324311,131.61 C202.324311,128.092 207.033287,125.241 212.841608,125.241 L343.188507,125.241 C348.995854,125.241 353.705803,128.092 353.705803,131.61 L353.705803,152.925 C353.705803,156.442 348.995854,159.294 343.188507,159.294 L212.841608,159.294" id="Fill-13" fill="#FFFFFF" sketch:type="MSShapeGroup"></path>
            <path d="M21.7366548,165.882 L518.340782,165.882" id="Stroke-14" stroke="#A6A8AB" stroke-width="2" sketch:type="MSShapeGroup"></path>
        </g>
    </g>
</svg>