<?xml version="1.0" encoding="UTF-8" standalone="no"?>
<svg width="224px" height="103px" viewBox="0 0 224 103" version="1.1" xmlns="http://www.w3.org/2000/svg" xmlns:xlink="http://www.w3.org/1999/xlink" xmlns:sketch="http://www.bohemiancoding.com/sketch/ns">
    <!-- Generator: Sketch 3.3 (11970) - http://www.bohemiancoding.com/sketch -->
    <title>fonts</title>
    <desc>Created with Sketch.</desc>
    <defs></defs>
    <g id="Page-1" stroke="none" stroke-width="1" fill="none" fill-rule="evenodd" sketch:type="MSPage">
        <g id="fonts" sketch:type="MSLayerGroup" transform="translate(0.000000, -1.000000)">
            <g id="Page-1" sketch:type="MSShapeGroup">
                <g id="fonts" transform="translate(0.100514, 0.320000)">
                    <path d="M86.7017153,103.351675 L84.677464,103.351675 L84.677464,90.8631682 L91.7242329,90.8631682 L91.7242329,92.58878 L86.7017153,92.58878 L86.7017153,96.4923364 L91.4087246,96.4923364 L91.4087246,98.226695 L86.7017153,98.226695 L86.7017153,103.351675" id="Fill-43" fill="#FFFFFF"></path>
                    <path d="M102.189113,98.6109279 C102.189113,100.153482 101.793009,101.358037 101.001427,102.223967 C100.21047,103.089896 99.1083771,103.522237 97.6957745,103.522237 C96.812976,103.522237 96.0332643,103.322935 95.35539,102.924333 C94.6775157,102.52573 94.1564584,101.953442 93.7922181,101.207468 C93.4279778,100.461494 93.2455453,99.5961885 93.2455453,98.6109279 C93.2455453,97.0789945 93.638525,95.8831867 94.4244843,95.0235046 C95.2104436,94.1638226 96.3175342,93.7333567 97.7470055,93.7333567 C99.114,93.7333567 100.195475,94.1731941 100.993305,95.0534935 C101.79051,95.9331682 102.189113,97.1189797 102.189113,98.6109279 L102.189113,98.6109279 L102.189113,98.6109279 Z M95.3129057,98.6109279 C95.3129057,100.791996 96.1188577,101.882218 97.7301368,101.882218 C99.3245471,101.882218 100.121752,100.791996 100.121752,98.6109279 C100.121752,96.452976 99.3189242,95.3733752 97.713268,95.3733752 C96.8704547,95.3733752 96.2594307,95.6520222 95.8808207,96.2105656 C95.501586,96.7691091 95.3129057,97.5688133 95.3129057,98.6109279 L95.3129057,98.6109279 L95.3129057,98.6109279 Z" id="Fill-44" fill="#FFFFFF"></path>
                    <path d="M112.841423,103.351675 L110.825919,103.351675 L110.825919,97.5431978 C110.825919,96.8140924 110.679098,96.2705434 110.386081,95.9119261 C110.09244,95.5526839 109.626987,95.3733752 108.989098,95.3733752 C108.140662,95.3733752 107.520266,95.6245323 107.127287,96.1249723 C106.734307,96.626037 106.538129,97.4663512 106.538129,98.6446654 L106.538129,103.351675 L104.530122,103.351675 L104.530122,93.9045434 L106.102041,93.9045434 L106.383811,95.1428355 L106.486898,95.1428355 C106.771168,94.6930018 107.175394,94.3456303 107.699575,94.1007209 C108.223756,93.8558115 108.804166,93.7333567 109.442055,93.7333567 C111.708717,93.7333567 112.841423,94.8866802 112.841423,97.1927024 L112.841423,103.351675" id="Fill-45" fill="#FFFFFF"></path>
                    <path d="M119.188451,101.899712 C119.678895,101.899712 120.168089,101.82224 120.657908,101.668547 L120.657908,103.180488 C120.436115,103.277952 120.14997,103.357922 119.799475,103.424148 C119.449604,103.489124 119.085989,103.522237 118.710503,103.522237 C116.808706,103.522237 115.857183,102.519482 115.857183,100.515848 L115.857183,95.4246063 L114.56766,95.4246063 L114.56766,94.5361848 L115.951523,93.8020813 L116.63502,91.8028207 L117.873312,91.8028207 L117.873312,93.9045434 L120.564192,93.9045434 L120.564192,95.4246063 L117.873312,95.4246063 L117.873312,100.481486 C117.873312,100.965057 117.993893,101.32305 118.236303,101.55359 C118.478713,101.784129 118.796096,101.899712 119.188451,101.899712" id="Fill-46" fill="#FFFFFF"></path>
                    <path d="M133.506906,100.660795 C133.506906,101.583579 133.170155,102.290817 132.498529,102.783135 C131.826902,103.276078 130.864133,103.522237 129.611471,103.522237 C128.352562,103.522237 127.342311,103.331057 126.579468,102.949948 L126.579468,101.216214 C127.689682,101.728525 128.72305,101.98468 129.679571,101.98468 C130.915364,101.98468 131.533261,101.611693 131.533261,100.865719 C131.533261,100.626433 131.465161,100.427131 131.328336,100.267815 C131.191512,100.108499 130.966595,99.9435601 130.653586,99.7723734 C130.340577,99.6018115 129.905113,99.4081331 129.346569,99.191963 C128.258847,98.770244 127.522869,98.3491497 127.138636,97.9274307 C126.754403,97.5057116 126.561974,96.9590388 126.561974,96.2874122 C126.561974,95.4789612 126.888104,94.8510684 127.540362,94.4037338 C128.192621,93.957024 129.079168,93.7333567 130.201253,93.7333567 C131.311468,93.7333567 132.361704,93.9588983 133.352588,94.4081072 L132.703453,95.9200481 C131.684455,95.498329 130.827272,95.2884067 130.132529,95.2884067 C129.073545,95.2884067 128.543741,95.5901701 128.543741,96.1936969 C128.543741,96.4892126 128.681815,96.7403697 128.957963,96.9452939 C129.234736,97.1502181 129.836388,97.4319889 130.764795,97.7912311 C131.545131,98.0929945 132.111172,98.3685176 132.464791,98.6196747 C132.817786,98.870207 133.079564,99.1588503 133.250126,99.4862292 C133.421312,99.8142329 133.506906,100.204713 133.506906,100.660795" id="Fill-47" fill="#FFFFFF"></path>
                    <path d="M135.591135,91.401719 C135.591135,91.0431017 135.689848,90.766329 135.886026,90.5732754 C136.082828,90.379597 136.363349,90.2827579 136.72759,90.2827579 C137.080584,90.2827579 137.355482,90.379597 137.55166,90.5732754 C137.748462,90.766329 137.846551,91.0431017 137.846551,91.401719 C137.846551,91.7434677 137.748462,92.0121183 137.55166,92.2089205 C137.355482,92.405098 137.080584,92.5031867 136.72759,92.5031867 C136.363349,92.5031867 136.082828,92.405098 135.886026,92.2089205 C135.689848,92.0121183 135.591135,91.7434677 135.591135,91.401719 L135.591135,91.401719 L135.591135,91.401719 Z M135.711091,93.9045434 L137.718473,93.9045434 L137.718473,103.351675 L135.711091,103.351675 L135.711091,93.9045434 L135.711091,93.9045434 Z" id="Fill-48" fill="#FFFFFF"></path>
                    <path d="M146.935689,103.351675 L139.768965,103.351675 L139.768965,102.112758 L144.544074,95.4420998 L140.059482,95.4420998 L140.059482,93.9045434 L146.798865,93.9045434 L146.798865,95.3052754 L142.126218,101.814118 L146.935689,101.814118 L146.935689,103.351675" id="Fill-49" fill="#FFFFFF"></path>
                    <path d="M153.146518,103.522237 C151.677061,103.522237 150.528736,103.09427 149.699667,102.237087 C148.871224,101.379904 148.457002,100.199715 148.457002,98.6958965 C148.457002,97.153342 148.84186,95.9406654 149.610325,95.0572421 C150.378791,94.1744436 151.435275,93.7333567 152.779153,93.7333567 C154.026192,93.7333567 155.011453,94.1125915 155.734935,94.8698115 C156.457793,95.6264067 156.819534,96.6685213 156.819534,97.9961553 L156.819534,99.0807542 L150.524362,99.0807542 C150.553102,99.997915 150.80051,100.70203 151.267213,101.194348 C151.733915,101.68729 152.391797,101.933449 153.240233,101.933449 C153.798776,101.933449 154.317959,101.880969 154.799656,101.775383 C155.280728,101.669797 155.797412,101.494861 156.349708,101.249952 L156.349708,102.881848 C155.859889,103.115512 155.364447,103.279826 154.863383,103.37729 C154.362318,103.473505 153.79003,103.522237 153.146518,103.522237 L153.146518,103.522237 L153.146518,103.522237 Z M152.779153,95.2540444 C152.141889,95.2540444 151.630203,95.4558447 151.24597,95.860695 C150.861738,96.2649205 150.632447,96.8540776 150.558725,97.6281664 L154.846514,97.6281664 C154.834643,96.8484547 154.646588,96.2574233 154.282348,95.8563216 C153.918107,95.4545952 153.417043,95.2540444 152.779153,95.2540444 L152.779153,95.2540444 L152.779153,95.2540444 Z" id="Fill-50" fill="#FFFFFF"></path>
                    <path d="M14.9192298,20.2267911 L14.0015387,17.6748483 L10.4879243,17.6748483 L9.58954172,20.2267911 L8.00517033,20.2267911 L11.4436961,11 L13.0774114,11 L16.5159372,20.2267911 L14.9192298,20.2267911 L14.9192298,20.2267911 Z M13.605714,16.3801047 L12.7443395,13.8785786 C12.6815868,13.7107018 12.5946984,13.4468186 12.4836744,13.0869293 C12.3726504,12.7259672 12.2959527,12.4620841 12.2541176,12.2947436 C12.1409482,12.8101738 11.9757531,13.373339 11.7574595,13.9853118 L10.9282658,16.3801047 L13.605714,16.3801047 L13.605714,16.3801047 Z" id="Fill-51" fill="#FFFFFF"></path>
                    <path d="M118.678895,18.9916229 L117.253797,15.0287135 L111.79644,15.0287135 L110.400706,18.9916229 L107.940366,18.9916229 L113.280266,4.6612976 L115.818702,4.6612976 L121.158603,18.9916229 L118.678895,18.9916229 L118.678895,18.9916229 Z M116.638399,13.0175823 L115.301394,9.13214418 C115.203305,8.8722403 115.068355,8.4617671 114.895919,7.90197412 C114.723482,7.34280591 114.604152,6.93295749 114.5398,6.67180407 C114.36424,7.47275786 114.106211,8.34805915 113.768835,9.29833272 L112.479937,13.0175823 L116.638399,13.0175823 L116.638399,13.0175823 Z" id="Fill-52" fill="#FFFFFF"></path>
                    <path d="M213.184056,20.2267911 L210.931433,14.8377485 L202.30594,14.8377485 L200.099883,20.2267911 L196.212466,20.2267911 L204.651695,0.740247689 L208.663011,0.740247689 L217.10224,20.2267911 L213.184056,20.2267911 L213.184056,20.2267911 Z M209.959371,12.1028076 L207.845614,6.8196429 C207.690949,6.4662396 207.477245,5.90823439 207.205333,5.14777345 C206.932591,4.38659711 206.743832,3.82930729 206.641554,3.4751886 C206.363822,4.56329876 205.957202,5.75370987 205.423358,7.04570655 L203.386102,12.1028076 L209.959371,12.1028076 L209.959371,12.1028076 Z" id="Fill-53" fill="#FFFFFF"></path>
                    <path d="M27.8291128,50.0388909 L101.580588,50.0388909 L101.580588,51.2409464 L27.8291128,51.2409464 L27.8291128,50.0388909 L27.8291128,50.0388909 Z" id="Fill-54" fill="#FFFFFF"></path>
                    <path d="M128.406292,50.0638817 L196.212466,50.0638817 L196.212466,51.2172052 L128.406292,51.2172052 L128.406292,50.0638817 L128.406292,50.0638817 Z" id="Fill-55" fill="#FFFFFF"></path>
                    <path d="M14.8051793,64.5853863 C7.12426987,64.5853863 0.875330869,58.3364473 0.875330869,50.6549131 C0.875330869,42.9740037 7.12426987,36.7250647 14.8051793,36.7250647 C22.4867135,36.7250647 28.7362773,42.9740037 28.7362773,50.6549131 C28.7362773,58.3364473 22.4867135,64.5853863 14.8051793,64.5853863 L14.8051793,64.5853863 L14.8051793,64.5853863 Z M14.8051793,37.3498336 C7.46851756,37.3498336 1.50009982,43.3188762 1.50009982,50.6549131 C1.50009982,57.9915749 7.46851756,63.9606174 14.8051793,63.9606174 C22.1424658,63.9606174 28.1108835,57.9915749 28.1108835,50.6549131 C28.1108835,43.3188762 22.1424658,37.3498336 14.8051793,37.3498336 L14.8051793,37.3498336 L14.8051793,37.3498336 Z" id="Fill-58" fill="#58595B"></path>
                    <path d="M209.361353,64.8977708 C201.508007,64.8977708 195.118495,58.5082588 195.118495,50.6549131 C195.118495,42.8021922 201.508007,36.4126802 209.361353,36.4126802 C217.214699,36.4126802 223.604211,42.8021922 223.604211,50.6549131 C223.604211,58.5082588 217.214699,64.8977708 209.361353,64.8977708 L209.361353,64.8977708 L209.361353,64.8977708 Z M209.361353,37.6622181 C202.196503,37.6622181 196.368033,43.4906876 196.368033,50.6549131 C196.368033,57.8197634 202.196503,63.6482329 209.361353,63.6482329 C216.525579,63.6482329 222.354673,57.8197634 222.354673,50.6549131 C222.354673,43.4906876 216.525579,37.6622181 209.361353,37.6622181 L209.361353,37.6622181 L209.361353,37.6622181 Z" id="Fill-60" fill="#FFFFFF"></path>
                    <path d="M115.361353,64.8977708 C107.508007,64.8977708 101.118495,58.5082588 101.118495,50.6549131 C101.118495,42.8021922 107.508007,36.4126802 115.361353,36.4126802 C123.214699,36.4126802 129.604211,42.8021922 129.604211,50.6549131 C129.604211,58.5082588 123.214699,64.8977708 115.361353,64.8977708 L115.361353,64.8977708 L115.361353,64.8977708 Z M115.361353,37.6622181 C108.196503,37.6622181 102.368033,43.4906876 102.368033,50.6549131 C102.368033,57.8197634 108.196503,63.6482329 115.361353,63.6482329 C122.525579,63.6482329 128.354673,57.8197634 128.354673,50.6549131 C128.354673,43.4906876 122.525579,37.6622181 115.361353,37.6622181 L115.361353,37.6622181 L115.361353,37.6622181 Z" id="Fill-60-Copy-2" fill="#FFFFFF"></path>
                    <path d="M14.361353,64.8977708 C6.50800739,64.8977708 0.118495379,58.5082588 0.118495379,50.6549131 C0.118495379,42.8021922 6.50800739,36.4126802 14.361353,36.4126802 C22.2146987,36.4126802 28.6042107,42.8021922 28.6042107,50.6549131 C28.6042107,58.5082588 22.2146987,64.8977708 14.361353,64.8977708 L14.361353,64.8977708 L14.361353,64.8977708 Z M14.361353,37.6622181 C7.19650277,37.6622181 1.36803327,43.4906876 1.36803327,50.6549131 C1.36803327,57.8197634 7.19650277,63.6482329 14.361353,63.6482329 C21.5255786,63.6482329 27.3546728,57.8197634 27.3546728,50.6549131 C27.3546728,43.4906876 21.5255786,37.6622181 14.361353,37.6622181 L14.361353,37.6622181 L14.361353,37.6622181 Z" id="Fill-60-Copy-3" fill="#FFFFFF"></path>
                </g>
            </g>
        </g>
    </g>
</svg>