<?xml version="1.0" encoding="UTF-8" standalone="no"?>
<svg width="53px" height="53px" viewBox="0 0 53 53" version="1.1" xmlns="http://www.w3.org/2000/svg" xmlns:xlink="http://www.w3.org/1999/xlink" xmlns:sketch="http://www.bohemiancoding.com/sketch/ns">
    <!-- Generator: Sketch 3.3 (11970) - http://www.bohemiancoding.com/sketch -->
    <title>fontTitleIcon</title>
    <desc>Created with Sketch.</desc>
    <defs></defs>
    <g id="Page-1" stroke="none" stroke-width="1" fill="none" fill-rule="evenodd" sketch:type="MSPage">
        <g id="fontTitleIcon" sketch:type="MSLayerGroup" fill="#FFFFFF">
            <path d="M40.714,27.057 C40.511,27.845 39.93,29.799 38.967,32.916 L42.493,32.916 C41.585,29.995 41.076,28.345 40.964,27.963 C40.845,27.579 40.768,27.277 40.714,27.057" id="Fill-1" sketch:type="MSShapeGroup"></path>
            <path d="M18.147,19.673 C17.813,20.971 16.855,24.18 15.277,29.3 L21.07,29.3 C19.579,24.502 18.743,21.794 18.554,21.165 C18.368,20.535 18.232,20.04 18.147,19.673" id="Fill-2" sketch:type="MSShapeGroup"></path>
            <path d="M45.455,0.283 L7.409,0.283 C3.586,0.283 0.491,3.381 0.491,7.201 L0.491,45.249 C0.491,49.07 3.586,52.166 7.409,52.166 L45.455,52.166 C49.276,52.166 52.372,49.07 52.372,45.249 L52.372,7.201 C52.372,3.381 49.276,0.283 45.455,0.283 L45.455,0.283 Z M23.805,38.542 L22.195,33.251 L14.092,33.251 L12.48,38.542 L7.399,38.542 L15.243,16.221 L21.009,16.221 L28.885,38.542 L23.805,38.542 L23.805,38.542 Z M44.159,38.542 L43.177,35.322 L38.246,35.322 L37.263,38.542 L34.171,38.542 L38.947,24.955 L42.455,24.955 L47.25,38.542 L44.159,38.542 L44.159,38.542 Z" id="Fill-3" sketch:type="MSShapeGroup"></path>
        </g>
    </g>
</svg>