<?xml version="1.0" encoding="UTF-8" standalone="no"?>
<svg width="15px" height="47px" viewBox="0 0 15 47" version="1.1" xmlns="http://www.w3.org/2000/svg" xmlns:xlink="http://www.w3.org/1999/xlink" xmlns:sketch="http://www.bohemiancoding.com/sketch/ns">
    <!-- Generator: Sketch 3.3 (11970) - http://www.bohemiancoding.com/sketch -->
    <title>gburstTitleIcon</title>
    <desc>Created with Sketch.</desc>
    <defs></defs>
    <g id="Page-1" stroke="none" stroke-width="1" fill="none" fill-rule="evenodd" sketch:type="MSPage">
        <g id="gburstTitleIcon" sketch:type="MSLayerGroup" fill="#FFFFFF">
            <path d="M0.407,34.403 L4.762,32.434 L5.543,22.083 L1.811,24.927 L0.407,34.403" id="Fill-1" sketch:type="MSShapeGroup"></path>
            <path d="M12.647,24.927 L8.913,22.083 L9.692,32.434 L14.048,34.403 L12.647,24.927" id="Fill-2" sketch:type="MSShapeGroup"></path>
            <path d="M10.524,6.969 C10.073,5.751 7.543,0.143 7.494,0.015 L7.494,0.007 L7.492,0.012 L7.489,0.005 L7.489,0.02 C7.44,0.146 4.262,5.633 3.789,6.972 C3.463,7.894 3.427,9.298 3.427,9.298 L6.111,9.348 L6.153,9.308 L6.191,9.345 L10.886,9.295 C10.886,9.294 10.864,7.888 10.524,6.969" id="Fill-3" sketch:type="MSShapeGroup"></path>
            <path d="M7.579,34.335 C7.905,34.854 8.753,35.731 8.753,37.373 C8.753,39.463 7.765,41.823 7.299,41.823 C6.837,41.823 5.842,39.463 5.842,37.373 C5.842,35.731 6.694,34.854 7.02,34.335 C5.169,34.61 3.71,35.901 3.71,39.543 C3.71,43.037 7.221,46.457 7.299,46.457 C7.376,46.457 10.89,43.191 10.89,39.543 C10.89,35.901 9.429,34.613 7.579,34.335" id="Fill-4" sketch:type="MSShapeGroup"></path>
            <path d="M3.429,9.062 L10.871,9.062 L10.871,31.611 L3.429,31.611 L3.429,9.062 Z" id="Fill-5" sketch:type="MSShapeGroup"></path>
        </g>
    </g>
</svg>