<?xml version="1.0" encoding="UTF-8" standalone="no"?>
<svg width="14px" height="45px" viewBox="0 0 14 45" version="1.1" xmlns="http://www.w3.org/2000/svg" xmlns:xlink="http://www.w3.org/1999/xlink" xmlns:sketch="http://www.bohemiancoding.com/sketch/ns">
    <!-- Generator: Sketch 3.3 (11970) - http://www.bohemiancoding.com/sketch -->
    <title>glucagonSmallIcon</title>
    <desc>Created with Sketch.</desc>
    <defs></defs>
    <g id="Page-1" stroke="none" stroke-width="1" fill="none" fill-rule="evenodd" sketch:type="MSPage">
        <g id="glucagonSmallIcon" sketch:type="MSLayerGroup">
            <path d="M0.19,44.389 L0.19,16.443 C0.19,15.138 0.237,13.249 3.954,13.249 L10.401,13.249 C13.997,13.249 13.783,15.138 13.783,16.443 L13.783,44.389 L0.19,44.389" id="Fill-1" fill="#000000" sketch:type="MSShapeGroup"></path>
            <path d="M0.19,12.098 L0.19,3.613 C0.19,2.306 0.086,0.231 3.954,0.231 L10.401,0.231 C13.694,0.231 13.783,2.306 13.783,3.613 L13.956,12.098 L0.19,12.098" id="Fill-2" fill="#231F1F" sketch:type="MSShapeGroup"></path>
            <path d="M0.19,12.098 L0.19,3.613 C0.19,2.306 0.086,0.231 3.954,0.231 L10.401,0.231 C13.694,0.231 13.783,2.306 13.783,3.613 L13.956,12.098 L0.19,12.098" id="Fill-3" fill="#000000" sketch:type="MSShapeGroup"></path>
            <path d="M9.512,5.951 L7.445,5.951 C7.18,5.951 6.964,6.168 6.964,6.436 C6.964,6.7 7.18,6.914 7.445,6.914 L9.012,6.914 L9.012,8.279 C8.56,8.627 7.918,8.842 7.317,8.842 C5.891,8.842 4.932,7.832 4.932,6.312 C4.932,4.923 5.935,3.834 7.216,3.834 C8.043,3.834 8.515,4.1 8.894,4.38 C9.268,4.695 9.741,4.39 9.741,3.992 C9.741,3.836 9.669,3.692 9.524,3.57 C8.829,3.067 8.149,2.852 7.248,2.852 C5.353,2.852 3.867,4.38 3.867,6.349 C3.867,8.383 5.273,9.804 7.289,9.804 C8.387,9.804 9.212,9.361 9.702,8.997 C9.902,8.867 10.018,8.662 10.018,8.431 L10.018,6.476 C10.018,6.186 9.79,5.951 9.512,5.951" id="Fill-4" fill="#FFFFFF" sketch:type="MSShapeGroup"></path>
            <path d="M1.896,15.922 L12.085,15.922 L12.085,42.693 L1.896,42.693 L1.896,15.922 Z" id="Fill-5" fill="#FFFFFF" sketch:type="MSShapeGroup"></path>
        </g>
    </g>
</svg>