<?xml version="1.0" encoding="UTF-8" standalone="no"?>
<svg width="25px" height="22px" viewBox="0 0 25 22" version="1.1" xmlns="http://www.w3.org/2000/svg" xmlns:xlink="http://www.w3.org/1999/xlink" xmlns:sketch="http://www.bohemiancoding.com/sketch/ns">
    <!-- Generator: Sketch 3.3 (11970) - http://www.bohemiancoding.com/sketch -->
    <title>glucagonCapIcon</title>
    <desc>Created with Sketch.</desc>
    <defs></defs>
    <g id="Page-1" stroke="none" stroke-width="1" fill="none" fill-rule="evenodd" sketch:type="MSPage">
        <g id="glucagonCapIcon" sketch:type="MSLayerGroup">
            <path d="M24.332,21.878 L24.332,6.894 C24.332,4.587 24.518,0.921 17.687,0.921 L6.3,0.921 C0.486,0.921 0.023,4.587 0.023,6.894 L0.023,21.878" id="Fill-1" fill="#000000" sketch:type="MSShapeGroup"></path>
            <path d="M16.662,10.929 L13.013,10.929 C12.545,10.929 12.162,11.313 12.162,11.786 C12.162,12.252 12.545,12.63 13.013,12.63 L15.78,12.63 L15.78,15.04 C14.98,15.655 13.847,16.034 12.787,16.034 C10.267,16.034 8.574,14.251 8.574,11.567 C8.574,9.113 10.345,7.192 12.608,7.192 C14.069,7.192 14.902,7.66 15.571,8.155 C16.23,8.712 17.067,8.172 17.067,7.469 C17.067,7.193 16.94,6.941 16.684,6.725 C15.459,5.836 14.256,5.457 12.665,5.457 C9.316,5.457 6.693,8.154 6.693,11.631 C6.693,15.224 9.177,17.732 12.737,17.732 C14.675,17.732 16.133,16.952 17,16.308 C17.353,16.079 17.556,15.715 17.556,15.309 L17.556,11.857 C17.556,11.345 17.155,10.929 16.662,10.929" id="Fill-2" fill="#FFFFFF" sketch:type="MSShapeGroup"></path>
        </g>
    </g>
</svg>