<?xml version="1.0" encoding="UTF-8" standalone="no"?>
<svg width="18px" height="53px" viewBox="0 0 18 53" version="1.1" xmlns="http://www.w3.org/2000/svg" xmlns:xlink="http://www.w3.org/1999/xlink" xmlns:sketch="http://www.bohemiancoding.com/sketch/ns">
    <!-- Generator: Sketch 3.3 (11970) - http://www.bohemiancoding.com/sketch -->
    <title>glucagonIcon</title>
    <desc>Created with Sketch.</desc>
    <defs></defs>
    <g id="Page-1" stroke="none" stroke-width="1" fill="none" fill-rule="evenodd" sketch:type="MSPage">
        <g id="glucagonIcon" sketch:type="MSLayerGroup" transform="translate(0.500000, 0.500000)">
            <path d="M16.55936,14.1476456 L16.55936,4.09508861 C16.55936,2.54735443 16.68584,0.0878860759 12.04144,0.0878860759 L4.29828,0.0878860759 C0.34408,0.0878860759 0.02924,2.54735443 0.02924,4.09508861 L0.02924,14.1476456 L16.55936,14.1476456" id="Fill-1" fill="#FFFFFF" sketch:type="MSShapeGroup"></path>
            <path d="M11.34376,6.80211392 L8.86312,6.80211392 C8.5442,6.80211392 8.28376,7.05973418 8.28376,7.37706329 C8.28376,7.6896962 8.5442,7.94329114 8.86312,7.94329114 L10.744,7.94329114 L10.744,9.56012658 C10.2,9.97272152 9.43024,10.2269873 8.70876,10.2269873 C6.99584,10.2269873 5.84392,9.03079747 5.84392,7.23013924 C5.84392,5.58378481 7.04888,4.29434177 8.58704,4.29434177 C9.58052,4.29434177 10.14696,4.60898734 10.60188,4.94107595 C11.05,5.31475949 11.61916,4.95248101 11.61916,4.4808481 C11.61916,4.29568354 11.5328,4.12594937 11.3594,3.98170886 C10.52572,3.38529114 9.70836,3.13102532 8.6258,3.13102532 C6.34848,3.13102532 4.56484,4.94040506 4.56484,7.27307595 C4.56484,9.68356962 6.25464,11.3661519 8.67476,11.3661519 C9.99328,11.3661519 10.98472,10.8428608 11.5736,10.4108101 C11.81364,10.2571772 11.95236,10.0129747 11.95236,9.74059494 L11.95236,7.42402532 C11.95236,7.08120253 11.679,6.80211392 11.34376,6.80211392" id="Fill-2" fill="#000000" sketch:type="MSShapeGroup"></path>
            <path d="M11.90272,15.4484937 L4.15956,15.4484937 C-0.15776,15.4484937 0.0986,17.6858987 0.0986,19.2336329 L0.0986,52.3425316 L16.422,52.3425316 L16.422,19.2336329 C16.422,17.6858987 16.36556,15.4484937 11.90272,15.4484937 L11.90272,15.4484937 Z M2.1386,18.1139241 L14.3752,18.1139241 L14.3752,50.3332278 L2.1386,50.3332278 L2.1386,18.1139241 Z" id="Fill-3" fill="#FFFFFF" sketch:type="MSShapeGroup"></path>
        </g>
    </g>
</svg>