<?xml version="1.0" encoding="UTF-8" standalone="no"?>
<svg width="34px" height="30px" viewBox="0 0 34 30" version="1.1" xmlns="http://www.w3.org/2000/svg" xmlns:xlink="http://www.w3.org/1999/xlink" xmlns:sketch="http://www.bohemiancoding.com/sketch/ns">
    <!-- Generator: Sketch 3.3 (11970) - http://www.bohemiancoding.com/sketch -->
    <title>hamburger</title>
    <desc>Created with Sketch.</desc>
    <defs></defs>
    <g id="Page-1" stroke="none" stroke-width="1" fill="none" fill-rule="evenodd" sketch:type="MSPage">
        <g id="hamburger" sketch:type="MSLayerGroup" fill="#FFFFFF">
            <path d="M33.6581111,14.862766 C33.6581111,15.9204255 32.8125185,16.7776596 31.7692222,16.7776596 L2.17662963,16.7776596 C1.13396296,16.7776596 0.287740741,15.9204255 0.287740741,14.862766 C0.287740741,13.8051064 1.13396296,12.9478723 2.17662963,12.9478723 L31.7692222,12.9478723 C32.8125185,12.9478723 33.6581111,13.8051064 33.6581111,14.862766" id="Fill-3" sketch:type="MSShapeGroup"></path>
            <path d="M33.6581111,27.6287234 C33.6581111,28.6857447 32.8125185,29.543617 31.7692222,29.543617 L2.17662963,29.543617 C1.13396296,29.543617 0.287740741,28.6857447 0.287740741,27.6287234 C0.287740741,26.5710638 1.13396296,25.7138298 2.17662963,25.7138298 L31.7692222,25.7138298 C32.8125185,25.7138298 33.6581111,26.5710638 33.6581111,27.6287234" id="Fill-4" sketch:type="MSShapeGroup"></path>
            <path d="M33.6581111,2.09680851 C33.6581111,3.15446809 32.8125185,4.01170213 31.7692222,4.01170213 L2.17662963,4.01170213 C1.13396296,4.01170213 0.287740741,3.15446809 0.287740741,2.09680851 C0.287740741,1.03914894 1.13396296,0.181914894 2.17662963,0.181914894 L31.7692222,0.181914894 C32.8125185,0.181914894 33.6581111,1.03914894 33.6581111,2.09680851" id="Fill-5" sketch:type="MSShapeGroup"></path>
        </g>
    </g>
</svg>