<?xml version="1.0" encoding="UTF-8" standalone="no"?>
<svg width="26px" height="46px" viewBox="0 0 26 46" version="1.1" xmlns="http://www.w3.org/2000/svg" xmlns:xlink="http://www.w3.org/1999/xlink" xmlns:sketch="http://www.bohemiancoding.com/sketch/ns">
    <!-- Generator: Sketch 3.3 (11970) - http://www.bohemiancoding.com/sketch -->
    <title>highSmallIcon</title>
    <desc>Created with Sketch.</desc>
    <defs></defs>
    <g id="Page-1" stroke="none" stroke-width="1" fill="none" fill-rule="evenodd" sketch:type="MSPage">
        <g id="highSmallIcon" sketch:type="MSLayerGroup">
            <path d="M16.66,17.263 C13.286,17.263 11.64,14.509 11.64,12.062 C11.64,8.462 16.66,0.503 16.66,0.503 C16.66,0.503 21.673,8.462 21.673,12.062 C21.673,14.509 20.031,17.263 16.66,17.263" id="Fill-1" fill="#000000" sketch:type="MSShapeGroup"></path>
            <path d="M16.212,12.744 C16.548,13.798 16.274,14.822 15.605,15.033 C14.941,15.243 14.13,14.563 13.796,13.511 C13.459,12.456 13.734,11.432 14.402,11.22 C15.068,11.011 15.878,11.693 16.212,12.744" id="Fill-2" fill="#FFFFFF" sketch:type="MSShapeGroup"></path>
            <path d="M1.23,0.224 L1.23,44.302" id="Stroke-3" stroke="#000000" stroke-width="2" sketch:type="MSShapeGroup"></path>
            <path d="M4.474,44.808 L24.357,44.808 M1.238,33.907 L6.033,33.907 M1.238,23.009 L6.033,23.009 M1.238,12.109 L6.033,12.109 M1.238,1.211 L6.033,1.211" id="Stroke-4" stroke="#6C6C6C" stroke-width="2" stroke-linecap="round" sketch:type="MSShapeGroup"></path>
            <path d="M0.224,44.808 L24.357,44.808" id="Stroke-5" stroke="#000000" stroke-width="2" sketch:type="MSShapeGroup"></path>
            <path d="M1.238,33.907 L6.033,33.907 M1.238,23.009 L6.033,23.009 M1.238,12.109 L6.033,12.109 M1.238,1.211 L6.033,1.211" id="Stroke-6" stroke="#000000" stroke-width="2" stroke-linecap="round" sketch:type="MSShapeGroup"></path>
        </g>
    </g>
</svg>