<?xml version="1.0" encoding="UTF-8" standalone="no"?>
<svg width="360px" height="591px" viewBox="0 0 360 591" version="1.1" xmlns="http://www.w3.org/2000/svg" xmlns:xlink="http://www.w3.org/1999/xlink" xmlns:sketch="http://www.bohemiancoding.com/sketch/ns">
    <!-- Generator: Sketch 3.3 (11970) - http://www.bohemiancoding.com/sketch -->
    <title>highBgAlert</title>
    <desc>Created with Sketch.</desc>
    <defs></defs>
    <g id="Page-1" stroke="none" stroke-width="1" fill="none" fill-rule="evenodd" sketch:type="MSPage">
        <g id="highBgAlert" sketch:type="MSLayerGroup">
            <g id="Page-1" sketch:type="MSShapeGroup">
                <g id="highBgAlert">
                    <path d="M0.214935305,0.443179298 L359.549501,0.443179298 L359.549501,590.683475 L0.214935305,590.683475 L0.214935305,0.443179298 L0.214935305,0.443179298 Z" id="Fill-1016" fill="#000000"></path>
                    <path d="M89.6579667,423.008651 C87.9571165,423.008651 86.6395564,422.484288 85.7072828,421.43756 C84.7736784,420.390166 84.3078743,418.908244 84.3078743,416.993124 C84.3078743,415.026765 84.7809982,413.508244 85.7285767,412.436229 C86.6754898,411.363549 88.0243253,410.827874 89.7757486,410.827874 C90.3407024,410.827874 90.9049908,410.888429 91.47061,411.009538 C92.0348983,411.131312 92.4780776,411.274381 92.8001479,411.438743 L92.2531608,412.95061 C91.8598891,412.793567 91.4306839,412.663142 90.9662107,412.559335 C90.5017375,412.455527 90.0904991,412.403623 89.7331608,412.403623 C87.3455823,412.403623 86.1524584,413.926137 86.1524584,416.971165 C86.1524584,418.415157 86.4432532,419.523105 87.0255083,420.295009 C87.6084288,421.066913 88.4714972,421.45353 89.6153789,421.45353 C90.5948983,421.45353 91.5990388,421.242588 92.6284658,420.820702 L92.6284658,422.397116 C91.8419224,422.804362 90.851756,423.008651 89.6579667,423.008651" id="Fill-1017" fill="#FFFFFF"></path>
                    <path d="M103.222181,422.793715 L103.222181,415.191128 C103.222181,414.233567 103.003919,413.518891 102.568059,413.047098 C102.131534,412.575305 101.449464,412.339076 100.520518,412.339076 C99.283475,412.339076 98.381146,412.67512 97.8128651,413.347209 C97.2445841,414.019298 96.9604436,415.119926 96.9604436,416.64976 L96.9604436,422.793715 L95.1804067,422.793715 L95.1804067,406.109945 L96.9604436,406.109945 L96.9604436,411.159926 C96.9604436,411.767468 96.9318299,412.271867 96.8746026,412.671793 L96.9817375,412.671793 C97.3324214,412.107505 97.8308318,411.662329 98.477634,411.336932 C99.1244362,411.011534 99.862403,410.849168 100.691534,410.849168 C102.128872,410.849168 103.206211,411.190536 103.92488,411.873272 C104.642884,412.555342 105.002218,413.64 105.002218,415.127246 L105.002218,422.793715 L103.222181,422.793715" id="Fill-1018" fill="#FFFFFF"></path>
                    <path d="M113.396673,423.008651 C111.659224,423.008651 110.288429,422.47963 109.284288,421.42159 C108.280148,420.363549 107.77841,418.89427 107.77841,417.014418 C107.77841,415.119926 108.244214,413.615379 109.177153,412.500111 C110.110092,411.385508 111.363105,410.827874 112.935527,410.827874 C114.408133,410.827874 115.573309,411.311645 116.431054,412.280518 C117.288799,413.248725 117.717338,414.526359 117.717338,416.11342 L117.717338,417.24 L109.622329,417.24 C109.657597,418.619445 110.006285,419.666174 110.667726,420.38085 C111.329168,421.095527 112.259445,421.45353 113.460555,421.45353 C114.726211,421.45353 115.976562,421.188688 117.213604,420.659667 L117.213604,422.246728 C116.584104,422.518226 115.989871,422.713198 115.428244,422.831645 C114.867283,422.949427 114.189871,423.008651 113.396673,423.008651 L113.396673,423.008651 L113.396673,423.008651 Z M112.914233,412.317782 C111.970647,412.317782 111.218041,412.625213 110.657079,413.240074 C110.095453,413.854935 109.764732,414.70536 109.665582,415.792015 L115.808872,415.792015 C115.808872,414.669427 115.558669,413.810351 115.058262,413.213457 C114.557856,412.616562 113.843179,412.317782 112.914233,412.317782 L112.914233,412.317782 L112.914233,412.317782 Z" id="Fill-1019" fill="#FFFFFF"></path>
                    <path d="M125.32525,423.008651 C123.623734,423.008651 122.306839,422.484288 121.3739,421.43756 C120.440961,420.390166 119.975157,418.908244 119.975157,416.993124 C119.975157,415.026765 120.448281,413.508244 121.39586,412.436229 C122.342773,411.363549 123.691608,410.827874 125.443031,410.827874 C126.00732,410.827874 126.572274,410.888429 127.137893,411.009538 C127.701516,411.131312 128.144695,411.274381 128.467431,411.438743 L127.919778,412.95061 C127.527172,412.793567 127.097967,412.663142 126.633494,412.559335 C126.16902,412.455527 125.757116,412.403623 125.399778,412.403623 C123.0122,412.403623 121.819076,413.926137 121.819076,416.971165 C121.819076,418.415157 122.110536,419.523105 122.692791,420.295009 C123.275712,421.066913 124.13878,421.45353 125.281996,421.45353 C126.261516,421.45353 127.266322,421.242588 128.295749,420.820702 L128.295749,422.397116 C127.50854,422.804362 126.519039,423.008651 125.32525,423.008651" id="Fill-1020" fill="#FFFFFF"></path>
                    <path d="M132.607098,416.778189 C132.914529,416.342329 133.382329,415.770055 134.012495,415.062699 L137.807468,411.042144 L139.920222,411.042144 L135.159039,416.048872 L140.252274,422.793715 L138.096932,422.793715 L133.947283,417.24 L132.607098,418.397856 L132.607098,422.793715 L130.84902,422.793715 L130.84902,406.109945 L132.607098,406.109945 L132.607098,414.955564 C132.607098,415.348835 132.578484,415.956377 132.521257,416.778189 L132.607098,416.778189" id="Fill-1021" fill="#FFFFFF"></path>
                    <path d="M147.930055,407.857375 C147.930055,407.450129 148.029871,407.151349 148.230166,406.962366 C148.430462,406.772717 148.680665,406.67756 148.980776,406.67756 C149.266248,406.67756 149.513124,406.774713 149.720074,406.967689 C149.927689,407.160665 150.031497,407.456784 150.031497,407.857375 C150.031497,408.257967 149.927689,408.556747 149.720074,408.75305 C149.513124,408.950018 149.266248,409.047837 148.980776,409.047837 C148.680665,409.047837 148.430462,408.950018 148.230166,408.75305 C148.029871,408.556747 147.930055,408.257967 147.930055,407.857375 L147.930055,407.857375 L147.930055,407.857375 Z M148.079778,411.042144 L149.859815,411.042144 L149.859815,422.793715 L148.079778,422.793715 L148.079778,411.042144 L148.079778,411.042144 Z" id="Fill-1022" fill="#FFFFFF"></path>
                    <path d="M161.337227,422.793715 L161.337227,415.191128 C161.337227,414.233567 161.118965,413.518891 160.683105,413.047098 C160.24658,412.575305 159.56451,412.339076 158.635564,412.339076 C157.405841,412.339076 156.504843,412.671793 155.933235,413.336562 C155.361627,414.001331 155.07549,415.098632 155.07549,416.628466 L155.07549,422.793715 L153.295453,422.793715 L153.295453,411.042144 L154.743438,411.042144 L155.032237,412.650499 L155.118078,412.650499 C155.482736,412.071571 155.993789,411.623068 156.651238,411.304991 C157.308688,410.986913 158.041996,410.827874 158.849834,410.827874 C160.265213,410.827874 161.329908,411.169242 162.04525,411.851978 C162.759926,412.534048 163.117264,413.626026 163.117264,415.127246 L163.117264,422.793715 L161.337227,422.793715" id="Fill-1023" fill="#FFFFFF"></path>
                    <path d="M171.871054,412.424917 L168.879926,412.424917 L168.879926,422.793715 L167.099224,422.793715 L167.099224,412.424917 L164.997782,412.424917 L164.997782,411.621072 L167.099224,410.977597 L167.099224,410.323475 C167.099224,407.43549 168.361553,405.991497 170.88488,405.991497 C171.506396,405.991497 172.235712,406.117264 173.072163,406.367468 L172.611017,407.792828 C171.924954,407.571238 171.338041,407.460776 170.852939,407.460776 C170.180185,407.460776 169.683771,407.684362 169.362366,408.130869 C169.040296,408.578041 168.879926,409.294048 168.879926,410.280222 L168.879926,411.042144 L171.871054,411.042144 L171.871054,412.424917" id="Fill-1024" fill="#FFFFFF"></path>
                    <path d="M175.763179,411.042144 L175.763179,418.66536 C175.763179,419.623586 175.980776,420.338262 176.416636,420.810055 C176.853161,421.281848 177.535896,421.517412 178.464843,421.517412 C179.694566,421.517412 180.593567,421.181368 181.161848,420.509945 C181.730129,419.837856 182.01427,418.740555 182.01427,417.218041 L182.01427,411.042144 L183.793641,411.042144 L183.793641,422.793715 L182.325028,422.793715 L182.067505,421.217301 L181.971682,421.217301 C181.606359,421.796229 181.100628,422.239409 180.454492,422.546839 C179.807024,422.85427 179.069057,423.008651 178.239926,423.008651 C176.809908,423.008651 175.739889,422.668614 175.02854,421.989205 C174.31719,421.310462 173.961848,420.223808 173.961848,418.729908 L173.961848,411.042144 L175.763179,411.042144" id="Fill-1025" fill="#FFFFFF"></path>
                    <path d="M194.87512,419.587652 C194.87512,420.680961 194.466543,421.524732 193.652052,422.118299 C192.836895,422.711201 191.693013,423.008651 190.220407,423.008651 C188.662625,423.008651 187.446876,422.761109 186.575157,422.268022 L186.575157,420.617079 C187.139445,420.902551 187.746322,421.128133 188.392458,421.292495 C189.039926,421.456858 189.662773,421.538706 190.26366,421.538706 C191.192606,421.538706 191.907948,421.39098 192.407689,421.094196 C192.908096,420.797412 193.158965,420.344917 193.158965,419.738041 C193.158965,419.280222 192.960665,418.888946 192.564067,418.564214 C192.166802,418.238152 191.392902,417.854196 190.243031,417.411017 C189.148392,417.003771 188.371165,416.648429 187.910684,416.344325 C187.448872,416.040887 187.106174,415.695527 186.881257,415.309575 C186.655675,414.923623 186.543216,414.462477 186.543216,413.926137 C186.543216,412.968577 186.932495,412.212643 187.712384,411.659002 C188.490943,411.104695 189.55963,410.827874 190.917782,410.827874 C192.183438,410.827874 193.419815,411.085397 194.627579,411.599778 L193.99475,413.047098 C192.816266,412.560665 191.746913,412.317782 190.789353,412.317782 C189.945582,412.317782 189.309427,412.450203 188.880887,412.715046 C188.451682,412.979224 188.237412,413.343882 188.237412,413.808355 C188.237412,414.123105 188.31793,414.39061 188.478299,414.6122 C188.639335,414.833789 188.898189,415.045397 189.256192,415.245028 C189.612865,415.445323 190.299593,415.734787 191.315046,416.11342 C192.708466,416.621146 193.650721,417.1322 194.139815,417.647246 C194.629575,418.161627 194.87512,418.808429 194.87512,419.587652" id="Fill-1026" fill="#FFFFFF"></path>
                    <path d="M197.263364,407.857375 C197.263364,407.450129 197.363845,407.151349 197.56414,406.962366 C197.763771,406.772717 198.013974,406.67756 198.314085,406.67756 C198.600222,406.67756 198.846433,406.774713 199.054048,406.967689 C199.260998,407.160665 199.365471,407.456784 199.365471,407.857375 C199.365471,408.257967 199.260998,408.556747 199.054048,408.75305 C198.846433,408.950018 198.600222,409.047837 198.314085,409.047837 C198.013974,409.047837 197.763771,408.950018 197.56414,408.75305 C197.363845,408.556747 197.263364,408.257967 197.263364,407.857375 L197.263364,407.857375 L197.263364,407.857375 Z M197.413752,411.042144 L199.193789,411.042144 L199.193789,422.793715 L197.413752,422.793715 L197.413752,411.042144 L197.413752,411.042144 Z" id="Fill-1027" fill="#FFFFFF"></path>
                    <path d="M212.783956,416.907283 C212.783956,418.823068 212.30085,420.318299 211.336636,421.394972 C210.371091,422.470314 209.038226,423.008651 207.33671,423.008651 C206.285989,423.008651 205.35305,422.761109 204.537893,422.268022 C203.722736,421.774935 203.0939,421.066913 202.650721,420.145287 C202.207542,419.222994 201.986617,418.14366 201.986617,416.907283 C201.986617,414.991497 202.465065,413.498928 203.422625,412.430906 C204.38085,411.362218 205.710388,410.827874 207.411238,410.827874 C209.055527,410.827874 210.36244,411.374196 211.330647,412.46817 C212.299519,413.561479 212.783956,415.041405 212.783956,416.907283 L212.783956,416.907283 L212.783956,416.907283 Z M203.830536,416.907283 C203.830536,418.407837 204.131312,419.551719 204.731534,420.338262 C205.331756,421.12414 206.214787,421.517412 207.379963,421.517412 C208.544473,421.517412 209.429501,421.126137 210.033715,420.344251 C210.637264,419.561035 210.939372,418.415157 210.939372,416.907283 C210.939372,415.412717 210.637264,414.278152 210.033715,413.502921 C209.429501,412.727024 208.537819,412.339076 207.358004,412.339076 C206.192828,412.339076 205.313789,412.722366 204.720222,413.48695 C204.12732,414.251534 203.830536,415.391423 203.830536,416.907283 L203.830536,416.907283 L203.830536,416.907283 Z" id="Fill-1028" fill="#FFFFFF"></path>
                    <path d="M223.693752,422.793715 L223.693752,415.191128 C223.693752,414.233567 223.47549,413.518891 223.03963,413.047098 C222.603105,412.575305 221.921035,412.339076 220.992089,412.339076 C219.762366,412.339076 218.861368,412.671793 218.28976,413.336562 C217.718152,414.001331 217.432015,415.098632 217.432015,416.628466 L217.432015,422.793715 L215.651978,422.793715 L215.651978,411.042144 L217.099963,411.042144 L217.388762,412.650499 L217.474603,412.650499 C217.839261,412.071571 218.350314,411.623068 219.007763,411.304991 C219.665213,410.986913 220.398521,410.827874 221.206359,410.827874 C222.621738,410.827874 223.686433,411.169242 224.401774,411.851978 C225.116451,412.534048 225.473789,413.626026 225.473789,415.127246 L225.473789,422.793715 L223.693752,422.793715" id="Fill-1029" fill="#FFFFFF"></path>
                    <path d="M242.415083,419.587652 C242.415083,420.680961 242.007172,421.524732 241.192015,422.118299 C240.376858,422.711201 239.233641,423.008651 237.761035,423.008651 C236.202588,423.008651 234.987505,422.761109 234.11512,422.268022 L234.11512,420.617079 C234.680074,420.902551 235.286285,421.128133 235.933087,421.292495 C236.579889,421.456858 237.203401,421.538706 237.803623,421.538706 C238.733235,421.538706 239.447911,421.39098 239.948318,421.094196 C240.448725,420.797412 240.699593,420.344917 240.699593,419.738041 C240.699593,419.280222 240.500628,418.888946 240.10403,418.564214 C239.707431,418.238152 238.932865,417.854196 237.782994,417.411017 C236.688355,417.003771 235.911128,416.648429 235.450647,416.344325 C234.989501,416.040887 234.646137,415.695527 234.42122,415.309575 C234.195638,414.923623 234.083179,414.462477 234.083179,413.926137 C234.083179,412.968577 234.472458,412.212643 235.252348,411.659002 C236.030906,411.104695 237.100259,410.827874 238.45841,410.827874 C239.723401,410.827874 240.959778,411.085397 242.168207,411.599778 L241.535379,413.047098 C240.356229,412.560665 239.287542,412.317782 238.329316,412.317782 C237.486211,412.317782 236.850055,412.450203 236.42085,412.715046 C235.992311,412.979224 235.777375,413.343882 235.777375,413.808355 C235.777375,414.123105 235.857893,414.39061 236.018928,414.6122 C236.179963,414.833789 236.438152,415.045397 236.796821,415.245028 C237.153494,415.445323 237.839556,415.734787 238.855009,416.11342 C240.248429,416.621146 241.190684,417.1322 241.679778,417.647246 C242.170203,418.161627 242.415083,418.808429 242.415083,419.587652" id="Fill-1030" fill="#FFFFFF"></path>
                    <path d="M244.803327,407.857375 C244.803327,407.450129 244.903142,407.151349 245.103438,406.962366 C245.303734,406.772717 245.553937,406.67756 245.854048,406.67756 C246.140185,406.67756 246.386396,406.774713 246.593346,406.967689 C246.800961,407.160665 246.904769,407.456784 246.904769,407.857375 C246.904769,408.257967 246.800961,408.556747 246.593346,408.75305 C246.386396,408.950018 246.140185,409.047837 245.854048,409.047837 C245.553937,409.047837 245.303734,408.950018 245.103438,408.75305 C244.903142,408.556747 244.803327,408.257967 244.803327,407.857375 L244.803327,407.857375 L244.803327,407.857375 Z M244.95305,411.042144 L246.733087,411.042144 L246.733087,422.793715 L244.95305,422.793715 L244.95305,411.042144 L244.95305,411.042144 Z" id="Fill-1031" fill="#FFFFFF"></path>
                    <path d="M254.261811,421.538706 C254.575896,421.538706 254.879335,421.516081 255.173457,421.469501 C255.465582,421.423586 255.698484,421.374344 255.870166,421.324436 L255.870166,422.68658 C255.67719,422.779741 255.39305,422.856266 255.017079,422.917486 C254.64244,422.978041 254.304399,423.008651 254.004288,423.008651 C251.731165,423.008651 250.594603,421.810869 250.594603,419.41597 L250.594603,412.424917 L248.911719,412.424917 L248.911719,411.567172 L250.594603,410.827874 L251.345213,408.318521 L252.37464,408.318521 L252.37464,411.042144 L255.784325,411.042144 L255.784325,412.424917 L252.37464,412.424917 L252.37464,419.341442 C252.37464,420.048799 252.542329,420.592458 252.878373,420.971091 C253.213752,421.349723 253.675564,421.538706 254.261811,421.538706" id="Fill-1032" fill="#FFFFFF"></path>
                    <path d="M262.822625,423.008651 C261.085176,423.008651 259.714381,422.47963 258.71024,421.42159 C257.705434,420.363549 257.204362,418.89427 257.204362,417.014418 C257.204362,415.119926 257.670166,413.615379 258.603105,412.500111 C259.535379,411.385508 260.788392,410.827874 262.361479,410.827874 C263.83342,410.827874 264.998595,411.311645 265.85634,412.280518 C266.714085,413.248725 267.14329,414.526359 267.14329,416.11342 L267.14329,417.24 L259.048281,417.24 C259.083549,418.619445 259.432237,419.666174 260.093013,420.38085 C260.754455,421.095527 261.685397,421.45353 262.886506,421.45353 C264.152163,421.45353 265.402514,421.188688 266.639556,420.659667 L266.639556,422.246728 C266.010055,422.518226 265.415157,422.713198 264.854196,422.831645 C264.293235,422.949427 263.615157,423.008651 262.822625,423.008651 L262.822625,423.008651 L262.822625,423.008651 Z M262.339519,412.317782 C261.395933,412.317782 260.643327,412.625213 260.083031,413.240074 C259.521405,413.854935 259.190684,414.70536 259.090869,415.792015 L265.234824,415.792015 C265.234824,414.669427 264.984621,413.810351 264.484214,413.213457 C263.983808,412.616562 263.269131,412.317782 262.339519,412.317782 L262.339519,412.317782 L262.339519,412.317782 Z" id="Fill-1033" fill="#FFFFFF"></path>
                    <path d="M270.363327,418.472384 L270.363327,417.893457 C270.363327,417.057006 270.491756,416.369612 270.749279,415.829279 C271.006802,415.290277 271.48525,414.719335 272.186617,414.119113 C273.158152,413.297301 273.771682,412.679113 274.025213,412.264547 C274.279409,411.849982 274.405841,411.349575 274.405841,410.763327 C274.405841,410.034011 274.172274,409.471719 273.703142,409.074455 C273.235342,408.677856 272.561922,408.478891 271.682218,408.478891 C271.11793,408.478891 270.567616,408.545434 270.031275,408.677856 C269.494935,408.810277 268.880074,409.051165 268.186691,409.401183 L267.554529,407.953863 C268.904695,407.246506 270.317412,406.892495 271.789353,406.892495 C273.154824,406.892495 274.216192,407.22854 274.974787,407.899963 C275.731386,408.572052 276.110684,409.51963 276.110684,410.742033 C276.110684,411.263734 276.040813,411.722884 275.901738,412.119482 C275.761996,412.516747 275.557043,412.891386 275.28488,413.246063 C275.013383,413.599409 274.427135,414.16902 273.526802,414.955564 C272.804806,415.570425 272.327689,416.081479 272.094787,416.48939 C271.863216,416.896636 271.746765,417.43963 271.746765,418.119039 L271.746765,418.472384 L270.363327,418.472384 L270.363327,418.472384 Z M269.838299,421.657153 C269.838299,420.684954 270.266839,420.199187 271.124584,420.199187 C271.53915,420.199187 271.859224,420.323623 272.084806,420.573826 C272.309723,420.82403 272.422181,421.18536 272.422181,421.657153 C272.422181,422.114972 272.307726,422.470314 272.078817,422.72451 C271.849908,422.978041 271.532495,423.104473 271.124584,423.104473 C270.753272,423.104473 270.445841,422.992015 270.202957,422.767098 C269.959409,422.541516 269.838299,422.1722 269.838299,421.657153 L269.838299,421.657153 L269.838299,421.657153 Z" id="Fill-1034" fill="#FFFFFF"></path>
                    <path d="M33.5864695,68.5111275 L31.958817,66.8828096 L40.5815157,58.25878 L31.9980776,49.6760074 L33.6263956,48.047024 L42.2104991,56.6304621 L50.7926063,48.047024 L52.4222551,49.6773383 L43.8381516,58.25878 L52.4615157,66.8828096 L50.8331978,68.5111275 L42.2104991,59.8884288 L33.5864695,68.5111275" id="Fill-1041" fill="#FFFFFF"></path>
                    <path d="M132.086063,340.832163 C135.84976,340.832163 138.584695,343.579076 138.584695,347.326137 L138.584695,350.10366 C138.584695,353.86403 135.84976,356.834529 132.086063,356.834529 C128.259815,356.834529 125.469649,353.86403 125.469649,350.10366 L125.469649,347.326137 C125.469649,343.579076 128.259815,340.832163 132.086063,340.832163 L132.086063,340.832163 L132.086063,340.832163 Z M125.604732,262.92244 C125.469649,260.408429 127.255009,258.448725 129.631941,258.448725 L134.405102,258.448725 C136.956377,258.448725 138.584695,260.408429 138.524806,262.92244 L135.271497,325.95305 C135.135749,327.715786 133.77427,329.141811 132.086063,329.141811 C130.28207,329.141811 128.837412,327.715786 128.754233,325.95305 L125.604732,262.92244 L125.604732,262.92244 Z" id="Fill-1043" fill="#FFFFFF"></path>
                    <path d="M216.507726,299.263808 C209.18329,299.263808 205.608577,293.28488 205.608577,287.972052 C205.608577,280.15719 216.507726,262.878521 216.507726,262.878521 C216.507726,262.878521 227.390906,280.15719 227.390906,287.972052 C227.390906,293.28488 223.824177,299.263808 216.507726,299.263808" id="Fill-1044" fill="#FFFFFF"></path>
                    <path d="M215.534861,289.453974 C216.264177,291.741072 215.668614,293.965619 214.216636,294.423438 C212.77464,294.879261 211.014566,293.403327 210.289908,291.118226 C209.558595,288.828466 210.154159,286.604584 211.60414,286.144104 C213.050129,285.690943 214.810203,287.1722 215.534861,289.453974" id="Fill-1045" fill="#000000"></path>
                    <path d="M183.008429,263.66573 L183.008429,357.965102" id="Stroke-1046" stroke="#FFFFFF" stroke-width="3.239"></path>
                    <path d="M183.02573,335.398891 L193.43512,335.398891 M183.02573,311.738041 L193.43512,311.738041 M183.02573,288.07586 L193.43512,288.07586 M181.903142,357.985065 L234.295453,357.985065 M181.947061,264.415675 L192.356451,264.415675" id="Stroke-1047" stroke="#FFFFFF" stroke-width="3.263"></path>
                    <path d="M107.561479,129.478226 C107.561479,130.707948 107.133604,131.644214 106.279852,132.287689 C105.4261,132.931165 104.1478,133.252569 102.44695,133.252569 C101.574566,133.252569 100.831275,133.193346 100.216414,133.075564 C99.6015527,132.957782 99.0259519,132.784769 98.4902773,132.55586 L98.4902773,129.854196 C99.0978189,130.139667 99.7818854,130.379224 100.543808,130.5722 C101.304399,130.765176 101.975157,130.861664 102.554085,130.861664 C103.739889,130.861664 104.334122,130.518965 104.334122,129.832237 C104.334122,129.575379 104.254935,129.365767 104.097893,129.204732 C103.940185,129.044362 103.669353,128.861368 103.282736,128.65841 C102.896784,128.454122 102.382403,128.217227 101.738928,127.945065 C100.816636,127.559113 100.139224,127.201774 99.7073567,126.87305 C99.274159,126.544325 98.9600739,126.167689 98.7637708,125.741811 C98.5668022,125.316599 98.4689834,124.792902 98.4689834,124.171386 C98.4689834,123.106026 98.8815527,122.282218 99.7073567,121.699298 C100.532495,121.117043 101.702994,120.825582 103.218854,120.825582 C104.662181,120.825582 106.067579,121.140333 107.432384,121.769168 L106.446211,124.128133 C105.845323,123.87061 105.284362,123.659667 104.762662,123.495305 C104.240296,123.330943 103.708614,123.249094 103.164954,123.249094 C102.200074,123.249094 101.717634,123.509279 101.717634,124.031645 C101.717634,124.324436 101.873346,124.578632 102.184104,124.792902 C102.494861,125.007172 103.175601,125.32525 104.226322,125.747135 C105.163253,126.125767 105.849316,126.479778 106.285176,126.808503 C106.721035,127.137893 107.04244,127.516525 107.250055,127.945065 C107.457006,128.37427 107.561479,128.885323 107.561479,129.478226" id="Fill-1123" fill="#FFFFFF"></path>
                    <path d="M118.403401,133.038299 L117.963549,131.505139 L117.791867,131.505139 C117.441848,132.062773 116.944769,132.493309 116.301294,132.796747 C115.658484,133.100185 114.925176,133.252569 114.103364,133.252569 C112.69464,133.252569 111.633937,132.875933 110.919261,132.121331 C110.203919,131.367394 109.84658,130.282736 109.84658,128.867357 L109.84658,121.050499 L113.11719,121.050499 L113.11719,128.052865 C113.11719,128.917264 113.270906,129.566063 113.578336,129.99793 C113.885767,130.431128 114.374861,130.647394 115.04695,130.647394 C115.961922,130.647394 116.623364,130.341294 117.03061,129.730425 C117.437856,129.118891 117.641479,128.1061 117.641479,126.690721 L117.641479,121.050499 L120.912089,121.050499 L120.912089,133.038299 L118.403401,133.038299" id="Fill-1124" fill="#FFFFFF"></path>
                    <path d="M132.643031,129.478226 C132.643031,130.707948 132.215823,131.644214 131.361405,132.287689 C130.507652,132.931165 129.229353,133.252569 127.528503,133.252569 C126.656118,133.252569 125.912828,133.193346 125.297967,133.075564 C124.683105,132.957782 124.10817,132.784769 123.57183,132.55586 L123.57183,129.854196 C124.179372,130.139667 124.864104,130.379224 125.62536,130.5722 C126.386617,130.765176 127.05671,130.861664 127.635638,130.861664 C128.822107,130.861664 129.415675,130.518965 129.415675,129.832237 C129.415675,129.575379 129.336488,129.365767 129.179445,129.204732 C129.022403,129.044362 128.750906,128.861368 128.364954,128.65841 C127.979002,128.454122 127.463956,128.217227 126.820481,127.945065 C125.898854,127.559113 125.221442,127.201774 124.788909,126.87305 C124.356377,126.544325 124.041627,126.167689 123.845323,125.741811 C123.648355,125.316599 123.550536,124.792902 123.550536,124.171386 C123.550536,123.106026 123.963105,122.282218 124.788909,121.699298 C125.614713,121.117043 126.784547,120.825582 128.300407,120.825582 C129.744399,120.825582 131.149131,121.140333 132.514603,121.769168 L131.527763,124.128133 C130.927542,123.87061 130.365915,123.659667 129.844214,123.495305 C129.322514,123.330943 128.790166,123.249094 128.247172,123.249094 C127.281627,123.249094 126.799187,123.509279 126.799187,124.031645 C126.799187,124.324436 126.954898,124.578632 127.265656,124.792902 C127.577079,125.007172 128.257819,125.32525 129.30854,125.747135 C130.244806,126.125767 130.930869,126.479778 131.367394,126.808503 C131.802588,127.137893 132.124658,127.516525 132.332274,127.945065 C132.539224,128.37427 132.643031,128.885323 132.643031,129.478226" id="Fill-1125" fill="#FFFFFF"></path>
                    <path d="M140.335453,130.647394 C140.907061,130.647394 141.593124,130.522292 142.393641,130.271423 L142.393641,132.706248 C141.57915,133.070906 140.578336,133.252569 139.391867,133.252569 C138.083623,133.252569 137.130721,132.922514 136.534492,132.261072 C135.937597,131.600296 135.638817,130.607468 135.638817,129.28525 L135.638817,123.506617 L134.07305,123.506617 L134.07305,122.122514 L135.874381,121.029205 L136.817967,118.498558 L138.909427,118.498558 L138.909427,121.050499 L142.265213,121.050499 L142.265213,123.506617 L138.909427,123.506617 L138.909427,129.28525 C138.909427,129.749723 139.039187,130.093087 139.300702,130.314677 C139.561553,130.536266 139.906248,130.647394 140.335453,130.647394" id="Fill-1126" fill="#FFFFFF"></path>
                    <path d="M152.439039,133.038299 L151.806211,131.407985 L151.72037,131.407985 C151.170055,132.102033 150.603771,132.582477 150.02085,132.850647 C149.43793,133.118817 148.679335,133.252569 147.742403,133.252569 C146.591201,133.252569 145.685545,132.923845 145.024104,132.266396 C144.363327,131.608281 144.032606,130.672015 144.032606,129.456932 C144.032606,128.184621 144.477782,127.247024 145.367468,126.642144 C146.257153,126.038595 147.599335,125.703882 149.394011,125.64 L151.474159,125.575453 L151.474159,125.050425 C151.474159,123.835342 150.851978,123.2278 149.608281,123.2278 C148.650055,123.2278 147.52414,123.516599 146.230536,124.095527 L145.147874,121.88695 C146.52732,121.164954 148.057153,120.804288 149.73671,120.804288 C151.345065,120.804288 152.578115,121.154307 153.43586,121.855009 C154.293604,122.555712 154.72281,123.620407 154.72281,125.050425 L154.72281,133.038299 L152.439039,133.038299 L152.439039,133.038299 Z M151.474159,127.483919 L150.208503,127.526506 C149.258262,127.55512 148.55024,127.726802 148.085767,128.041553 C147.620628,128.356303 147.388392,128.83475 147.388392,129.478226 C147.388392,130.400518 147.917412,130.861664 148.975453,130.861664 C149.733383,130.861664 150.338928,130.643401 150.792754,130.207542 C151.247246,129.771682 151.474159,129.192089 151.474159,128.470092 L151.474159,127.483919 L151.474159,127.483919 Z" id="Fill-1127" fill="#FFFFFF"></path>
                    <path d="M157.629427,117.952237 C157.629427,116.886876 158.222329,116.353863 159.409464,116.353863 C160.595933,116.353863 161.188835,116.886876 161.188835,117.952237 C161.188835,118.459298 161.041109,118.854566 160.744325,119.13671 C160.447542,119.419519 160.002366,119.560591 159.409464,119.560591 C158.222329,119.560591 157.629427,119.024251 157.629427,117.952237 L157.629427,117.952237 L157.629427,117.952237 Z M157.769168,121.050499 L161.039113,121.050499 L161.039113,133.038299 L157.769168,133.038299 L157.769168,121.050499 L157.769168,121.050499 Z" id="Fill-1128" fill="#FFFFFF"></path>
                    <path d="M175.237486,133.038299 L171.966876,133.038299 L171.966876,126.036599 C171.966876,125.171534 171.813161,124.523401 171.50573,124.090203 C171.198299,123.658336 170.70854,123.44207 170.036451,123.44207 C169.121479,123.44207 168.460702,123.747505 168.053457,124.358373 C167.646211,124.969908 167.441922,125.982699 167.441922,127.398078 L167.441922,133.038299 L164.171978,133.038299 L164.171978,121.050499 L166.670018,121.050499 L167.109871,122.584325 L167.291534,122.584325 C167.656192,122.005397 168.158595,121.566876 168.798743,121.270092 C169.438226,120.973974 170.165545,120.825582 170.980037,120.825582 C172.374122,120.825582 173.432163,121.202884 174.154159,121.956155 C174.876155,122.710758 175.237486,123.799409 175.237486,125.222107 L175.237486,133.038299" id="Fill-1129" fill="#FFFFFF"></path>
                    <path d="M183.807616,133.252569 C181.877856,133.252569 180.369316,132.720222 179.282662,131.655527 C178.196007,130.590166 177.653013,129.081627 177.653013,127.130573 C177.653013,125.121627 178.155416,123.568503 179.159556,122.471201 C180.163697,121.3739 181.552458,120.825582 183.325176,120.825582 C185.019372,120.825582 186.338262,121.308022 187.281848,122.272902 C188.225434,123.237782 188.697227,124.571312 188.697227,126.272828 L188.697227,127.859889 L180.966211,127.859889 C181.002144,128.788835 181.276969,129.514159 181.792015,130.03586 C182.306396,130.55756 183.028392,130.819076 183.958004,130.819076 C184.68,130.819076 185.362736,130.743216 186.005545,130.593494 C186.64902,130.443105 187.321109,130.204214 188.021811,129.87549 L188.021811,132.406137 C187.449538,132.691608 186.838004,132.904547 186.187874,133.043623 C185.537745,133.183364 184.743882,133.252569 183.807616,133.252569 L183.807616,133.252569 L183.807616,133.252569 Z M183.34647,123.151941 C182.653087,123.151941 182.110092,123.371534 181.716821,123.812052 C181.323549,124.251238 181.097967,124.87475 181.041405,125.682588 L185.63024,125.682588 C185.615601,124.87475 185.405323,124.251238 184.998078,123.812052 C184.590166,123.371534 184.039852,123.151941 183.34647,123.151941 L183.34647,123.151941 L183.34647,123.151941 Z" id="Fill-1130" fill="#FFFFFF"></path>
                    <path d="M195.162588,133.252569 C193.754529,133.252569 192.648577,132.706248 191.844067,131.612274 C191.040222,130.518965 190.637634,129.003105 190.637634,127.066026 C190.637634,125.100333 191.047542,123.568503 191.866026,122.471201 C192.68451,121.3739 193.811756,120.825582 195.248429,120.825582 C196.756969,120.825582 197.907505,121.41183 198.701368,122.584325 L198.808503,122.584325 C198.64414,121.690647 198.562292,120.893457 198.562292,120.192754 L198.562292,116.353863 L201.842884,116.353863 L201.842884,133.038299 L199.334196,133.038299 L198.701368,131.483845 L198.562292,131.483845 C197.818336,132.662994 196.685102,133.252569 195.162588,133.252569 L195.162588,133.252569 L195.162588,133.252569 Z M196.310462,130.647394 C197.146913,130.647394 197.759113,130.40451 198.149057,129.918078 C198.538336,129.432311 198.751275,128.606506 198.786543,127.441331 L198.786543,127.08732 C198.786543,125.801035 198.588909,124.878743 198.191645,124.321109 C197.795046,123.763475 197.149575,123.484658 196.256562,123.484658 C195.527246,123.484658 194.960296,123.794085 194.557043,124.412274 C194.153124,125.031128 193.951497,125.929464 193.951497,127.109279 C193.951497,128.288429 194.154455,129.172791 194.562366,129.762366 C194.969612,130.352606 195.552532,130.647394 196.310462,130.647394 L196.310462,130.647394 L196.310462,130.647394 Z" id="Fill-1131" fill="#FFFFFF"></path>
                    <path d="M222.032828,133.038299 L218.762884,133.038299 L218.762884,126.036599 C218.762884,124.307135 218.119409,123.44207 216.833124,123.44207 C215.917486,123.44207 215.256044,123.752828 214.848799,124.374344 C214.441553,124.996525 214.23793,126.003993 214.23793,127.398078 L214.23793,133.038299 L210.96732,133.038299 L210.96732,116.353863 L214.23793,116.353863 L214.23793,119.753567 C214.23793,120.017745 214.212643,120.639926 214.162736,121.619445 L214.088207,122.584325 L214.259224,122.584325 C214.98854,121.41183 216.146396,120.825582 217.733457,120.825582 C219.141516,120.825582 220.210203,121.204214 220.938854,121.962144 C221.66817,122.720074 222.032828,123.806728 222.032828,125.222107 L222.032828,133.038299" id="Fill-1132" fill="#FFFFFF"></path>
                    <path d="M224.924806,117.952237 C224.924806,116.886876 225.517708,116.353863 226.704843,116.353863 C227.890647,116.353863 228.484214,116.886876 228.484214,117.952237 C228.484214,118.459298 228.335823,118.854566 228.039039,119.13671 C227.742921,119.419519 227.297745,119.560591 226.704843,119.560591 C225.517708,119.560591 224.924806,119.024251 224.924806,117.952237 L224.924806,117.952237 L224.924806,117.952237 Z M225.063882,121.050499 L228.334492,121.050499 L228.334492,133.038299 L225.063882,133.038299 L225.063882,121.050499 L225.063882,121.050499 Z" id="Fill-1133" fill="#FFFFFF"></path>
                    <path d="M242.049094,121.050499 L242.049094,122.712754 L240.172569,123.195194 C240.515268,123.730869 240.68695,124.331756 240.68695,124.996525 C240.68695,126.28281 240.238447,127.285619 239.341442,128.003623 C238.444436,128.722292 237.198743,129.081627 235.605028,129.081627 L235.014787,129.049686 L234.532348,128.996451 C234.196303,129.253309 234.028614,129.539445 234.028614,129.854196 C234.028614,130.325989 234.628835,130.561553 235.829945,130.561553 L237.866839,130.561553 C239.182403,130.561553 240.184547,130.843697 240.874603,131.407985 C241.564658,131.972939 241.909353,132.80207 241.909353,133.896044 C241.909353,135.296784 241.325102,136.383438 240.155933,137.155342 C238.988096,137.927246 237.309871,138.313198 235.121922,138.313198 C233.449686,138.313198 232.171386,138.022403 231.28902,137.439482 C230.405989,136.857227 229.964806,136.040074 229.964806,134.989353 C229.964806,134.267357 230.189723,133.663808 230.640222,133.178041 C231.090721,132.691608 231.751497,132.344917 232.623882,132.137301 C232.287837,131.994233 231.995046,131.760665 231.744843,131.435268 C231.49464,131.109871 231.369538,130.765176 231.369538,130.400518 C231.369538,129.942699 231.501959,129.562736 231.766137,129.258632 C232.030314,128.955194 232.412939,128.656414 232.913346,128.362957 C232.28451,128.09146 231.785434,127.655601 231.418115,127.054713 C231.049464,126.454492 230.865139,125.747135 230.865139,124.931978 C230.865139,123.623734 231.290351,122.612939 232.141442,121.898262 C232.991867,121.182921 234.20695,120.825582 235.786691,120.825582 C236.122736,120.825582 236.521331,120.856192 236.982477,120.916747 C237.443623,120.977967 237.73841,121.021885 237.866839,121.050499 L242.049094,121.050499 L242.049094,121.050499 Z M232.795564,134.732495 C232.795564,135.182329 233.01183,135.537006 233.443697,135.793863 C233.876895,136.051386 234.48244,136.179815 235.261664,136.179815 C236.434159,136.179815 237.352458,136.01878 238.017227,135.697375 C238.681996,135.375305 239.014713,134.936118 239.014713,134.378484 C239.014713,133.928651 238.817745,133.617227 238.424473,133.445545 C238.031201,133.273863 237.42366,133.188022 236.601848,133.188022 L234.907652,133.188022 C234.307431,133.188022 233.805028,133.329094 233.401109,133.611904 C232.997856,133.894048 232.795564,134.267357 232.795564,134.732495 L232.795564,134.732495 L232.795564,134.732495 Z M233.98536,124.975231 C233.98536,125.62536 234.134418,126.140407 234.430536,126.519039 C234.72732,126.897671 235.17915,127.08732 235.786691,127.08732 C236.401553,127.08732 236.852052,126.897671 237.138189,126.519039 C237.42366,126.140407 237.566728,125.62536 237.566728,124.975231 C237.566728,123.531238 236.973161,122.809242 235.786691,122.809242 C234.586248,122.809242 233.98536,123.531238 233.98536,124.975231 L233.98536,124.975231 L233.98536,124.975231 Z" id="Fill-1134" fill="#FFFFFF"></path>
                    <path d="M254.927246,133.038299 L251.656636,133.038299 L251.656636,126.036599 C251.656636,124.307135 251.013161,123.44207 249.726211,123.44207 C248.811238,123.44207 248.150462,123.752828 247.743216,124.374344 C247.335305,124.996525 247.131682,126.003993 247.131682,127.398078 L247.131682,133.038299 L243.861738,133.038299 L243.861738,116.353863 L247.131682,116.353863 L247.131682,119.753567 C247.131682,120.017745 247.106396,120.639926 247.056488,121.619445 L246.981294,122.584325 L247.152976,122.584325 C247.882292,121.41183 249.040148,120.825582 250.627209,120.825582 C252.035268,120.825582 253.103956,121.204214 253.833272,121.962144 C254.562588,122.720074 254.927246,123.806728 254.927246,125.222107 L254.927246,133.038299" id="Fill-1135" fill="#FFFFFF"></path>
                    <path d="M33.0527911,146.641109 L37.4805915,146.641109 C39.5607394,146.641109 41.0659519,146.952532 41.9948983,147.574048 C42.9238447,148.196229 43.3889834,149.179076 43.3889834,150.522588 C43.3889834,151.4522 43.129464,152.21878 42.611756,152.822329 C42.0933826,153.426543 41.3374492,153.817819 40.3439556,153.996821 L40.3439556,154.103956 C42.7242144,154.511201 43.9140111,155.762218 43.9140111,157.857006 C43.9140111,159.257745 43.4408872,160.351719 42.4933087,161.137597 C41.5463956,161.92414 40.2221811,162.317412 38.5213309,162.317412 L33.0527911,162.317412 L33.0527911,146.641109 L33.0527911,146.641109 Z M34.8754159,153.353346 L37.8778558,153.353346 C39.1641405,153.353346 40.0897597,153.151719 40.6547135,152.7478 C41.2190018,152.343882 41.5018115,151.663142 41.5018115,150.705582 C41.5018115,149.825878 41.187061,149.191719 40.5582255,148.801774 C39.92939,148.412495 38.9285767,148.217523 37.5557856,148.217523 L34.8754159,148.217523 L34.8754159,153.353346 L34.8754159,153.353346 Z M34.8754159,154.897153 L34.8754159,160.762957 L38.1453604,160.762957 C39.4110166,160.762957 40.3632532,160.518078 41.0034011,160.027652 C41.6428835,159.538558 41.9629575,158.771978 41.9629575,157.727911 C41.9629575,156.755712 41.6355638,156.041035 40.9814418,155.583882 C40.3279852,155.126063 39.3318299,154.897153 37.9956377,154.897153 L34.8754159,154.897153 L34.8754159,154.897153 Z" id="Fill-1136" fill="#FFFFFF"></path>
                    <path d="M53.949427,154.103956 L59.2782255,154.103956 L59.2782255,161.727837 C58.4490943,161.992015 57.6053235,162.192311 56.7475786,162.328059 C55.8898336,162.463808 54.8963401,162.531682 53.767098,162.531682 C51.3934935,162.531682 49.5462477,161.825656 48.2240296,160.413604 C46.901146,159.002218 46.2397043,157.024547 46.2397043,154.479261 C46.2397043,152.849612 46.567098,151.422255 47.22122,150.19586 C47.875342,148.970129 48.8169316,148.033863 50.0466543,147.386396 C51.2757116,146.740259 52.7163771,146.416192 54.3673198,146.416192 C56.0402218,146.416192 57.5986691,146.723623 59.0426617,147.338484 L58.3346396,148.946839 C56.9192606,148.346617 55.5577819,148.045841 54.2495379,148.045841 C52.3410721,148.045841 50.8504991,148.614122 49.7784843,149.750684 C48.7058041,150.887246 48.1701294,152.46366 48.1701294,154.479261 C48.1701294,156.595342 48.6865065,158.199704 49.7192606,159.293678 C50.7526802,160.386987 52.2698706,160.93464 54.2714972,160.93464 C55.3574861,160.93464 56.418854,160.808872 57.4556007,160.558669 L57.4556007,155.733604 L53.949427,155.733604 L53.949427,154.103956" id="Fill-1137" fill="#FFFFFF"></path>
                    <path d="M76.5196303,162.317412 L76.5196303,154.71549 C76.5196303,153.757264 76.3020333,153.042588 75.8661738,152.570795 C75.4296488,152.099002 74.7469131,151.863438 73.8179667,151.863438 C72.5809242,151.863438 71.6785952,152.199482 71.1103142,152.870906 C70.5420333,153.542994 70.2578928,154.644288 70.2578928,156.173457 L70.2578928,162.317412 L68.4778558,162.317412 L68.4778558,145.632976 L70.2578928,145.632976 L70.2578928,150.683623 C70.2578928,151.291165 70.2292791,151.794898 70.1720518,152.19549 L70.2791867,152.19549 C70.6298706,151.630536 71.128281,151.186026 71.7750832,150.860628 C72.4218854,150.535896 73.1598521,150.372865 73.9889834,150.372865 C75.4263216,150.372865 76.5036599,150.714233 77.222329,151.396969 C77.9403327,152.079704 78.2996673,153.164362 78.2996673,154.650943 L78.2996673,162.317412 L76.5196303,162.317412" id="Fill-1138" fill="#FFFFFF"></path>
                    <path d="M88.8714233,162.317412 L88.5167468,160.64451 L88.4315712,160.64451 C87.8453235,161.381146 87.2610721,161.880222 86.6781516,162.140407 C86.0958965,162.401257 85.3685767,162.531682 84.4961922,162.531682 C83.3316821,162.531682 82.4173752,162.231571 81.7565989,161.631349 C81.0958226,161.030462 80.7651017,160.17671 80.7651017,159.068762 C80.7651017,156.695157 82.6629205,155.45146 86.4585582,155.337671 L88.4528651,155.273124 L88.4528651,154.543808 C88.4528651,153.621516 88.2545656,152.940776 87.8579667,152.500924 C87.4613678,152.061738 86.8265434,151.842144 85.9548244,151.842144 C84.975305,151.842144 83.8673567,152.142255 82.6309797,152.742477 L82.0839926,151.380333 C82.6629205,151.066248 83.2970795,150.819372 83.9871349,150.641035 C84.676525,150.462033 85.3685767,150.372865 86.0619593,150.372865 C87.4626987,150.372865 88.5014418,150.683623 89.1768577,151.305804 C89.8522736,151.92732 90.1896488,152.924806 90.1896488,154.296932 L90.1896488,162.317412 L88.8714233,162.317412 L88.8714233,162.317412 Z M84.8502033,161.063068 C85.9581516,161.063068 86.8285397,160.758965 87.4613678,160.151423 C88.0935305,159.543882 88.4096118,158.692791 88.4096118,157.599482 L88.4096118,156.538115 L86.6302403,156.612643 C85.2148614,156.663216 84.194085,156.883475 83.5685767,157.272754 C82.9437338,157.662699 82.6309797,158.268244 82.6309797,159.090055 C82.6309797,159.73353 82.8252865,160.222625 83.2152311,160.558669 C83.6045102,160.894713 84.1495009,161.063068 84.8502033,161.063068 L84.8502033,161.063068 L84.8502033,161.063068 Z" id="Fill-1139" fill="#FFFFFF"></path>
                    <path d="M101.143364,159.111349 C101.143364,160.205323 100.736118,161.048429 99.9209612,161.641996 C99.1064695,162.235564 97.9625878,162.531682 96.4899815,162.531682 C94.9315342,162.531682 93.716451,162.285471 92.8440665,161.792384 L92.8440665,160.140776 C93.4090203,160.426913 94.0145656,160.65183 94.6620333,160.816192 C95.3088355,160.980555 95.9323475,161.063068 96.5325693,161.063068 C97.4621811,161.063068 98.1768577,160.914677 98.6772643,160.617893 C99.177671,160.321774 99.4278743,159.869279 99.4278743,159.261738 C99.4278743,158.803919 99.2295749,158.413309 98.8323105,158.087246 C98.4363771,157.762514 97.6624769,157.377893 96.5112754,156.934713 C95.4179667,156.527468 94.6407394,156.17146 94.1789279,155.867357 C93.7184473,155.563919 93.3750832,155.219224 93.1495009,154.833272 C92.9252495,154.44732 92.8121257,153.986174 92.8121257,153.450499 C92.8121257,152.492274 93.2020702,151.73634 93.9806285,151.182033 C94.7598521,150.628392 95.8285397,150.350906 97.1866913,150.350906 C98.4523475,150.350906 99.6887246,150.608429 100.896488,151.12281 L100.264325,152.570795 C99.0845102,152.085028 98.0158226,151.842144 97.0582625,151.842144 C96.2144917,151.842144 95.5783364,151.9739 95.1497967,152.238078 C94.7205915,152.502921 94.5063216,152.867579 94.5063216,153.332052 C94.5063216,153.646137 94.5868392,153.914972 94.7478743,154.136562 C94.908244,154.358152 95.1677634,154.568429 95.5251017,154.768725 C95.8824399,154.96902 96.5685028,155.258484 97.5832902,155.637782 C98.9773752,156.144843 99.9189649,156.655896 100.40939,157.170277 C100.898484,157.685323 101.143364,158.332126 101.143364,159.111349" id="Fill-1140" fill="#FFFFFF"></path>
                    <path d="M115.211312,150.372865 C116.75512,150.372865 117.954233,150.900555 118.808651,151.953937 C119.662403,153.008651 120.089612,154.50122 120.089612,156.43098 C120.089612,158.360739 119.659076,159.859963 118.797338,160.928651 C117.936266,161.997338 116.741146,162.531682 115.211312,162.531682 C114.446063,162.531682 113.747357,162.39061 113.114529,162.1078 C112.482366,161.825656 111.951349,161.391793 111.52281,160.805545 L111.393715,160.805545 L111.01841,162.317412 L109.742773,162.317412 L109.742773,145.632976 L111.52281,145.632976 L111.52281,149.686137 C111.52281,150.594455 111.494196,151.408946 111.436969,152.130943 L111.52281,152.130943 C112.351941,150.958447 113.580998,150.372865 115.211312,150.372865 L115.211312,150.372865 L115.211312,150.372865 Z M114.953789,151.863438 C113.738706,151.863438 112.862994,152.21146 112.326654,152.90817 C111.79098,153.605545 111.52281,154.780037 111.52281,156.43098 C111.52281,158.082588 111.797634,159.263734 112.347948,159.974418 C112.898928,160.686433 113.781294,161.041774 114.996377,161.041774 C116.090351,161.041774 116.905508,160.643179 117.441183,159.845989 C117.977523,159.049464 118.245693,157.903586 118.245693,156.409686 C118.245693,154.879852 117.977523,153.739298 117.441183,152.988688 C116.905508,152.238078 116.076377,151.863438 114.953789,151.863438 L114.953789,151.863438 L114.953789,151.863438 Z" id="Fill-1141" fill="#FFFFFF"></path>
                    <path d="M128.010277,162.531682 C126.272828,162.531682 124.902033,162.002662 123.897893,160.944621 C122.893752,159.88658 122.391349,158.417967 122.391349,156.538115 C122.391349,154.644288 122.857819,153.139076 123.790758,152.023808 C124.723697,150.90854 125.976044,150.350906 127.549131,150.350906 C129.021738,150.350906 130.186913,150.836007 131.044658,151.804214 C131.902403,152.773087 132.330943,154.050721 132.330943,155.637782 L132.330943,156.763031 L124.235933,156.763031 C124.271201,158.142477 124.619889,159.190536 125.281331,159.905213 C125.942107,160.619889 126.873715,160.977227 128.074159,160.977227 C129.339815,160.977227 130.590166,160.71305 131.827209,160.18403 L131.827209,161.770425 C131.198373,162.042588 130.603475,162.236895 130.041848,162.354677 C129.480887,162.472458 128.803475,162.531682 128.010277,162.531682 L128.010277,162.531682 L128.010277,162.531682 Z M127.527837,151.842144 C126.584251,151.842144 125.831645,152.148909 125.270684,152.763771 C124.709057,153.378632 124.379002,154.229057 124.278521,155.315712 L130.422477,155.315712 C130.422477,154.193789 130.172274,153.334048 129.671867,152.736488 C129.17146,152.140259 128.456784,151.842144 127.527837,151.842144 L127.527837,151.842144 L127.527837,151.842144 Z" id="Fill-1142" fill="#FFFFFF"></path>
                    <path d="M140.207024,162.531682 C138.47024,162.531682 137.09878,162.002662 136.095305,160.944621 C135.090499,159.88658 134.588762,158.417967 134.588762,156.538115 C134.588762,154.644288 135.054566,153.139076 135.987505,152.023808 C136.920444,150.90854 138.173457,150.350906 139.745878,150.350906 C141.218484,150.350906 142.38366,150.836007 143.241405,151.804214 C144.09915,152.773087 144.527689,154.050721 144.527689,155.637782 L144.527689,156.763031 L136.43268,156.763031 C136.468614,158.142477 136.816636,159.190536 137.478078,159.905213 C138.139519,160.619889 139.070462,160.977227 140.271571,160.977227 C141.536562,160.977227 142.787579,160.71305 144.024621,160.18403 L144.024621,161.770425 C143.39512,162.042588 142.800222,162.236895 142.238595,162.354677 C141.677634,162.472458 141.000887,162.531682 140.207024,162.531682 L140.207024,162.531682 L140.207024,162.531682 Z M139.724584,151.842144 C138.780998,151.842144 138.028392,152.148909 137.467431,152.763771 C136.905804,153.378632 136.575749,154.229057 136.475933,155.315712 L142.619224,155.315712 C142.619224,154.193789 142.36902,153.334048 141.868614,152.736488 C141.368207,152.140259 140.65353,151.842144 139.724584,151.842144 L139.724584,151.842144 L139.724584,151.842144 Z" id="Fill-1143" fill="#FFFFFF"></path>
                    <path d="M155.362957,162.317412 L155.362957,154.71549 C155.362957,153.757264 155.14403,153.042588 154.708835,152.570795 C154.272311,152.099002 153.59024,151.863438 152.660628,151.863438 C151.430906,151.863438 150.530573,152.19549 149.958299,152.860259 C149.386691,153.525028 149.100555,154.622329 149.100555,156.152163 L149.100555,162.317412 L147.321183,162.317412 L147.321183,150.565841 L148.768503,150.565841 L149.057967,152.174196 L149.143808,152.174196 C149.508466,151.594603 150.018854,151.146765 150.676969,150.828022 C151.334418,150.51061 152.067061,150.350906 152.874898,150.350906 C154.290277,150.350906 155.355638,150.692939 156.070314,151.375009 C156.784991,152.05841 157.142329,153.149723 157.142329,154.650943 L157.142329,162.317412 L155.362957,162.317412" id="Fill-1144" fill="#FFFFFF"></path>
                    <path d="M176.646211,156.43098 C176.646211,158.346765 176.163771,159.842662 175.198891,160.918004 C174.234011,161.994011 172.900481,162.531682 171.19963,162.531682 C170.148909,162.531682 169.21597,162.285471 168.400813,161.792384 C167.586322,161.298632 166.956821,160.591275 166.513641,159.668983 C166.070462,158.747357 165.848872,157.667357 165.848872,156.43098 C165.848872,154.515194 166.327985,153.02329 167.286211,151.953937 C168.243771,150.885915 169.573309,150.350906 171.274824,150.350906 C172.918447,150.350906 174.224695,150.898558 175.193567,151.991867 C176.161774,153.085841 176.646211,154.565102 176.646211,156.43098 L176.646211,156.43098 L176.646211,156.43098 Z M167.693457,156.43098 C167.693457,157.9322 167.993567,159.076081 168.593789,159.861959 C169.194677,160.648503 170.077043,161.041774 171.242218,161.041774 C172.407394,161.041774 173.291756,160.649834 173.89597,159.867283 C174.500185,159.084067 174.802292,157.939519 174.802292,156.43098 C174.802292,154.937079 174.500185,153.802514 173.89597,153.026617 C173.291756,152.251386 172.400739,151.863438 171.220924,151.863438 C170.055749,151.863438 169.17671,152.245397 168.583142,153.009982 C167.989575,153.775231 167.693457,154.915786 167.693457,156.43098 L167.693457,156.43098 L167.693457,156.43098 Z" id="Fill-1145" fill="#FFFFFF"></path>
                    <path d="M182.056858,162.317412 L177.596451,150.565841 L179.504917,150.565841 L182.035564,157.534935 C182.607172,159.164584 182.943216,160.222625 183.043031,160.709057 L183.128872,160.709057 C183.207394,160.32976 183.455601,159.545878 183.874159,158.355416 C184.292052,157.165619 185.230314,154.568429 186.688946,150.565841 L188.597412,150.565841 L184.137006,162.317412 L182.056858,162.317412" id="Fill-1146" fill="#FFFFFF"></path>
                    <path d="M195.165915,162.531682 C193.429131,162.531682 192.057671,162.002662 191.05353,160.944621 C190.04939,159.88658 189.547652,158.417967 189.547652,156.538115 C189.547652,154.644288 190.013457,153.139076 190.946396,152.023808 C191.879335,150.90854 193.131682,150.350906 194.704769,150.350906 C196.177375,150.350906 197.342551,150.836007 198.200296,151.804214 C199.058041,152.773087 199.48658,154.050721 199.48658,155.637782 L199.48658,156.763031 L191.391571,156.763031 C191.427505,158.142477 191.775527,159.190536 192.436969,159.905213 C193.09841,160.619889 194.029353,160.977227 195.230462,160.977227 C196.495453,160.977227 197.745804,160.71305 198.982847,160.18403 L198.982847,161.770425 C198.354011,162.042588 197.758447,162.236895 197.197486,162.354677 C196.636525,162.472458 195.959113,162.531682 195.165915,162.531682 L195.165915,162.531682 L195.165915,162.531682 Z M194.68281,151.842144 C193.739224,151.842144 192.987283,152.148909 192.426322,152.763771 C191.864695,153.378632 191.53464,154.229057 191.434824,155.315712 L197.578115,155.315712 C197.578115,154.193789 197.327911,153.334048 196.827505,152.736488 C196.327098,152.140259 195.612421,151.842144 194.68281,151.842144 L194.68281,151.842144 L194.68281,151.842144 Z" id="Fill-1147" fill="#FFFFFF"></path>
                    <path d="M207.640813,150.350906 C208.162514,150.350906 208.63098,150.394159 209.045545,150.48 L208.798669,152.130943 C208.312902,152.023808 207.883697,151.970573 207.512384,151.970573 C206.561479,151.970573 205.748318,152.356525 205.072902,153.128429 C204.397486,153.900333 204.059445,154.861885 204.059445,156.012421 L204.059445,162.317412 L202.279409,162.317412 L202.279409,150.565841 L203.748688,150.565841 L203.952311,152.742477 L204.038152,152.742477 C204.474011,151.977893 204.999039,151.387652 205.614566,150.973087 C206.229427,150.558521 206.904843,150.350906 207.640813,150.350906" id="Fill-1148" fill="#FFFFFF"></path>
                    <path d="M225.847098,150.329612 C225.847098,151.330425 225.56695,152.148909 225.005989,152.78573 C224.444362,153.421885 223.649168,153.846433 222.619741,154.061368 L222.619741,154.146543 C223.878078,154.304251 224.811017,154.704177 225.418558,155.347652 C226.0261,155.991128 226.330203,156.834898 226.330203,157.878299 C226.330203,159.3722 225.81183,160.521405 224.775083,161.32525 C223.738336,162.12976 222.266396,162.531682 220.357264,162.531682 C219.528133,162.531682 218.768872,162.469131 218.079482,162.34403 C217.388762,162.218928 216.719335,161.999335 216.06854,161.68525 L216.06854,159.991054 C216.747948,160.327098 217.471941,160.581959 218.239852,160.756969 C219.008429,160.932643 219.735749,161.020481 220.421811,161.020481 C223.130795,161.020481 224.485619,159.958447 224.485619,157.835046 C224.485619,155.9339 222.991054,154.982994 220.003919,154.982994 L218.459445,154.982994 L218.459445,153.450499 L220.025213,153.450499 C221.247616,153.450499 222.215823,153.180333 222.931165,152.640665 C223.645841,152.100998 224.003179,151.351719 224.003179,150.394159 C224.003179,149.628909 223.740333,149.028688 223.21464,148.592828 C222.689612,148.156303 221.976932,147.938706 221.075933,147.938706 C220.389871,147.938706 219.743068,148.031867 219.135527,148.217523 C218.52732,148.403845 217.833937,148.746543 217.055379,149.24695 L216.154381,148.045841 C216.797856,147.53878 217.53915,147.139519 218.379593,146.850721 C219.218706,146.560591 220.103734,146.416192 221.033346,146.416192 C222.55586,146.416192 223.738336,146.76488 224.582107,147.46159 C225.425878,148.158299 225.847098,149.114529 225.847098,150.329612" id="Fill-1149" fill="#FFFFFF"></path>
                    <path d="M239.126506,154.457967 C239.126506,157.16695 238.699963,159.190536 237.845545,160.526728 C236.991793,161.863586 235.685545,162.531682 233.926802,162.531682 C232.239261,162.531682 230.956303,161.847616 230.077264,160.478152 C229.198226,159.109353 228.758373,157.103068 228.758373,154.457967 C228.758373,151.727689 229.183586,149.700776 230.034011,148.377893 C230.885102,147.055675 232.182699,146.394898 233.926802,146.394898 C235.627652,146.394898 236.919926,147.084288 237.802957,148.463734 C238.685323,149.843845 239.126506,151.842144 239.126506,154.457967 L239.126506,154.457967 L239.126506,154.457967 Z M230.559704,154.457967 C230.559704,156.73841 230.827874,158.398004 231.363549,159.438743 C231.899889,160.478152 232.754307,160.998521 233.926802,160.998521 C235.113272,160.998521 235.973013,160.471497 236.50536,159.416784 C237.037708,158.362736 237.303882,156.709797 237.303882,154.457967 C237.303882,152.206137 237.037708,150.55719 236.50536,149.509797 C235.973013,148.462403 235.113272,147.938706 233.926802,147.938706 C232.754307,147.938706 231.899889,148.455749 231.363549,149.487837 C230.827874,150.521257 230.559704,152.177523 230.559704,154.457967 L230.559704,154.457967 L230.559704,154.457967 Z" id="Fill-1150" fill="#FFFFFF"></path>
                    <path d="M252.020628,154.457967 C252.020628,157.16695 251.594085,159.190536 250.739667,160.526728 C249.88525,161.863586 248.579667,162.531682 246.820924,162.531682 C245.133383,162.531682 243.850425,161.847616 242.971386,160.478152 C242.092348,159.109353 241.652495,157.103068 241.652495,154.457967 C241.652495,151.727689 242.077708,149.700776 242.928133,148.377893 C243.779224,147.055675 245.076821,146.394898 246.820924,146.394898 C248.521774,146.394898 249.814048,147.084288 250.697079,148.463734 C251.579445,149.843845 252.020628,151.842144 252.020628,154.457967 L252.020628,154.457967 L252.020628,154.457967 Z M243.453826,154.457967 C243.453826,156.73841 243.721996,158.398004 244.257671,159.438743 C244.794011,160.478152 245.648429,160.998521 246.820924,160.998521 C248.007394,160.998521 248.867135,160.471497 249.399482,159.416784 C249.93183,158.362736 250.198004,156.709797 250.198004,154.457967 C250.198004,152.206137 249.93183,150.55719 249.399482,149.509797 C248.867135,148.462403 248.007394,147.938706 246.820924,147.938706 C245.648429,147.938706 244.794011,148.455749 244.257671,149.487837 C243.721996,150.521257 243.453826,152.177523 243.453826,154.457967 L243.453826,154.457967 L243.453826,154.457967 Z" id="Fill-1151" fill="#FFFFFF"></path>
                    <path d="M275.685471,162.317412 L275.685471,154.672237 C275.685471,153.73597 275.485176,153.033937 275.08525,152.564806 C274.684658,152.097006 274.062477,151.863438 273.219372,151.863438 C272.110758,151.863438 271.292274,152.18085 270.763253,152.817006 C270.234898,153.453161 269.970055,154.43268 269.970055,155.754898 L269.970055,162.317412 L268.190018,162.317412 L268.190018,154.672237 C268.190018,153.73597 267.989723,153.033937 267.589797,152.564806 C267.189205,152.097006 266.564362,151.863438 265.713937,151.863438 C264.598669,151.863438 263.781516,152.197486 263.263142,152.865582 C262.745434,153.534344 262.485915,154.629649 262.485915,156.152163 L262.485915,162.317412 L260.705878,162.317412 L260.705878,150.565841 L262.153863,150.565841 L262.443327,152.174196 L262.528503,152.174196 C262.864547,151.601922 263.338336,151.155416 263.949871,150.834011 C264.560739,150.512606 265.244806,150.350906 266.002736,150.350906 C267.84,150.350906 269.041109,151.015675 269.605397,152.345213 L269.691238,152.345213 C270.041257,151.731017 270.548983,151.244584 271.213752,150.887246 C271.878521,150.529908 272.636451,150.350906 273.486876,150.350906 C274.816414,150.350906 275.811904,150.692939 276.473346,151.375009 C277.134787,152.05841 277.465508,153.149723 277.465508,154.650943 L277.465508,162.317412 L275.685471,162.317412" id="Fill-1152" fill="#FFFFFF"></path>
                    <path d="M290.460111,150.565841 L290.460111,151.691756 L288.28414,151.949279 C288.483771,152.199482 288.662773,152.526211 288.819815,152.929464 C288.976858,153.334048 289.056044,153.789205 289.056044,154.296932 C289.056044,155.447468 288.662773,156.366433 287.876229,157.053161 C287.089686,157.739224 286.011017,158.082588 284.638226,158.082588 C284.288207,158.082588 283.958817,158.053974 283.652052,157.996747 C282.894122,158.396673 282.51549,158.900407 282.51549,159.507948 C282.51549,159.829353 282.647246,160.067579 282.911423,160.220628 C283.176266,160.375009 283.630092,160.451534 284.273567,160.451534 L286.353715,160.451534 C287.626026,160.451534 288.603549,160.719704 289.286285,161.256044 C289.96902,161.792384 290.309723,162.571608 290.309723,163.593715 C290.309723,164.89464 289.788022,165.886137 288.744621,166.568207 C287.70122,167.251608 286.178041,167.592311 284.177079,167.592311 C282.639926,167.592311 281.455453,167.306839 280.622329,166.734566 C279.789871,166.162957 279.373309,165.35512 279.373309,164.311719 C279.373309,163.597043 279.602218,162.978854 280.059372,162.457153 C280.51719,161.935453 281.16,161.580776 281.989797,161.39512 C281.68902,161.259372 281.437486,161.048429 281.233863,160.762957 C281.03024,160.476821 280.928429,160.144104 280.928429,159.765471 C280.928429,159.336266 281.042218,158.961627 281.271128,158.639556 C281.500037,158.318152 281.860702,158.006728 282.353789,157.706617 C281.746248,157.456414 281.251165,157.031201 280.869205,156.43098 C280.48658,155.830758 280.295601,155.14403 280.295601,154.372126 C280.295601,153.085841 280.681553,152.093678 281.453457,151.396969 C282.22536,150.699593 283.319335,150.350906 284.734713,150.350906 C285.348909,150.350906 285.903216,150.422773 286.396969,150.565841 L290.460111,150.565841 L290.460111,150.565841 Z M281.088799,164.290425 C281.088799,164.92658 281.356969,165.40902 281.893309,165.737745 C282.429649,166.06647 283.19756,166.231497 284.198373,166.231497 C285.692274,166.231497 286.798891,166.007911 287.516895,165.560739 C288.235564,165.114233 288.594233,164.508688 288.594233,163.743438 C288.594233,163.107283 288.39793,162.665434 288.005323,162.419224 C287.612052,162.172348 286.871423,162.049242 285.785434,162.049242 L283.652052,162.049242 C282.843549,162.049242 282.214713,162.242218 281.76488,162.628835 C281.314381,163.014787 281.088799,163.568429 281.088799,164.290425 L281.088799,164.290425 L281.088799,164.290425 Z M282.053678,154.329538 C282.053678,155.151349 282.285915,155.77353 282.751054,156.195416 C283.215527,156.616636 283.862329,156.827579 284.69146,156.827579 C286.428244,156.827579 287.297301,155.983808 287.297301,154.296932 C287.297301,152.531534 286.418262,151.649168 284.659519,151.649168 C283.823068,151.649168 283.180259,151.87342 282.72976,152.323919 C282.279261,152.774418 282.053678,153.443179 282.053678,154.329538 L282.053678,154.329538 L282.053678,154.329538 Z" id="Fill-1153" fill="#FFFFFF"></path>
                    <path d="M299.458115,146.641109 L293.61427,162.317412 L291.834233,162.317412 L297.678078,146.641109 L299.458115,146.641109" id="Fill-1154" fill="#FFFFFF"></path>
                    <path d="M308.52,160.741664 L308.423512,160.741664 C307.601035,161.935453 306.371978,162.531682 304.735009,162.531682 C303.197856,162.531682 302.00207,162.006654 301.148318,160.955933 C300.2939,159.905213 299.866691,158.411312 299.866691,156.474233 C299.866691,154.536488 300.295896,153.031941 301.153641,151.959261 C302.011386,150.887246 303.205176,150.350906 304.735009,150.350906 C306.328725,150.350906 307.551128,150.929834 308.401553,152.088355 L308.541294,152.088355 L308.4661,151.241257 L308.423512,150.415453 L308.423512,145.632976 L310.203549,145.632976 L310.203549,162.317412 L308.755564,162.317412 L308.52,160.741664 L308.52,160.741664 Z M304.959926,161.041774 C306.175009,161.041774 307.056044,160.711054 307.603031,160.049612 C308.150018,159.38817 308.423512,158.321479 308.423512,156.848872 L308.423512,156.474233 C308.423512,154.808651 308.146026,153.619519 307.592384,152.90817 C307.038078,152.197486 306.153715,151.842144 304.938632,151.842144 C303.895231,151.842144 303.096044,152.247394 302.541738,153.058558 C301.988096,153.869723 301.711275,155.015601 301.711275,156.495527 C301.711275,157.996747 301.9861,159.129316 302.537079,159.8939 C303.087394,160.65915 303.895231,161.041774 304.959926,161.041774 L304.959926,161.041774 L304.959926,161.041774 Z" id="Fill-1155" fill="#FFFFFF"></path>
                    <path d="M313.92,162.317412 L313.92,146.641109 L315.74329,146.641109 L315.74329,160.665804 L322.65915,160.665804 L322.65915,162.317412 L313.92,162.317412" id="Fill-1156" fill="#FFFFFF"></path>
                    <path d="M75.112902,181.228392 L72.1211091,181.228392 L72.1211091,191.596525 L70.3410721,191.596525 L70.3410721,181.228392 L68.2396303,181.228392 L68.2396303,180.423882 L70.3410721,179.780407 L70.3410721,179.126285 C70.3410721,176.238965 71.6027357,174.794972 74.1267283,174.794972 C74.748244,174.794972 75.4775601,174.919409 76.3140111,175.169612 L75.8521996,176.596303 C75.1661368,176.374713 74.5798891,176.263586 74.094122,176.263586 C73.4220333,176.263586 72.9256192,176.487172 72.603549,176.933678 C72.2821442,177.380185 72.1211091,178.097523 72.1211091,179.083697 L72.1211091,179.844954 L75.112902,179.844954 L75.112902,181.228392" id="Fill-1157" fill="#FFFFFF"></path>
                    <path d="M87.1213309,185.710092 C87.1213309,187.625878 86.6388909,189.121774 85.6740111,190.197116 C84.7091312,191.273124 83.3756007,191.810795 81.6747505,191.810795 C80.6240296,191.810795 79.6910906,191.564584 78.8759335,191.071497 C78.0614418,190.577745 77.4319409,189.870388 76.9887616,188.948096 C76.5455823,188.025804 76.3239926,186.94647 76.3239926,185.710092 C76.3239926,183.794307 76.8031054,182.302403 77.7606654,181.233715 C78.7188909,180.165028 80.0484288,179.630018 81.7499445,179.630018 C83.3935675,179.630018 84.6998152,180.177671 85.6686876,181.27098 C86.6368946,182.364954 87.1213309,183.844214 87.1213309,185.710092 L87.1213309,185.710092 L87.1213309,185.710092 Z M78.1685767,185.710092 C78.1685767,187.211312 78.4686876,188.355194 79.0689094,189.141072 C79.6697967,189.927616 80.5521627,190.320887 81.7173383,190.320887 C82.8825139,190.320887 83.7668762,189.928946 84.3710906,189.146396 C84.975305,188.363179 85.2774122,187.218632 85.2774122,185.710092 C85.2774122,184.216192 84.975305,183.081627 84.3710906,182.30573 C83.7668762,181.530499 82.8751941,181.142551 81.6960444,181.142551 C80.5308688,181.142551 79.6518299,181.52451 79.0582625,182.289094 C78.464695,183.054344 78.1685767,184.194898 78.1685767,185.710092 L78.1685767,185.710092 L78.1685767,185.710092 Z" id="Fill-1158" fill="#FFFFFF"></path>
                    <path d="M95.3507579,179.630018 C95.871793,179.630018 96.3402588,179.673272 96.7548244,179.759113 L96.5086137,181.410055 C96.0221811,181.302921 95.592976,181.249686 95.2216636,181.249686 C94.2707579,181.249686 93.457597,181.635638 92.7828466,182.407542 C92.1067652,183.179445 91.76939,184.140998 91.76939,185.291534 L91.76939,191.596525 L89.989353,191.596525 L89.989353,179.844954 L91.4579667,179.844954 L91.6622551,182.02159 L91.7474307,182.02159 C92.1832902,181.257006 92.7089834,180.666765 93.3238447,180.2522 C93.9387061,179.837634 94.614122,179.630018 95.3507579,179.630018" id="Fill-1159" fill="#FFFFFF"></path>
                    <path d="M119.636451,191.596525 L119.636451,183.951349 C119.636451,183.015083 119.436155,182.31305 119.036229,181.843919 C118.635638,181.376118 118.014122,181.142551 117.170351,181.142551 C116.062403,181.142551 115.243919,181.459963 114.714898,182.096118 C114.185878,182.732274 113.921701,183.711793 113.921701,185.034011 L113.921701,191.596525 L112.141664,191.596525 L112.141664,183.951349 C112.141664,183.015083 111.941368,182.31305 111.541442,181.843919 C111.14085,181.376118 110.515342,181.142551 109.664917,181.142551 C108.549649,181.142551 107.732495,181.476599 107.214787,182.144695 C106.696414,182.812791 106.43756,183.908762 106.43756,185.431275 L106.43756,191.596525 L104.657523,191.596525 L104.657523,179.844954 L106.104843,179.844954 L106.394307,181.453309 L106.480148,181.453309 C106.816192,180.881035 107.289316,180.434529 107.90085,180.113124 C108.511719,179.791054 109.196451,179.630018 109.954381,179.630018 C111.791645,179.630018 112.992089,180.294787 113.557043,181.624325 L113.642884,181.624325 C113.992902,181.010129 114.500628,180.523697 115.165397,180.166359 C115.830166,179.80902 116.587431,179.630018 117.438521,179.630018 C118.768059,179.630018 119.763549,179.972052 120.424991,180.654122 C121.085767,181.337523 121.416488,182.428835 121.416488,183.930055 L121.416488,191.596525 L119.636451,191.596525" id="Fill-1160" fill="#FFFFFF"></path>
                    <path d="M134.996007,185.710092 C134.996007,187.625878 134.514233,189.121774 133.548688,190.197116 C132.583808,191.273124 131.250277,191.810795 129.549427,191.810795 C128.498041,191.810795 127.565767,191.564584 126.751275,191.071497 C125.936118,190.577745 125.307283,189.870388 124.864104,188.948096 C124.420259,188.025804 124.199335,186.94647 124.199335,185.710092 C124.199335,183.794307 124.677782,182.302403 125.636007,181.233715 C126.593567,180.165028 127.923105,179.630018 129.624621,179.630018 C131.268909,179.630018 132.574492,180.177671 133.543364,181.27098 C134.512237,182.364954 134.996007,183.844214 134.996007,185.710092 L134.996007,185.710092 L134.996007,185.710092 Z M126.043253,185.710092 C126.043253,187.211312 126.343364,188.355194 126.944251,189.141072 C127.544473,189.927616 128.426839,190.320887 129.592015,190.320887 C130.75719,190.320887 131.641553,189.928946 132.245767,189.146396 C132.849982,188.363179 133.152089,187.218632 133.152089,185.710092 C133.152089,184.216192 132.849982,183.081627 132.245767,182.30573 C131.641553,181.530499 130.749871,181.142551 129.570721,181.142551 C128.405545,181.142551 127.526506,181.52451 126.932939,182.289094 C126.339372,183.054344 126.043253,184.194898 126.043253,185.710092 L126.043253,185.710092 L126.043253,185.710092 Z" id="Fill-1161" fill="#FFFFFF"></path>
                    <path d="M143.224769,179.630018 C143.747135,179.630018 144.214935,179.673272 144.629501,179.759113 L144.38329,181.410055 C143.896858,181.302921 143.468318,181.249686 143.09634,181.249686 C142.145434,181.249686 141.332939,181.635638 140.656858,182.407542 C139.981442,183.179445 139.644067,184.140998 139.644067,185.291534 L139.644067,191.596525 L137.86403,191.596525 L137.86403,179.844954 L139.332643,179.844954 L139.536266,182.02159 L139.622107,182.02159 C140.058632,181.257006 140.58366,180.666765 141.198521,180.2522 C141.813383,179.837634 142.488799,179.630018 143.224769,179.630018" id="Fill-1162" fill="#FFFFFF"></path>
                    <path d="M151.427579,191.810795 C149.690795,191.810795 148.32,191.281774 147.31586,190.223734 C146.311054,189.165693 145.809316,187.697079 145.809316,185.817227 C145.809316,183.923401 146.27512,182.418189 147.208725,181.302921 C148.140998,180.187652 149.394011,179.630018 150.966433,179.630018 C152.439039,179.630018 153.604214,180.11512 154.461959,181.083327 C155.319704,182.0522 155.748909,183.329834 155.748909,184.916895 L155.748909,186.042144 L147.653235,186.042144 C147.689168,187.42159 148.037856,188.469649 148.698632,189.184325 C149.360074,189.899002 150.291017,190.25634 151.492126,190.25634 C152.757116,190.25634 154.007468,189.992163 155.24451,189.463142 L155.24451,191.049538 C154.615675,191.321701 154.020776,191.516007 153.45915,191.633789 C152.898189,191.751571 152.220776,191.810795 151.427579,191.810795 L151.427579,191.810795 L151.427579,191.810795 Z M150.945139,181.121257 C150.001553,181.121257 149.248946,181.428022 148.687985,182.042884 C148.127024,182.657745 147.796303,183.50817 147.696488,184.594824 L153.839778,184.594824 C153.839778,183.472902 153.59024,182.613161 153.089834,182.015601 C152.589427,181.419372 151.874085,181.121257 150.945139,181.121257 L150.945139,181.121257 L150.945139,181.121257 Z" id="Fill-1163" fill="#FFFFFF"></path>
                    <path d="M168.283031,190.342181 C168.597782,190.342181 168.90122,190.318891 169.194677,190.271645 C169.487468,190.22573 169.719704,190.177819 169.891386,190.127911 L169.891386,191.48939 C169.69841,191.581885 169.41427,191.659076 169.038965,191.71963 C168.66366,191.780185 168.326285,191.810795 168.025508,191.810795 C165.752384,191.810795 164.615823,190.613678 164.615823,188.219445 L164.615823,181.228392 L162.932939,181.228392 L162.932939,180.370647 L164.615823,179.630018 L165.366433,177.121331 L166.39586,177.121331 L166.39586,179.844954 L169.805545,179.844954 L169.805545,181.228392 L166.39586,181.228392 L166.39586,188.143586 C166.39586,188.851608 166.564214,189.394603 166.899593,189.7739 C167.235638,190.152532 167.696784,190.342181 168.283031,190.342181" id="Fill-1164" fill="#FFFFFF"></path>
                    <path d="M180.193641,191.596525 L180.193641,183.994603 C180.193641,183.036377 179.975379,182.321701 179.539519,181.849908 C179.10366,181.378115 178.420924,181.142551 177.491312,181.142551 C176.254935,181.142551 175.352606,181.478595 174.784325,182.150018 C174.216044,182.822107 173.931904,183.923401 173.931904,185.452569 L173.931904,191.596525 L172.151867,191.596525 L172.151867,174.912089 L173.931904,174.912089 L173.931904,179.962736 C173.931904,180.570277 173.90329,181.074011 173.846063,181.474603 L173.953198,181.474603 C174.303216,180.909649 174.801627,180.465139 175.449094,180.139741 C176.095896,179.815009 176.833863,179.651978 177.662994,179.651978 C179.099667,179.651978 180.177671,179.993346 180.89634,180.676081 C181.614344,181.358817 181.973678,182.443475 181.973678,183.930055 L181.973678,191.596525 L180.193641,191.596525" id="Fill-1165" fill="#FFFFFF"></path>
                    <path d="M192.544769,191.596525 L192.190758,189.923623 L192.104917,189.923623 C191.519335,190.659593 190.935083,191.158669 190.352163,191.419519 C189.769242,191.68037 189.041922,191.810795 188.170203,191.810795 C187.005028,191.810795 186.091386,191.510684 185.43061,190.910462 C184.769168,190.309575 184.438447,189.455823 184.438447,188.347874 C184.438447,185.974935 186.336266,184.730573 190.132569,184.616118 L192.126876,184.552237 L192.126876,183.822921 C192.126876,182.900628 191.928577,182.219889 191.531312,181.780037 C191.134713,181.34085 190.500555,181.121257 189.62817,181.121257 C188.648651,181.121257 187.541368,181.421368 186.304325,182.02159 L185.757338,180.659445 C186.336266,180.344695 186.971091,180.098484 187.661146,179.920148 C188.350536,179.741146 189.041922,179.651978 189.735305,179.651978 C191.136044,179.651978 192.174787,179.962736 192.850869,180.584917 C193.525619,181.206433 193.86366,182.203919 193.86366,183.576044 L193.86366,191.596525 L192.544769,191.596525 L192.544769,191.596525 Z M188.524214,190.342181 C189.632163,190.342181 190.501885,190.038078 191.134713,189.430536 C191.767542,188.822994 192.083623,187.971904 192.083623,186.878595 L192.083623,185.817227 L190.303586,185.891756 C188.888207,185.942329 187.868096,186.162588 187.242588,186.551867 C186.617079,186.941811 186.304325,187.547357 186.304325,188.369168 C186.304325,189.012643 186.499298,189.501738 186.889242,189.837782 C187.277856,190.173826 187.823512,190.342181 188.524214,190.342181 L188.524214,190.342181 L188.524214,190.342181 Z" id="Fill-1166" fill="#FFFFFF"></path>
                    <path d="M205.293826,191.596525 L205.293826,183.994603 C205.293826,183.036377 205.075564,182.321701 204.639704,181.849908 C204.203845,181.378115 203.521109,181.142551 202.591497,181.142551 C201.36244,181.142551 200.461442,181.474603 199.889834,182.139372 C199.31756,182.80414 199.032089,183.901442 199.032089,185.431275 L199.032089,191.596525 L197.252052,191.596525 L197.252052,179.844954 L198.699372,179.844954 L198.988835,181.453309 L199.074677,181.453309 C199.439335,180.873715 199.949723,180.425878 200.607837,180.107135 C201.265952,179.789723 201.998595,179.630018 202.805767,179.630018 C204.221146,179.630018 205.286506,179.972052 206.001183,180.654122 C206.71586,181.337523 207.073863,182.428835 207.073863,183.930055 L207.073863,191.596525 L205.293826,191.596525" id="Fill-1167" fill="#FFFFFF"></path>
                    <path d="M225.923623,191.596525 L215.619372,191.596525 L215.619372,190.063364 L219.747061,185.913715 C221.005397,184.641405 221.834529,183.733087 222.23512,183.190092 C222.635046,182.647098 222.935157,182.118078 223.135453,181.603031 C223.335749,181.088651 223.435564,180.535009 223.435564,179.941442 C223.435564,179.104991 223.182033,178.442218 222.674307,177.952458 C222.16658,177.462699 221.463216,177.217819 220.562218,177.217819 C219.912089,177.217819 219.295231,177.324954 218.712976,177.539889 C218.130055,177.754159 217.481257,178.143438 216.76658,178.708392 L215.822994,177.496636 C217.266987,176.296192 218.839409,175.695305 220.540924,175.695305 C222.01353,175.695305 223.168059,176.072606 224.003845,176.825878 C224.840296,177.580481 225.258854,178.593937 225.258854,179.866248 C225.258854,180.859741 224.980037,181.843253 224.422403,182.814787 C223.864769,183.786987 222.821368,185.01671 221.291534,186.50329 L217.860555,189.859076 L217.860555,189.944917 L225.923623,189.944917 L225.923623,191.596525" id="Fill-1168" fill="#FFFFFF"></path>
                    <path d="M242.735823,191.596525 L242.735823,183.994603 C242.735823,183.036377 242.51756,182.321701 242.081701,181.849908 C241.645841,181.378115 240.963105,181.142551 240.034159,181.142551 C238.797116,181.142551 237.894787,181.478595 237.326506,182.150018 C236.758226,182.822107 236.474085,183.923401 236.474085,185.452569 L236.474085,191.596525 L234.694048,191.596525 L234.694048,174.912089 L236.474085,174.912089 L236.474085,179.962736 C236.474085,180.570277 236.445471,181.074011 236.388244,181.474603 L236.495379,181.474603 C236.846063,180.909649 237.344473,180.465139 237.991275,180.139741 C238.638078,179.815009 239.376044,179.651978 240.205841,179.651978 C241.642514,179.651978 242.719852,179.993346 243.438521,180.676081 C244.156525,181.358817 244.51586,182.443475 244.51586,183.930055 L244.51586,191.596525 L242.735823,191.596525" id="Fill-1169" fill="#FFFFFF"></path>
                    <path d="M258.08939,185.710092 C258.08939,187.625878 257.60695,189.121774 256.64207,190.197116 C255.67719,191.273124 254.34366,191.810795 252.64281,191.810795 C251.591423,191.810795 250.65915,191.564584 249.843993,191.071497 C249.028835,190.577745 248.4,189.870388 247.956821,188.948096 C247.513641,188.025804 247.292052,186.94647 247.292052,185.710092 C247.292052,183.794307 247.771165,182.302403 248.728725,181.233715 C249.68695,180.165028 251.016488,179.630018 252.717338,179.630018 C254.361627,179.630018 255.667874,180.177671 256.636747,181.27098 C257.604954,182.364954 258.08939,183.844214 258.08939,185.710092 L258.08939,185.710092 L258.08939,185.710092 Z M249.13597,185.710092 C249.13597,187.211312 249.436747,188.355194 250.036969,189.141072 C250.63719,189.927616 251.520222,190.320887 252.685397,190.320887 C253.849908,190.320887 254.734935,189.928946 255.33915,189.146396 C255.943364,188.363179 256.245471,187.218632 256.245471,185.710092 C256.245471,184.216192 255.943364,183.081627 255.33915,182.30573 C254.734935,181.530499 253.843253,181.142551 252.664104,181.142551 C251.498928,181.142551 250.619224,181.52451 250.026322,182.289094 C249.432754,183.054344 249.13597,184.194898 249.13597,185.710092 L249.13597,185.710092 L249.13597,185.710092 Z" id="Fill-1170" fill="#FFFFFF"></path>
                    <path d="M262.651608,179.844954 L262.651608,187.468835 C262.651608,188.426396 262.869871,189.141072 263.30573,189.612865 C263.74159,190.084658 264.424325,190.320887 265.353937,190.320887 C266.582994,190.320887 267.481996,189.984843 268.050277,189.312754 C268.618558,188.640665 268.902699,187.543364 268.902699,186.02085 L268.902699,179.844954 L270.682736,179.844954 L270.682736,191.596525 L269.213457,191.596525 L268.956599,190.020776 L268.860111,190.020776 C268.495453,190.599704 267.989723,191.042884 267.342921,191.350314 C266.695453,191.657745 265.957486,191.810795 265.128355,191.810795 C263.698336,191.810795 262.628318,191.471423 261.917634,190.79268 C261.205619,190.113272 260.850277,189.026617 260.850277,187.532717 L260.850277,179.844954 L262.651608,179.844954" id="Fill-1171" fill="#FFFFFF"></path>
                    <path d="M279.484436,179.630018 C280.006137,179.630018 280.474603,179.673272 280.889168,179.759113 L280.642292,181.410055 C280.156525,181.302921 279.72732,181.249686 279.356007,181.249686 C278.405102,181.249686 277.591941,181.635638 276.916525,182.407542 C276.241109,183.179445 275.903068,184.140998 275.903068,185.291534 L275.903068,191.596525 L274.123031,191.596525 L274.123031,179.844954 L275.592311,179.844954 L275.795933,182.02159 L275.881774,182.02159 C276.317634,181.257006 276.842662,180.666765 277.458189,180.2522 C278.072384,179.837634 278.7478,179.630018 279.484436,179.630018" id="Fill-1172" fill="#FFFFFF"></path>
                    <path d="M290.828096,188.390462 C290.828096,189.484436 290.420185,190.328207 289.605693,190.921109 C288.790536,191.514677 287.64732,191.810795 286.174713,191.810795 C284.616266,191.810795 283.401183,191.564584 282.528799,191.071497 L282.528799,189.419889 C283.093752,189.706026 283.699298,189.930943 284.346765,190.095305 C284.992902,190.259667 285.617079,190.342181 286.217301,190.342181 C287.146913,190.342181 287.86159,190.193789 288.361996,189.897006 C288.862403,189.600887 289.112606,189.148392 289.112606,188.54085 C289.112606,188.083031 288.914307,187.692421 288.517043,187.366359 C288.120444,187.041627 287.346543,186.657006 286.196007,186.213826 C285.102033,185.80658 284.324806,185.450573 283.86366,185.14647 C283.403179,184.843031 283.059815,184.498336 282.834233,184.112384 C282.609316,183.726433 282.496858,183.265287 282.496858,182.729612 C282.496858,181.771386 282.886137,181.015453 283.66536,180.461146 C284.444584,179.907505 285.513272,179.630018 286.871423,179.630018 C288.136414,179.630018 289.373457,179.887542 290.58122,180.401922 L289.949057,181.849908 C288.769242,181.36414 287.700555,181.121257 286.742994,181.121257 C285.899224,181.121257 285.263068,181.253013 284.833863,181.51719 C284.405323,181.782033 284.191054,182.146691 284.191054,182.611165 C284.191054,182.92525 284.270906,183.194085 284.431941,183.415675 C284.592976,183.637264 284.85183,183.847542 285.209168,184.047837 C285.567172,184.248133 286.253235,184.537597 287.268022,184.916895 C288.662107,185.423956 289.603697,185.935009 290.093457,186.44939 C290.583216,186.964436 290.828096,187.611238 290.828096,188.390462" id="Fill-1173" fill="#FFFFFF"></path>
                </g>
            </g>
        </g>
    </g>
</svg>