<?xml version="1.0" encoding="UTF-8" standalone="no"?>
<svg width="38px" height="39px" viewBox="0 0 38 39" version="1.1" xmlns="http://www.w3.org/2000/svg" xmlns:xlink="http://www.w3.org/1999/xlink" xmlns:sketch="http://www.bohemiancoding.com/sketch/ns">
    <!-- Generator: Sketch 3.3 (11970) - http://www.bohemiancoding.com/sketch -->
    <title>historySmallIcon</title>
    <desc>Created with Sketch.</desc>
    <defs></defs>
    <g id="Page-1" stroke="none" stroke-width="1" fill="none" fill-rule="evenodd" sketch:type="MSPage">
        <g id="historySmallIcon" sketch:type="MSLayerGroup">
            <path d="M19.04,0.675 C8.611,0.675 0.152,9.134 0.152,19.562 C0.152,29.994 8.611,38.451 19.04,38.451 C29.472,38.451 37.929,29.994 37.929,19.562 C37.929,9.134 29.472,0.675 19.04,0.675" id="Fill-1" fill="#000000" sketch:type="MSShapeGroup"></path>
            <path d="M8.131,18.104 C8.757,12.599 13.434,8.318 19.108,8.318 C25.211,8.318 30.158,13.266 30.158,19.369 C30.158,25.472 25.211,30.418 19.108,30.418 C15.021,30.418 11.452,28.198 9.541,24.898 L8.282,24.898 C10.296,28.832 14.386,31.524 19.108,31.524 C25.821,31.524 31.264,26.082 31.264,19.369 C31.264,12.656 25.821,7.214 19.108,7.214 C12.792,7.214 7.601,12.033 7.009,18.193 L5.194,16.377 L4.413,17.158 L6.744,19.491 L6.732,19.503 L7.514,20.284 L7.524,20.272 L7.536,20.284 L8.318,19.503 L8.307,19.491 L10.64,17.158 L9.858,16.377 L8.131,18.104 L8.131,18.104 Z M18.556,19.755 L24.313,23.149 L24.875,22.198 L19.661,19.098 L19.661,11.669 L18.556,11.669 L18.556,19.755 L18.556,19.755 Z" id="Fill-2" fill="#FFFFFF" sketch:type="MSShapeGroup"></path>
            <path d="M8.131,18.104 C8.757,12.599 13.434,8.318 19.108,8.318 C25.211,8.318 30.158,13.266 30.158,19.369 C30.158,25.472 25.211,30.418 19.108,30.418 C15.021,30.418 11.452,28.198 9.541,24.898 L8.282,24.898 C10.296,28.832 14.386,31.524 19.108,31.524 C25.821,31.524 31.264,26.082 31.264,19.369 C31.264,12.656 25.821,7.214 19.108,7.214 C12.792,7.214 7.601,12.033 7.009,18.193 L5.194,16.377 L4.413,17.158 L6.744,19.491 L6.732,19.503 L7.514,20.284 L7.524,20.272 L7.536,20.284 L8.318,19.503 L8.307,19.491 L10.64,17.158 L9.858,16.377 L8.131,18.104 L8.131,18.104 Z M18.556,19.755 L24.313,23.149 L24.875,22.198 L19.661,19.098 L19.661,11.669 L18.556,11.669 L18.556,19.755 L18.556,19.755 Z" id="Fill-3" fill="#FFFFFF" sketch:type="MSShapeGroup"></path>
        </g>
    </g>
</svg>