<?xml version="1.0" encoding="UTF-8" standalone="no"?>
<svg width="56px" height="56px" viewBox="0 0 56 56" version="1.1" xmlns="http://www.w3.org/2000/svg" xmlns:xlink="http://www.w3.org/1999/xlink" xmlns:sketch="http://www.bohemiancoding.com/sketch/ns">
    <!-- Generator: Sketch 3.3 (11970) - http://www.bohemiancoding.com/sketch -->
    <title>historyTitleIcon</title>
    <desc>Created with Sketch.</desc>
    <defs></defs>
    <g id="Page-1" stroke="none" stroke-width="1" fill="none" fill-rule="evenodd" sketch:type="MSPage">
        <path d="M27.71,0 C12.41,0 0,12.409 0,27.709 C0,43.013 12.41,55.421 27.71,55.421 C43.013,55.421 55.42,43.013 55.42,27.709 C55.42,12.409 43.013,0 27.71,0 L27.71,0 Z M27.81,45.259 C20.881,45.259 14.881,41.308 11.927,35.538 L13.774,35.538 C16.578,40.379 21.814,43.635 27.81,43.635 C36.762,43.635 44.021,36.378 44.021,27.425 C44.021,18.471 36.762,11.213 27.81,11.213 C19.485,11.213 12.622,17.493 11.705,25.57 L14.24,23.036 L15.386,24.182 L11.963,27.605 L11.981,27.622 L10.832,28.768 L10.815,28.751 L10.799,28.768 L9.653,27.622 L9.671,27.605 L6.25,24.182 L7.396,23.036 L10.059,25.7 C10.927,16.663 18.544,9.593 27.81,9.593 C37.657,9.593 45.642,17.577 45.642,27.425 C45.642,37.274 37.657,45.259 27.81,45.259 L27.81,45.259 Z M36.269,31.576 L35.447,32.971 L26.998,27.992 L26.998,16.129 L28.62,16.129 L28.62,27.028 L36.269,31.576 L36.269,31.576 Z" id="historyTitleIcon" fill="#FFFFFF" sketch:type="MSShapeGroup"></path>
    </g>
</svg>