<?xml version="1.0" encoding="UTF-8" standalone="no"?>
<svg width="15px" height="54px" viewBox="0 0 15 54" version="1.1" xmlns="http://www.w3.org/2000/svg" xmlns:xlink="http://www.w3.org/1999/xlink" xmlns:sketch="http://www.bohemiancoding.com/sketch/ns">
    <!-- Generator: Sketch 3.3 (11970) - http://www.bohemiancoding.com/sketch -->
    <title>Imported Layers</title>
    <desc>Created with Sketch.</desc>
    <defs></defs>
    <g id="Page-1" stroke="none" stroke-width="1" fill="none" fill-rule="evenodd" sketch:type="MSPage">
        <g id="Imported-Layers" sketch:type="MSLayerGroup">
            <path d="M8.07096774,31.3617857 L7.66306452,30.4984286 L7.25274194,31.3611429 C7.07129032,31.7442857 2.79967742,40.7944286 2.79967742,45.1022143 C2.79967742,48.3370714 4.5033871,51.7750714 7.66209677,51.7750714 C10.8174194,51.7750714 12.5196774,48.3370714 12.5196774,45.1022143 C12.5196774,40.7944286 8.2533871,31.7442857 8.07096774,31.3617857 L8.07096774,31.3617857 Z M7.6616129,50.1762857 C5.23935484,50.1762857 3.93290323,47.5399286 3.93290323,45.0591429 C3.93290323,41.7561429 7.20870968,34.8158571 7.34758065,34.5220714 L7.66209677,33.8599286 L7.97516129,34.5220714 C8.115,34.8158571 11.3864516,41.7561429 11.3864516,45.0591429 C11.3864516,47.5399286 10.0814516,50.1762857 7.6616129,50.1762857 L7.6616129,50.1762857 Z" id="Fill-1" fill="#FFFFFF" sketch:type="MSShapeGroup"></path>
            <path d="M12.5293548,15.7988571 C12.2835484,9.71871429 11.1445161,3.96771429 10.743871,3.24064286 C10.3422581,2.5155 9.50612903,1.74278571 7.78016129,1.74278571 C6.04790323,1.74278571 5.1783871,2.36121429 4.70516129,3.30492857 C4.34129032,4.032 3.3033871,10.2465 2.96419355,16.4642143 C2.63370968,22.5257143 3.18435484,26.019 3.585,26.7499286 C3.98709677,27.4731429 6.13016129,27.4287857 7.85758065,27.4287857 C9.59032258,27.4287857 11.5795161,27.4249286 11.9651613,26.7544286 C12.348871,26.0884286 12.7751613,21.8712857 12.5293548,15.7988571 L12.5293548,15.7988571 Z M10.9804839,25.2025714 C10.6848387,25.7676429 9.15822581,25.7715 7.82854839,25.7715 C6.50274194,25.7715 4.85806452,25.8081429 4.54983871,25.1987143 C4.24209677,24.5828571 3.81967742,21.6392143 4.07322581,16.5310714 C4.33354839,11.2917857 5.13,6.05507143 5.40919355,5.44242857 C5.77258065,4.64721429 6.43983871,4.12585714 7.76903226,4.12585714 C9.0933871,4.12585714 9.73548387,4.77771429 10.0437097,5.38842857 C10.3509677,6.00107143 11.2248387,10.8469286 11.4135484,15.9705 C11.6022581,21.0876429 11.2751613,24.6413571 10.9804839,25.2025714 L10.9804839,25.2025714 Z" id="Fill-2" fill="#FFFFFF" sketch:type="MSShapeGroup"></path>
            <path d="M0.401612903,53.6914286 L14.9177419,53.6914286 L14.9177419,0.334285714 L0.401612903,0.334285714 L0.401612903,53.6914286 Z M7.60112903,51.7095 C4.5,51.7095 2.82677419,48.3338571 2.82677419,45.1581429 C2.82677419,40.9281429 7.02096774,32.0425714 7.19903226,31.6665 L7.60209677,30.8192143 L8.00274194,31.6671429 C8.18177419,32.0425714 12.3701613,40.9287857 12.3701613,45.1581429 C12.3701613,48.3338571 10.6993548,51.7095 7.60112903,51.7095 L7.60112903,51.7095 Z M11.7846774,27.1433571 C11.4062903,27.8016429 9.45290323,27.8055 7.75209677,27.8055 C6.05612903,27.8055 3.95177419,27.8492143 3.55741935,27.1388571 C3.16354839,26.4214286 2.62258065,22.9911429 2.94774194,17.0402143 C3.28064516,10.9356429 4.29967742,4.83428571 4.65677419,4.12007143 C5.12177419,3.19371429 5.97532258,2.58621429 7.67612903,2.58621429 C9.37064516,2.58621429 10.1917742,3.34542857 10.586129,4.05707143 C10.9795161,4.77064286 12.0972581,10.4168571 12.3387097,16.3864286 C12.5801613,22.3489286 12.1616129,26.4895714 11.7846774,27.1433571 L11.7846774,27.1433571 Z" id="Fill-3" fill="#000000" sketch:type="MSShapeGroup"></path>
        </g>
    </g>
</svg>