<?xml version="1.0" encoding="UTF-8" standalone="no"?>
<svg width="38px" height="38px" viewBox="0 0 38 38" version="1.1" xmlns="http://www.w3.org/2000/svg" xmlns:xlink="http://www.w3.org/1999/xlink" xmlns:sketch="http://www.bohemiancoding.com/sketch/ns">
    <!-- Generator: Sketch 3.3 (11970) - http://www.bohemiancoding.com/sketch -->
    <title>infoSmallIcon</title>
    <desc>Created with Sketch.</desc>
    <defs></defs>
    <g id="Page-1" stroke="none" stroke-width="1" fill="none" fill-rule="evenodd" sketch:type="MSPage">
        <path d="M18.888,0 C8.459,0 0,8.459 0,18.889 C0,29.32 8.459,37.776 18.888,37.776 C29.32,37.776 37.777,29.32 37.777,18.889 C37.777,8.459 29.32,0 18.888,0 L18.888,0 Z M18.865,8.529 C19.287,8.07 19.803,7.838 20.396,7.838 C20.878,7.838 21.301,8.011 21.619,8.337 C21.937,8.662 22.1,9.08 22.1,9.574 C22.1,10.194 21.883,10.746 21.456,11.213 C21.017,11.696 20.504,11.941 19.933,11.941 C19.461,11.941 19.041,11.764 18.722,11.429 C18.407,11.099 18.246,10.671 18.246,10.156 C18.246,9.522 18.452,8.977 18.865,8.529 L18.865,8.529 Z M22.011,26.326 C20.444,27.798 19.327,28.714 18.595,29.134 C17.813,29.579 17.172,29.798 16.626,29.798 C16.09,29.798 15.65,29.617 15.323,29.266 C15.003,28.924 14.841,28.462 14.841,27.895 C14.841,26.447 15.662,23.085 17.35,17.612 C17.38,17.52 17.401,17.431 17.417,17.35 C17.353,17.378 17.282,17.415 17.196,17.468 C17.057,17.556 16.636,17.886 15.404,19.092 C15.217,19.274 14.921,19.29 14.713,19.129 L13.987,18.567 C13.867,18.475 13.795,18.342 13.784,18.196 C13.769,18.049 13.818,17.905 13.919,17.794 C15.053,16.546 16.114,15.637 17.069,15.097 C18.071,14.532 18.916,14.259 19.652,14.259 C20.132,14.259 20.517,14.377 20.801,14.612 C21.11,14.87 21.273,15.227 21.273,15.646 C21.273,15.924 21.143,16.641 20.177,19.876 C18.801,24.498 18.47,26.176 18.449,26.758 C18.709,26.603 19.327,26.165 20.642,24.928 C20.849,24.734 21.169,24.735 21.372,24.934 L22.017,25.562 C22.12,25.665 22.179,25.802 22.178,25.946 C22.176,26.09 22.117,26.225 22.011,26.326 L22.011,26.326 Z" id="infoSmallIcon" fill="#000000" sketch:type="MSShapeGroup"></path>
    </g>
</svg>