<?xml version="1.0" encoding="UTF-8" standalone="no"?>
<svg width="50px" height="89px" viewBox="0 0 50 89" version="1.1" xmlns="http://www.w3.org/2000/svg" xmlns:xlink="http://www.w3.org/1999/xlink" xmlns:sketch="http://www.bohemiancoding.com/sketch/ns">
    <!-- Generator: Sketch 3.3 (11970) - http://www.bohemiancoding.com/sketch -->
    <title>infusionSiteTitleIcon</title>
    <desc>Created with Sketch.</desc>
    <defs></defs>
    <g id="Page-1" stroke="none" stroke-width="1" fill="none" fill-rule="evenodd" sketch:type="MSPage">
        <g id="infusionSiteTitleIcon" sketch:type="MSLayerGroup" fill="#FFFFFF">
            <path d="M46.098,81.858 C29.604,81.858 28.597,63.336 28.597,51.693 L28.597,40.201 L26.218,40.201 L26.218,51.693 C26.218,73.327 32.219,84.236 46.098,84.236 C46.755,84.236 47.288,83.704 47.288,83.046 C47.288,82.392 46.755,81.858 46.098,81.858" id="Fill-1" sketch:type="MSShapeGroup"></path>
            <path d="M45.852,86.102 C27.202,86.102 24.416,66.573 24.416,54.932 L24.416,40.201 L22.039,40.201 L22.039,54.932 C22.039,76.566 30.497,88.48 45.852,88.48 C46.511,88.48 47.041,87.948 47.041,87.292 C47.041,86.635 46.511,86.102 45.852,86.102" id="Fill-2" sketch:type="MSShapeGroup"></path>
            <path d="M25.03,0.516 C11.239,0.516 0.062,11.694 0.062,25.484 C0.062,37.619 8.683,47.674 20.152,49.924 L20.152,39.866 C14.225,37.816 9.959,32.206 9.959,25.584 C9.959,17.219 16.735,10.446 25.097,10.446 C33.454,10.446 40.232,17.219 40.232,25.584 C40.232,32.081 36.129,37.609 30.377,39.754 L30.377,49.823 C41.586,47.37 49.995,37.432 49.995,25.484 C49.995,11.694 38.817,0.516 25.03,0.516" id="Fill-3" sketch:type="MSShapeGroup"></path>
        </g>
    </g>
</svg>