<?xml version="1.0" encoding="UTF-8" standalone="no"?>
<svg width="14px" height="45px" viewBox="0 0 14 45" version="1.1" xmlns="http://www.w3.org/2000/svg" xmlns:xlink="http://www.w3.org/1999/xlink" xmlns:sketch="http://www.bohemiancoding.com/sketch/ns">
    <!-- Generator: Sketch 3.3 (11970) - http://www.bohemiancoding.com/sketch -->
    <title>insulinSmallIcon</title>
    <desc>Created with Sketch.</desc>
    <defs></defs>
    <g id="Page-1" stroke="none" stroke-width="1" fill="none" fill-rule="evenodd" sketch:type="MSPage">
        <g id="insulinSmallIcon" sketch:type="MSLayerGroup">
            <path d="M0.19,44.666 L0.19,16.721 C0.19,15.415 0.237,13.526 3.953,13.526 L10.401,13.526 C13.996,13.526 13.783,15.415 13.783,16.721 L13.783,44.666 L0.19,44.666" id="Fill-1" fill="#000000" sketch:type="MSShapeGroup"></path>
            <path d="M0.19,12.375 L0.19,3.89 C0.19,2.583 0.086,0.508 3.953,0.508 L10.401,0.508 C13.693,0.508 13.783,2.583 13.783,3.89 L13.956,12.375 L0.19,12.375" id="Fill-2" fill="#231F1F" sketch:type="MSShapeGroup"></path>
            <path d="M0.19,12.375 L0.19,3.89 C0.19,2.583 0.086,0.508 3.953,0.508 L10.401,0.508 C13.693,0.508 13.783,2.583 13.783,3.89 L13.956,12.375 L0.19,12.375" id="Fill-3" fill="#000000" sketch:type="MSShapeGroup"></path>
            <path d="M1.895,16.261 L12.085,16.261 L12.085,42.97 L1.895,42.97 L1.895,16.261 Z" id="Fill-4" fill="#FFFFFF" sketch:type="MSShapeGroup"></path>
            <path d="M7.045,3.319 C6.779,3.319 6.563,3.537 6.563,3.806 L6.563,9.089 C6.563,9.361 6.779,9.582 7.045,9.582 C7.316,9.582 7.539,9.361 7.539,9.089 L7.539,3.806 C7.539,3.537 7.316,3.319 7.045,3.319" id="Fill-5" fill="#FFFFFF" sketch:type="MSShapeGroup"></path>
        </g>
    </g>
</svg>