<?xml version="1.0" encoding="UTF-8" standalone="no"?>
<svg width="17px" height="53px" viewBox="0 0 17 53" version="1.1" xmlns="http://www.w3.org/2000/svg" xmlns:xlink="http://www.w3.org/1999/xlink" xmlns:sketch="http://www.bohemiancoding.com/sketch/ns">
    <!-- Generator: Sketch 3.3 (11970) - http://www.bohemiancoding.com/sketch -->
    <title>insulinIcon</title>
    <desc>Created with Sketch.</desc>
    <defs></defs>
    <g id="Page-1" stroke="none" stroke-width="1" fill="none" fill-rule="evenodd" sketch:type="MSPage">
        <g id="insulinIcon" sketch:type="MSLayerGroup" transform="translate(0.000000, 0.500000)">
            <path d="M16.5096154,14.0839114 L16.5096154,4.03135443 C16.5096154,2.48362025 16.6299231,0.0241518987 12.1641538,0.0241518987 L4.71880769,0.0241518987 C0.917346154,0.0241518987 0.814038462,2.48362025 0.814038462,4.03135443 L0.614615385,14.0839114 L16.5096154,14.0839114" id="Fill-1" fill="#FFFFFF" sketch:type="MSShapeGroup"></path>
            <path d="M12.1641538,15.4484937 L4.71880769,15.4484937 C0.567538462,15.4484937 0.814038462,17.6858987 0.814038462,19.2336329 L0.814038462,52.3425316 L16.5096154,52.3425316 L16.5096154,19.2336329 C16.5096154,17.6858987 16.4546923,15.4484937 12.1641538,15.4484937 L12.1641538,15.4484937 Z M2.77557692,18.1139241 L14.5415385,18.1139241 L14.5415385,50.3332278 L2.77557692,50.3332278 L2.77557692,18.1139241 Z" id="Fill-2" fill="#FFFFFF" sketch:type="MSShapeGroup"></path>
            <path d="M8.59546154,3.13773418 C8.90211538,3.13773418 9.47815385,3.73213924 9.47815385,4.05081013 L9.47815385,10.3108481 C9.47815385,10.6322025 8.90211538,11.2292911 8.59546154,11.2292911 C8.28030769,11.2292911 7.69773077,10.6322025 7.69773077,10.3108481 L7.69773077,4.05081013 C7.69773077,3.73213924 8.28030769,3.13773418 8.59546154,3.13773418" id="Fill-3" fill="#000000" sketch:type="MSShapeGroup"></path>
        </g>
    </g>
</svg>