<?xml version="1.0" encoding="UTF-8" standalone="no"?>
<svg width="34px" height="43px" viewBox="0 0 34 43" version="1.1" xmlns="http://www.w3.org/2000/svg" xmlns:xlink="http://www.w3.org/1999/xlink" xmlns:sketch="http://www.bohemiancoding.com/sketch/ns">
    <!-- Generator: Sketch 3.3 (11970) - http://www.bohemiancoding.com/sketch -->
    <title>languageTitleIcon</title>
    <desc>Created with Sketch.</desc>
    <defs></defs>
    <g id="Page-1" stroke="none" stroke-width="1" fill="none" fill-rule="evenodd" sketch:type="MSPage">
        <path d="M33.7555556,0.449 C33.7555556,0.314 33.7468056,0.184 33.7380556,0 C33.3725,0.206 33.0458333,0.37 32.7395833,0.569 C30.6852778,1.896 28.3743056,2.377 26.0263889,2.625 C23.2380556,2.921 20.4798611,2.671 17.7576389,1.908 C14.2255556,0.92 10.6156944,0.343 6.95916667,0.188 C4.64625,0.092 2.33236111,0.17 0,0.17 L0,42.469 C0.676666667,42.557 1.33486111,42.64 2.03194444,42.736 L2.03194444,22.468 C2.30125,22.441 2.51902778,22.403 2.73680556,22.408 C4.45569444,22.422 6.18041667,22.382 7.89930556,22.482 C10.9754167,22.656 13.9961111,23.237 16.9963889,23.964 C18.4080556,24.312 19.8197222,24.67 21.2547222,24.869 C22.9386111,25.1 24.6419444,25.035 26.3336111,24.815 C28.7806944,24.496 31.1490278,23.89 33.4152778,22.871 C33.6855556,22.75 33.7633333,22.602 33.7633333,22.312 C33.7536111,15.02 33.7555556,7.735 33.7555556,0.449" id="languageTitleIcon" fill="#FFFFFF" sketch:type="MSShapeGroup"></path>
    </g>
</svg>