<?xml version="1.0" encoding="UTF-8" standalone="no"?>
<svg width="30px" height="37px" viewBox="0 0 30 37" version="1.1" xmlns="http://www.w3.org/2000/svg" xmlns:xlink="http://www.w3.org/1999/xlink" xmlns:sketch="http://www.bohemiancoding.com/sketch/ns">
    <!-- Generator: Sketch 3.3 (11970) - http://www.bohemiancoding.com/sketch -->
    <title>languageSmallIcon</title>
    <desc>Created with Sketch.</desc>
    <defs></defs>
    <g id="Page-1" stroke="none" stroke-width="1" fill="none" fill-rule="evenodd" sketch:type="MSPage">
        <path d="M29.323,0.879 C29.323,0.766 29.315,0.656 29.308,0.5 C28.99,0.674 28.707,0.812 28.441,0.98 C26.657,2.101 24.649,2.508 22.609,2.717 C20.186,2.967 17.791,2.756 15.427,2.111 C12.357,1.277 9.222,0.789 6.045,0.658 C4.036,0.578 2.026,0.644 0,0.644 L0,36.369 C0.587,36.443 1.159,36.514 1.764,36.594 L1.764,19.477 C1.998,19.453 2.189,19.422 2.377,19.426 C3.871,19.437 5.369,19.404 6.861,19.488 C9.533,19.635 12.158,20.125 14.765,20.74 C15.991,21.033 17.218,21.336 18.464,21.504 C19.926,21.699 21.406,21.644 22.876,21.459 C25.002,21.189 27.06,20.678 29.028,19.816 C29.263,19.715 29.33,19.59 29.33,19.344 C29.322,13.186 29.323,7.033 29.323,0.879" id="languageSmallIcon" fill="#000000" sketch:type="MSShapeGroup"></path>
    </g>
</svg>