<?xml version="1.0" encoding="UTF-8" standalone="no"?>
<svg width="42px" height="51px" viewBox="0 0 42 51" version="1.1" xmlns="http://www.w3.org/2000/svg" xmlns:xlink="http://www.w3.org/1999/xlink" xmlns:sketch="http://www.bohemiancoding.com/sketch/ns">
    <!-- Generator: Sketch 3.3 (11970) - http://www.bohemiancoding.com/sketch -->
    <title>lengthSmallIcon</title>
    <desc>Created with Sketch.</desc>
    <defs></defs>
    <g id="Page-1" stroke="none" stroke-width="1" fill="none" fill-rule="evenodd" sketch:type="MSPage">
        <g id="lengthSmallIcon" sketch:type="MSLayerGroup">
            <path d="M21.275,21.746 C8.077,21.746 0.809,30.112 0.809,48.704 L0.809,48.905 C0.809,49.468 1.267,49.926 1.831,49.926 C2.395,49.926 2.852,49.468 2.852,48.905 L2.852,48.704 C2.852,38.7 5.245,23.789 21.275,23.789 C21.84,23.789 22.297,23.331 22.297,22.768 C22.297,22.204 21.84,21.746 21.275,21.746" id="Fill-1" fill="#FFFFFF" sketch:type="MSShapeGroup"></path>
            <path d="M21.275,21.246 C8.077,21.246 0.809,30.612 0.809,49.204 L0.809,49.405 C0.809,49.969 1.267,50.426 1.83,50.426 C2.395,50.426 2.852,49.969 2.852,49.405 L2.852,49.204 C2.852,39.199 5.245,24.289 21.275,24.289 C21.84,24.289 22.297,23.831 22.297,23.267 C22.297,22.704 21.84,21.246 21.275,21.246" id="Fill-2" fill="#000000" sketch:type="MSShapeGroup"></path>
            <path d="M21.275,19.168 C8.077,19.168 0.809,27.534 0.809,46.127 L0.809,46.327 C0.809,46.891 1.267,47.348 1.83,47.348 C2.395,47.348 2.852,46.891 2.852,46.327 L2.852,46.127 C2.852,36.122 5.245,21.746 21.275,21.746 C21.84,21.746 22.297,20.754 22.297,20.19 C22.297,19.626 21.84,19.168 21.275,19.168" id="Fill-3" fill="#000000" sketch:type="MSShapeGroup"></path>
            <path d="M24.229,24.211 L40.312,24.211 C40.875,24.211 41.333,23.754 41.333,23.19 C41.333,22.625 40.875,22.168 40.312,22.168 L24.229,22.168 C24.229,22.001 24.176,24.211 24.229,24.211 L24.229,24.211 Z" id="Fill-4" fill="#000000" sketch:type="MSShapeGroup"></path>
            <path d="M24.229,24.211 L40.312,24.211 C40.875,24.211 41.333,23.754 41.333,23.19 C41.333,22.625 40.875,22.168 40.312,22.168 L24.229,22.168 C24.229,22.001 24.176,24.211 24.229,24.211 L24.229,24.211 Z" id="Stroke-5" stroke="#000000" sketch:type="MSShapeGroup"></path>
            <path d="M24.229,21.628 L40.312,21.628 C40.875,21.628 41.333,21.171 41.333,20.607 C41.333,20.042 40.875,19.585 40.312,19.585 L24.229,19.585 C24.229,19.419 24.176,21.628 24.229,21.628 L24.229,21.628 Z" id="Fill-6" fill="#000000" sketch:type="MSShapeGroup"></path>
            <path d="M24.229,21.628 L40.312,21.628 C40.875,21.628 41.333,21.171 41.333,20.607 C41.333,20.042 40.875,19.585 40.312,19.585 L24.229,19.585 C24.229,19.419 24.176,21.628 24.229,21.628 L24.229,21.628 Z" id="Stroke-7" stroke="#000000" sketch:type="MSShapeGroup"></path>
            <path d="M24.553,31.427 C24.553,32.321 24.126,33.046 23.599,33.046 L20.404,33.046 C19.876,33.046 19.449,32.321 19.449,31.427 L19.449,11.363 C19.449,10.469 19.876,9.744 20.404,9.744 L23.599,9.744 C24.126,9.744 24.553,10.469 24.553,11.363 L24.553,31.427" id="Fill-8" fill="#000000" sketch:type="MSShapeGroup"></path>
            <path d="M25.552,0.991 C24.831,0.937 26.289,0.91 25.55,0.91 C24.873,0.91 24.108,1.162 23.91,2.32 C23.91,2.32 23.93,39.151 23.93,40.209 C23.93,41.268 25.552,41.551 25.552,41.551 L25.552,0.991" id="Fill-9" fill="#000000" sketch:type="MSShapeGroup"></path>
            <path id="Fill-10" fill="#58595B" sketch:type="MSShapeGroup"></path>
            <path id="Fill-11" fill="#58595B" sketch:type="MSShapeGroup"></path>
        </g>
    </g>
</svg>