<?xml version="1.0" encoding="UTF-8" standalone="no"?>
<svg width="35px" height="63px" viewBox="0 0 35 63" version="1.1" xmlns="http://www.w3.org/2000/svg" xmlns:xlink="http://www.w3.org/1999/xlink" xmlns:sketch="http://www.bohemiancoding.com/sketch/ns">
    <!-- Generator: Sketch 3.3 (11970) - http://www.bohemiancoding.com/sketch -->
    <title>lowAlertTitleIcon</title>
    <desc>Created with Sketch.</desc>
    <defs></defs>
    <g id="Page-1" stroke="none" stroke-width="1" fill="none" fill-rule="evenodd" sketch:type="MSPage">
        <g id="lowAlertTitleIcon" sketch:type="MSLayerGroup" transform="translate(1.000000, 0.000000)">
            <path d="M21.678,55.06 C17.005,55.06 14.728,51.247 14.728,47.858 C14.728,42.874 21.678,31.857 21.678,31.857 C21.678,31.857 28.617,42.874 28.617,47.858 C28.617,51.247 26.342,55.06 21.678,55.06" id="Fill-1" fill="#FFFFFF" sketch:type="MSShapeGroup"></path>
            <path d="M0.315,0.934 L0.315,60.63 M4.805,61.331 L32.333,61.331 M0.324,46.239 L6.962,46.239 M0.324,31.151 L6.962,31.151 M0.324,16.062 L6.962,16.062 M0.324,0.973 L6.962,0.973 M0.197,61.331 L32.333,61.331 M0.324,46.239 L6.962,46.239 M0.324,31.151 L6.962,31.151 M0.324,16.062 L6.962,16.062 M0.324,0.973 L6.962,0.973" id="Stroke-2" stroke="#FFFFFF" stroke-width="1.8" stroke-linecap="round" sketch:type="MSShapeGroup"></path>
        </g>
    </g>
</svg>