<?xml version="1.0" encoding="UTF-8" standalone="no"?>
<svg width="360px" height="591px" viewBox="0 0 360 591" version="1.1" xmlns="http://www.w3.org/2000/svg" xmlns:xlink="http://www.w3.org/1999/xlink" xmlns:sketch="http://www.bohemiancoding.com/sketch/ns">
    <!-- Generator: Sketch 3.3 (11970) - http://www.bohemiancoding.com/sketch -->
    <title>lowbgAlert</title>
    <desc>Created with Sketch.</desc>
    <defs></defs>
    <g id="Page-1" stroke="none" stroke-width="1" fill="none" fill-rule="evenodd" sketch:type="MSPage">
        <g id="lowbgAlert" sketch:type="MSLayerGroup">
            <g id="Page-1" sketch:type="MSShapeGroup">
                <g id="lowbgAlert">
                    <path d="M0.169685767,0.443179298 L359.504251,0.443179298 L359.504251,590.683475 L0.169685767,590.683475 L0.169685767,0.443179298 L0.169685767,0.443179298 Z" id="Fill-1048" fill="#000000"></path>
                    <path d="M107.66329,423.007985 C105.925841,423.007985 104.555046,422.478965 103.550906,421.420924 C102.5461,420.362884 102.045028,418.89427 102.045028,417.014418 C102.045028,415.119926 102.510832,413.615379 103.443771,412.500111 C104.376044,411.384843 105.629057,410.827209 107.202144,410.827209 C108.674085,410.827209 109.839261,411.311645 110.697671,412.280518 C111.555416,413.248725 111.983956,414.526359 111.983956,416.11342 L111.983956,417.239335 L103.888946,417.239335 C103.924214,418.61878 104.272902,419.666174 104.933678,420.38085 C105.595786,421.095527 106.526063,421.45353 107.727172,421.45353 C108.992828,421.45353 110.243179,421.188688 111.480222,420.659667 L111.480222,422.246728 C110.850721,422.518226 110.255823,422.713198 109.694861,422.83098 C109.1339,422.948762 108.455823,423.007985 107.66329,423.007985 L107.66329,423.007985 L107.66329,423.007985 Z M107.180185,412.317782 C106.236599,412.317782 105.484658,412.625213 104.923697,413.240074 C104.36207,413.854935 104.031349,414.70536 103.9322,415.792015 L110.07549,415.792015 C110.07549,414.669427 109.825287,413.810351 109.32488,413.212791 C108.824473,412.616562 108.109797,412.317782 107.180185,412.317782 L107.180185,412.317782 L107.180185,412.317782 Z" id="Fill-1049" fill="#FFFFFF"></path>
                    <path d="M121.939519,422.793715 L121.585508,421.120813 L121.499667,421.120813 C120.91342,421.856784 120.329168,422.35586 119.746913,422.61671 C119.163993,422.87756 118.436673,423.007985 117.564954,423.007985 C116.399778,423.007985 115.486802,422.707874 114.82536,422.106987 C114.163919,421.506765 113.833198,420.652348 113.833198,419.544399 C113.833198,417.17146 115.731682,415.927763 119.526654,415.813309 L121.521627,415.748762 L121.521627,415.020111 C121.521627,414.097819 121.322662,413.417079 120.926728,412.977227 C120.529464,412.538041 119.895305,412.317782 119.022921,412.317782 C118.044067,412.317782 116.936118,412.617893 115.699076,413.21878 L115.152089,411.856636 C115.731682,411.542551 116.365841,411.295675 117.055231,411.116673 C117.745287,410.938336 118.436673,410.849168 119.130055,410.849168 C120.53146,410.849168 121.569538,411.159926 122.244954,411.781442 C122.921035,412.403623 123.257745,413.401109 123.257745,414.773235 L123.257745,422.793715 L121.939519,422.793715 L121.939519,422.793715 Z M117.918965,421.538706 C119.026248,421.538706 119.897301,421.235268 120.529464,420.627726 C121.162292,420.020185 121.479039,419.169094 121.479039,418.075786 L121.479039,417.014418 L119.698336,417.088946 C118.282957,417.139519 117.262847,417.359113 116.637338,417.749057 C116.01183,418.138336 115.699076,418.743882 115.699076,419.566359 C115.699076,420.209168 115.894048,420.698928 116.283327,421.034972 C116.673272,421.371017 117.217597,421.538706 117.918965,421.538706 L117.918965,421.538706 L117.918965,421.538706 Z" id="Fill-1050" fill="#FFFFFF"></path>
                    <path d="M130.552237,421.538706 C130.866987,421.538706 131.170425,421.516081 131.464547,421.468835 C131.756673,421.422921 131.989575,421.374344 132.160591,421.324436 L132.160591,422.68658 C131.967616,422.779076 131.68414,422.855601 131.30817,422.916821 C130.93353,422.977375 130.59549,423.007985 130.295379,423.007985 C128.022255,423.007985 126.885693,421.810869 126.885693,419.41597 L126.885693,412.424917 L125.202144,412.424917 L125.202144,411.567172 L126.885693,410.827209 L127.636303,408.318521 L128.665065,408.318521 L128.665065,411.042144 L132.07475,411.042144 L132.07475,412.424917 L128.665065,412.424917 L128.665065,419.340776 C128.665065,420.048799 128.832754,420.591793 129.168799,420.970425 C129.504843,421.349723 129.966654,421.538706 130.552237,421.538706" id="Fill-1051" fill="#FFFFFF"></path>
                    <path d="M147.440296,422.793715 L147.086285,421.120813 L147.000444,421.120813 C146.414196,421.856784 145.829945,422.35586 145.247689,422.61671 C144.664769,422.87756 143.938115,423.007985 143.06573,423.007985 C141.900555,423.007985 140.987579,422.707874 140.326137,422.106987 C139.66536,421.506765 139.33464,420.652348 139.33464,419.544399 C139.33464,417.17146 141.232458,415.927763 145.027431,415.813309 L147.022403,415.748762 L147.022403,415.020111 C147.022403,414.097819 146.824104,413.417079 146.427505,412.977227 C146.03024,412.538041 145.396081,412.317782 144.523697,412.317782 C143.544843,412.317782 142.436895,412.617893 141.199852,413.21878 L140.652865,411.856636 C141.232458,411.542551 141.866617,411.295675 142.556007,411.116673 C143.246728,410.938336 143.938115,410.849168 144.631497,410.849168 C146.032237,410.849168 147.07098,411.159926 147.74573,411.781442 C148.421811,412.403623 148.759187,413.401109 148.759187,414.773235 L148.759187,422.793715 L147.440296,422.793715 L147.440296,422.793715 Z M143.419741,421.538706 C144.527024,421.538706 145.398078,421.235268 146.03024,420.627726 C146.663068,420.020185 146.979815,419.169094 146.979815,418.075786 L146.979815,417.014418 L145.199113,417.088946 C143.783734,417.139519 142.763623,417.359113 142.13878,417.749057 C141.512606,418.138336 141.199852,418.743882 141.199852,419.566359 C141.199852,420.209168 141.394824,420.698928 141.784104,421.034972 C142.174048,421.371017 142.719039,421.538706 143.419741,421.538706 L143.419741,421.538706 L143.419741,421.538706 Z" id="Fill-1052" fill="#FFFFFF"></path>
                    <path d="M163.491904,410.827209 C164.01427,410.827209 164.48207,410.870462 164.897301,410.956303 L164.650425,412.607246 C164.163993,412.500111 163.735453,412.446211 163.363475,412.446211 C162.412569,412.446211 161.600074,412.832163 160.923993,413.604732 C160.248577,414.376636 159.911201,415.338189 159.911201,416.488725 L159.911201,422.793715 L158.131165,422.793715 L158.131165,411.042144 L159.599778,411.042144 L159.803401,413.21878 L159.889242,413.21878 C160.325767,412.45353 160.850795,411.863956 161.465656,411.44939 C162.079852,411.034824 162.755933,410.827209 163.491904,410.827209" id="Fill-1053" fill="#FFFFFF"></path>
                    <path d="M171.695379,423.007985 C169.957264,423.007985 168.587135,422.478965 167.582994,421.420924 C166.578189,420.362884 166.076451,418.89427 166.076451,417.014418 C166.076451,415.119926 166.542255,413.615379 167.47586,412.500111 C168.408133,411.384843 169.661146,410.827209 171.233567,410.827209 C172.706174,410.827209 173.871349,411.311645 174.729094,412.280518 C175.586839,413.248725 176.016044,414.526359 176.016044,416.11342 L176.016044,417.239335 L167.921035,417.239335 C167.955638,418.61878 168.304991,419.666174 168.965767,420.38085 C169.627209,421.095527 170.558152,421.45353 171.758595,421.45353 C173.024917,421.45353 174.274603,421.188688 175.512311,420.659667 L175.512311,422.246728 C174.88281,422.518226 174.287911,422.713198 173.726285,422.83098 C173.165323,422.948762 172.487911,423.007985 171.695379,423.007985 L171.695379,423.007985 L171.695379,423.007985 Z M171.212274,412.317782 C170.268688,412.317782 169.516081,412.625213 168.95512,413.240074 C168.394159,413.854935 168.063438,414.70536 167.963623,415.792015 L174.107579,415.792015 C174.107579,414.669427 173.857375,413.810351 173.356969,413.212791 C172.856562,412.616562 172.14122,412.317782 171.212274,412.317782 L171.212274,412.317782 L171.212274,412.317782 Z" id="Fill-1054" fill="#FFFFFF"></path>
                    <path d="M186.497301,419.587652 C186.497301,420.680961 186.088725,421.524732 185.274233,422.118299 C184.459076,422.711201 183.315194,423.007985 181.843253,423.007985 C180.284806,423.007985 179.069723,422.761109 178.197338,422.268022 L178.197338,420.617079 C178.762292,420.902551 179.368503,421.128133 180.01464,421.292495 C180.662107,421.456858 181.285619,421.538706 181.885841,421.538706 C182.814787,421.538706 183.530129,421.39098 184.030536,421.094196 C184.530943,420.797412 184.781811,420.344917 184.781811,419.738041 C184.781811,419.280222 184.582847,418.888946 184.186248,418.563549 C183.788983,418.238152 183.015083,417.854196 181.865213,417.411017 C180.770573,417.003771 179.993346,416.647763 179.532865,416.34366 C179.071054,416.040222 178.728355,415.695527 178.503438,415.309575 C178.277856,414.923623 178.165397,414.462477 178.165397,413.926137 C178.165397,412.968577 178.554677,412.212643 179.334566,411.658336 C180.113124,411.104695 181.181811,410.827209 182.539963,410.827209 C183.805619,410.827209 185.041996,411.084732 186.250425,411.599113 L185.616932,413.047098 C184.438447,412.560665 183.369094,412.317782 182.411534,412.317782 C181.567763,412.317782 180.931608,412.450203 180.503068,412.714381 C180.073863,412.979224 179.859593,413.343882 179.859593,413.808355 C179.859593,414.12244 179.940111,414.39061 180.100481,414.6122 C180.262181,414.833789 180.52037,415.044732 180.878373,415.245028 C181.235046,415.445323 181.921774,415.734787 182.937227,416.11342 C184.330647,416.621146 185.272902,417.1322 185.761996,417.64658 C186.252421,418.161627 186.497301,418.808429 186.497301,419.587652" id="Fill-1055" fill="#FFFFFF"></path>
                    <path d="M193.954159,423.007985 C192.252643,423.007985 190.935749,422.484288 190.00281,421.43756 C189.069871,420.390166 188.604067,418.908244 188.604067,416.993124 C188.604067,415.026765 189.07719,413.508244 190.024104,412.435564 C190.971017,411.363549 192.320518,410.827209 194.071275,410.827209 C194.636229,410.827209 195.201183,410.888429 195.766137,411.009538 C196.330425,411.131312 196.773604,411.274381 197.095675,411.438743 L196.548688,412.95061 C196.155416,412.792902 195.726876,412.663142 195.262403,412.559335 C194.797264,412.455527 194.386026,412.403623 194.028688,412.403623 C191.641109,412.403623 190.447985,413.926137 190.447985,416.971165 C190.447985,418.415157 190.739445,419.523105 191.321701,420.295009 C191.904621,421.066913 192.767689,421.45353 193.910906,421.45353 C194.890425,421.45353 195.895231,421.242588 196.924658,420.820702 L196.924658,422.397116 C196.137449,422.804362 195.147948,423.007985 193.954159,423.007985" id="Fill-1056" fill="#FFFFFF"></path>
                    <path d="M201.204732,411.042144 L201.204732,418.66536 C201.204732,419.623586 201.422329,420.338262 201.858854,420.810055 C202.294713,421.281848 202.977449,421.517412 203.907061,421.517412 C205.136118,421.517412 206.03512,421.181368 206.603401,420.509945 C207.171682,419.837856 207.456488,418.740555 207.456488,417.218041 L207.456488,411.042144 L209.23586,411.042144 L209.23586,422.793715 L207.767246,422.793715 L207.509723,421.217301 L207.413235,421.217301 C207.047911,421.796229 206.542847,422.239409 205.896044,422.546839 C205.248577,422.85427 204.51061,423.007985 203.682144,423.007985 C202.25146,423.007985 201.181442,422.668614 200.470758,421.989205 C199.758743,421.310462 199.403401,420.223808 199.403401,418.729908 L199.403401,411.042144 L201.204732,411.042144" id="Fill-1057" fill="#FFFFFF"></path>
                    <path d="M217.71549,423.007985 C215.977375,423.007985 214.607246,422.478965 213.603105,421.420924 C212.598299,420.362884 212.096562,418.89427 212.096562,417.014418 C212.096562,415.119926 212.563031,413.615379 213.49597,412.500111 C214.428244,411.384843 215.681257,410.827209 217.253678,410.827209 C218.726285,410.827209 219.89146,411.311645 220.749205,412.280518 C221.60695,413.248725 222.036155,414.526359 222.036155,416.11342 L222.036155,417.239335 L213.941146,417.239335 C213.976414,418.61878 214.325102,419.666174 214.985878,420.38085 C215.64732,421.095527 216.578262,421.45353 217.778706,421.45353 C219.045028,421.45353 220.295379,421.188688 221.532421,420.659667 L221.532421,422.246728 C220.902921,422.518226 220.308022,422.713198 219.746396,422.83098 C219.1861,422.948762 218.508022,423.007985 217.71549,423.007985 L217.71549,423.007985 L217.71549,423.007985 Z M217.232384,412.317782 C216.288799,412.317782 215.536192,412.625213 214.975896,413.240074 C214.41427,413.854935 214.083549,414.70536 213.983734,415.792015 L220.127689,415.792015 C220.127689,414.669427 219.877486,413.810351 219.377079,413.212791 C218.876673,412.616562 218.161996,412.317782 217.232384,412.317782 L217.232384,412.317782 L217.232384,412.317782 Z" id="Fill-1058" fill="#FFFFFF"></path>
                    <path d="M235.47061,423.007985 C233.76976,423.007985 232.4522,422.484288 231.519926,421.43756 C230.586987,420.390166 230.120518,418.908244 230.120518,416.993124 C230.120518,415.026765 230.593641,413.508244 231.54122,412.435564 C232.488133,411.363549 233.836969,410.827209 235.588392,410.827209 C236.153346,410.827209 236.717634,410.888429 237.283253,411.009538 C237.847542,411.131312 238.290721,411.274381 238.612791,411.438743 L238.065804,412.95061 C237.672532,412.792902 237.243327,412.663142 236.778854,412.559335 C236.314381,412.455527 235.903142,412.403623 235.545804,412.403623 C233.158226,412.403623 231.965102,413.926137 231.965102,416.971165 C231.965102,418.415157 232.255896,419.523105 232.838152,420.295009 C233.421072,421.066913 234.28414,421.45353 235.428022,421.45353 C236.407542,421.45353 237.411682,421.242588 238.441109,420.820702 L238.441109,422.397116 C237.654566,422.804362 236.664399,423.007985 235.47061,423.007985" id="Fill-1059" fill="#FFFFFF"></path>
                    <path d="M248.528429,422.793715 L248.174418,421.120813 L248.088577,421.120813 C247.502329,421.856784 246.918078,422.35586 246.335823,422.61671 C245.752902,422.87756 245.026248,423.007985 244.153863,423.007985 C242.988688,423.007985 242.075712,422.707874 241.41427,422.106987 C240.753494,421.506765 240.422773,420.652348 240.422773,419.544399 C240.422773,417.17146 242.320591,415.927763 246.115564,415.813309 L248.110536,415.748762 L248.110536,415.020111 C248.110536,414.097819 247.912237,413.417079 247.515638,412.977227 C247.118373,412.538041 246.484214,412.317782 245.612495,412.317782 C244.632976,412.317782 243.525028,412.617893 242.287985,413.21878 L241.740998,411.856636 C242.320591,411.542551 242.95475,411.295675 243.644806,411.116673 C244.334861,410.938336 245.026248,410.849168 245.71963,410.849168 C247.12037,410.849168 248.159113,411.159926 248.833863,411.781442 C249.509945,412.403623 249.84732,413.401109 249.84732,414.773235 L249.84732,422.793715 L248.528429,422.793715 L248.528429,422.793715 Z M244.507874,421.538706 C245.615157,421.538706 246.486211,421.235268 247.118373,420.627726 C247.751201,420.020185 248.067948,419.169094 248.067948,418.075786 L248.067948,417.014418 L246.287246,417.088946 C244.871867,417.139519 243.851756,417.359113 243.226913,417.749057 C242.600739,418.138336 242.287985,418.743882 242.287985,419.566359 C242.287985,420.209168 242.482957,420.698928 242.872237,421.034972 C243.262181,421.371017 243.807172,421.538706 244.507874,421.538706 L244.507874,421.538706 L244.507874,421.538706 Z" id="Fill-1060" fill="#FFFFFF"></path>
                    <path d="M258.596451,410.827209 C259.118152,410.827209 259.586617,410.870462 260.001848,410.956303 L259.754972,412.607246 C259.26854,412.500111 258.84,412.446211 258.468022,412.446211 C257.517116,412.446211 256.704621,412.832163 256.02854,413.604732 C255.353124,414.376636 255.015083,415.338189 255.015083,416.488725 L255.015083,422.793715 L253.235712,422.793715 L253.235712,411.042144 L254.704325,411.042144 L254.907948,413.21878 L254.993789,413.21878 C255.429649,412.45353 255.955342,411.863956 256.570203,411.44939 C257.184399,411.034824 257.860481,410.827209 258.596451,410.827209" id="Fill-1061" fill="#FFFFFF"></path>
                    <path d="M267.657006,410.849168 C269.201479,410.849168 270.400591,411.376192 271.255009,412.430906 C272.108762,413.484954 272.53597,414.976858 272.53597,416.907283 C272.53597,418.837043 272.105434,420.336266 271.243697,421.404954 C270.382625,422.473641 269.186839,423.007985 267.657006,423.007985 C266.892421,423.007985 266.193715,422.866913 265.560887,422.584104 C264.928725,422.301959 264.397708,421.868096 263.969168,421.281848 L263.840074,421.281848 L263.465434,422.793715 L262.189131,422.793715 L262.189131,406.109279 L263.969168,406.109279 L263.969168,410.16244 C263.969168,411.070758 263.940555,411.88525 263.883327,412.607246 L263.969168,412.607246 C264.798299,411.43475 266.027357,410.849168 267.657006,410.849168 L267.657006,410.849168 L267.657006,410.849168 Z M267.400148,412.339076 C266.185065,412.339076 265.309353,412.687763 264.773013,413.384473 C264.237338,414.081848 263.969168,415.255675 263.969168,416.907283 C263.969168,418.558226 264.243993,419.739372 264.794972,420.450721 C265.344621,421.16207 266.227652,421.517412 267.442736,421.517412 C268.53671,421.517412 269.351201,421.119482 269.887542,420.322292 C270.423882,419.525102 270.691386,418.379224 270.691386,416.885323 C270.691386,415.356155 270.423882,414.215601 269.887542,413.464991 C269.351201,412.714381 268.52207,412.339076 267.400148,412.339076 L267.400148,412.339076 L267.400148,412.339076 Z" id="Fill-1062" fill="#FFFFFF"></path>
                    <path d="M97.0602588,452.287098 C95.3594085,452.287098 94.0418484,451.763401 93.1095749,450.716673 C92.1766359,449.669279 91.7101664,448.187357 91.7101664,446.272237 C91.7101664,444.305878 92.1832902,442.787357 93.1308688,441.714677 C94.0777819,440.642662 95.4266174,440.106322 97.1780407,440.106322 C97.7429945,440.106322 98.3072828,440.167542 98.872902,440.288651 C99.4371904,440.410425 99.8803697,440.553494 100.20244,440.717856 L99.6554529,442.229723 C99.2621811,442.072015 98.832976,441.942255 98.3685028,441.838447 C97.9040296,441.73464 97.4927911,441.682736 97.1354529,441.682736 C94.7478743,441.682736 93.5547505,443.20525 93.5547505,446.250277 C93.5547505,447.69427 93.8455453,448.802218 94.4278004,449.574122 C95.0107209,450.346691 95.8737893,450.732643 97.017671,450.732643 C97.9971904,450.732643 99.0013309,450.521701 100.030758,450.099815 L100.030758,451.676229 C99.2442144,452.083475 98.2540481,452.287098 97.0602588,452.287098" id="Fill-1063" fill="#FFFFFF"></path>
                    <path d="M110.624473,452.072828 L110.624473,444.47024 C110.624473,443.51268 110.406211,442.798004 109.970351,442.326211 C109.533826,441.854418 108.851756,441.618189 107.92281,441.618189 C106.685767,441.618189 105.783438,441.954233 105.215157,442.626322 C104.646876,443.29841 104.362736,444.399039 104.362736,445.928872 L104.362736,452.072828 L102.582699,452.072828 L102.582699,435.388392 L104.362736,435.388392 L104.362736,440.439039 C104.362736,441.04658 104.334122,441.550314 104.276895,441.950906 L104.38403,441.950906 C104.734713,441.385952 105.233124,440.941442 105.879926,440.616044 C106.526728,440.290647 107.264695,440.128281 108.093826,440.128281 C109.531165,440.128281 110.608503,440.469649 111.327172,441.152384 C112.045176,441.834455 112.40451,442.919113 112.40451,444.406359 L112.40451,452.072828 L110.624473,452.072828" id="Fill-1064" fill="#FFFFFF"></path>
                    <path d="M120.798965,452.287098 C119.061516,452.287098 117.690721,451.758078 116.68658,450.700037 C115.68244,449.641996 115.180702,448.173383 115.180702,446.29353 C115.180702,444.399039 115.646506,442.894492 116.579445,441.779224 C117.512384,440.663956 118.765397,440.106322 120.337819,440.106322 C121.810425,440.106322 122.975601,440.590758 123.833346,441.55963 C124.691091,442.528503 125.11963,443.805471 125.11963,445.392532 L125.11963,446.518447 L117.024621,446.518447 C117.059889,447.897893 117.408577,448.945287 118.070018,449.659963 C118.73146,450.37464 119.661738,450.732643 120.862847,450.732643 C122.128503,450.732643 123.378854,450.4678 124.616562,449.93878 L124.616562,451.525841 C123.986396,451.797338 123.392163,451.992311 122.830536,452.110092 C122.269575,452.227874 121.592163,452.287098 120.798965,452.287098 L120.798965,452.287098 L120.798965,452.287098 Z M120.316525,441.596895 C119.372939,441.596895 118.620333,441.904325 118.059372,442.519187 C117.497745,443.134048 117.167024,443.984473 117.067874,445.071128 L123.211165,445.071128 C123.211165,443.94854 122.960961,443.089464 122.460555,442.491904 C121.960148,441.895675 121.245471,441.596895 120.316525,441.596895 L120.316525,441.596895 L120.316525,441.596895 Z" id="Fill-1065" fill="#FFFFFF"></path>
                    <path d="M132.727542,452.287098 C131.026026,452.287098 129.709131,451.763401 128.776192,450.716673 C127.843253,449.669279 127.377449,448.187357 127.377449,446.272237 C127.377449,444.305878 127.850573,442.787357 128.798152,441.714677 C129.745065,440.642662 131.0939,440.106322 132.845323,440.106322 C133.409612,440.106322 133.974566,440.167542 134.540185,440.288651 C135.103808,440.410425 135.546987,440.553494 135.869723,440.717856 L135.32207,442.229723 C134.929464,442.072015 134.500259,441.942255 134.035786,441.838447 C133.571312,441.73464 133.159409,441.682736 132.80207,441.682736 C130.414492,441.682736 129.221368,443.20525 129.221368,446.250277 C129.221368,447.69427 129.512828,448.802218 130.095083,449.574122 C130.678004,450.346691 131.541072,450.732643 132.684954,450.732643 C133.663808,450.732643 134.668614,450.521701 135.698041,450.099815 L135.698041,451.676229 C134.910832,452.083475 133.921331,452.287098 132.727542,452.287098" id="Fill-1066" fill="#FFFFFF"></path>
                    <path d="M140.00939,446.057301 C140.316821,445.621442 140.784621,445.049168 141.414787,444.341811 L145.20976,440.321257 L147.322514,440.321257 L142.561331,445.327985 L147.654566,452.072828 L145.499224,452.072828 L141.349575,446.518447 L140.00939,447.676303 L140.00939,452.072828 L138.251312,452.072828 L138.251312,435.388392 L140.00939,435.388392 L140.00939,444.234677 C140.00939,444.627948 139.980776,445.23549 139.923549,446.057301 L140.00939,446.057301" id="Fill-1067" fill="#FFFFFF"></path>
                    <path d="M155.332348,437.136488 C155.332348,436.729242 155.432163,436.430462 155.632458,436.241479 C155.832754,436.05183 156.082957,435.956673 156.383068,435.956673 C156.66854,435.956673 156.915416,436.053161 157.122366,436.246137 C157.329982,436.439778 157.433789,436.735896 157.433789,437.136488 C157.433789,437.536414 157.329982,437.835194 157.122366,438.031497 C156.915416,438.228466 156.66854,438.326285 156.383068,438.326285 C156.082957,438.326285 155.832754,438.228466 155.632458,438.031497 C155.432163,437.835194 155.332348,437.536414 155.332348,437.136488 L155.332348,437.136488 L155.332348,437.136488 Z M155.48207,440.321257 L157.262107,440.321257 L157.262107,452.072828 L155.48207,452.072828 L155.48207,440.321257 L155.48207,440.321257 Z" id="Fill-1068" fill="#FFFFFF"></path>
                    <path d="M168.739519,452.072828 L168.739519,444.47024 C168.739519,443.51268 168.521257,442.798004 168.085397,442.326211 C167.648872,441.854418 166.966802,441.618189 166.037856,441.618189 C164.808133,441.618189 163.907135,441.950906 163.335527,442.615675 C162.763919,443.280444 162.477782,444.377745 162.477782,445.907579 L162.477782,452.072828 L160.697745,452.072828 L160.697745,440.321257 L162.14573,440.321257 L162.435194,441.929612 L162.52037,441.929612 C162.885028,441.350684 163.396081,440.902181 164.05353,440.583438 C164.71098,440.266026 165.444288,440.106322 166.252126,440.106322 C167.667505,440.106322 168.7322,440.448355 169.447542,441.130425 C170.162218,441.813161 170.519556,442.905139 170.519556,444.406359 L170.519556,452.072828 L168.739519,452.072828" id="Fill-1069" fill="#FFFFFF"></path>
                    <path d="M179.273346,441.70403 L176.282218,441.70403 L176.282218,452.072828 L174.501516,452.072828 L174.501516,441.70403 L172.400074,441.70403 L172.400074,440.900185 L174.501516,440.25671 L174.501516,439.602588 C174.501516,436.714603 175.763845,435.27061 178.287172,435.27061 C178.908688,435.27061 179.638004,435.395712 180.474455,435.645915 L180.013974,437.071941 C179.327246,436.850351 178.740333,436.739889 178.255231,436.739889 C177.582477,436.739889 177.086063,436.963475 176.764658,437.409982 C176.442588,437.857153 176.282218,438.573161 176.282218,439.559335 L176.282218,440.321257 L179.273346,440.321257 L179.273346,441.70403" id="Fill-1070" fill="#FFFFFF"></path>
                    <path d="M183.165471,440.321257 L183.165471,447.944473 C183.165471,448.902699 183.383068,449.617375 183.818928,450.089168 C184.255453,450.560961 184.938189,450.796525 185.867135,450.796525 C187.096858,450.796525 187.99586,450.460481 188.56414,449.789057 C189.132421,449.116969 189.416562,448.019667 189.416562,446.497153 L189.416562,440.321257 L191.195933,440.321257 L191.195933,452.072828 L189.72732,452.072828 L189.469797,450.496414 L189.373974,450.496414 C189.008651,451.075342 188.502921,451.518521 187.856784,451.825952 C187.209316,452.133383 186.471349,452.287098 185.642218,452.287098 C184.2122,452.287098 183.142181,451.947726 182.430832,451.268318 C181.719482,450.589575 181.36414,449.502921 181.36414,448.00902 L181.36414,440.321257 L183.165471,440.321257" id="Fill-1071" fill="#FFFFFF"></path>
                    <path d="M202.277412,448.866765 C202.277412,449.960074 201.868835,450.803845 201.054344,451.397412 C200.239187,451.990314 199.095305,452.287098 197.622699,452.287098 C196.064917,452.287098 194.849168,452.040222 193.977449,451.547135 L193.977449,449.896192 C194.542403,450.181664 195.148614,450.407246 195.79475,450.571608 C196.442218,450.73597 197.06573,450.817819 197.665952,450.817819 C198.594898,450.817819 199.31024,450.670092 199.810647,450.373309 C200.310388,450.076525 200.561257,449.62403 200.561257,449.017153 C200.561257,448.559335 200.362957,448.168059 199.966359,447.842662 C199.569094,447.517264 198.795194,447.133309 197.645323,446.690129 C196.550684,446.282884 195.773457,445.926876 195.312976,445.622773 C194.851165,445.319335 194.508466,444.97464 194.283549,444.588688 C194.057967,444.202736 193.945508,443.74159 193.945508,443.20525 C193.945508,442.247689 194.334787,441.491756 195.114677,440.937449 C195.893235,440.383808 196.961922,440.106322 198.320074,440.106322 C199.58573,440.106322 200.822107,440.363845 202.029871,440.878226 L201.397043,442.326211 C200.218558,441.839778 199.149205,441.596895 198.191645,441.596895 C197.347874,441.596895 196.711719,441.729316 196.283179,441.993494 C195.853974,442.258336 195.639704,442.622994 195.639704,443.087468 C195.639704,443.401553 195.720222,443.669723 195.880591,443.891312 C196.041627,444.112902 196.300481,444.323845 196.658484,444.52414 C197.015157,444.724436 197.701885,445.0139 198.717338,445.392532 C200.110758,445.900259 201.053013,446.411312 201.542107,446.925693 C202.031867,447.440739 202.277412,448.087542 202.277412,448.866765" id="Fill-1072" fill="#FFFFFF"></path>
                    <path d="M204.665656,437.136488 C204.665656,436.729242 204.766137,436.430462 204.966433,436.241479 C205.166063,436.05183 205.416266,435.956673 205.716377,435.956673 C206.002514,435.956673 206.248725,436.053161 206.45634,436.246137 C206.66329,436.439778 206.767763,436.735896 206.767763,437.136488 C206.767763,437.536414 206.66329,437.835194 206.45634,438.031497 C206.248725,438.228466 206.002514,438.326285 205.716377,438.326285 C205.416266,438.326285 205.166063,438.228466 204.966433,438.031497 C204.766137,437.835194 204.665656,437.536414 204.665656,437.136488 L204.665656,437.136488 L204.665656,437.136488 Z M204.816044,440.321257 L206.596081,440.321257 L206.596081,452.072828 L204.816044,452.072828 L204.816044,440.321257 L204.816044,440.321257 Z" id="Fill-1073" fill="#FFFFFF"></path>
                    <path d="M220.186248,446.186396 C220.186248,448.102181 219.703142,449.598078 218.738928,450.67342 C217.773383,451.749427 216.440518,452.287098 214.739002,452.287098 C213.688281,452.287098 212.755342,452.040222 211.940185,451.547135 C211.125028,451.054048 210.496192,450.346691 210.053013,449.424399 C209.609834,448.502107 209.388909,447.422773 209.388909,446.186396 C209.388909,444.27061 209.867357,442.778706 210.824917,441.710018 C211.783142,440.640665 213.11268,440.106322 214.81353,440.106322 C216.457819,440.106322 217.764732,440.653309 218.732939,441.747283 C219.701811,442.840591 220.186248,444.320518 220.186248,446.186396 L220.186248,446.186396 L220.186248,446.186396 Z M211.233494,446.186396 C211.233494,447.68695 211.533604,448.830832 212.133826,449.617375 C212.734048,450.403253 213.617079,450.796525 214.782255,450.796525 C215.947431,450.796525 216.831793,450.40525 217.436007,449.622699 C218.039556,448.839482 218.341664,447.69427 218.341664,446.186396 C218.341664,444.69183 218.039556,443.557264 217.436007,442.782033 C216.831793,442.006137 215.940111,441.618189 214.760296,441.618189 C213.59512,441.618189 212.716081,442.000813 212.122514,442.765397 C211.529612,443.530647 211.233494,444.670536 211.233494,446.186396 L211.233494,446.186396 L211.233494,446.186396 Z" id="Fill-1074" fill="#FFFFFF"></path>
                    <path d="M231.096044,452.072828 L231.096044,444.47024 C231.096044,443.51268 230.877782,442.798004 230.441922,442.326211 C230.005397,441.854418 229.323327,441.618189 228.394381,441.618189 C227.164658,441.618189 226.26366,441.950906 225.692052,442.615675 C225.120444,443.280444 224.834307,444.377745 224.834307,445.907579 L224.834307,452.072828 L223.05427,452.072828 L223.05427,440.321257 L224.502255,440.321257 L224.791719,441.929612 L224.876895,441.929612 C225.241553,441.350684 225.752606,440.902181 226.410055,440.583438 C227.067505,440.266026 227.800813,440.106322 228.608651,440.106322 C230.02403,440.106322 231.088725,440.448355 231.804067,441.130425 C232.518743,441.813161 232.876081,442.905139 232.876081,444.406359 L232.876081,452.072828 L231.096044,452.072828" id="Fill-1075" fill="#FFFFFF"></path>
                    <path d="M249.817375,448.866765 C249.817375,449.960074 249.409464,450.803845 248.594307,451.397412 C247.77915,451.990314 246.635933,452.287098 245.163327,452.287098 C243.60488,452.287098 242.389797,452.040222 241.517412,451.547135 L241.517412,449.896192 C242.082366,450.181664 242.688577,450.407246 243.335379,450.571608 C243.982181,450.73597 244.605693,450.817819 245.205915,450.817819 C246.135527,450.817819 246.850203,450.670092 247.35061,450.373309 C247.851017,450.076525 248.101885,449.62403 248.101885,449.017153 C248.101885,448.559335 247.902921,448.168059 247.506322,447.842662 C247.109723,447.517264 246.335157,447.133309 245.185287,446.690129 C244.090647,446.282884 243.31342,445.926876 242.852939,445.622773 C242.391793,445.319335 242.048429,444.97464 241.823512,444.588688 C241.59793,444.202736 241.485471,443.74159 241.485471,443.20525 C241.485471,442.247689 241.87475,441.491756 242.65464,440.937449 C243.433198,440.383808 244.502551,440.106322 245.860702,440.106322 C247.125693,440.106322 248.36207,440.363845 249.570499,440.878226 L248.937671,442.326211 C247.758521,441.839778 246.689834,441.596895 245.731608,441.596895 C244.888503,441.596895 244.252348,441.729316 243.823142,441.993494 C243.394603,442.258336 243.179667,442.622994 243.179667,443.087468 C243.179667,443.401553 243.260185,443.669723 243.42122,443.891312 C243.582255,444.112902 243.840444,444.323845 244.199113,444.52414 C244.555786,444.724436 245.241848,445.0139 246.257301,445.392532 C247.650721,445.900259 248.592976,446.411312 249.08207,446.925693 C249.572495,447.440739 249.817375,448.087542 249.817375,448.866765" id="Fill-1076" fill="#FFFFFF"></path>
                    <path d="M252.205619,437.136488 C252.205619,436.729242 252.305434,436.430462 252.50573,436.241479 C252.706026,436.05183 252.956229,435.956673 253.25634,435.956673 C253.542477,435.956673 253.788688,436.053161 253.995638,436.246137 C254.203253,436.439778 254.307061,436.735896 254.307061,437.136488 C254.307061,437.536414 254.203253,437.835194 253.995638,438.031497 C253.788688,438.228466 253.542477,438.326285 253.25634,438.326285 C252.956229,438.326285 252.706026,438.228466 252.50573,438.031497 C252.305434,437.835194 252.205619,437.536414 252.205619,437.136488 L252.205619,437.136488 L252.205619,437.136488 Z M252.355342,440.321257 L254.135379,440.321257 L254.135379,452.072828 L252.355342,452.072828 L252.355342,440.321257 L252.355342,440.321257 Z" id="Fill-1077" fill="#FFFFFF"></path>
                    <path d="M261.664104,450.817819 C261.978189,450.817819 262.281627,450.795194 262.575749,450.747948 C262.867874,450.702033 263.100776,450.653457 263.272458,450.603549 L263.272458,451.965693 C263.079482,452.058189 262.795342,452.134713 262.419372,452.195933 C262.044732,452.256488 261.706691,452.287098 261.40658,452.287098 C259.133457,452.287098 257.996895,451.089982 257.996895,448.695083 L257.996895,441.70403 L256.314011,441.70403 L256.314011,440.846285 L257.996895,440.106322 L258.747505,437.597634 L259.776932,437.597634 L259.776932,440.321257 L263.186617,440.321257 L263.186617,441.70403 L259.776932,441.70403 L259.776932,448.619889 C259.776932,449.327911 259.944621,449.870906 260.280665,450.249538 C260.616044,450.628835 261.077856,450.817819 261.664104,450.817819" id="Fill-1078" fill="#FFFFFF"></path>
                    <path d="M270.224917,452.287098 C268.487468,452.287098 267.116673,451.758078 266.112532,450.700037 C265.107726,449.641996 264.606654,448.173383 264.606654,446.29353 C264.606654,444.399039 265.072458,442.894492 266.005397,441.779224 C266.937671,440.663956 268.190684,440.106322 269.763771,440.106322 C271.235712,440.106322 272.400887,440.590758 273.258632,441.55963 C274.117043,442.528503 274.545582,443.805471 274.545582,445.392532 L274.545582,446.518447 L266.450573,446.518447 C266.485841,447.897893 266.834529,448.945287 267.495305,449.659963 C268.156747,450.37464 269.087689,450.732643 270.288799,450.732643 C271.554455,450.732643 272.804806,450.4678 274.041848,449.93878 L274.041848,451.525841 C273.412348,451.797338 272.817449,451.992311 272.256488,452.110092 C271.695527,452.227874 271.017449,452.287098 270.224917,452.287098 L270.224917,452.287098 L270.224917,452.287098 Z M269.741811,441.596895 C268.798226,441.596895 268.045619,441.904325 267.485323,442.519187 C266.923697,443.134048 266.592976,443.984473 266.493161,445.071128 L272.637116,445.071128 C272.637116,443.94854 272.386913,443.089464 271.886506,442.491904 C271.3861,441.895675 270.671423,441.596895 269.741811,441.596895 L269.741811,441.596895 L269.741811,441.596895 Z" id="Fill-1079" fill="#FFFFFF"></path>
                    <path d="M277.765619,447.751497 L277.765619,447.172569 C277.765619,446.336118 277.894048,445.648059 278.151571,445.108392 C278.409094,444.568725 278.887542,443.998447 279.588909,443.398226 C280.560444,442.576414 281.173974,441.958226 281.427505,441.542994 C281.681701,441.128429 281.808133,440.628022 281.808133,440.04244 C281.808133,439.313124 281.574566,438.750166 281.105434,438.353567 C280.637634,437.956969 279.964214,437.758669 279.08451,437.758669 C278.520222,437.758669 277.969908,437.824547 277.433567,437.956969 C276.897227,438.08939 276.282366,438.330277 275.588983,438.680296 L274.956821,437.232976 C276.307652,436.524954 277.719704,436.171608 279.191645,436.171608 C280.557116,436.171608 281.618484,436.507652 282.377079,437.179076 C283.133678,437.851165 283.512976,438.798078 283.512976,440.020481 C283.512976,440.542847 283.443105,441.001996 283.30403,441.398595 C283.164288,441.795194 282.959335,442.170499 282.687172,442.52451 C282.415675,442.877856 281.829427,443.448133 280.929094,444.234677 C280.207098,444.849538 279.729982,445.360591 279.497079,445.767837 C279.265508,446.175083 279.149057,446.718743 279.149057,447.397486 L279.149057,447.751497 L277.765619,447.751497 L277.765619,447.751497 Z M277.240591,450.936266 C277.240591,449.964067 277.669131,449.477634 278.526876,449.477634 C278.941442,449.477634 279.261516,449.602736 279.487098,449.852939 C279.712015,450.103142 279.824473,450.464473 279.824473,450.936266 C279.824473,451.39342 279.710018,451.749427 279.481109,452.002957 C279.2522,452.256488 278.934787,452.383586 278.526876,452.383586 C278.155564,452.383586 277.848133,452.271128 277.60525,452.046211 C277.361701,451.820628 277.240591,451.450647 277.240591,450.936266 L277.240591,450.936266 L277.240591,450.936266 Z" id="Fill-1080" fill="#FFFFFF"></path>
                    <path d="M39.9466913,68.5111275 L38.3190388,66.8828096 L46.942403,58.25878 L38.3589649,49.6760074 L39.9866174,48.047024 L48.5707209,56.6304621 L57.1528281,48.047024 L58.7824769,49.6773383 L50.1990388,58.25878 L58.8217375,66.8828096 L57.194085,68.5111275 L48.5707209,59.8884288 L39.9466913,68.5111275" id="Fill-1085" fill="#FFFFFF"></path>
                    <path d="M158.535083,147.677856 L153.967542,135.690055 L157.387874,135.690055 L159.704251,142.520739 C159.961109,143.385804 160.122144,144.203623 160.186691,144.975527 L160.250573,144.975527 C160.286506,144.289464 160.447542,143.47098 160.733013,142.520739 L163.038743,135.690055 L166.459076,135.690055 L161.891534,147.677856 L158.535083,147.677856" id="Fill-1174" fill="#FFFFFF"></path>
                    <path d="M173.180628,147.892126 C171.250869,147.892126 169.742329,147.359778 168.655675,146.295083 C167.56902,145.229723 167.026026,143.721183 167.026026,141.770129 C167.026026,139.761183 167.527763,138.208059 168.532569,137.110758 C169.53671,136.013457 170.925471,135.465139 172.698189,135.465139 C174.392384,135.465139 175.711275,135.947579 176.654861,136.912458 C177.598447,137.877338 178.07024,139.210869 178.07024,140.912384 L178.07024,142.49878 L170.339224,142.49878 C170.375157,143.428392 170.649982,144.153715 171.165028,144.675416 C171.679409,145.197116 172.401405,145.458632 173.331017,145.458632 C174.052348,145.458632 174.735083,145.383438 175.378558,145.23305 C176.022033,145.082662 176.694122,144.843771 177.394159,144.515046 L177.394159,147.045693 C176.822551,147.331165 176.211682,147.544104 175.560887,147.683179 C174.910758,147.822921 174.116895,147.892126 173.180628,147.892126 L173.180628,147.892126 L173.180628,147.892126 Z M172.719482,137.791497 C172.0261,137.791497 171.483105,138.011091 171.089834,138.451608 C170.696562,138.890795 170.471645,139.514307 170.414418,140.322144 L175.003253,140.322144 C174.989279,139.514307 174.778336,138.890795 174.371091,138.451608 C173.963179,138.011091 173.412865,137.791497 172.719482,137.791497 L172.719482,137.791497 L172.719482,137.791497 Z" id="Fill-1175" fill="#FFFFFF"></path>
                    <path d="M187.305804,135.465139 C187.748983,135.465139 188.116969,135.497079 188.410425,135.561627 L188.163549,138.627948 C187.899372,138.556747 187.577301,138.520813 187.198669,138.520813 C186.155268,138.520813 185.341442,138.788983 184.759187,139.325323 C184.176266,139.861664 183.885471,140.612274 183.885471,141.577153 L183.885471,147.677856 L180.614861,147.677856 L180.614861,135.690055 L183.091608,135.690055 L183.574713,137.705656 L183.735083,137.705656 C184.107061,137.034233 184.608799,136.492569 185.241627,136.081331 C185.874455,135.670758 186.562514,135.465139 187.305804,135.465139" id="Fill-1176" fill="#FFFFFF"></path>
                    <path d="M189.481774,135.690055 L193.063142,135.690055 L195.325619,142.434898 C195.518595,143.021146 195.651017,143.714529 195.722218,144.515046 L195.786765,144.515046 C195.865287,143.77841 196.019002,143.085028 196.247911,142.434898 L198.467135,135.690055 L201.973309,135.690055 L196.901368,149.211017 C196.436895,150.462033 195.774122,151.398299 194.912384,152.020481 C194.051312,152.642662 193.045176,152.952754 191.89464,152.952754 C191.329686,152.952754 190.775379,152.892865 190.232384,152.771091 L190.232384,150.176562 C190.625656,150.269057 191.054196,150.315638 191.519335,150.315638 C192.098262,150.315638 192.603327,150.138632 193.036525,149.784621 C193.468392,149.431275 193.806433,148.896932 194.049316,148.182255 L194.242292,147.592015 L189.481774,135.690055" id="Fill-1177" fill="#FFFFFF"></path>
                    <path d="M209.392902,130.99342 L212.663512,130.99342 L212.663512,147.67719 L209.392902,147.67719 L209.392902,130.99342 L209.392902,130.99342 Z" id="Fill-1178" fill="#FFFFFF"></path>
                    <path d="M226.795342,141.662994 C226.795342,143.614048 226.280296,145.139889 225.250869,146.241183 C224.222107,147.341811 222.788762,147.892126 220.951497,147.892126 C219.800961,147.892126 218.785508,147.639926 217.90647,147.136192 C217.027431,146.631793 216.351349,145.908466 215.879556,144.965545 C215.407763,144.021959 215.1722,142.920665 215.1722,141.662994 C215.1722,139.703956 215.683253,138.181442 216.70536,137.094787 C217.727468,136.008799 219.16414,135.465139 221.016044,135.465139 C222.16658,135.465139 223.182033,135.715342 224.061072,136.215749 C224.940111,136.716155 225.615527,137.434159 226.08732,138.370425 C226.559113,139.307357 226.795342,140.404658 226.795342,141.662994 L226.795342,141.662994 L226.795342,141.662994 Z M218.506691,141.662994 C218.506691,142.849464 218.701664,143.74647 219.091608,144.354011 C219.480887,144.961553 220.115046,145.265656 220.994085,145.265656 C221.86647,145.265656 222.493309,144.963549 222.875933,144.358669 C223.258558,143.75512 223.449538,142.856784 223.449538,141.662994 C223.449538,140.47586 223.256562,139.586174 222.87061,138.992606 C222.484658,138.399039 221.852495,138.102921 220.972791,138.102921 C220.101072,138.102921 219.471571,138.397043 219.085619,138.987283 C218.699667,139.576858 218.506691,140.469205 218.506691,141.662994 L218.506691,141.662994 L218.506691,141.662994 Z" id="Fill-1179" fill="#FFFFFF"></path>
                    <path d="M238.960148,147.677856 L238.037856,143.485619 L236.794159,138.188762 L236.718965,138.188762 L234.531682,147.677856 L231.014861,147.677856 L227.605176,135.690055 L230.864473,135.690055 L232.247911,140.998226 C232.469501,141.948466 232.694418,143.260037 232.923327,144.932939 L232.987874,144.932939 C233.016488,144.389279 233.14159,143.528207 233.363179,142.349057 L233.534861,141.437412 L235.014122,135.690055 L238.616784,135.690055 L240.021516,141.437412 C240.050129,141.594455 240.094713,141.827357 240.155268,142.134787 C240.216488,142.442218 240.275712,142.768946 240.332939,143.114972 C240.389501,143.462329 240.441405,143.801701 240.487985,144.134418 C240.534566,144.46647 240.561183,144.732643 240.568503,144.932939 L240.63305,144.932939 C240.696932,144.417893 240.811386,143.712532 240.975749,142.814861 C241.140111,141.917856 241.258558,141.312311 241.32976,140.998226 L242.766433,135.690055 L245.972495,135.690055 L242.520222,147.677856 L238.960148,147.677856" id="Fill-1180" fill="#FFFFFF"></path>
                    <path d="M92.9571904,161.280665 L97.3856562,161.280665 C99.4658041,161.280665 100.970351,161.592089 101.899298,162.213604 C102.828909,162.835786 103.293383,163.818632 103.293383,165.162144 C103.293383,166.091756 103.033863,166.858336 102.516155,167.461885 C101.997782,168.0661 101.241848,168.457375 100.248355,168.636377 L100.248355,168.743512 C102.628614,169.150758 103.819076,170.401774 103.819076,172.496562 C103.819076,173.897301 103.345287,174.991275 102.398373,175.777153 C101.450795,176.563697 100.12658,176.956969 98.4257301,176.956969 L92.9571904,176.956969 L92.9571904,161.280665 L92.9571904,161.280665 Z M94.7798152,167.992902 L97.7822551,167.992902 C99.0685397,167.992902 99.9948244,167.791275 100.559113,167.387357 C101.124067,166.983438 101.406211,166.302699 101.406211,165.345139 C101.406211,164.465434 101.09146,163.831275 100.462625,163.441331 C99.8337893,163.052052 98.832976,162.857079 97.4601848,162.857079 L94.7798152,162.857079 L94.7798152,167.992902 L94.7798152,167.992902 Z M94.7798152,169.53671 L94.7798152,175.402514 L98.0504251,175.402514 C99.3154159,175.402514 100.267652,175.157634 100.9078,174.667209 C101.547283,174.178115 101.867357,173.411534 101.867357,172.367468 C101.867357,171.395268 101.540628,170.680591 100.885841,170.223438 C100.232384,169.765619 99.2368946,169.53671 97.900037,169.53671 L94.7798152,169.53671 L94.7798152,169.53671 Z" id="Fill-1181" fill="#FFFFFF"></path>
                    <path d="M113.853826,168.743512 L119.182625,168.743512 L119.182625,176.367394 C118.353494,176.631571 117.510388,176.831867 116.652643,176.967616 C115.794898,177.103364 114.801405,177.171238 113.671497,177.171238 C111.298558,177.171238 109.450647,176.465213 108.128429,175.053161 C106.805545,173.641774 106.144769,171.664104 106.144769,169.118817 C106.144769,167.489168 106.471497,166.061811 107.125619,164.835416 C107.779741,163.609686 108.721331,162.67342 109.951054,162.025952 C111.180776,161.379815 112.620776,161.055749 114.272384,161.055749 C115.944621,161.055749 117.503068,161.363179 118.947061,161.978041 L118.239039,163.586396 C116.824325,162.986174 115.462181,162.685397 114.153937,162.685397 C112.245471,162.685397 110.754898,163.253678 109.682884,164.39024 C108.610869,165.526802 108.074529,167.103216 108.074529,169.118817 C108.074529,171.234898 108.590906,172.839261 109.624325,173.933235 C110.656414,175.026543 112.17427,175.574196 114.175896,175.574196 C115.261885,175.574196 116.323919,175.448429 117.36,175.198226 L117.36,170.373161 L113.853826,170.373161 L113.853826,168.743512" id="Fill-1182" fill="#FFFFFF"></path>
                    <path d="M128.232532,162.020628 C128.232532,161.613383 128.332348,161.315268 128.532643,161.125619 C128.732939,160.936636 128.983142,160.841479 129.283253,160.841479 C129.56939,160.841479 129.815601,160.937301 130.023216,161.130277 C130.230832,161.323919 130.333974,161.620702 130.333974,162.020628 C130.333974,162.42122 130.230832,162.719335 130.023216,162.915638 C129.815601,163.112606 129.56939,163.210425 129.283253,163.210425 C128.983142,163.210425 128.732939,163.112606 128.532643,162.915638 C128.332348,162.719335 128.232532,162.42122 128.232532,162.020628 L128.232532,162.020628 L128.232532,162.020628 Z M128.382921,165.205397 L130.162957,165.205397 L130.162957,176.956969 L128.382921,176.956969 L128.382921,165.205397 L128.382921,165.205397 Z" id="Fill-1183" fill="#FFFFFF"></path>
                    <path d="M141.157264,173.750906 C141.157264,174.84488 140.750018,175.688651 139.935527,176.281553 C139.12037,176.87512 137.976488,177.171238 136.503882,177.171238 C134.945434,177.171238 133.730351,176.925028 132.858632,176.431941 L132.858632,174.780333 C133.422921,175.06647 134.029131,175.291386 134.675933,175.455749 C135.322736,175.620111 135.946248,175.702625 136.547135,175.702625 C137.476081,175.702625 138.190758,175.554233 138.691165,175.257449 C139.191571,174.961331 139.441774,174.508835 139.441774,173.901294 C139.441774,173.443475 139.243475,173.052865 138.846876,172.726802 C138.450277,172.40207 137.676377,172.017449 136.525176,171.57427 C135.431867,171.167024 134.653974,170.811017 134.193494,170.506913 C133.732348,170.203475 133.388983,169.85878 133.164067,169.472828 C132.938484,169.086876 132.826026,168.62573 132.826026,168.090055 C132.826026,167.13183 133.21597,166.375896 133.995194,165.82159 C134.774418,165.267948 135.843105,164.990462 137.201257,164.990462 C138.466248,164.990462 139.702625,165.247985 140.911054,165.762366 L140.278226,167.210351 C139.099076,166.724584 138.030388,166.481701 137.072163,166.481701 C136.229057,166.481701 135.592902,166.613457 135.163697,166.877634 C134.735157,167.142477 134.520222,167.507135 134.520222,167.971608 C134.520222,168.285693 134.600739,168.554529 134.761774,168.776118 C134.92281,168.997708 135.181664,169.207985 135.539002,169.408281 C135.89634,169.608577 136.582403,169.898041 137.597856,170.277338 C138.991941,170.784399 139.93353,171.295453 140.422625,171.809834 C140.912384,172.32488 141.157264,172.971682 141.157264,173.750906" id="Fill-1184" fill="#FFFFFF"></path>
                    <path d="M151.429575,165.205397 L151.429575,172.829279 C151.429575,173.786839 151.647837,174.501516 152.083697,174.973309 C152.519556,175.445102 153.202292,175.681331 154.131238,175.681331 C155.360961,175.681331 156.259963,175.345287 156.828244,174.673198 C157.396525,174.001109 157.680665,172.903808 157.680665,171.381294 L157.680665,165.205397 L159.460702,165.205397 L159.460702,176.956969 L157.991423,176.956969 L157.734566,175.38122 L157.638078,175.38122 C157.27342,175.960148 156.767024,176.403327 156.120887,176.710758 C155.47342,177.018189 154.735453,177.171238 153.906322,177.171238 C152.476969,177.171238 151.406285,176.831867 150.694935,176.153124 C149.983586,175.473715 149.628244,174.387061 149.628244,172.893161 L149.628244,165.205397 L151.429575,165.205397" id="Fill-1185" fill="#FFFFFF"></path>
                    <path d="M170.942773,176.956969 L170.942773,169.355046 C170.942773,168.396821 170.72451,167.682144 170.288651,167.210351 C169.852126,166.738558 169.170055,166.502994 168.240444,166.502994 C167.010721,166.502994 166.110388,166.835046 165.53878,167.499815 C164.966506,168.164584 164.681035,169.261885 164.681035,170.791719 L164.681035,176.956969 L162.900998,176.956969 L162.900998,165.205397 L164.348318,165.205397 L164.637782,166.813752 L164.723623,166.813752 C165.088281,166.234159 165.599335,165.786322 166.256784,165.467579 C166.914233,165.150166 167.647542,164.990462 168.454713,164.990462 C169.870092,164.990462 170.935453,165.332495 171.650129,166.014566 C172.364806,166.697967 172.722144,167.789279 172.722144,169.290499 L172.722144,176.956969 L170.942773,176.956969" id="Fill-1186" fill="#FFFFFF"></path>
                    <path d="M184.186913,175.38122 L184.08976,175.38122 C183.267948,176.574344 182.038226,177.171238 180.401922,177.171238 C178.864769,177.171238 177.668983,176.646211 176.814566,175.59549 C175.960813,174.544769 175.533604,173.050869 175.533604,171.113789 C175.533604,169.176044 175.96281,167.671497 176.820555,166.598817 C177.678299,165.526802 178.872089,164.990462 180.401922,164.990462 C181.995638,164.990462 183.218041,165.56939 184.068466,166.727911 L184.208207,166.727911 L184.133013,165.880813 L184.08976,165.055009 L184.08976,160.272532 L185.869797,160.272532 L185.869797,176.956969 L184.422477,176.956969 L184.186913,175.38122 L184.186913,175.38122 Z M180.626839,175.681331 C181.841922,175.681331 182.722957,175.35061 183.269945,174.689168 C183.816932,174.027726 184.08976,172.961035 184.08976,171.488429 L184.08976,171.113789 C184.08976,169.448207 183.812939,168.259076 183.259298,167.547726 C182.704991,166.837043 181.820628,166.481701 180.605545,166.481701 C179.561479,166.481701 178.762957,166.88695 178.208651,167.698115 C177.655009,168.509279 177.378189,169.655157 177.378189,171.135083 C177.378189,172.636303 177.653013,173.768872 178.203327,174.533457 C178.753641,175.298706 179.561479,175.681331 180.626839,175.681331 L180.626839,175.681331 L180.626839,175.681331 Z" id="Fill-1187" fill="#FFFFFF"></path>
                    <path d="M194.349427,177.171238 C192.612643,177.171238 191.241848,176.642218 190.237708,175.584177 C189.232902,174.526137 188.731165,173.057523 188.731165,171.177671 C188.731165,169.283179 189.197634,167.778632 190.130573,166.663364 C191.062847,165.548096 192.31586,164.990462 193.888946,164.990462 C195.360887,164.990462 196.526063,165.475564 197.384473,166.443771 C198.242218,167.412643 198.670758,168.690277 198.670758,170.277338 L198.670758,171.402588 L190.575749,171.402588 C190.611017,172.782033 190.959704,173.829427 191.620481,174.544769 C192.281922,175.259445 193.212865,175.616784 194.413974,175.616784 C195.67963,175.616784 196.929982,175.352606 198.167024,174.823586 L198.167024,176.409982 C197.537523,176.682144 196.942625,176.876451 196.381664,176.994233 C195.820037,177.112015 195.14329,177.171238 194.349427,177.171238 L194.349427,177.171238 L194.349427,177.171238 Z M193.866987,166.481701 C192.923401,166.481701 192.17146,166.788466 191.610499,167.403327 C191.048872,168.018189 190.718152,168.868614 190.618336,169.955268 L196.762292,169.955268 C196.762292,168.833346 196.512089,167.973604 196.011682,167.376044 C195.511275,166.779815 194.796599,166.481701 193.866987,166.481701 L193.866987,166.481701 L193.866987,166.481701 Z" id="Fill-1188" fill="#FFFFFF"></path>
                    <path d="M206.824991,164.990462 C207.346691,164.990462 207.814492,165.033715 208.229057,165.119556 L207.982847,166.770499 C207.496414,166.663364 207.067874,166.610129 206.695896,166.610129 C205.744991,166.610129 204.932495,166.996081 204.256414,167.767985 C203.580998,168.539889 203.243623,169.501442 203.243623,170.651978 L203.243623,176.956969 L201.463586,176.956969 L201.463586,165.205397 L202.9322,165.205397 L203.136488,167.382033 L203.221664,167.382033 C203.658189,166.617449 204.183216,166.027209 204.798078,165.612643 C205.412939,165.198078 206.088355,164.990462 206.824991,164.990462" id="Fill-1189" fill="#FFFFFF"></path>
                    <path d="M220.216858,167.382033 C221.8678,167.382033 223.167394,167.791275 224.114307,168.60976 C225.06122,169.428244 225.535009,170.548835 225.535009,171.971534 C225.535009,173.593863 225.018632,174.866174 223.985878,175.788466 C222.952458,176.710758 221.528429,177.171238 219.713124,177.171238 C217.947061,177.171238 216.599556,176.889094 215.67061,176.324806 L215.67061,174.608651 C216.171017,174.930721 216.793198,175.182255 217.536488,175.364584 C218.279778,175.546913 219.012421,175.638078 219.734418,175.638078 C220.992754,175.638078 221.969612,175.341294 222.666987,174.747726 C223.363697,174.154824 223.712384,173.297079 223.712384,172.174492 C223.712384,169.987209 222.3722,168.8939 219.691165,168.8939 C219.012421,168.8939 218.104769,168.997708 216.968207,169.204658 L216.045915,168.615083 L216.63549,161.280665 L224.431054,161.280665 L224.431054,162.921627 L218.158004,162.921627 L217.761405,167.628244 C218.583216,167.463882 219.401701,167.382033 220.216858,167.382033" id="Fill-1190" fill="#FFFFFF"></path>
                    <path d="M238.210203,169.097523 C238.210203,171.806506 237.782329,173.829427 236.928577,175.166285 C236.074159,176.503142 234.767911,177.171238 233.009834,177.171238 C231.322292,177.171238 230.039335,176.487172 229.160296,175.117708 C228.281257,173.748909 227.841405,171.742625 227.841405,169.097523 C227.841405,166.367246 228.266617,164.340333 229.117043,163.017449 C229.968133,161.695231 231.26573,161.034455 233.009834,161.034455 C234.710684,161.034455 236.002957,161.723845 236.885989,163.10329 C237.768355,164.483401 238.210203,166.481701 238.210203,169.097523 L238.210203,169.097523 L238.210203,169.097523 Z M229.642736,169.097523 C229.642736,171.377967 229.910906,173.03756 230.447246,174.078299 C230.982921,175.117708 231.837338,175.638078 233.009834,175.638078 C234.196303,175.638078 235.055379,175.111054 235.588392,174.05634 C236.120739,173.002292 236.386913,171.349353 236.386913,169.097523 C236.386913,166.845693 236.120739,165.196747 235.588392,164.149353 C235.055379,163.101959 234.196303,162.578262 233.009834,162.578262 C231.837338,162.578262 230.982921,163.095305 230.447246,164.127394 C229.910906,165.160813 229.642736,166.817079 229.642736,169.097523 L229.642736,169.097523 L229.642736,169.097523 Z" id="Fill-1191" fill="#FFFFFF"></path>
                    <path d="M261.874381,176.956969 L261.874381,169.311793 C261.874381,168.375527 261.674085,167.673494 261.273494,167.204362 C260.873567,166.736562 260.251386,166.502994 259.408281,166.502994 C258.299667,166.502994 257.481183,166.820407 256.952828,167.456562 C256.423808,168.092717 256.158965,169.072237 256.158965,170.394455 L256.158965,176.956969 L254.378928,176.956969 L254.378928,169.311793 C254.378928,168.375527 254.179298,167.673494 253.778706,167.204362 C253.378115,166.736562 252.753272,166.502994 251.902181,166.502994 C250.786913,166.502994 249.970425,166.837043 249.452052,167.505139 C248.933678,168.1739 248.674824,169.269205 248.674824,170.791719 L248.674824,176.956969 L246.894787,176.956969 L246.894787,165.205397 L248.342773,165.205397 L248.632237,166.813752 L248.718078,166.813752 C249.053457,166.241479 249.527246,165.794972 250.138115,165.473567 C250.749649,165.152163 251.434381,164.990462 252.191645,164.990462 C254.028909,164.990462 255.230018,165.655231 255.794307,166.984769 L255.880148,166.984769 C256.230832,166.370573 256.737893,165.88414 257.402662,165.526802 C258.067431,165.169464 258.82536,164.990462 259.675786,164.990462 C261.005323,164.990462 262.000813,165.332495 262.662255,166.014566 C263.323031,166.697967 263.653752,167.789279 263.653752,169.290499 L263.653752,176.956969 L261.874381,176.956969" id="Fill-1192" fill="#FFFFFF"></path>
                    <path d="M276.64902,165.205397 L276.64902,166.331312 L274.472384,166.588835 C274.67268,166.839039 274.851682,167.165767 275.008725,167.56902 C275.165767,167.973604 275.244288,168.428762 275.244288,168.936488 C275.244288,170.087689 274.851682,171.005989 274.065139,171.692717 C273.278595,172.37878 272.199261,172.721479 270.827135,172.721479 C270.476451,172.721479 270.147726,172.692865 269.840296,172.636303 C269.083031,173.036229 268.703734,173.539963 268.703734,174.147505 C268.703734,174.468909 268.836155,174.707135 269.100333,174.860185 C269.365176,175.014566 269.819002,175.091091 270.462477,175.091091 L272.542625,175.091091 C273.814935,175.091091 274.792458,175.359261 275.475194,175.895601 C276.157264,176.431941 276.499298,177.211165 276.499298,178.233272 C276.499298,179.534196 275.976932,180.525693 274.93353,181.207763 C273.890129,181.891165 272.367616,182.231867 270.365989,182.231867 C268.828835,182.231867 267.643697,181.946396 266.811238,181.374122 C265.97878,180.802514 265.562218,179.994677 265.562218,178.951275 C265.562218,178.236599 265.791128,177.61841 266.248281,177.09671 C266.7061,176.574344 267.349575,176.220333 268.178706,176.034677 C267.878595,175.898928 267.626396,175.688651 267.422107,175.402514 C267.21915,175.116377 267.116673,174.78366 267.116673,174.405028 C267.116673,173.975823 267.231128,173.601183 267.460037,173.279113 C267.688946,172.957708 268.049612,172.646285 268.543364,172.346174 C267.935157,172.09597 267.440074,171.670758 267.058115,171.070536 C266.67549,170.470314 266.48451,169.783586 266.48451,169.011682 C266.48451,167.725397 266.870462,166.732569 267.642366,166.036525 C268.41427,165.33915 269.508244,164.990462 270.923623,164.990462 C271.538484,164.990462 272.092126,165.062329 272.585213,165.205397 L276.64902,165.205397 L276.64902,165.205397 Z M267.277708,178.929982 C267.277708,179.566137 267.545878,180.048577 268.082218,180.377301 C268.617893,180.706691 269.38647,180.871054 270.387283,180.871054 C271.881183,180.871054 272.9878,180.647468 273.705804,180.200296 C274.424473,179.753789 274.783142,179.148244 274.783142,178.382994 C274.783142,177.746839 274.586839,177.304991 274.193567,177.05878 C273.800296,176.811904 273.060998,176.688799 271.974344,176.688799 L269.840296,176.688799 C269.032458,176.688799 268.403623,176.881774 267.953124,177.268392 C267.50329,177.654344 267.277708,178.207985 267.277708,178.929982 L267.277708,178.929982 L267.277708,178.929982 Z M268.242588,168.969094 C268.242588,169.790906 268.474824,170.413087 268.939963,170.834972 C269.404436,171.256192 270.051238,171.467135 270.88037,171.467135 C272.617819,171.467135 273.486211,170.623364 273.486211,168.936488 C273.486211,167.171091 272.606506,166.288725 270.848429,166.288725 C270.011978,166.288725 269.368503,166.512976 268.918669,166.963475 C268.46817,167.413974 268.242588,168.082736 268.242588,168.969094 L268.242588,168.969094 L268.242588,168.969094 Z" id="Fill-1193" fill="#FFFFFF"></path>
                    <path d="M285.647024,161.280665 L279.803179,176.956969 L278.023808,176.956969 L283.866987,161.280665 L285.647024,161.280665" id="Fill-1194" fill="#FFFFFF"></path>
                    <path d="M294.708909,175.38122 L294.612421,175.38122 C293.789945,176.574344 292.560887,177.171238 290.923919,177.171238 C289.386765,177.171238 288.19098,176.646211 287.337227,175.59549 C286.48281,174.544769 286.055601,173.050869 286.055601,171.113789 C286.055601,169.176044 286.484806,167.671497 287.342551,166.598817 C288.200296,165.526802 289.394085,164.990462 290.923919,164.990462 C292.517634,164.990462 293.740037,165.56939 294.591128,166.727911 L294.730203,166.727911 L294.655009,165.880813 L294.612421,165.055009 L294.612421,160.272532 L296.392458,160.272532 L296.392458,176.956969 L294.944473,176.956969 L294.708909,175.38122 L294.708909,175.38122 Z M291.148835,175.681331 C292.363919,175.681331 293.245619,175.35061 293.791941,174.689168 C294.338928,174.027726 294.612421,172.961035 294.612421,171.488429 L294.612421,171.113789 C294.612421,169.448207 294.334935,168.259076 293.781294,167.547726 C293.226987,166.837043 292.342625,166.481701 291.127542,166.481701 C290.08414,166.481701 289.284954,166.88695 288.730647,167.698115 C288.177006,168.509279 287.900185,169.655157 287.900185,171.135083 C287.900185,172.636303 288.175009,173.768872 288.725989,174.533457 C289.276303,175.298706 290.08414,175.681331 291.148835,175.681331 L291.148835,175.681331 L291.148835,175.681331 Z" id="Fill-1195" fill="#FFFFFF"></path>
                    <path d="M300.109575,176.956969 L300.109575,161.280665 L301.931534,161.280665 L301.931534,175.30536 L308.848059,175.30536 L308.848059,176.956969 L300.109575,176.956969" id="Fill-1196" fill="#FFFFFF"></path>
                    <path d="M139.488355,340.832163 C143.252052,340.832163 145.986987,343.579076 145.986987,347.326137 L145.986987,350.10366 C145.986987,353.86403 143.252052,356.834529 139.488355,356.834529 C135.662107,356.834529 132.871941,353.86403 132.871941,350.10366 L132.871941,347.326137 C132.871941,343.579076 135.662107,340.832163 139.488355,340.832163 L139.488355,340.832163 L139.488355,340.832163 Z M133.007024,262.92244 C132.871941,260.408429 134.657301,258.448725 137.034233,258.448725 L141.807394,258.448725 C144.358669,258.448725 145.986987,260.408429 145.926433,262.92244 L142.673789,325.95305 C142.538041,327.715786 141.175896,329.141811 139.488355,329.141811 C137.684362,329.141811 136.239039,327.715786 136.156525,325.95305 L133.007024,262.92244 L133.007024,262.92244 Z" id="Fill-1272" fill="#FFFFFF"></path>
                    <path d="M223.910018,353.591201 C216.584917,353.591201 213.010869,347.612939 213.010869,342.299445 C213.010869,334.48525 223.910018,317.205915 223.910018,317.205915 C223.910018,317.205915 234.792532,334.48525 234.792532,342.299445 C234.792532,347.612939 231.22647,353.591201 223.910018,353.591201" id="Fill-1273" fill="#FFFFFF"></path>
                    <path d="M222.937153,289.453974 C223.66647,291.741072 223.070906,293.965619 221.618262,294.423438 C220.176932,294.879261 218.416858,293.403327 217.6922,291.118226 C216.960222,288.828466 217.556451,286.604584 219.006433,286.144104 C220.452421,285.690943 222.212495,287.1722 222.937153,289.453974" id="Fill-1274" fill="#000000"></path>
                    <path d="M190.410721,263.66573 L190.410721,357.965102" id="Stroke-1275" stroke="#FFFFFF" stroke-width="3.239"></path>
                    <path d="M190.427357,335.398891 L200.836747,335.398891 M190.427357,311.738041 L200.836747,311.738041 M190.427357,288.07586 L200.836747,288.07586 M189.305434,357.985065 L241.697079,357.985065 M189.348688,264.415675 L199.758743,264.415675" id="Stroke-1276" stroke="#FFFFFF" stroke-width="3.263"></path>
                </g>
            </g>
        </g>
    </g>
</svg>