<?xml version="1.0" encoding="UTF-8" standalone="no"?>
<svg width="26px" height="47px" viewBox="0 0 26 47" version="1.1" xmlns="http://www.w3.org/2000/svg" xmlns:xlink="http://www.w3.org/1999/xlink" xmlns:sketch="http://www.bohemiancoding.com/sketch/ns">
    <!-- Generator: Sketch 3.3 (11970) - http://www.bohemiancoding.com/sketch -->
    <title>lowSmallIcon</title>
    <desc>Created with Sketch.</desc>
    <defs></defs>
    <g id="Page-1" stroke="none" stroke-width="1" fill="none" fill-rule="evenodd" sketch:type="MSPage">
        <g id="lowSmallIcon" sketch:type="MSLayerGroup">
            <path d="M16.66,41.001 C13.286,41.001 11.64,38.247 11.64,35.798 C11.64,32.199 16.66,24.241 16.66,24.241 C16.66,24.241 21.673,32.199 21.673,35.798 C21.673,38.247 20.031,41.001 16.66,41.001" id="Fill-1" fill="#000000" sketch:type="MSShapeGroup"></path>
            <path d="M16.212,36.481 C16.548,37.537 16.274,38.559 15.605,38.77 C14.941,38.981 14.13,38.3 13.796,37.25 C13.459,36.194 13.734,35.169 14.402,34.958 C15.068,34.748 15.878,35.43 16.212,36.481" id="Fill-2" fill="#FFFFFF" sketch:type="MSShapeGroup"></path>
            <path d="M1.23,0.947 L1.23,45.024" id="Stroke-3" stroke="#000000" stroke-width="2" sketch:type="MSShapeGroup"></path>
            <path d="M4.474,45.53 L24.357,45.53 M1.238,34.63 L6.033,34.63 M1.238,23.731 L6.033,23.731 M1.238,12.833 L6.033,12.833 M1.238,1.934 L6.033,1.934" id="Stroke-4" stroke="#6C6C6C" stroke-width="2" stroke-linecap="round" sketch:type="MSShapeGroup"></path>
            <path d="M0.224,45.53 L24.357,45.53" id="Stroke-5" stroke="#000000" stroke-width="2" sketch:type="MSShapeGroup"></path>
            <path d="M1.238,34.63 L6.033,34.63 M1.238,23.731 L6.033,23.731 M1.238,12.833 L6.033,12.833 M1.238,1.934 L6.033,1.934" id="Stroke-6" stroke="#000000" stroke-width="2" stroke-linecap="round" sketch:type="MSShapeGroup"></path>
        </g>
    </g>
</svg>