<?xml version="1.0" encoding="UTF-8" standalone="no"?>
<svg width="38px" height="47px" viewBox="0 0 38 47" version="1.1" xmlns="http://www.w3.org/2000/svg" xmlns:xlink="http://www.w3.org/1999/xlink" xmlns:sketch="http://www.bohemiancoding.com/sketch/ns">
    <!-- Generator: Sketch 3.3 (11970) - http://www.bohemiancoding.com/sketch -->
    <title>manualSmallIcon</title>
    <desc>Created with Sketch.</desc>
    <defs></defs>
    <g id="Page-1" stroke="none" stroke-width="1" fill="none" fill-rule="evenodd" sketch:type="MSPage">
        <g id="manualSmallIcon" sketch:type="MSLayerGroup" transform="translate(1.000000, 1.000000)" stroke-linecap="round">
            <path d="M5.927,7.075 L16.759,7.075 M5.927,10.85 L16.759,10.85 M5.927,14.628 L16.759,14.628 M5.927,18.405 L16.759,18.405 M5.927,22.182 L16.759,22.182 M5.927,25.958 L16.759,25.958 M5.927,29.737 L16.759,29.737 M5.927,33.511 L16.759,33.511 M5.927,37.29 L16.759,37.29 M20.15,7.075 L30.983,7.075 M20.15,10.85 L30.983,10.85 M20.15,14.628 L30.983,14.628 M20.15,18.405 L30.983,18.405 M20.15,22.182 L30.983,22.182 M20.15,25.958 L30.983,25.958 M20.15,29.737 L30.983,29.737 M20.15,33.511 L30.983,33.511" id="Stroke-1" stroke="#231F1F" sketch:type="MSShapeGroup"></path>
            <path d="M0.971,0.743 L35.9,0.743 L35.9,44.387 L0.971,44.387 L0.971,0.743 Z" id="Stroke-2" stroke="#000000" stroke-width="2" sketch:type="MSShapeGroup"></path>
        </g>
    </g>
</svg>