<?xml version="1.0" encoding="UTF-8" standalone="no"?>
<svg width="360px" height="591px" viewBox="0 0 360 591" version="1.1" xmlns="http://www.w3.org/2000/svg" xmlns:xlink="http://www.w3.org/1999/xlink" xmlns:sketch="http://www.bohemiancoding.com/sketch/ns">
    <!-- Generator: Sketch 3.3 (11970) - http://www.bohemiancoding.com/sketch -->
    <title>noGlucagonAlert</title>
    <desc>Created with Sketch.</desc>
    <defs></defs>
    <g id="Page-1" stroke="none" stroke-width="1" fill="none" fill-rule="evenodd" sketch:type="MSPage">
        <g id="noGlucagonAlert" sketch:type="MSLayerGroup">
            <g id="Page-1" sketch:type="MSShapeGroup">
                <g id="noGlucagonAlert">
                    <path d="M0.283475046,0.443179298 L359.618041,0.443179298 L359.618041,590.683475 L0.283475046,590.683475 L0.283475046,0.443179298 L0.283475046,0.443179298 Z" id="Fill-1292" fill="#000000"></path>
                    <path d="M33.7255453,68.5111275 L32.0972274,66.8828096 L40.7205915,58.25878 L32.136488,49.6760074 L33.7648059,48.047024 L42.3489094,56.6304621 L50.9310166,48.047024 L52.5606654,49.6773383 L43.9772274,58.25878 L52.6005915,66.8828096 L50.9722736,68.5111275 L42.3489094,59.8884288 L33.7255453,68.5111275" id="Fill-1297" fill="#FFFFFF"></path>
                    <path d="M127.47061,162.076525 L124.2,162.076525 L124.2,155.074824 C124.2,154.20976 124.046285,153.561627 123.738854,153.129094 C123.431423,152.696562 122.941664,152.480296 122.269575,152.480296 C121.354603,152.480296 120.693826,152.78573 120.28658,153.396599 C119.878669,154.008133 119.675046,155.020924 119.675046,156.436303 L119.675046,162.076525 L116.405102,162.076525 L116.405102,150.088725 L118.903142,150.088725 L119.342994,151.621885 L119.524658,151.621885 C119.889316,151.042957 120.391719,150.605767 121.031867,150.308318 C121.671349,150.0122 122.398004,149.863808 123.213161,149.863808 C124.607246,149.863808 125.665287,150.241109 126.387283,150.995046 C127.109279,151.748983 127.47061,152.837634 127.47061,154.259667 L127.47061,162.076525" id="Fill-1298" fill="#FFFFFF"></path>
                    <path d="M141.508614,156.060998 C141.508614,158.012717 140.994233,159.538558 139.964806,160.639852 C138.936044,161.740481 137.502699,162.290795 135.665434,162.290795 C134.514898,162.290795 133.499445,162.038595 132.620407,161.534861 C131.741368,161.031128 131.065287,160.307135 130.593494,159.363549 C130.121701,158.419963 129.885471,157.319335 129.885471,156.060998 C129.885471,154.102625 130.39719,152.580111 131.419298,151.493457 C132.441405,150.406802 133.878078,149.863808 135.729982,149.863808 C136.880518,149.863808 137.89597,150.114011 138.775009,150.614418 C139.654048,151.114824 140.329464,151.832828 140.801257,152.76976 C141.27305,153.706026 141.508614,154.803327 141.508614,156.060998 L141.508614,156.060998 L141.508614,156.060998 Z M133.220628,156.060998 C133.220628,157.248133 133.415601,158.145139 133.805545,158.75268 C134.194824,159.360222 134.828983,159.66366 135.708022,159.66366 C136.580407,159.66366 137.207246,159.362218 137.589871,158.758004 C137.972495,158.153789 138.163475,157.254787 138.163475,156.060998 C138.163475,154.874529 137.970499,153.984843 137.584547,153.391275 C137.198595,152.798373 136.566433,152.50159 135.686728,152.50159 C134.815009,152.50159 134.185508,152.796377 133.799556,153.385952 C133.413604,153.975527 133.220628,154.867209 133.220628,156.060998 L133.220628,156.060998 L133.220628,156.060998 Z" id="Fill-1299" fill="#FFFFFF"></path>
                    <path d="M160.348392,150.088725 L160.348392,151.75098 L158.471867,152.23342 C158.815231,152.76976 158.986248,153.369982 158.986248,154.03475 C158.986248,155.321701 158.537745,156.323845 157.640739,157.042514 C156.743734,157.761183 155.498041,158.119852 153.90366,158.119852 L153.314085,158.087911 L152.831645,158.034011 C152.495601,158.291534 152.327911,158.577671 152.327911,158.891756 C152.327911,159.363549 152.928133,159.599778 154.129242,159.599778 L156.166802,159.599778 C157.481701,159.599778 158.483845,159.881922 159.1739,160.446876 C159.863956,161.011165 160.208651,161.840961 160.208651,162.93427 C160.208651,164.335009 159.624399,165.421664 158.455896,166.194233 C157.286728,166.966137 155.609168,167.352089 153.421885,167.352089 C151.748983,167.352089 150.471349,167.060628 149.588318,166.477708 C148.705287,165.895453 148.264104,165.078965 148.264104,164.028244 C148.264104,163.306248 148.48902,162.702033 148.939519,162.215601 C149.390018,161.729834 150.050795,161.383142 150.923179,161.175527 C150.587135,161.033124 150.294344,160.798891 150.043475,160.473494 C149.793272,160.148762 149.668835,159.803401 149.668835,159.438743 C149.668835,158.98159 149.800591,158.600961 150.065434,158.296858 C150.330277,157.99342 150.712237,157.69464 151.212643,157.401848 C150.583808,157.129686 150.084732,156.693826 149.717412,156.093604 C149.348096,155.492717 149.165102,154.78536 149.165102,153.970203 C149.165102,152.662625 149.590314,151.650499 150.440739,150.935823 C151.291165,150.221146 152.506913,149.863808 154.086654,149.863808 C154.422033,149.863808 154.821294,149.894418 155.281774,149.954972 C155.742921,150.015527 156.037708,150.060111 156.166802,150.088725 L160.348392,150.088725 L160.348392,150.088725 Z M151.094861,163.770721 C151.094861,164.22122 151.311128,164.574566 151.742994,164.832089 C152.176192,165.089612 152.781738,165.218041 153.560961,165.218041 C154.732791,165.218041 155.651756,165.057006 156.316525,164.735601 C156.981294,164.414196 157.314011,163.974344 157.314011,163.41671 C157.314011,162.966211 157.117043,162.655453 156.723771,162.483771 C156.331165,162.312089 155.723623,162.226913 154.901146,162.226913 L153.20695,162.226913 C152.606728,162.226913 152.104325,162.36732 151.700407,162.650129 C151.296488,162.932274 151.094861,163.306248 151.094861,163.770721 L151.094861,163.770721 L151.094861,163.770721 Z M152.285323,154.013457 C152.285323,154.663586 152.43305,155.178632 152.729834,155.557264 C153.026617,155.935896 153.479113,156.125545 154.086654,156.125545 C154.70085,156.125545 155.151349,155.935896 155.437486,155.557264 C155.723623,155.178632 155.866026,154.663586 155.866026,154.013457 C155.866026,152.569464 155.273124,151.847468 154.086654,151.847468 C152.885545,151.847468 152.285323,152.569464 152.285323,154.013457 L152.285323,154.013457 L152.285323,154.013457 Z" id="Fill-1300" fill="#FFFFFF"></path>
                    <path d="M162.16037,145.392754 L165.43098,145.392754 L165.43098,162.076525 L162.16037,162.076525 L162.16037,145.392754 L162.16037,145.392754 Z" id="Fill-1301" fill="#FFFFFF"></path>
                    <path d="M177.062107,162.076525 L176.622921,160.543364 L176.451238,160.543364 C176.10122,161.100998 175.60414,161.531534 174.960665,161.835638 C174.31719,162.139076 173.584547,162.290795 172.762736,162.290795 C171.354677,162.290795 170.293309,161.914159 169.577967,161.159556 C168.86329,160.405619 168.505952,159.320961 168.505952,157.905582 L168.505952,150.088725 L171.776562,150.088725 L171.776562,157.090425 C171.776562,157.95549 171.930277,158.604288 172.237043,159.036821 C172.544473,159.469353 173.034233,159.685619 173.706322,159.685619 C174.621294,159.685619 175.28207,159.379519 175.689982,158.768651 C176.097227,158.157116 176.30085,157.144325 176.30085,155.728946 L176.30085,150.088725 L179.57146,150.088725 L179.57146,162.076525 L177.062107,162.076525" id="Fill-1302" fill="#FFFFFF"></path>
                    <path d="M187.688429,162.290795 C183.956673,162.290795 182.09146,160.243253 182.09146,156.146839 C182.09146,154.109945 182.598521,152.553494 183.613974,151.477486 C184.628762,150.402144 186.083401,149.863808 187.977893,149.863808 C189.363993,149.863808 190.607689,150.135305 191.708983,150.678965 L190.744104,153.208946 C190.229723,153.001996 189.749945,152.832311 189.306765,152.699889 C188.864251,152.567468 188.420407,152.50159 187.977893,152.50159 C186.276377,152.50159 185.425952,153.709353 185.425952,156.125545 C185.425952,158.470536 186.276377,159.642366 187.977893,159.642366 C188.606728,159.642366 189.189649,159.558521 189.725323,159.390832 C190.261664,159.222477 190.798004,158.95963 191.333678,158.602292 L191.333678,161.401109 C190.804658,161.737153 190.270314,161.96939 189.730647,162.097819 C189.19098,162.226913 188.51024,162.290795 187.688429,162.290795" id="Fill-1303" fill="#FFFFFF"></path>
                    <path d="M201.560739,162.076525 L200.928577,160.446876 L200.842736,160.446876 C200.292421,161.140259 199.726137,161.620702 199.143216,161.888872 C198.560961,162.157043 197.801035,162.290795 196.864769,162.290795 C195.713567,162.290795 194.807911,161.96207 194.14647,161.304621 C193.485693,160.647172 193.154972,159.71024 193.154972,158.495157 C193.154972,157.222847 193.600148,156.284584 194.489834,155.681035 C195.380185,155.076821 196.721701,154.742773 198.515712,154.678226 L200.596525,154.613678 L200.596525,154.088651 C200.596525,152.872902 199.974344,152.26536 198.729982,152.26536 C197.772421,152.26536 196.647172,152.554824 195.352902,153.134418 L194.269575,150.925176 C195.649686,150.203179 197.178854,149.842514 198.859076,149.842514 C200.467431,149.842514 201.700481,150.192532 202.558226,150.893235 C203.41597,151.593272 203.845176,152.658632 203.845176,154.088651 L203.845176,162.076525 L201.560739,162.076525 L201.560739,162.076525 Z M200.596525,156.522144 L199.330869,156.565397 C198.380628,156.594011 197.672606,156.765028 197.208133,157.079778 C196.74366,157.394529 196.510758,157.873641 196.510758,158.516451 C196.510758,159.438743 197.039778,159.899889 198.097819,159.899889 C198.855749,159.899889 199.461294,159.681627 199.91512,159.245767 C200.368946,158.809908 200.596525,158.23098 200.596525,157.508983 L200.596525,156.522144 L200.596525,156.522144 Z" id="Fill-1304" fill="#FFFFFF"></path>
                    <path d="M217.451312,150.088725 L217.451312,151.75098 L215.574787,152.23342 C215.918152,152.76976 216.089834,153.369982 216.089834,154.03475 C216.089834,155.321701 215.641331,156.323845 214.74366,157.042514 C213.846654,157.761183 212.601627,158.119852 211.007246,158.119852 L210.417671,158.087911 L209.935231,158.034011 C209.599187,158.291534 209.431497,158.577671 209.431497,158.891756 C209.431497,159.363549 210.031719,159.599778 211.232828,159.599778 L213.269723,159.599778 C214.585287,159.599778 215.587431,159.881922 216.277486,160.446876 C216.966876,161.011165 217.312237,161.840961 217.312237,162.93427 C217.312237,164.335009 216.72732,165.421664 215.558817,166.194233 C214.390314,166.966137 212.712089,167.352089 210.524806,167.352089 C208.851904,167.352089 207.57427,167.060628 206.691238,166.477708 C205.808872,165.895453 205.367689,165.078965 205.367689,164.028244 C205.367689,163.306248 205.592606,162.702033 206.043105,162.215601 C206.492939,161.729834 207.154381,161.383142 208.026765,161.175527 C207.690055,161.033124 207.397264,160.798891 207.147061,160.473494 C206.896858,160.148762 206.771756,159.803401 206.771756,159.438743 C206.771756,158.98159 206.904177,158.600961 207.168355,158.296858 C207.433198,157.99342 207.815823,157.69464 208.316229,157.401848 C207.686728,157.129686 207.187652,156.693826 206.820333,156.093604 C206.451682,155.492717 206.268022,154.78536 206.268022,153.970203 C206.268022,152.662625 206.693235,151.650499 207.544325,150.935823 C208.39475,150.221146 209.609834,149.863808 211.189575,149.863808 C211.525619,149.863808 211.924214,149.894418 212.384695,149.954972 C212.845841,150.015527 213.141294,150.060111 213.269723,150.088725 L217.451312,150.088725 L217.451312,150.088725 Z M208.197782,163.770721 C208.197782,164.22122 208.414048,164.574566 208.84658,164.832089 C209.279113,165.089612 209.884658,165.218041 210.664547,165.218041 C211.836377,165.218041 212.755342,165.057006 213.420111,164.735601 C214.08488,164.414196 214.416932,163.974344 214.416932,163.41671 C214.416932,162.966211 214.220628,162.655453 213.827357,162.483771 C213.434085,162.312089 212.826543,162.226913 212.004732,162.226913 L210.310536,162.226913 C209.709649,162.226913 209.207911,162.36732 208.803993,162.650129 C208.400074,162.932274 208.197782,163.306248 208.197782,163.770721 L208.197782,163.770721 L208.197782,163.770721 Z M209.388244,154.013457 C209.388244,154.663586 209.536636,155.178632 209.83342,155.557264 C210.129538,155.935896 210.582033,156.125545 211.189575,156.125545 C211.804436,156.125545 212.254935,155.935896 212.540407,155.557264 C212.826543,155.178632 212.969612,154.663586 212.969612,154.013457 C212.969612,152.569464 212.376044,151.847468 211.189575,151.847468 C209.988466,151.847468 209.388244,152.569464 209.388244,154.013457 L209.388244,154.013457 L209.388244,154.013457 Z" id="Fill-1305" fill="#FFFFFF"></path>
                    <path d="M230.022033,156.060998 C230.022033,158.012717 229.506987,159.538558 228.478226,160.639852 C227.448799,161.740481 226.014787,162.290795 224.178189,162.290795 C223.027652,162.290795 222.0122,162.038595 221.133161,161.534861 C220.254122,161.031128 219.578706,160.307135 219.106913,159.363549 C218.63512,158.419963 218.398891,157.319335 218.398891,156.060998 C218.398891,154.102625 218.909945,152.580111 219.932052,151.493457 C220.954159,150.406802 222.391497,149.863808 224.24207,149.863808 C225.393272,149.863808 226.408725,150.114011 227.287098,150.614418 C228.166802,151.114824 228.842218,151.832828 229.314011,152.76976 C229.785804,153.706026 230.022033,154.803327 230.022033,156.060998 L230.022033,156.060998 L230.022033,156.060998 Z M221.733383,156.060998 C221.733383,157.248133 221.928355,158.145139 222.318299,158.75268 C222.707579,159.360222 223.341738,159.66366 224.221442,159.66366 C225.093161,159.66366 225.72,159.362218 226.102625,158.758004 C226.484584,158.153789 226.676895,157.254787 226.676895,156.060998 C226.676895,154.874529 226.483253,153.984843 226.097301,153.391275 C225.711349,152.798373 225.079187,152.50159 224.199482,152.50159 C223.327763,152.50159 222.698262,152.796377 222.312311,153.385952 C221.926359,153.975527 221.733383,154.867209 221.733383,156.060998 L221.733383,156.060998 L221.733383,156.060998 Z" id="Fill-1306" fill="#FFFFFF"></path>
                    <path d="M243.560961,162.076525 L240.291017,162.076525 L240.291017,155.074824 C240.291017,154.20976 240.137301,153.561627 239.829205,153.129094 C239.521774,152.696562 239.03268,152.480296 238.360591,152.480296 C237.445619,152.480296 236.784177,152.78573 236.376932,153.396599 C235.96902,154.008133 235.766063,155.020924 235.766063,156.436303 L235.766063,162.076525 L232.495453,162.076525 L232.495453,150.088725 L234.994159,150.088725 L235.433346,151.621885 L235.615675,151.621885 C235.980333,151.042957 236.48207,150.605767 237.122218,150.308318 C237.761701,150.0122 238.48902,149.863808 239.304177,149.863808 C240.698262,149.863808 241.756303,150.241109 242.478299,150.995046 C243.200296,151.748983 243.560961,152.837634 243.560961,154.259667 L243.560961,162.076525" id="Fill-1307" fill="#FFFFFF"></path>
                    <path d="M149.381368,417.707135 C149.889094,417.707135 150.307652,417.742403 150.636377,417.81427 L150.390166,420.162588 C150.032163,420.076747 149.66085,420.033494 149.274898,420.033494 C148.266765,420.033494 147.450277,420.362218 146.824769,421.020333 C146.199261,421.677782 145.886506,422.5322 145.886506,423.582921 L145.886506,429.780111 L143.366506,429.780111 L143.366506,417.921405 L145.339519,417.921405 L145.672237,420.0122 L145.800665,420.0122 C146.193272,419.304843 146.706987,418.743216 147.33915,418.328651 C147.971978,417.914085 148.652717,417.707135 149.381368,417.707135" id="Fill-1316" fill="#FFFFFF"></path>
                    <path d="M157.737227,429.995046 C155.892643,429.995046 154.449982,429.45671 153.410573,428.381368 C152.370499,427.30536 151.850129,425.824104 151.850129,423.936932 C151.850129,421.999187 152.333235,420.476673 153.297449,419.368725 C154.262994,418.260776 155.58854,417.707135 157.276081,417.707135 C158.841183,417.707135 160.078226,418.182255 160.985878,419.133161 C161.89353,420.083401 162.347357,421.391645 162.347357,423.057227 L162.347357,424.419372 L154.445323,424.419372 C154.480591,425.569908 154.791349,426.454935 155.378262,427.073124 C155.963845,427.691312 156.789649,428.000074 157.855009,428.000074 C158.555046,428.000074 159.207837,427.934196 159.811386,427.80244 C160.415601,427.670018 161.064399,427.44976 161.757782,427.142329 L161.757782,429.190536 C161.142921,429.483993 160.521405,429.690943 159.891904,429.812717 C159.263068,429.933826 158.544399,429.995046 157.737227,429.995046 L157.737227,429.995046 L157.737227,429.995046 Z M157.276081,419.615601 C156.474898,419.615601 155.834085,419.869131 155.35098,420.376858 C154.86854,420.884584 154.581072,421.623882 154.487911,422.596081 L159.87061,422.596081 C159.856636,421.617227 159.620407,420.875268 159.163253,420.371534 C158.705434,419.8678 158.076599,419.615601 157.276081,419.615601 L157.276081,419.615601 L157.276081,419.615601 Z" id="Fill-1317" fill="#FFFFFF"></path>
                    <path d="M171.07586,429.995046 C169.57464,429.995046 168.409464,429.455379 167.580998,428.375379 L167.429945,428.375379 C167.530425,429.376192 167.580998,429.983734 167.580998,430.198669 L167.580998,435.055675 L165.060998,435.055675 L165.060998,417.921405 L167.097893,417.921405 C167.15512,418.142994 167.272902,418.672015 167.452569,419.508466 L167.580998,419.508466 C168.366876,418.307357 169.546026,417.707135 171.118447,417.707135 C172.599039,417.707135 173.750906,418.24281 174.577375,419.31549 C175.402514,420.387505 175.815749,421.892052 175.815749,423.829131 C175.815749,425.766876 175.395194,427.278078 174.555416,428.364732 C173.715638,429.451386 172.555786,429.995046 171.07586,429.995046 L171.07586,429.995046 L171.07586,429.995046 Z M170.464991,419.765323 C169.464177,419.765323 168.732865,420.05878 168.272384,420.645028 C167.811238,421.231275 167.580998,422.167542 167.580998,423.453826 L167.580998,423.829131 C167.580998,425.273124 167.809242,426.319187 168.267061,426.965989 C168.724214,427.612791 169.471497,427.936192 170.507579,427.936192 C171.379963,427.936192 172.052052,427.578854 172.523845,426.863512 C172.995638,426.148835 173.231201,425.130721 173.231201,423.807837 C173.231201,422.478299 172.997634,421.472163 172.528503,420.790092 C172.060702,420.107357 171.372643,419.765323 170.464991,419.765323 L170.464991,419.765323 L170.464991,419.765323 Z" id="Fill-1318" fill="#FFFFFF"></path>
                    <path d="M178.579963,413.09634 L181.099963,413.09634 L181.099963,429.780111 L178.579963,429.780111 L178.579963,413.09634 L178.579963,413.09634 Z" id="Fill-1319" fill="#FFFFFF"></path>
                    <path d="M191.835416,429.780111 L191.331017,428.129168 L191.245176,428.129168 C190.673567,428.851165 190.098632,429.342921 189.519704,429.603771 C188.940776,429.863956 188.196821,429.995046 187.289168,429.995046 C186.123993,429.995046 185.214344,429.680296 184.560887,429.05146 C183.9061,428.421959 183.579372,427.532274 183.579372,426.381072 C183.579372,425.158669 184.033198,424.237043 184.94085,423.614861 C185.848503,422.993346 187.231941,422.653309 189.090499,422.596081 L191.138706,422.5322 L191.138706,421.899372 C191.138706,421.141442 190.961701,420.575157 190.607689,420.199852 C190.253678,419.824547 189.70536,419.636895 188.96207,419.636895 C188.354529,419.636895 187.771608,419.726063 187.213974,419.905065 C186.65634,420.083401 186.120665,420.294344 185.606285,420.537893 L184.791128,418.736562 C185.434603,418.400518 186.138632,418.144991 186.903216,417.969316 C187.6678,417.794307 188.389797,417.707135 189.069205,417.707135 C190.577745,417.707135 191.715638,418.03586 192.484214,418.693309 C193.252791,419.350758 193.636747,420.384177 193.636747,421.792237 L193.636747,429.780111 L191.835416,429.780111 L191.835416,429.780111 Z M188.082366,428.064621 C188.997338,428.064621 189.731978,427.809094 190.286285,427.298041 C190.839926,426.786987 191.116747,426.070314 191.116747,425.148022 L191.116747,424.118595 L189.594898,424.183142 C188.407763,424.226396 187.544695,424.42403 187.005028,424.778706 C186.46536,425.132052 186.19586,425.673715 186.19586,426.403031 C186.19586,426.931386 186.352902,427.340628 186.667652,427.630758 C186.981738,427.919556 187.45353,428.064621 188.082366,428.064621 L188.082366,428.064621 L188.082366,428.064621 Z" id="Fill-1320" fill="#FFFFFF"></path>
                    <path d="M201.75305,429.995046 C199.959039,429.995046 198.595564,429.471349 197.662625,428.423956 C196.730351,427.376562 196.263216,425.874011 196.263216,423.914972 C196.263216,421.920665 196.751645,420.387505 197.727172,419.31549 C198.702699,418.24281 200.112754,417.707135 201.956673,417.707135 C203.207689,417.707135 204.333604,417.939372 205.334418,418.403845 L204.573161,420.430758 C203.5078,420.015527 202.628762,419.808577 201.936044,419.808577 C199.883845,419.808577 198.85841,421.170055 198.85841,423.893678 C198.85841,425.223216 199.113937,426.222699 199.624991,426.890129 C200.136044,427.558891 200.884658,427.892939 201.870832,427.892939 C202.99342,427.892939 204.054787,427.614122 205.055601,427.057153 L205.055601,429.255083 C204.605767,429.519261 204.124658,429.708909 203.613604,429.823364 C203.102551,429.937819 202.482366,429.995046 201.75305,429.995046" id="Fill-1321" fill="#FFFFFF"></path>
                    <path d="M212.664843,429.995046 C210.820259,429.995046 209.377597,429.45671 208.338189,428.381368 C207.297449,427.30536 206.777745,425.824104 206.777745,423.936932 C206.777745,421.999187 207.26085,420.476673 208.225065,419.368725 C209.19061,418.260776 210.516155,417.707135 212.203697,417.707135 C213.768799,417.707135 215.005176,418.182255 215.913494,419.133161 C216.821146,420.083401 217.274972,421.391645 217.274972,423.057227 L217.274972,424.419372 L209.372939,424.419372 C209.408207,425.569908 209.718965,426.454935 210.305878,427.073124 C210.89146,427.691312 211.717264,428.000074 212.782625,428.000074 C213.482662,428.000074 214.135453,427.934196 214.739002,427.80244 C215.343216,427.670018 215.992015,427.44976 216.685397,427.142329 L216.685397,429.190536 C216.070536,429.483993 215.448355,429.690943 214.819519,429.812717 C214.190684,429.933826 213.472015,429.995046 212.664843,429.995046 L212.664843,429.995046 L212.664843,429.995046 Z M212.203697,419.615601 C211.402514,419.615601 210.761701,419.869131 210.278595,420.376858 C209.796155,420.884584 209.508688,421.623882 209.415527,422.596081 L214.798226,422.596081 C214.783586,421.617227 214.548022,420.875268 214.090203,420.371534 C213.63305,419.8678 213.004214,419.615601 212.203697,419.615601 L212.203697,419.615601 L212.203697,419.615601 Z" id="Fill-1322" fill="#FFFFFF"></path>
                    <path d="M285.314307,446.825213 C285.314307,448.313789 282.948022,451.643623 280.032754,451.643623 L79.8680961,451.658262 C76.9508318,451.658262 74.5872089,448.329094 74.5872089,446.839852 L74.5872089,399.190092 C74.5872089,397.699519 76.9508318,393.945804 79.8680961,393.945804 L280.032754,393.929168 C282.948022,393.929168 285.314307,397.682884 285.314307,399.174787 L285.314307,446.825213 L285.314307,446.825213 Z" id="Stroke-1323" stroke="#FFFFFF" stroke-width="2.552"></path>
                    <path d="M141.947135,340.832163 C145.710832,340.832163 148.445767,343.579076 148.445767,347.326137 L148.445767,350.10366 C148.445767,353.86403 145.710832,356.834529 141.947135,356.834529 C138.120887,356.834529 135.330721,353.86403 135.330721,350.10366 L135.330721,347.326137 C135.330721,343.579076 138.120887,340.832163 141.947135,340.832163 L141.947135,340.832163 L141.947135,340.832163 Z M135.465804,262.92244 C135.330721,260.408429 137.116747,258.448725 139.492348,258.448725 L144.266839,258.448725 C146.818115,258.448725 148.445767,260.408429 148.385213,262.92244 L145.133235,325.95305 C144.996821,327.715786 143.635342,329.141811 141.947135,329.141811 C140.143142,329.141811 138.698484,327.715786 138.615305,325.95305 L135.465804,262.92244 L135.465804,262.92244 Z" id="Fill-1324" fill="#FFFFFF"></path>
                    <path d="M192.870166,359.534196 L192.870166,295.177375 C192.870166,292.168946 192.976636,287.818336 201.534787,287.818336 L216.384621,287.818336 C224.665287,287.818336 224.17353,292.168946 224.17353,295.177375 L224.17353,359.534196 L192.870166,359.534196" id="Fill-1325" fill="#FFFFFF"></path>
                    <path d="M192.870166,285.165915 L192.870166,265.6261 C192.870166,262.61634 192.627948,257.83719 201.534787,257.83719 L216.384621,257.83719 C223.967246,257.83719 224.17353,262.61634 224.17353,265.6261 L224.570795,285.165915 L192.870166,285.165915" id="Fill-1326" fill="#231F1F"></path>
                    <path d="M192.870166,285.165915 L192.870166,265.6261 C192.870166,262.61634 192.627948,257.83719 201.534787,257.83719 L216.384621,257.83719 C223.967246,257.83719 224.17353,262.61634 224.17353,265.6261 L224.570795,285.165915 L192.870166,285.165915" id="Fill-1327" fill="#FFFFFF"></path>
                    <path d="M214.334418,271.010795 L209.575896,271.010795 C208.965028,271.010795 208.465287,271.512532 208.465287,272.128725 C208.465287,272.737597 208.965028,273.229353 209.575896,273.229353 L213.185213,273.229353 L213.185213,276.3722 C212.141146,277.174713 210.663882,277.668466 209.280444,277.668466 C205.994529,277.668466 203.786617,275.342773 203.786617,271.843253 C203.786617,268.64451 206.097006,266.137819 209.048872,266.137819 C210.954677,266.137819 212.039335,266.749353 212.91305,267.393494 C213.77146,268.119482 214.864104,267.416784 214.864104,266.499815 C214.864104,266.140481 214.69841,265.809094 214.365028,265.528946 C212.765323,264.370425 211.198891,263.876007 209.123401,263.876007 C204.754824,263.876007 201.334492,267.393494 201.334492,271.927763 C201.334492,276.611756 204.573826,279.884362 209.217227,279.884362 C211.743882,279.884362 213.646359,278.865582 214.774935,278.025139 C215.236081,277.727024 215.500924,277.253235 215.500924,276.723549 L215.500924,272.220555 C215.500924,271.553124 214.978558,271.010795 214.334418,271.010795" id="Fill-1328" fill="#000000"></path>
                </g>
            </g>
        </g>
    </g>
</svg>