<?xml version="1.0" encoding="UTF-8" standalone="no"?>
<svg width="360px" height="591px" viewBox="0 0 360 591" version="1.1" xmlns="http://www.w3.org/2000/svg" xmlns:xlink="http://www.w3.org/1999/xlink" xmlns:sketch="http://www.bohemiancoding.com/sketch/ns">
    <!-- Generator: Sketch 3.3 (11970) - http://www.bohemiancoding.com/sketch -->
    <title>noInsulinAlert</title>
    <desc>Created with Sketch.</desc>
    <defs></defs>
    <g id="Page-1" stroke="none" stroke-width="1" fill="none" fill-rule="evenodd" sketch:type="MSPage">
        <g id="noInsulinAlert" sketch:type="MSLayerGroup">
            <g id="Page-1" sketch:type="MSShapeGroup">
                <g id="noInsulinAlert">
                    <path d="M0.385951941,0.443179298 L359.720518,0.443179298 L359.720518,590.683475 L0.385951941,590.683475 L0.385951941,0.443179298 L0.385951941,0.443179298 Z" id="Fill-1277" fill="#000000"></path>
                    <path d="M33.9597782,68.5111275 L32.3314603,66.8828096 L40.9548244,58.25878 L32.3707209,49.6760074 L33.9997043,48.047024 L42.5831423,56.6304621 L51.165915,48.047024 L52.7955638,49.6773383 L44.2114603,58.25878 L52.8348244,66.8828096 L51.2065065,68.5111275 L42.5831423,59.8884288 L33.9597782,68.5111275" id="Fill-1282" fill="#FFFFFF"></path>
                    <path d="M139.68732,162.076525 L136.41671,162.076525 L136.41671,155.074824 C136.41671,154.20976 136.262994,153.561627 135.956229,153.129094 C135.648799,152.696562 135.158373,152.480296 134.48695,152.480296 C133.571978,152.480296 132.910536,152.78573 132.50329,153.396599 C132.096044,154.008133 131.891756,155.020924 131.891756,156.436303 L131.891756,162.076525 L128.621811,162.076525 L128.621811,150.088725 L131.119852,150.088725 L131.559704,151.621885 L131.742033,151.621885 C132.106026,151.042957 132.608429,150.605767 133.248577,150.308318 C133.888059,150.0122 134.615379,149.863808 135.429871,149.863808 C136.823956,149.863808 137.881996,150.241109 138.603993,150.995046 C139.325989,151.748983 139.68732,152.837634 139.68732,154.259667 L139.68732,162.076525" id="Fill-1283" fill="#FFFFFF"></path>
                    <path d="M153.725989,156.060998 C153.725989,158.012717 153.210943,159.538558 152.181516,160.639852 C151.152089,161.740481 149.719409,162.290795 147.882144,162.290795 C146.731608,162.290795 145.716155,162.038595 144.837116,161.534861 C143.958078,161.031128 143.281996,160.307135 142.810203,159.363549 C142.33841,158.419963 142.102847,157.319335 142.102847,156.060998 C142.102847,154.102625 142.6139,152.580111 143.636673,151.493457 C144.65878,150.406802 146.095453,149.863808 147.946691,149.863808 C149.097893,149.863808 150.11268,150.114011 150.991719,150.614418 C151.871423,151.114824 152.546174,151.832828 153.017967,152.76976 C153.48976,153.706026 153.725989,154.803327 153.725989,156.060998 L153.725989,156.060998 L153.725989,156.060998 Z M145.438004,156.060998 C145.438004,157.248133 145.632311,158.145139 146.02159,158.75268 C146.410869,159.360222 147.046359,159.66366 147.925397,159.66366 C148.797116,159.66366 149.424621,159.362218 149.80658,158.758004 C150.189205,158.153789 150.380185,157.254787 150.380185,156.060998 C150.380185,154.874529 150.187209,153.984843 149.801257,153.391275 C149.415305,152.798373 148.783142,152.50159 147.904104,152.50159 C147.031719,152.50159 146.402884,152.796377 146.016932,153.385952 C145.63098,153.975527 145.438004,154.867209 145.438004,156.060998 L145.438004,156.060998 L145.438004,156.060998 Z" id="Fill-1284" fill="#FFFFFF"></path>
                    <path d="M161.99268,146.990462 C161.99268,145.925102 162.586248,145.392754 163.772717,145.392754 C164.959187,145.392754 165.552754,145.925102 165.552754,146.990462 C165.552754,147.497523 165.403697,147.892791 165.107579,148.174935 C164.810795,148.457745 164.366285,148.598817 163.772717,148.598817 C162.586248,148.598817 161.99268,148.062477 161.99268,146.990462 L161.99268,146.990462 L161.99268,146.990462 Z M162.131756,150.088725 L165.402366,150.088725 L165.402366,162.076525 L162.131756,162.076525 L162.131756,150.088725 L162.131756,150.088725 Z" id="Fill-1285" fill="#FFFFFF"></path>
                    <path d="M179.600074,162.076525 L176.330129,162.076525 L176.330129,155.074824 C176.330129,154.20976 176.176414,153.561627 175.868983,153.129094 C175.561553,152.696562 175.072458,152.480296 174.40037,152.480296 C173.485397,152.480296 172.823956,152.78573 172.41671,153.396599 C172.008799,154.008133 171.805841,155.020924 171.805841,156.436303 L171.805841,162.076525 L168.535231,162.076525 L168.535231,150.088725 L171.033272,150.088725 L171.473124,151.621885 L171.655453,151.621885 C172.020111,151.042957 172.521848,150.605767 173.161996,150.308318 C173.801479,150.0122 174.528799,149.863808 175.343956,149.863808 C176.738041,149.863808 177.795416,150.241109 178.517412,150.995046 C179.239409,151.748983 179.600074,152.837634 179.600074,154.259667 L179.600074,162.076525" id="Fill-1286" fill="#FFFFFF"></path>
                    <path d="M191.214566,158.516451 C191.214566,159.746174 190.787357,160.68244 189.932939,161.325915 C189.079187,161.96939 187.801553,162.290795 186.100037,162.290795 C185.227652,162.290795 184.484362,162.231571 183.869501,162.114455 C183.255305,161.996007 182.679039,161.822994 182.143364,161.594085 L182.143364,158.891756 C182.750906,159.177893 183.434972,159.417449 184.196895,159.610425 C184.957486,159.803401 185.628244,159.899889 186.207172,159.899889 C187.393641,159.899889 187.987209,159.556525 187.987209,158.870462 C187.987209,158.612939 187.908688,158.403993 187.75098,158.242957 C187.593937,158.082588 187.32244,157.900259 186.936488,157.696636 C186.550536,157.492348 186.03549,157.254787 185.39268,156.98329 C184.470388,156.597338 183.792311,156.24 183.360444,155.911275 C182.927246,155.582551 182.613161,155.20525 182.416858,154.780037 C182.219889,154.354824 182.121405,153.831128 182.121405,153.208946 C182.121405,152.144251 182.53464,151.320444 183.360444,150.737523 C184.185582,150.155268 185.356747,149.863808 186.871941,149.863808 C188.315933,149.863808 189.72,150.178558 191.085471,150.807394 L190.099298,153.166359 C189.49841,152.908835 188.938115,152.697893 188.415749,152.53353 C187.894048,152.369168 187.361035,152.28732 186.818041,152.28732 C185.853161,152.28732 185.370721,152.54817 185.370721,153.069871 C185.370721,153.362662 185.526433,153.616858 185.836525,153.831128 C186.147948,154.045397 186.829353,154.363475 187.880074,154.78536 C188.81634,155.163993 189.502403,155.518004 189.938928,155.846728 C190.374787,156.175453 190.696192,156.55475 190.903808,156.98329 C191.110758,157.412495 191.214566,157.923549 191.214566,158.516451" id="Fill-1287" fill="#FFFFFF"></path>
                    <path d="M202.056488,162.076525 L201.616636,160.543364 L201.445619,160.543364 C201.094935,161.100998 200.597856,161.531534 199.954381,161.835638 C199.311571,162.139076 198.578928,162.290795 197.757116,162.290795 C196.348392,162.290795 195.287024,161.914159 194.571682,161.159556 C193.857006,160.405619 193.499667,159.320961 193.499667,157.905582 L193.499667,150.088725 L196.770277,150.088725 L196.770277,157.090425 C196.770277,157.95549 196.923993,158.604288 197.231423,159.036821 C197.538189,159.469353 198.028614,159.685619 198.700702,159.685619 C199.615675,159.685619 200.276451,159.379519 200.683697,158.768651 C201.090943,158.157116 201.295231,157.144325 201.295231,155.728946 L201.295231,150.088725 L204.565176,150.088725 L204.565176,162.076525 L202.056488,162.076525" id="Fill-1288" fill="#FFFFFF"></path>
                    <path d="M207.678078,145.392754 L210.948688,145.392754 L210.948688,162.076525 L207.678078,162.076525 L207.678078,145.392754 L207.678078,145.392754 Z" id="Fill-1289" fill="#FFFFFF"></path>
                    <path d="M213.941811,146.990462 C213.941811,145.925102 214.534713,145.392754 215.721848,145.392754 C216.908318,145.392754 217.50122,145.925102 217.50122,146.990462 C217.50122,147.497523 217.352828,147.892791 217.056044,148.174935 C216.759261,148.457745 216.31475,148.598817 215.721848,148.598817 C214.534713,148.598817 213.941811,148.062477 213.941811,146.990462 L213.941811,146.990462 L213.941811,146.990462 Z M214.080887,150.088725 L217.351497,150.088725 L217.351497,162.076525 L214.080887,162.076525 L214.080887,150.088725 L214.080887,150.088725 Z" id="Fill-1290" fill="#FFFFFF"></path>
                    <path d="M231.549205,162.076525 L228.279261,162.076525 L228.279261,155.074824 C228.279261,154.20976 228.12488,153.561627 227.817449,153.129094 C227.510018,152.696562 227.020924,152.480296 226.348835,152.480296 C225.433863,152.480296 224.772421,152.78573 224.365176,153.396599 C223.95793,154.008133 223.754307,155.020924 223.754307,156.436303 L223.754307,162.076525 L220.483697,162.076525 L220.483697,150.088725 L222.982403,150.088725 L223.42159,151.621885 L223.603919,151.621885 C223.968577,151.042957 224.470314,150.605767 225.110462,150.308318 C225.749945,150.0122 226.47793,149.863808 227.292421,149.863808 C228.686506,149.863808 229.744547,150.241109 230.466543,150.995046 C231.18854,151.748983 231.549205,152.837634 231.549205,154.259667 L231.549205,162.076525" id="Fill-1291" fill="#FFFFFF"></path>
                    <path d="M149.48451,417.707135 C149.991571,417.707135 150.410129,417.742403 150.738854,417.81427 L150.492643,420.162588 C150.13464,420.076747 149.763993,420.033494 149.377375,420.033494 C148.369242,420.033494 147.552754,420.362218 146.927246,421.020333 C146.301738,421.677782 145.989649,422.5322 145.989649,423.582921 L145.989649,429.780111 L143.469649,429.780111 L143.469649,417.921405 L145.441996,417.921405 L145.774713,420.0122 L145.903808,420.0122 C146.296414,419.304843 146.809464,418.743216 147.441627,418.328651 C148.074455,417.914085 148.755194,417.707135 149.48451,417.707135" id="Fill-1308" fill="#FFFFFF"></path>
                    <path d="M157.839704,429.995046 C155.995786,429.995046 154.553124,429.45671 153.51305,428.381368 C152.472976,427.30536 151.953272,425.824104 151.953272,423.936932 C151.953272,421.999187 152.435712,420.476673 153.399926,419.368725 C154.366137,418.260776 155.691682,417.707135 157.378558,417.707135 C158.94366,417.707135 160.180702,418.182255 161.088355,419.133161 C161.996007,420.083401 162.449834,421.391645 162.449834,423.057227 L162.449834,424.419372 L154.5478,424.419372 C154.583734,425.569908 154.893826,426.454935 155.480739,427.073124 C156.066322,427.691312 156.892126,428.000074 157.957486,428.000074 C158.658189,428.000074 159.310314,427.934196 159.913863,427.80244 C160.518743,427.670018 161.166876,427.44976 161.860259,427.142329 L161.860259,429.190536 C161.245397,429.483993 160.623882,429.690943 159.995046,429.812717 C159.365545,429.933826 158.646876,429.995046 157.839704,429.995046 L157.839704,429.995046 L157.839704,429.995046 Z M157.378558,419.615601 C156.578041,419.615601 155.936562,419.869131 155.453457,420.376858 C154.971682,420.884584 154.683549,421.623882 154.590388,422.596081 L159.973087,422.596081 C159.959113,421.617227 159.722884,420.875268 159.26573,420.371534 C158.807911,419.8678 158.179076,419.615601 157.378558,419.615601 L157.378558,419.615601 L157.378558,419.615601 Z" id="Fill-1309" fill="#FFFFFF"></path>
                    <path d="M171.178336,429.995046 C169.677116,429.995046 168.511941,429.455379 167.683475,428.375379 L167.533087,428.375379 C167.632902,429.376192 167.683475,429.983734 167.683475,430.198669 L167.683475,435.055675 L165.163475,435.055675 L165.163475,417.921405 L167.201035,417.921405 C167.258262,418.142994 167.375379,418.672015 167.555046,419.508466 L167.683475,419.508466 C168.469353,418.307357 169.648503,417.707135 171.22159,417.707135 C172.701516,417.707135 173.854048,418.24281 174.679852,419.31549 C175.504991,420.387505 175.918226,421.892052 175.918226,423.829131 C175.918226,425.766876 175.497671,427.278078 174.658558,428.364732 C173.818115,429.451386 172.658928,429.995046 171.178336,429.995046 L171.178336,429.995046 L171.178336,429.995046 Z M170.567468,419.765323 C169.566654,419.765323 168.836007,420.05878 168.374861,420.645028 C167.913715,421.231275 167.683475,422.167542 167.683475,423.453826 L167.683475,423.829131 C167.683475,425.273124 167.911719,426.319187 168.369538,426.965989 C168.826691,427.612791 169.573974,427.936192 170.610721,427.936192 C171.48244,427.936192 172.154529,427.578854 172.626322,426.863512 C173.098115,426.148835 173.333678,425.130721 173.333678,423.807837 C173.333678,422.478299 173.100111,421.472163 172.631645,420.790092 C172.163845,420.107357 171.47512,419.765323 170.567468,419.765323 L170.567468,419.765323 L170.567468,419.765323 Z" id="Fill-1310" fill="#FFFFFF"></path>
                    <path d="M178.683105,413.09634 L181.203105,413.09634 L181.203105,429.780111 L178.683105,429.780111 L178.683105,413.09634 L178.683105,413.09634 Z" id="Fill-1311" fill="#FFFFFF"></path>
                    <path d="M191.937893,429.780111 L191.434159,428.129168 L191.348318,428.129168 C190.776044,428.851165 190.201109,429.342921 189.622181,429.603771 C189.043253,429.863956 188.299963,429.995046 187.391645,429.995046 C186.22647,429.995046 185.316821,429.680296 184.663364,429.05146 C184.008577,428.421959 183.681848,427.532274 183.681848,426.381072 C183.681848,425.158669 184.135675,424.237043 185.043327,423.614861 C185.95098,422.993346 187.334418,422.653309 189.192976,422.596081 L191.241848,422.5322 L191.241848,421.899372 C191.241848,421.141442 191.064177,420.575157 190.710832,420.199852 C190.356155,419.824547 189.807837,419.636895 189.064547,419.636895 C188.457006,419.636895 187.874085,419.726063 187.316451,419.905065 C186.758817,420.083401 186.223808,420.294344 185.708762,420.537893 L184.893604,418.736562 C185.537079,418.400518 186.241109,418.144991 187.005693,417.969316 C187.770943,417.794307 188.492939,417.707135 189.171682,417.707135 C190.680222,417.707135 191.81878,418.03586 192.586691,418.693309 C193.355268,419.350758 193.739224,420.384177 193.739224,421.792237 L193.739224,429.780111 L191.937893,429.780111 L191.937893,429.780111 Z M188.185508,428.064621 C189.100481,428.064621 189.834455,427.809094 190.388762,427.298041 C190.942403,426.786987 191.219224,426.070314 191.219224,425.148022 L191.219224,424.118595 L189.697375,424.183142 C188.51024,424.226396 187.647172,424.42403 187.10817,424.778706 C186.567837,425.132052 186.298336,425.673715 186.298336,426.403031 C186.298336,426.931386 186.455379,427.340628 186.770129,427.630758 C187.084214,427.919556 187.556007,428.064621 188.185508,428.064621 L188.185508,428.064621 L188.185508,428.064621 Z" id="Fill-1312" fill="#FFFFFF"></path>
                    <path d="M201.856192,429.995046 C200.061516,429.995046 198.698706,429.471349 197.765102,428.423956 C196.832828,427.376562 196.366359,425.874011 196.366359,423.914972 C196.366359,421.920665 196.854122,420.387505 197.829649,419.31549 C198.805841,418.24281 200.215231,417.707135 202.05915,417.707135 C203.310166,417.707135 204.436747,417.939372 205.43756,418.403845 L204.675638,420.430758 C203.610277,420.015527 202.731238,419.808577 202.038521,419.808577 C199.986322,419.808577 198.960887,421.170055 198.960887,423.893678 C198.960887,425.223216 199.216414,426.222699 199.727468,426.890129 C200.238521,427.558891 200.987135,427.892939 201.973309,427.892939 C203.095896,427.892939 204.15793,427.614122 205.158743,427.057153 L205.158743,429.255083 C204.708244,429.519261 204.227135,429.708909 203.716747,429.823364 C203.205028,429.937819 202.584843,429.995046 201.856192,429.995046" id="Fill-1313" fill="#FFFFFF"></path>
                    <path d="M212.76732,429.995046 C210.923401,429.995046 209.480739,429.45671 208.440665,428.381368 C207.400591,427.30536 206.880887,425.824104 206.880887,423.936932 C206.880887,421.999187 207.363327,420.476673 208.327542,419.368725 C209.293087,418.260776 210.619298,417.707135 212.306174,417.707135 C213.871275,417.707135 215.108318,418.182255 216.01597,419.133161 C216.923623,420.083401 217.377449,421.391645 217.377449,423.057227 L217.377449,424.419372 L209.475416,424.419372 C209.511349,425.569908 209.821442,426.454935 210.408355,427.073124 C210.993937,427.691312 211.819741,428.000074 212.885102,428.000074 C213.585804,428.000074 214.23793,427.934196 214.841479,427.80244 C215.446359,427.670018 216.094492,427.44976 216.787874,427.142329 L216.787874,429.190536 C216.173013,429.483993 215.551497,429.690943 214.921996,429.812717 C214.293161,429.933826 213.574492,429.995046 212.76732,429.995046 L212.76732,429.995046 L212.76732,429.995046 Z M212.306174,419.615601 C211.505656,419.615601 210.864177,419.869131 210.381072,420.376858 C209.899298,420.884584 209.611165,421.623882 209.518004,422.596081 L214.900702,422.596081 C214.886728,421.617227 214.650499,420.875268 214.193346,420.371534 C213.735527,419.8678 213.106691,419.615601 212.306174,419.615601 L212.306174,419.615601 L212.306174,419.615601 Z" id="Fill-1314" fill="#FFFFFF"></path>
                    <path d="M285.416784,446.825213 C285.416784,448.313789 283.050499,451.643623 280.134566,451.643623 L79.9712384,451.658262 C77.0533087,451.658262 74.6896858,448.329094 74.6896858,446.839852 L74.6896858,399.190092 C74.6896858,397.699519 77.0533087,393.945804 79.9712384,393.945804 L280.134566,393.929168 C283.050499,393.929168 285.416784,397.682884 285.416784,399.174787 L285.416784,446.825213 L285.416784,446.825213 Z" id="Stroke-1315" stroke="#FFFFFF" stroke-width="2.552"></path>
                    <path d="M142.577301,340.832163 C146.340998,340.832163 149.075268,343.579076 149.075268,347.326137 L149.075268,350.10366 C149.075268,353.86403 146.340998,356.834529 142.577301,356.834529 C138.751054,356.834529 135.960222,353.86403 135.960222,350.10366 L135.960222,347.326137 C135.960222,343.579076 138.751054,340.832163 142.577301,340.832163 L142.577301,340.832163 L142.577301,340.832163 Z M136.095305,262.92244 C135.960222,260.408429 137.746248,258.448725 140.122514,258.448725 L144.89634,258.448725 C147.447616,258.448725 149.075268,260.408429 149.015379,262.92244 L145.762736,325.95305 C145.626987,327.715786 144.265508,329.141811 142.577301,329.141811 C140.773309,329.141811 139.328651,327.715786 139.245471,325.95305 L136.095305,262.92244 L136.095305,262.92244 Z" id="Fill-1329" fill="#FFFFFF"></path>
                    <path d="M192.755046,359.144251 L192.755046,295.420924 C192.755046,292.44244 192.863512,288.135083 201.337153,288.135083 L216.040591,288.135083 C224.239409,288.135083 223.752311,292.44244 223.752311,295.420924 L223.752311,359.144251 L192.755046,359.144251" id="Fill-1330" fill="#FFFFFF"></path>
                    <path d="M192.755046,285.508614 L192.755046,266.161109 C192.755046,263.181294 192.518152,258.448725 201.337153,258.448725 L216.040591,258.448725 C223.548022,258.448725 223.752311,263.181294 223.752311,266.161109 L224.146248,285.508614 L192.755046,285.508614" id="Fill-1331" fill="#231F1F"></path>
                    <path d="M192.755046,285.508614 L192.755046,266.161109 C192.755046,263.181294 192.518152,258.448725 201.337153,258.448725 L216.040591,258.448725 C223.548022,258.448725 223.752311,263.181294 223.752311,266.161109 L224.146248,285.508614 L192.755046,285.508614" id="Fill-1332" fill="#FFFFFF"></path>
                    <path d="M208.383438,265.086433 C207.778558,265.086433 207.286802,265.584843 207.286802,266.197708 L207.286802,278.246063 C207.286802,278.865582 207.778558,279.368651 208.383438,279.368651 C209.006285,279.368651 209.510684,278.865582 209.510684,278.246063 L209.510684,266.197708 C209.510684,265.584843 209.006285,265.086433 208.383438,265.086433" id="Fill-1333" fill="#000000"></path>
                </g>
            </g>
        </g>
    </g>
</svg>