<?xml version="1.0" encoding="UTF-8" standalone="no"?>
<svg width="360px" height="591px" viewBox="0 0 360 591" version="1.1" xmlns="http://www.w3.org/2000/svg" xmlns:xlink="http://www.w3.org/1999/xlink" xmlns:sketch="http://www.bohemiancoding.com/sketch/ns">
    <!-- Generator: Sketch 3.3 (11970) - http://www.bohemiancoding.com/sketch -->
    <title>occlusionAlert</title>
    <desc>Created with Sketch.</desc>
    <defs></defs>
    <g id="Page-1" stroke="none" stroke-width="1" fill="none" fill-rule="evenodd" sketch:type="MSPage">
        <g id="occlusionAlert" sketch:type="MSLayerGroup">
            <g id="Page-1" sketch:type="MSShapeGroup">
                <g id="occlusionAlert">
                    <g id="Group">
                        <path d="M0.469131238,0.443179298 L359.803697,0.443179298 L359.803697,590.683475 L0.469131238,590.683475 L0.469131238,0.443179298 L0.469131238,0.443179298 Z" id="Fill-995" fill="#000000"></path>
                        <path d="M89.9114972,429.995046 C88.210647,429.995046 86.8930869,429.471349 85.9608133,428.424621 C85.0272089,427.377227 84.5614048,425.895305 84.5614048,423.980185 C84.5614048,422.013826 85.0345287,420.495305 85.9821072,419.422625 C86.9290203,418.35061 88.2778558,417.81427 90.0292791,417.81427 C90.5942329,417.81427 91.1585213,417.87549 91.7241405,417.996599 C92.2877634,418.118373 92.7309427,418.261442 93.0536784,418.425804 L92.5060259,419.937671 C92.1134196,419.779963 91.6842144,419.650203 91.2197412,419.546396 C90.755268,419.442588 90.3440296,419.390684 89.9860259,419.390684 C87.5991128,419.390684 86.4059889,420.913198 86.4059889,423.958226 C86.4059889,425.402218 86.6967837,426.510166 87.2790388,427.28207 C87.8619593,428.053974 88.7250277,428.440591 89.8689094,428.440591 C90.8477634,428.440591 91.8525693,428.229649 92.8819963,427.807763 L92.8819963,429.384177 C92.0947874,429.791423 91.1052865,429.995046 89.9114972,429.995046" id="Fill-996" fill="#FFFFFF"></path>
                        <path d="M103.475712,429.780776 L103.475712,422.178189 C103.475712,421.220628 103.257449,420.505952 102.82159,420.034159 C102.385065,419.562366 101.702994,419.326137 100.773383,419.326137 C99.5370055,419.326137 98.6340111,419.662181 98.0663956,420.33427 C97.4981146,421.006359 97.2139741,422.106987 97.2139741,423.636821 L97.2139741,429.780776 L95.4339372,429.780776 L95.4339372,413.09634 L97.2139741,413.09634 L97.2139741,418.146987 C97.2139741,418.754529 97.1853604,419.258262 97.1281331,419.658854 L97.235268,419.658854 C97.5852865,419.0939 98.0836969,418.64939 98.7311645,418.323993 C99.3779667,417.998595 100.115933,417.836229 100.945065,417.836229 C102.381738,417.836229 103.459741,418.177597 104.17841,418.860333 C104.895749,419.542403 105.255749,420.627061 105.255749,422.114307 L105.255749,429.780776 L103.475712,429.780776" id="Fill-997" fill="#FFFFFF"></path>
                        <path d="M113.650203,429.995046 C111.912754,429.995046 110.541959,429.466026 109.537819,428.407985 C108.533678,427.349945 108.031275,425.881331 108.031275,424.001479 C108.031275,422.106987 108.497745,420.60244 109.430684,419.487172 C110.362957,418.371904 111.61597,417.81427 113.189057,417.81427 C114.661664,417.81427 115.826174,418.298706 116.683919,419.267579 C117.541664,420.235786 117.970869,421.51342 117.970869,423.100481 L117.970869,424.226396 L109.87586,424.226396 C109.911128,425.605841 110.259815,426.653235 110.920591,427.367911 C111.582699,428.082588 112.512976,428.440591 113.714085,428.440591 C114.979741,428.440591 116.230092,428.175749 117.467135,427.646728 L117.467135,429.233789 C116.837634,429.505287 116.242736,429.700259 115.681774,429.818041 C115.120813,429.935823 114.442736,429.995046 113.650203,429.995046 L113.650203,429.995046 L113.650203,429.995046 Z M113.167098,419.304843 C112.223512,419.304843 111.470906,419.612274 110.91061,420.227135 C110.348983,420.841996 110.018262,421.692421 109.918447,422.779076 L116.062403,422.779076 C116.062403,421.656488 115.8122,420.797412 115.311793,420.199852 C114.811386,419.603623 114.09671,419.304843 113.167098,419.304843 L113.167098,419.304843 L113.167098,419.304843 Z" id="Fill-998" fill="#FFFFFF"></path>
                        <path d="M125.57878,429.995046 C123.877264,429.995046 122.559704,429.471349 121.627431,428.424621 C120.694492,427.377227 120.228688,425.895305 120.228688,423.980185 C120.228688,422.013826 120.701811,420.495305 121.64939,419.422625 C122.595638,418.35061 123.945139,417.81427 125.696562,417.81427 C126.26085,417.81427 126.825804,417.87549 127.390758,417.996599 C127.955046,418.118373 128.398226,418.261442 128.720296,418.425804 L128.173309,419.937671 C127.780037,419.779963 127.351497,419.650203 126.886359,419.546396 C126.421885,419.442588 126.010647,419.390684 125.653309,419.390684 C123.26573,419.390684 122.072606,420.913198 122.072606,423.958226 C122.072606,425.402218 122.363401,426.510166 122.945656,427.28207 C123.529242,428.053974 124.391645,428.440591 125.535527,428.440591 C126.515046,428.440591 127.519852,428.229649 128.548614,427.807763 L128.548614,429.384177 C127.76207,429.791423 126.772569,429.995046 125.57878,429.995046" id="Fill-999" fill="#FFFFFF"></path>
                        <path d="M132.860628,423.76525 C133.168059,423.32939 133.63586,422.757116 134.26536,422.04976 L138.060998,418.029205 L140.173087,418.029205 L135.412569,423.035933 L140.505139,429.780776 L138.350462,429.780776 L134.200813,424.226396 L132.860628,425.384251 L132.860628,429.780776 L131.101885,429.780776 L131.101885,413.09634 L132.860628,413.09634 L132.860628,421.942625 C132.860628,422.335896 132.832015,422.943438 132.774787,423.76525 L132.860628,423.76525" id="Fill-1000" fill="#FFFFFF"></path>
                        <path d="M148.182921,414.844436 C148.182921,414.43719 148.283401,414.13841 148.483031,413.949427 C148.683327,413.759778 148.93353,413.664621 149.234307,413.664621 C149.519778,413.664621 149.765989,413.761774 149.973604,413.95475 C150.180555,414.147726 150.284362,414.443845 150.284362,414.844436 C150.284362,415.245028 150.180555,415.543142 149.973604,415.739445 C149.765989,415.936414 149.519778,416.034898 149.234307,416.034898 C148.93353,416.034898 148.683327,415.936414 148.483031,415.739445 C148.283401,415.543142 148.182921,415.245028 148.182921,414.844436 L148.182921,414.844436 L148.182921,414.844436 Z M148.333309,418.029205 L150.113346,418.029205 L150.113346,429.780776 L148.333309,429.780776 L148.333309,418.029205 L148.333309,418.029205 Z" id="Fill-1001" fill="#FFFFFF"></path>
                        <path d="M161.590758,429.780776 L161.590758,422.178189 C161.590758,421.220628 161.372495,420.505952 160.936636,420.034159 C160.500111,419.562366 159.818041,419.326137 158.888429,419.326137 C157.659372,419.326137 156.758373,419.658854 156.186765,420.323623 C155.614492,420.988392 155.32902,422.085693 155.32902,423.615527 L155.32902,429.780776 L153.548983,429.780776 L153.548983,418.029205 L154.996969,418.029205 L155.285767,419.63756 L155.371608,419.63756 C155.736266,419.057967 156.246654,418.610129 156.904769,418.291386 C157.562218,417.973974 158.295527,417.81427 159.103364,417.81427 C160.518743,417.81427 161.583438,418.156303 162.298115,418.838373 C163.013457,419.521109 163.370795,420.613087 163.370795,422.114307 L163.370795,429.780776 L161.590758,429.780776" id="Fill-1002" fill="#FFFFFF"></path>
                        <path d="M172.124584,419.411978 L169.133457,419.411978 L169.133457,429.780776 L167.352754,429.780776 L167.352754,419.411978 L165.251312,419.411978 L165.251312,418.608133 L167.352754,417.964658 L167.352754,417.310536 C167.352754,414.422551 168.614418,412.978558 171.137745,412.978558 C171.759926,412.978558 172.489242,413.10366 173.325028,413.353863 L172.864547,414.779889 C172.178484,414.558299 171.591571,414.447837 171.10647,414.447837 C170.433715,414.447837 169.937301,414.671423 169.615896,415.11793 C169.293826,415.564436 169.133457,416.281109 169.133457,417.267283 L169.133457,418.029205 L172.124584,418.029205 L172.124584,419.411978" id="Fill-1003" fill="#FFFFFF"></path>
                        <path d="M176.01671,418.029205 L176.01671,425.652421 C176.01671,426.610647 176.234307,427.325323 176.670166,427.797116 C177.106026,428.268909 177.788762,428.504473 178.718373,428.504473 C179.948096,428.504473 180.846433,428.168429 181.415379,427.497006 C181.982994,426.824917 182.2678,425.727616 182.2678,424.205102 L182.2678,418.029205 L184.047172,418.029205 L184.047172,429.780776 L182.578558,429.780776 L182.321035,428.204362 L182.225213,428.204362 C181.859889,428.78329 181.354159,429.22647 180.707357,429.5339 C180.060555,429.841331 179.321922,429.995046 178.493457,429.995046 C177.063438,429.995046 175.99342,429.655675 175.28207,428.976266 C174.570721,428.297523 174.215379,427.210869 174.215379,425.716969 L174.215379,418.029205 L176.01671,418.029205" id="Fill-1004" fill="#FFFFFF"></path>
                        <path d="M195.127985,426.574713 C195.127985,427.668022 194.720074,428.511793 193.904917,429.10536 C193.090425,429.698262 191.946543,429.995046 190.473937,429.995046 C188.91549,429.995046 187.700407,429.74817 186.828688,429.255083 L186.828688,427.60414 C187.392976,427.889612 187.999187,428.115194 188.645989,428.279556 C189.293457,428.443919 189.916303,428.525767 190.51719,428.525767 C191.446137,428.525767 192.160813,428.378041 192.66122,428.081257 C193.161627,427.784473 193.412495,427.331978 193.412495,426.725102 C193.412495,426.267283 193.21353,425.876007 192.817597,425.55061 C192.420333,425.225213 191.646433,424.841257 190.495896,424.398078 C189.401922,423.990832 188.624695,423.634824 188.163549,423.330721 C187.702403,423.027283 187.359704,422.682588 187.134122,422.296636 C186.909205,421.910684 186.796747,421.449538 186.796747,420.913198 C186.796747,419.955638 187.186026,419.199704 187.96525,418.645397 C188.744473,418.091756 189.813161,417.81427 191.171312,417.81427 C192.436303,417.81427 193.673346,418.071793 194.881109,418.586174 L194.248281,420.034159 C193.069131,419.547726 192.000444,419.304843 191.042218,419.304843 C190.199113,419.304843 189.562957,419.437264 189.134418,419.701442 C188.705213,419.966285 188.490943,420.330943 188.490943,420.795416 C188.490943,421.109501 188.57146,421.377671 188.73183,421.599261 C188.892865,421.82085 189.151719,422.031793 189.509723,422.232089 C189.866396,422.432384 190.552458,422.721848 191.568577,423.100481 C192.961996,423.608207 193.903586,424.119261 194.393346,424.633641 C194.883105,425.148688 195.127985,425.79549 195.127985,426.574713" id="Fill-1005" fill="#FFFFFF"></path>
                        <path d="M197.516895,414.844436 C197.516895,414.43719 197.617375,414.13841 197.817006,413.949427 C198.017301,413.759778 198.267505,413.664621 198.567616,413.664621 C198.853752,413.664621 199.099963,413.761774 199.306913,413.95475 C199.514529,414.147726 199.618336,414.443845 199.618336,414.844436 C199.618336,415.245028 199.514529,415.543142 199.306913,415.739445 C199.099963,415.936414 198.853752,416.034898 198.567616,416.034898 C198.267505,416.034898 198.017301,415.936414 197.817006,415.739445 C197.617375,415.543142 197.516895,415.245028 197.516895,414.844436 L197.516895,414.844436 L197.516895,414.844436 Z M197.667283,418.029205 L199.44732,418.029205 L199.44732,429.780776 L197.667283,429.780776 L197.667283,418.029205 L197.667283,418.029205 Z" id="Fill-1006" fill="#FFFFFF"></path>
                        <path d="M213.036821,423.894344 C213.036821,425.810129 212.554381,427.30536 211.589501,428.381368 C210.623956,429.457375 209.291756,429.995046 207.59024,429.995046 C206.539519,429.995046 205.605915,429.74817 204.791423,429.255083 C203.976266,428.761996 203.347431,428.053974 202.904251,427.132348 C202.461072,426.210055 202.240148,425.130721 202.240148,423.894344 C202.240148,421.978558 202.718595,420.486654 203.676155,419.417967 C204.633715,418.348614 205.963253,417.81427 207.664769,417.81427 C209.309057,417.81427 210.61597,418.361257 211.584177,419.455231 C212.55305,420.54854 213.036821,422.028466 213.036821,423.894344 L213.036821,423.894344 L213.036821,423.894344 Z M204.084067,423.894344 C204.084067,425.394898 204.384177,426.53878 204.985065,427.325323 C205.585287,428.111201 206.467652,428.504473 207.632828,428.504473 C208.798004,428.504473 209.682366,428.113198 210.28658,427.330647 C210.890795,426.547431 211.192902,425.402218 211.192902,423.894344 C211.192902,422.399778 210.890795,421.265213 210.28658,420.489982 C209.682366,419.714085 208.790684,419.326137 207.611534,419.326137 C206.446359,419.326137 205.56732,419.708762 204.973752,420.473346 C204.380185,421.238595 204.084067,422.378484 204.084067,423.894344 L204.084067,423.894344 L204.084067,423.894344 Z" id="Fill-1007" fill="#FFFFFF"></path>
                        <path d="M223.947283,429.780776 L223.947283,422.178189 C223.947283,421.220628 223.72902,420.505952 223.293161,420.034159 C222.856636,419.562366 222.174566,419.326137 221.244954,419.326137 C220.015896,419.326137 219.114898,419.658854 218.54329,420.323623 C217.971017,420.988392 217.685545,422.085693 217.685545,423.615527 L217.685545,429.780776 L215.905508,429.780776 L215.905508,418.029205 L217.353494,418.029205 L217.642292,419.63756 L217.728133,419.63756 C218.092791,419.057967 218.603179,418.610129 219.261294,418.291386 C219.918743,417.973974 220.652052,417.81427 221.459889,417.81427 C222.875268,417.81427 223.939963,418.156303 224.65464,418.838373 C225.369316,419.521109 225.72732,420.613087 225.72732,422.114307 L225.72732,429.780776 L223.947283,429.780776" id="Fill-1008" fill="#FFFFFF"></path>
                        <path d="M242.668614,426.574713 C242.668614,427.668022 242.260037,428.511793 241.445545,429.10536 C240.630388,429.698262 239.487172,429.995046 238.0139,429.995046 C236.456118,429.995046 235.241035,429.74817 234.368651,429.255083 L234.368651,427.60414 C234.932939,427.889612 235.539815,428.115194 236.186617,428.279556 C236.83342,428.443919 237.456266,428.525767 238.057153,428.525767 C238.986765,428.525767 239.701442,428.378041 240.201183,428.081257 C240.702255,427.784473 240.953124,427.331978 240.953124,426.725102 C240.953124,426.267283 240.754159,425.876007 240.35756,425.55061 C239.960296,425.225213 239.186396,424.841257 238.036525,424.398078 C236.941885,423.990832 236.164658,423.634824 235.704177,423.330721 C235.243031,423.027283 234.899667,422.682588 234.67475,422.296636 C234.449168,421.910684 234.33671,421.449538 234.33671,420.913198 C234.33671,419.955638 234.725989,419.199704 235.505878,418.645397 C236.284436,418.091756 237.353124,417.81427 238.711275,417.81427 C239.976932,417.81427 241.213309,418.071793 242.421738,418.586174 L241.788244,420.034159 C240.60976,419.547726 239.541072,419.304843 238.582847,419.304843 C237.739741,419.304843 237.102921,419.437264 236.674381,419.701442 C236.245176,419.966285 236.030906,420.330943 236.030906,420.795416 C236.030906,421.109501 236.111423,421.377671 236.271793,421.599261 C236.433494,421.82085 236.691682,422.031793 237.049686,422.232089 C237.407024,422.432384 238.093087,422.721848 239.10854,423.100481 C240.501959,423.608207 241.444214,424.119261 241.933309,424.633641 C242.423068,425.148688 242.668614,425.79549 242.668614,426.574713" id="Fill-1009" fill="#FFFFFF"></path>
                        <path d="M245.056858,414.844436 C245.056858,414.43719 245.156673,414.13841 245.356969,413.949427 C245.557264,413.759778 245.807468,413.664621 246.107579,413.664621 C246.39305,413.664621 246.639261,413.761774 246.846876,413.95475 C247.054492,414.147726 247.158299,414.443845 247.158299,414.844436 C247.158299,415.245028 247.054492,415.543142 246.846876,415.739445 C246.639261,415.936414 246.39305,416.034898 246.107579,416.034898 C245.807468,416.034898 245.557264,415.936414 245.356969,415.739445 C245.156673,415.543142 245.056858,415.245028 245.056858,414.844436 L245.056858,414.844436 L245.056858,414.844436 Z M245.20658,418.029205 L246.986617,418.029205 L246.986617,429.780776 L245.20658,429.780776 L245.20658,418.029205 L245.20658,418.029205 Z" id="Fill-1010" fill="#FFFFFF"></path>
                        <path d="M254.514677,428.525767 C254.829427,428.525767 255.132865,428.503142 255.426322,428.455896 C255.719113,428.409982 255.952015,428.361405 256.123031,428.311497 L256.123031,429.673641 C255.930055,429.766137 255.645915,429.843327 255.27061,429.903882 C254.89597,429.964436 254.55793,429.995046 254.257819,429.995046 C251.984695,429.995046 250.848133,428.79793 250.848133,426.403031 L250.848133,419.411978 L249.164584,419.411978 L249.164584,418.554233 L250.848133,417.81427 L251.598078,415.305582 L252.627505,415.305582 L252.627505,418.029205 L256.037856,418.029205 L256.037856,419.411978 L252.627505,419.411978 L252.627505,426.327837 C252.627505,427.03586 252.795194,427.578854 253.131238,427.958152 C253.467283,428.336784 253.929094,428.525767 254.514677,428.525767" id="Fill-1011" fill="#FFFFFF"></path>
                        <path d="M263.076155,429.995046 C261.338041,429.995046 259.967911,429.466026 258.963771,428.407985 C257.958965,427.349945 257.457227,425.881331 257.457227,424.001479 C257.457227,422.106987 257.923031,420.60244 258.856636,419.487172 C259.788909,418.371904 261.041922,417.81427 262.614344,417.81427 C264.08695,417.81427 265.252126,418.298706 266.109871,419.267579 C266.967616,420.235786 267.396821,421.51342 267.396821,423.100481 L267.396821,424.226396 L259.301811,424.226396 C259.337079,425.605841 259.685767,426.653235 260.346543,427.367911 C261.007985,428.082588 261.938262,428.440591 263.139372,428.440591 C264.405693,428.440591 265.656044,428.175749 266.893087,427.646728 L266.893087,429.233789 C266.263586,429.505287 265.668688,429.700259 265.107061,429.818041 C264.5461,429.935823 263.868688,429.995046 263.076155,429.995046 L263.076155,429.995046 L263.076155,429.995046 Z M262.59305,419.304843 C261.649464,419.304843 260.896858,419.612274 260.335896,420.227135 C259.774935,420.841996 259.443549,421.692421 259.344399,422.779076 L265.488355,422.779076 C265.488355,421.656488 265.238152,420.797412 264.737745,420.199852 C264.237338,419.603623 263.521996,419.304843 262.59305,419.304843 L262.59305,419.304843 L262.59305,419.304843 Z" id="Fill-1012" fill="#FFFFFF"></path>
                        <path d="M270.616858,425.459445 L270.616858,424.880518 C270.616858,424.044067 270.745287,423.356007 271.00281,422.81634 C271.260333,422.276673 271.73878,421.706396 272.440148,421.106174 C273.411682,420.284362 274.025213,419.666174 274.278078,419.251608 C274.532274,418.837043 274.659372,418.33597 274.659372,417.750388 C274.659372,417.021072 274.425139,416.458115 273.956673,416.061516 C273.488872,415.664917 272.814787,415.465952 271.935749,415.465952 C271.370795,415.465952 270.820481,415.532495 270.284806,415.664917 C269.748466,415.797338 269.133604,416.038226 268.440222,416.388244 L267.808059,414.940924 C269.158226,414.232902 270.570277,413.879556 272.042884,413.879556 C273.408355,413.879556 274.469723,414.215601 275.227652,414.887024 C275.984917,415.559113 276.363549,416.506691 276.363549,417.728429 C276.363549,418.250795 276.294344,418.709945 276.155268,419.106543 C276.015527,419.503142 275.809908,419.878447 275.53841,420.232458 C275.266913,420.585804 274.680665,421.156081 273.779667,421.942625 C273.057671,422.557486 272.58122,423.06854 272.348318,423.475786 C272.116747,423.883031 272.000296,424.426691 272.000296,425.105434 L272.000296,425.459445 L270.616858,425.459445 L270.616858,425.459445 Z M270.091165,428.644214 C270.091165,427.672015 270.52037,427.185582 271.378115,427.185582 C271.79268,427.185582 272.112754,427.310684 272.337671,427.560887 C272.562588,427.811091 272.675712,428.172421 272.675712,428.644214 C272.675712,429.101368 272.561257,429.457375 272.332348,429.710906 C272.103438,429.964436 271.786026,430.091534 271.378115,430.091534 C271.006802,430.091534 270.699372,429.979076 270.456488,429.754159 C270.212939,429.528577 270.091165,429.158595 270.091165,428.644214 L270.091165,428.644214 L270.091165,428.644214 Z" id="Fill-1013" fill="#FFFFFF"></path>
                        <path d="M35.1489094,68.5111275 L33.5212569,66.8828096 L42.1446211,58.25878 L33.5605176,49.6760074 L35.1888355,48.047024 L43.772939,56.6304621 L52.3550462,48.047024 L53.984695,49.6773383 L45.4012569,58.25878 L54.0246211,66.8828096 L52.3956377,68.5111275 L43.772939,59.8884288 L35.1489094,68.5111275" id="Fill-1042" fill="#FFFFFF"></path>
                        <path d="M138.36976,341.982033 C142.133457,341.982033 144.868392,344.728946 144.868392,348.476673 L144.868392,351.25353 C144.868392,355.014566 142.133457,357.985065 138.36976,357.985065 C134.543512,357.985065 131.75268,355.014566 131.75268,351.25353 L131.75268,348.476673 C131.75268,344.728946 134.543512,341.982033 138.36976,341.982033 L138.36976,341.982033 L138.36976,341.982033 Z M131.888429,264.072976 C131.75268,261.558299 133.538706,259.598595 135.914972,259.598595 L140.688799,259.598595 C143.240074,259.598595 144.868392,261.558299 144.807837,264.072976 L141.555194,327.102921 C141.419445,328.865656 140.057301,330.291682 138.36976,330.291682 C136.565767,330.291682 135.121109,328.865656 135.03793,327.102921 L131.888429,264.072976 L131.888429,264.072976 Z" id="Fill-1118" fill="#FFFFFF"></path>
                        <path d="M224.140259,350.544843 C205.608577,350.544843 204.476673,329.732052 204.476673,316.650277 L204.476673,303.737523 L201.802957,303.737523 L201.802957,316.650277 C201.802957,340.95793 208.545804,353.215896 224.140259,353.215896 C224.878891,353.215896 225.477116,352.618336 225.477116,351.879039 C225.477116,351.143068 224.878891,350.544843 224.140259,350.544843" id="Fill-1119" fill="#FFFFFF"></path>
                        <path d="M223.864104,355.313346 C202.908909,355.313346 199.778706,333.369316 199.778706,320.289538 L199.778706,303.737523 L197.106987,303.737523 L197.106987,320.289538 C197.106987,344.59719 206.610721,357.985065 223.864104,357.985065 C224.604732,357.985065 225.200961,357.387505 225.200961,356.648872 C225.200961,355.910906 224.604732,355.313346 223.864104,355.313346" id="Fill-1120" fill="#FFFFFF"></path>
                        <path d="M200.468762,259.1461 C184.973457,259.1461 172.415379,271.706174 172.415379,287.201479 C172.415379,300.835564 182.100776,312.133974 194.987579,314.662625 L194.987579,303.360887 C188.327911,301.057819 183.535453,294.754159 183.535453,287.313937 C183.535453,277.915342 191.147357,270.304769 200.54329,270.304769 C209.933235,270.304769 217.549797,277.915342 217.549797,287.313937 C217.549797,294.613087 212.939002,300.824251 206.476969,303.23512 L206.476969,314.548835 C219.071645,311.793272 228.519482,300.625952 228.519482,287.201479 C228.519482,271.706174 215.959409,259.1461 200.468762,259.1461" id="Fill-1121" fill="#FFFFFF"></path>
                        <path d="M91.0241035,156.060998 C91.0241035,158.012717 90.5090573,159.538558 89.4802957,160.639187 C88.4508688,161.740481 87.0175231,162.290795 85.1802588,162.290795 C84.0297227,162.290795 83.0142699,162.038595 82.1352311,161.534861 C81.2561922,161.030462 80.5807763,160.307135 80.1089834,159.363549 C79.6371904,158.419963 79.4009612,157.319335 79.4009612,156.060998 C79.4009612,154.102625 79.9120148,152.579445 80.934122,151.493457 C81.9568946,150.406802 83.3935675,149.863142 85.2448059,149.863142 C86.395342,149.863142 87.4107948,150.113346 88.2898336,150.613752 C89.1688725,151.114159 89.8449538,151.832828 90.3167468,152.769094 C90.7885397,153.70536 91.0241035,154.802662 91.0241035,156.060998 L91.0241035,156.060998 L91.0241035,156.060998 Z M82.7354529,156.060998 C82.7354529,157.247468 82.9304251,158.144473 83.3203697,158.752015 C83.7096488,159.359556 84.3438078,159.66366 85.223512,159.66366 C86.0952311,159.66366 86.7227357,159.361553 87.104695,158.757338 C87.4873198,158.153789 87.6782994,157.254787 87.6782994,156.060998 C87.6782994,154.874529 87.4859889,153.984177 87.100037,153.391275 C86.714085,152.797708 86.0812569,152.500924 85.2022181,152.500924 C84.3298336,152.500924 83.7009982,152.795712 83.3150462,153.385952 C82.9290943,153.975527 82.7354529,154.867209 82.7354529,156.060998 L82.7354529,156.060998 L82.7354529,156.060998 Z" id="Fill-1197" fill="#FFFFFF"></path>
                        <path d="M98.492939,162.290795 C94.7618484,162.290795 92.8959704,160.242588 92.8959704,156.146839 C92.8959704,154.109279 93.4036969,152.552828 94.4184843,151.477486 C95.4332717,150.401479 96.8879113,149.863142 98.782403,149.863142 C100.169168,149.863142 101.412865,150.135305 102.513494,150.678299 L101.548614,153.208946 C101.034233,153.001331 100.55512,152.831645 100.111941,152.699889 C99.6687616,152.567468 99.2255823,152.500924 98.782403,152.500924 C97.0815527,152.500924 96.2304621,153.709353 96.2304621,156.125545 C96.2304621,158.469871 97.0815527,159.642366 98.782403,159.642366 C99.4112384,159.642366 99.994159,159.558521 100.529834,159.390166 C101.066174,159.222477 101.602514,158.95963 102.138854,158.602292 L102.138854,161.400444 C101.609834,161.736488 101.074824,161.968725 100.535823,162.097819 C99.9954898,162.226248 99.3154159,162.290795 98.492939,162.290795" id="Fill-1198" fill="#FFFFFF"></path>
                        <path d="M109.491904,162.290795 C105.760148,162.290795 103.89427,160.242588 103.89427,156.146839 C103.89427,154.109279 104.401996,152.552828 105.416784,151.477486 C106.432237,150.401479 107.886876,149.863142 109.781368,149.863142 C111.168133,149.863142 112.41183,150.135305 113.512458,150.678299 L112.547579,153.208946 C112.032532,153.001331 111.554085,152.831645 111.110906,152.699889 C110.667061,152.567468 110.224547,152.500924 109.781368,152.500924 C108.079852,152.500924 107.228762,153.709353 107.228762,156.125545 C107.228762,158.469871 108.079852,159.642366 109.781368,159.642366 C110.410203,159.642366 110.992458,159.558521 111.528799,159.390166 C112.065139,159.222477 112.600813,158.95963 113.137153,158.602292 L113.137153,161.400444 C112.608133,161.736488 112.073789,161.968725 111.534122,162.097819 C110.994455,162.226248 110.313715,162.290795 109.491904,162.290795" id="Fill-1199" fill="#FFFFFF"></path>
                        <path d="M115.703068,145.392089 L118.973678,145.392089 L118.973678,162.07586 L115.703068,162.07586 L115.703068,145.392089 L115.703068,145.392089 Z" id="Fill-1200" fill="#FFFFFF"></path>
                        <path d="M130.605471,162.07586 L130.165619,160.542699 L129.993937,160.542699 C129.643253,161.100333 129.146839,161.531534 128.503364,161.834972 C127.860555,162.13841 127.127246,162.290795 126.305434,162.290795 C124.897375,162.290795 123.836007,161.913494 123.120665,161.159556 C122.405989,160.405619 122.048651,159.320296 122.048651,157.904917 L122.048651,150.088725 L125.319261,150.088725 L125.319261,157.090425 C125.319261,157.95549 125.472311,158.604288 125.779741,159.036155 C126.087172,159.468688 126.576932,159.684954 127.24902,159.684954 C128.163993,159.684954 128.824769,159.379519 129.23268,158.768651 C129.639926,158.157116 129.843549,157.14366 129.843549,155.728281 L129.843549,150.088725 L133.114159,150.088725 L133.114159,162.07586 L130.605471,162.07586" id="Fill-1201" fill="#FFFFFF"></path>
                        <path d="M144.845102,158.516451 C144.845102,159.746174 144.417893,160.68244 143.563475,161.32525 C142.709057,161.968725 141.431423,162.290795 139.730573,162.290795 C138.858189,162.290795 138.114898,162.231571 137.500037,162.113789 C136.885176,161.995342 136.31024,161.822329 135.7739,161.59342 L135.7739,158.891756 C136.381442,159.177893 137.065508,159.416784 137.827431,159.60976 C138.588022,159.802736 139.25878,159.899224 139.837708,159.899224 C141.024177,159.899224 141.617745,159.556525 141.617745,158.870462 C141.617745,158.612939 141.539224,158.403993 141.381516,158.242957 C141.224473,158.082588 140.952976,157.899593 140.567024,157.69597 C140.181072,157.492348 139.666026,157.254787 139.022551,156.98329 C138.100259,156.597338 137.422847,156.24 136.99098,155.91061 C136.558447,155.581885 136.243697,155.20525 136.047394,154.780037 C135.850425,154.354824 135.752606,153.830462 135.752606,153.208946 C135.752606,152.143586 136.165176,151.319778 136.99098,150.736858 C137.816118,150.154603 138.986617,149.863142 140.502477,149.863142 C141.94647,149.863142 143.351201,150.177893 144.716673,150.806728 L143.729834,153.165693 C143.129612,152.908835 142.568651,152.697893 142.046285,152.53353 C141.524584,152.369168 140.992237,152.286654 140.448577,152.286654 C139.483697,152.286654 139.001257,152.547505 139.001257,153.069205 C139.001257,153.362662 139.156969,153.616192 139.467726,153.830462 C139.77915,154.045397 140.459224,154.363475 141.51061,154.784695 C142.446876,155.163993 143.132939,155.517338 143.568799,155.846728 C144.004658,156.175453 144.326728,156.554085 144.533678,156.98329 C144.741294,157.41183 144.845102,157.922884 144.845102,158.516451" id="Fill-1202" fill="#FFFFFF"></path>
                        <path d="M147.10159,146.989797 C147.10159,145.925102 147.695157,145.392089 148.881627,145.392089 C150.068096,145.392089 150.661664,145.925102 150.661664,146.989797 C150.661664,147.497523 150.512606,147.892791 150.216488,148.174935 C149.919704,148.457079 149.474529,148.598152 148.881627,148.598152 C147.695157,148.598152 147.10159,148.061811 147.10159,146.989797 L147.10159,146.989797 L147.10159,146.989797 Z M147.240665,150.088725 L150.511275,150.088725 L150.511275,162.076525 L147.240665,162.076525 L147.240665,150.088725 L147.240665,150.088725 Z" id="Fill-1203" fill="#FFFFFF"></path>
                        <path d="M164.570573,156.060998 C164.570573,158.012717 164.056192,159.538558 163.026765,160.639187 C161.997338,161.740481 160.563993,162.290795 158.726728,162.290795 C157.576192,162.290795 156.560739,162.038595 155.681701,161.534861 C154.802662,161.030462 154.12658,160.307135 153.654787,159.363549 C153.182994,158.419963 152.947431,157.319335 152.947431,156.060998 C152.947431,154.102625 153.458484,152.579445 154.480591,151.493457 C155.502699,150.406802 156.940037,149.863142 158.791275,149.863142 C159.941811,149.863142 160.957264,150.113346 161.836303,150.613752 C162.715342,151.114159 163.390758,151.832828 163.862551,152.769094 C164.334344,153.70536 164.570573,154.802662 164.570573,156.060998 L164.570573,156.060998 L164.570573,156.060998 Z M156.281922,156.060998 C156.281922,157.247468 156.476895,158.144473 156.866839,158.752015 C157.256118,159.359556 157.890277,159.66366 158.769316,159.66366 C159.641701,159.66366 160.269205,159.361553 160.651165,158.757338 C161.033789,158.153789 161.225434,157.254787 161.225434,156.060998 C161.225434,154.874529 161.031793,153.984177 160.645841,153.391275 C160.259889,152.797708 159.627726,152.500924 158.748022,152.500924 C157.876303,152.500924 157.247468,152.795712 156.861516,153.385952 C156.474898,153.975527 156.281922,154.867209 156.281922,156.060998 L156.281922,156.060998 L156.281922,156.060998 Z" id="Fill-1204" fill="#FFFFFF"></path>
                        <path d="M178.109501,162.07586 L174.839556,162.07586 L174.839556,155.074159 C174.839556,154.20976 174.685176,153.560961 174.37841,153.128429 C174.07098,152.695896 173.58122,152.47963 172.909131,152.47963 C171.994159,152.47963 171.332717,152.78573 170.925471,153.396599 C170.518226,154.007468 170.314603,155.020924 170.314603,156.436303 L170.314603,162.07586 L167.043993,162.07586 L167.043993,150.088725 L169.542033,150.088725 L169.981885,151.621885 L170.164214,151.621885 C170.528872,151.042957 171.03061,150.605102 171.670758,150.308318 C172.31024,150.0122 173.038226,149.863142 173.852717,149.863142 C175.246802,149.863142 176.304843,150.240444 177.026839,150.994381 C177.748835,151.748983 178.109501,152.836969 178.109501,154.259667 L178.109501,162.07586" id="Fill-1205" fill="#FFFFFF"></path>
                        <path d="M190.97634,162.290795 C189.568281,162.290795 188.462329,161.743808 187.657819,160.649834 C186.853974,159.556525 186.451386,158.041331 186.451386,156.103586 C186.451386,154.137893 186.860628,152.606728 187.679113,151.509427 C188.497597,150.412126 189.625508,149.863142 191.062181,149.863142 C192.570055,149.863142 193.721257,150.44939 194.514455,151.621885 L194.62159,151.621885 C194.457227,150.728207 194.375379,149.931017 194.375379,149.23098 L194.375379,145.392089 L197.656636,145.392089 L197.656636,162.07586 L195.147283,162.07586 L194.514455,160.521405 L194.375379,160.521405 C193.632089,161.700555 192.498854,162.290795 190.97634,162.290795 L190.97634,162.290795 L190.97634,162.290795 Z M192.123549,159.684954 C192.96,159.684954 193.572865,159.44207 193.962144,158.955638 C194.352089,158.469871 194.565028,157.644067 194.600296,156.478891 L194.600296,156.125545 C194.600296,154.838595 194.401996,153.916303 194.005397,153.358669 C193.608799,152.801035 192.963327,152.522884 192.070314,152.522884 C191.340998,152.522884 190.774048,152.831645 190.370795,153.450499 C189.966211,154.068688 189.764584,154.967024 189.764584,156.146839 C189.764584,157.325989 189.968207,158.211017 190.376118,158.800591 C190.783364,159.390166 191.365619,159.684954 192.123549,159.684954 L192.123549,159.684954 L192.123549,159.684954 Z" id="Fill-1206" fill="#FFFFFF"></path>
                        <path d="M206.289316,162.290795 C204.359556,162.290795 202.851017,161.757782 201.764362,160.693087 C200.678373,159.627726 200.134713,158.119852 200.134713,156.168133 C200.134713,154.159852 200.636451,152.606728 201.641257,151.509427 C202.645397,150.412126 204.034159,149.863142 205.806876,149.863142 C207.501072,149.863142 208.819963,150.345582 209.763549,151.311128 C210.707135,152.276007 211.178928,153.608872 211.178928,155.310388 L211.178928,156.897449 L203.447911,156.897449 C203.483845,157.826396 203.759335,158.552384 204.273715,159.074085 C204.788096,159.595786 205.510092,159.856636 206.439704,159.856636 C207.161701,159.856636 207.844436,159.781442 208.487911,159.631719 C209.130721,159.481331 209.80281,159.241774 210.503512,158.91305 L210.503512,161.443697 C209.931238,161.729834 209.32037,161.942107 208.669575,162.081183 C208.019445,162.220924 207.226248,162.290795 206.289316,162.290795 L206.289316,162.290795 L206.289316,162.290795 Z M205.82817,152.190166 C205.134787,152.190166 204.591793,152.40976 204.198521,152.849612 C203.80525,153.288799 203.580333,153.912976 203.523105,154.720813 L208.111941,154.720813 C208.097967,153.912976 207.887024,153.288799 207.479778,152.849612 C207.072532,152.40976 206.521553,152.190166 205.82817,152.190166 L205.82817,152.190166 L205.82817,152.190166 Z" id="Fill-1207" fill="#FFFFFF"></path>
                        <path d="M218.786839,159.684954 C219.359113,159.684954 220.045176,159.559852 220.845693,159.309649 L220.845693,161.743808 C220.030536,162.108466 219.030388,162.290795 217.843253,162.290795 C216.535675,162.290795 215.582773,161.960074 214.985878,161.298632 C214.388983,160.637856 214.090869,159.645693 214.090869,158.323475 L214.090869,152.544177 L212.525102,152.544177 L212.525102,151.160739 L214.326433,150.067431 L215.270018,147.536784 L217.360813,147.536784 L217.360813,150.088725 L220.717264,150.088725 L220.717264,152.544177 L217.360813,152.544177 L217.360813,158.323475 C217.360813,158.787948 217.491238,159.131312 217.752089,159.352902 C218.012939,159.574492 218.358299,159.684954 218.786839,159.684954" id="Fill-1208" fill="#FFFFFF"></path>
                        <path d="M228.420333,162.290795 C226.489908,162.290795 224.982033,161.757782 223.895379,160.693087 C222.808725,159.627726 222.265065,158.119852 222.265065,156.168133 C222.265065,154.159852 222.767468,152.606728 223.771608,151.509427 C224.775749,150.412126 226.16451,149.863142 227.937893,149.863142 C229.631423,149.863142 230.950314,150.345582 231.8939,151.311128 C232.837486,152.276007 233.309279,153.608872 233.309279,155.310388 L233.309279,156.897449 L225.578928,156.897449 C225.614196,157.826396 225.889686,158.552384 226.404067,159.074085 C226.919113,159.595786 227.641109,159.856636 228.570055,159.856636 C229.292052,159.856636 229.974787,159.781442 230.618262,159.631719 C231.261072,159.481331 231.933161,159.241774 232.633863,158.91305 L232.633863,161.443697 C232.062255,161.729834 231.450721,161.942107 230.800591,162.081183 C230.149797,162.220924 229.356599,162.290795 228.420333,162.290795 L228.420333,162.290795 L228.420333,162.290795 Z M227.959187,152.190166 C227.265804,152.190166 226.722144,152.40976 226.328872,152.849612 C225.936266,153.288799 225.710684,153.912976 225.653457,154.720813 L230.242957,154.720813 C230.228318,153.912976 230.017375,153.288799 229.610129,152.849612 C229.202884,152.40976 228.652569,152.190166 227.959187,152.190166 L227.959187,152.190166 L227.959187,152.190166 Z" id="Fill-1209" fill="#FFFFFF"></path>
                        <path d="M240.801405,162.290795 C237.069649,162.290795 235.204436,160.242588 235.204436,156.146839 C235.204436,154.109279 235.712163,152.552828 236.72695,151.477486 C237.741738,150.401479 239.196377,149.863142 241.090869,149.863142 C242.477634,149.863142 243.721331,150.135305 244.821959,150.678299 L243.857079,153.208946 C243.342699,153.001331 242.863586,152.831645 242.420407,152.699889 C241.977227,152.567468 241.534048,152.500924 241.090869,152.500924 C239.389353,152.500924 238.538928,153.709353 238.538928,156.125545 C238.538928,158.469871 239.389353,159.642366 241.090869,159.642366 C241.719704,159.642366 242.302625,159.558521 242.838965,159.390166 C243.37464,159.222477 243.91098,158.95963 244.446654,158.602292 L244.446654,161.400444 C243.918299,161.736488 243.38329,161.968725 242.843623,162.097819 C242.303956,162.226248 241.623216,162.290795 240.801405,162.290795" id="Fill-1210" fill="#FFFFFF"></path>
                        <path d="M252.485102,159.684954 C253.05671,159.684954 253.743438,159.559852 254.543956,159.309649 L254.543956,161.743808 C253.728799,162.108466 252.727985,162.290795 251.541516,162.290795 C250.233272,162.290795 249.281035,161.960074 248.68414,161.298632 C248.087246,160.637856 247.788466,159.645693 247.788466,158.323475 L247.788466,152.544177 L246.223364,152.544177 L246.223364,151.160739 L248.024695,150.067431 L248.968281,147.536784 L251.059076,147.536784 L251.059076,150.088725 L254.415527,150.088725 L254.415527,152.544177 L251.059076,152.544177 L251.059076,158.323475 C251.059076,158.787948 251.189501,159.131312 251.450351,159.352902 C251.711201,159.574492 252.056562,159.684954 252.485102,159.684954" id="Fill-1211" fill="#FFFFFF"></path>
                        <path d="M262.11793,162.290795 C260.18817,162.290795 258.67963,161.757782 257.592976,160.693087 C256.506322,159.627726 255.963327,158.119852 255.963327,156.168133 C255.963327,154.159852 256.46573,152.606728 257.469871,151.509427 C258.474011,150.412126 259.862773,149.863142 261.63549,149.863142 C263.329686,149.863142 264.648577,150.345582 265.592163,151.311128 C266.535749,152.276007 267.007542,153.608872 267.007542,155.310388 L267.007542,156.897449 L259.276525,156.897449 C259.312458,157.826396 259.587283,158.552384 260.102329,159.074085 C260.61671,159.595786 261.338706,159.856636 262.268318,159.856636 C262.990314,159.856636 263.672384,159.781442 264.31586,159.631719 C264.959335,159.481331 265.631423,159.241774 266.332126,158.91305 L266.332126,161.443697 C265.759852,161.729834 265.148983,161.942107 264.498189,162.081183 C263.848059,162.220924 263.054196,162.290795 262.11793,162.290795 L262.11793,162.290795 L262.11793,162.290795 Z M261.656784,152.190166 C260.963401,152.190166 260.420407,152.40976 260.027135,152.849612 C259.633863,153.288799 259.408946,153.912976 259.351719,154.720813 L263.94122,154.720813 C263.92658,153.912976 263.715638,153.288799 263.308392,152.849612 C262.900481,152.40976 262.350166,152.190166 261.656784,152.190166 L261.656784,152.190166 L261.656784,152.190166 Z" id="Fill-1212" fill="#FFFFFF"></path>
                        <path d="M273.473567,162.290795 C272.064843,162.290795 270.958891,161.743808 270.154381,160.649834 C269.350536,159.556525 268.948614,158.041331 268.948614,156.103586 C268.948614,154.137893 269.35719,152.606728 270.17634,151.509427 C270.994824,150.412126 272.12207,149.863142 273.559409,149.863142 C275.067283,149.863142 276.218484,150.44939 277.011682,151.621885 L277.118817,151.621885 C276.954455,150.728207 276.871941,149.931017 276.871941,149.23098 L276.871941,145.392089 L280.153198,145.392089 L280.153198,162.07586 L277.64451,162.07586 L277.011682,160.521405 L276.871941,160.521405 C276.128651,161.700555 274.996081,162.290795 273.473567,162.290795 L273.473567,162.290795 L273.473567,162.290795 Z M274.620776,159.684954 C275.456562,159.684954 276.070092,159.44207 276.459372,158.955638 C276.848651,158.469871 277.06159,157.644067 277.097523,156.478891 L277.097523,156.125545 C277.097523,154.838595 276.899224,153.916303 276.501959,153.358669 C276.106026,152.801035 275.460555,152.522884 274.566876,152.522884 C273.83756,152.522884 273.271275,152.831645 272.867357,153.450499 C272.463438,154.068688 272.261811,154.967024 272.261811,156.146839 C272.261811,157.325989 272.465434,158.211017 272.87268,158.800591 C273.279926,159.390166 273.862847,159.684954 274.620776,159.684954 L274.620776,159.684954 L274.620776,159.684954 Z" id="Fill-1213" fill="#FFFFFF"></path>
                    </g>
                </g>
            </g>
        </g>
    </g>
</svg>