<?xml version="1.0" encoding="UTF-8" standalone="no"?>
<svg width="36px" height="63px" viewBox="0 0 36 63" version="1.1" xmlns="http://www.w3.org/2000/svg" xmlns:xlink="http://www.w3.org/1999/xlink" xmlns:sketch="http://www.bohemiancoding.com/sketch/ns">
    <!-- Generator: Sketch 3.3 (11970) - http://www.bohemiancoding.com/sketch -->
    <title>phoneTitleIcon</title>
    <desc>Created with Sketch.</desc>
    <defs></defs>
    <g id="Page-1" stroke="none" stroke-width="1" fill="none" fill-rule="evenodd" sketch:type="MSPage">
        <path d="M32.941,0 L2.983,0 C1.335,0 0,1.341 0,2.996 L0,59.873 C0,61.526 1.335,62.867 2.983,62.867 L32.942,62.867 C34.588,62.867 35.924,61.526 35.924,59.873 L35.924,2.996 C35.924,1.343 34.588,0 32.941,0 L32.941,0 Z M5.963,5.991 L29.958,5.991 L29.958,50.891 L5.963,50.891 L5.963,5.991 Z M17.961,59.873 C16.309,59.873 14.969,58.531 14.969,56.878 C14.969,55.227 16.309,53.886 17.961,53.886 C19.615,53.886 20.951,55.227 20.951,56.878 C20.951,58.536 19.615,59.873 17.961,59.873 L17.961,59.873 Z" id="phoneTitleIcon" fill="#FFFFFF" sketch:type="MSShapeGroup"></path>
    </g>
</svg>