<?xml version="1.0" encoding="UTF-8" standalone="no"?>
<svg width="249px" height="212px" viewBox="0 0 249 212" version="1.1" xmlns="http://www.w3.org/2000/svg" xmlns:xlink="http://www.w3.org/1999/xlink" xmlns:sketch="http://www.bohemiancoding.com/sketch/ns">
    <!-- Generator: Sketch 3.3.1 (12002) - http://www.bohemiancoding.com/sketch -->
    <title>remind3</title>
    <desc>Created with Sketch.</desc>
    <defs></defs>
    <g id="Page-1" stroke="none" stroke-width="1" fill="none" fill-rule="evenodd" sketch:type="MSPage">
        <g id="remind3" sketch:type="MSLayerGroup" transform="translate(1.000000, 0.000000)">
            <path d="M27.0515678,3.6967936 C27.4507186,3.6967936 27.7795399,3.72500872 28.0380317,3.78082558 L27.8443171,5.61726163 C27.562999,5.55040407 27.2705763,5.5166686 26.967049,5.5166686 C26.1742997,5.5166686 25.5320802,5.77428488 25.0397736,6.2882907 C24.547467,6.80290988 24.3013137,7.47087209 24.3013137,8.29217733 L24.3013137,13.139657 L22.3197489,13.139657 L22.3197489,3.86485756 L23.8713166,3.86485756 L24.1328931,5.50010756 L24.2340689,5.50010756 C24.5431486,4.94684593 24.9472348,4.50767151 25.4444768,4.18319767 C25.9423357,3.85933721 26.477827,3.6967936 27.0515678,3.6967936" id="Fill-1" fill="#FFFFFF" sketch:type="MSShapeGroup"></path>
            <path d="M33.8408333,13.3071076 C32.3904414,13.3071076 31.2559153,12.8869477 30.437872,12.0454012 C29.6198288,11.2038547 29.2108072,10.0451948 29.2108072,8.56942151 C29.2108072,7.05439244 29.5902164,5.86383721 30.3490348,4.99652907 C31.1084701,4.13044767 32.1510743,3.6967936 33.478698,3.6967936 C34.7100814,3.6967936 35.6829729,4.06911047 36.3967558,4.81251744 C37.1105386,5.55592442 37.4677385,6.57902907 37.4677385,7.8818314 L37.4677385,8.94664535 L31.2515968,8.94664535 C31.2799754,9.84707558 31.5242779,10.5389593 31.9857382,11.0222965 C32.4465816,11.5056337 33.0955872,11.7473023 33.933989,11.7473023 C34.4849036,11.7473023 34.9975687,11.6957791 35.4732183,11.5921192 C35.9482509,11.4890727 36.4590653,11.3173285 37.0038105,11.0768866 L37.0038105,12.6784012 C36.5201409,12.9078023 36.0309189,13.0697326 35.5361447,13.1648052 C35.0419873,13.2598779 34.4768835,13.3071076 33.8408333,13.3071076 L33.8408333,13.3071076 Z M33.478698,5.18974128 C32.848817,5.18974128 32.3441719,5.38847384 31.9641458,5.78532558 C31.5847366,6.18217733 31.3583249,6.76120058 31.2855277,7.5211686 L35.5194877,7.5211686 C35.5077661,6.75506686 35.3226884,6.17481686 34.9630208,5.78103198 C34.6033533,5.38663372 34.107962,5.18974128 33.478698,5.18974128 L33.478698,5.18974128 Z" id="Fill-2" fill="#FFFFFF" sketch:type="MSShapeGroup"></path>
            <path d="M47.5809988,13.139657 L45.5901801,13.139657 L45.5901801,7.42057558 C45.5901801,6.7102907 45.4556903,6.18095058 45.185477,5.83132849 C44.9158805,5.48231977 44.4939034,5.30689535 43.9201627,5.30689535 C43.1557919,5.30689535 42.5950066,5.55469767 42.2378067,6.04907558 C41.8806069,6.54406686 41.7023154,7.36721221 41.7023154,8.519125 L41.7023154,13.139657 L39.7201336,13.139657 L39.7201336,3.86485756 L41.2717014,3.86485756 L41.5505517,5.08056105 L41.6517275,5.08056105 C41.9096024,4.63893314 42.28531,4.29789826 42.7776166,4.0574564 C43.2699232,3.81762791 43.8109669,3.6967936 44.4007477,3.6967936 C45.8350995,3.6967936 46.7851649,4.18319767 47.2521775,5.15600581 L47.3866673,5.15600581 C47.662433,4.69781686 48.0504791,4.34022093 48.5508057,4.08260465 C49.0517493,3.82560174 49.6248731,3.6967936 50.2714111,3.6967936 C51.3849617,3.6967936 52.1956018,3.97649128 52.7051823,4.53527326 C53.2141459,5.0946686 53.4683192,5.94725581 53.4683192,7.09364826 L53.4683192,13.139657 L51.4861374,13.139657 L51.4861374,7.42057558 C51.4861374,6.7102907 51.3497969,6.18095058 51.0771158,5.83132849 C50.8044347,5.48231977 50.3812238,5.30689535 49.8074831,5.30689535 C49.0369431,5.30689535 48.4736901,5.54611047 48.1164902,6.02392733 C47.7592903,6.50235756 47.5809988,7.23595058 47.5809988,8.22531977 L47.5809988,13.139657" id="Fill-3" fill="#FFFFFF" sketch:type="MSShapeGroup"></path>
            <path d="M56.1167805,1.40768895 C56.1167805,1.05561337 56.2136378,0.784502907 56.4079694,0.594357558 C56.601684,0.404212209 56.8786835,0.309139535 57.2383511,0.309139535 C57.587531,0.309139535 57.8583613,0.404212209 58.0526928,0.594357558 C58.2464075,0.784502907 58.3432648,1.05561337 58.3432648,1.40768895 C58.3432648,1.74320349 58.2464075,2.00756686 58.0526928,2.2001657 C57.8583613,2.39276453 57.587531,2.48967733 57.2383511,2.48967733 C56.8786835,2.48967733 56.601684,2.39276453 56.4079694,2.2001657 C56.2136378,2.00756686 56.1167805,1.74320349 56.1167805,1.40768895 L56.1167805,1.40768895 Z M56.2346133,3.86485756 L58.216795,3.86485756 L58.216795,13.139657 L56.2346133,13.139657 L56.2346133,3.86485756 Z" id="Fill-4" fill="#FFFFFF" sketch:type="MSShapeGroup"></path>
            <path d="M69.2579113,13.139657 L67.2670926,13.139657 L67.2670926,7.43713663 C67.2670926,6.7213314 67.1227321,6.18769767 66.832777,5.83562209 C66.542822,5.48354651 66.0832125,5.30689535 65.4533316,5.30689535 C64.6155467,5.30689535 64.0029396,5.55347093 63.6148935,6.04539535 C63.2268473,6.53731977 63.0331327,7.36169186 63.0331327,8.519125 L63.0331327,13.139657 L61.0509509,13.139657 L61.0509509,3.86485756 L62.6031356,3.86485756 L62.881369,5.08056105 L62.9825448,5.08056105 C63.2638628,4.63893314 63.6623967,4.29789826 64.1799972,4.0574564 C64.6975978,3.81762791 65.2713385,3.6967936 65.9006026,3.6967936 C68.1388084,3.6967936 69.2579113,4.82907849 69.2579113,7.09364826 L69.2579113,13.139657" id="Fill-5" fill="#FFFFFF" sketch:type="MSShapeGroup"></path>
            <path d="M75.1618887,13.3071076 C73.9977502,13.3071076 73.0902528,12.8881744 72.4375455,12.0496948 C71.7848383,11.2106017 71.4591016,10.0341541 71.4591016,8.519125 C71.4591016,6.99857558 71.7891568,5.81415407 72.449884,4.96770058 C73.1112282,4.12063372 74.0261288,3.6967936 75.1958196,3.6967936 C76.4216506,3.6967936 77.355059,4.14700872 77.9960446,5.04743895 L78.0972204,5.04743895 C78.0015969,4.38193023 77.9534767,3.85627035 77.9534767,3.4704593 L77.9534767,0.0907790698 L79.9442954,0.0907790698 L79.9442954,13.139657 L78.3921108,13.139657 L78.0466325,11.9239535 L77.9534767,11.9239535 C77.3180434,12.8458517 76.3877197,13.3071076 75.1618887,13.3071076 L75.1618887,13.3071076 Z M75.6930616,11.7141802 C76.5086371,11.7141802 77.1021195,11.4866192 77.4728918,11.0302703 C77.8442809,10.5751483 78.0349109,9.83542151 78.0466325,8.81231686 L78.0466325,8.53568605 C78.0466325,7.36721221 77.8553856,6.53731977 77.4728918,6.04539535 C77.0903979,5.55347093 76.4913632,5.30689535 75.6764046,5.30689535 C74.9792787,5.30689535 74.4419366,5.58781977 74.065612,6.1496686 C73.6886705,6.71151744 73.4998913,7.5125814 73.4998913,8.55224709 C73.4998913,9.58148547 73.6825013,10.365375 74.0483381,10.9045291 C74.4141749,11.4442965 74.9626217,11.7141802 75.6930616,11.7141802 L75.6930616,11.7141802 Z" id="Fill-6" fill="#FFFFFF" sketch:type="MSShapeGroup"></path>
            <path d="M95.1262159,13.139657 L93.1360142,13.139657 L93.1360142,7.42057558 C93.1360142,6.7102907 93.0009075,6.18095058 92.7306941,5.83132849 C92.4610976,5.48231977 92.0391206,5.30689535 91.4659967,5.30689535 C90.7010091,5.30689535 90.1402238,5.55469767 89.7830239,6.04907558 C89.425824,6.54406686 89.2475325,7.36721221 89.2475325,8.519125 L89.2475325,13.139657 L87.2653508,13.139657 L87.2653508,3.86485756 L88.8175354,3.86485756 L89.0957688,5.08056105 L89.1969446,5.08056105 C89.4554364,4.63893314 89.8305271,4.29789826 90.3228337,4.0574564 C90.8151403,3.81762791 91.356184,3.6967936 91.9465817,3.6967936 C93.3803167,3.6967936 94.330382,4.18319767 94.7973946,5.15600581 L94.9325013,5.15600581 C95.2076501,4.69781686 95.5956963,4.34022093 96.0960229,4.08260465 C96.5969664,3.82560174 97.1707072,3.6967936 97.8166282,3.6967936 C98.9301788,3.6967936 99.7414359,3.97649128 100.250399,4.53527326 C100.759363,5.0946686 101.013536,5.94725581 101.013536,7.09364826 L101.013536,13.139657 L99.0313546,13.139657 L99.0313546,7.42057558 C99.0313546,6.7102907 98.895631,6.18095058 98.6223329,5.83132849 C98.3496519,5.48231977 97.9264409,5.30689535 97.3533171,5.30689535 C96.5827771,5.30689535 96.0189072,5.54611047 95.6617073,6.02392733 C95.3045074,6.50235756 95.1262159,7.23595058 95.1262159,8.22531977 L95.1262159,13.139657" id="Fill-7" fill="#FFFFFF" sketch:type="MSShapeGroup"></path>
            <path d="M107.854007,13.3071076 C106.403615,13.3071076 105.269089,12.8869477 104.451045,12.0454012 C103.632385,11.2038547 103.223364,10.0451948 103.223364,8.56942151 C103.223364,7.05439244 103.602773,5.86383721 104.362208,4.99652907 C105.121027,4.13044767 106.164248,3.6967936 107.491254,3.6967936 C108.722638,3.6967936 109.696146,4.06911047 110.409929,4.81251744 C111.123712,5.55592442 111.480912,6.57902907 111.480912,7.8818314 L111.480912,8.94664535 L105.26477,8.94664535 C105.293149,9.84707558 105.537451,10.5389593 105.998295,11.0222965 C106.459138,11.5056337 107.108761,11.7473023 107.947162,11.7473023 C108.498077,11.7473023 109.010742,11.6957791 109.486392,11.5921192 C109.961424,11.4890727 110.471622,11.3173285 111.016984,11.0768866 L111.016984,12.6784012 C110.533314,12.9078023 110.044092,13.0697326 109.549318,13.1648052 C109.054544,13.2598779 108.48944,13.3071076 107.854007,13.3071076 L107.854007,13.3071076 Z M107.491254,5.18974128 C106.86199,5.18974128 106.356728,5.38847384 105.977319,5.78532558 C105.59791,6.18217733 105.371498,6.76120058 105.298701,7.5211686 L109.532661,7.5211686 C109.520939,6.75506686 109.335862,6.17481686 108.975577,5.78103198 C108.61591,5.38663372 108.121135,5.18974128 107.491254,5.18974128 L107.491254,5.18974128 Z" id="Fill-8" fill="#FFFFFF" sketch:type="MSShapeGroup"></path>
            <path d="M121.695348,11.7141802 C122.179018,11.7141802 122.66207,11.6387355 123.14574,11.4878459 L123.14574,12.971593 C122.926731,13.0672791 122.644179,13.1464041 122.298084,13.2108081 C121.952606,13.2752122 121.594172,13.3071076 121.222783,13.3071076 C119.344862,13.3071076 118.405901,12.3232587 118.405901,10.355561 L118.405901,5.35719186 L117.13195,5.35719186 L117.13195,4.48559012 L118.49844,3.76426453 L119.173356,1.80208721 L120.396103,1.80208721 L120.396103,3.86485756 L123.053201,3.86485756 L123.053201,5.35719186 L120.396103,5.35719186 L120.396103,10.3218256 C120.396103,10.797189 120.515786,11.1480378 120.754537,11.3743721 C120.993904,11.6007064 121.307302,11.7141802 121.695348,11.7141802" id="Fill-9" fill="#FFFFFF" sketch:type="MSShapeGroup"></path>
            <path d="M133.284294,8.48538953 C133.284294,10.0004186 132.893163,11.183 132.111519,12.0325203 C131.330491,12.8826541 130.242234,13.3071076 128.847366,13.3071076 C127.97565,13.3071076 127.205727,13.1120552 126.536363,12.7201105 C125.866998,12.3293924 125.352483,11.7675436 124.992815,11.034564 C124.633147,10.3021977 124.453005,9.45267733 124.453005,8.48538953 C124.453005,6.98140116 124.841051,5.80740698 125.617144,4.96340698 C126.393236,4.11940698 127.486428,3.6967936 128.897954,3.6967936 C130.247787,3.6967936 131.315685,4.12860756 132.103499,4.99284884 C132.890696,5.85647674 133.284294,7.02065698 133.284294,8.48538953 L133.284294,8.48538953 Z M126.494412,8.48538953 C126.494412,10.6266715 127.290246,11.6970058 128.881297,11.6970058 C130.455691,11.6970058 131.242888,10.6266715 131.242888,8.48538953 C131.242888,6.36680233 130.450138,5.30689535 128.86464,5.30689535 C128.032407,5.30689535 127.429054,5.58107267 127.055197,6.12881395 C126.68134,6.6771686 126.494412,7.46228488 126.494412,8.48538953 L126.494412,8.48538953 Z" id="Fill-10" fill="#FFFFFF" sketch:type="MSShapeGroup"></path>
            <path d="M146.627777,13.139657 L146.348926,11.9239535 L146.24775,11.9239535 C145.972602,12.3545407 145.580854,12.6925087 145.071273,12.9384709 C144.56231,13.1844331 143.9824,13.3071076 143.329693,13.3071076 C142.199485,13.3071076 141.356148,13.0280233 140.799064,12.4686279 C140.242597,11.9098459 139.964364,11.0627791 139.964364,9.92742733 L139.964364,3.86485756 L141.963203,3.86485756 L141.963203,9.58393895 C141.963203,10.2942238 142.110031,10.8266308 142.401837,11.1817733 C142.694259,11.5369157 143.152635,11.7141802 143.776964,11.7141802 C144.608579,11.7141802 145.219952,11.4663779 145.611083,10.972 C146.002214,10.4770087 146.197162,9.64834302 146.197162,8.48538953 L146.197162,3.86485756 L148.187981,3.86485756 L148.187981,13.139657 L146.627777,13.139657" id="Fill-11" fill="#FFFFFF" sketch:type="MSShapeGroup"></path>
            <path d="M155.745319,13.3071076 C154.564524,13.3071076 153.648389,12.8851076 152.995682,12.0411076 L152.877232,12.0411076 C152.956199,12.8237703 152.995682,13.2991337 152.995682,13.4665843 L152.995682,17.2651977 L151.0135,17.2651977 L151.0135,3.86485756 L152.616273,3.86485756 C152.661308,4.03782849 152.753847,4.45185465 152.894506,5.1057093 L152.995682,5.1057093 C153.614458,4.16663663 154.542314,3.6967936 155.77925,3.6967936 C156.942771,3.6967936 157.849652,4.11634012 158.499275,4.95481977 C159.148897,5.79329942 159.4734,6.97036047 159.4734,8.48538953 C159.4734,10.0004186 159.143345,11.183 158.482618,12.0325203 C157.821273,12.8826541 156.909457,13.3071076 155.745319,13.3071076 L155.745319,13.3071076 Z M155.264734,5.30689535 C154.47692,5.30689535 153.902562,5.53629651 153.53981,5.99448547 C153.177058,6.45328779 152.995682,7.18565407 152.995682,8.19219767 L152.995682,8.48538953 C152.995682,9.61460756 153.175824,10.4322326 153.535492,10.9382645 C153.895159,11.4442965 154.483089,11.6970058 155.298048,11.6970058 C155.984686,11.6970058 156.512774,11.4179215 156.884164,10.8585262 C157.254936,10.2997442 157.44063,9.50297384 157.44063,8.46882849 C157.44063,7.42854942 157.25617,6.6422064 156.888482,6.1079593 C156.520177,5.57432558 155.978517,5.30689535 155.264734,5.30689535 L155.264734,5.30689535 Z" id="Fill-12" fill="#FFFFFF" sketch:type="MSShapeGroup"></path>
            <path d="M164.922086,13.3071076 C163.757948,13.3071076 162.85045,12.8881744 162.197743,12.0496948 C161.545036,11.2106017 161.219299,10.0341541 161.219299,8.519125 C161.219299,6.99857558 161.549354,5.81415407 162.210082,4.96770058 C162.871426,4.12063372 163.786326,3.6967936 164.956017,3.6967936 C166.181848,3.6967936 167.115257,4.14700872 167.756242,5.04743895 L167.857418,5.04743895 C167.761795,4.38193023 167.713674,3.85627035 167.713674,3.4704593 L167.713674,0.0907790698 L169.704493,0.0907790698 L169.704493,13.139657 L168.152308,13.139657 L167.80683,11.9239535 L167.713674,11.9239535 C167.078241,12.8458517 166.147917,13.3071076 164.922086,13.3071076 L164.922086,13.3071076 Z M165.453259,11.7141802 C166.268835,11.7141802 166.862317,11.4866192 167.233089,11.0302703 C167.604479,10.5751483 167.795109,9.83542151 167.80683,8.81231686 L167.80683,8.53568605 C167.80683,7.36721221 167.615583,6.53731977 167.233089,6.04539535 C166.850596,5.55347093 166.251561,5.30689535 165.436602,5.30689535 C164.739476,5.30689535 164.202134,5.58781977 163.82581,6.1496686 C163.448868,6.71151744 163.260706,7.5125814 163.260706,8.55224709 C163.260706,9.58148547 163.443316,10.365375 163.808536,10.9045291 C164.174373,11.4442965 164.722819,11.7141802 165.453259,11.7141802 L165.453259,11.7141802 Z" id="Fill-13" fill="#FFFFFF" sketch:type="MSShapeGroup"></path>
            <path d="M178.375381,13.139657 L177.978698,11.8478953 L177.911453,11.8478953 C177.461098,12.412811 177.008891,12.7973953 176.5536,13.0010349 C176.097692,13.2052878 175.512847,13.3071076 174.799064,13.3071076 C173.882313,13.3071076 173.166679,13.0611453 172.652163,12.5692209 C172.137647,12.0772965 171.880389,11.3817326 171.880389,10.4813023 C171.880389,9.52505523 172.237589,8.80434302 172.951989,8.31732558 C173.665772,7.83153488 174.754029,7.56594477 176.216142,7.5211686 L177.826935,7.47087209 L177.826935,6.97588081 C177.826935,6.38336337 177.687509,5.94050872 177.409276,5.64670349 C177.131043,5.35289826 176.699812,5.20630233 176.114966,5.20630233 C175.636849,5.20630233 175.178473,5.27684012 174.739839,5.41607558 C174.301205,5.55592442 173.879228,5.72092151 173.474525,5.91106686 L172.833539,4.50215116 C173.340035,4.23962791 173.893417,4.0396686 174.495537,3.90227326 C175.097039,3.76549128 175.664611,3.6967936 176.198868,3.6967936 C177.385216,3.6967936 178.280992,3.95440988 178.885579,4.4684157 C179.489549,4.98303488 179.792459,5.79084593 179.792459,6.89184884 L179.792459,13.139657 L178.375381,13.139657 L178.375381,13.139657 Z M175.422776,11.7975988 C176.143345,11.7975988 176.720787,11.5982529 177.156337,11.1983343 C177.591886,10.7990291 177.810278,10.2377936 177.810278,9.5170814 L177.810278,8.71172384 L176.612208,8.76202035 C175.679417,8.79575581 175.000182,8.95093895 174.575737,9.22756977 C174.150675,9.50420058 173.938453,9.92742733 173.938453,10.4978634 C173.938453,10.9118895 174.061838,11.2320698 174.309842,11.4584041 C174.557229,11.6847384 174.928619,11.7975988 175.422776,11.7975988 L175.422776,11.7975988 Z" id="Fill-14" fill="#FFFFFF" sketch:type="MSShapeGroup"></path>
            <path d="M186.033895,11.7141802 C186.517565,11.7141802 187.000617,11.6387355 187.484287,11.4878459 L187.484287,12.971593 C187.265278,13.0672791 186.982727,13.1464041 186.636631,13.2108081 C186.291153,13.2752122 185.932719,13.3071076 185.56133,13.3071076 C183.683409,13.3071076 182.744448,12.3232587 182.744448,10.355561 L182.744448,5.35719186 L181.470497,5.35719186 L181.470497,4.48559012 L182.836987,3.76426453 L183.511903,1.80208721 L184.73465,1.80208721 L184.73465,3.86485756 L187.391748,3.86485756 L187.391748,5.35719186 L184.73465,5.35719186 L184.73465,10.3218256 C184.73465,10.797189 184.854333,11.1480378 185.093084,11.3743721 C185.332451,11.6007064 185.645849,11.7141802 186.033895,11.7141802" id="Fill-15" fill="#FFFFFF" sketch:type="MSShapeGroup"></path>
            <path d="M193.422195,13.3071076 C191.971803,13.3071076 190.837277,12.8869477 190.019234,12.0454012 C189.201191,11.2038547 188.791552,10.0451948 188.791552,8.56942151 C188.791552,7.05439244 189.171578,5.86383721 189.930397,4.99652907 C190.689832,4.13044767 191.732436,3.6967936 193.059443,3.6967936 C194.290826,3.6967936 195.264335,4.06911047 195.978118,4.81251744 C196.691901,5.55592442 197.0491,6.57902907 197.0491,7.8818314 L197.0491,8.94664535 L190.832959,8.94664535 C190.861337,9.84707558 191.10564,10.5389593 191.566483,11.0222965 C192.027944,11.5056337 192.676949,11.7473023 193.515351,11.7473023 C194.066266,11.7473023 194.578931,11.6957791 195.05458,11.5921192 C195.529613,11.4890727 196.03981,11.3173285 196.585172,11.0768866 L196.585172,12.6784012 C196.101503,12.9078023 195.612281,13.0697326 195.117507,13.1648052 C194.623349,13.2598779 194.058245,13.3071076 193.422195,13.3071076 L193.422195,13.3071076 Z M193.059443,5.18974128 C192.430179,5.18974128 191.925534,5.38847384 191.545508,5.78532558 C191.166099,6.18217733 190.939687,6.76120058 190.86689,7.5211686 L195.10085,7.5211686 C195.089128,6.75506686 194.90405,6.17481686 194.544383,5.78103198 C194.184715,5.38663372 193.689324,5.18974128 193.059443,5.18974128 L193.059443,5.18974128 Z" id="Fill-16" fill="#FFFFFF" sketch:type="MSShapeGroup"></path>
            <path d="M203.670562,1.40768895 C203.670562,1.05561337 203.76742,0.784502907 203.961134,0.594357558 C204.155466,0.404212209 204.432465,0.309139535 204.792133,0.309139535 C205.140696,0.309139535 205.412143,0.404212209 205.605858,0.594357558 C205.800189,0.784502907 205.897047,1.05561337 205.897047,1.40768895 C205.897047,1.74320349 205.800189,2.00756686 205.605858,2.2001657 C205.412143,2.39276453 205.140696,2.48967733 204.792133,2.48967733 C204.432465,2.48967733 204.155466,2.39276453 203.961134,2.2001657 C203.76742,2.00756686 203.670562,1.74320349 203.670562,1.40768895 L203.670562,1.40768895 Z M203.788395,3.86485756 L205.770577,3.86485756 L205.770577,13.139657 L203.788395,13.139657 L203.788395,3.86485756 Z" id="Fill-17" fill="#FFFFFF" sketch:type="MSShapeGroup"></path>
            <path d="M216.811076,13.139657 L214.820874,13.139657 L214.820874,7.43713663 C214.820874,6.7213314 214.675897,6.18769767 214.386559,5.83562209 C214.096604,5.48354651 213.636994,5.30689535 213.007113,5.30689535 C212.169328,5.30689535 211.556721,5.55347093 211.168675,6.04539535 C210.780629,6.53731977 210.586914,7.36169186 210.586914,8.519125 L210.586914,13.139657 L208.604733,13.139657 L208.604733,3.86485756 L210.1563,3.86485756 L210.434534,5.08056105 L210.536327,5.08056105 C210.817645,4.63893314 211.216178,4.29789826 211.733779,4.0574564 C212.25138,3.81762791 212.824503,3.6967936 213.454384,3.6967936 C215.69259,3.6967936 216.811076,4.82907849 216.811076,7.09364826 L216.811076,13.139657" id="Fill-18" fill="#FFFFFF" sketch:type="MSShapeGroup"></path>
            <path d="M219.273843,12.0914041 C219.273843,11.6835116 219.380571,11.3700785 219.594644,11.1523314 C219.808717,10.9339709 220.117797,10.8247907 220.5225,10.8247907 C220.932756,10.8247907 221.24492,10.9382645 221.458993,11.1645988 C221.672449,11.3909331 221.779177,11.7000727 221.779177,12.0914041 C221.779177,12.4882558 221.670599,12.8029157 221.454675,13.0347703 C221.238134,13.266625 220.927203,13.3825523 220.5225,13.3825523 C220.117797,13.3825523 219.808717,13.2678517 219.594644,13.039064 C219.380571,12.8096628 219.273843,12.4937762 219.273843,12.0914041" id="Fill-19" fill="#FFFFFF" sketch:type="MSShapeGroup"></path>
            <path d="M224.022936,12.0914041 C224.022936,11.6835116 224.129664,11.3700785 224.34312,11.1523314 C224.557193,10.9339709 224.866273,10.8247907 225.270976,10.8247907 C225.681231,10.8247907 225.993396,10.9382645 226.207469,11.1645988 C226.421542,11.3909331 226.527653,11.7000727 226.527653,12.0914041 C226.527653,12.4882558 226.419691,12.8029157 226.20315,13.0347703 C225.98661,13.266625 225.675679,13.3825523 225.270976,13.3825523 C224.866273,13.3825523 224.557193,13.2678517 224.34312,13.039064 C224.129664,12.8096628 224.022936,12.4937762 224.022936,12.0914041" id="Fill-20" fill="#FFFFFF" sketch:type="MSShapeGroup"></path>
            <path d="M228.771411,12.0914041 C228.771411,11.6835116 228.87814,11.3700785 229.092213,11.1523314 C229.305669,10.9339709 229.614749,10.8247907 230.020069,10.8247907 C230.430324,10.8247907 230.741872,10.9382645 230.955945,11.1645988 C231.170018,11.3909331 231.276746,11.7000727 231.276746,12.0914041 C231.276746,12.4882558 231.168167,12.8029157 230.951626,13.0347703 C230.735702,13.266625 230.424772,13.3825523 230.020069,13.3825523 C229.614749,13.3825523 229.305669,13.2678517 229.092213,13.039064 C228.87814,12.8096628 228.771411,12.4937762 228.771411,12.0914041" id="Fill-21" fill="#FFFFFF" sketch:type="MSShapeGroup"></path>
            <path d="M124.952098,114.379174 C124.952098,115.156317 124.724452,115.803424 124.269161,116.320497 C123.813253,116.83757 123.172268,117.185352 122.345587,117.364456 L122.345587,117.431314 C123.335753,117.554602 124.077914,117.860674 124.572689,118.349532 C125.067463,118.839003 125.31485,119.489177 125.31485,120.299442 C125.31485,121.478956 124.895958,122.389201 124.058173,123.028948 C123.219771,123.669308 122.028488,123.989488 120.481855,123.989488 C119.115365,123.989488 117.962948,123.768674 117.023371,123.326433 L117.023371,121.574029 C117.546524,121.831645 118.100523,122.029765 118.685368,122.169613 C119.270214,122.309462 119.832233,122.379387 120.372043,122.379387 C121.328277,122.379387 122.04206,122.202735 122.514625,121.85066 C122.986573,121.498584 123.222856,120.953297 123.222856,120.21541 C123.222856,119.561555 122.961279,119.080672 122.438743,118.773372 C121.91559,118.466073 121.094462,118.312116 119.97536,118.312116 L118.904377,118.312116 L118.904377,116.709988 L119.992633,116.709988 C121.960626,116.709988 122.944622,116.034052 122.944622,114.680953 C122.944622,114.155294 122.773117,113.749855 122.430106,113.464637 C122.087096,113.180032 121.581217,113.037116 120.911853,113.037116 C120.44484,113.037116 119.995718,113.10336 119.562636,113.234009 C119.128938,113.365884 118.617506,113.62166 118.027109,114.001337 L117.057302,112.626157 C118.187509,111.798718 119.500327,111.385305 120.996371,111.385305 C122.239476,111.385305 123.209283,111.650895 123.906409,112.182076 C124.603535,112.713256 124.952098,113.445622 124.952098,114.379174" id="Fill-22" fill="#FFFFFF" sketch:type="MSShapeGroup"></path>
            <path d="M139.923647,123.821424 L137.932828,123.821424 L137.932828,118.102343 C137.932828,117.392672 137.797721,116.862718 137.528125,116.513096 C137.257911,116.164087 136.836551,115.989276 136.262811,115.989276 C135.49844,115.989276 134.937038,116.236465 134.579838,116.731456 C134.222638,117.225834 134.044346,118.049593 134.044346,119.200892 L134.044346,123.821424 L132.062165,123.821424 L132.062165,114.546625 L133.614349,114.546625 L133.892583,115.762328 L133.993758,115.762328 C134.25225,115.321314 134.627958,114.980279 135.119648,114.739224 C135.611954,114.499395 136.152998,114.379174 136.743396,114.379174 C138.177747,114.379174 139.127813,114.865578 139.594208,115.838387 L139.729315,115.838387 C140.004464,115.379584 140.39251,115.021988 140.893454,114.764985 C141.39378,114.507983 141.967521,114.379174 142.614059,114.379174 C143.72761,114.379174 144.53825,114.658872 145.047213,115.217654 C145.556177,115.776436 145.81035,116.629023 145.81035,117.775416 L145.81035,123.821424 L143.828785,123.821424 L143.828785,118.102343 C143.828785,117.392672 143.692445,116.862718 143.419764,116.513096 C143.146466,116.164087 142.723255,115.989276 142.150131,115.989276 C141.379591,115.989276 140.816338,116.227878 140.459138,116.706308 C140.101938,117.184125 139.923647,117.917718 139.923647,118.907087 L139.923647,123.821424" id="Fill-23" fill="#FFFFFF" sketch:type="MSShapeGroup"></path>
            <path d="M156.851466,119.167157 C156.851466,120.682186 156.460336,121.864767 155.678691,122.714288 C154.897663,123.564422 153.809407,123.989488 152.414538,123.989488 C151.542822,123.989488 150.772899,123.793823 150.103535,123.402491 C149.434788,123.01116 148.920272,122.449311 148.560604,121.716331 C148.200937,120.984578 148.020794,120.134445 148.020794,119.167157 C148.020794,117.663782 148.408224,116.489788 149.184316,115.645174 C149.960408,114.801174 151.054217,114.379174 152.465743,114.379174 C153.814959,114.379174 154.883474,114.810988 155.670671,115.674616 C156.457868,116.538244 156.851466,117.702424 156.851466,119.167157 L156.851466,119.167157 Z M150.061584,119.167157 C150.061584,121.308439 150.857418,122.379387 152.448469,122.379387 C154.022863,122.379387 154.81006,121.308439 154.81006,119.167157 C154.81006,117.04857 154.017311,115.989276 152.431812,115.989276 C151.599579,115.989276 150.996843,116.26284 150.622369,116.810581 C150.248512,117.358936 150.061584,118.144052 150.061584,119.167157 L150.061584,119.167157 Z" id="Fill-24" fill="#FFFFFF" sketch:type="MSShapeGroup"></path>
            <path d="M167.335499,123.821424 L165.34468,123.821424 L165.34468,118.118904 C165.34468,117.403712 165.20032,116.869465 164.910365,116.51739 C164.621027,116.165314 164.161417,115.989276 163.531536,115.989276 C162.693751,115.989276 162.080527,116.235238 161.693098,116.727163 C161.305052,117.219087 161.11072,118.043459 161.11072,119.200892 L161.11072,123.821424 L159.128539,123.821424 L159.128539,114.546625 L160.680723,114.546625 L160.958957,115.762328 L161.060132,115.762328 C161.341451,115.321314 161.740601,114.980279 162.258202,114.739224 C162.775802,114.499395 163.348926,114.379174 163.978807,114.379174 C166.217013,114.379174 167.335499,115.510846 167.335499,117.775416 L167.335499,123.821424" id="Fill-25" fill="#FFFFFF" sketch:type="MSShapeGroup"></path>
            <path d="M173.568915,122.395948 C174.052584,122.395948 174.535637,122.320503 175.019307,122.169613 L175.019307,123.653974 C174.800298,123.749047 174.517746,123.828172 174.171651,123.892576 C173.826173,123.95698 173.467122,123.989488 173.09635,123.989488 C171.218428,123.989488 170.279468,123.00564 170.279468,121.037328 L170.279468,116.039573 L169.005516,116.039573 L169.005516,115.167358 L170.372007,114.446032 L171.046923,112.483855 L172.269669,112.483855 L172.269669,114.546625 L174.926768,114.546625 L174.926768,116.039573 L172.269669,116.039573 L172.269669,121.003593 C172.269669,121.478956 172.389353,121.829805 172.628103,122.05614 C172.86747,122.282474 173.180868,122.395948 173.568915,122.395948" id="Fill-26" fill="#FFFFFF" sketch:type="MSShapeGroup"></path>
            <path d="M185.089999,123.821424 L183.099797,123.821424 L183.099797,118.118904 C183.099797,117.403712 182.95482,116.869465 182.665482,116.51739 C182.375527,116.165314 181.915917,115.989276 181.286036,115.989276 C180.454421,115.989276 179.843047,116.236465 179.451917,116.731456 C179.060786,117.225834 178.865837,118.055113 178.865837,119.217453 L178.865837,123.821424 L176.883656,123.821424 L176.883656,110.77316 L178.865837,110.77316 L178.865837,114.085369 C178.865837,114.616549 178.831906,115.183919 178.764661,115.78809 L178.891131,115.78809 C179.160728,115.340942 179.535818,114.994387 180.01702,114.747811 C180.497605,114.501849 181.058391,114.379174 181.699376,114.379174 C183.959791,114.379174 185.089999,115.510846 185.089999,117.775416 L185.089999,123.821424" id="Fill-27" fill="#FFFFFF" sketch:type="MSShapeGroup"></path>
            <path d="M194.115003,121.179631 C194.115003,122.085581 193.783097,122.780532 193.119902,123.263869 C192.456707,123.74782 191.506025,123.989488 190.269089,123.989488 C189.025984,123.989488 188.028415,123.801797 187.274532,123.427026 L187.274532,121.724919 C188.371426,122.228497 189.391821,122.47998 190.336334,122.47998 C191.556612,122.47998 192.166752,122.113797 192.166752,121.38143 C192.166752,121.146509 192.099507,120.950843 191.9644,120.794433 C191.829294,120.638023 191.6072,120.47548 191.298121,120.308029 C190.989041,120.139965 190.559044,119.950433 190.007512,119.737593 C188.933445,119.32418 188.206707,118.910154 187.827298,118.496128 C187.447888,118.082715 187.257875,117.546015 187.257875,116.886026 C187.257875,116.092323 187.579294,115.476497 188.223981,115.037323 C188.868051,114.598762 189.742851,114.379174 190.85085,114.379174 C191.947743,114.379174 192.984795,114.599988 193.963239,115.041616 L193.322253,116.525977 C192.315431,116.111951 191.469626,115.905244 190.783605,115.905244 C189.737916,115.905244 189.214763,116.201503 189.214763,116.79402 C189.214763,117.084759 189.351104,117.330721 189.623785,117.531907 C189.896466,117.733093 190.491182,118.010337 191.407933,118.362413 C192.178473,118.658672 192.737408,118.929782 193.085971,119.175744 C193.435151,119.421706 193.693642,119.705698 193.862063,120.027105 C194.031101,120.348512 194.115003,120.732483 194.115003,121.179631" id="Fill-28" fill="#FFFFFF" sketch:type="MSShapeGroup"></path>
            <path d="M122.877377,163.721892 L120.895196,163.721892 L120.895196,155.805712 C120.895196,154.861119 120.917405,154.111578 120.96244,153.558317 C120.832886,153.692032 120.674336,153.840468 120.486174,154.002398 C120.297395,154.164942 119.666897,154.678948 118.592213,155.545642 L117.597112,154.296203 L121.224017,151.461811 L122.877377,151.461811 L122.877377,163.721892" id="Fill-29" fill="#FFFFFF" sketch:type="MSShapeGroup"></path>
            <path d="M130.645087,154.447093 L132.804326,154.447093 L134.702606,159.704919 C134.989476,160.454459 135.180106,161.15861 135.27573,161.817985 L135.343592,161.817985 C135.394179,161.510686 135.486718,161.137756 135.621825,160.698581 C135.756932,160.26002 136.470715,158.175782 137.76379,154.447093 L139.906373,154.447093 L135.916715,164.95477 C135.191828,166.883212 133.982654,167.848047 132.28981,167.848047 C131.851793,167.848047 131.424264,167.800203 131.007839,167.705131 L131.007839,166.145326 C131.306431,166.212183 131.646357,166.245919 132.028851,166.245919 C132.984468,166.245919 133.6563,165.69511 134.044346,164.594108 L134.390442,163.721892 L130.645087,154.447093" id="Fill-30" fill="#FFFFFF" sketch:type="MSShapeGroup"></path>
            <path d="M145.397627,163.889343 C143.946618,163.889343 142.812092,163.469183 141.994049,162.627637 C141.176006,161.78609 140.766984,160.62743 140.766984,159.151657 C140.766984,157.636628 141.146393,156.446073 141.905212,155.579378 C142.664647,154.712683 143.707251,154.279029 145.034875,154.279029 C146.266258,154.279029 147.23915,154.651346 147.952933,155.394753 C148.666715,156.13816 149.023915,157.161265 149.023915,158.464067 L149.023915,159.528881 L142.807774,159.528881 C142.836152,160.429311 143.081072,161.121195 143.541915,161.604532 C144.002758,162.087869 144.652381,162.329538 145.490166,162.329538 C146.04108,162.329538 146.554362,162.278015 147.029395,162.174355 C147.505045,162.071308 148.015242,161.899564 148.560604,161.659122 L148.560604,163.260637 C148.076318,163.490038 147.587096,163.651968 147.092938,163.747041 C146.598164,163.842113 146.03306,163.889343 145.397627,163.889343 L145.397627,163.889343 Z M145.034875,155.771977 C144.404994,155.771977 143.900349,155.970709 143.52094,156.367561 C143.140913,156.764413 142.914502,157.343436 142.841705,158.103404 L147.075664,158.103404 C147.06456,157.337302 146.878865,156.757052 146.519198,156.363267 C146.15953,155.968869 145.664139,155.771977 145.034875,155.771977 L145.034875,155.771977 Z" id="Fill-31" fill="#FFFFFF" sketch:type="MSShapeGroup"></path>
            <path d="M157.113043,163.721892 L156.71636,162.430131 L156.649115,162.430131 C156.198759,162.995047 155.746553,163.379631 155.291262,163.58327 C154.835354,163.787523 154.250508,163.889343 153.536726,163.889343 C152.620591,163.889343 151.904341,163.643994 151.389825,163.151456 C150.875926,162.660145 150.618051,161.963968 150.618051,161.063538 C150.618051,160.107291 150.975868,159.386578 151.689651,158.900174 C152.403433,158.41377 153.49169,158.14818 154.953804,158.103404 L156.564596,158.053108 L156.564596,157.558116 C156.564596,156.965599 156.425788,156.522744 156.146938,156.228939 C155.868704,155.935747 155.437473,155.788538 154.852628,155.788538 C154.37451,155.788538 153.916135,155.859076 153.477501,155.998311 C153.038867,156.13816 152.617507,156.303157 152.212186,156.493302 L151.571201,155.084387 C152.077697,154.821863 152.631079,154.621904 153.233198,154.484509 C153.834701,154.347727 154.402272,154.279029 154.93653,154.279029 C156.122877,154.279029 157.018653,154.536645 157.62324,155.050651 C158.22721,155.56527 158.530121,156.373081 158.530121,157.474084 L158.530121,163.721892 L157.113043,163.721892 L157.113043,163.721892 Z M154.161054,162.379834 C154.881006,162.379834 155.458449,162.180488 155.893998,161.78057 C156.329547,161.381265 156.547939,160.820029 156.547939,160.099317 L156.547939,159.293959 L155.34987,159.344256 C154.417078,159.377991 153.737843,159.533174 153.313399,159.809805 C152.888337,160.086436 152.676114,160.510276 152.676114,161.080099 C152.676114,161.494125 152.800116,161.814305 153.047504,162.04064 C153.294891,162.266974 153.66628,162.379834 154.161054,162.379834 L154.161054,162.379834 Z" id="Fill-32" fill="#FFFFFF" sketch:type="MSShapeGroup"></path>
            <path d="M166.028234,154.279029 C166.427385,154.279029 166.756823,154.307244 167.014698,154.363061 L166.820983,156.199497 C166.539665,156.13264 166.247242,156.098904 165.943715,156.098904 C165.150966,156.098904 164.508746,156.35652 164.01644,156.870526 C163.524133,157.385145 163.278597,158.053108 163.278597,158.875026 L163.278597,163.721892 L161.296415,163.721892 L161.296415,154.447093 L162.8486,154.447093 L163.110176,156.082343 L163.211352,156.082343 C163.520432,155.529081 163.923901,155.089907 164.42176,154.765433 C164.919002,154.441573 165.454493,154.279029 166.028234,154.279029" id="Fill-33" fill="#FFFFFF" sketch:type="MSShapeGroup"></path>
            <path d="M0.172122224,57.4165349 L246.688163,57.4165349 L246.688163,57.9287006 L0.172122224,57.9287006 L0.172122224,57.4165349 Z" id="Stroke-34" stroke="#FFFFFF" sketch:type="MSShapeGroup"></path>
            <path d="M125.921905,203.621747 L123.931703,203.621747 L123.931703,197.919227 C123.931703,197.203422 123.786726,196.669788 123.497387,196.317712 C123.207432,195.965023 122.747823,195.788985 122.117942,195.788985 C121.280157,195.788985 120.66755,196.035561 120.279504,196.526872 C119.891458,197.01941 119.697126,197.843782 119.697126,199.001215 L119.697126,203.621747 L117.714944,203.621747 L117.714944,194.346948 L119.267129,194.346948 L119.545362,195.562651 L119.646538,195.562651 C119.927856,195.121023 120.327007,194.779988 120.844608,194.539547 C121.362208,194.299718 121.935332,194.178884 122.565213,194.178884 C124.803419,194.178884 125.921905,195.311169 125.921905,197.575125 L125.921905,203.621747" id="Fill-35" fill="#FFFFFF" sketch:type="MSShapeGroup"></path>
            <path d="M132.753738,203.789198 C131.303346,203.789198 130.16882,203.369038 129.350777,202.526878 C128.532734,201.685945 128.123095,200.527285 128.123095,199.051512 C128.123095,197.536483 128.503121,196.345314 129.26194,195.478619 C130.021375,194.612538 131.063979,194.178884 132.391603,194.178884 C133.622986,194.178884 134.595878,194.551201 135.309661,195.294608 C136.023443,196.038015 136.380643,197.061119 136.380643,198.363308 L136.380643,199.428735 L130.164502,199.428735 C130.19288,200.329166 130.4378,201.021049 130.898643,201.504387 C131.359486,201.987724 132.008492,202.229392 132.846894,202.229392 C133.397808,202.229392 133.910474,202.177869 134.386123,202.074209 C134.861156,201.971163 135.37197,201.799419 135.916715,201.558363 L135.916715,203.160491 C135.433046,203.389892 134.943824,203.551823 134.44905,203.646895 C133.954892,203.741968 133.389788,203.789198 132.753738,203.789198 L132.753738,203.789198 Z M132.391603,195.671831 C131.761722,195.671831 131.257077,195.870564 130.877051,196.267416 C130.497641,196.664267 130.27123,197.242677 130.198433,198.003259 L134.432393,198.003259 C134.421288,197.237157 134.235593,196.656907 133.875926,196.263122 C133.516258,195.868724 133.020867,195.671831 132.391603,195.671831 L132.391603,195.671831 Z" id="Fill-36" fill="#FFFFFF" sketch:type="MSShapeGroup"></path>
            <path d="M140.758347,203.621747 L137.215961,194.346948 L139.307338,194.346948 L141.205618,199.739102 C141.531355,200.644439 141.728154,201.376805 141.796016,201.936201 L141.863261,201.936201 C141.913849,201.533215 142.110648,200.801462 142.453658,199.739102 L144.351321,194.346948 L146.459973,194.346948 L142.900929,203.621747 L140.758347,203.621747" id="Fill-37" fill="#FFFFFF" sketch:type="MSShapeGroup"></path>
            <path d="M151.951227,203.789198 C150.500218,203.789198 149.365692,203.369038 148.547649,202.526878 C147.729606,201.685945 147.320584,200.527285 147.320584,199.051512 C147.320584,197.536483 147.699993,196.345314 148.458812,195.478619 C149.218247,194.612538 150.260851,194.178884 151.588475,194.178884 C152.819858,194.178884 153.79275,194.551201 154.506533,195.294608 C155.220932,196.038015 155.577515,197.061119 155.577515,198.363308 L155.577515,199.428735 L149.361374,199.428735 C149.389752,200.329166 149.634672,201.021049 150.095515,201.504387 C150.556358,201.987724 151.205981,202.229392 152.043766,202.229392 C152.595297,202.229392 153.107962,202.177869 153.582995,202.074209 C154.058645,201.971163 154.568842,201.799419 155.114204,201.558363 L155.114204,203.160491 C154.629918,203.389892 154.140696,203.551823 153.646538,203.646895 C153.151764,203.741968 152.58666,203.789198 151.951227,203.789198 L151.951227,203.789198 Z M151.588475,195.671831 C150.958594,195.671831 150.453949,195.870564 150.074539,196.267416 C149.694513,196.664267 149.468102,197.242677 149.395304,198.003259 L153.629264,198.003259 C153.61816,197.237157 153.432465,196.656907 153.072798,196.263122 C152.71313,195.868724 152.217739,195.671831 151.588475,195.671831 L151.588475,195.671831 Z" id="Fill-38" fill="#FFFFFF" sketch:type="MSShapeGroup"></path>
            <path d="M162.561729,194.178884 C162.96088,194.178884 163.290318,194.207099 163.548193,194.262916 L163.354479,196.099352 C163.07316,196.032494 162.780738,195.998759 162.47721,195.998759 C161.684461,195.998759 161.042242,196.255762 160.549935,196.770381 C160.057628,197.285 159.812092,197.952962 159.812092,198.774267 L159.812092,203.621747 L157.82991,203.621747 L157.82991,194.346948 L159.382095,194.346948 L159.643055,195.982198 L159.74423,195.982198 C160.053927,195.428323 160.457396,194.989762 160.954638,194.665288 C161.452497,194.341427 161.987988,194.178884 162.561729,194.178884" id="Fill-39" fill="#FFFFFF" sketch:type="MSShapeGroup"></path>
            <path d="M91.9743434,144.622099 L91.9743434,133.134253 L91.9743434,144.622099 Z M91.9743434,210.249233 C99.400893,210.249233 105.421469,204.262721 105.421469,196.880174 C105.421469,189.495174 99.400893,183.510503 91.9743434,183.510503 C84.5477938,183.510503 78.5272175,189.495174 78.5272175,196.880174 C78.5272175,204.262721 84.5477938,210.249233 91.9743434,210.249233 L91.9743434,210.249233 Z M91.9743434,133.13364 C99.400893,133.13364 105.421469,127.147741 105.421469,119.763355 C105.421469,112.379581 99.400893,106.393683 91.9743434,106.393683 C84.5477938,106.393683 78.5272175,112.379581 78.5272175,119.763355 C78.5272175,127.147741 84.5477938,133.13364 91.9743434,133.13364 L91.9743434,133.13364 Z M91.9743434,171.362055 C99.400893,171.362055 105.421469,165.376157 105.421469,157.99177 C105.421469,150.607997 99.400893,144.622099 91.9743434,144.622099 C84.5477938,144.622099 78.5272175,150.607997 78.5272175,157.99177 C78.5272175,165.376157 84.5477938,171.362055 91.9743434,171.362055 L91.9743434,171.362055 Z M91.9743434,182.849901 L91.9743434,171.362055 L91.9743434,182.849901 Z" id="Stroke-40" stroke="#FFFFFF" stroke-width="2" sketch:type="MSShapeGroup"></path>
            <ellipse id="Oval-5" fill="#D8D8D8" sketch:type="MSShapeGroup" cx="92" cy="196.5" rx="13" ry="13.5"></ellipse>
        </g>
    </g>
</svg>