<?xml version="1.0" encoding="UTF-8" standalone="no"?>
<svg width="30px" height="53px" viewBox="0 0 30 53" version="1.1" xmlns="http://www.w3.org/2000/svg" xmlns:xlink="http://www.w3.org/1999/xlink" xmlns:sketch="http://www.bohemiancoding.com/sketch/ns">
    <!-- Generator: Sketch 3.3 (11970) - http://www.bohemiancoding.com/sketch -->
    <title>setIcon</title>
    <desc>Created with Sketch.</desc>
    <defs></defs>
    <g id="Page-1" stroke="none" stroke-width="1" fill="none" fill-rule="evenodd" sketch:type="MSPage">
        <g id="setIcon" sketch:type="MSLayerGroup">
            <path d="M27.4233333,49.9508228 C19.298,49.9508228 15.5706667,43.1453544 15.5706667,30.4012025 L15.5706667,21.4817722 C15.5706667,21.0946709 15.8826667,20.7813671 16.2666667,20.7813671 C16.6513333,20.7813671 16.9626667,21.0946709 16.9626667,21.4817722 L16.9626667,30.4012025 C16.9626667,37.259 17.768,48.5500127 27.4233333,48.5500127 C27.808,48.5500127 28.1193333,48.8639873 28.1193333,49.2504177 C28.1193333,49.6368481 27.808,49.9508228 27.4233333,49.9508228 L27.4233333,49.9508228 Z" id="Fill-1" fill="#FFFFFF" sketch:type="MSShapeGroup"></path>
            <path d="M27.4233333,49.9508228 C19.298,49.9508228 15.5706667,43.1453544 15.5706667,30.4012025 L15.5706667,21.4817722 C15.5706667,21.0946709 15.8826667,20.7813671 16.2666667,20.7813671 C16.6513333,20.7813671 16.9626667,21.0946709 16.9626667,21.4817722 L16.9626667,30.4012025 C16.9626667,37.259 17.768,48.5500127 27.4233333,48.5500127 C27.808,48.5500127 28.1193333,48.8639873 28.1193333,49.2504177 C28.1193333,49.6368481 27.808,49.9508228 27.4233333,49.9508228 L27.4233333,49.9508228 Z" id="Stroke-2" stroke="#000000" sketch:type="MSShapeGroup"></path>
            <path d="M27.44,52.0708228 C18.4513333,52.0708228 13.5006667,45.0526835 13.5006667,32.3092025 L13.5006667,23.3891013 C13.5006667,23.0026709 13.8126667,22.6886962 14.1966667,22.6886962 C14.5806667,22.6886962 14.8926667,23.0026709 14.8926667,23.3891013 L14.8926667,32.3092025 C14.8926667,39.1663291 16.5226667,50.6706835 27.44,50.6706835 C27.8246667,50.6706835 28.136,50.9839873 28.136,51.3704177 C28.136,51.757519 27.8246667,52.0708228 27.44,52.0708228 L27.44,52.0708228 Z" id="Fill-3" fill="#FFFFFF" sketch:type="MSShapeGroup"></path>
            <path d="M27.44,52.0708228 C18.4513333,52.0708228 13.5006667,45.0526835 13.5006667,32.3092025 L13.5006667,23.3891013 C13.5006667,23.0026709 13.8126667,22.6886962 14.1966667,22.6886962 C14.5806667,22.6886962 14.8926667,23.0026709 14.8926667,23.3891013 L14.8926667,32.3092025 C14.8926667,39.1663291 16.5226667,50.6706835 27.44,50.6706835 C27.8246667,50.6706835 28.136,50.9839873 28.136,51.3704177 C28.136,51.757519 27.8246667,52.0708228 27.44,52.0708228 L27.44,52.0708228 Z" id="Stroke-4" stroke="#000000" sketch:type="MSShapeGroup"></path>
            <path d="M15.09,0.255607595 C7.018,0.255607595 0.476,6.83968354 0.476,14.9627722 C0.476,22.3217215 5.818,28.3972658 12.828,29.4787342 L12.828,22.1580253 L17.6453333,22.1580253 L17.6453333,29.4290886 C24.4946667,28.2107595 29.7033333,22.2063291 29.7033333,14.9627722 C29.7033333,6.83968354 23.16,0.255607595 15.09,0.255607595" id="Fill-5" fill="#FFFFFF" sketch:type="MSShapeGroup"></path>
            <path d="M6.268,15.0218101 C6.268,10.0948228 10.2346667,6.10573418 15.128,6.10573418 C20.02,6.10573418 23.988,10.0948228 23.988,15.0218101 C23.988,19.9441013 20.02,23.9358734 15.128,23.9358734 C10.2346667,23.9358734 6.268,19.9441013 6.268,15.0218101" id="Fill-6" fill="#000000" sketch:type="MSShapeGroup"></path>
        </g>
    </g>
</svg>