<?xml version="1.0" encoding="UTF-8" standalone="no"?>
<svg width="39px" height="39px" viewBox="0 0 39 39" version="1.1" xmlns="http://www.w3.org/2000/svg" xmlns:xlink="http://www.w3.org/1999/xlink" xmlns:sketch="http://www.bohemiancoding.com/sketch/ns">
    <!-- Generator: Sketch 3.3 (11970) - http://www.bohemiancoding.com/sketch -->
    <title>settingsSmallIcon</title>
    <desc>Created with Sketch.</desc>
    <defs></defs>
    <g id="Page-1" stroke="none" stroke-width="1" fill="none" fill-rule="evenodd" sketch:type="MSPage">
        <path d="M38.583,18.12 C38.583,17.77 38.447,17.455 38.168,17.177 C37.891,16.901 37.605,16.738 37.3,16.687 L34.657,16.308 C33.852,16.209 33.323,15.781 33.071,15.026 L32.091,12.609 C31.738,11.906 31.789,11.225 32.242,10.571 L33.903,8.457 C34.356,7.803 34.329,7.172 33.827,6.568 L32.015,4.832 C31.46,4.33 30.857,4.303 30.202,4.756 L28.089,6.341 C27.434,6.846 26.753,6.92 26.049,6.568 L23.633,5.587 C23.331,5.487 23.041,5.273 22.765,4.944 C22.49,4.619 22.35,4.303 22.35,4 L21.972,1.359 C21.921,1.056 21.758,0.766 21.48,0.492 C21.204,0.214 20.888,0.076 20.537,0.076 C20.285,0.026 19.883,0 19.329,0 L18.122,0.076 C17.77,0.076 17.453,0.214 17.18,0.492 C16.9,0.767 16.737,1.056 16.689,1.359 L16.31,4 C16.209,4.807 15.783,5.335 15.027,5.587 L12.612,6.568 C11.905,6.922 11.226,6.846 10.572,6.341 L8.458,4.756 C7.802,4.303 7.175,4.33 6.571,4.832 L4.833,6.568 C4.329,7.172 4.305,7.803 4.756,8.458 L6.343,10.571 C6.845,11.227 6.921,11.906 6.569,12.609 L5.588,15.026 C5.487,15.328 5.274,15.618 4.946,15.894 C4.618,16.172 4.303,16.309 4.002,16.309 L1.361,16.687 C1.058,16.738 0.767,16.901 0.492,17.179 C0.213,17.455 0.076,17.77 0.076,18.122 C0.025,18.374 0,18.776 0,19.329 L0.076,20.537 C0.076,20.889 0.213,21.206 0.492,21.479 C0.767,21.759 1.058,21.922 1.361,21.971 L4.002,22.349 C4.303,22.349 4.619,22.489 4.946,22.764 C5.274,23.043 5.487,23.331 5.588,23.632 L6.569,26.049 C6.921,26.756 6.845,27.434 6.343,28.087 L4.756,30.202 C4.303,30.858 4.254,31.385 4.607,31.787 C4.656,31.839 4.72,31.914 4.797,32.014 C4.87,32.115 4.957,32.227 5.06,32.354 C5.158,32.479 5.261,32.592 5.361,32.693 C5.461,32.795 5.562,32.896 5.662,32.995 C5.763,33.096 5.864,33.197 5.966,33.297 C6.065,33.398 6.166,33.474 6.267,33.523 C6.468,33.726 6.808,33.876 7.285,33.978 C7.763,34.079 8.155,34.052 8.458,33.901 L10.572,32.316 C11.226,31.813 11.905,31.738 12.61,32.09 L15.027,33.071 C15.328,33.172 15.616,33.385 15.895,33.714 C16.17,34.041 16.31,34.354 16.31,34.657 L16.687,37.299 C16.737,37.602 16.9,37.891 17.178,38.167 C17.453,38.444 17.77,38.583 18.122,38.583 C18.372,38.632 18.775,38.659 19.329,38.659 L20.537,38.583 C20.89,38.583 21.204,38.444 21.482,38.167 C21.758,37.891 21.921,37.602 21.972,37.299 L22.35,34.657 C22.35,34.355 22.49,34.041 22.765,33.714 C23.043,33.386 23.331,33.172 23.634,33.072 L26.049,32.09 C26.754,31.738 27.434,31.813 28.089,32.317 L30.202,33.902 C30.857,34.355 31.486,34.331 32.091,33.827 L33.827,32.09 C34.329,31.486 34.356,30.856 33.903,30.201 L32.242,28.087 C31.789,27.434 31.738,26.754 32.091,26.049 L33.074,23.632 C33.324,22.878 33.852,22.451 34.658,22.349 L37.301,21.971 C37.605,21.922 37.893,21.759 38.168,21.479 C38.447,21.206 38.585,20.889 38.585,20.537 C38.633,20.287 38.659,19.884 38.659,19.329 L38.583,18.12 L38.583,18.12 Z M19.329,27.635 C14.742,27.635 11.024,23.917 11.024,19.329 C11.024,14.742 14.742,11.023 19.329,11.023 C23.918,11.023 27.637,14.742 27.637,19.329 C27.637,23.917 23.918,27.635 19.329,27.635 L19.329,27.635 Z" id="settingsSmallIcon" fill="#000000" sketch:type="MSShapeGroup"></path>
    </g>
</svg>