<?xml version="1.0" encoding="UTF-8" standalone="no"?>
<svg width="42px" height="33px" viewBox="0 0 42 33" version="1.1" xmlns="http://www.w3.org/2000/svg" xmlns:xlink="http://www.w3.org/1999/xlink" xmlns:sketch="http://www.bohemiancoding.com/sketch/ns">
    <!-- Generator: Sketch 3.3 (11970) - http://www.bohemiancoding.com/sketch -->
    <title>soundSmallIcon</title>
    <desc>Created with Sketch.</desc>
    <defs></defs>
    <g id="Page-1" stroke="none" stroke-width="1" fill="none" fill-rule="evenodd" sketch:type="MSPage">
        <g id="soundSmallIcon" sketch:type="MSLayerGroup" fill="#000000">
            <path d="M22.406,16.285 L22.406,30.704 C22.406,31.626 21.79,32.198 20.947,32.026 C20.71,31.978 20.472,31.827 20.29,31.663 C17.405,29.079 14.532,26.485 11.661,23.887 C11.49,23.732 11.321,23.677 11.099,23.678 C8.181,23.684 5.267,23.68 2.351,23.682 C1.86,23.684 1.406,23.592 1.144,23.134 C1.023,22.921 0.933,22.656 0.931,22.414 C0.919,18.331 0.923,14.249 0.923,10.163 C0.923,9.448 1.365,8.969 2.077,8.903 C2.222,8.89 2.366,8.89 2.511,8.89 C5.359,8.89 8.208,8.885 11.056,8.895 C11.321,8.895 11.517,8.818 11.708,8.64 C14.556,6.065 17.405,3.495 20.255,0.925 C20.81,0.426 21.417,0.37 21.949,0.772 C22.298,1.036 22.406,1.409 22.406,1.829 L22.406,6.403 L22.406,16.285" id="Fill-2" sketch:type="MSShapeGroup"></path>
            <path d="M41.595,17.605 C41.388,22.925 38.7,28.235 33.253,32.085 C32.677,32.491 31.939,32.389 31.55,31.872 C31.134,31.321 31.234,30.618 31.806,30.162 C32.21,29.834 32.651,29.546 33.052,29.214 C36.486,26.376 38.562,22.737 39.036,18.329 C39.728,11.901 37.376,6.71 32.235,2.786 C32.138,2.712 32.034,2.646 31.939,2.569 C31.372,2.112 31.267,1.409 31.67,0.855 C32.061,0.324 32.809,0.229 33.4,0.643 C35.222,1.916 36.782,3.456 38.075,5.27 C40.333,8.443 41.593,12.372 41.595,17.605" id="Fill-3" sketch:type="MSShapeGroup"></path>
            <path d="M35.654,16.348 C35.405,21.185 33.267,24.855 28.931,27.157 C28.372,27.452 27.663,27.251 27.345,26.731 C27.005,26.18 27.14,25.499 27.679,25.112 C27.812,25.015 27.962,24.938 28.109,24.855 C31.06,23.214 32.814,20.69 33.134,17.357 C33.525,13.29 31.886,10.112 28.392,7.932 C28.165,7.792 27.919,7.68 27.703,7.528 C27.155,7.141 27.015,6.467 27.351,5.912 C27.679,5.381 28.392,5.189 28.966,5.487 C31.641,6.868 33.57,8.932 34.718,11.722 C35.325,13.202 35.65,14.733 35.654,16.348" id="Fill-4" sketch:type="MSShapeGroup"></path>
            <path d="M29.843,16.319 C29.804,18.944 27.949,21.198 25.376,21.717 C24.77,21.84 24.118,21.448 23.968,20.871 C23.802,20.238 24.136,19.62 24.74,19.397 C25.165,19.241 25.624,19.131 25.991,18.884 C27.98,17.551 27.833,14.697 25.728,13.567 C25.4,13.393 25.015,13.329 24.653,13.223 C23.739,12.947 23.46,11.881 24.13,11.207 C24.427,10.907 24.802,10.811 25.204,10.88 C27.722,11.306 29.279,13.155 29.737,15.327 C29.808,15.651 29.81,15.987 29.843,16.319" id="Fill-5" sketch:type="MSShapeGroup"></path>
        </g>
    </g>
</svg>