<?xml version="1.0" encoding="UTF-8" standalone="no"?>
<svg width="360px" height="591px" viewBox="0 0 360 591" version="1.1" xmlns="http://www.w3.org/2000/svg" xmlns:xlink="http://www.w3.org/1999/xlink" xmlns:sketch="http://www.bohemiancoding.com/sketch/ns">
    <!-- Generator: Sketch 3.3.1 (12002) - http://www.bohemiancoding.com/sketch -->
    <title>splashScreen</title>
    <desc>Created with Sketch.</desc>
    <defs></defs>
    <g id="Page-1" stroke="none" stroke-width="1" fill="none" fill-rule="evenodd" sketch:type="MSPage">
        <g id="splashScreen" sketch:type="MSLayerGroup">
            <path d="M0.111127542,0.602883549 L359.445693,0.602883549 L359.445693,590.843179 L0.111127542,590.843179 L0.111127542,0.602883549 Z" id="Fill-1" fill="#000000" sketch:type="MSShapeGroup"></path>
            <path d="M243.290795,295.305804 C243.290795,260.279335 214.89671,231.88525 179.869575,231.88525 C144.84244,231.88525 116.448355,260.279335 116.448355,295.305804 C116.448355,330.332939 144.84244,358.728355 179.869575,358.728355 C214.89671,358.728355 243.290795,330.332939 243.290795,295.305804" id="Fill-2" fill="#808184" sketch:type="MSShapeGroup"></path>
            <path d="M183.97464,307.145878 C183.97464,313.958595 188.554824,321.619076 197.942773,321.619076 C207.323401,321.619076 211.890943,313.958595 211.890943,307.145878 C211.890943,297.129094 197.942773,274.985434 197.942773,274.985434 C197.942773,274.985434 183.97464,297.129094 183.97464,307.145878 Z" id="Fill-3" fill="#000000" sketch:type="MSShapeGroup"></path>
            <path d="M159.899224,317.310388 C159.899224,317.310388 173.866691,295.166728 173.866691,285.149945 C173.866691,278.337227 169.287172,270.676747 159.899224,270.676747 C150.518595,270.676747 145.951054,278.337227 145.951054,285.149945 C145.951054,295.166728 159.899224,317.310388 159.899224,317.310388" id="Fill-4" fill="#FFFFFF" sketch:type="MSShapeGroup"></path>
            <path d="M127.703512,407.740924 L126.339372,407.740924 L123.943142,399.867505 C123.829353,399.519482 123.70159,399.080296 123.561183,398.548614 C123.420776,398.018262 123.346913,397.699519 123.34159,397.591719 C123.223142,398.300407 123.033494,399.074972 122.773309,399.915416 L120.450277,407.740924 L119.085471,407.740924 L115.925989,395.98403 L117.387948,395.98403 L119.264473,403.24525 C119.523993,404.264695 119.713641,405.185656 119.832754,406.01146 C119.97915,405.031275 120.195416,404.071054 120.482884,403.132791 L122.610943,395.98403 L124.072902,395.98403 L126.3061,403.197338 C126.566285,404.0278 126.785878,404.966063 126.96488,406.01146 C127.067357,405.250869 127.262329,404.322588 127.549797,403.229945 L129.417671,395.98403 L130.880296,395.98403 L127.703512,407.740924" id="Fill-9" fill="#FFFFFF" sketch:type="MSShapeGroup"></path>
            <path d="M135.849094,407.901959 C134.532865,407.901959 133.494122,407.504695 132.734196,406.711497 C131.972939,405.917634 131.592976,404.817006 131.592976,403.40695 C131.592976,401.986248 131.945656,400.857006 132.653013,400.02122 C133.359039,399.184104 134.308614,398.766876 135.499741,398.766876 C136.615675,398.766876 137.498041,399.129538 138.14817,399.855527 C138.797634,400.582847 139.122366,401.540407 139.122366,402.730869 L139.122366,403.575305 L132.990388,403.575305 C133.017006,404.610055 133.280518,405.395268 133.78159,405.932274 C134.282662,406.467283 134.988022,406.735453 135.897671,406.735453 C136.856562,406.735453 137.80414,406.537153 138.741072,406.139889 L138.741072,407.330351 C138.263956,407.53464 137.813457,407.679704 137.388244,407.768207 C136.963031,407.85671 136.449982,407.901959 135.849094,407.901959 L135.849094,407.901959 Z M135.483771,399.884806 C134.769094,399.884806 134.198817,400.114381 133.773604,400.576192 C133.348392,401.037338 133.098189,401.674159 133.022994,402.489316 L137.677043,402.489316 C137.677043,401.648207 137.486728,401.003401 137.108096,400.554898 C136.729464,400.108392 136.1878,399.884806 135.483771,399.884806 L135.483771,399.884806 Z" id="Fill-10" fill="#FFFFFF" sketch:type="MSShapeGroup"></path>
            <path d="M141.301664,395.228096 L142.649834,395.228096 L142.649834,407.74159 L141.301664,407.74159 L141.301664,395.228096 Z" id="Fill-11" fill="#FFFFFF" sketch:type="MSShapeGroup"></path>
            <path d="M148.931534,407.901959 C147.642588,407.901959 146.644436,407.508688 145.93841,406.723475 C145.231054,405.938262 144.878373,404.826987 144.878373,403.389649 C144.878373,401.915712 145.236377,400.775823 145.954381,399.972643 C146.671719,399.168133 147.693826,398.766876 149.020037,398.766876 C149.448577,398.766876 149.876451,398.812126 150.304325,398.90329 C150.7322,398.994455 151.067579,399.100924 151.311793,399.22403 L150.897227,400.358595 C150.599778,400.240813 150.274381,400.142994 149.922366,400.065139 C149.570351,399.987283 149.258928,399.948022 148.988096,399.948022 C147.179445,399.948022 146.27512,401.090573 146.27512,403.374344 C146.27512,404.45634 146.495379,405.288799 146.937227,405.867061 C147.37841,406.446654 148.032532,406.735453 148.898928,406.735453 C149.640887,406.735453 150.401479,406.577745 151.181368,406.260998 L151.181368,407.443475 C150.585804,407.748909 149.83586,407.901959 148.931534,407.901959" id="Fill-12" fill="#FFFFFF" sketch:type="MSShapeGroup"></path>
            <path d="M160.68244,403.325767 C160.68244,404.76244 160.316451,405.885028 159.585804,406.690869 C158.854492,407.498041 157.844362,407.901959 156.556081,407.901959 C155.759556,407.901959 155.052865,407.716303 154.435342,407.346987 C153.817819,406.977006 153.341368,406.446654 153.005989,405.753937 C152.67061,405.062551 152.502921,404.254048 152.502921,403.325767 C152.502921,401.888429 152.865582,400.769834 153.59024,399.969316 C154.316229,399.166802 155.323697,398.766876 156.612643,398.766876 C157.858336,398.766876 158.847837,399.176118 159.581811,399.995933 C160.31512,400.816414 160.68244,401.926359 160.68244,403.325767 L160.68244,403.325767 Z M153.900333,403.325767 C153.900333,404.451682 154.127246,405.309427 154.582403,405.899002 C155.03756,406.489242 155.706322,406.783364 156.588688,406.783364 C157.471054,406.783364 158.141146,406.490573 158.598965,405.902994 C159.056118,405.316081 159.285028,404.45634 159.285028,403.325767 C159.285028,402.205841 159.056118,401.35475 158.598965,400.772495 C158.141146,400.190906 157.46573,399.900111 156.572052,399.900111 C155.689686,399.900111 155.023586,400.187579 154.573752,400.760518 C154.124584,401.333457 153.900333,402.189205 153.900333,403.325767 L153.900333,403.325767 Z" id="Fill-13" fill="#FFFFFF" sketch:type="MSShapeGroup"></path>
            <path d="M174.248651,407.740924 L174.248651,402.006876 C174.248651,401.304843 174.097597,400.777819 173.794159,400.42647 C173.491386,400.075786 173.020259,399.900111 172.381442,399.900111 C171.541664,399.900111 170.922144,400.139002 170.520887,400.616118 C170.120296,401.093235 169.92,401.827209 169.92,402.818706 L169.92,407.740924 L168.571165,407.740924 L168.571165,402.006876 C168.571165,401.304843 168.420111,400.777819 168.116673,400.42647 C167.813235,400.075786 167.339445,399.900111 166.695305,399.900111 C165.850203,399.900111 165.231349,400.15098 164.838743,400.651386 C164.446137,401.153124 164.249834,401.97427 164.249834,403.116821 L164.249834,407.740924 L162.901664,407.740924 L162.901664,398.92658 L163.998299,398.92658 L164.217227,400.133013 L164.28244,400.133013 C164.537301,399.703808 164.89597,399.36976 165.358447,399.128207 C165.822255,398.886654 166.340628,398.766876 166.914233,398.766876 C168.306322,398.766876 169.21597,399.264621 169.643845,400.261442 L169.708392,400.261442 C169.9739,399.800961 170.358521,399.436303 170.862255,399.168133 C171.365989,398.900628 171.939593,398.766876 172.584399,398.766876 C173.591201,398.766876 174.345139,399.023068 174.846211,399.533457 C175.347283,400.045841 175.598152,400.864325 175.598152,401.990906 L175.598152,407.740924 L174.248651,407.740924" id="Fill-14" fill="#FFFFFF" sketch:type="MSShapeGroup"></path>
            <path d="M182.008946,407.901959 C180.692052,407.901959 179.653974,407.504695 178.893383,406.711497 C178.132126,405.917634 177.752163,404.817006 177.752163,403.40695 C177.752163,401.986248 178.104843,400.857006 178.8122,400.02122 C179.518226,399.184104 180.4678,398.766876 181.658928,398.766876 C182.774861,398.766876 183.657227,399.129538 184.307357,399.855527 C184.957486,400.582847 185.281553,401.540407 185.281553,402.730869 L185.281553,403.575305 L179.149575,403.575305 C179.176192,404.610055 179.439704,405.395268 179.940776,405.932274 C180.441848,406.467283 181.147209,406.735453 182.056858,406.735453 C183.016414,406.735453 183.963327,406.537153 184.900259,406.139889 L184.900259,407.330351 C184.423808,407.53464 183.972643,407.679704 183.547431,407.768207 C183.122218,407.85671 182.609168,407.901959 182.008946,407.901959 L182.008946,407.901959 Z M181.642957,399.884806 C180.928281,399.884806 180.358004,400.114381 179.932791,400.576192 C179.507579,401.037338 179.257375,401.674159 179.182181,402.489316 L183.836229,402.489316 C183.836229,401.648207 183.64658,401.003401 183.267283,400.554898 C182.888651,400.108392 182.346987,399.884806 181.642957,399.884806 L181.642957,399.884806 Z" id="Fill-15" fill="#FFFFFF" sketch:type="MSShapeGroup"></path>
            <path d="M194.777301,406.8 C195.016192,406.8 195.245767,406.782033 195.468022,406.748096 C195.689612,406.712828 195.865952,406.676895 195.995712,406.638965 L195.995712,407.660407 C195.849316,407.730277 195.634381,407.78817 195.349575,407.83342 C195.0661,407.878669 194.809908,407.901959 194.582329,407.901959 C192.860185,407.901959 191.999778,407.004288 191.999778,405.208281 L191.999778,399.963993 L190.72414,399.963993 L190.72414,399.320518 L191.999778,398.766876 L192.568059,396.885028 L193.347948,396.885028 L193.347948,398.92658 L195.931165,398.92658 L195.931165,399.963993 L193.347948,399.963993 L193.347948,405.150388 C193.347948,405.682736 193.475046,406.089316 193.729242,406.373457 C193.984104,406.658262 194.333457,406.8 194.777301,406.8" id="Fill-16" fill="#FFFFFF" sketch:type="MSShapeGroup"></path>
            <path d="M205.225287,403.325767 C205.225287,404.76244 204.859298,405.885028 204.128651,406.690869 C203.396673,407.498041 202.387209,407.901959 201.098262,407.901959 C200.302403,407.901959 199.595712,407.716303 198.978189,407.346987 C198.360665,406.977006 197.884214,406.446654 197.54817,405.753937 C197.212791,405.062551 197.045102,404.254048 197.045102,403.325767 C197.045102,401.888429 197.407763,400.769834 198.133087,399.969316 C198.859076,399.166802 199.866543,398.766876 201.154824,398.766876 C202.400518,398.766876 203.390018,399.176118 204.123993,399.995933 C204.857967,400.816414 205.225287,401.926359 205.225287,403.325767 L205.225287,403.325767 Z M198.442514,403.325767 C198.442514,404.451682 198.670092,405.309427 199.124584,405.899002 C199.579741,406.489242 200.248503,406.783364 201.130869,406.783364 C202.013235,406.783364 202.683327,406.490573 203.141811,405.902994 C203.598965,405.316081 203.827874,404.45634 203.827874,403.325767 C203.827874,402.205841 203.598965,401.35475 203.141811,400.772495 C202.683327,400.190906 202.007911,399.900111 201.114898,399.900111 C200.231867,399.900111 199.565767,400.187579 199.116599,400.760518 C198.666765,401.333457 198.442514,402.189205 198.442514,403.325767 L198.442514,403.325767 Z" id="Fill-17" fill="#FFFFFF" sketch:type="MSShapeGroup"></path>
            <path d="M241.211978,405.82647 L241.333087,406.01146 C241.19268,406.5478 240.989057,407.171978 240.724214,407.881331 C240.459372,408.59268 240.183216,409.252126 239.895749,409.86366 L238.880961,409.86366 C239.026026,409.306026 239.187061,408.617301 239.363401,407.796821 C239.539741,406.977006 239.662847,406.320222 239.733383,405.82647 L241.211978,405.82647" id="Fill-22" fill="#FFFFFF" sketch:type="MSShapeGroup"></path>
            <path d="M107.283993,426.763031 C107.522218,426.763031 107.752458,426.745065 107.974713,426.711128 C108.196303,426.67586 108.372643,426.639926 108.502403,426.601996 L108.502403,427.623438 C108.356007,427.693309 108.141072,427.751201 107.856266,427.796451 C107.572126,427.841701 107.316599,427.864991 107.08902,427.864991 C105.366876,427.864991 104.505804,426.96732 104.505804,425.171312 L104.505804,419.927024 L103.230832,419.927024 L103.230832,419.283549 L104.505804,418.729908 L105.07475,416.848059 L105.853974,416.848059 L105.853974,418.889612 L108.43719,418.889612 L108.43719,419.927024 L105.853974,419.927024 L105.853974,425.11342 C105.853974,425.645767 105.981738,426.052348 106.235933,426.336488 C106.490129,426.621294 106.840148,426.763031 107.283993,426.763031" id="Fill-23" fill="#FFFFFF" sketch:type="MSShapeGroup"></path>
            <path d="M116.351867,427.703956 L116.351867,422.002514 C116.351867,421.283845 116.186839,420.74817 115.855453,420.393494 C115.526063,420.040148 115.008355,419.863142 114.304325,419.863142 C113.367394,419.863142 112.683993,420.115342 112.253457,420.619741 C111.822921,421.12281 111.607985,421.949279 111.607985,423.095823 L111.607985,427.703956 L110.259815,427.703956 L110.259815,415.191128 L111.607985,415.191128 L111.607985,418.978115 C111.607985,419.433937 111.586691,419.812569 111.542773,420.11268 L111.623956,420.11268 C111.889464,419.688799 112.266765,419.35475 112.75719,419.110536 C113.247616,418.867652 113.805915,418.745213 114.43475,418.745213 C115.523401,418.745213 116.339224,419.001405 116.883549,419.513124 C117.427874,420.025508 117.700037,420.839335 117.700037,421.953937 L117.700037,427.703956 L116.351867,427.703956" id="Fill-24" fill="#FFFFFF" sketch:type="MSShapeGroup"></path>
            <path d="M124.106174,427.864991 C122.789279,427.864991 121.751201,427.467726 120.991275,426.674529 C120.230018,425.880665 119.84939,424.780037 119.84939,423.369982 C119.84939,421.949279 120.202736,420.820037 120.909427,419.984251 C121.616118,419.147135 122.565693,418.729908 123.756155,418.729908 C124.872754,418.729908 125.75512,419.092569 126.404584,419.818558 C127.054713,420.545878 127.379445,421.503438 127.379445,422.6939 L127.379445,423.538336 L121.246802,423.538336 C121.27342,424.573087 121.537597,425.358299 122.038669,425.895305 C122.539076,426.430314 123.244436,426.698484 124.154085,426.698484 C125.113641,426.698484 126.06122,426.500185 126.998152,426.102921 L126.998152,427.293383 C126.521035,427.497671 126.069871,427.642736 125.645323,427.731238 C125.220111,427.819741 124.706396,427.864991 124.106174,427.864991 L124.106174,427.864991 Z M123.740185,419.847837 C123.025508,419.847837 122.455896,420.077412 122.030684,420.539224 C121.604806,421.00037 121.354603,421.63719 121.279409,422.452348 L125.933457,422.452348 C125.933457,421.611238 125.743808,420.966433 125.365176,420.51793 C124.985878,420.071423 124.444214,419.847837 123.740185,419.847837 L123.740185,419.847837 Z" id="Fill-25" fill="#FFFFFF" sketch:type="MSShapeGroup"></path>
            <path d="M139.474381,427.703956 L139.206211,426.450277 L139.140998,426.450277 C138.697153,427.000591 138.25464,427.375231 137.813457,427.571534 C137.370943,427.766506 136.821294,427.864991 136.159852,427.864991 C135.277486,427.864991 134.585434,427.638743 134.084362,427.189575 C133.58329,426.73841 133.333087,426.097597 133.333087,425.267135 C133.333087,423.486433 134.771091,422.554824 137.646433,422.468983 L139.157634,422.421072 L139.157634,421.87342 C139.157634,421.182033 139.007246,420.671645 138.707135,420.34159 C138.405693,420.011534 137.92525,419.847837 137.265139,419.847837 C136.522514,419.847837 135.684067,420.072089 134.74647,420.521922 L134.331904,419.501811 C134.771091,419.264917 135.251534,419.080591 135.7739,418.946839 C136.296932,418.813087 136.821294,418.745213 137.345656,418.745213 C138.407024,418.745213 139.194233,418.978115 139.705952,419.444584 C140.217671,419.911054 140.473198,420.659667 140.473198,421.689094 L140.473198,427.703956 L139.474381,427.703956 L139.474381,427.703956 Z M136.428022,426.763031 C137.267135,426.763031 137.927246,426.535453 138.405693,426.07963 C138.885471,425.623142 139.125028,424.984991 139.125028,424.165176 L139.125028,423.369982 L137.776192,423.425878 C136.704177,423.463142 135.931608,423.62817 135.457819,423.920296 C134.983364,424.211756 134.74647,424.666913 134.74647,425.28244 C134.74647,425.766211 134.894196,426.132865 135.189649,426.385065 C135.484436,426.637264 135.897671,426.763031 136.428022,426.763031 L136.428022,426.763031 Z" id="Fill-26" fill="#FFFFFF" sketch:type="MSShapeGroup"></path>
            <path d="M143.085028,415.191128 L144.433198,415.191128 L144.433198,427.704621 L143.085028,427.704621 L143.085028,415.191128 Z" id="Fill-27" fill="#FFFFFF" sketch:type="MSShapeGroup"></path>
            <path d="M147.082292,415.191128 L148.430462,415.191128 L148.430462,427.704621 L147.082292,427.704621 L147.082292,415.191128 Z" id="Fill-28" fill="#FFFFFF" sketch:type="MSShapeGroup"></path>
            <path d="M155.497375,416.502033 C155.497375,416.195268 155.573235,415.971682 155.724954,415.829945 C155.876007,415.688872 156.066322,415.617006 156.293235,415.617006 C156.510166,415.617006 156.697153,415.690203 156.85353,415.833937 C157.010573,415.978336 157.089094,416.201922 157.089094,416.502033 C157.089094,416.80281 157.010573,417.02573 156.85353,417.172791 C156.697153,417.321183 156.510166,417.393715 156.293235,417.393715 C156.066322,417.393715 155.876007,417.321183 155.724954,417.172791 C155.573235,417.02573 155.497375,416.80281 155.497375,416.502033 L155.497375,416.502033 Z M155.611165,418.889612 L156.959335,418.889612 L156.959335,427.703956 L155.611165,427.703956 L155.611165,418.889612 Z" id="Fill-29" fill="#FFFFFF" sketch:type="MSShapeGroup"></path>
            <path d="M165.703142,427.703956 L165.703142,422.002514 C165.703142,421.283845 165.538115,420.74817 165.207394,420.393494 C164.877338,420.040148 164.35963,419.863142 163.656266,419.863142 C162.724658,419.863142 162.042588,420.11268 161.60939,420.610425 C161.175527,421.109501 160.959261,421.931978 160.959261,423.079852 L160.959261,427.703956 L159.610425,427.703956 L159.610425,418.889612 L160.707726,418.889612 L160.926654,420.096044 L160.991867,420.096044 C161.268022,419.661516 161.655305,419.324806 162.15305,419.087246 C162.65146,418.848355 163.206433,418.729908 163.818632,418.729908 C164.890647,418.729908 165.697819,418.9861 166.238817,419.496488 C166.780481,420.008872 167.051312,420.827357 167.051312,421.953937 L167.051312,427.703956 L165.703142,427.703956" id="Fill-30" fill="#FFFFFF" sketch:type="MSShapeGroup"></path>
            <path d="M181.827283,423.288799 C181.827283,424.725471 181.461294,425.848059 180.731312,426.6539 C179.999335,427.461072 178.989205,427.864991 177.700924,427.864991 C176.905065,427.864991 176.197708,427.679335 175.580185,427.310018 C174.963327,426.940037 174.486876,426.409686 174.150832,425.716969 C173.815453,425.025582 173.647763,424.217079 173.647763,423.288799 C173.647763,421.85146 174.010425,420.732865 174.735749,419.932348 C175.461738,419.129834 176.46854,418.729908 177.757486,418.729908 C179.003179,418.729908 179.99268,419.13915 180.726654,419.958965 C181.459963,420.779445 181.827283,421.88939 181.827283,423.288799 L181.827283,423.288799 Z M175.045176,423.288799 C175.045176,424.414713 175.272754,425.272458 175.727246,425.862033 C176.182403,426.452274 176.851165,426.746396 177.73353,426.746396 C178.615896,426.746396 179.285989,426.453604 179.743808,425.866026 C180.201627,425.279113 180.430536,424.419372 180.430536,423.288799 C180.430536,422.168872 180.201627,421.317782 179.743808,420.735527 C179.285989,420.153937 178.610573,419.863142 177.716895,419.863142 C176.834529,419.863142 176.169094,420.15061 175.719261,420.723549 C175.269427,421.296488 175.045176,422.152237 175.045176,423.288799 L175.045176,423.288799 Z" id="Fill-31" fill="#FFFFFF" sketch:type="MSShapeGroup"></path>
            <path d="M190.137893,427.703956 L190.137893,422.002514 C190.137893,421.283845 189.97353,420.74817 189.642144,420.393494 C189.312089,420.040148 188.795046,419.863142 188.091682,419.863142 C187.160074,419.863142 186.478004,420.11268 186.04414,420.610425 C185.610943,421.109501 185.394677,421.931978 185.394677,423.079852 L185.394677,427.703956 L184.045841,427.703956 L184.045841,418.889612 L185.142477,418.889612 L185.36207,420.096044 L185.426617,420.096044 C185.702773,419.661516 186.090721,419.324806 186.588466,419.087246 C187.086876,418.848355 187.641848,418.729908 188.253383,418.729908 C189.326063,418.729908 190.133235,418.9861 190.674233,419.496488 C191.215896,420.008872 191.486728,420.827357 191.486728,421.953937 L191.486728,427.703956 L190.137893,427.703956" id="Fill-32" fill="#FFFFFF" sketch:type="MSShapeGroup"></path>
            <path d="M197.892865,427.864991 C196.57597,427.864991 195.537893,427.467726 194.777301,426.674529 C194.016044,425.880665 193.636747,424.780037 193.636747,423.369982 C193.636747,421.949279 193.989427,420.820037 194.696118,419.984251 C195.40281,419.147135 196.351719,418.729908 197.543512,418.729908 C198.65878,418.729908 199.541146,419.092569 200.191275,419.818558 C200.841405,420.545878 201.166137,421.503438 201.166137,422.6939 L201.166137,423.538336 L195.033494,423.538336 C195.060111,424.573087 195.323623,425.358299 195.824695,425.895305 C196.326433,426.430314 197.031128,426.698484 197.940776,426.698484 C198.900333,426.698484 199.847246,426.500185 200.784177,426.102921 L200.784177,427.293383 C200.307726,427.497671 199.856562,427.642736 199.431349,427.731238 C199.006137,427.819741 198.493087,427.864991 197.892865,427.864991 L197.892865,427.864991 Z M197.526876,419.847837 C196.8122,419.847837 196.241922,420.077412 195.817375,420.539224 C195.391497,421.00037 195.141294,421.63719 195.0661,422.452348 L199.720148,422.452348 C199.720148,421.611238 199.530499,420.966433 199.151201,420.51793 C198.772569,420.071423 198.230906,419.847837 197.526876,419.847837 L197.526876,419.847837 Z" id="Fill-33" fill="#FFFFFF" sketch:type="MSShapeGroup"></path>
            <path d="M213.845323,426.521479 L213.772126,426.521479 C213.149945,427.417153 212.218336,427.864991 210.977967,427.864991 C209.814122,427.864991 208.908466,427.470388 208.260998,426.682514 C207.61353,425.895305 207.290795,424.773383 207.290795,423.321405 C207.290795,421.868762 207.615527,420.738854 208.265656,419.935675 C208.91512,419.131165 209.819445,418.729908 210.977967,418.729908 C212.18573,418.729908 213.112015,419.163771 213.756821,420.032163 L213.861959,420.032163 L213.804732,419.396673 L213.772126,418.777819 L213.772126,415.191128 L215.121627,415.191128 L215.121627,427.703956 L214.024325,427.703956 L213.845323,426.521479 L213.845323,426.521479 Z M211.148983,426.746396 C212.069279,426.746396 212.73671,426.499519 213.15061,426.00244 C213.565176,425.507357 213.772126,424.706839 213.772126,423.602218 L213.772126,423.321405 C213.772126,422.071054 213.562514,421.180702 213.14329,420.647024 C212.723401,420.114011 212.053309,419.847837 211.132348,419.847837 C210.341811,419.847837 209.736266,420.151941 209.317043,420.760148 C208.897153,421.368355 208.688207,422.227431 208.688207,423.337375 C208.688207,424.462625 208.895823,425.312384 209.31305,425.885989 C209.730277,426.460259 210.341811,426.746396 211.148983,426.746396 L211.148983,426.746396 Z" id="Fill-34" fill="#FFFFFF" sketch:type="MSShapeGroup"></path>
            <path d="M221.590314,427.864991 C220.274085,427.864991 219.235342,427.467726 218.475416,426.674529 C217.714159,425.880665 217.334196,424.780037 217.334196,423.369982 C217.334196,421.949279 217.686876,420.820037 218.393567,419.984251 C219.100259,419.147135 220.049834,418.729908 221.240961,418.729908 C222.356895,418.729908 223.239261,419.092569 223.888725,419.818558 C224.538854,420.545878 224.863586,421.503438 224.863586,422.6939 L224.863586,423.538336 L218.730943,423.538336 C218.75756,424.573087 219.021738,425.358299 219.52281,425.895305 C220.023216,426.430314 220.728577,426.698484 221.638891,426.698484 C222.597782,426.698484 223.54536,426.500185 224.482292,426.102921 L224.482292,427.293383 C224.005176,427.497671 223.554011,427.642736 223.129464,427.731238 C222.704251,427.819741 222.190536,427.864991 221.590314,427.864991 L221.590314,427.864991 Z M221.224325,419.847837 C220.509649,419.847837 219.940037,420.077412 219.514824,420.539224 C219.089612,421.00037 218.839409,421.63719 218.763549,422.452348 L223.417597,422.452348 C223.417597,421.611238 223.227948,420.966433 222.849316,420.51793 C222.470018,420.071423 221.928355,419.847837 221.224325,419.847837 L221.224325,419.847837 Z" id="Fill-35" fill="#FFFFFF" sketch:type="MSShapeGroup"></path>
            <path d="M229.063808,427.703956 L225.684067,418.889612 L227.130055,418.889612 L229.047172,424.117264 C229.48037,425.339667 229.734566,426.132865 229.811091,426.498189 L229.875638,426.498189 C229.935527,426.213383 230.123845,425.624473 230.440591,424.73146 C230.757338,423.839778 231.468022,421.892052 232.572643,418.889612 L234.018632,418.889612 L230.639556,427.703956 L229.063808,427.703956" id="Fill-36" fill="#FFFFFF" sketch:type="MSShapeGroup"></path>
            <path d="M235.482588,416.502033 C235.482588,416.195268 235.559113,415.971682 235.710166,415.829945 C235.86122,415.688872 236.051534,415.617006 236.278447,415.617006 C236.495379,415.617006 236.682366,415.690203 236.838743,415.833937 C236.996451,415.978336 237.074972,416.201922 237.074972,416.502033 C237.074972,416.80281 236.996451,417.02573 236.838743,417.172791 C236.682366,417.321183 236.495379,417.393715 236.278447,417.393715 C236.051534,417.393715 235.86122,417.321183 235.710166,417.172791 C235.559113,417.02573 235.482588,416.80281 235.482588,416.502033 L235.482588,416.502033 Z M235.596377,418.889612 L236.944547,418.889612 L236.944547,427.703956 L235.596377,427.703956 L235.596377,418.889612 Z" id="Fill-37" fill="#FFFFFF" sketch:type="MSShapeGroup"></path>
            <path d="M243.193641,427.864991 C241.904695,427.864991 240.906543,427.471719 240.200518,426.686506 C239.493161,425.901294 239.140481,424.790018 239.140481,423.35268 C239.140481,421.878743 239.498484,420.738854 240.216488,419.935675 C240.933826,419.131165 241.956599,418.729908 243.28281,418.729908 C243.710684,418.729908 244.138558,418.775157 244.567098,418.866322 C244.994307,418.957486 245.329686,419.063956 245.5739,419.187061 L245.159335,420.321627 C244.861885,420.203845 244.537153,420.106026 244.184473,420.02817 C243.832458,419.950314 243.521035,419.911054 243.250203,419.911054 C241.441553,419.911054 240.537893,421.053604 240.537893,423.337375 C240.537893,424.419372 240.758152,425.25183 241.199335,425.830092 C241.640518,426.409686 242.29464,426.698484 243.161035,426.698484 C243.90366,426.698484 244.664251,426.540776 245.44414,426.22403 L245.44414,427.406506 C244.847911,427.711941 244.098632,427.864991 243.193641,427.864991" id="Fill-38" fill="#FFFFFF" sketch:type="MSShapeGroup"></path>
            <path d="M251.031128,427.864991 C249.714898,427.864991 248.676155,427.467726 247.915564,426.674529 C247.154972,425.880665 246.775009,424.780037 246.775009,423.369982 C246.775009,421.949279 247.127689,420.820037 247.835046,419.984251 C248.541072,419.147135 249.490647,418.729908 250.681774,418.729908 C251.797708,418.729908 252.680074,419.092569 253.330203,419.818558 C253.979667,420.545878 254.304399,421.503438 254.304399,422.6939 L254.304399,423.538336 L248.171756,423.538336 C248.199039,424.573087 248.462551,425.358299 248.963623,425.895305 C249.464695,426.430314 250.16939,426.698484 251.079704,426.698484 C252.038595,426.698484 252.986174,426.500185 253.923105,426.102921 L253.923105,427.293383 C253.445989,427.497671 252.99549,427.642736 252.570277,427.731238 C252.145065,427.819741 251.632015,427.864991 251.031128,427.864991 L251.031128,427.864991 Z M250.665804,419.847837 C249.950462,419.847837 249.38085,420.077412 248.955638,420.539224 C248.52976,421.00037 248.280222,421.63719 248.204362,422.452348 L252.85841,422.452348 C252.85841,421.611238 252.668762,420.966433 252.290129,420.51793 C251.911497,420.071423 251.369168,419.847837 250.665804,419.847837 L250.665804,419.847837 Z" id="Fill-39" fill="#FFFFFF" sketch:type="MSShapeGroup"></path>
            <path d="M165.739076,439.890055 L163.473272,439.890055 L163.473272,447.666987 L162.124436,447.666987 L162.124436,439.890055 L160.532052,439.890055 L160.532052,439.286506 L162.124436,438.804732 L162.124436,438.314307 C162.124436,436.147652 163.08,435.065656 164.991793,435.065656 C165.463586,435.065656 166.015896,435.158817 166.64939,435.3478 L166.300037,436.415823 C165.780333,436.250795 165.335823,436.167616 164.967837,436.167616 C164.45878,436.167616 164.082144,436.335305 163.838595,436.669353 C163.595046,437.004732 163.473272,437.542403 163.473272,438.282366 L163.473272,438.852643 L165.739076,438.852643 L165.739076,439.890055" id="Fill-40" fill="#FFFFFF" sketch:type="MSShapeGroup"></path>
            <path d="M174.88414,443.25183 C174.88414,444.688503 174.518152,445.811091 173.787505,446.616932 C173.055527,447.424104 172.046063,447.828022 170.757782,447.828022 C169.961257,447.828022 169.254566,447.642366 168.637043,447.27305 C168.019519,446.903068 167.543734,446.372717 167.207024,445.68 C166.871645,444.988614 166.704621,444.180111 166.704621,443.25183 C166.704621,441.814492 167.066617,440.695896 167.791941,439.895379 C168.51793,439.092865 169.525397,438.692939 170.813678,438.692939 C172.060037,438.692939 173.049538,439.102181 173.783512,439.921996 C174.516821,440.742477 174.88414,441.852421 174.88414,443.25183 L174.88414,443.25183 Z M168.101368,443.25183 C168.101368,444.377745 168.328946,445.23549 168.784104,445.825065 C169.238595,446.415305 169.907357,446.709427 170.789723,446.709427 C171.672089,446.709427 172.342181,446.416636 172.800665,445.829057 C173.257819,445.242144 173.486728,444.382403 173.486728,443.25183 C173.486728,442.131904 173.257819,441.280813 172.800665,440.698558 C172.342181,440.116969 171.667431,439.826174 170.773752,439.826174 C169.891386,439.826174 169.225287,440.113641 168.775453,440.68658 C168.325619,441.259519 168.101368,442.115268 168.101368,443.25183 L168.101368,443.25183 Z" id="Fill-41" fill="#FFFFFF" sketch:type="MSShapeGroup"></path>
            <path d="M181.163845,438.692939 C181.559113,438.692939 181.913789,438.724214 182.22854,438.788762 L182.041553,440.0278 C181.672902,439.947283 181.34817,439.906691 181.066691,439.906691 C180.346026,439.906691 179.730499,440.196821 179.218115,440.775083 C178.707061,441.354677 178.450869,442.074677 178.450869,442.939076 L178.450869,447.666987 L177.102033,447.666987 L177.102033,438.852643 L178.215305,438.852643 L178.369686,440.484954 L178.434898,440.484954 C178.764954,439.912015 179.163549,439.470166 179.628688,439.158078 C180.094492,438.84732 180.606211,438.692939 181.163845,438.692939" id="Fill-42" fill="#FFFFFF" sketch:type="MSShapeGroup"></path>
            <path d="M182.201257,446.814566 C182.201257,446.455896 182.283771,446.183068 182.448799,445.998743 C182.613826,445.813752 182.851386,445.719926 183.159482,445.719926 C183.473567,445.719926 183.718447,445.813752 183.894787,445.998743 C184.070462,446.183068 184.158299,446.455896 184.158299,446.814566 C184.158299,447.162588 184.069131,447.430758 183.890795,447.619076 C183.711793,447.806063 183.468244,447.899889 183.159482,447.899889 C182.883327,447.899889 182.654418,447.815379 182.47342,447.646359 C182.291756,447.477338 182.201257,447.200518 182.201257,446.814566" id="Fill-43" fill="#FFFFFF" sketch:type="MSShapeGroup"></path>
            <path d="M186.354898,446.814566 C186.354898,446.455896 186.437412,446.183068 186.60244,445.998743 C186.767468,445.813752 187.004362,445.719926 187.313124,445.719926 C187.627209,445.719926 187.872089,445.813752 188.048429,445.998743 C188.224769,446.183068 188.311941,446.455896 188.311941,446.814566 C188.311941,447.162588 188.222773,447.430758 188.044436,447.619076 C187.8661,447.806063 187.621885,447.899889 187.313124,447.899889 C187.036969,447.899889 186.808725,447.815379 186.627061,447.646359 C186.444732,447.477338 186.354898,447.200518 186.354898,446.814566" id="Fill-44" fill="#FFFFFF" sketch:type="MSShapeGroup"></path>
            <path d="M190.50854,446.814566 C190.50854,446.455896 190.591054,446.183068 190.756081,445.998743 C190.921109,445.813752 191.158669,445.719926 191.466765,445.719926 C191.78085,445.719926 192.02573,445.813752 192.20207,445.998743 C192.37841,446.183068 192.466248,446.455896 192.466248,446.814566 C192.466248,447.162588 192.377079,447.430758 192.198078,447.619076 C192.019076,447.806063 191.775527,447.899889 191.466765,447.899889 C191.191275,447.899889 190.962366,447.815379 190.780702,447.646359 C190.599039,447.477338 190.50854,447.200518 190.50854,446.814566" id="Fill-45" fill="#FFFFFF" sketch:type="MSShapeGroup"></path>
            <path d="M194.662181,446.814566 C194.662181,446.455896 194.744695,446.183068 194.909723,445.998743 C195.07475,445.813752 195.312311,445.719926 195.621072,445.719926 C195.934492,445.719926 196.180037,445.813752 196.355712,445.998743 C196.532052,446.183068 196.619889,446.455896 196.619889,446.814566 C196.619889,447.162588 196.530721,447.430758 196.351719,447.619076 C196.173383,447.806063 195.929834,447.899889 195.621072,447.899889 C195.344917,447.899889 195.116007,447.815379 194.934344,447.646359 C194.75268,447.477338 194.662181,447.200518 194.662181,446.814566" id="Fill-46" fill="#FFFFFF" sketch:type="MSShapeGroup"></path>
        </g>
    </g>
</svg>