<?xml version="1.0" encoding="UTF-8" standalone="no"?>
<svg width="51px" height="51px" viewBox="0 0 51 51" version="1.1" xmlns="http://www.w3.org/2000/svg" xmlns:xlink="http://www.w3.org/1999/xlink" xmlns:sketch="http://www.bohemiancoding.com/sketch/ns">
    <!-- Generator: Sketch 3.3 (11970) - http://www.bohemiancoding.com/sketch -->
    <title>statusTitleIcon</title>
    <desc>Created with Sketch.</desc>
    <defs></defs>
    <g id="Page-1" stroke="none" stroke-width="1" fill="none" fill-rule="evenodd" sketch:type="MSPage">
        <g id="statusTitleIcon" sketch:type="MSLayerGroup">
            <path d="M50.2781048,22.1769966 C49.4281048,16.5109966 46.9211048,11.6809966 42.7771048,7.74499664 C38.1671048,3.36599664 32.6461048,1.08299664 26.2771048,0.872996635 C22.4401048,0.746996635 18.7541048,1.42599664 15.2631048,3.02399664 C9.23510478,5.78199664 4.90510478,10.2199966 2.34710478,16.3389966 C0.652104777,20.3949966 0.0961047767,24.6319966 0.635104777,28.9969966 C1.01310478,32.0589966 2.01110478,34.9339966 3.41310478,37.6759966 C3.57110478,37.9829966 3.73610478,38.0869966 4.08010478,38.0869966 C11.2211048,38.0749966 18.3611048,38.0769966 25.5011048,38.0769966 L32.5681048,38.0769966 C37.3821048,38.0769966 42.1961048,38.0769966 47.0101048,38.0779966 C47.2461048,38.0779966 47.4411048,38.0909966 47.5831048,37.8089966 C50.1001048,32.8759966 51.1041048,27.6839966 50.2781048,22.1769966 L50.2781048,22.1769966 Z M26.6731048,5.13399664 C26.5611048,7.00599664 26.4501048,8.85699664 26.3381048,10.7179966 L24.6171048,10.7179966 C24.5061048,8.85999664 24.3961048,7.01699664 24.2831048,5.13399664 L26.6731048,5.13399664 L26.6731048,5.13399664 Z M4.25510478,27.3909966 L4.25510478,24.9989966 C6.10810478,25.1099966 7.93310478,25.2189966 9.79210478,25.3319966 C9.81910478,25.9229966 9.84210478,26.4469966 9.87010478,27.0469966 C7.99810478,27.1629966 6.14710478,27.2749966 4.25510478,27.3909966 L4.25510478,27.3909966 Z M11.5111048,19.1909966 C9.85710478,18.3469966 8.21510478,17.5079966 6.50710478,16.6359966 C6.91010478,15.9529966 7.30110478,15.2909966 7.72510478,14.5729966 C9.32510478,15.6399966 10.8481048,16.6559966 12.3971048,17.6879966 C12.0981048,18.1969966 11.8111048,18.6829966 11.5111048,19.1909966 L11.5111048,19.1909966 Z M16.9241048,13.1719966 C15.9171048,11.6349966 14.9071048,10.0939966 13.8571048,8.49299664 C14.5621048,8.09599664 15.2111048,7.73099664 15.9191048,7.33499664 C16.7681048,9.02799664 17.5901048,10.6729966 18.4231048,12.3369966 C17.9161048,12.6179966 17.4451048,12.8819966 16.9241048,13.1719966 L16.9241048,13.1719966 Z M31.2431048,28.1299966 C31.0201048,30.5209966 29.3821048,32.7249966 26.7381048,33.2729966 C24.3291048,33.7699966 22.2811048,32.9809966 20.8451048,30.9879966 C19.4651048,29.0749966 19.3521048,26.9929966 20.5121048,24.8919966 C21.1841048,23.6749966 22.1701048,22.8019966 23.4691048,22.3089966 C23.7661048,22.1959966 23.9421048,22.0299966 24.0001048,21.7379966 C24.2201048,20.6159966 24.4331048,19.4919966 24.6471048,18.3699966 C24.8251048,17.4319966 24.9961048,16.4939966 25.1851048,15.5599966 C25.2201048,15.3869966 25.3231048,15.2269966 25.3941048,15.0619966 C25.4601048,15.0619966 25.5271048,15.0609966 25.5931048,15.0609966 C25.7201048,15.5489966 25.8741048,16.0309966 25.9661048,16.5239966 C26.2651048,18.1389966 26.5511048,19.7579966 26.8211048,21.3779966 C26.9121048,21.9209966 27.1711048,22.2149966 27.7041048,22.4259966 C30.0311048,23.3469966 31.4671048,25.7289966 31.2431048,28.1299966 L31.2431048,28.1299966 Z M34.0291048,13.2359966 C33.5251048,12.9369966 33.0501048,12.6579966 32.5291048,12.3499966 C33.3761048,10.6919966 34.2171048,9.04499664 35.0901048,7.33699664 C35.8051048,7.74499664 36.4621048,8.11999664 37.1441048,8.50899664 C36.0881048,10.1109966 35.0661048,11.6619966 34.0291048,13.2359966 L34.0291048,13.2359966 Z M38.5581048,17.8049966 C40.0911048,16.7979966 41.6211048,15.7959966 43.2271048,14.7419966 C43.6251048,15.4419966 44.0011048,16.0989966 44.3991048,16.7979966 C42.7011048,17.6469966 41.0551048,18.4699966 39.3931048,19.3009966 C39.1111048,18.7959966 38.8491048,18.3269966 38.5581048,17.8049966 L38.5581048,17.8049966 Z M46.5321048,27.6649966 C44.6821048,27.5349966 42.8601048,27.4069966 41.0171048,27.2769966 L41.0171048,25.5519966 C42.8651048,25.4419966 44.6781048,25.3359966 46.5321048,25.2249966 L46.5321048,27.6649966 L46.5321048,27.6649966 Z" id="Fill-63" fill="#FFFFFF" sketch:type="MSShapeGroup"></path>
            <path d="M25.4781048,50.8949966 C34.2771048,50.8969966 41.1561048,47.0069966 46.3661048,39.8309966 L4.59310478,39.8309966 C9.81110478,46.9729966 16.6761048,50.8929966 25.4781048,50.8949966" id="Fill-64" fill="#FFFFFF" sketch:type="MSShapeGroup"></path>
            <path d="M27.7041048,22.4259966 C27.1711048,22.2149966 26.9121048,21.9209966 26.8211048,21.3779966 C26.5511048,19.7579966 26.2651048,18.1389966 25.9661048,16.5239966 C25.8741048,16.0309966 25.7201048,15.5489966 25.5931048,15.0609966 C25.5271048,15.0609966 25.4601048,15.0619966 25.3941048,15.0619966 C25.3231048,15.2269966 25.2201048,15.3869966 25.1851048,15.5599966 C24.9961048,16.4939966 24.8251048,17.4319966 24.6471048,18.3699966 C24.4331048,19.4919966 24.2201048,20.6159966 24.0001048,21.7379966 C23.9421048,22.0299966 23.7661048,22.1959966 23.4691048,22.3089966 C22.1701048,22.8019966 21.1841048,23.6749966 20.5121048,24.8919966 C19.3521048,26.9929966 19.4651048,29.0749966 20.8451048,30.9879966 C22.2811048,32.9809966 24.3291048,33.7699966 26.7381048,33.2729966 C29.3821048,32.7249966 31.0201048,30.5209966 31.2431048,28.1299966 C31.4671048,25.7289966 30.0311048,23.3469966 27.7041048,22.4259966" id="Fill-65" fill="#58595B" sketch:type="MSShapeGroup"></path>
            <path d="M6.50710478,16.6359966 C8.21510478,17.5079966 9.85710478,18.3469966 11.5111048,19.1909966 C11.8111048,18.6829966 12.0981048,18.1969966 12.3971048,17.6879966 C10.8481048,16.6559966 9.32510478,15.6399966 7.72510478,14.5729966 C7.30110478,15.2909966 6.91010478,15.9529966 6.50710478,16.6359966" id="Fill-66" fill="#58595B" sketch:type="MSShapeGroup"></path>
            <path d="M32.5291048,12.3499966 C33.0501048,12.6579966 33.5251048,12.9369966 34.0291048,13.2359966 C35.0661048,11.6619966 36.0881048,10.1109966 37.1441048,8.50899664 C36.4621048,8.11999664 35.8051048,7.74499664 35.0901048,7.33699664 C34.2171048,9.04499664 33.3761048,10.6919966 32.5291048,12.3499966" id="Fill-67" fill="#58595B" sketch:type="MSShapeGroup"></path>
            <path d="M41.0171048,27.2769966 C42.8601048,27.4069966 44.6821048,27.5349966 46.5321048,27.6649966 L46.5321048,25.2249966 C44.6781048,25.3359966 42.8651048,25.4419966 41.0171048,25.5519966 L41.0171048,27.2769966" id="Fill-68" fill="#58595B" sketch:type="MSShapeGroup"></path>
            <path d="M26.3381048,10.7179966 C26.4501048,8.85699664 26.5611048,7.00599664 26.6731048,5.13399664 L24.2831048,5.13399664 C24.3961048,7.01699664 24.5061048,8.85999664 24.6171048,10.7179966 L26.3381048,10.7179966" id="Fill-69" fill="#58595B" sketch:type="MSShapeGroup"></path>
            <path d="M13.8571048,8.49299664 C14.9071048,10.0939966 15.9171048,11.6349966 16.9241048,13.1719966 C17.4451048,12.8819966 17.9161048,12.6179966 18.4231048,12.3369966 C17.5901048,10.6729966 16.7681048,9.02799664 15.9191048,7.33499664 C15.2111048,7.73099664 14.5621048,8.09599664 13.8571048,8.49299664" id="Fill-70" fill="#58595B" sketch:type="MSShapeGroup"></path>
            <path d="M4.25510478,24.9989966 L4.25510478,27.3909966 C6.14710478,27.2749966 7.99810478,27.1629966 9.87010478,27.0469966 C9.84210478,26.4469966 9.81910478,25.9229966 9.79210478,25.3319966 C7.93310478,25.2189966 6.10810478,25.1099966 4.25510478,24.9989966" id="Fill-71" fill="#58595B" sketch:type="MSShapeGroup"></path>
            <path d="M43.2271048,14.7419966 C41.6211048,15.7959966 40.0911048,16.7979966 38.5581048,17.8049966 C38.8491048,18.3269966 39.1111048,18.7959966 39.3931048,19.3009966 C41.0551048,18.4699966 42.7011048,17.6469966 44.3991048,16.7979966 C44.0011048,16.0989966 43.6251048,15.4419966 43.2271048,14.7419966" id="Fill-72" fill="#58595B" sketch:type="MSShapeGroup"></path>
            <path d="M50.2781048,22.1769966 C49.4281048,16.5109966 46.9211048,11.6809966 42.7771048,7.74499664 C38.1671048,3.36599664 32.6461048,1.08299664 26.2771048,0.872996635 C22.4401048,0.746996635 18.7541048,1.42599664 15.2631048,3.02399664 C9.23510478,5.78199664 4.90510478,10.2199966 2.34710478,16.3389966 C0.652104777,20.3949966 0.0961047767,24.6319966 0.635104777,28.9969966 C1.01310478,32.0589966 2.01110478,34.9339966 3.41310478,37.6759966 C3.57110478,37.9829966 3.73610478,38.0869966 4.08010478,38.0869966 C11.2211048,38.0749966 18.3611048,38.0769966 25.5011048,38.0769966 L32.5681048,38.0769966 C37.3821048,38.0769966 42.1961048,38.0769966 47.0101048,38.0779966 C47.2461048,38.0779966 47.4411048,38.0909966 47.5831048,37.8089966 C50.1001048,32.8759966 51.1041048,27.6839966 50.2781048,22.1769966 L50.2781048,22.1769966 Z M26.6731048,5.13399664 C26.5611048,7.00599664 26.4501048,8.85699664 26.3381048,10.7179966 L24.6171048,10.7179966 C24.5061048,8.85999664 24.3961048,7.01699664 24.2831048,5.13399664 L26.6731048,5.13399664 L26.6731048,5.13399664 Z M4.25510478,27.3909966 L4.25510478,24.9989966 C6.10810478,25.1099966 7.93310478,25.2189966 9.79210478,25.3319966 C9.81910478,25.9229966 9.84210478,26.4469966 9.87010478,27.0469966 C7.99810478,27.1629966 6.14710478,27.2749966 4.25510478,27.3909966 L4.25510478,27.3909966 Z M11.5111048,19.1909966 C9.85710478,18.3469966 8.21510478,17.5079966 6.50710478,16.6359966 C6.91010478,15.9529966 7.30110478,15.2909966 7.72510478,14.5729966 C9.32510478,15.6399966 10.8481048,16.6559966 12.3971048,17.6879966 C12.0981048,18.1969966 11.8111048,18.6829966 11.5111048,19.1909966 L11.5111048,19.1909966 Z M16.9241048,13.1719966 C15.9171048,11.6349966 14.9071048,10.0939966 13.8571048,8.49299664 C14.5621048,8.09599664 15.2111048,7.73099664 15.9191048,7.33499664 C16.7681048,9.02799664 17.5901048,10.6729966 18.4231048,12.3369966 C17.9161048,12.6179966 17.4451048,12.8819966 16.9241048,13.1719966 L16.9241048,13.1719966 Z M31.2431048,28.1299966 C31.0201048,30.5209966 29.3821048,32.7249966 26.7381048,33.2729966 C24.3291048,33.7699966 22.2811048,32.9809966 20.8451048,30.9879966 C19.4651048,29.0749966 19.3521048,26.9929966 20.5121048,24.8919966 C21.1841048,23.6749966 22.1701048,22.8019966 23.4691048,22.3089966 C23.7661048,22.1959966 23.9421048,22.0299966 24.0001048,21.7379966 C24.2201048,20.6159966 24.4331048,19.4919966 24.6471048,18.3699966 C24.8251048,17.4319966 24.9961048,16.4939966 25.1851048,15.5599966 C25.2201048,15.3869966 25.3231048,15.2269966 25.3941048,15.0619966 C25.4601048,15.0619966 25.5271048,15.0609966 25.5931048,15.0609966 C25.7201048,15.5489966 25.8741048,16.0309966 25.9661048,16.5239966 C26.2651048,18.1389966 26.5511048,19.7579966 26.8211048,21.3779966 C26.9121048,21.9209966 27.1711048,22.2149966 27.7041048,22.4259966 C30.0311048,23.3469966 31.4671048,25.7289966 31.2431048,28.1299966 L31.2431048,28.1299966 Z M34.0291048,13.2359966 C33.5251048,12.9369966 33.0501048,12.6579966 32.5291048,12.3499966 C33.3761048,10.6919966 34.2171048,9.04499664 35.0901048,7.33699664 C35.8051048,7.74499664 36.4621048,8.11999664 37.1441048,8.50899664 C36.0881048,10.1109966 35.0661048,11.6619966 34.0291048,13.2359966 L34.0291048,13.2359966 Z M38.5581048,17.8049966 C40.0911048,16.7979966 41.6211048,15.7959966 43.2271048,14.7419966 C43.6251048,15.4419966 44.0011048,16.0989966 44.3991048,16.7979966 C42.7011048,17.6469966 41.0551048,18.4699966 39.3931048,19.3009966 C39.1111048,18.7959966 38.8491048,18.3269966 38.5581048,17.8049966 L38.5581048,17.8049966 Z M46.5321048,27.6649966 C44.6821048,27.5349966 42.8601048,27.4069966 41.0171048,27.2769966 L41.0171048,25.5519966 C42.8651048,25.4419966 44.6781048,25.3359966 46.5321048,25.2249966 L46.5321048,27.6649966 L46.5321048,27.6649966 Z" id="Fill-63-Copy-2" fill="#FFFFFF" sketch:type="MSShapeGroup"></path>
            <path d="M25.4781048,50.8949966 C34.2771048,50.8969966 41.1561048,47.0069966 46.3661048,39.8309966 L4.59310478,39.8309966 C9.81110478,46.9729966 16.6761048,50.8929966 25.4781048,50.8949966" id="Fill-64-Copy-2" fill="#FFFFFF" sketch:type="MSShapeGroup"></path>
            <path d="M27.7041048,22.4259966 C27.1711048,22.2149966 26.9121048,21.9209966 26.8211048,21.3779966 C26.5511048,19.7579966 26.2651048,18.1389966 25.9661048,16.5239966 C25.8741048,16.0309966 25.7201048,15.5489966 25.5931048,15.0609966 C25.5271048,15.0609966 25.4601048,15.0619966 25.3941048,15.0619966 C25.3231048,15.2269966 25.2201048,15.3869966 25.1851048,15.5599966 C24.9961048,16.4939966 24.8251048,17.4319966 24.6471048,18.3699966 C24.4331048,19.4919966 24.2201048,20.6159966 24.0001048,21.7379966 C23.9421048,22.0299966 23.7661048,22.1959966 23.4691048,22.3089966 C22.1701048,22.8019966 21.1841048,23.6749966 20.5121048,24.8919966 C19.3521048,26.9929966 19.4651048,29.0749966 20.8451048,30.9879966 C22.2811048,32.9809966 24.3291048,33.7699966 26.7381048,33.2729966 C29.3821048,32.7249966 31.0201048,30.5209966 31.2431048,28.1299966 C31.4671048,25.7289966 30.0311048,23.3469966 27.7041048,22.4259966" id="Fill-65-Copy-2" fill="#000000" sketch:type="MSShapeGroup"></path>
            <path d="M6.50710478,16.6359966 C8.21510478,17.5079966 9.85710478,18.3469966 11.5111048,19.1909966 C11.8111048,18.6829966 12.0981048,18.1969966 12.3971048,17.6879966 C10.8481048,16.6559966 9.32510478,15.6399966 7.72510478,14.5729966 C7.30110478,15.2909966 6.91010478,15.9529966 6.50710478,16.6359966" id="Fill-66-Copy-2" fill="#000000" sketch:type="MSShapeGroup"></path>
            <path d="M32.5291048,12.3499966 C33.0501048,12.6579966 33.5251048,12.9369966 34.0291048,13.2359966 C35.0661048,11.6619966 36.0881048,10.1109966 37.1441048,8.50899664 C36.4621048,8.11999664 35.8051048,7.74499664 35.0901048,7.33699664 C34.2171048,9.04499664 33.3761048,10.6919966 32.5291048,12.3499966" id="Fill-67-Copy-2" fill="#000000" sketch:type="MSShapeGroup"></path>
            <path d="M41.0171048,27.2769966 C42.8601048,27.4069966 44.6821048,27.5349966 46.5321048,27.6649966 L46.5321048,25.2249966 C44.6781048,25.3359966 42.8651048,25.4419966 41.0171048,25.5519966 L41.0171048,27.2769966" id="Fill-68-Copy-2" fill="#000000" sketch:type="MSShapeGroup"></path>
            <path d="M26.3381048,10.7179966 C26.4501048,8.85699664 26.5611048,7.00599664 26.6731048,5.13399664 L24.2831048,5.13399664 C24.3961048,7.01699664 24.5061048,8.85999664 24.6171048,10.7179966 L26.3381048,10.7179966" id="Fill-69-Copy-2" fill="#000000" sketch:type="MSShapeGroup"></path>
            <path d="M13.8571048,8.49299664 C14.9071048,10.0939966 15.9171048,11.6349966 16.9241048,13.1719966 C17.4451048,12.8819966 17.9161048,12.6179966 18.4231048,12.3369966 C17.5901048,10.6729966 16.7681048,9.02799664 15.9191048,7.33499664 C15.2111048,7.73099664 14.5621048,8.09599664 13.8571048,8.49299664" id="Fill-70-Copy-2" fill="#000000" sketch:type="MSShapeGroup"></path>
            <path d="M4.25510478,24.9989966 L4.25510478,27.3909966 C6.14710478,27.2749966 7.99810478,27.1629966 9.87010478,27.0469966 C9.84210478,26.4469966 9.81910478,25.9229966 9.79210478,25.3319966 C7.93310478,25.2189966 6.10810478,25.1099966 4.25510478,24.9989966" id="Fill-71-Copy-2" fill="#000000" sketch:type="MSShapeGroup"></path>
            <path d="M43.2271048,14.7419966 C41.6211048,15.7959966 40.0911048,16.7979966 38.5581048,17.8049966 C38.8491048,18.3269966 39.1111048,18.7959966 39.3931048,19.3009966 C41.0551048,18.4699966 42.7011048,17.6469966 44.3991048,16.7979966 C44.0011048,16.0989966 43.6251048,15.4419966 43.2271048,14.7419966" id="Fill-72-Copy-2" fill="#000000" sketch:type="MSShapeGroup"></path>
        </g>
    </g>
</svg>