<?xml version="1.0" encoding="UTF-8" standalone="no"?>
<svg width="45px" height="42px" viewBox="0 0 45 42" version="1.1" xmlns="http://www.w3.org/2000/svg" xmlns:xlink="http://www.w3.org/1999/xlink" xmlns:sketch="http://www.bohemiancoding.com/sketch/ns">
    <!-- Generator: Sketch 3.3 (11970) - http://www.bohemiancoding.com/sketch -->
    <title>supportSmallIcon</title>
    <desc>Created with Sketch.</desc>
    <defs></defs>
    <g id="Page-1" stroke="none" stroke-width="1" fill="none" fill-rule="evenodd" sketch:type="MSPage">
        <g id="supportSmallIcon" sketch:type="MSLayerGroup" transform="translate(0.500000, 0.000000)">
            <path d="M43.666,16.852 C43.666,25.716 33.94,32.902 21.944,32.902 C9.948,32.902 0.224,25.716 0.224,16.852 C0.224,7.989 9.948,0.803 21.944,0.803 C33.94,0.803 43.666,7.989 43.666,16.852" id="Fill-1" fill="#000000" sketch:type="MSShapeGroup"></path>
            <path d="M14.196,31.38 L14.196,41.202 L22.565,32.833 L14.196,31.38" id="Fill-2" fill="#000000" sketch:type="MSShapeGroup"></path>
            <path d="M24.798,22.417 C24.593,22.218 24.272,22.218 24.065,22.412 C22.744,23.654 22.125,24.093 21.863,24.249 C21.885,23.666 22.215,21.981 23.598,17.341 C24.566,14.095 24.698,13.374 24.698,13.097 C24.698,12.677 24.534,12.317 24.224,12.059 C23.938,11.822 23.552,11.702 23.07,11.702 C22.331,11.702 21.483,11.977 20.477,12.544 C19.519,13.085 18.453,13.998 17.316,15.253 C17.213,15.363 17.165,15.507 17.182,15.655 C17.192,15.804 17.265,15.936 17.383,16.028 L18.114,16.592 C18.322,16.753 18.62,16.739 18.807,16.554 C20.044,15.344 20.467,15.011 20.605,14.926 C20.692,14.872 20.763,14.835 20.827,14.805 C20.809,14.887 20.79,14.977 20.76,15.068 C19.066,20.563 18.241,23.938 18.241,25.391 C18.241,25.958 18.404,26.425 18.724,26.766 C19.053,27.119 19.495,27.302 20.033,27.302 C20.581,27.302 21.224,27.083 22.01,26.636 C22.744,26.214 23.865,25.293 25.44,23.815 C25.544,23.713 25.604,23.579 25.604,23.434 C25.606,23.29 25.548,23.151 25.444,23.049 L24.798,22.417" id="Fill-3" fill="#FFFFFF" sketch:type="MSShapeGroup"></path>
            <path d="M23.352,9.378 C23.925,9.378 24.44,9.132 24.882,8.646 C25.31,8.179 25.528,7.623 25.528,6.999 C25.528,6.506 25.364,6.085 25.043,5.76 C24.727,5.432 24.301,5.257 23.817,5.257 C23.221,5.257 22.704,5.491 22.28,5.954 C21.866,6.401 21.658,6.95 21.658,7.585 C21.658,8.102 21.82,8.532 22.137,8.863 C22.458,9.198 22.879,9.378 23.352,9.378" id="Fill-4" fill="#FFFFFF" sketch:type="MSShapeGroup"></path>
        </g>
    </g>
</svg>