<?xml version="1.0" encoding="UTF-8" standalone="no"?>
<svg width="82px" height="21px" viewBox="0 0 82 21" version="1.1" xmlns="http://www.w3.org/2000/svg" xmlns:xlink="http://www.w3.org/1999/xlink" xmlns:sketch="http://www.bohemiancoding.com/sketch/ns">
    <!-- Generator: Sketch 3.3.1 (12002) - http://www.bohemiancoding.com/sketch -->
    <title>toggleOff</title>
    <desc>Created with Sketch.</desc>
    <defs></defs>
    <g id="Page-1" stroke="none" stroke-width="1" fill="none" fill-rule="evenodd" sketch:type="MSPage">
        <g id="toggleOff" sketch:type="MSLayerGroup">
            <path d="M34.1321722,20.9392703 C28.4151656,20.9392703 23.7649007,16.3039459 23.7649007,10.6072703 C23.7649007,4.91059459 28.4151656,0.27527027 34.1321722,0.27527027 L48.1894702,0.27527027 C53.9070464,0.27527027 58.5567417,4.91059459 58.5567417,10.6072703 C58.5567417,16.3039459 53.9070464,20.9392703 48.1894702,20.9392703 L34.1321722,20.9392703" id="Fill-1" fill="#000000" sketch:type="MSShapeGroup"></path>
            <path d="M34.2643046,20.4131351 C28.8303576,20.4131351 24.4244238,16.0218649 24.4244238,10.6072703 C24.4244238,5.19267568 28.8303576,0.801405405 34.2643046,0.801405405 C39.6982517,0.801405405 44.104755,5.19267568 44.104755,10.6072703 C44.104755,16.0218649 39.6982517,20.4131351 34.2643046,20.4131351 Z" id="Fill-2" fill="#FFFFFF" sketch:type="MSShapeGroup"></path>
            <path d="M73.6693907,11.5871075 C73.6693907,12.8370181 73.369245,13.8129512 72.7683841,14.5149068 C72.1675232,15.2162655 71.3377086,15.5672432 70.2789404,15.5672432 C69.624543,15.5672432 69.0441854,15.4066769 68.5367285,15.0849472 C68.0298411,14.7632176 67.638,14.3012162 67.3623444,13.6995401 C67.0866887,13.0984608 66.9482914,12.3941176 66.9482914,11.5871075 C66.9482914,10.3371968 67.2467285,9.36424818 67.8430331,8.66706783 C68.4393377,7.96988747 69.2668742,7.6212973 70.3256424,7.6212973 C71.3490993,7.6212973 72.1618278,7.97764719 72.7649669,8.69154077 C73.368106,9.40483745 73.6693907,10.3700263 73.6693907,11.5871075 L73.6693907,11.5871075 Z M68.0964768,11.5871075 C68.0964768,12.566622 68.2832848,13.3127482 68.6569007,13.8254862 C69.0305166,14.338821 69.5806887,14.5948915 70.3057086,14.5948915 C71.0307285,14.5948915 71.5814702,14.3400148 71.9573642,13.8290676 C72.3332583,13.3187172 72.5212053,12.5713972 72.5212053,11.5871075 C72.5212053,10.6123681 72.3332583,9.87221092 71.9573642,9.36663578 C71.5814702,8.86046375 71.0261722,8.60737773 70.2920397,8.60737773 C69.5670199,8.60737773 69.0196954,8.85688234 68.6500662,9.35589157 C68.2810066,9.85490079 68.0964768,10.5986394 68.0964768,11.5871075 L68.0964768,11.5871075 Z" id="Fill-5" fill="#000000" sketch:type="MSShapeGroup"></path>
            <path d="M80.5055364,15.4275684 L80.5055364,10.4679181 C80.5055364,9.84296277 80.3699868,9.3767831 80.0983179,9.06937909 C79.8272185,8.76137818 79.4017748,8.60737773 78.8236954,8.60737773 C78.0582384,8.60737773 77.4978146,8.82405279 77.1418543,9.25799981 C76.785894,9.69134992 76.6081987,10.4076311 76.6081987,11.4056496 L76.6081987,15.4275684 L75.4998808,15.4275684 L75.4998808,7.76097213 L76.4008874,7.76097213 L76.5814305,8.81032406 L76.6343974,8.81032406 C76.8616424,8.43248574 77.1794437,8.14000426 77.5889404,7.93228271 C77.9984371,7.72515807 78.4540662,7.6212973 78.9575364,7.6212973 C79.8380397,7.6212973 80.5009801,7.84394137 80.9463576,8.2892295 C81.3911656,8.73451764 81.6138543,9.44662052 81.6138543,10.426135 L81.6138543,15.4275684 L80.5055364,15.4275684" id="Fill-6" fill="#000000" sketch:type="MSShapeGroup"></path>
            <g id="Fill-3-Copy-+-Fill-4-Copy-2" transform="translate(0.000000, 5.000000)" fill="#000000" sketch:type="MSShapeGroup">
                <g>
                    <path d="M7.62348129,6.71475096 C7.62348129,7.92155 7.31494233,8.86427165 6.69727895,9.54233934 C6.07961557,10.220407 5.22659609,10.5594409 4.13822052,10.5594409 C3.46552362,10.5594409 2.86893691,10.4037621 2.34728944,10.092981 C1.82622744,9.78220001 1.42342895,9.33592077 1.1400649,8.75529649 C0.856115381,8.17409561 0.714433354,7.49372158 0.714433354,6.71475096 C0.714433354,5.50737534 1.02121593,4.56696004 1.63361014,3.89350506 C2.24658982,3.22005008 3.09726745,2.88332259 4.18622848,2.88332259 C5.23830535,2.88332259 6.07376094,3.22812232 6.69376617,3.91714518 C7.31377141,4.60616804 7.62348129,5.5385111 7.62348129,6.71475096 L7.62348129,6.71475096 Z M1.8947266,6.71475096 C1.8947266,7.66035556 2.08675844,8.38109077 2.47082212,8.87695659 C2.8548858,9.37224583 3.41985752,9.62017874 4.16573728,9.62017874 C4.91103158,9.62017874 5.47717422,9.373399 5.86357975,8.87983953 C6.24998528,8.38685665 6.44318804,7.66496826 6.44318804,6.71475096 C6.44318804,5.77318249 6.24998528,5.05821316 5.86357975,4.56926639 C5.47717422,4.08031963 4.90634787,3.83584625 4.15168617,3.83584625 C3.40639187,3.83584625 2.843762,4.0768601 2.46379656,4.55888781 C2.08441659,5.04091552 1.8947266,5.75934437 1.8947266,6.71475096 L1.8947266,6.71475096 Z" id="Fill-3-Copy"></path>
                    <path d="M12.2376084,4.05437316 L10.3231446,4.05437316 L10.3231446,10.5882703 L9.18441924,10.5882703 L9.18441924,4.05437316 L7.83961091,4.05437316 L7.83961091,3.54755216 L9.18441924,3.14221068 L9.18441924,2.72995014 C9.18441924,0.910237886 9.99177261,0.000381758741 11.6064794,0.000381758741 C12.0040087,0.000381758741 12.4706226,0.0793743376 13.0057357,0.236782907 L12.7106624,1.13568386 C12.2715652,0.995572935 11.896869,0.925805767 11.5854027,0.925805767 C11.1556729,0.925805767 10.8377665,1.06706987 10.632269,1.34844489 C10.4261861,1.62981992 10.3231446,2.08128845 10.3231446,2.7028505 L10.3231446,3.18257185 L12.2376084,3.18257185 L12.2376084,4.05437316 L12.2376084,4.05437316 Z M16.9991783,4.05437316 L15.0847146,4.05437316 L15.0847146,10.5882703 L13.9459892,10.5882703 L13.9459892,4.05437316 L12.6011809,4.05437316 L12.6011809,3.54755216 L13.9459892,3.14221068 L13.9459892,2.72995014 C13.9459892,0.910237886 14.7533426,0.000381758741 16.3674638,0.000381758741 C16.7655786,0.000381758741 17.2321926,0.0793743376 17.7673057,0.236782907 L17.4722324,1.13568386 C17.0331352,0.995572935 16.6578534,0.925805767 16.3469726,0.925805767 C15.9172428,0.925805767 15.5993365,1.06706987 15.3932535,1.34844489 C15.187756,1.62981992 15.0847146,2.08128845 15.0847146,2.7028505 L15.0847146,3.18257185 L16.9991783,3.18257185 L16.9991783,4.05437316 L16.9991783,4.05437316 Z" id="Fill-4-Copy-2"></path>
                </g>
            </g>
        </g>
    </g>
</svg>