<?xml version="1.0" encoding="UTF-8" standalone="no"?>
<svg width="35px" height="32px" viewBox="0 0 35 32" version="1.1" xmlns="http://www.w3.org/2000/svg" xmlns:xlink="http://www.w3.org/1999/xlink" xmlns:sketch="http://www.bohemiancoding.com/sketch/ns">
    <!-- Generator: Sketch 3.3 (11970) - http://www.bohemiancoding.com/sketch -->
    <title>unitsSmallIcon</title>
    <desc>Created with Sketch.</desc>
    <defs></defs>
    <g id="Page-1" stroke="none" stroke-width="1" fill="none" fill-rule="evenodd" sketch:type="MSPage">
        <g id="unitsSmallIcon" sketch:type="MSLayerGroup" fill="#000000">
            <path d="M26.002,7.347 L9.107,7.347 L0.202,31.478 L34.906,31.478 L26.002,7.347" id="Fill-1" sketch:type="MSShapeGroup"></path>
            <path d="M17.719,9.752 C15.071,9.752 12.915,7.597 12.915,4.949 C12.915,2.3 15.071,0.146 17.719,0.146 C20.368,0.146 22.522,2.3 22.522,4.949 C22.522,7.597 20.368,9.752 17.719,9.752 L17.719,9.752 Z M17.719,3.146 C16.725,3.146 15.915,3.955 15.915,4.949 C15.915,5.943 16.725,6.752 17.719,6.752 C18.713,6.752 19.522,5.943 19.522,4.949 C19.522,3.955 18.713,3.146 17.719,3.146 L17.719,3.146 Z" id="Fill-2" sketch:type="MSShapeGroup"></path>
        </g>
    </g>
</svg>