<?xml version="1.0" encoding="UTF-8" standalone="no"?>
<svg width="38px" height="34px" viewBox="0 0 38 34" version="1.1" xmlns="http://www.w3.org/2000/svg" xmlns:xlink="http://www.w3.org/1999/xlink" xmlns:sketch="http://www.bohemiancoding.com/sketch/ns">
    <!-- Generator: Sketch 3.3 (11970) - http://www.bohemiancoding.com/sketch -->
    <title>versionSmallIcon</title>
    <desc>Created with Sketch.</desc>
    <defs></defs>
    <g id="Page-1" stroke="none" stroke-width="1" fill="none" fill-rule="evenodd" sketch:type="MSPage">
        <g id="versionSmallIcon" sketch:type="MSLayerGroup" transform="translate(0.500000, 0.500000)">
            <path d="M8.385,3.81 C8.385,2.22 9.675,0.93 11.265,0.93 L25.772,0.93 C27.363,0.93 28.652,2.22 28.652,3.81" id="Fill-1" fill="#000000" sketch:type="MSShapeGroup"></path>
            <path d="M8.385,3.81 C8.385,2.22 9.675,0.93 11.265,0.93 L25.772,0.93 C27.363,0.93 28.652,2.22 28.652,3.81" id="Stroke-2" stroke="#000000" stroke-width="2" sketch:type="MSShapeGroup"></path>
            <path d="M4.386,9.813 C4.386,8.222 5.675,6.933 7.265,6.933 L29.772,6.933 C31.363,6.933 32.652,8.222 32.652,9.813" id="Fill-3" fill="#000000" sketch:type="MSShapeGroup"></path>
            <path d="M4.386,9.813 C4.386,8.222 5.675,6.933 7.265,6.933 L29.772,6.933 C31.363,6.933 32.652,8.222 32.652,9.813" id="Stroke-4" stroke="#000000" stroke-width="2" sketch:type="MSShapeGroup"></path>
            <path d="M36.652,30.524 C36.652,32.115 35.363,33.404 33.773,33.404 L3.265,33.404 C1.675,33.404 0.386,32.115 0.386,30.524 L0.386,14.884 C0.386,13.293 1.675,12.004 3.265,12.004 L33.773,12.004 C35.363,12.004 36.652,13.293 36.652,14.884 L36.652,30.524" id="Fill-5" fill="#000000" sketch:type="MSShapeGroup"></path>
        </g>
    </g>
</svg>