<?xml version="1.0" encoding="UTF-8" standalone="no"?>
<svg width="59px" height="46px" viewBox="0 0 59 46" version="1.1" xmlns="http://www.w3.org/2000/svg" xmlns:xlink="http://www.w3.org/1999/xlink" xmlns:sketch="http://www.bohemiancoding.com/sketch/ns">
    <!-- Generator: Sketch 3.3 (11970) - http://www.bohemiancoding.com/sketch -->
    <title>volumeTitleIcon</title>
    <desc>Created with Sketch.</desc>
    <defs></defs>
    <g id="Page-1" stroke="none" stroke-width="1" fill="none" fill-rule="evenodd" sketch:type="MSPage">
        <g id="volumeTitleIcon" sketch:type="MSLayerGroup" fill="#FFFFFF">
            <path d="M31.305,22.654 L31.305,8.677 L31.305,2.208 C31.305,1.614 31.153,1.087 30.657,0.714 C29.907,0.144 29.048,0.225 28.263,0.929 C24.233,4.565 20.202,8.2 16.175,11.842 C15.902,12.093 15.628,12.202 15.252,12.202 C11.224,12.189 7.196,12.196 3.166,12.196 C2.96,12.196 2.756,12.196 2.554,12.214 C1.543,12.307 0.921,12.984 0.921,13.995 C0.921,19.775 0.915,25.548 0.931,31.323 C0.935,31.666 1.061,32.04 1.234,32.341 C1.603,32.99 2.247,33.12 2.94,33.117 C7.065,33.114 11.187,33.12 15.312,33.111 C15.628,33.11 15.865,33.187 16.109,33.407 C20.169,37.081 24.233,40.75 28.313,44.404 C28.568,44.636 28.906,44.851 29.239,44.918 C30.435,45.161 31.305,44.352 31.305,43.048 L31.305,22.654 L31.305,22.654 Z M58.446,24.522 C58.442,17.12 56.661,11.563 53.468,7.075 C51.637,4.509 49.431,2.331 46.855,0.531 C46.019,-0.054 44.961,0.08 44.408,0.831 C43.836,1.614 43.988,2.609 44.788,3.255 C44.924,3.364 45.07,3.457 45.206,3.562 C52.479,9.111 55.804,16.454 54.826,25.545 C54.156,31.78 51.217,36.926 46.363,40.94 C45.795,41.41 45.172,41.818 44.599,42.281 C43.789,42.926 43.65,43.921 44.238,44.7 C44.788,45.432 45.832,45.575 46.646,45.001 C54.351,39.556 58.154,32.045 58.446,24.522 L58.446,24.522 Z M50.04,22.744 C50.036,20.46 49.578,18.294 48.72,16.201 C47.096,12.255 44.366,9.335 40.584,7.382 C39.772,6.961 38.763,7.233 38.3,7.983 C37.824,8.767 38.021,9.722 38.797,10.269 C39.104,10.485 39.452,10.642 39.772,10.84 C44.714,13.924 47.032,18.418 46.479,24.171 C46.025,28.885 43.545,32.454 39.37,34.776 C39.164,34.893 38.951,35.002 38.763,35.139 C38.001,35.686 37.81,36.65 38.29,37.429 C38.741,38.164 39.744,38.448 40.534,38.031 C46.666,34.776 49.691,29.585 50.04,22.744 L50.04,22.744 Z M41.824,22.702 C41.777,22.233 41.775,21.758 41.674,21.299 C41.025,18.228 38.824,15.613 35.264,15.009 C34.692,14.913 34.164,15.048 33.744,15.472 C32.796,16.425 33.191,17.933 34.485,18.324 C34.995,18.473 35.54,18.564 36.003,18.81 C38.982,20.408 39.187,24.445 36.376,26.331 C35.858,26.679 35.208,26.835 34.608,27.056 C33.751,27.371 33.28,28.246 33.515,29.14 C33.728,29.957 34.65,30.511 35.506,30.338 C39.145,29.603 41.769,26.416 41.824,22.702 L41.824,22.702 Z" id="Fill-1" sketch:type="MSShapeGroup"></path>
            <path d="M31.305,22.654 L31.305,43.048 C31.305,44.352 30.435,45.161 29.239,44.918 C28.906,44.851 28.568,44.636 28.313,44.404 C24.233,40.75 20.169,37.081 16.109,33.407 C15.865,33.187 15.628,33.11 15.312,33.111 C11.187,33.12 7.065,33.114 2.94,33.117 C2.247,33.12 1.603,32.99 1.234,32.341 C1.061,32.04 0.935,31.666 0.931,31.323 C0.915,25.548 0.921,19.775 0.921,13.995 C0.921,12.984 1.543,12.307 2.554,12.214 C2.756,12.196 2.96,12.196 3.166,12.196 C7.196,12.196 11.224,12.189 15.252,12.202 C15.628,12.202 15.902,12.093 16.175,11.842 C20.202,8.2 24.233,4.565 28.263,0.929 C29.048,0.225 29.907,0.144 30.657,0.714 C31.153,1.087 31.305,1.614 31.305,2.208 L31.305,8.677 L31.305,22.654" id="Fill-2" sketch:type="MSShapeGroup"></path>
            <path d="M58.446,24.522 C58.154,32.045 54.351,39.556 46.646,45.001 C45.832,45.575 44.788,45.432 44.238,44.7 C43.65,43.921 43.789,42.926 44.599,42.281 C45.172,41.818 45.795,41.41 46.363,40.94 C51.217,36.926 54.156,31.78 54.826,25.545 C55.804,16.454 52.479,9.111 45.206,3.562 C45.07,3.457 44.924,3.364 44.788,3.255 C43.988,2.609 43.836,1.614 44.408,0.831 C44.961,0.08 46.019,-0.054 46.855,0.531 C49.431,2.331 51.637,4.509 53.468,7.075 C56.661,11.563 58.442,17.12 58.446,24.522" id="Fill-3" sketch:type="MSShapeGroup"></path>
            <path d="M50.04,22.744 C49.691,29.585 46.666,34.776 40.534,38.031 C39.744,38.448 38.741,38.164 38.29,37.429 C37.81,36.65 38.001,35.686 38.763,35.139 C38.951,35.002 39.164,34.893 39.37,34.776 C43.545,32.454 46.025,28.885 46.479,24.171 C47.032,18.418 44.714,13.924 39.772,10.84 C39.452,10.642 39.104,10.485 38.797,10.269 C38.021,9.722 37.824,8.767 38.3,7.983 C38.763,7.233 39.772,6.961 40.584,7.382 C44.366,9.335 47.096,12.255 48.72,16.201 C49.578,18.294 50.036,20.46 50.04,22.744" id="Fill-4" sketch:type="MSShapeGroup"></path>
            <path d="M41.824,22.702 C41.769,26.416 39.145,29.603 35.506,30.338 C34.65,30.511 33.728,29.957 33.515,29.14 C33.28,28.246 33.751,27.371 34.608,27.056 C35.208,26.835 35.858,26.679 36.376,26.331 C39.187,24.445 38.982,20.408 36.003,18.81 C35.54,18.564 34.995,18.473 34.485,18.324 C33.191,17.933 32.796,16.425 33.744,15.472 C34.164,15.048 34.692,14.913 35.264,15.009 C38.824,15.613 41.025,18.228 41.674,21.299 C41.775,21.758 41.777,22.233 41.824,22.702" id="Fill-5" sketch:type="MSShapeGroup"></path>
        </g>
    </g>
</svg>