<?xml version="1.0" encoding="UTF-8" standalone="no"?>
<svg width="360px" height="591px" viewBox="0 0 360 591" version="1.1" xmlns="http://www.w3.org/2000/svg" xmlns:xlink="http://www.w3.org/1999/xlink" xmlns:sketch="http://www.bohemiancoding.com/sketch/ns">
    <!-- Generator: Sketch 3.3 (11970) - http://www.bohemiancoding.com/sketch -->
    <title>weigthAlert</title>
    <desc>Created with Sketch.</desc>
    <defs></defs>
    <g id="Page-1" stroke="none" stroke-width="1" fill="none" fill-rule="evenodd" sketch:type="MSPage">
        <g id="weigthAlert" sketch:type="MSLayerGroup">
            <g id="Page-1" sketch:type="MSShapeGroup">
                <g id="weigthAlert">
                    <path d="M0.0898336414,0.411238447 L359.424399,0.411238447 L359.424399,590.6522 L0.0898336414,590.6522 L0.0898336414,0.411238447 L0.0898336414,0.411238447 Z" id="Fill-1039" fill="#000000"></path>
                    <path d="M44.3358965,65.1839556 L42.708244,63.5556377 L51.3309427,54.9316081 L42.7475046,46.3488355 L44.3758226,44.7198521 L52.9599261,53.3032902 L61.5420333,44.7198521 L63.1716821,46.3501664 L54.588244,54.9316081 L63.2109427,63.5556377 L61.5826248,65.1839556 L52.9599261,56.5612569 L44.3358965,65.1839556" id="Fill-1040" fill="#FFFFFF"></path>
                    <path d="M209.469427,269.779741 L194.949649,269.779741 C196.392976,267.293678 197.229427,264.417006 197.229427,261.344695 C197.229427,252.027948 189.652126,244.451312 180.337375,244.451312 C171.022625,244.451312 163.440665,252.027948 163.440665,261.344695 C163.440665,264.417006 164.280444,267.293678 165.721109,269.779741 L150.044806,269.779741 L118.722144,354.657893 L240.792089,354.657893 L209.469427,269.779741 L209.469427,269.779741 Z M180.337375,255.00244 C183.836229,255.00244 186.678299,257.847172 186.678299,261.344695 C186.678299,264.841553 183.836229,267.684954 180.337375,267.684954 C176.839187,267.684954 173.994455,264.841553 173.994455,261.344695 C173.994455,257.847172 176.839187,255.00244 180.337375,255.00244 L180.337375,255.00244 L180.337375,255.00244 Z" id="Fill-1086" fill="#FFFFFF"></path>
                    <path d="M42.4680222,146.536636 C42.9112015,146.536636 43.2791867,146.568577 43.5726433,146.632458 L43.3257671,149.699445 C43.0615896,149.627579 42.7401848,149.592311 42.3608872,149.592311 C41.3174861,149.592311 40.5043253,149.860481 39.9214048,150.396821 C39.3391497,150.932495 39.0476895,151.683105 39.0476895,152.647985 L39.0476895,158.748688 L35.7770795,158.748688 L35.7770795,146.761553 L38.2544917,146.761553 L38.7369316,148.777153 L38.8979667,148.777153 C39.2692791,148.105065 39.7710166,147.564067 40.4045102,147.152828 C41.0366728,146.74159 41.724732,146.536636 42.4680222,146.536636" id="Fill-1087" fill="#FFFFFF"></path>
                    <path d="M50.9310166,158.963623 C49.0012569,158.963623 47.4927172,158.431275 46.4060628,157.365915 C45.3194085,156.30122 44.776414,154.79268 44.776414,152.841627 C44.776414,150.83268 45.278817,149.279556 46.2822921,148.182255 C47.287098,147.084954 48.6751941,146.536636 50.4485767,146.536636 C52.1427726,146.536636 53.4616636,147.01841 54.4052495,147.983956 C55.3488355,148.948835 55.8206285,150.282366 55.8206285,151.983216 L55.8206285,153.570277 L48.0896118,153.570277 C48.1248799,154.499889 48.4003697,155.225213 48.9154159,155.746913 C49.4297967,156.268614 50.151793,156.529464 51.0807394,156.529464 C51.8027357,156.529464 52.4861368,156.45427 53.1296118,156.304547 C53.7724214,156.154159 54.4438447,155.915268 55.1452126,155.586543 L55.1452126,158.116525 C54.572939,158.402662 53.9620702,158.614935 53.3112754,158.754011 C52.6604806,158.893752 51.8672828,158.963623 50.9310166,158.963623 L50.9310166,158.963623 L50.9310166,158.963623 Z M50.4698706,148.862994 C49.7758226,148.862994 49.2328281,149.082588 48.8402218,149.52244 C48.4462847,149.961627 48.2220333,150.585804 48.1648059,151.393641 L52.7536414,151.393641 C52.7396673,150.585804 52.5287246,149.961627 52.1208133,149.52244 C51.7142329,149.082588 51.1625878,148.862994 50.4698706,148.862994 L50.4698706,148.862994 L50.4698706,148.862994 Z" id="Fill-1088" fill="#FFFFFF"></path>
                    <path d="M69.0980407,158.748688 L65.8280961,158.748688 L65.8280961,151.747652 C65.8280961,150.882588 65.6830314,150.234455 65.3935675,149.801257 C65.1041035,149.36939 64.648281,149.153124 64.0267652,149.153124 C63.1903142,149.153124 62.5827726,149.459889 62.2041405,150.07475 C61.8248429,150.689612 61.6351941,151.701072 61.6351941,153.109131 L61.6351941,158.748688 L58.3652495,158.748688 L58.3652495,146.761553 L60.8632902,146.761553 L61.3031423,148.294713 L61.4854713,148.294713 C61.8068762,147.744399 62.2713494,147.313863 62.8788909,147.00244 C63.4864325,146.691682 64.1838078,146.536636 64.9696858,146.536636 C66.7643623,146.536636 67.9794455,147.122884 68.6156007,148.294713 L68.9057301,148.294713 C69.2264695,147.737745 69.7002588,147.304547 70.3264325,146.997116 C70.9512754,146.689686 71.6566359,146.536636 72.4431793,146.536636 C73.8013309,146.536636 74.829427,146.884658 75.5261368,147.581368 C76.223512,148.278743 76.5715342,149.396007 76.5715342,150.932495 L76.5715342,158.748688 L73.2902773,158.748688 L73.2902773,151.747652 C73.2902773,150.882588 73.145878,150.234455 72.856414,149.801257 C72.5669501,149.36939 72.1111275,149.153124 71.4889464,149.153124 C70.6884288,149.153124 70.0902033,149.438595 69.692939,150.010869 C69.2970055,150.582477 69.0980407,151.490129 69.0980407,152.733826 L69.0980407,158.748688" id="Fill-1089" fill="#FFFFFF"></path>
                    <path d="M79.4794824,143.66329 C79.4794824,142.59793 80.0723845,142.064917 81.258854,142.064917 C82.4453235,142.064917 83.0395564,142.59793 83.0395564,143.66329 C83.0395564,144.170351 82.8904991,144.565619 82.5943808,144.847763 C82.297597,145.130573 81.8524214,145.271645 81.258854,145.271645 C80.0723845,145.271645 79.4794824,144.735305 79.4794824,143.66329 L79.4794824,143.66329 L79.4794824,143.66329 Z M79.6185582,146.761553 L82.8885028,146.761553 L82.8885028,158.749353 L79.6185582,158.749353 L79.6185582,146.761553 L79.6185582,146.761553 Z" id="Fill-1090" fill="#FFFFFF"></path>
                    <path d="M97.0862107,158.748688 L93.8162662,158.748688 L93.8162662,151.747652 C93.8162662,150.882588 93.6625508,150.234455 93.3551201,149.801257 C93.0476895,149.36939 92.5579298,149.153124 91.8865065,149.153124 C90.9708688,149.153124 90.3100924,149.458558 89.9028466,150.069427 C89.4949353,150.680296 89.2913124,151.693752 89.2913124,153.109131 L89.2913124,158.748688 L86.0207024,158.748688 L86.0207024,146.761553 L88.5187431,146.761553 L88.9592606,148.294713 L89.1415896,148.294713 C89.5055823,147.715786 90.0079852,147.27793 90.6481331,146.981146 C91.2876155,146.685028 92.0149353,146.536636 92.8300924,146.536636 C94.223512,146.536636 95.2808872,146.913272 96.003549,147.667209 C96.7248799,148.421811 97.0862107,149.510462 97.0862107,150.932495 L97.0862107,158.748688" id="Fill-1091" fill="#FFFFFF"></path>
                    <path d="M104.064621,158.963623 C102.656562,158.963623 101.549945,158.416636 100.745434,157.323327 C99.9415896,156.229353 99.5396673,154.714159 99.5396673,152.777079 C99.5396673,150.811386 99.9489094,149.279556 100.766728,148.182255 C101.585878,147.084954 102.713124,146.536636 104.150462,146.536636 C105.658336,146.536636 106.809538,147.122884 107.602736,148.294713 L107.709871,148.294713 C107.545508,147.401701 107.46366,146.603845 107.46366,145.903808 L107.46366,142.064917 L110.744251,142.064917 L110.744251,158.748688 L108.235564,158.748688 L107.602736,157.194898 L107.46366,157.194898 C106.719704,158.374048 105.587135,158.963623 104.064621,158.963623 L104.064621,158.963623 L104.064621,158.963623 Z M105.211165,156.358447 C106.048281,156.358447 106.661146,156.114898 107.050425,155.629131 C107.44037,155.143364 107.652643,154.316895 107.688577,153.151719 L107.688577,152.798373 C107.688577,151.511423 107.490277,150.589797 107.093678,150.032163 C106.697079,149.474529 106.051608,149.195712 105.15793,149.195712 C104.428614,149.195712 103.862329,149.505139 103.459076,150.123327 C103.054492,150.741516 102.8522,151.640518 102.8522,152.819667 C102.8522,153.999482 103.056488,154.883845 103.463734,155.47342 C103.87098,156.062994 104.4539,156.358447 105.211165,156.358447 L105.211165,156.358447 L105.211165,156.358447 Z" id="Fill-1092" fill="#FFFFFF"></path>
                    <path d="M119.377597,158.963623 C117.447837,158.963623 115.939298,158.431275 114.853309,157.365915 C113.766654,156.30122 113.222994,154.79268 113.222994,152.841627 C113.222994,150.83268 113.725397,149.279556 114.729538,148.182255 C115.734344,147.084954 117.12244,146.536636 118.895157,146.536636 C120.589353,146.536636 121.908244,147.01841 122.85183,147.983956 C123.795416,148.948835 124.267209,150.282366 124.267209,151.983216 L124.267209,153.570277 L116.536192,153.570277 C116.572126,154.499889 116.84695,155.225213 117.361996,155.746913 C117.876377,156.268614 118.599039,156.529464 119.527985,156.529464 C120.249982,156.529464 120.932717,156.45427 121.576192,156.304547 C122.219667,156.154159 122.890425,155.915268 123.591793,155.586543 L123.591793,158.116525 C123.019519,158.402662 122.408651,158.614935 121.758521,158.754011 C121.107726,158.893752 120.314529,158.963623 119.377597,158.963623 L119.377597,158.963623 L119.377597,158.963623 Z M118.917116,148.862994 C118.223068,148.862994 117.680074,149.082588 117.287468,149.52244 C116.89353,149.961627 116.668614,150.585804 116.611386,151.393641 L121.200887,151.393641 C121.186248,150.585804 120.97597,149.961627 120.568059,149.52244 C120.160813,149.082588 119.609834,148.862994 118.917116,148.862994 L118.917116,148.862994 L118.917116,148.862994 Z" id="Fill-1093" fill="#FFFFFF"></path>
                    <path d="M133.502773,146.536636 C133.945952,146.536636 134.313937,146.568577 134.607394,146.632458 L134.360518,149.699445 C134.095675,149.627579 133.77427,149.592311 133.395638,149.592311 C132.352237,149.592311 131.539076,149.860481 130.956155,150.396821 C130.3739,150.932495 130.081774,151.683105 130.081774,152.647985 L130.081774,158.748688 L126.81183,158.748688 L126.81183,146.761553 L129.289242,146.761553 L129.771017,148.777153 L129.932717,148.777153 C130.303364,148.105065 130.805767,147.564067 131.438595,147.152828 C132.071423,146.74159 132.759482,146.536636 133.502773,146.536636" id="Fill-1094" fill="#FFFFFF"></path>
                    <path d="M147.53878,156.358447 C148.109723,156.358447 148.795786,156.23268 149.597634,155.982477 L149.597634,158.416636 C148.782477,158.781294 147.780998,158.963623 146.595194,158.963623 C145.286285,158.963623 144.334048,158.633567 143.737153,157.97146 C143.140259,157.310684 142.841479,156.318521 142.841479,154.996303 L142.841479,149.217006 L141.277043,149.217006 L141.277043,147.833567 L143.078373,146.740259 L144.021959,144.209612 L146.112089,144.209612 L146.112089,146.761553 L149.46854,146.761553 L149.46854,149.217006 L146.112089,149.217006 L146.112089,154.996303 C146.112089,155.460776 146.243179,155.80414 146.503364,156.02573 C146.764214,156.24732 147.109575,156.358447 147.53878,156.358447" id="Fill-1095" fill="#FFFFFF"></path>
                    <path d="M162.618189,152.733826 C162.618189,154.685545 162.103142,156.211386 161.073715,157.312015 C160.044288,158.413309 158.610943,158.963623 156.775009,158.963623 C155.623142,158.963623 154.608355,158.711423 153.729316,158.207689 C152.849612,157.70329 152.174861,156.979963 151.703068,156.036377 C151.231275,155.092791 150.995046,153.992163 150.995046,152.733826 C150.995046,150.775453 151.505434,149.252939 152.528872,148.166285 C153.550314,147.07963 154.986987,146.536636 156.838226,146.536636 C157.989427,146.536636 159.00488,146.786839 159.883919,147.287246 C160.763623,147.787652 161.438373,148.505656 161.910166,149.441922 C162.381959,150.378189 162.618189,151.476155 162.618189,152.733826 L162.618189,152.733826 L162.618189,152.733826 Z M154.330203,152.733826 C154.330203,153.920961 154.52451,154.817301 154.914455,155.424843 C155.303068,156.032384 155.937893,156.336488 156.817597,156.336488 C157.688651,156.336488 158.316821,156.034381 158.69878,155.430166 C159.081405,154.826617 159.272384,153.927616 159.272384,152.733826 C159.272384,151.547357 159.080074,150.657006 158.693457,150.064104 C158.307505,149.470536 157.675342,149.174418 156.795638,149.174418 C155.923253,149.174418 155.294418,149.46854 154.908466,150.05878 C154.522514,150.648355 154.330203,151.540037 154.330203,152.733826 L154.330203,152.733826 L154.330203,152.733826 Z" id="Fill-1096" fill="#FFFFFF"></path>
                    <path d="M179.516229,158.748688 L179.077043,157.216192 L178.90536,157.216192 C178.554677,157.773826 178.058262,158.204362 177.414787,158.5078 C176.771312,158.811238 176.038669,158.963623 175.217523,158.963623 C173.808133,158.963623 172.746765,158.586322 172.032089,157.832384 C171.317412,157.078447 170.960074,155.993789 170.960074,154.57841 L170.960074,146.761553 L174.230684,146.761553 L174.230684,153.763253 C174.230684,154.628318 174.384399,155.277116 174.691165,155.708983 C174.998595,156.141516 175.487689,156.358447 176.160444,156.358447 C177.07475,156.358447 177.736858,156.052348 178.144104,155.441479 C178.551349,154.829945 178.754972,153.816488 178.754972,152.401109 L178.754972,146.761553 L182.025582,146.761553 L182.025582,158.748688 L179.516229,158.748688" id="Fill-1097" fill="#FFFFFF"></path>
                    <path d="M191.728281,158.963623 C190.320222,158.963623 189.215601,158.452569 188.415083,157.430462 L188.243401,157.430462 C188.357856,158.431275 188.415083,159.010203 188.415083,159.167246 L188.415083,164.024251 L185.144473,164.024251 L185.144473,146.761553 L187.804214,146.761553 L188.26536,148.316673 L188.415083,148.316673 C189.179667,147.129538 190.312902,146.536636 191.814122,146.536636 C193.229501,146.536636 194.337449,147.082957 195.137967,148.176932 C195.938484,149.27024 196.339076,150.790092 196.339076,152.733826 C196.339076,154.013457 196.150758,155.124732 195.776118,156.068318 C195.400148,157.011904 194.86647,157.730573 194.173087,158.22366 C193.479704,158.717412 192.664547,158.963623 191.728281,158.963623 L191.728281,158.963623 L191.728281,158.963623 Z M190.763401,149.153124 C189.955564,149.153124 189.365323,149.401331 188.994011,149.897745 C188.622033,150.394824 188.429057,151.21464 188.415083,152.358521 L188.415083,152.712532 C188.415083,153.999482 188.606728,154.921774 188.988688,155.478743 C189.371312,156.036377 189.976858,156.315194 190.805989,156.315194 C192.271275,156.315194 193.003919,155.107431 193.003919,152.691238 C193.003919,151.511423 192.823586,150.626396 192.462921,150.037486 C192.10159,149.447246 191.535305,149.153124 190.763401,149.153124 L190.763401,149.153124 L190.763401,149.153124 Z" id="Fill-1098" fill="#FFFFFF"></path>
                    <path d="M202.82573,158.963623 C201.417006,158.963623 200.311054,158.416636 199.506543,157.323327 C198.702699,156.229353 198.300776,154.714159 198.300776,152.777079 C198.300776,150.811386 198.710018,149.279556 199.528503,148.182255 C200.346987,147.084954 201.474233,146.536636 202.911571,146.536636 C204.419445,146.536636 205.570647,147.122884 206.363845,148.294713 L206.47098,148.294713 C206.306617,147.401701 206.224769,146.603845 206.224769,145.903808 L206.224769,142.064917 L209.50536,142.064917 L209.50536,158.748688 L206.996673,158.748688 L206.363845,157.194898 L206.224769,157.194898 C205.480813,158.374048 204.348244,158.963623 202.82573,158.963623 L202.82573,158.963623 L202.82573,158.963623 Z M203.972274,156.358447 C204.80939,156.358447 205.422255,156.114898 205.811534,155.629131 C206.201479,155.143364 206.413752,154.316895 206.449686,153.151719 L206.449686,152.798373 C206.449686,151.511423 206.251386,150.589797 205.854122,150.032163 C205.458189,149.474529 204.812717,149.195712 203.919039,149.195712 C203.190388,149.195712 202.623438,149.505139 202.219519,150.123327 C201.815601,150.741516 201.613309,151.640518 201.613309,152.819667 C201.613309,153.999482 201.817597,154.883845 202.224843,155.47342 C202.632754,156.062994 203.214344,156.358447 203.972274,156.358447 L203.972274,156.358447 L203.972274,156.358447 Z" id="Fill-1099" fill="#FFFFFF"></path>
                    <path d="M220.24281,158.748688 L219.609982,157.119039 L219.52414,157.119039 C218.973161,157.812421 218.407542,158.29353 217.824621,158.561035 C217.242366,158.829871 216.48244,158.963623 215.546174,158.963623 C214.394972,158.963623 213.489316,158.634898 212.827874,157.976784 C212.167098,157.319335 211.836377,156.383068 211.836377,155.167985 C211.836377,153.895675 212.281553,152.957412 213.171238,152.353198 C214.060924,151.749649 215.403105,151.414935 217.197116,151.350388 L219.277264,151.286506 L219.277264,150.761479 C219.277264,149.54573 218.655749,148.938189 217.412052,148.938189 C216.453826,148.938189 215.327911,149.227652 214.034307,149.80658 L212.951645,147.598004 C214.331091,146.876007 215.860924,146.515342 217.540481,146.515342 C219.148835,146.515342 220.381885,146.86536 221.23963,147.566063 C222.097375,148.2661 222.52658,149.33146 222.52658,150.761479 L222.52658,158.748688 L220.24281,158.748688 L220.24281,158.748688 Z M219.277264,153.194972 L218.012274,153.23756 C217.061368,153.266174 216.354011,153.437856 215.889538,153.752606 C215.424399,154.066691 215.192163,154.545804 215.192163,155.189279 C215.192163,156.111571 215.721183,156.572717 216.779224,156.572717 C217.536488,156.572717 218.142699,156.354455 218.596525,155.91793 C219.051017,155.48207 219.277264,154.903142 219.277264,154.181146 L219.277264,153.194972 L219.277264,153.194972 Z" id="Fill-1100" fill="#FFFFFF"></path>
                    <path d="M230.634233,156.358447 C231.205176,156.358447 231.891238,156.23268 232.693087,155.982477 L232.693087,158.416636 C231.87793,158.781294 230.876451,158.963623 229.690647,158.963623 C228.381738,158.963623 227.429501,158.633567 226.832606,157.97146 C226.235712,157.310684 225.936932,156.318521 225.936932,154.996303 L225.936932,149.217006 L224.372495,149.217006 L224.372495,147.833567 L226.173826,146.740259 L227.117412,144.209612 L229.207542,144.209612 L229.207542,146.761553 L232.563993,146.761553 L232.563993,149.217006 L229.207542,149.217006 L229.207542,154.996303 C229.207542,155.460776 229.337967,155.80414 229.598817,156.02573 C229.859667,156.24732 230.205028,156.358447 230.634233,156.358447" id="Fill-1101" fill="#FFFFFF"></path>
                    <path d="M240.266396,158.963623 C238.336636,158.963623 236.828096,158.431275 235.742107,157.365915 C234.655453,156.30122 234.111793,154.79268 234.111793,152.841627 C234.111793,150.83268 234.614196,149.279556 235.618336,148.182255 C236.623142,147.084954 238.011238,146.536636 239.783956,146.536636 C241.478817,146.536636 242.797043,147.01841 243.740628,147.983956 C244.684214,148.948835 245.156007,150.282366 245.156007,151.983216 L245.156007,153.570277 L237.424991,153.570277 C237.460924,154.499889 237.735749,155.225213 238.250795,155.746913 C238.765176,156.268614 239.487172,156.529464 240.416784,156.529464 C241.13878,156.529464 241.821516,156.45427 242.464991,156.304547 C243.108466,156.154159 243.779224,155.915268 244.480591,155.586543 L244.480591,158.116525 C243.908318,158.402662 243.297449,158.614935 242.64732,158.754011 C241.996525,158.893752 241.202662,158.963623 240.266396,158.963623 L240.266396,158.963623 L240.266396,158.963623 Z M239.805915,148.862994 C239.111867,148.862994 238.568872,149.082588 238.176266,149.52244 C237.782329,149.961627 237.557412,150.585804 237.500185,151.393641 L242.089686,151.393641 C242.075046,150.585804 241.864769,149.961627 241.456192,149.52244 C241.049612,149.082588 240.498632,148.862994 239.805915,148.862994 L239.805915,148.862994 L239.805915,148.862994 Z" id="Fill-1102" fill="#FFFFFF"></path>
                    <path d="M263.373604,158.748688 L262.450647,154.557116 L261.20695,149.260259 L261.132421,149.260259 L258.945139,158.748688 L255.428318,158.748688 L252.017967,146.761553 L255.27793,146.761553 L256.660702,152.069057 C256.882292,153.019963 257.107874,154.331534 257.336118,156.003771 L257.400665,156.003771 C257.429279,155.460776 257.554381,154.599704 257.77597,153.420555 L257.947652,152.508244 L259.427579,146.761553 L263.03024,146.761553 L264.434972,152.508244 C264.463586,152.665952 264.50817,152.898189 264.568725,153.205619 C264.629945,153.51305 264.688503,153.839778 264.74573,154.18647 C264.802292,154.533161 264.854196,154.872532 264.901442,155.20525 C264.947357,155.537301 264.973974,155.80414 264.981294,156.003771 L265.046506,156.003771 C265.109723,155.48939 265.224177,154.783364 265.389205,153.886359 C265.552902,152.989353 265.671349,152.383808 265.742551,152.069057 L267.179889,146.761553 L270.385287,146.761553 L266.933678,158.748688 L263.373604,158.748688" id="Fill-1103" fill="#FFFFFF"></path>
                    <path d="M277.35305,158.963623 C275.422625,158.963623 273.91475,158.431275 272.828096,157.365915 C271.741442,156.30122 271.198447,154.79268 271.198447,152.841627 C271.198447,150.83268 271.700185,149.279556 272.704325,148.182255 C273.709131,147.084954 275.097227,146.536636 276.869945,146.536636 C278.564806,146.536636 279.883697,147.01841 280.827283,147.983956 C281.770203,148.948835 282.241996,150.282366 282.241996,151.983216 L282.241996,153.570277 L274.51098,153.570277 C274.546913,154.499889 274.822403,155.225213 275.337449,155.746913 C275.85183,156.268614 276.573826,156.529464 277.502773,156.529464 C278.224769,156.529464 278.90817,156.45427 279.551645,156.304547 C280.194455,156.154159 280.865878,155.915268 281.567246,155.586543 L281.567246,158.116525 C280.994307,158.402662 280.383438,158.614935 279.733309,158.754011 C279.082514,158.893752 278.289316,158.963623 277.35305,158.963623 L277.35305,158.963623 L277.35305,158.963623 Z M276.891904,148.862994 C276.197856,148.862994 275.654861,149.082588 275.262255,149.52244 C274.868318,149.961627 274.644067,150.585804 274.586174,151.393641 L279.175675,151.393641 C279.161701,150.585804 278.950758,149.961627 278.542847,149.52244 C278.136266,149.082588 277.584621,148.862994 276.891904,148.862994 L276.891904,148.862994 L276.891904,148.862994 Z" id="Fill-1104" fill="#FFFFFF"></path>
                    <path d="M284.59098,143.66329 C284.59098,142.59793 285.183216,142.064917 286.370351,142.064917 C287.556821,142.064917 288.150388,142.59793 288.150388,143.66329 C288.150388,144.170351 288.001996,144.565619 287.705213,144.847763 C287.408429,145.130573 286.963253,145.271645 286.370351,145.271645 C285.183216,145.271645 284.59098,144.735305 284.59098,143.66329 L284.59098,143.66329 L284.59098,143.66329 Z M284.730055,146.761553 L288,146.761553 L288,158.749353 L284.730055,158.749353 L284.730055,146.761553 L284.730055,146.761553 Z" id="Fill-1105" fill="#FFFFFF"></path>
                    <path d="M301.714603,146.761553 L301.714603,148.423808 L299.838743,148.905582 C300.181442,149.441922 300.353124,150.042144 300.353124,150.706913 C300.353124,151.993863 299.904621,152.996673 299.007616,153.714677 C298.11061,154.433346 296.864917,154.79268 295.270536,154.79268 L294.680961,154.760074 L294.198521,154.706839 C293.862477,154.964362 293.694122,155.250499 293.694122,155.564584 C293.694122,156.036377 294.295009,156.272606 295.495453,156.272606 L297.533678,156.272606 C298.848577,156.272606 299.850721,156.55475 300.540776,157.119039 C301.230832,157.683993 301.575527,158.513124 301.575527,159.606433 C301.575527,161.007837 300.991275,162.094492 299.822107,162.866396 C298.65427,163.638299 296.976044,164.024251 294.788762,164.024251 C293.11586,164.024251 291.83756,163.733457 290.955194,163.150536 C290.072163,162.568281 289.63098,161.751128 289.63098,160.700407 C289.63098,159.97841 289.856562,159.374861 290.306396,158.888429 C290.756895,158.402662 291.417671,158.055305 292.290055,157.848355 C291.954011,157.705287 291.66122,157.471719 291.411017,157.145656 C291.160813,156.820924 291.035046,156.475564 291.035046,156.111571 C291.035046,155.653752 291.168133,155.273789 291.432311,154.969686 C291.696488,154.666248 292.079113,154.366802 292.579519,154.074011 C291.950018,153.802514 291.451608,153.366654 291.084288,152.765767 C290.715638,152.165545 290.531312,151.457523 290.531312,150.643031 C290.531312,149.334787 290.956525,148.323327 291.80695,147.608651 C292.658041,146.893974 293.873124,146.536636 295.452865,146.536636 C295.788909,146.536636 296.187505,146.567246 296.648651,146.6278 C297.109797,146.688355 297.40525,146.732939 297.533678,146.761553 L301.714603,146.761553 L301.714603,146.761553 Z M292.461738,160.442884 C292.461738,160.893383 292.678004,161.247394 293.109871,161.504917 C293.543068,161.76244 294.148614,161.890869 294.927837,161.890869 C296.100333,161.890869 297.019298,161.729834 297.683401,161.407763 C298.348835,161.086359 298.680887,160.647172 298.680887,160.089538 C298.680887,159.639039 298.483253,159.328281 298.091312,159.156599 C297.697375,158.984917 297.089834,158.899076 296.268022,158.899076 L294.574492,158.899076 C293.973604,158.899076 293.471201,159.040148 293.067283,159.322957 C292.66403,159.605102 292.461738,159.97841 292.461738,160.442884 L292.461738,160.442884 L292.461738,160.442884 Z M293.651534,150.685619 C293.651534,151.336414 293.799926,151.850795 294.09671,152.230092 C294.393494,152.608725 294.845323,152.798373 295.452865,152.798373 C296.067726,152.798373 296.51756,152.608725 296.804362,152.230092 C297.089834,151.850795 297.233567,151.336414 297.233567,150.685619 C297.233567,149.241627 296.639335,148.51963 295.452865,148.51963 C294.251756,148.51963 293.651534,149.241627 293.651534,150.685619 L293.651534,150.685619 L293.651534,150.685619 Z" id="Fill-1106" fill="#FFFFFF"></path>
                    <path d="M314.59342,158.748688 L311.323475,158.748688 L311.323475,151.747652 C311.323475,150.017523 310.68,149.153124 309.39305,149.153124 C308.477412,149.153124 307.816636,149.463216 307.40939,150.085397 C307.001479,150.706913 306.797856,151.715046 306.797856,153.109131 L306.797856,158.748688 L303.527911,158.748688 L303.527911,142.064917 L306.797856,142.064917 L306.797856,145.464621 C306.797856,145.728799 306.772569,146.35098 306.723327,147.329834 L306.648133,148.294713 L306.819815,148.294713 C307.549131,147.122884 308.706987,146.536636 310.294048,146.536636 C311.701442,146.536636 312.770129,146.915268 313.499445,147.673198 C314.228762,148.431128 314.59342,149.517116 314.59342,150.932495 L314.59342,158.748688" id="Fill-1107" fill="#FFFFFF"></path>
                    <path d="M322.687763,156.358447 C323.258706,156.358447 323.944769,156.23268 324.745952,155.982477 L324.745952,158.416636 C323.93146,158.781294 322.929982,158.963623 321.744177,158.963623 C320.435268,158.963623 319.483031,158.633567 318.886137,157.97146 C318.289242,157.310684 317.990462,156.318521 317.990462,154.996303 L317.990462,149.217006 L316.426026,149.217006 L316.426026,147.833567 L318.227357,146.740259 L319.170943,144.209612 L321.261072,144.209612 L321.261072,146.761553 L324.617523,146.761553 L324.617523,149.217006 L321.261072,149.217006 L321.261072,154.996303 C321.261072,155.460776 321.391497,155.80414 321.652348,156.02573 C321.913863,156.24732 322.258558,156.358447 322.687763,156.358447" id="Fill-1108" fill="#FFFFFF"></path>
                    <path d="M127.609686,426.452939 L127.255675,424.898484 L127.127246,424.898484 C126.776562,425.448799 126.277486,425.881331 125.631349,426.195416 C124.983882,426.510166 124.245915,426.667874 123.416784,426.667874 C121.980776,426.667874 120.908096,426.309871 120.200074,425.595194 C119.492717,424.880518 119.138706,423.79719 119.138706,422.346543 L119.138706,414.594233 L121.68,414.594233 L121.68,421.906691 C121.68,422.814344 121.864991,423.495749 122.237634,423.949575 C122.608946,424.403401 123.191867,424.630314 123.985065,424.630314 C125.043105,424.630314 125.820333,424.313567 126.317412,423.681405 C126.813826,423.048577 127.062033,421.989205 127.062033,420.501959 L127.062033,414.594233 L129.59268,414.594233 L129.59268,426.452939 L127.609686,426.452939" id="Fill-1109" fill="#FFFFFF"></path>
                    <path d="M138.903438,426.667874 C137.402218,426.667874 136.237043,426.128207 135.408577,425.048207 L135.257523,425.048207 C135.358004,426.04902 135.408577,426.656562 135.408577,426.871497 L135.408577,431.728503 L132.888577,431.728503 L132.888577,414.594233 L134.926137,414.594233 C134.983364,414.815823 135.100481,415.344843 135.280148,416.181294 L135.408577,416.181294 C136.194455,414.980185 137.373604,414.379963 138.946026,414.379963 C140.426617,414.379963 141.578484,414.915638 142.404954,415.988318 C143.230092,417.060333 143.643327,418.56488 143.643327,420.501959 C143.643327,422.439704 143.222773,423.950906 142.38366,425.03756 C141.543216,426.124214 140.38403,426.667874 138.903438,426.667874 L138.903438,426.667874 L138.903438,426.667874 Z M138.292569,416.438152 C137.291756,416.438152 136.560444,416.731608 136.099963,417.317856 C135.638817,417.904104 135.408577,418.84037 135.408577,420.126654 L135.408577,420.501959 C135.408577,421.945952 135.636821,422.992015 136.095305,423.638817 C136.551793,424.285619 137.299076,424.60902 138.335823,424.60902 C139.207542,424.60902 139.87963,424.251682 140.351423,423.53634 C140.823216,422.821664 141.05878,421.803549 141.05878,420.480665 C141.05878,419.151128 140.825213,418.144991 140.356747,417.462921 C139.888946,416.780185 139.200222,416.438152 138.292569,416.438152 L138.292569,416.438152 L138.292569,416.438152 Z" id="Fill-1110" fill="#FFFFFF"></path>
                    <path d="M150.531904,426.667874 C149.052643,426.667874 147.898115,426.131534 147.068318,425.058854 C146.239852,423.986839 145.824621,422.482292 145.824621,420.545213 C145.824621,418.600813 146.24451,417.08695 147.084954,416.004288 C147.924732,414.920961 149.087911,414.379963 150.574492,414.379963 C152.132939,414.379963 153.319409,414.954898 154.134566,416.1061 L154.262994,416.1061 C154.14122,415.255675 154.081331,414.583586 154.081331,414.090499 L154.081331,409.769168 L156.611978,409.769168 L156.611978,426.452939 L154.638965,426.452939 L154.199113,424.898484 L154.081331,424.898484 C153.273494,426.077634 152.089686,426.667874 150.531904,426.667874 L150.531904,426.667874 L150.531904,426.667874 Z M151.20732,424.630314 C152.244067,424.630314 152.998669,424.338854 153.470462,423.755933 C153.942255,423.174344 154.184473,422.228762 154.199113,420.920518 L154.199113,420.566506 C154.199113,419.072606 153.955564,418.011238 153.470462,417.381738 C152.983364,416.752902 152.222773,416.438152 151.186026,416.438152 C150.299667,416.438152 149.616932,416.797486 149.138484,417.516155 C148.658706,418.234824 148.419815,419.258262 148.419815,420.5878 C148.419815,421.903364 148.651386,422.906174 149.116525,423.595564 C149.580998,424.285619 150.278373,424.630314 151.20732,424.630314 L151.20732,424.630314 L151.20732,424.630314 Z" id="Fill-1111" fill="#FFFFFF"></path>
                    <path d="M167.32281,426.452939 L166.81841,424.801996 L166.732569,424.801996 C166.160961,425.523993 165.586026,426.015749 165.007098,426.276599 C164.42817,426.536784 163.684214,426.667874 162.776562,426.667874 C161.611386,426.667874 160.701738,426.353124 160.047616,425.724288 C159.393494,425.094787 159.066765,424.205102 159.066765,423.0539 C159.066765,421.831497 159.520591,420.909871 160.428244,420.287689 C161.335896,419.666174 162.719335,419.326137 164.577893,419.268909 L166.6261,419.205028 L166.6261,418.5722 C166.6261,417.81427 166.449094,417.247985 166.095083,416.87268 C165.741072,416.497375 165.192754,416.309723 164.449464,416.309723 C163.841922,416.309723 163.259002,416.398891 162.701368,416.577893 C162.143734,416.756229 161.608059,416.967172 161.093678,417.210721 L160.278521,415.40939 C160.921996,415.073346 161.626026,414.817819 162.39061,414.642144 C163.155194,414.467135 163.87719,414.379963 164.556599,414.379963 C166.064473,414.379963 167.203031,414.708688 167.971608,415.366137 C168.740185,416.023586 169.12414,417.057006 169.12414,418.465065 L169.12414,426.452939 L167.32281,426.452939 L167.32281,426.452939 Z M163.570425,424.737449 C164.484732,424.737449 165.219372,424.481922 165.773678,423.970869 C166.32732,423.459815 166.60414,422.743142 166.60414,421.82085 L166.60414,420.791423 L165.082292,420.85597 C163.895157,420.899224 163.032089,421.096858 162.492421,421.451534 C161.952754,421.80488 161.683253,422.346543 161.683253,423.07586 C161.683253,423.604214 161.840296,424.013457 162.155046,424.303586 C162.469131,424.592384 162.940924,424.737449 163.570425,424.737449 L163.570425,424.737449 L163.570425,424.737449 Z" id="Fill-1112" fill="#FFFFFF"></path>
                    <path d="M176.793272,424.630314 C177.407468,424.630314 178.022329,424.533826 178.63719,424.34085 L178.63719,426.238669 C178.358373,426.360444 177.999039,426.46159 177.559852,426.544104 C177.12,426.625952 176.664177,426.667874 176.192384,426.667874 C173.804806,426.667874 172.611017,425.409538 172.611017,422.89353 L172.611017,416.502699 L170.99268,416.502699 L170.99268,415.387431 L172.728799,414.465804 L173.586543,411.956451 L175.141664,411.956451 L175.141664,414.594233 L178.518743,414.594233 L178.518743,416.502699 L175.141664,416.502699 L175.141664,422.850277 C175.141664,423.457819 175.293383,423.906322 175.597486,424.196451 C175.90159,424.48525 176.299519,424.630314 176.793272,424.630314" id="Fill-1113" fill="#FFFFFF"></path>
                    <path d="M185.875786,426.667874 C184.031201,426.667874 182.58854,426.129538 181.549131,425.054196 C180.509057,423.978189 179.988688,422.496932 179.988688,420.60976 C179.988688,418.672015 180.471793,417.149501 181.436007,416.041553 C182.401553,414.933604 183.727098,414.379963 185.41464,414.379963 C186.979741,414.379963 188.216784,414.855083 189.124436,415.805989 C190.032089,416.756229 190.485915,418.064473 190.485915,419.730055 L190.485915,421.0922 L182.583882,421.0922 C182.61915,422.242736 182.929908,423.127763 183.516821,423.745952 C184.102403,424.36414 184.928207,424.672902 185.993567,424.672902 C186.693604,424.672902 187.346396,424.607024 187.949945,424.475268 C188.554159,424.342847 189.202957,424.122588 189.89634,423.815157 L189.89634,425.863364 C189.281479,426.156821 188.659298,426.363771 188.030462,426.485545 C187.401627,426.606654 186.682957,426.667874 185.875786,426.667874 L185.875786,426.667874 L185.875786,426.667874 Z M185.41464,416.288429 C184.614122,416.288429 183.971978,416.541959 183.489538,417.049686 C183.007763,417.557412 182.71963,418.29671 182.62647,419.268909 L188.009168,419.268909 C187.995194,418.290055 187.758965,417.548096 187.301811,417.044362 C186.843993,416.540628 186.215157,416.288429 185.41464,416.288429 L185.41464,416.288429 L185.41464,416.288429 Z" id="Fill-1114" fill="#FFFFFF"></path>
                    <path d="M209.486063,426.452939 L206.955416,426.452939 L206.955416,419.161774 C206.955416,418.246802 206.771091,417.564067 206.403105,417.114233 C206.03512,416.663734 205.450869,416.438152 204.650351,416.438152 C203.584991,416.438152 202.805767,416.752902 202.31268,417.381738 C201.819593,418.011238 201.573383,419.065287 201.573383,420.545213 L201.573383,426.452939 L199.053383,426.452939 L199.053383,414.594233 L201.026396,414.594233 L201.379741,416.148688 L201.50817,416.148688 C201.865508,415.584399 202.373235,415.147874 203.031349,414.841109 C203.688799,414.533678 204.417449,414.379963 205.218632,414.379963 C208.063364,414.379963 209.486063,415.827283 209.486063,418.722588 L209.486063,426.452939" id="Fill-1115" fill="#FFFFFF"></path>
                    <path d="M223.30647,420.501959 C223.30647,422.439704 222.810055,423.950906 221.816562,425.03756 C220.822403,426.124214 219.43963,426.667874 217.666913,426.667874 C216.558299,426.667874 215.579445,426.417671 214.728355,425.917264 C213.87793,425.416858 213.224473,424.698189 212.766654,423.761922 C212.309501,422.825656 212.080591,421.739002 212.080591,420.501959 C212.080591,418.579519 212.573678,417.078299 213.560518,415.998965 C214.546691,414.91963 215.936784,414.379963 217.730795,414.379963 C219.446285,414.379963 220.804436,414.932274 221.80525,416.036229 C222.806063,417.14085 223.30647,418.629427 223.30647,420.501959 L223.30647,420.501959 L223.30647,420.501959 Z M214.67512,420.501959 C214.67512,423.240222 215.68658,424.60902 217.710166,424.60902 C219.711128,424.60902 220.712606,423.240222 220.712606,420.501959 C220.712606,417.792976 219.703808,416.438152 217.687542,416.438152 C216.630166,416.438152 215.864251,416.788835 215.388466,417.489538 C214.913346,418.189575 214.67512,419.194381 214.67512,420.501959 L214.67512,420.501959 L214.67512,420.501959 Z" id="Fill-1116" fill="#FFFFFF"></path>
                    <path d="M235.657597,426.452939 L234.123771,420.920518 C233.938115,420.33427 233.60207,418.972791 233.115638,416.835416 L233.01915,416.835416 C232.604584,418.765176 232.27586,420.133974 232.032311,420.941811 L230.456562,426.452939 L227.668392,426.452939 L224.345213,414.594233 L226.918447,414.594233 L228.429649,420.438078 C228.773013,421.88207 229.015896,423.118447 229.158965,424.147874 L229.224177,424.147874 C229.294713,423.626174 229.403845,423.027283 229.550906,422.351867 C229.696636,421.675786 229.824399,421.170721 229.930869,420.834677 L231.7322,414.594233 L234.499076,414.594233 L236.246506,420.834677 C236.354307,421.184695 236.488059,421.721035 236.649094,422.443031 C236.809464,423.165028 236.904621,423.725989 236.932569,424.12658 L237.01841,424.12658 C237.126211,423.246876 237.376414,422.017819 237.76902,420.438078 L239.302847,414.594233 L241.833494,414.594233 L238.488355,426.452939 L235.657597,426.452939" id="Fill-1117" fill="#FFFFFF"></path>
                    <path d="M285.120665,443.498041 C285.120665,444.986617 282.754381,448.316451 279.839113,448.316451 L79.6751201,448.331091 C76.7571904,448.331091 74.3935675,445.001922 74.3935675,443.51268 L74.3935675,395.862921 C74.3935675,394.372348 76.7571904,390.618632 79.6751201,390.618632 L279.839113,390.601996 C282.754381,390.601996 285.120665,394.355712 285.120665,395.847616 L285.120665,443.498041 L285.120665,443.498041 Z" id="Stroke-1122" stroke="#FFFFFF" stroke-width="2.552"></path>
                </g>
            </g>
        </g>
    </g>
</svg>